<svg xmlns="http://www.w3.org/2000/svg" width="980" height="560" viewBox="0 0 980 560" font-family="-apple-system,Segoe UI,Helvetica,Arial,sans-serif">
<rect width="980" height="560" fill="#282c34"/>
<text x="70" y="34" font-size="21" font-weight="700" fill="#c9d1d9">Kāra auto-parallel speedup</text>
<text x="70" y="56" font-size="13" fill="#8b949e">kāra-par ÷ kāra-seq · same source, zero parallel code · higher = faster · 26 programs</text>
<line x1="70" y1="456.0" x2="812" y2="456.0" stroke="#3b414b"/>
<text x="60" y="460.0" font-size="12" text-anchor="end" fill="#8b949e">0×</text>
<line x1="70" y1="364.0" x2="812" y2="364.0" stroke="#3b414b"/>
<text x="60" y="368.0" font-size="12" text-anchor="end" fill="#8b949e">5×</text>
<line x1="70" y1="272.0" x2="812" y2="272.0" stroke="#3b414b"/>
<text x="60" y="276.0" font-size="12" text-anchor="end" fill="#8b949e">10×</text>
<line x1="70" y1="180.0" x2="812" y2="180.0" stroke="#3b414b"/>
<text x="60" y="184.0" font-size="12" text-anchor="end" fill="#8b949e">15×</text>
<line x1="70" y1="88.0" x2="812" y2="88.0" stroke="#3b414b"/>
<text x="60" y="92.0" font-size="12" text-anchor="end" fill="#8b949e">20×</text>
<line x1="70" y1="437.6" x2="812" y2="437.6" stroke="#a7b0bc" stroke-width="1.4" stroke-dasharray="5 4"/>
<text x="812" y="431.6" font-size="11" text-anchor="end" fill="#8b949e">1× — no speedup</text>
<line x1="70" y1="124.8" x2="812" y2="124.8" stroke="#ff7b72" stroke-width="1.4" stroke-dasharray="5 4"/>
<text x="812" y="118.8" font-size="11" text-anchor="end" fill="#8b949e">18 cores — hardware ceiling (M5 Pro · 6P + 12E)</text>
<line x1="114.5" y1="456" x2="114.5" y2="461" stroke="#3b414b"/>
<g transform="translate(114.5,474) rotate(35)">
<text x="0" y="0" font-size="10.5" fill="#8b949e">#1</text>
<text x="0" y="12" font-size="10.5" fill="#8b949e">brute_force</text>
</g>
<line x1="140.6" y1="456" x2="140.6" y2="461" stroke="#3b414b"/>
<g transform="translate(140.6,474) rotate(35)">
<text x="0" y="0" font-size="10.5" fill="#8b949e">#4</text>
<text x="0" y="12" font-size="10.5" fill="#8b949e">binary_search_p…</text>
</g>
<line x1="166.8" y1="456" x2="166.8" y2="461" stroke="#3b414b"/>
<g transform="translate(166.8,474) rotate(35)">
<text x="0" y="0" font-size="10.5" fill="#8b949e">#6</text>
<text x="0" y="12" font-size="10.5" fill="#8b949e">row_buffers</text>
</g>
<line x1="192.9" y1="456" x2="192.9" y2="461" stroke="#3b414b"/>
<g transform="translate(192.9,474) rotate(35)">
<text x="0" y="0" font-size="10.5" fill="#8b949e">#7</text>
<text x="0" y="12" font-size="10.5" fill="#8b949e">reverse</text>
</g>
<line x1="219.0" y1="456" x2="219.0" y2="461" stroke="#3b414b"/>
<g transform="translate(219.0,474) rotate(35)">
<text x="0" y="0" font-size="10.5" fill="#8b949e">#8</text>
<text x="0" y="12" font-size="10.5" fill="#8b949e">atoi</text>
</g>
<line x1="245.1" y1="456" x2="245.1" y2="461" stroke="#3b414b"/>
<g transform="translate(245.1,474) rotate(35)">
<text x="0" y="0" font-size="10.5" fill="#8b949e">#9</text>
<text x="0" y="12" font-size="10.5" fill="#8b949e">palindrome</text>
</g>
<line x1="271.2" y1="456" x2="271.2" y2="461" stroke="#3b414b"/>
<g transform="translate(271.2,474) rotate(35)">
<text x="0" y="0" font-size="10.5" fill="#8b949e">#10</text>
<text x="0" y="12" font-size="10.5" fill="#8b949e">regex</text>
</g>
<line x1="297.3" y1="456" x2="297.3" y2="461" stroke="#3b414b"/>
<g transform="translate(297.3,474) rotate(35)">
<text x="0" y="0" font-size="10.5" fill="#8b949e">#11</text>
<text x="0" y="12" font-size="10.5" fill="#8b949e">container</text>
</g>
<line x1="323.5" y1="456" x2="323.5" y2="461" stroke="#3b414b"/>
<g transform="translate(323.5,474) rotate(35)">
<text x="0" y="0" font-size="10.5" fill="#8b949e">#12</text>
<text x="0" y="12" font-size="10.5" fill="#8b949e">greedy</text>
</g>
<line x1="349.6" y1="456" x2="349.6" y2="461" stroke="#3b414b"/>
<g transform="translate(349.6,474) rotate(35)">
<text x="0" y="0" font-size="10.5" fill="#8b949e">#13</text>
<text x="0" y="12" font-size="10.5" fill="#8b949e">greedy</text>
</g>
<line x1="375.7" y1="456" x2="375.7" y2="461" stroke="#3b414b"/>
<g transform="translate(375.7,474) rotate(35)">
<text x="0" y="0" font-size="10.5" fill="#8b949e">#14</text>
<text x="0" y="12" font-size="10.5" fill="#8b949e">vertical</text>
</g>
<line x1="401.8" y1="456" x2="401.8" y2="461" stroke="#3b414b"/>
<g transform="translate(401.8,474) rotate(35)">
<text x="0" y="0" font-size="10.5" fill="#8b949e">#15</text>
<text x="0" y="12" font-size="10.5" fill="#8b949e">three_sum</text>
</g>
<line x1="427.9" y1="456" x2="427.9" y2="461" stroke="#3b414b"/>
<g transform="translate(427.9,474) rotate(35)">
<text x="0" y="0" font-size="10.5" fill="#8b949e">#16</text>
<text x="0" y="12" font-size="10.5" fill="#8b949e">three_sum_close…</text>
</g>
<line x1="454.1" y1="456" x2="454.1" y2="461" stroke="#3b414b"/>
<g transform="translate(454.1,474) rotate(35)">
<text x="0" y="0" font-size="10.5" fill="#8b949e">#17</text>
<text x="0" y="12" font-size="10.5" fill="#8b949e">letter_combinat…</text>
</g>
<line x1="480.2" y1="456" x2="480.2" y2="461" stroke="#3b414b"/>
<g transform="translate(480.2,474) rotate(35)">
<text x="0" y="0" font-size="10.5" fill="#8b949e">#18</text>
<text x="0" y="12" font-size="10.5" fill="#8b949e">four_sum</text>
</g>
<line x1="506.3" y1="456" x2="506.3" y2="461" stroke="#3b414b"/>
<g transform="translate(506.3,474) rotate(35)">
<text x="0" y="0" font-size="10.5" fill="#8b949e">#20</text>
<text x="0" y="12" font-size="10.5" fill="#8b949e">valid_parenthes…</text>
</g>
<line x1="532.4" y1="456" x2="532.4" y2="461" stroke="#3b414b"/>
<g transform="translate(532.4,474) rotate(35)">
<text x="0" y="0" font-size="10.5" fill="#8b949e">#22</text>
<text x="0" y="12" font-size="10.5" fill="#8b949e">backtracking</text>
</g>
<line x1="558.5" y1="456" x2="558.5" y2="461" stroke="#3b414b"/>
<g transform="translate(558.5,474) rotate(35)">
<text x="0" y="0" font-size="10.5" fill="#8b949e">#23</text>
<text x="0" y="12" font-size="10.5" fill="#8b949e">divide_and_conq…</text>
</g>
<line x1="584.7" y1="456" x2="584.7" y2="461" stroke="#3b414b"/>
<g transform="translate(584.7,474) rotate(35)">
<text x="0" y="0" font-size="10.5" fill="#8b949e">#56</text>
<text x="0" y="12" font-size="10.5" fill="#8b949e">merge_intervals</text>
</g>
<line x1="610.8" y1="456" x2="610.8" y2="461" stroke="#3b414b"/>
<g transform="translate(610.8,474) rotate(35)">
<text x="0" y="0" font-size="10.5" fill="#8b949e">#65</text>
<text x="0" y="12" font-size="10.5" fill="#8b949e">valid</text>
</g>
<line x1="636.9" y1="456" x2="636.9" y2="461" stroke="#3b414b"/>
<g transform="translate(636.9,474) rotate(35)">
<text x="0" y="0" font-size="10.5" fill="#8b949e">#71</text>
<text x="0" y="12" font-size="10.5" fill="#8b949e">simplify</text>
</g>
<line x1="663.0" y1="456" x2="663.0" y2="461" stroke="#3b414b"/>
<g transform="translate(663.0,474) rotate(35)">
<text x="0" y="0" font-size="10.5" fill="#8b949e">#125</text>
<text x="0" y="12" font-size="10.5" fill="#8b949e">valid_palindrome</text>
</g>
<line x1="689.1" y1="456" x2="689.1" y2="461" stroke="#3b414b"/>
<g transform="translate(689.1,474) rotate(35)">
<text x="0" y="0" font-size="10.5" fill="#8b949e">#133</text>
<text x="0" y="12" font-size="10.5" fill="#8b949e">clone_bfs</text>
</g>
<line x1="715.2" y1="456" x2="715.2" y2="461" stroke="#3b414b"/>
<g transform="translate(715.2,474) rotate(35)">
<text x="0" y="0" font-size="10.5" fill="#8b949e">#204</text>
<text x="0" y="12" font-size="10.5" fill="#8b949e">count</text>
</g>
<line x1="741.4" y1="456" x2="741.4" y2="461" stroke="#3b414b"/>
<g transform="translate(741.4,474) rotate(35)">
<text x="0" y="0" font-size="10.5" fill="#8b949e">#394</text>
<text x="0" y="12" font-size="10.5" fill="#8b949e">decode_string</text>
</g>
<line x1="767.5" y1="456" x2="767.5" y2="461" stroke="#3b414b"/>
<g transform="translate(767.5,474) rotate(35)">
<text x="0" y="0" font-size="10.5" fill="#8b949e">#722</text>
<text x="0" y="12" font-size="10.5" fill="#8b949e">remove_comments</text>
</g>
<circle cx="114.5" cy="252.1" r="4.5" fill="#ff922b" opacity="0.95"/>
<text x="114.5" y="242.1" font-size="12" text-anchor="middle" fill="#ff922b" font-weight="700">11.1×</text>
<circle cx="140.6" cy="388.2" r="4.5" fill="#ff922b" opacity="0.95"/>
<text x="140.6" y="378.2" font-size="12" text-anchor="middle" fill="#ff922b" font-weight="700">3.7×</text>
<circle cx="166.8" cy="375.1" r="4.5" fill="#ff922b" opacity="0.95"/>
<text x="166.8" y="365.1" font-size="12" text-anchor="middle" fill="#ff922b" font-weight="700">4.4×</text>
<circle cx="192.9" cy="251.5" r="4.5" fill="#ff922b" opacity="0.95"/>
<text x="192.9" y="241.5" font-size="12" text-anchor="middle" fill="#ff922b" font-weight="700">11.1×</text>
<circle cx="219.0" cy="330.7" r="4.5" fill="#ff922b" opacity="0.95"/>
<text x="219.0" y="320.7" font-size="12" text-anchor="middle" fill="#ff922b" font-weight="700">6.8×</text>
<circle cx="245.1" cy="306.3" r="4.5" fill="#ff922b" opacity="0.95"/>
<text x="245.1" y="296.3" font-size="12" text-anchor="middle" fill="#ff922b" font-weight="700">8.1×</text>
<circle cx="271.2" cy="262.5" r="4.5" fill="#ff922b" opacity="0.95"/>
<text x="271.2" y="252.5" font-size="12" text-anchor="middle" fill="#ff922b" font-weight="700">10.5×</text>
<circle cx="297.3" cy="264.8" r="4.5" fill="#ff922b" opacity="0.95"/>
<text x="297.3" y="254.8" font-size="12" text-anchor="middle" fill="#ff922b" font-weight="700">10.4×</text>
<circle cx="323.5" cy="283.8" r="4.5" fill="#ff922b" opacity="0.95"/>
<text x="323.5" y="273.8" font-size="12" text-anchor="middle" fill="#ff922b" font-weight="700">9.4×</text>
<circle cx="349.6" cy="256.1" r="4.5" fill="#ff922b" opacity="0.95"/>
<text x="349.6" y="246.1" font-size="12" text-anchor="middle" fill="#ff922b" font-weight="700">10.9×</text>
<circle cx="375.7" cy="330.4" r="4.5" fill="#ff922b" opacity="0.95"/>
<text x="375.7" y="320.4" font-size="12" text-anchor="middle" fill="#ff922b" font-weight="700">6.8×</text>
<circle cx="401.8" cy="318.6" r="4.5" fill="#ff922b" opacity="0.95"/>
<text x="401.8" y="308.6" font-size="12" text-anchor="middle" fill="#ff922b" font-weight="700">7.5×</text>
<circle cx="427.9" cy="313.8" r="4.5" fill="#ff922b" opacity="0.95"/>
<text x="427.9" y="303.8" font-size="12" text-anchor="middle" fill="#ff922b" font-weight="700">7.7×</text>
<circle cx="454.1" cy="373.4" r="4.5" fill="#ff922b" opacity="0.95"/>
<text x="454.1" y="363.4" font-size="12" text-anchor="middle" fill="#ff922b" font-weight="700">4.5×</text>
<circle cx="480.2" cy="300.2" r="4.5" fill="#ff922b" opacity="0.95"/>
<text x="480.2" y="290.2" font-size="12" text-anchor="middle" fill="#ff922b" font-weight="700">8.5×</text>
<circle cx="506.3" cy="267.4" r="4.5" fill="#ff922b" opacity="0.95"/>
<text x="506.3" y="257.4" font-size="12" text-anchor="middle" fill="#ff922b" font-weight="700">10.3×</text>
<circle cx="532.4" cy="437.1" r="4.5" fill="#ff922b" opacity="0.95"/>
<text x="532.4" y="427.1" font-size="12" text-anchor="middle" fill="#ff922b" font-weight="700">1.0×</text>
<circle cx="558.5" cy="296.4" r="4.5" fill="#ff922b" opacity="0.95"/>
<text x="558.5" y="286.4" font-size="12" text-anchor="middle" fill="#ff922b" font-weight="700">8.7×</text>
<circle cx="584.7" cy="331.1" r="4.5" fill="#ff922b" opacity="0.95"/>
<text x="584.7" y="321.1" font-size="12" text-anchor="middle" fill="#ff922b" font-weight="700">6.8×</text>
<circle cx="610.8" cy="257.9" r="4.5" fill="#ff922b" opacity="0.95"/>
<text x="610.8" y="247.9" font-size="12" text-anchor="middle" fill="#ff922b" font-weight="700">10.8×</text>
<circle cx="636.9" cy="345.0" r="4.5" fill="#ff922b" opacity="0.95"/>
<text x="636.9" y="335.0" font-size="12" text-anchor="middle" fill="#ff922b" font-weight="700">6.0×</text>
<circle cx="663.0" cy="263.4" r="4.5" fill="#ff922b" opacity="0.95"/>
<text x="663.0" y="253.4" font-size="12" text-anchor="middle" fill="#ff922b" font-weight="700">10.5×</text>
<circle cx="689.1" cy="338.7" r="4.5" fill="#ff922b" opacity="0.95"/>
<text x="689.1" y="328.7" font-size="12" text-anchor="middle" fill="#ff922b" font-weight="700">6.4×</text>
<circle cx="715.2" cy="276.8" r="4.5" fill="#ff922b" opacity="0.95"/>
<text x="715.2" y="266.8" font-size="12" text-anchor="middle" fill="#ff922b" font-weight="700">9.7×</text>
<circle cx="741.4" cy="372.6" r="4.5" fill="#ff922b" opacity="0.95"/>
<text x="741.4" y="362.6" font-size="12" text-anchor="middle" fill="#ff922b" font-weight="700">4.5×</text>
<circle cx="767.5" cy="373.8" r="4.5" fill="#ff922b" opacity="0.95"/>
<text x="767.5" y="363.8" font-size="12" text-anchor="middle" fill="#ff922b" font-weight="700">4.5×</text>
<text x="70" y="526" font-size="11.5" fill="#8b949e">Intra-Kāra: the auto-par binary vs the same source built sequentially. Auto-par targets dependency-free reductions/maps over large data;</text>
<text x="70" y="542" font-size="11.5" fill="#8b949e">the compiler's cost gate skips loops too small to benefit (why #4's tiny kernel gets 3.7× and #204 gets 13.4×). Raw numbers: bench-results.json</text>
</svg>