<svg xmlns="http://www.w3.org/2000/svg" width="980" height="560" viewBox="0 0 980 560" font-family="-apple-system,Segoe UI,Helvetica,Arial,sans-serif">
<rect width="980" height="560" fill="#282c34"/>
<text x="70" y="34" font-size="21" font-weight="700" fill="#c9d1d9">Kāra auto-parallel speedup</text>
<text x="70" y="56" font-size="13" fill="#8b949e">kāra-par ÷ kāra-seq · same source, zero parallel code · higher = faster · 22 programs</text>
<line x1="70" y1="456.0" x2="812" y2="456.0" stroke="#3b414b"/>
<text x="60" y="460.0" font-size="12" text-anchor="end" fill="#8b949e">0×</text>
<line x1="70" y1="364.0" x2="812" y2="364.0" stroke="#3b414b"/>
<text x="60" y="368.0" font-size="12" text-anchor="end" fill="#8b949e">5×</text>
<line x1="70" y1="272.0" x2="812" y2="272.0" stroke="#3b414b"/>
<text x="60" y="276.0" font-size="12" text-anchor="end" fill="#8b949e">10×</text>
<line x1="70" y1="180.0" x2="812" y2="180.0" stroke="#3b414b"/>
<text x="60" y="184.0" font-size="12" text-anchor="end" fill="#8b949e">15×</text>
<line x1="70" y1="88.0" x2="812" y2="88.0" stroke="#3b414b"/>
<text x="60" y="92.0" font-size="12" text-anchor="end" fill="#8b949e">20×</text>
<line x1="70" y1="437.6" x2="812" y2="437.6" stroke="#a7b0bc" stroke-width="1.4" stroke-dasharray="5 4"/>
<text x="812" y="431.6" font-size="11" text-anchor="end" fill="#8b949e">1× — no speedup</text>
<line x1="70" y1="124.8" x2="812" y2="124.8" stroke="#ff7b72" stroke-width="1.4" stroke-dasharray="5 4"/>
<text x="812" y="118.8" font-size="11" text-anchor="end" fill="#8b949e">18 cores — hardware ceiling (M5 Pro · 6P + 12E)</text>
<line x1="114.5" y1="456" x2="114.5" y2="461" stroke="#3b414b"/>
<g transform="translate(114.5,474) rotate(35)">
<text x="0" y="0" font-size="10.5" fill="#8b949e">#4</text>
<text x="0" y="12" font-size="10.5" fill="#8b949e">binary_search_p…</text>
</g>
<line x1="145.6" y1="456" x2="145.6" y2="461" stroke="#3b414b"/>
<g transform="translate(145.6,474) rotate(35)">
<text x="0" y="0" font-size="10.5" fill="#8b949e">#6</text>
<text x="0" y="12" font-size="10.5" fill="#8b949e">row_buffers</text>
</g>
<line x1="176.7" y1="456" x2="176.7" y2="461" stroke="#3b414b"/>
<g transform="translate(176.7,474) rotate(35)">
<text x="0" y="0" font-size="10.5" fill="#8b949e">#7</text>
<text x="0" y="12" font-size="10.5" fill="#8b949e">reverse</text>
</g>
<line x1="207.8" y1="456" x2="207.8" y2="461" stroke="#3b414b"/>
<g transform="translate(207.8,474) rotate(35)">
<text x="0" y="0" font-size="10.5" fill="#8b949e">#8</text>
<text x="0" y="12" font-size="10.5" fill="#8b949e">atoi</text>
</g>
<line x1="238.9" y1="456" x2="238.9" y2="461" stroke="#3b414b"/>
<g transform="translate(238.9,474) rotate(35)">
<text x="0" y="0" font-size="10.5" fill="#8b949e">#9</text>
<text x="0" y="12" font-size="10.5" fill="#8b949e">palindrome</text>
</g>
<line x1="270.0" y1="456" x2="270.0" y2="461" stroke="#3b414b"/>
<g transform="translate(270.0,474) rotate(35)">
<text x="0" y="0" font-size="10.5" fill="#8b949e">#10</text>
<text x="0" y="12" font-size="10.5" fill="#8b949e">regex</text>
</g>
<line x1="301.1" y1="456" x2="301.1" y2="461" stroke="#3b414b"/>
<g transform="translate(301.1,474) rotate(35)">
<text x="0" y="0" font-size="10.5" fill="#8b949e">#11</text>
<text x="0" y="12" font-size="10.5" fill="#8b949e">container</text>
</g>
<line x1="332.2" y1="456" x2="332.2" y2="461" stroke="#3b414b"/>
<g transform="translate(332.2,474) rotate(35)">
<text x="0" y="0" font-size="10.5" fill="#8b949e">#12</text>
<text x="0" y="12" font-size="10.5" fill="#8b949e">greedy</text>
</g>
<line x1="363.3" y1="456" x2="363.3" y2="461" stroke="#3b414b"/>
<g transform="translate(363.3,474) rotate(35)">
<text x="0" y="0" font-size="10.5" fill="#8b949e">#13</text>
<text x="0" y="12" font-size="10.5" fill="#8b949e">greedy</text>
</g>
<line x1="394.4" y1="456" x2="394.4" y2="461" stroke="#3b414b"/>
<g transform="translate(394.4,474) rotate(35)">
<text x="0" y="0" font-size="10.5" fill="#8b949e">#14</text>
<text x="0" y="12" font-size="10.5" fill="#8b949e">vertical</text>
</g>
<line x1="425.5" y1="456" x2="425.5" y2="461" stroke="#3b414b"/>
<g transform="translate(425.5,474) rotate(35)">
<text x="0" y="0" font-size="10.5" fill="#8b949e">#15</text>
<text x="0" y="12" font-size="10.5" fill="#8b949e">three_sum</text>
</g>
<line x1="456.5" y1="456" x2="456.5" y2="461" stroke="#3b414b"/>
<g transform="translate(456.5,474) rotate(35)">
<text x="0" y="0" font-size="10.5" fill="#8b949e">#16</text>
<text x="0" y="12" font-size="10.5" fill="#8b949e">three_sum_close…</text>
</g>
<line x1="487.6" y1="456" x2="487.6" y2="461" stroke="#3b414b"/>
<g transform="translate(487.6,474) rotate(35)">
<text x="0" y="0" font-size="10.5" fill="#8b949e">#17</text>
<text x="0" y="12" font-size="10.5" fill="#8b949e">letter_combinat…</text>
</g>
<line x1="518.7" y1="456" x2="518.7" y2="461" stroke="#3b414b"/>
<g transform="translate(518.7,474) rotate(35)">
<text x="0" y="0" font-size="10.5" fill="#8b949e">#18</text>
<text x="0" y="12" font-size="10.5" fill="#8b949e">four_sum</text>
</g>
<line x1="549.8" y1="456" x2="549.8" y2="461" stroke="#3b414b"/>
<g transform="translate(549.8,474) rotate(35)">
<text x="0" y="0" font-size="10.5" fill="#8b949e">#20</text>
<text x="0" y="12" font-size="10.5" fill="#8b949e">valid_parenthes…</text>
</g>
<line x1="580.9" y1="456" x2="580.9" y2="461" stroke="#3b414b"/>
<g transform="translate(580.9,474) rotate(35)">
<text x="0" y="0" font-size="10.5" fill="#8b949e">#22</text>
<text x="0" y="12" font-size="10.5" fill="#8b949e">backtracking</text>
</g>
<line x1="612.0" y1="456" x2="612.0" y2="461" stroke="#3b414b"/>
<g transform="translate(612.0,474) rotate(35)">
<text x="0" y="0" font-size="10.5" fill="#8b949e">#23</text>
<text x="0" y="12" font-size="10.5" fill="#8b949e">divide_and_conq…</text>
</g>
<line x1="643.1" y1="456" x2="643.1" y2="461" stroke="#3b414b"/>
<g transform="translate(643.1,474) rotate(35)">
<text x="0" y="0" font-size="10.5" fill="#8b949e">#56</text>
<text x="0" y="12" font-size="10.5" fill="#8b949e">merge_intervals</text>
</g>
<line x1="674.2" y1="456" x2="674.2" y2="461" stroke="#3b414b"/>
<g transform="translate(674.2,474) rotate(35)">
<text x="0" y="0" font-size="10.5" fill="#8b949e">#65</text>
<text x="0" y="12" font-size="10.5" fill="#8b949e">valid</text>
</g>
<line x1="705.3" y1="456" x2="705.3" y2="461" stroke="#3b414b"/>
<g transform="translate(705.3,474) rotate(35)">
<text x="0" y="0" font-size="10.5" fill="#8b949e">#71</text>
<text x="0" y="12" font-size="10.5" fill="#8b949e">simplify</text>
</g>
<line x1="736.4" y1="456" x2="736.4" y2="461" stroke="#3b414b"/>
<g transform="translate(736.4,474) rotate(35)">
<text x="0" y="0" font-size="10.5" fill="#8b949e">#133</text>
<text x="0" y="12" font-size="10.5" fill="#8b949e">clone_bfs</text>
</g>
<line x1="767.5" y1="456" x2="767.5" y2="461" stroke="#3b414b"/>
<g transform="translate(767.5,474) rotate(35)">
<text x="0" y="0" font-size="10.5" fill="#8b949e">#204</text>
<text x="0" y="12" font-size="10.5" fill="#8b949e">count</text>
</g>
<circle cx="114.5" cy="388.2" r="4.5" fill="#ff922b" opacity="0.95"/>
<text x="114.5" y="378.2" font-size="12" text-anchor="middle" fill="#ff922b" font-weight="700">3.7×</text>
<circle cx="145.6" cy="375.1" r="4.5" fill="#ff922b" opacity="0.95"/>
<text x="145.6" y="365.1" font-size="12" text-anchor="middle" fill="#ff922b" font-weight="700">4.4×</text>
<circle cx="176.7" cy="251.5" r="4.5" fill="#ff922b" opacity="0.95"/>
<text x="176.7" y="241.5" font-size="12" text-anchor="middle" fill="#ff922b" font-weight="700">11.1×</text>
<circle cx="207.8" cy="330.7" r="4.5" fill="#ff922b" opacity="0.95"/>
<text x="207.8" y="320.7" font-size="12" text-anchor="middle" fill="#ff922b" font-weight="700">6.8×</text>
<circle cx="238.9" cy="306.3" r="4.5" fill="#ff922b" opacity="0.95"/>
<text x="238.9" y="296.3" font-size="12" text-anchor="middle" fill="#ff922b" font-weight="700">8.1×</text>
<circle cx="270.0" cy="262.5" r="4.5" fill="#ff922b" opacity="0.95"/>
<text x="270.0" y="252.5" font-size="12" text-anchor="middle" fill="#ff922b" font-weight="700">10.5×</text>
<circle cx="301.1" cy="264.8" r="4.5" fill="#ff922b" opacity="0.95"/>
<text x="301.1" y="254.8" font-size="12" text-anchor="middle" fill="#ff922b" font-weight="700">10.4×</text>
<circle cx="332.2" cy="283.8" r="4.5" fill="#ff922b" opacity="0.95"/>
<text x="332.2" y="273.8" font-size="12" text-anchor="middle" fill="#ff922b" font-weight="700">9.4×</text>
<circle cx="363.3" cy="256.1" r="4.5" fill="#ff922b" opacity="0.95"/>
<text x="363.3" y="246.1" font-size="12" text-anchor="middle" fill="#ff922b" font-weight="700">10.9×</text>
<circle cx="394.4" cy="330.4" r="4.5" fill="#ff922b" opacity="0.95"/>
<text x="394.4" y="320.4" font-size="12" text-anchor="middle" fill="#ff922b" font-weight="700">6.8×</text>
<circle cx="425.5" cy="318.6" r="4.5" fill="#ff922b" opacity="0.95"/>
<text x="425.5" y="308.6" font-size="12" text-anchor="middle" fill="#ff922b" font-weight="700">7.5×</text>
<circle cx="456.5" cy="313.8" r="4.5" fill="#ff922b" opacity="0.95"/>
<text x="456.5" y="303.8" font-size="12" text-anchor="middle" fill="#ff922b" font-weight="700">7.7×</text>
<circle cx="487.6" cy="373.4" r="4.5" fill="#ff922b" opacity="0.95"/>
<text x="487.6" y="363.4" font-size="12" text-anchor="middle" fill="#ff922b" font-weight="700">4.5×</text>
<circle cx="518.7" cy="300.2" r="4.5" fill="#ff922b" opacity="0.95"/>
<text x="518.7" y="290.2" font-size="12" text-anchor="middle" fill="#ff922b" font-weight="700">8.5×</text>
<circle cx="549.8" cy="267.4" r="4.5" fill="#ff922b" opacity="0.95"/>
<text x="549.8" y="257.4" font-size="12" text-anchor="middle" fill="#ff922b" font-weight="700">10.3×</text>
<circle cx="580.9" cy="437.1" r="4.5" fill="#ff922b" opacity="0.95"/>
<text x="580.9" y="427.1" font-size="12" text-anchor="middle" fill="#ff922b" font-weight="700">1.0×</text>
<circle cx="612.0" cy="296.4" r="4.5" fill="#ff922b" opacity="0.95"/>
<text x="612.0" y="286.4" font-size="12" text-anchor="middle" fill="#ff922b" font-weight="700">8.7×</text>
<circle cx="643.1" cy="331.1" r="4.5" fill="#ff922b" opacity="0.95"/>
<text x="643.1" y="321.1" font-size="12" text-anchor="middle" fill="#ff922b" font-weight="700">6.8×</text>
<circle cx="674.2" cy="257.9" r="4.5" fill="#ff922b" opacity="0.95"/>
<text x="674.2" y="247.9" font-size="12" text-anchor="middle" fill="#ff922b" font-weight="700">10.8×</text>
<circle cx="705.3" cy="345.0" r="4.5" fill="#ff922b" opacity="0.95"/>
<text x="705.3" y="335.0" font-size="12" text-anchor="middle" fill="#ff922b" font-weight="700">6.0×</text>
<circle cx="736.4" cy="338.7" r="4.5" fill="#ff922b" opacity="0.95"/>
<text x="736.4" y="328.7" font-size="12" text-anchor="middle" fill="#ff922b" font-weight="700">6.4×</text>
<circle cx="767.5" cy="210.0" r="4.5" fill="#ff922b" opacity="0.95"/>
<text x="767.5" y="200.0" font-size="12" text-anchor="middle" fill="#ff922b" font-weight="700">13.4×</text>
<text x="70" y="526" font-size="11.5" fill="#8b949e">Intra-Kāra: the auto-par binary vs the same source built sequentially. Auto-par targets dependency-free reductions/maps over large data;</text>
<text x="70" y="542" font-size="11.5" fill="#8b949e">the compiler's cost gate skips loops too small to benefit (why #4's tiny kernel gets 3.7× and #204 gets 13.4×). Raw numbers: bench-results.json</text>
</svg>