<svg xmlns="http://www.w3.org/2000/svg" width="980" height="560" viewBox="0 0 980 560" font-family="-apple-system,Segoe UI,Helvetica,Arial,sans-serif">
<rect width="980" height="560" fill="#282c34"/>
<text x="70" y="34" font-size="21" font-weight="700" fill="#c9d1d9">Kāra auto-parallel speedup</text>
<text x="70" y="56" font-size="13" fill="#8b949e">kāra-par ÷ kāra-seq · same source, zero parallel code · higher = faster · 36 programs</text>
<line x1="70" y1="456.0" x2="812" y2="456.0" stroke="#3b414b"/>
<text x="60" y="460.0" font-size="12" text-anchor="end" fill="#8b949e">0×</text>
<line x1="70" y1="364.0" x2="812" y2="364.0" stroke="#3b414b"/>
<text x="60" y="368.0" font-size="12" text-anchor="end" fill="#8b949e">5×</text>
<line x1="70" y1="272.0" x2="812" y2="272.0" stroke="#3b414b"/>
<text x="60" y="276.0" font-size="12" text-anchor="end" fill="#8b949e">10×</text>
<line x1="70" y1="180.0" x2="812" y2="180.0" stroke="#3b414b"/>
<text x="60" y="184.0" font-size="12" text-anchor="end" fill="#8b949e">15×</text>
<line x1="70" y1="88.0" x2="812" y2="88.0" stroke="#3b414b"/>
<text x="60" y="92.0" font-size="12" text-anchor="end" fill="#8b949e">20×</text>
<line x1="70" y1="437.6" x2="812" y2="437.6" stroke="#a7b0bc" stroke-width="1.4" stroke-dasharray="5 4"/>
<text x="812" y="431.6" font-size="11" text-anchor="end" fill="#8b949e">1× — no speedup</text>
<line x1="70" y1="124.8" x2="812" y2="124.8" stroke="#ff7b72" stroke-width="1.4" stroke-dasharray="5 4"/>
<text x="812" y="118.8" font-size="11" text-anchor="end" fill="#8b949e">18 cores — hardware ceiling (M5 Pro · 6P + 12E)</text>
<line x1="70" y1="456" x2="812" y2="456" stroke="#3b414b"/>
<text x="441.0" y="478" font-size="11" text-anchor="middle" fill="#8b949e">36 parallel programs — x-order carries no meaning</text>
<circle cx="114.5" cy="247.2" r="3.0" fill="#ff922b" opacity="0.7"/>
<circle cx="133.2" cy="381.5" r="3.0" fill="#ff922b" opacity="0.7"/>
<circle cx="151.8" cy="259.8" r="3.0" fill="#ff922b" opacity="0.7"/>
<circle cx="170.5" cy="373.8" r="3.0" fill="#ff922b" opacity="0.7"/>
<circle cx="189.1" cy="253.2" r="3.0" fill="#ff922b" opacity="0.7"/>
<circle cx="207.8" cy="305.5" r="3.0" fill="#ff922b" opacity="0.7"/>
<circle cx="226.5" cy="307.4" r="3.0" fill="#ff922b" opacity="0.7"/>
<circle cx="245.1" cy="241.6" r="3.0" fill="#ff922b" opacity="0.7"/>
<circle cx="263.8" cy="143.3" r="3.0" fill="#ff922b" opacity="0.7"/>
<circle cx="282.4" cy="266.4" r="3.0" fill="#ff922b" opacity="0.7"/>
<circle cx="301.1" cy="252.7" r="3.0" fill="#ff922b" opacity="0.7"/>
<circle cx="319.7" cy="318.8" r="3.0" fill="#ff922b" opacity="0.7"/>
<circle cx="338.4" cy="307.7" r="3.0" fill="#ff922b" opacity="0.7"/>
<circle cx="357.0" cy="306.0" r="3.0" fill="#ff922b" opacity="0.7"/>
<circle cx="375.7" cy="357.3" r="3.0" fill="#ff922b" opacity="0.7"/>
<circle cx="394.4" cy="290.5" r="3.0" fill="#ff922b" opacity="0.7"/>
<circle cx="413.0" cy="249.3" r="3.0" fill="#ff922b" opacity="0.7"/>
<circle cx="431.7" cy="293.3" r="3.0" fill="#ff922b" opacity="0.7"/>
<circle cx="450.3" cy="282.5" r="3.0" fill="#ff922b" opacity="0.7"/>
<circle cx="469.0" cy="404.9" r="3.0" fill="#ff922b" opacity="0.7"/>
<circle cx="487.6" cy="327.3" r="3.0" fill="#ff922b" opacity="0.7"/>
<circle cx="506.3" cy="408.5" r="3.0" fill="#ff922b" opacity="0.7"/>
<circle cx="525.0" cy="353.6" r="3.0" fill="#ff922b" opacity="0.7"/>
<circle cx="543.6" cy="391.3" r="3.0" fill="#ff922b" opacity="0.7"/>
<circle cx="562.3" cy="328.5" r="3.0" fill="#ff922b" opacity="0.7"/>
<circle cx="580.9" cy="278.9" r="3.0" fill="#ff922b" opacity="0.7"/>
<circle cx="599.6" cy="329.4" r="3.0" fill="#ff922b" opacity="0.7"/>
<circle cx="618.2" cy="231.9" r="3.0" fill="#ff922b" opacity="0.7"/>
<circle cx="636.9" cy="235.0" r="3.0" fill="#ff922b" opacity="0.7"/>
<circle cx="655.5" cy="436.4" r="3.0" fill="#ff922b" opacity="0.7"/>
<circle cx="674.2" cy="350.7" r="3.0" fill="#ff922b" opacity="0.7"/>
<circle cx="692.9" cy="271.6" r="3.0" fill="#ff922b" opacity="0.7"/>
<circle cx="711.5" cy="286.9" r="3.0" fill="#ff922b" opacity="0.7"/>
<circle cx="730.2" cy="268.0" r="3.0" fill="#ff922b" opacity="0.7"/>
<circle cx="748.8" cy="320.3" r="3.0" fill="#ff922b" opacity="0.7"/>
<circle cx="767.5" cy="297.8" r="3.0" fill="#ff922b" opacity="0.7"/>
<text x="70" y="526" font-size="11.5" fill="#8b949e">Intra-Kāra: the auto-par binary vs the same source built sequentially. Auto-par targets dependency-free reductions/maps over large data;</text>
<text x="70" y="542" font-size="11.5" fill="#8b949e">the compiler's cost gate skips loops too small to benefit (why #4's tiny kernel gets 3.7× and #204 gets 13.4×). Raw numbers: bench-results.json</text>
</svg>