<svg xmlns="http://www.w3.org/2000/svg" width="980" height="560" viewBox="0 0 980 560" font-family="-apple-system,Segoe UI,Helvetica,Arial,sans-serif">
<rect width="980" height="560" fill="#282c34"/>
<text x="70" y="34" font-size="21" font-weight="700" fill="#c9d1d9">Kāra auto-parallel speedup</text>
<text x="70" y="56" font-size="13" fill="#8b949e">kāra-par ÷ kāra-seq · same source, zero parallel code · higher = faster · 39 programs</text>
<line x1="70" y1="456.0" x2="812" y2="456.0" stroke="#3b414b"/>
<text x="60" y="460.0" font-size="12" text-anchor="end" fill="#8b949e">0×</text>
<line x1="70" y1="364.0" x2="812" y2="364.0" stroke="#3b414b"/>
<text x="60" y="368.0" font-size="12" text-anchor="end" fill="#8b949e">5×</text>
<line x1="70" y1="272.0" x2="812" y2="272.0" stroke="#3b414b"/>
<text x="60" y="276.0" font-size="12" text-anchor="end" fill="#8b949e">10×</text>
<line x1="70" y1="180.0" x2="812" y2="180.0" stroke="#3b414b"/>
<text x="60" y="184.0" font-size="12" text-anchor="end" fill="#8b949e">15×</text>
<line x1="70" y1="88.0" x2="812" y2="88.0" stroke="#3b414b"/>
<text x="60" y="92.0" font-size="12" text-anchor="end" fill="#8b949e">20×</text>
<line x1="70" y1="437.6" x2="812" y2="437.6" stroke="#a7b0bc" stroke-width="1.4" stroke-dasharray="5 4"/>
<text x="812" y="431.6" font-size="11" text-anchor="end" fill="#8b949e">1× — no speedup</text>
<line x1="70" y1="124.8" x2="812" y2="124.8" stroke="#ff7b72" stroke-width="1.4" stroke-dasharray="5 4"/>
<text x="812" y="118.8" font-size="11" text-anchor="end" fill="#8b949e">18 cores — hardware ceiling (M5 Pro · 6P + 12E)</text>
<line x1="70" y1="456" x2="812" y2="456" stroke="#3b414b"/>
<text x="441.0" y="478" font-size="11" text-anchor="middle" fill="#8b949e">39 parallel programs — x-order carries no meaning</text>
<circle cx="114.5" cy="247.2" r="3.0" fill="#ff922b" opacity="0.7"/>
<circle cx="131.7" cy="381.5" r="3.0" fill="#ff922b" opacity="0.7"/>
<circle cx="148.9" cy="259.8" r="3.0" fill="#ff922b" opacity="0.7"/>
<circle cx="166.1" cy="373.8" r="3.0" fill="#ff922b" opacity="0.7"/>
<circle cx="183.3" cy="253.2" r="3.0" fill="#ff922b" opacity="0.7"/>
<circle cx="200.4" cy="305.5" r="3.0" fill="#ff922b" opacity="0.7"/>
<circle cx="217.6" cy="307.4" r="3.0" fill="#ff922b" opacity="0.7"/>
<circle cx="234.8" cy="241.6" r="3.0" fill="#ff922b" opacity="0.7"/>
<circle cx="252.0" cy="143.3" r="3.0" fill="#ff922b" opacity="0.7"/>
<circle cx="269.2" cy="266.4" r="3.0" fill="#ff922b" opacity="0.7"/>
<circle cx="286.4" cy="252.7" r="3.0" fill="#ff922b" opacity="0.7"/>
<circle cx="303.5" cy="318.8" r="3.0" fill="#ff922b" opacity="0.7"/>
<circle cx="320.7" cy="307.7" r="3.0" fill="#ff922b" opacity="0.7"/>
<circle cx="337.9" cy="306.0" r="3.0" fill="#ff922b" opacity="0.7"/>
<circle cx="355.1" cy="357.3" r="3.0" fill="#ff922b" opacity="0.7"/>
<circle cx="372.3" cy="290.5" r="3.0" fill="#ff922b" opacity="0.7"/>
<circle cx="389.5" cy="249.3" r="3.0" fill="#ff922b" opacity="0.7"/>
<circle cx="406.6" cy="293.3" r="3.0" fill="#ff922b" opacity="0.7"/>
<circle cx="423.8" cy="282.5" r="3.0" fill="#ff922b" opacity="0.7"/>
<circle cx="441.0" cy="404.9" r="3.0" fill="#ff922b" opacity="0.7"/>
<circle cx="458.2" cy="327.3" r="3.0" fill="#ff922b" opacity="0.7"/>
<circle cx="475.4" cy="408.5" r="3.0" fill="#ff922b" opacity="0.7"/>
<circle cx="492.5" cy="353.6" r="3.0" fill="#ff922b" opacity="0.7"/>
<circle cx="509.7" cy="391.3" r="3.0" fill="#ff922b" opacity="0.7"/>
<circle cx="526.9" cy="328.5" r="3.0" fill="#ff922b" opacity="0.7"/>
<circle cx="544.1" cy="278.9" r="3.0" fill="#ff922b" opacity="0.7"/>
<circle cx="561.3" cy="329.4" r="3.0" fill="#ff922b" opacity="0.7"/>
<circle cx="578.5" cy="231.9" r="3.0" fill="#ff922b" opacity="0.7"/>
<circle cx="595.6" cy="268.4" r="3.0" fill="#ff922b" opacity="0.7"/>
<circle cx="612.8" cy="357.9" r="3.0" fill="#ff922b" opacity="0.7"/>
<circle cx="630.0" cy="247.1" r="3.0" fill="#ff922b" opacity="0.7"/>
<circle cx="647.2" cy="235.0" r="3.0" fill="#ff922b" opacity="0.7"/>
<circle cx="664.4" cy="436.4" r="3.0" fill="#ff922b" opacity="0.7"/>
<circle cx="681.6" cy="350.7" r="3.0" fill="#ff922b" opacity="0.7"/>
<circle cx="698.7" cy="271.6" r="3.0" fill="#ff922b" opacity="0.7"/>
<circle cx="715.9" cy="286.9" r="3.0" fill="#ff922b" opacity="0.7"/>
<circle cx="733.1" cy="268.0" r="3.0" fill="#ff922b" opacity="0.7"/>
<circle cx="750.3" cy="320.3" r="3.0" fill="#ff922b" opacity="0.7"/>
<circle cx="767.5" cy="297.8" r="3.0" fill="#ff922b" opacity="0.7"/>
<text x="70" y="526" font-size="11.5" fill="#8b949e">Intra-Kāra: the auto-par binary vs the same source built sequentially. Auto-par targets dependency-free reductions/maps over large data;</text>
<text x="70" y="542" font-size="11.5" fill="#8b949e">the compiler's cost gate skips loops too small to benefit (why #4's tiny kernel gets 3.7× and #204 gets 13.4×). Raw numbers: bench-results.json</text>
</svg>