<svg xmlns="http://www.w3.org/2000/svg" width="980" height="560" viewBox="0 0 980 560" font-family="-apple-system,Segoe UI,Helvetica,Arial,sans-serif">
<rect width="980" height="560" fill="#282c34"/>
<text x="70" y="34" font-size="21" font-weight="700" fill="#c9d1d9">Kāra auto-parallel speedup</text>
<text x="70" y="56" font-size="13" fill="#8b949e">kāra-par ÷ kāra-seq · same source, zero parallel code · higher = faster · 50 programs</text>
<line x1="70" y1="456.0" x2="812" y2="456.0" stroke="#3b414b"/>
<text x="60" y="460.0" font-size="12" text-anchor="end" fill="#8b949e">0×</text>
<line x1="70" y1="364.0" x2="812" y2="364.0" stroke="#3b414b"/>
<text x="60" y="368.0" font-size="12" text-anchor="end" fill="#8b949e">5×</text>
<line x1="70" y1="272.0" x2="812" y2="272.0" stroke="#3b414b"/>
<text x="60" y="276.0" font-size="12" text-anchor="end" fill="#8b949e">10×</text>
<line x1="70" y1="180.0" x2="812" y2="180.0" stroke="#3b414b"/>
<text x="60" y="184.0" font-size="12" text-anchor="end" fill="#8b949e">15×</text>
<line x1="70" y1="88.0" x2="812" y2="88.0" stroke="#3b414b"/>
<text x="60" y="92.0" font-size="12" text-anchor="end" fill="#8b949e">20×</text>
<line x1="70" y1="437.6" x2="812" y2="437.6" stroke="#a7b0bc" stroke-width="1.4" stroke-dasharray="5 4"/>
<text x="812" y="431.6" font-size="11" text-anchor="end" fill="#8b949e">1× — no speedup</text>
<line x1="70" y1="124.8" x2="812" y2="124.8" stroke="#ff7b72" stroke-width="1.4" stroke-dasharray="5 4"/>
<text x="812" y="118.8" font-size="11" text-anchor="end" fill="#8b949e">18 cores — hardware ceiling (M5 Pro · 6P + 12E)</text>
<line x1="70" y1="456" x2="812" y2="456" stroke="#3b414b"/>
<text x="441.0" y="478" font-size="11" text-anchor="middle" fill="#8b949e">50 parallel programs — x-order carries no meaning</text>
<circle cx="114.5" cy="251.2" r="3.0" fill="#ff922b" opacity="0.7"/>
<circle cx="127.8" cy="380.3" r="3.0" fill="#ff922b" opacity="0.7"/>
<circle cx="141.2" cy="245.9" r="3.0" fill="#ff922b" opacity="0.7"/>
<circle cx="154.5" cy="355.9" r="3.0" fill="#ff922b" opacity="0.7"/>
<circle cx="167.8" cy="253.8" r="3.0" fill="#ff922b" opacity="0.7"/>
<circle cx="181.1" cy="302.0" r="3.0" fill="#ff922b" opacity="0.7"/>
<circle cx="194.5" cy="295.4" r="3.0" fill="#ff922b" opacity="0.7"/>
<circle cx="207.8" cy="224.8" r="3.0" fill="#ff922b" opacity="0.7"/>
<circle cx="221.1" cy="137.6" r="3.0" fill="#ff922b" opacity="0.7"/>
<circle cx="234.5" cy="346.1" r="3.0" fill="#ff922b" opacity="0.7"/>
<circle cx="247.8" cy="343.4" r="3.0" fill="#ff922b" opacity="0.7"/>
<circle cx="261.1" cy="343.7" r="3.0" fill="#ff922b" opacity="0.7"/>
<circle cx="274.4" cy="382.5" r="3.0" fill="#ff922b" opacity="0.7"/>
<circle cx="287.8" cy="334.7" r="3.0" fill="#ff922b" opacity="0.7"/>
<circle cx="301.1" cy="388.1" r="3.0" fill="#ff922b" opacity="0.7"/>
<circle cx="314.4" cy="378.4" r="3.0" fill="#ff922b" opacity="0.7"/>
<circle cx="327.7" cy="280.0" r="3.0" fill="#ff922b" opacity="0.7"/>
<circle cx="341.1" cy="384.3" r="3.0" fill="#ff922b" opacity="0.7"/>
<circle cx="354.4" cy="398.1" r="3.0" fill="#ff922b" opacity="0.7"/>
<circle cx="367.7" cy="403.9" r="3.0" fill="#ff922b" opacity="0.7"/>
<circle cx="381.0" cy="389.2" r="3.0" fill="#ff922b" opacity="0.7"/>
<circle cx="394.4" cy="405.0" r="3.0" fill="#ff922b" opacity="0.7"/>
<circle cx="407.7" cy="352.5" r="3.0" fill="#ff922b" opacity="0.7"/>
<circle cx="421.0" cy="393.4" r="3.0" fill="#ff922b" opacity="0.7"/>
<circle cx="434.3" cy="331.7" r="3.0" fill="#ff922b" opacity="0.7"/>
<circle cx="447.7" cy="253.2" r="3.0" fill="#ff922b" opacity="0.7"/>
<circle cx="461.0" cy="393.1" r="3.0" fill="#ff922b" opacity="0.7"/>
<circle cx="474.3" cy="217.3" r="3.0" fill="#ff922b" opacity="0.7"/>
<circle cx="487.6" cy="278.1" r="3.0" fill="#ff922b" opacity="0.7"/>
<circle cx="501.0" cy="361.8" r="3.0" fill="#ff922b" opacity="0.7"/>
<circle cx="514.3" cy="206.1" r="3.0" fill="#ff922b" opacity="0.7"/>
<circle cx="527.6" cy="376.4" r="3.0" fill="#ff922b" opacity="0.7"/>
<circle cx="540.9" cy="332.7" r="3.0" fill="#ff922b" opacity="0.7"/>
<circle cx="554.3" cy="341.9" r="3.0" fill="#ff922b" opacity="0.7"/>
<circle cx="567.6" cy="343.6" r="3.0" fill="#ff922b" opacity="0.7"/>
<circle cx="580.9" cy="271.0" r="3.0" fill="#ff922b" opacity="0.7"/>
<circle cx="594.2" cy="286.0" r="3.0" fill="#ff922b" opacity="0.7"/>
<circle cx="607.6" cy="292.2" r="3.0" fill="#ff922b" opacity="0.7"/>
<circle cx="620.9" cy="374.5" r="3.0" fill="#ff922b" opacity="0.7"/>
<circle cx="634.2" cy="346.1" r="3.0" fill="#ff922b" opacity="0.7"/>
<circle cx="647.5" cy="272.0" r="3.0" fill="#ff922b" opacity="0.7"/>
<circle cx="660.9" cy="421.0" r="3.0" fill="#ff922b" opacity="0.7"/>
<circle cx="674.2" cy="399.1" r="3.0" fill="#ff922b" opacity="0.7"/>
<circle cx="687.5" cy="278.3" r="3.0" fill="#ff922b" opacity="0.7"/>
<circle cx="700.9" cy="383.0" r="3.0" fill="#ff922b" opacity="0.7"/>
<circle cx="714.2" cy="437.0" r="3.0" fill="#ff922b" opacity="0.7"/>
<circle cx="727.5" cy="389.3" r="3.0" fill="#ff922b" opacity="0.7"/>
<circle cx="740.8" cy="362.4" r="3.0" fill="#ff922b" opacity="0.7"/>
<circle cx="754.2" cy="376.4" r="3.0" fill="#ff922b" opacity="0.7"/>
<circle cx="767.5" cy="409.9" r="3.0" fill="#ff922b" opacity="0.7"/>
<text x="70" y="526" font-size="11.5" fill="#8b949e">Intra-Kāra: the auto-par binary vs the same source built sequentially. Auto-par targets dependency-free reductions/maps over large data;</text>
<text x="70" y="542" font-size="11.5" fill="#8b949e">the compiler's cost gate skips loops too small to benefit (why #4's tiny kernel gets 3.7× and #204 gets 13.4×). Raw numbers: bench-results.json</text>
</svg>