<svg xmlns="http://www.w3.org/2000/svg" width="980" height="560" viewBox="0 0 980 560" font-family="-apple-system,Segoe UI,Helvetica,Arial,sans-serif">
<rect width="980" height="560" fill="#282c34"/>
<text x="70" y="34" font-size="21" font-weight="700" fill="#c9d1d9">Kāra auto-parallel speedup</text>
<text x="70" y="56" font-size="13" fill="#8b949e">kāra-par ÷ kāra-seq · same source, zero parallel code · higher = faster · 6 programs</text>
<line x1="70" y1="456.0" x2="812" y2="456.0" stroke="#3b414b"/>
<text x="60" y="460.0" font-size="12" text-anchor="end" fill="#8b949e">0×</text>
<line x1="70" y1="364.0" x2="812" y2="364.0" stroke="#3b414b"/>
<text x="60" y="368.0" font-size="12" text-anchor="end" fill="#8b949e">5×</text>
<line x1="70" y1="272.0" x2="812" y2="272.0" stroke="#3b414b"/>
<text x="60" y="276.0" font-size="12" text-anchor="end" fill="#8b949e">10×</text>
<line x1="70" y1="180.0" x2="812" y2="180.0" stroke="#3b414b"/>
<text x="60" y="184.0" font-size="12" text-anchor="end" fill="#8b949e">15×</text>
<line x1="70" y1="88.0" x2="812" y2="88.0" stroke="#3b414b"/>
<text x="60" y="92.0" font-size="12" text-anchor="end" fill="#8b949e">20×</text>
<line x1="70" y1="437.6" x2="812" y2="437.6" stroke="#6e7681" stroke-width="1.4" stroke-dasharray="5 4"/>
<text x="812" y="431.6" font-size="11" text-anchor="end" fill="#8b949e">1× — no speedup</text>
<line x1="70" y1="124.8" x2="812" y2="124.8" stroke="#ff7b72" stroke-width="1.4" stroke-dasharray="5 4"/>
<text x="812" y="118.8" font-size="11" text-anchor="end" fill="#8b949e">18 cores — hardware ceiling (M5 Pro · 6P + 12E)</text>
<line x1="114.5" y1="456" x2="114.5" y2="461" stroke="#3b414b"/>
<g transform="translate(114.5,474) rotate(35)">
<text x="0" y="0" font-size="10.5" fill="#8b949e">#4</text>
<text x="0" y="12" font-size="10.5" fill="#8b949e">binary_search_p…</text>
</g>
<line x1="245.1" y1="456" x2="245.1" y2="461" stroke="#3b414b"/>
<g transform="translate(245.1,474) rotate(35)">
<text x="0" y="0" font-size="10.5" fill="#8b949e">#6</text>
<text x="0" y="12" font-size="10.5" fill="#8b949e">row_buffers</text>
</g>
<line x1="375.7" y1="456" x2="375.7" y2="461" stroke="#3b414b"/>
<g transform="translate(375.7,474) rotate(35)">
<text x="0" y="0" font-size="10.5" fill="#8b949e">#7</text>
<text x="0" y="12" font-size="10.5" fill="#8b949e">reverse</text>
</g>
<line x1="506.3" y1="456" x2="506.3" y2="461" stroke="#3b414b"/>
<g transform="translate(506.3,474) rotate(35)">
<text x="0" y="0" font-size="10.5" fill="#8b949e">#8</text>
<text x="0" y="12" font-size="10.5" fill="#8b949e">atoi</text>
</g>
<line x1="636.9" y1="456" x2="636.9" y2="461" stroke="#3b414b"/>
<g transform="translate(636.9,474) rotate(35)">
<text x="0" y="0" font-size="10.5" fill="#8b949e">#9</text>
<text x="0" y="12" font-size="10.5" fill="#8b949e">palindrome</text>
</g>
<line x1="767.5" y1="456" x2="767.5" y2="461" stroke="#3b414b"/>
<g transform="translate(767.5,474) rotate(35)">
<text x="0" y="0" font-size="10.5" fill="#8b949e">#204</text>
<text x="0" y="12" font-size="10.5" fill="#8b949e">count</text>
</g>
<circle cx="114.5" cy="388.2" r="4.5" fill="#ff922b" opacity="0.95"/>
<text x="114.5" y="378.2" font-size="12" text-anchor="middle" fill="#ff922b" font-weight="700">3.7×</text>
<circle cx="245.1" cy="373.0" r="4.5" fill="#ff922b" opacity="0.95"/>
<text x="245.1" y="363.0" font-size="12" text-anchor="middle" fill="#ff922b" font-weight="700">4.5×</text>
<circle cx="375.7" cy="251.5" r="4.5" fill="#ff922b" opacity="0.95"/>
<text x="375.7" y="241.5" font-size="12" text-anchor="middle" fill="#ff922b" font-weight="700">11.1×</text>
<circle cx="506.3" cy="330.7" r="4.5" fill="#ff922b" opacity="0.95"/>
<text x="506.3" y="320.7" font-size="12" text-anchor="middle" fill="#ff922b" font-weight="700">6.8×</text>
<circle cx="636.9" cy="306.3" r="4.5" fill="#ff922b" opacity="0.95"/>
<text x="636.9" y="296.3" font-size="12" text-anchor="middle" fill="#ff922b" font-weight="700">8.1×</text>
<circle cx="767.5" cy="210.0" r="4.5" fill="#ff922b" opacity="0.95"/>
<text x="767.5" y="200.0" font-size="12" text-anchor="middle" fill="#ff922b" font-weight="700">13.4×</text>
<text x="70" y="526" font-size="11.5" fill="#8b949e">Intra-Kāra: the auto-par binary vs the same source built sequentially. Auto-par targets dependency-free reductions/maps over large data;</text>
<text x="70" y="542" font-size="11.5" fill="#8b949e">the compiler's cost gate skips loops too small to benefit (why #4's tiny kernel gets 3.7× and #204 gets 13.4×). Raw numbers: bench-results.json</text>
</svg>