<svg xmlns="http://www.w3.org/2000/svg" width="980" height="560" viewBox="0 0 980 560" font-family="-apple-system,Segoe UI,Helvetica,Arial,sans-serif">
<rect width="980" height="560" fill="#282c34"/>
<text x="70" y="34" font-size="21" font-weight="700" fill="#c9d1d9">Binary size — sequential lane</text>
<text x="70" y="56" font-size="13" fill="#8b949e">relative to Rust = 1.0 · lower = smaller · 44 programs · log scale</text>
<line x1="70" y1="456.0" x2="812" y2="456.0" stroke="#3b414b" stroke-width="1"/>
<text x="60" y="460.0" font-size="12" text-anchor="end" fill="#8b949e">0.01×</text>
<line x1="70" y1="418.1" x2="812" y2="418.1" stroke="#3b414b" stroke-width="1"/>
<text x="60" y="422.1" font-size="12" text-anchor="end" fill="#8b949e">0.02×</text>
<line x1="70" y1="367.9" x2="812" y2="367.9" stroke="#3b414b" stroke-width="1"/>
<text x="60" y="371.9" font-size="12" text-anchor="end" fill="#8b949e">0.05×</text>
<line x1="70" y1="330.0" x2="812" y2="330.0" stroke="#3b414b" stroke-width="1"/>
<text x="60" y="334.0" font-size="12" text-anchor="end" fill="#8b949e">0.1×</text>
<line x1="70" y1="292.1" x2="812" y2="292.1" stroke="#3b414b" stroke-width="1"/>
<text x="60" y="296.1" font-size="12" text-anchor="end" fill="#8b949e">0.2×</text>
<line x1="70" y1="241.9" x2="812" y2="241.9" stroke="#3b414b" stroke-width="1"/>
<text x="60" y="245.9" font-size="12" text-anchor="end" fill="#8b949e">0.5×</text>
<line x1="70" y1="204.0" x2="812" y2="204.0" stroke="#a7b0bc" stroke-width="2" stroke-dasharray="5 4"/>
<text x="60" y="208.0" font-size="12" text-anchor="end" fill="#aeb6c0" font-weight="700">1×</text>
<line x1="70" y1="166.1" x2="812" y2="166.1" stroke="#3b414b" stroke-width="1"/>
<text x="60" y="170.1" font-size="12" text-anchor="end" fill="#8b949e">2×</text>
<line x1="70" y1="115.9" x2="812" y2="115.9" stroke="#3b414b" stroke-width="1"/>
<text x="60" y="119.9" font-size="12" text-anchor="end" fill="#8b949e">5×</text>
<line x1="70" y1="78.0" x2="812" y2="78.0" stroke="#3b414b" stroke-width="1"/>
<text x="60" y="82.0" font-size="12" text-anchor="end" fill="#8b949e">10×</text>
<text x="812" y="198.0" font-size="11" text-anchor="end" fill="#aeb6c0">Rust baseline</text>
<line x1="70" y1="456" x2="812" y2="456" stroke="#3b414b"/>
<text x="441.0" y="478" font-size="11" text-anchor="middle" fill="#8b949e">44 programs (kata × approach) — x-order carries no meaning</text>
<circle cx="99.7" cy="347.9" r="2.6" fill="#3fb950" opacity="0.7"/>
<circle cx="115.6" cy="347.9" r="2.6" fill="#3fb950" opacity="0.7"/>
<circle cx="131.4" cy="347.9" r="2.6" fill="#3fb950" opacity="0.7"/>
<circle cx="147.3" cy="348.2" r="2.6" fill="#3fb950" opacity="0.7"/>
<circle cx="163.2" cy="348.1" r="2.6" fill="#3fb950" opacity="0.7"/>
<circle cx="179.1" cy="348.0" r="2.6" fill="#3fb950" opacity="0.7"/>
<circle cx="194.9" cy="347.6" r="2.6" fill="#3fb950" opacity="0.7"/>
<circle cx="210.8" cy="348.1" r="2.6" fill="#3fb950" opacity="0.7"/>
<circle cx="226.7" cy="348.1" r="2.6" fill="#3fb950" opacity="0.7"/>
<circle cx="242.6" cy="348.1" r="2.6" fill="#3fb950" opacity="0.7"/>
<circle cx="258.4" cy="348.1" r="2.6" fill="#3fb950" opacity="0.7"/>
<circle cx="274.3" cy="348.1" r="2.6" fill="#3fb950" opacity="0.7"/>
<circle cx="290.2" cy="348.0" r="2.6" fill="#3fb950" opacity="0.7"/>
<circle cx="306.1" cy="348.0" r="2.6" fill="#3fb950" opacity="0.7"/>
<circle cx="321.9" cy="348.0" r="2.6" fill="#3fb950" opacity="0.7"/>
<circle cx="337.8" cy="349.9" r="2.6" fill="#3fb950" opacity="0.7"/>
<circle cx="353.7" cy="348.0" r="2.6" fill="#3fb950" opacity="0.7"/>
<circle cx="369.6" cy="347.7" r="2.6" fill="#3fb950" opacity="0.7"/>
<circle cx="385.4" cy="349.9" r="2.6" fill="#3fb950" opacity="0.7"/>
<circle cx="401.3" cy="348.2" r="2.6" fill="#3fb950" opacity="0.7"/>
<circle cx="417.2" cy="348.0" r="2.6" fill="#3fb950" opacity="0.7"/>
<circle cx="433.1" cy="348.1" r="2.6" fill="#3fb950" opacity="0.7"/>
<circle cx="448.9" cy="347.9" r="2.6" fill="#3fb950" opacity="0.7"/>
<circle cx="464.8" cy="348.1" r="2.6" fill="#3fb950" opacity="0.7"/>
<circle cx="480.7" cy="348.2" r="2.6" fill="#3fb950" opacity="0.7"/>
<circle cx="496.6" cy="348.2" r="2.6" fill="#3fb950" opacity="0.7"/>
<circle cx="512.4" cy="348.0" r="2.6" fill="#3fb950" opacity="0.7"/>
<circle cx="528.3" cy="348.0" r="2.6" fill="#3fb950" opacity="0.7"/>
<circle cx="544.2" cy="348.0" r="2.6" fill="#3fb950" opacity="0.7"/>
<circle cx="560.1" cy="348.0" r="2.6" fill="#3fb950" opacity="0.7"/>
<circle cx="575.9" cy="350.0" r="2.6" fill="#3fb950" opacity="0.7"/>
<circle cx="591.8" cy="348.1" r="2.6" fill="#3fb950" opacity="0.7"/>
<circle cx="607.7" cy="348.0" r="2.6" fill="#3fb950" opacity="0.7"/>
<circle cx="623.6" cy="348.0" r="2.6" fill="#3fb950" opacity="0.7"/>
<circle cx="639.4" cy="348.2" r="2.6" fill="#3fb950" opacity="0.7"/>
<circle cx="655.3" cy="348.1" r="2.6" fill="#3fb950" opacity="0.7"/>
<circle cx="671.2" cy="350.0" r="2.6" fill="#3fb950" opacity="0.7"/>
<circle cx="687.1" cy="347.9" r="2.6" fill="#3fb950" opacity="0.7"/>
<circle cx="702.9" cy="347.9" r="2.6" fill="#3fb950" opacity="0.7"/>
<circle cx="718.8" cy="348.0" r="2.6" fill="#3fb950" opacity="0.7"/>
<circle cx="734.7" cy="348.3" r="2.6" fill="#3fb950" opacity="0.7"/>
<circle cx="750.6" cy="348.3" r="2.6" fill="#3fb950" opacity="0.7"/>
<circle cx="766.4" cy="349.8" r="2.6" fill="#3fb950" opacity="0.7"/>
<circle cx="782.3" cy="349.5" r="2.6" fill="#3fb950" opacity="0.7"/>
<circle cx="102.3" cy="112.3" r="2.6" fill="#bc8cff" opacity="0.7"/>
<circle cx="118.2" cy="112.5" r="2.6" fill="#bc8cff" opacity="0.7"/>
<circle cx="134.1" cy="112.4" r="2.6" fill="#bc8cff" opacity="0.7"/>
<circle cx="149.9" cy="112.5" r="2.6" fill="#bc8cff" opacity="0.7"/>
<circle cx="165.8" cy="112.3" r="2.6" fill="#bc8cff" opacity="0.7"/>
<circle cx="181.7" cy="112.3" r="2.6" fill="#bc8cff" opacity="0.7"/>
<circle cx="197.6" cy="112.3" r="2.6" fill="#bc8cff" opacity="0.7"/>
<circle cx="213.4" cy="112.3" r="2.6" fill="#bc8cff" opacity="0.7"/>
<circle cx="229.3" cy="112.3" r="2.6" fill="#bc8cff" opacity="0.7"/>
<circle cx="245.2" cy="112.3" r="2.6" fill="#bc8cff" opacity="0.7"/>
<circle cx="261.1" cy="112.3" r="2.6" fill="#bc8cff" opacity="0.7"/>
<circle cx="276.9" cy="112.3" r="2.6" fill="#bc8cff" opacity="0.7"/>
<circle cx="292.8" cy="112.3" r="2.6" fill="#bc8cff" opacity="0.7"/>
<circle cx="308.7" cy="112.3" r="2.6" fill="#bc8cff" opacity="0.7"/>
<circle cx="324.6" cy="112.3" r="2.6" fill="#bc8cff" opacity="0.7"/>
<circle cx="340.4" cy="113.9" r="2.6" fill="#bc8cff" opacity="0.7"/>
<circle cx="356.3" cy="111.9" r="2.6" fill="#bc8cff" opacity="0.7"/>
<circle cx="372.2" cy="112.3" r="2.6" fill="#bc8cff" opacity="0.7"/>
<circle cx="388.1" cy="113.9" r="2.6" fill="#bc8cff" opacity="0.7"/>
<circle cx="403.9" cy="112.4" r="2.6" fill="#bc8cff" opacity="0.7"/>
<circle cx="419.8" cy="112.3" r="2.6" fill="#bc8cff" opacity="0.7"/>
<circle cx="435.7" cy="112.4" r="2.6" fill="#bc8cff" opacity="0.7"/>
<circle cx="451.6" cy="112.4" r="2.6" fill="#bc8cff" opacity="0.7"/>
<circle cx="467.4" cy="112.4" r="2.6" fill="#bc8cff" opacity="0.7"/>
<circle cx="483.3" cy="112.4" r="2.6" fill="#bc8cff" opacity="0.7"/>
<circle cx="499.2" cy="112.4" r="2.6" fill="#bc8cff" opacity="0.7"/>
<circle cx="515.1" cy="112.3" r="2.6" fill="#bc8cff" opacity="0.7"/>
<circle cx="530.9" cy="112.3" r="2.6" fill="#bc8cff" opacity="0.7"/>
<circle cx="546.8" cy="112.3" r="2.6" fill="#bc8cff" opacity="0.7"/>
<circle cx="562.7" cy="112.3" r="2.6" fill="#bc8cff" opacity="0.7"/>
<circle cx="578.6" cy="113.9" r="2.6" fill="#bc8cff" opacity="0.7"/>
<circle cx="594.4" cy="112.3" r="2.6" fill="#bc8cff" opacity="0.7"/>
<circle cx="610.3" cy="112.3" r="2.6" fill="#bc8cff" opacity="0.7"/>
<circle cx="626.2" cy="112.3" r="2.6" fill="#bc8cff" opacity="0.7"/>
<circle cx="642.1" cy="112.3" r="2.6" fill="#bc8cff" opacity="0.7"/>
<circle cx="658.0" cy="112.3" r="2.6" fill="#bc8cff" opacity="0.7"/>
<circle cx="673.8" cy="114.7" r="2.6" fill="#bc8cff" opacity="0.7"/>
<circle cx="689.7" cy="112.3" r="2.6" fill="#bc8cff" opacity="0.7"/>
<circle cx="705.6" cy="112.3" r="2.6" fill="#bc8cff" opacity="0.7"/>
<circle cx="721.5" cy="112.3" r="2.6" fill="#bc8cff" opacity="0.7"/>
<circle cx="737.3" cy="112.5" r="2.6" fill="#bc8cff" opacity="0.7"/>
<circle cx="753.2" cy="112.5" r="2.6" fill="#bc8cff" opacity="0.7"/>
<circle cx="769.1" cy="113.8" r="2.6" fill="#bc8cff" opacity="0.7"/>
<circle cx="785.0" cy="114.5" r="2.6" fill="#bc8cff" opacity="0.7"/>
<circle cx="97.0" cy="348.0" r="3.2" fill="#ff922b" opacity="0.85"/>
<circle cx="112.9" cy="231.1" r="3.2" fill="#ff922b" opacity="0.85"/>
<circle cx="128.8" cy="347.9" r="3.2" fill="#ff922b" opacity="0.85"/>
<circle cx="144.7" cy="231.1" r="3.2" fill="#ff922b" opacity="0.85"/>
<circle cx="160.5" cy="347.7" r="3.2" fill="#ff922b" opacity="0.85"/>
<circle cx="176.4" cy="347.7" r="3.2" fill="#ff922b" opacity="0.85"/>
<circle cx="192.3" cy="347.6" r="3.2" fill="#ff922b" opacity="0.85"/>
<circle cx="208.2" cy="347.9" r="3.2" fill="#ff922b" opacity="0.85"/>
<circle cx="224.0" cy="347.9" r="3.2" fill="#ff922b" opacity="0.85"/>
<circle cx="239.9" cy="347.9" r="3.2" fill="#ff922b" opacity="0.85"/>
<circle cx="255.8" cy="347.8" r="3.2" fill="#ff922b" opacity="0.85"/>
<circle cx="271.7" cy="347.9" r="3.2" fill="#ff922b" opacity="0.85"/>
<circle cx="287.6" cy="347.9" r="3.2" fill="#ff922b" opacity="0.85"/>
<circle cx="303.4" cy="347.9" r="3.2" fill="#ff922b" opacity="0.85"/>
<circle cx="319.3" cy="347.7" r="3.2" fill="#ff922b" opacity="0.85"/>
<circle cx="335.2" cy="229.9" r="3.2" fill="#ff922b" opacity="0.85"/>
<circle cx="351.1" cy="227.9" r="3.2" fill="#ff922b" opacity="0.85"/>
<circle cx="366.9" cy="347.5" r="3.2" fill="#ff922b" opacity="0.85"/>
<circle cx="382.8" cy="229.9" r="3.2" fill="#ff922b" opacity="0.85"/>
<circle cx="398.7" cy="348.0" r="3.2" fill="#ff922b" opacity="0.85"/>
<circle cx="414.6" cy="347.9" r="3.2" fill="#ff922b" opacity="0.85"/>
<circle cx="430.4" cy="348.0" r="3.2" fill="#ff922b" opacity="0.85"/>
<circle cx="446.3" cy="347.9" r="3.2" fill="#ff922b" opacity="0.85"/>
<circle cx="462.2" cy="347.9" r="3.2" fill="#ff922b" opacity="0.85"/>
<circle cx="478.1" cy="347.8" r="3.2" fill="#ff922b" opacity="0.85"/>
<circle cx="493.9" cy="347.8" r="3.2" fill="#ff922b" opacity="0.85"/>
<circle cx="509.8" cy="347.7" r="3.2" fill="#ff922b" opacity="0.85"/>
<circle cx="525.7" cy="347.7" r="3.2" fill="#ff922b" opacity="0.85"/>
<circle cx="541.6" cy="347.8" r="3.2" fill="#ff922b" opacity="0.85"/>
<circle cx="557.4" cy="347.7" r="3.2" fill="#ff922b" opacity="0.85"/>
<circle cx="573.3" cy="229.9" r="3.2" fill="#ff922b" opacity="0.85"/>
<circle cx="589.2" cy="347.9" r="3.2" fill="#ff922b" opacity="0.85"/>
<circle cx="605.1" cy="347.5" r="3.2" fill="#ff922b" opacity="0.85"/>
<circle cx="620.9" cy="347.8" r="3.2" fill="#ff922b" opacity="0.85"/>
<circle cx="636.8" cy="347.9" r="3.2" fill="#ff922b" opacity="0.85"/>
<circle cx="652.7" cy="347.9" r="3.2" fill="#ff922b" opacity="0.85"/>
<circle cx="668.6" cy="233.2" r="3.2" fill="#ff922b" opacity="0.85"/>
<circle cx="684.4" cy="347.7" r="3.2" fill="#ff922b" opacity="0.85"/>
<circle cx="700.3" cy="347.9" r="3.2" fill="#ff922b" opacity="0.85"/>
<circle cx="716.2" cy="347.9" r="3.2" fill="#ff922b" opacity="0.85"/>
<circle cx="732.1" cy="348.0" r="3.2" fill="#ff922b" opacity="0.85"/>
<circle cx="747.9" cy="348.0" r="3.2" fill="#ff922b" opacity="0.85"/>
<circle cx="763.8" cy="229.8" r="3.2" fill="#ff922b" opacity="0.85"/>
<circle cx="779.7" cy="233.1" r="3.2" fill="#ff922b" opacity="0.85"/>
<circle cx="847" cy="84" r="5" fill="#ff922b"/>
<text x="866" y="88" font-size="13" fill="#c9d1d9" font-weight="700">Kāra</text>
<line x1="836" y1="108" x2="858" y2="108" stroke="#a7b0bc" stroke-width="2" stroke-dasharray="5 4"/>
<text x="866" y="112" font-size="13" fill="#c9d1d9" font-weight="400">Rust = 1.0×</text>
<circle cx="847" cy="132" r="4" fill="#3fb950"/>
<text x="866" y="136" font-size="13" fill="#c9d1d9" font-weight="400">C</text>
<circle cx="847" cy="156" r="4" fill="#bc8cff"/>
<text x="866" y="160" font-size="13" fill="#c9d1d9" font-weight="400">Go</text>
<text x="70" y="538" font-size="11.5" fill="#8b949e">Each dot is one benchmarked program (kata × approach); there is no connecting line because left-to-right order is not meaningful. Raw numbers: bench-results.json</text>
</svg>