<svg xmlns="http://www.w3.org/2000/svg" width="980" height="560" viewBox="0 0 980 560" font-family="-apple-system,Segoe UI,Helvetica,Arial,sans-serif">
<rect width="980" height="560" fill="#282c34"/>
<text x="70" y="34" font-size="21" font-weight="700" fill="#c9d1d9">Binary size — sequential lane</text>
<text x="70" y="56" font-size="13" fill="#8b949e">relative to Rust = 1.0 · lower = smaller · 49 programs · log scale</text>
<line x1="70" y1="456.0" x2="812" y2="456.0" stroke="#3b414b" stroke-width="1"/>
<text x="60" y="460.0" font-size="12" text-anchor="end" fill="#8b949e">0.01×</text>
<line x1="70" y1="418.1" x2="812" y2="418.1" stroke="#3b414b" stroke-width="1"/>
<text x="60" y="422.1" font-size="12" text-anchor="end" fill="#8b949e">0.02×</text>
<line x1="70" y1="367.9" x2="812" y2="367.9" stroke="#3b414b" stroke-width="1"/>
<text x="60" y="371.9" font-size="12" text-anchor="end" fill="#8b949e">0.05×</text>
<line x1="70" y1="330.0" x2="812" y2="330.0" stroke="#3b414b" stroke-width="1"/>
<text x="60" y="334.0" font-size="12" text-anchor="end" fill="#8b949e">0.1×</text>
<line x1="70" y1="292.1" x2="812" y2="292.1" stroke="#3b414b" stroke-width="1"/>
<text x="60" y="296.1" font-size="12" text-anchor="end" fill="#8b949e">0.2×</text>
<line x1="70" y1="241.9" x2="812" y2="241.9" stroke="#3b414b" stroke-width="1"/>
<text x="60" y="245.9" font-size="12" text-anchor="end" fill="#8b949e">0.5×</text>
<line x1="70" y1="204.0" x2="812" y2="204.0" stroke="#a7b0bc" stroke-width="2" stroke-dasharray="5 4"/>
<text x="60" y="208.0" font-size="12" text-anchor="end" fill="#aeb6c0" font-weight="700">1×</text>
<line x1="70" y1="166.1" x2="812" y2="166.1" stroke="#3b414b" stroke-width="1"/>
<text x="60" y="170.1" font-size="12" text-anchor="end" fill="#8b949e">2×</text>
<line x1="70" y1="115.9" x2="812" y2="115.9" stroke="#3b414b" stroke-width="1"/>
<text x="60" y="119.9" font-size="12" text-anchor="end" fill="#8b949e">5×</text>
<line x1="70" y1="78.0" x2="812" y2="78.0" stroke="#3b414b" stroke-width="1"/>
<text x="60" y="82.0" font-size="12" text-anchor="end" fill="#8b949e">10×</text>
<text x="812" y="198.0" font-size="11" text-anchor="end" fill="#aeb6c0">Rust baseline</text>
<line x1="70" y1="456" x2="812" y2="456" stroke="#3b414b"/>
<text x="441.0" y="478" font-size="11" text-anchor="middle" fill="#8b949e">49 programs (kata × approach) — x-order carries no meaning</text>
<circle cx="99.7" cy="347.9" r="2.6" fill="#3fb950" opacity="0.7"/>
<circle cx="113.9" cy="347.9" r="2.6" fill="#3fb950" opacity="0.7"/>
<circle cx="128.1" cy="347.9" r="2.6" fill="#3fb950" opacity="0.7"/>
<circle cx="142.3" cy="348.2" r="2.6" fill="#3fb950" opacity="0.7"/>
<circle cx="156.6" cy="348.1" r="2.6" fill="#3fb950" opacity="0.7"/>
<circle cx="170.8" cy="348.0" r="2.6" fill="#3fb950" opacity="0.7"/>
<circle cx="185.0" cy="347.6" r="2.6" fill="#3fb950" opacity="0.7"/>
<circle cx="199.2" cy="348.1" r="2.6" fill="#3fb950" opacity="0.7"/>
<circle cx="213.5" cy="348.1" r="2.6" fill="#3fb950" opacity="0.7"/>
<circle cx="227.7" cy="348.1" r="2.6" fill="#3fb950" opacity="0.7"/>
<circle cx="241.9" cy="348.1" r="2.6" fill="#3fb950" opacity="0.7"/>
<circle cx="256.1" cy="348.1" r="2.6" fill="#3fb950" opacity="0.7"/>
<circle cx="270.3" cy="348.0" r="2.6" fill="#3fb950" opacity="0.7"/>
<circle cx="284.6" cy="348.0" r="2.6" fill="#3fb950" opacity="0.7"/>
<circle cx="298.8" cy="348.0" r="2.6" fill="#3fb950" opacity="0.7"/>
<circle cx="313.0" cy="349.9" r="2.6" fill="#3fb950" opacity="0.7"/>
<circle cx="327.2" cy="348.0" r="2.6" fill="#3fb950" opacity="0.7"/>
<circle cx="341.4" cy="347.7" r="2.6" fill="#3fb950" opacity="0.7"/>
<circle cx="355.7" cy="349.9" r="2.6" fill="#3fb950" opacity="0.7"/>
<circle cx="369.9" cy="348.2" r="2.6" fill="#3fb950" opacity="0.7"/>
<circle cx="384.1" cy="348.0" r="2.6" fill="#3fb950" opacity="0.7"/>
<circle cx="398.3" cy="348.1" r="2.6" fill="#3fb950" opacity="0.7"/>
<circle cx="412.6" cy="347.9" r="2.6" fill="#3fb950" opacity="0.7"/>
<circle cx="426.8" cy="348.1" r="2.6" fill="#3fb950" opacity="0.7"/>
<circle cx="441.0" cy="348.2" r="2.6" fill="#3fb950" opacity="0.7"/>
<circle cx="455.2" cy="348.2" r="2.6" fill="#3fb950" opacity="0.7"/>
<circle cx="469.4" cy="348.0" r="2.6" fill="#3fb950" opacity="0.7"/>
<circle cx="483.7" cy="348.0" r="2.6" fill="#3fb950" opacity="0.7"/>
<circle cx="497.9" cy="348.0" r="2.6" fill="#3fb950" opacity="0.7"/>
<circle cx="512.1" cy="348.0" r="2.6" fill="#3fb950" opacity="0.7"/>
<circle cx="526.3" cy="348.2" r="2.6" fill="#3fb950" opacity="0.7"/>
<circle cx="540.6" cy="349.9" r="2.6" fill="#3fb950" opacity="0.7"/>
<circle cx="554.8" cy="350.0" r="2.6" fill="#3fb950" opacity="0.7"/>
<circle cx="569.0" cy="348.1" r="2.6" fill="#3fb950" opacity="0.7"/>
<circle cx="583.2" cy="348.0" r="2.6" fill="#3fb950" opacity="0.7"/>
<circle cx="597.4" cy="348.0" r="2.6" fill="#3fb950" opacity="0.7"/>
<circle cx="611.7" cy="348.2" r="2.6" fill="#3fb950" opacity="0.7"/>
<circle cx="625.9" cy="348.1" r="2.6" fill="#3fb950" opacity="0.7"/>
<circle cx="640.1" cy="348.1" r="2.6" fill="#3fb950" opacity="0.7"/>
<circle cx="654.3" cy="350.0" r="2.6" fill="#3fb950" opacity="0.7"/>
<circle cx="668.5" cy="347.9" r="2.6" fill="#3fb950" opacity="0.7"/>
<circle cx="682.8" cy="347.9" r="2.6" fill="#3fb950" opacity="0.7"/>
<circle cx="697.0" cy="348.0" r="2.6" fill="#3fb950" opacity="0.7"/>
<circle cx="711.2" cy="348.3" r="2.6" fill="#3fb950" opacity="0.7"/>
<circle cx="725.4" cy="348.3" r="2.6" fill="#3fb950" opacity="0.7"/>
<circle cx="739.7" cy="347.9" r="2.6" fill="#3fb950" opacity="0.7"/>
<circle cx="753.9" cy="347.8" r="2.6" fill="#3fb950" opacity="0.7"/>
<circle cx="768.1" cy="349.8" r="2.6" fill="#3fb950" opacity="0.7"/>
<circle cx="782.3" cy="349.5" r="2.6" fill="#3fb950" opacity="0.7"/>
<circle cx="102.3" cy="112.3" r="2.6" fill="#bc8cff" opacity="0.7"/>
<circle cx="116.5" cy="112.5" r="2.6" fill="#bc8cff" opacity="0.7"/>
<circle cx="130.7" cy="112.4" r="2.6" fill="#bc8cff" opacity="0.7"/>
<circle cx="144.9" cy="112.5" r="2.6" fill="#bc8cff" opacity="0.7"/>
<circle cx="159.1" cy="112.3" r="2.6" fill="#bc8cff" opacity="0.7"/>
<circle cx="173.4" cy="112.3" r="2.6" fill="#bc8cff" opacity="0.7"/>
<circle cx="187.6" cy="112.3" r="2.6" fill="#bc8cff" opacity="0.7"/>
<circle cx="201.8" cy="112.3" r="2.6" fill="#bc8cff" opacity="0.7"/>
<circle cx="216.0" cy="112.3" r="2.6" fill="#bc8cff" opacity="0.7"/>
<circle cx="230.3" cy="112.3" r="2.6" fill="#bc8cff" opacity="0.7"/>
<circle cx="244.5" cy="112.3" r="2.6" fill="#bc8cff" opacity="0.7"/>
<circle cx="258.7" cy="112.3" r="2.6" fill="#bc8cff" opacity="0.7"/>
<circle cx="272.9" cy="112.3" r="2.6" fill="#bc8cff" opacity="0.7"/>
<circle cx="287.1" cy="112.3" r="2.6" fill="#bc8cff" opacity="0.7"/>
<circle cx="301.4" cy="112.3" r="2.6" fill="#bc8cff" opacity="0.7"/>
<circle cx="315.6" cy="113.9" r="2.6" fill="#bc8cff" opacity="0.7"/>
<circle cx="329.8" cy="111.9" r="2.6" fill="#bc8cff" opacity="0.7"/>
<circle cx="344.0" cy="112.3" r="2.6" fill="#bc8cff" opacity="0.7"/>
<circle cx="358.2" cy="113.9" r="2.6" fill="#bc8cff" opacity="0.7"/>
<circle cx="372.5" cy="112.4" r="2.6" fill="#bc8cff" opacity="0.7"/>
<circle cx="386.7" cy="112.3" r="2.6" fill="#bc8cff" opacity="0.7"/>
<circle cx="400.9" cy="112.4" r="2.6" fill="#bc8cff" opacity="0.7"/>
<circle cx="415.1" cy="112.4" r="2.6" fill="#bc8cff" opacity="0.7"/>
<circle cx="429.4" cy="112.4" r="2.6" fill="#bc8cff" opacity="0.7"/>
<circle cx="443.6" cy="112.4" r="2.6" fill="#bc8cff" opacity="0.7"/>
<circle cx="457.8" cy="112.4" r="2.6" fill="#bc8cff" opacity="0.7"/>
<circle cx="472.0" cy="112.3" r="2.6" fill="#bc8cff" opacity="0.7"/>
<circle cx="486.2" cy="112.3" r="2.6" fill="#bc8cff" opacity="0.7"/>
<circle cx="500.5" cy="112.3" r="2.6" fill="#bc8cff" opacity="0.7"/>
<circle cx="514.7" cy="112.3" r="2.6" fill="#bc8cff" opacity="0.7"/>
<circle cx="528.9" cy="112.3" r="2.6" fill="#bc8cff" opacity="0.7"/>
<circle cx="543.1" cy="114.4" r="2.6" fill="#bc8cff" opacity="0.7"/>
<circle cx="557.3" cy="113.9" r="2.6" fill="#bc8cff" opacity="0.7"/>
<circle cx="571.6" cy="112.3" r="2.6" fill="#bc8cff" opacity="0.7"/>
<circle cx="585.8" cy="112.3" r="2.6" fill="#bc8cff" opacity="0.7"/>
<circle cx="600.0" cy="112.3" r="2.6" fill="#bc8cff" opacity="0.7"/>
<circle cx="614.2" cy="112.3" r="2.6" fill="#bc8cff" opacity="0.7"/>
<circle cx="628.5" cy="112.3" r="2.6" fill="#bc8cff" opacity="0.7"/>
<circle cx="642.7" cy="112.3" r="2.6" fill="#bc8cff" opacity="0.7"/>
<circle cx="656.9" cy="114.7" r="2.6" fill="#bc8cff" opacity="0.7"/>
<circle cx="671.1" cy="112.3" r="2.6" fill="#bc8cff" opacity="0.7"/>
<circle cx="685.3" cy="112.3" r="2.6" fill="#bc8cff" opacity="0.7"/>
<circle cx="699.6" cy="112.3" r="2.6" fill="#bc8cff" opacity="0.7"/>
<circle cx="713.8" cy="112.5" r="2.6" fill="#bc8cff" opacity="0.7"/>
<circle cx="728.0" cy="112.5" r="2.6" fill="#bc8cff" opacity="0.7"/>
<circle cx="742.2" cy="112.3" r="2.6" fill="#bc8cff" opacity="0.7"/>
<circle cx="756.5" cy="112.3" r="2.6" fill="#bc8cff" opacity="0.7"/>
<circle cx="770.7" cy="113.8" r="2.6" fill="#bc8cff" opacity="0.7"/>
<circle cx="784.9" cy="114.5" r="2.6" fill="#bc8cff" opacity="0.7"/>
<circle cx="97.1" cy="347.9" r="3.2" fill="#ff922b" opacity="0.85"/>
<circle cx="111.3" cy="231.1" r="3.2" fill="#ff922b" opacity="0.85"/>
<circle cx="125.5" cy="347.9" r="3.2" fill="#ff922b" opacity="0.85"/>
<circle cx="139.8" cy="231.1" r="3.2" fill="#ff922b" opacity="0.85"/>
<circle cx="154.0" cy="347.7" r="3.2" fill="#ff922b" opacity="0.85"/>
<circle cx="168.2" cy="347.7" r="3.2" fill="#ff922b" opacity="0.85"/>
<circle cx="182.4" cy="347.6" r="3.2" fill="#ff922b" opacity="0.85"/>
<circle cx="196.7" cy="347.9" r="3.2" fill="#ff922b" opacity="0.85"/>
<circle cx="210.9" cy="347.9" r="3.2" fill="#ff922b" opacity="0.85"/>
<circle cx="225.1" cy="347.9" r="3.2" fill="#ff922b" opacity="0.85"/>
<circle cx="239.3" cy="347.8" r="3.2" fill="#ff922b" opacity="0.85"/>
<circle cx="253.5" cy="347.9" r="3.2" fill="#ff922b" opacity="0.85"/>
<circle cx="267.8" cy="347.9" r="3.2" fill="#ff922b" opacity="0.85"/>
<circle cx="282.0" cy="347.9" r="3.2" fill="#ff922b" opacity="0.85"/>
<circle cx="296.2" cy="347.7" r="3.2" fill="#ff922b" opacity="0.85"/>
<circle cx="310.4" cy="229.9" r="3.2" fill="#ff922b" opacity="0.85"/>
<circle cx="324.7" cy="227.9" r="3.2" fill="#ff922b" opacity="0.85"/>
<circle cx="338.9" cy="347.5" r="3.2" fill="#ff922b" opacity="0.85"/>
<circle cx="353.1" cy="229.9" r="3.2" fill="#ff922b" opacity="0.85"/>
<circle cx="367.3" cy="348.0" r="3.2" fill="#ff922b" opacity="0.85"/>
<circle cx="381.5" cy="347.9" r="3.2" fill="#ff922b" opacity="0.85"/>
<circle cx="395.8" cy="348.0" r="3.2" fill="#ff922b" opacity="0.85"/>
<circle cx="410.0" cy="347.9" r="3.2" fill="#ff922b" opacity="0.85"/>
<circle cx="424.2" cy="347.9" r="3.2" fill="#ff922b" opacity="0.85"/>
<circle cx="438.4" cy="347.8" r="3.2" fill="#ff922b" opacity="0.85"/>
<circle cx="452.6" cy="347.8" r="3.2" fill="#ff922b" opacity="0.85"/>
<circle cx="466.9" cy="347.7" r="3.2" fill="#ff922b" opacity="0.85"/>
<circle cx="481.1" cy="347.7" r="3.2" fill="#ff922b" opacity="0.85"/>
<circle cx="495.3" cy="347.8" r="3.2" fill="#ff922b" opacity="0.85"/>
<circle cx="509.5" cy="347.7" r="3.2" fill="#ff922b" opacity="0.85"/>
<circle cx="523.8" cy="348.0" r="3.2" fill="#ff922b" opacity="0.85"/>
<circle cx="538.0" cy="229.8" r="3.2" fill="#ff922b" opacity="0.85"/>
<circle cx="552.2" cy="229.9" r="3.2" fill="#ff922b" opacity="0.85"/>
<circle cx="566.4" cy="347.9" r="3.2" fill="#ff922b" opacity="0.85"/>
<circle cx="580.6" cy="347.5" r="3.2" fill="#ff922b" opacity="0.85"/>
<circle cx="594.9" cy="347.8" r="3.2" fill="#ff922b" opacity="0.85"/>
<circle cx="609.1" cy="347.9" r="3.2" fill="#ff922b" opacity="0.85"/>
<circle cx="623.3" cy="347.9" r="3.2" fill="#ff922b" opacity="0.85"/>
<circle cx="637.5" cy="347.5" r="3.2" fill="#ff922b" opacity="0.85"/>
<circle cx="651.7" cy="233.2" r="3.2" fill="#ff922b" opacity="0.85"/>
<circle cx="666.0" cy="347.7" r="3.2" fill="#ff922b" opacity="0.85"/>
<circle cx="680.2" cy="347.9" r="3.2" fill="#ff922b" opacity="0.85"/>
<circle cx="694.4" cy="347.5" r="3.2" fill="#ff922b" opacity="0.85"/>
<circle cx="708.6" cy="348.0" r="3.2" fill="#ff922b" opacity="0.85"/>
<circle cx="722.9" cy="348.0" r="3.2" fill="#ff922b" opacity="0.85"/>
<circle cx="737.1" cy="227.8" r="3.2" fill="#ff922b" opacity="0.85"/>
<circle cx="751.3" cy="347.5" r="3.2" fill="#ff922b" opacity="0.85"/>
<circle cx="765.5" cy="229.8" r="3.2" fill="#ff922b" opacity="0.85"/>
<circle cx="779.7" cy="233.1" r="3.2" fill="#ff922b" opacity="0.85"/>
<circle cx="847" cy="84" r="5" fill="#ff922b"/>
<text x="866" y="88" font-size="13" fill="#c9d1d9" font-weight="700">Kāra</text>
<line x1="836" y1="108" x2="858" y2="108" stroke="#a7b0bc" stroke-width="2" stroke-dasharray="5 4"/>
<text x="866" y="112" font-size="13" fill="#c9d1d9" font-weight="400">Rust = 1.0×</text>
<circle cx="847" cy="132" r="4" fill="#3fb950"/>
<text x="866" y="136" font-size="13" fill="#c9d1d9" font-weight="400">C</text>
<circle cx="847" cy="156" r="4" fill="#bc8cff"/>
<text x="866" y="160" font-size="13" fill="#c9d1d9" font-weight="400">Go</text>
<text x="70" y="538" font-size="11.5" fill="#8b949e">Each dot is one benchmarked program (kata × approach); there is no connecting line because left-to-right order is not meaningful. Raw numbers: bench-results.json</text>
</svg>