<svg xmlns="http://www.w3.org/2000/svg" width="980" height="560" viewBox="0 0 980 560" font-family="-apple-system,Segoe UI,Helvetica,Arial,sans-serif">
<rect width="980" height="560" fill="#282c34"/>
<text x="70" y="34" font-size="21" font-weight="700" fill="#c9d1d9">Binary size — sequential lane</text>
<text x="70" y="56" font-size="13" fill="#8b949e">relative to Rust = 1.0 · lower = smaller · 41 programs · log scale</text>
<line x1="70" y1="456.0" x2="812" y2="456.0" stroke="#3b414b" stroke-width="1"/>
<text x="60" y="460.0" font-size="12" text-anchor="end" fill="#8b949e">0.01×</text>
<line x1="70" y1="418.1" x2="812" y2="418.1" stroke="#3b414b" stroke-width="1"/>
<text x="60" y="422.1" font-size="12" text-anchor="end" fill="#8b949e">0.02×</text>
<line x1="70" y1="367.9" x2="812" y2="367.9" stroke="#3b414b" stroke-width="1"/>
<text x="60" y="371.9" font-size="12" text-anchor="end" fill="#8b949e">0.05×</text>
<line x1="70" y1="330.0" x2="812" y2="330.0" stroke="#3b414b" stroke-width="1"/>
<text x="60" y="334.0" font-size="12" text-anchor="end" fill="#8b949e">0.1×</text>
<line x1="70" y1="292.1" x2="812" y2="292.1" stroke="#3b414b" stroke-width="1"/>
<text x="60" y="296.1" font-size="12" text-anchor="end" fill="#8b949e">0.2×</text>
<line x1="70" y1="241.9" x2="812" y2="241.9" stroke="#3b414b" stroke-width="1"/>
<text x="60" y="245.9" font-size="12" text-anchor="end" fill="#8b949e">0.5×</text>
<line x1="70" y1="204.0" x2="812" y2="204.0" stroke="#a7b0bc" stroke-width="2" stroke-dasharray="5 4"/>
<text x="60" y="208.0" font-size="12" text-anchor="end" fill="#aeb6c0" font-weight="700">1×</text>
<line x1="70" y1="166.1" x2="812" y2="166.1" stroke="#3b414b" stroke-width="1"/>
<text x="60" y="170.1" font-size="12" text-anchor="end" fill="#8b949e">2×</text>
<line x1="70" y1="115.9" x2="812" y2="115.9" stroke="#3b414b" stroke-width="1"/>
<text x="60" y="119.9" font-size="12" text-anchor="end" fill="#8b949e">5×</text>
<line x1="70" y1="78.0" x2="812" y2="78.0" stroke="#3b414b" stroke-width="1"/>
<text x="60" y="82.0" font-size="12" text-anchor="end" fill="#8b949e">10×</text>
<text x="812" y="198.0" font-size="11" text-anchor="end" fill="#aeb6c0">Rust baseline</text>
<line x1="70" y1="456" x2="812" y2="456" stroke="#3b414b"/>
<text x="441.0" y="478" font-size="11" text-anchor="middle" fill="#8b949e">41 programs (kata × approach) — x-order carries no meaning</text>
<circle cx="99.7" cy="347.9" r="2.6" fill="#3fb950" opacity="0.7"/>
<circle cx="116.7" cy="347.9" r="2.6" fill="#3fb950" opacity="0.7"/>
<circle cx="133.8" cy="347.9" r="2.6" fill="#3fb950" opacity="0.7"/>
<circle cx="150.9" cy="348.2" r="2.6" fill="#3fb950" opacity="0.7"/>
<circle cx="167.9" cy="348.1" r="2.6" fill="#3fb950" opacity="0.7"/>
<circle cx="185.0" cy="348.0" r="2.6" fill="#3fb950" opacity="0.7"/>
<circle cx="202.1" cy="347.6" r="2.6" fill="#3fb950" opacity="0.7"/>
<circle cx="219.1" cy="348.1" r="2.6" fill="#3fb950" opacity="0.7"/>
<circle cx="236.2" cy="348.1" r="2.6" fill="#3fb950" opacity="0.7"/>
<circle cx="253.3" cy="348.1" r="2.6" fill="#3fb950" opacity="0.7"/>
<circle cx="270.3" cy="348.1" r="2.6" fill="#3fb950" opacity="0.7"/>
<circle cx="287.4" cy="348.1" r="2.6" fill="#3fb950" opacity="0.7"/>
<circle cx="304.5" cy="348.0" r="2.6" fill="#3fb950" opacity="0.7"/>
<circle cx="321.5" cy="348.0" r="2.6" fill="#3fb950" opacity="0.7"/>
<circle cx="338.6" cy="348.0" r="2.6" fill="#3fb950" opacity="0.7"/>
<circle cx="355.7" cy="349.9" r="2.6" fill="#3fb950" opacity="0.7"/>
<circle cx="372.7" cy="348.0" r="2.6" fill="#3fb950" opacity="0.7"/>
<circle cx="389.8" cy="347.7" r="2.6" fill="#3fb950" opacity="0.7"/>
<circle cx="406.9" cy="349.9" r="2.6" fill="#3fb950" opacity="0.7"/>
<circle cx="423.9" cy="348.2" r="2.6" fill="#3fb950" opacity="0.7"/>
<circle cx="441.0" cy="348.0" r="2.6" fill="#3fb950" opacity="0.7"/>
<circle cx="458.1" cy="348.1" r="2.6" fill="#3fb950" opacity="0.7"/>
<circle cx="475.1" cy="347.9" r="2.6" fill="#3fb950" opacity="0.7"/>
<circle cx="492.2" cy="348.1" r="2.6" fill="#3fb950" opacity="0.7"/>
<circle cx="509.3" cy="348.2" r="2.6" fill="#3fb950" opacity="0.7"/>
<circle cx="526.3" cy="348.2" r="2.6" fill="#3fb950" opacity="0.7"/>
<circle cx="543.4" cy="348.0" r="2.6" fill="#3fb950" opacity="0.7"/>
<circle cx="560.5" cy="350.0" r="2.6" fill="#3fb950" opacity="0.7"/>
<circle cx="577.5" cy="348.1" r="2.6" fill="#3fb950" opacity="0.7"/>
<circle cx="594.6" cy="348.0" r="2.6" fill="#3fb950" opacity="0.7"/>
<circle cx="611.7" cy="348.0" r="2.6" fill="#3fb950" opacity="0.7"/>
<circle cx="628.7" cy="348.2" r="2.6" fill="#3fb950" opacity="0.7"/>
<circle cx="645.8" cy="348.1" r="2.6" fill="#3fb950" opacity="0.7"/>
<circle cx="662.9" cy="350.0" r="2.6" fill="#3fb950" opacity="0.7"/>
<circle cx="679.9" cy="347.9" r="2.6" fill="#3fb950" opacity="0.7"/>
<circle cx="697.0" cy="347.9" r="2.6" fill="#3fb950" opacity="0.7"/>
<circle cx="714.1" cy="348.0" r="2.6" fill="#3fb950" opacity="0.7"/>
<circle cx="731.1" cy="348.3" r="2.6" fill="#3fb950" opacity="0.7"/>
<circle cx="748.2" cy="348.3" r="2.6" fill="#3fb950" opacity="0.7"/>
<circle cx="765.3" cy="349.8" r="2.6" fill="#3fb950" opacity="0.7"/>
<circle cx="782.3" cy="349.5" r="2.6" fill="#3fb950" opacity="0.7"/>
<circle cx="102.3" cy="112.3" r="2.6" fill="#bc8cff" opacity="0.7"/>
<circle cx="119.4" cy="112.5" r="2.6" fill="#bc8cff" opacity="0.7"/>
<circle cx="136.4" cy="112.4" r="2.6" fill="#bc8cff" opacity="0.7"/>
<circle cx="153.5" cy="112.5" r="2.6" fill="#bc8cff" opacity="0.7"/>
<circle cx="170.6" cy="112.3" r="2.6" fill="#bc8cff" opacity="0.7"/>
<circle cx="187.6" cy="112.3" r="2.6" fill="#bc8cff" opacity="0.7"/>
<circle cx="204.7" cy="112.3" r="2.6" fill="#bc8cff" opacity="0.7"/>
<circle cx="221.8" cy="112.3" r="2.6" fill="#bc8cff" opacity="0.7"/>
<circle cx="238.8" cy="112.3" r="2.6" fill="#bc8cff" opacity="0.7"/>
<circle cx="255.9" cy="112.3" r="2.6" fill="#bc8cff" opacity="0.7"/>
<circle cx="273.0" cy="112.3" r="2.6" fill="#bc8cff" opacity="0.7"/>
<circle cx="290.0" cy="112.3" r="2.6" fill="#bc8cff" opacity="0.7"/>
<circle cx="307.1" cy="112.3" r="2.6" fill="#bc8cff" opacity="0.7"/>
<circle cx="324.2" cy="112.3" r="2.6" fill="#bc8cff" opacity="0.7"/>
<circle cx="341.2" cy="112.3" r="2.6" fill="#bc8cff" opacity="0.7"/>
<circle cx="358.3" cy="113.9" r="2.6" fill="#bc8cff" opacity="0.7"/>
<circle cx="375.4" cy="111.9" r="2.6" fill="#bc8cff" opacity="0.7"/>
<circle cx="392.4" cy="112.3" r="2.6" fill="#bc8cff" opacity="0.7"/>
<circle cx="409.5" cy="113.9" r="2.6" fill="#bc8cff" opacity="0.7"/>
<circle cx="426.6" cy="112.4" r="2.6" fill="#bc8cff" opacity="0.7"/>
<circle cx="443.6" cy="112.3" r="2.6" fill="#bc8cff" opacity="0.7"/>
<circle cx="460.7" cy="112.4" r="2.6" fill="#bc8cff" opacity="0.7"/>
<circle cx="477.8" cy="112.4" r="2.6" fill="#bc8cff" opacity="0.7"/>
<circle cx="494.8" cy="112.4" r="2.6" fill="#bc8cff" opacity="0.7"/>
<circle cx="511.9" cy="112.4" r="2.6" fill="#bc8cff" opacity="0.7"/>
<circle cx="529.0" cy="112.4" r="2.6" fill="#bc8cff" opacity="0.7"/>
<circle cx="546.0" cy="112.3" r="2.6" fill="#bc8cff" opacity="0.7"/>
<circle cx="563.1" cy="113.9" r="2.6" fill="#bc8cff" opacity="0.7"/>
<circle cx="580.2" cy="112.3" r="2.6" fill="#bc8cff" opacity="0.7"/>
<circle cx="597.2" cy="112.3" r="2.6" fill="#bc8cff" opacity="0.7"/>
<circle cx="614.3" cy="112.3" r="2.6" fill="#bc8cff" opacity="0.7"/>
<circle cx="631.4" cy="112.3" r="2.6" fill="#bc8cff" opacity="0.7"/>
<circle cx="648.4" cy="112.3" r="2.6" fill="#bc8cff" opacity="0.7"/>
<circle cx="665.5" cy="114.7" r="2.6" fill="#bc8cff" opacity="0.7"/>
<circle cx="682.6" cy="112.3" r="2.6" fill="#bc8cff" opacity="0.7"/>
<circle cx="699.6" cy="112.3" r="2.6" fill="#bc8cff" opacity="0.7"/>
<circle cx="716.7" cy="112.3" r="2.6" fill="#bc8cff" opacity="0.7"/>
<circle cx="733.8" cy="112.5" r="2.6" fill="#bc8cff" opacity="0.7"/>
<circle cx="750.8" cy="112.5" r="2.6" fill="#bc8cff" opacity="0.7"/>
<circle cx="767.9" cy="113.8" r="2.6" fill="#bc8cff" opacity="0.7"/>
<circle cx="785.0" cy="114.5" r="2.6" fill="#bc8cff" opacity="0.7"/>
<circle cx="97.0" cy="348.0" r="3.2" fill="#ff922b" opacity="0.85"/>
<circle cx="114.1" cy="231.1" r="3.2" fill="#ff922b" opacity="0.85"/>
<circle cx="131.2" cy="347.9" r="3.2" fill="#ff922b" opacity="0.85"/>
<circle cx="148.2" cy="231.1" r="3.2" fill="#ff922b" opacity="0.85"/>
<circle cx="165.3" cy="347.7" r="3.2" fill="#ff922b" opacity="0.85"/>
<circle cx="182.4" cy="347.7" r="3.2" fill="#ff922b" opacity="0.85"/>
<circle cx="199.4" cy="347.6" r="3.2" fill="#ff922b" opacity="0.85"/>
<circle cx="216.5" cy="347.9" r="3.2" fill="#ff922b" opacity="0.85"/>
<circle cx="233.6" cy="347.9" r="3.2" fill="#ff922b" opacity="0.85"/>
<circle cx="250.6" cy="347.9" r="3.2" fill="#ff922b" opacity="0.85"/>
<circle cx="267.7" cy="347.8" r="3.2" fill="#ff922b" opacity="0.85"/>
<circle cx="284.8" cy="347.9" r="3.2" fill="#ff922b" opacity="0.85"/>
<circle cx="301.8" cy="347.9" r="3.2" fill="#ff922b" opacity="0.85"/>
<circle cx="318.9" cy="347.9" r="3.2" fill="#ff922b" opacity="0.85"/>
<circle cx="336.0" cy="347.7" r="3.2" fill="#ff922b" opacity="0.85"/>
<circle cx="353.0" cy="229.9" r="3.2" fill="#ff922b" opacity="0.85"/>
<circle cx="370.1" cy="227.9" r="3.2" fill="#ff922b" opacity="0.85"/>
<circle cx="387.2" cy="347.5" r="3.2" fill="#ff922b" opacity="0.85"/>
<circle cx="404.2" cy="229.9" r="3.2" fill="#ff922b" opacity="0.85"/>
<circle cx="421.3" cy="348.0" r="3.2" fill="#ff922b" opacity="0.85"/>
<circle cx="438.4" cy="347.9" r="3.2" fill="#ff922b" opacity="0.85"/>
<circle cx="455.4" cy="348.0" r="3.2" fill="#ff922b" opacity="0.85"/>
<circle cx="472.5" cy="347.9" r="3.2" fill="#ff922b" opacity="0.85"/>
<circle cx="489.6" cy="347.9" r="3.2" fill="#ff922b" opacity="0.85"/>
<circle cx="506.6" cy="347.8" r="3.2" fill="#ff922b" opacity="0.85"/>
<circle cx="523.7" cy="347.8" r="3.2" fill="#ff922b" opacity="0.85"/>
<circle cx="540.8" cy="347.7" r="3.2" fill="#ff922b" opacity="0.85"/>
<circle cx="557.8" cy="229.9" r="3.2" fill="#ff922b" opacity="0.85"/>
<circle cx="574.9" cy="347.9" r="3.2" fill="#ff922b" opacity="0.85"/>
<circle cx="592.0" cy="347.5" r="3.2" fill="#ff922b" opacity="0.85"/>
<circle cx="609.0" cy="347.8" r="3.2" fill="#ff922b" opacity="0.85"/>
<circle cx="626.1" cy="347.9" r="3.2" fill="#ff922b" opacity="0.85"/>
<circle cx="643.2" cy="347.9" r="3.2" fill="#ff922b" opacity="0.85"/>
<circle cx="660.2" cy="233.2" r="3.2" fill="#ff922b" opacity="0.85"/>
<circle cx="677.3" cy="347.7" r="3.2" fill="#ff922b" opacity="0.85"/>
<circle cx="694.4" cy="347.9" r="3.2" fill="#ff922b" opacity="0.85"/>
<circle cx="711.4" cy="347.9" r="3.2" fill="#ff922b" opacity="0.85"/>
<circle cx="728.5" cy="348.0" r="3.2" fill="#ff922b" opacity="0.85"/>
<circle cx="745.6" cy="348.0" r="3.2" fill="#ff922b" opacity="0.85"/>
<circle cx="762.6" cy="229.8" r="3.2" fill="#ff922b" opacity="0.85"/>
<circle cx="779.7" cy="233.1" r="3.2" fill="#ff922b" opacity="0.85"/>
<circle cx="847" cy="84" r="5" fill="#ff922b"/>
<text x="866" y="88" font-size="13" fill="#c9d1d9" font-weight="700">Kāra</text>
<line x1="836" y1="108" x2="858" y2="108" stroke="#a7b0bc" stroke-width="2" stroke-dasharray="5 4"/>
<text x="866" y="112" font-size="13" fill="#c9d1d9" font-weight="400">Rust = 1.0×</text>
<circle cx="847" cy="132" r="4" fill="#3fb950"/>
<text x="866" y="136" font-size="13" fill="#c9d1d9" font-weight="400">C</text>
<circle cx="847" cy="156" r="4" fill="#bc8cff"/>
<text x="866" y="160" font-size="13" fill="#c9d1d9" font-weight="400">Go</text>
<text x="70" y="538" font-size="11.5" fill="#8b949e">Each dot is one benchmarked program (kata × approach); there is no connecting line because left-to-right order is not meaningful. Raw numbers: bench-results.json</text>
</svg>