<svg xmlns="http://www.w3.org/2000/svg" width="980" height="560" viewBox="0 0 980 560" font-family="-apple-system,Segoe UI,Helvetica,Arial,sans-serif">
<rect width="980" height="560" fill="#282c34"/>
<text x="70" y="34" font-size="21" font-weight="700" fill="#c9d1d9">Binary size — sequential lane</text>
<text x="70" y="56" font-size="13" fill="#8b949e">relative to Rust = 1.0 · lower = smaller · 94 programs · log scale</text>
<line x1="70" y1="456.0" x2="812" y2="456.0" stroke="#3b414b" stroke-width="1"/>
<text x="60" y="460.0" font-size="12" text-anchor="end" fill="#8b949e">0.01×</text>
<line x1="70" y1="418.1" x2="812" y2="418.1" stroke="#3b414b" stroke-width="1"/>
<text x="60" y="422.1" font-size="12" text-anchor="end" fill="#8b949e">0.02×</text>
<line x1="70" y1="367.9" x2="812" y2="367.9" stroke="#3b414b" stroke-width="1"/>
<text x="60" y="371.9" font-size="12" text-anchor="end" fill="#8b949e">0.05×</text>
<line x1="70" y1="330.0" x2="812" y2="330.0" stroke="#3b414b" stroke-width="1"/>
<text x="60" y="334.0" font-size="12" text-anchor="end" fill="#8b949e">0.1×</text>
<line x1="70" y1="292.1" x2="812" y2="292.1" stroke="#3b414b" stroke-width="1"/>
<text x="60" y="296.1" font-size="12" text-anchor="end" fill="#8b949e">0.2×</text>
<line x1="70" y1="241.9" x2="812" y2="241.9" stroke="#3b414b" stroke-width="1"/>
<text x="60" y="245.9" font-size="12" text-anchor="end" fill="#8b949e">0.5×</text>
<line x1="70" y1="204.0" x2="812" y2="204.0" stroke="#a7b0bc" stroke-width="2" stroke-dasharray="5 4"/>
<text x="60" y="208.0" font-size="12" text-anchor="end" fill="#aeb6c0" font-weight="700">1×</text>
<line x1="70" y1="166.1" x2="812" y2="166.1" stroke="#3b414b" stroke-width="1"/>
<text x="60" y="170.1" font-size="12" text-anchor="end" fill="#8b949e">2×</text>
<line x1="70" y1="115.9" x2="812" y2="115.9" stroke="#3b414b" stroke-width="1"/>
<text x="60" y="119.9" font-size="12" text-anchor="end" fill="#8b949e">5×</text>
<line x1="70" y1="78.0" x2="812" y2="78.0" stroke="#3b414b" stroke-width="1"/>
<text x="60" y="82.0" font-size="12" text-anchor="end" fill="#8b949e">10×</text>
<text x="812" y="198.0" font-size="11" text-anchor="end" fill="#aeb6c0">Rust baseline</text>
<line x1="70" y1="456" x2="812" y2="456" stroke="#3b414b"/>
<text x="441.0" y="478" font-size="11" text-anchor="middle" fill="#8b949e">94 programs (kata × approach) — x-order carries no meaning</text>
<circle cx="99.7" cy="347.9" r="2.6" fill="#3fb950" opacity="0.7"/>
<circle cx="107.0" cy="347.9" r="2.6" fill="#3fb950" opacity="0.7"/>
<circle cx="114.4" cy="347.9" r="2.6" fill="#3fb950" opacity="0.7"/>
<circle cx="121.7" cy="348.2" r="2.6" fill="#3fb950" opacity="0.7"/>
<circle cx="129.0" cy="348.1" r="2.6" fill="#3fb950" opacity="0.7"/>
<circle cx="136.4" cy="348.0" r="2.6" fill="#3fb950" opacity="0.7"/>
<circle cx="143.7" cy="347.6" r="2.6" fill="#3fb950" opacity="0.7"/>
<circle cx="151.1" cy="348.1" r="2.6" fill="#3fb950" opacity="0.7"/>
<circle cx="158.4" cy="348.1" r="2.6" fill="#3fb950" opacity="0.7"/>
<circle cx="165.7" cy="348.1" r="2.6" fill="#3fb950" opacity="0.7"/>
<circle cx="173.1" cy="348.1" r="2.6" fill="#3fb950" opacity="0.7"/>
<circle cx="180.4" cy="348.1" r="2.6" fill="#3fb950" opacity="0.7"/>
<circle cx="187.8" cy="348.0" r="2.6" fill="#3fb950" opacity="0.7"/>
<circle cx="195.1" cy="348.0" r="2.6" fill="#3fb950" opacity="0.7"/>
<circle cx="202.4" cy="348.0" r="2.6" fill="#3fb950" opacity="0.7"/>
<circle cx="209.8" cy="349.9" r="2.6" fill="#3fb950" opacity="0.7"/>
<circle cx="217.1" cy="348.0" r="2.6" fill="#3fb950" opacity="0.7"/>
<circle cx="224.5" cy="347.7" r="2.6" fill="#3fb950" opacity="0.7"/>
<circle cx="231.8" cy="349.9" r="2.6" fill="#3fb950" opacity="0.7"/>
<circle cx="239.1" cy="348.2" r="2.6" fill="#3fb950" opacity="0.7"/>
<circle cx="246.5" cy="348.0" r="2.6" fill="#3fb950" opacity="0.7"/>
<circle cx="253.8" cy="348.1" r="2.6" fill="#3fb950" opacity="0.7"/>
<circle cx="261.2" cy="347.9" r="2.6" fill="#3fb950" opacity="0.7"/>
<circle cx="268.5" cy="348.1" r="2.6" fill="#3fb950" opacity="0.7"/>
<circle cx="275.8" cy="348.2" r="2.6" fill="#3fb950" opacity="0.7"/>
<circle cx="283.2" cy="348.2" r="2.6" fill="#3fb950" opacity="0.7"/>
<circle cx="290.5" cy="348.0" r="2.6" fill="#3fb950" opacity="0.7"/>
<circle cx="297.9" cy="348.0" r="2.6" fill="#3fb950" opacity="0.7"/>
<circle cx="305.2" cy="348.0" r="2.6" fill="#3fb950" opacity="0.7"/>
<circle cx="312.5" cy="348.0" r="2.6" fill="#3fb950" opacity="0.7"/>
<circle cx="319.9" cy="348.2" r="2.6" fill="#3fb950" opacity="0.7"/>
<circle cx="327.2" cy="349.9" r="2.6" fill="#3fb950" opacity="0.7"/>
<circle cx="334.6" cy="348.0" r="2.6" fill="#3fb950" opacity="0.7"/>
<circle cx="341.9" cy="348.1" r="2.6" fill="#3fb950" opacity="0.7"/>
<circle cx="349.2" cy="348.1" r="2.6" fill="#3fb950" opacity="0.7"/>
<circle cx="356.6" cy="348.1" r="2.6" fill="#3fb950" opacity="0.7"/>
<circle cx="363.9" cy="348.1" r="2.6" fill="#3fb950" opacity="0.7"/>
<circle cx="371.3" cy="347.9" r="2.6" fill="#3fb950" opacity="0.7"/>
<circle cx="378.6" cy="347.9" r="2.6" fill="#3fb950" opacity="0.7"/>
<circle cx="385.9" cy="347.9" r="2.6" fill="#3fb950" opacity="0.7"/>
<circle cx="393.3" cy="348.0" r="2.6" fill="#3fb950" opacity="0.7"/>
<circle cx="400.6" cy="347.6" r="2.6" fill="#3fb950" opacity="0.7"/>
<circle cx="408.0" cy="348.1" r="2.6" fill="#3fb950" opacity="0.7"/>
<circle cx="415.3" cy="348.1" r="2.6" fill="#3fb950" opacity="0.7"/>
<circle cx="422.6" cy="347.9" r="2.6" fill="#3fb950" opacity="0.7"/>
<circle cx="430.0" cy="348.1" r="2.6" fill="#3fb950" opacity="0.7"/>
<circle cx="437.3" cy="348.1" r="2.6" fill="#3fb950" opacity="0.7"/>
<circle cx="444.7" cy="347.7" r="2.6" fill="#3fb950" opacity="0.7"/>
<circle cx="452.0" cy="347.6" r="2.6" fill="#3fb950" opacity="0.7"/>
<circle cx="459.4" cy="348.0" r="2.6" fill="#3fb950" opacity="0.7"/>
<circle cx="466.7" cy="350.1" r="2.6" fill="#3fb950" opacity="0.7"/>
<circle cx="474.0" cy="348.1" r="2.6" fill="#3fb950" opacity="0.7"/>
<circle cx="481.4" cy="348.2" r="2.6" fill="#3fb950" opacity="0.7"/>
<circle cx="488.7" cy="348.2" r="2.6" fill="#3fb950" opacity="0.7"/>
<circle cx="496.1" cy="348.2" r="2.6" fill="#3fb950" opacity="0.7"/>
<circle cx="503.4" cy="347.8" r="2.6" fill="#3fb950" opacity="0.7"/>
<circle cx="510.7" cy="348.1" r="2.6" fill="#3fb950" opacity="0.7"/>
<circle cx="518.1" cy="350.0" r="2.6" fill="#3fb950" opacity="0.7"/>
<circle cx="525.4" cy="348.0" r="2.6" fill="#3fb950" opacity="0.7"/>
<circle cx="532.8" cy="348.0" r="2.6" fill="#3fb950" opacity="0.7"/>
<circle cx="540.1" cy="348.1" r="2.6" fill="#3fb950" opacity="0.7"/>
<circle cx="547.4" cy="348.2" r="2.6" fill="#3fb950" opacity="0.7"/>
<circle cx="554.8" cy="348.0" r="2.6" fill="#3fb950" opacity="0.7"/>
<circle cx="562.1" cy="348.1" r="2.6" fill="#3fb950" opacity="0.7"/>
<circle cx="569.5" cy="348.1" r="2.6" fill="#3fb950" opacity="0.7"/>
<circle cx="576.8" cy="348.1" r="2.6" fill="#3fb950" opacity="0.7"/>
<circle cx="584.1" cy="348.0" r="2.6" fill="#3fb950" opacity="0.7"/>
<circle cx="591.5" cy="348.1" r="2.6" fill="#3fb950" opacity="0.7"/>
<circle cx="598.8" cy="348.2" r="2.6" fill="#3fb950" opacity="0.7"/>
<circle cx="606.2" cy="348.2" r="2.6" fill="#3fb950" opacity="0.7"/>
<circle cx="613.5" cy="348.0" r="2.6" fill="#3fb950" opacity="0.7"/>
<circle cx="620.8" cy="348.0" r="2.6" fill="#3fb950" opacity="0.7"/>
<circle cx="628.2" cy="348.0" r="2.6" fill="#3fb950" opacity="0.7"/>
<circle cx="635.5" cy="348.1" r="2.6" fill="#3fb950" opacity="0.7"/>
<circle cx="642.9" cy="348.0" r="2.6" fill="#3fb950" opacity="0.7"/>
<circle cx="650.2" cy="347.9" r="2.6" fill="#3fb950" opacity="0.7"/>
<circle cx="657.5" cy="348.0" r="2.6" fill="#3fb950" opacity="0.7"/>
<circle cx="664.9" cy="348.2" r="2.6" fill="#3fb950" opacity="0.7"/>
<circle cx="672.2" cy="348.0" r="2.6" fill="#3fb950" opacity="0.7"/>
<circle cx="679.6" cy="348.1" r="2.6" fill="#3fb950" opacity="0.7"/>
<circle cx="686.9" cy="348.1" r="2.6" fill="#3fb950" opacity="0.7"/>
<circle cx="694.2" cy="350.0" r="2.6" fill="#3fb950" opacity="0.7"/>
<circle cx="701.6" cy="347.9" r="2.6" fill="#3fb950" opacity="0.7"/>
<circle cx="708.9" cy="347.9" r="2.6" fill="#3fb950" opacity="0.7"/>
<circle cx="716.3" cy="348.0" r="2.6" fill="#3fb950" opacity="0.7"/>
<circle cx="723.6" cy="348.0" r="2.6" fill="#3fb950" opacity="0.7"/>
<circle cx="730.9" cy="348.3" r="2.6" fill="#3fb950" opacity="0.7"/>
<circle cx="738.3" cy="348.3" r="2.6" fill="#3fb950" opacity="0.7"/>
<circle cx="745.6" cy="347.9" r="2.6" fill="#3fb950" opacity="0.7"/>
<circle cx="753.0" cy="347.8" r="2.6" fill="#3fb950" opacity="0.7"/>
<circle cx="760.3" cy="348.0" r="2.6" fill="#3fb950" opacity="0.7"/>
<circle cx="767.6" cy="347.8" r="2.6" fill="#3fb950" opacity="0.7"/>
<circle cx="775.0" cy="349.8" r="2.6" fill="#3fb950" opacity="0.7"/>
<circle cx="782.3" cy="349.5" r="2.6" fill="#3fb950" opacity="0.7"/>
<circle cx="101.0" cy="112.3" r="2.6" fill="#bc8cff" opacity="0.7"/>
<circle cx="108.3" cy="112.5" r="2.6" fill="#bc8cff" opacity="0.7"/>
<circle cx="115.7" cy="112.4" r="2.6" fill="#bc8cff" opacity="0.7"/>
<circle cx="123.0" cy="112.5" r="2.6" fill="#bc8cff" opacity="0.7"/>
<circle cx="130.4" cy="112.3" r="2.6" fill="#bc8cff" opacity="0.7"/>
<circle cx="137.7" cy="112.3" r="2.6" fill="#bc8cff" opacity="0.7"/>
<circle cx="145.1" cy="112.3" r="2.6" fill="#bc8cff" opacity="0.7"/>
<circle cx="152.4" cy="112.3" r="2.6" fill="#bc8cff" opacity="0.7"/>
<circle cx="159.7" cy="112.3" r="2.6" fill="#bc8cff" opacity="0.7"/>
<circle cx="167.1" cy="112.3" r="2.6" fill="#bc8cff" opacity="0.7"/>
<circle cx="174.4" cy="112.3" r="2.6" fill="#bc8cff" opacity="0.7"/>
<circle cx="181.8" cy="112.3" r="2.6" fill="#bc8cff" opacity="0.7"/>
<circle cx="189.1" cy="112.3" r="2.6" fill="#bc8cff" opacity="0.7"/>
<circle cx="196.4" cy="112.3" r="2.6" fill="#bc8cff" opacity="0.7"/>
<circle cx="203.8" cy="112.3" r="2.6" fill="#bc8cff" opacity="0.7"/>
<circle cx="211.1" cy="113.9" r="2.6" fill="#bc8cff" opacity="0.7"/>
<circle cx="218.5" cy="111.9" r="2.6" fill="#bc8cff" opacity="0.7"/>
<circle cx="225.8" cy="112.3" r="2.6" fill="#bc8cff" opacity="0.7"/>
<circle cx="233.1" cy="113.9" r="2.6" fill="#bc8cff" opacity="0.7"/>
<circle cx="240.5" cy="112.4" r="2.6" fill="#bc8cff" opacity="0.7"/>
<circle cx="247.8" cy="112.3" r="2.6" fill="#bc8cff" opacity="0.7"/>
<circle cx="255.2" cy="112.4" r="2.6" fill="#bc8cff" opacity="0.7"/>
<circle cx="262.5" cy="112.4" r="2.6" fill="#bc8cff" opacity="0.7"/>
<circle cx="269.8" cy="112.4" r="2.6" fill="#bc8cff" opacity="0.7"/>
<circle cx="277.2" cy="112.4" r="2.6" fill="#bc8cff" opacity="0.7"/>
<circle cx="284.5" cy="112.4" r="2.6" fill="#bc8cff" opacity="0.7"/>
<circle cx="291.9" cy="112.3" r="2.6" fill="#bc8cff" opacity="0.7"/>
<circle cx="299.2" cy="112.3" r="2.6" fill="#bc8cff" opacity="0.7"/>
<circle cx="306.5" cy="112.3" r="2.6" fill="#bc8cff" opacity="0.7"/>
<circle cx="313.9" cy="112.3" r="2.6" fill="#bc8cff" opacity="0.7"/>
<circle cx="321.2" cy="112.3" r="2.6" fill="#bc8cff" opacity="0.7"/>
<circle cx="328.6" cy="114.4" r="2.6" fill="#bc8cff" opacity="0.7"/>
<circle cx="335.9" cy="112.3" r="2.6" fill="#bc8cff" opacity="0.7"/>
<circle cx="343.2" cy="112.4" r="2.6" fill="#bc8cff" opacity="0.7"/>
<circle cx="350.6" cy="112.3" r="2.6" fill="#bc8cff" opacity="0.7"/>
<circle cx="357.9" cy="112.3" r="2.6" fill="#bc8cff" opacity="0.7"/>
<circle cx="365.3" cy="112.3" r="2.6" fill="#bc8cff" opacity="0.7"/>
<circle cx="372.6" cy="112.3" r="2.6" fill="#bc8cff" opacity="0.7"/>
<circle cx="379.9" cy="112.3" r="2.6" fill="#bc8cff" opacity="0.7"/>
<circle cx="387.3" cy="112.4" r="2.6" fill="#bc8cff" opacity="0.7"/>
<circle cx="394.6" cy="112.4" r="2.6" fill="#bc8cff" opacity="0.7"/>
<circle cx="402.0" cy="111.9" r="2.6" fill="#bc8cff" opacity="0.7"/>
<circle cx="409.3" cy="112.3" r="2.6" fill="#bc8cff" opacity="0.7"/>
<circle cx="416.6" cy="112.3" r="2.6" fill="#bc8cff" opacity="0.7"/>
<circle cx="424.0" cy="112.3" r="2.6" fill="#bc8cff" opacity="0.7"/>
<circle cx="431.3" cy="112.3" r="2.6" fill="#bc8cff" opacity="0.7"/>
<circle cx="438.7" cy="112.3" r="2.6" fill="#bc8cff" opacity="0.7"/>
<circle cx="446.0" cy="112.3" r="2.6" fill="#bc8cff" opacity="0.7"/>
<circle cx="453.3" cy="111.9" r="2.6" fill="#bc8cff" opacity="0.7"/>
<circle cx="460.7" cy="112.3" r="2.6" fill="#bc8cff" opacity="0.7"/>
<circle cx="468.0" cy="114.3" r="2.6" fill="#bc8cff" opacity="0.7"/>
<circle cx="475.4" cy="112.2" r="2.6" fill="#bc8cff" opacity="0.7"/>
<circle cx="482.7" cy="112.3" r="2.6" fill="#bc8cff" opacity="0.7"/>
<circle cx="490.0" cy="112.3" r="2.6" fill="#bc8cff" opacity="0.7"/>
<circle cx="497.4" cy="112.3" r="2.6" fill="#bc8cff" opacity="0.7"/>
<circle cx="504.7" cy="112.3" r="2.6" fill="#bc8cff" opacity="0.7"/>
<circle cx="512.1" cy="112.3" r="2.6" fill="#bc8cff" opacity="0.7"/>
<circle cx="519.4" cy="113.9" r="2.6" fill="#bc8cff" opacity="0.7"/>
<circle cx="526.7" cy="112.3" r="2.6" fill="#bc8cff" opacity="0.7"/>
<circle cx="534.1" cy="112.3" r="2.6" fill="#bc8cff" opacity="0.7"/>
<circle cx="541.4" cy="112.4" r="2.6" fill="#bc8cff" opacity="0.7"/>
<circle cx="548.8" cy="112.4" r="2.6" fill="#bc8cff" opacity="0.7"/>
<circle cx="556.1" cy="112.3" r="2.6" fill="#bc8cff" opacity="0.7"/>
<circle cx="563.4" cy="112.3" r="2.6" fill="#bc8cff" opacity="0.7"/>
<circle cx="570.8" cy="112.3" r="2.6" fill="#bc8cff" opacity="0.7"/>
<circle cx="578.1" cy="112.3" r="2.6" fill="#bc8cff" opacity="0.7"/>
<circle cx="585.5" cy="112.3" r="2.6" fill="#bc8cff" opacity="0.7"/>
<circle cx="592.8" cy="112.3" r="2.6" fill="#bc8cff" opacity="0.7"/>
<circle cx="600.1" cy="112.3" r="2.6" fill="#bc8cff" opacity="0.7"/>
<circle cx="607.5" cy="112.3" r="2.6" fill="#bc8cff" opacity="0.7"/>
<circle cx="614.8" cy="112.3" r="2.6" fill="#bc8cff" opacity="0.7"/>
<circle cx="622.2" cy="112.3" r="2.6" fill="#bc8cff" opacity="0.7"/>
<circle cx="629.5" cy="112.3" r="2.6" fill="#bc8cff" opacity="0.7"/>
<circle cx="636.8" cy="112.3" r="2.6" fill="#bc8cff" opacity="0.7"/>
<circle cx="644.2" cy="112.3" r="2.6" fill="#bc8cff" opacity="0.7"/>
<circle cx="651.5" cy="112.3" r="2.6" fill="#bc8cff" opacity="0.7"/>
<circle cx="658.9" cy="112.3" r="2.6" fill="#bc8cff" opacity="0.7"/>
<circle cx="666.2" cy="112.3" r="2.6" fill="#bc8cff" opacity="0.7"/>
<circle cx="673.5" cy="112.3" r="2.6" fill="#bc8cff" opacity="0.7"/>
<circle cx="680.9" cy="112.3" r="2.6" fill="#bc8cff" opacity="0.7"/>
<circle cx="688.2" cy="112.3" r="2.6" fill="#bc8cff" opacity="0.7"/>
<circle cx="695.6" cy="114.7" r="2.6" fill="#bc8cff" opacity="0.7"/>
<circle cx="702.9" cy="112.3" r="2.6" fill="#bc8cff" opacity="0.7"/>
<circle cx="710.2" cy="112.3" r="2.6" fill="#bc8cff" opacity="0.7"/>
<circle cx="717.6" cy="112.4" r="2.6" fill="#bc8cff" opacity="0.7"/>
<circle cx="724.9" cy="112.3" r="2.6" fill="#bc8cff" opacity="0.7"/>
<circle cx="732.3" cy="112.5" r="2.6" fill="#bc8cff" opacity="0.7"/>
<circle cx="739.6" cy="112.5" r="2.6" fill="#bc8cff" opacity="0.7"/>
<circle cx="746.9" cy="112.3" r="2.6" fill="#bc8cff" opacity="0.7"/>
<circle cx="754.3" cy="112.3" r="2.6" fill="#bc8cff" opacity="0.7"/>
<circle cx="761.6" cy="112.3" r="2.6" fill="#bc8cff" opacity="0.7"/>
<circle cx="769.0" cy="112.3" r="2.6" fill="#bc8cff" opacity="0.7"/>
<circle cx="776.3" cy="113.8" r="2.6" fill="#bc8cff" opacity="0.7"/>
<circle cx="783.6" cy="114.5" r="2.6" fill="#bc8cff" opacity="0.7"/>
<circle cx="98.4" cy="347.6" r="3.2" fill="#ff922b" opacity="0.85"/>
<circle cx="105.7" cy="231.0" r="3.2" fill="#ff922b" opacity="0.85"/>
<circle cx="113.0" cy="347.1" r="3.2" fill="#ff922b" opacity="0.85"/>
<circle cx="120.4" cy="231.0" r="3.2" fill="#ff922b" opacity="0.85"/>
<circle cx="127.7" cy="347.2" r="3.2" fill="#ff922b" opacity="0.85"/>
<circle cx="135.1" cy="346.9" r="3.2" fill="#ff922b" opacity="0.85"/>
<circle cx="142.4" cy="347.0" r="3.2" fill="#ff922b" opacity="0.85"/>
<circle cx="149.7" cy="347.1" r="3.2" fill="#ff922b" opacity="0.85"/>
<circle cx="157.1" cy="347.3" r="3.2" fill="#ff922b" opacity="0.85"/>
<circle cx="164.4" cy="347.2" r="3.2" fill="#ff922b" opacity="0.85"/>
<circle cx="171.8" cy="347.3" r="3.2" fill="#ff922b" opacity="0.85"/>
<circle cx="179.1" cy="347.2" r="3.2" fill="#ff922b" opacity="0.85"/>
<circle cx="186.4" cy="347.1" r="3.2" fill="#ff922b" opacity="0.85"/>
<circle cx="193.8" cy="347.1" r="3.2" fill="#ff922b" opacity="0.85"/>
<circle cx="201.1" cy="346.9" r="3.2" fill="#ff922b" opacity="0.85"/>
<circle cx="208.5" cy="348.9" r="3.2" fill="#ff922b" opacity="0.85"/>
<circle cx="215.8" cy="346.9" r="3.2" fill="#ff922b" opacity="0.85"/>
<circle cx="223.1" cy="230.8" r="3.2" fill="#ff922b" opacity="0.85"/>
<circle cx="230.5" cy="348.9" r="3.2" fill="#ff922b" opacity="0.85"/>
<circle cx="237.8" cy="347.6" r="3.2" fill="#ff922b" opacity="0.85"/>
<circle cx="245.2" cy="347.1" r="3.2" fill="#ff922b" opacity="0.85"/>
<circle cx="252.5" cy="347.6" r="3.2" fill="#ff922b" opacity="0.85"/>
<circle cx="259.8" cy="347.2" r="3.2" fill="#ff922b" opacity="0.85"/>
<circle cx="267.2" cy="347.3" r="3.2" fill="#ff922b" opacity="0.85"/>
<circle cx="274.5" cy="347.5" r="3.2" fill="#ff922b" opacity="0.85"/>
<circle cx="281.9" cy="347.5" r="3.2" fill="#ff922b" opacity="0.85"/>
<circle cx="289.2" cy="347.2" r="3.2" fill="#ff922b" opacity="0.85"/>
<circle cx="296.5" cy="347.2" r="3.2" fill="#ff922b" opacity="0.85"/>
<circle cx="303.9" cy="347.2" r="3.2" fill="#ff922b" opacity="0.85"/>
<circle cx="311.2" cy="347.2" r="3.2" fill="#ff922b" opacity="0.85"/>
<circle cx="318.6" cy="347.7" r="3.2" fill="#ff922b" opacity="0.85"/>
<circle cx="325.9" cy="229.8" r="3.2" fill="#ff922b" opacity="0.85"/>
<circle cx="333.2" cy="347.4" r="3.2" fill="#ff922b" opacity="0.85"/>
<circle cx="340.6" cy="347.2" r="3.2" fill="#ff922b" opacity="0.85"/>
<circle cx="347.9" cy="347.1" r="3.2" fill="#ff922b" opacity="0.85"/>
<circle cx="355.3" cy="347.1" r="3.2" fill="#ff922b" opacity="0.85"/>
<circle cx="362.6" cy="347.1" r="3.2" fill="#ff922b" opacity="0.85"/>
<circle cx="369.9" cy="347.6" r="3.2" fill="#ff922b" opacity="0.85"/>
<circle cx="377.3" cy="347.4" r="3.2" fill="#ff922b" opacity="0.85"/>
<circle cx="384.6" cy="346.9" r="3.2" fill="#ff922b" opacity="0.85"/>
<circle cx="392.0" cy="347.2" r="3.2" fill="#ff922b" opacity="0.85"/>
<circle cx="399.3" cy="347.2" r="3.2" fill="#ff922b" opacity="0.85"/>
<circle cx="406.6" cy="347.0" r="3.2" fill="#ff922b" opacity="0.85"/>
<circle cx="414.0" cy="347.0" r="3.2" fill="#ff922b" opacity="0.85"/>
<circle cx="421.3" cy="227.8" r="3.2" fill="#ff922b" opacity="0.85"/>
<circle cx="428.7" cy="347.1" r="3.2" fill="#ff922b" opacity="0.85"/>
<circle cx="436.0" cy="347.0" r="3.2" fill="#ff922b" opacity="0.85"/>
<circle cx="443.3" cy="347.1" r="3.2" fill="#ff922b" opacity="0.85"/>
<circle cx="450.7" cy="347.1" r="3.2" fill="#ff922b" opacity="0.85"/>
<circle cx="458.0" cy="347.0" r="3.2" fill="#ff922b" opacity="0.85"/>
<circle cx="465.4" cy="230.1" r="3.2" fill="#ff922b" opacity="0.85"/>
<circle cx="472.7" cy="347.8" r="3.2" fill="#ff922b" opacity="0.85"/>
<circle cx="480.0" cy="347.6" r="3.2" fill="#ff922b" opacity="0.85"/>
<circle cx="487.4" cy="347.7" r="3.2" fill="#ff922b" opacity="0.85"/>
<circle cx="494.7" cy="347.6" r="3.2" fill="#ff922b" opacity="0.85"/>
<circle cx="502.1" cy="347.3" r="3.2" fill="#ff922b" opacity="0.85"/>
<circle cx="509.4" cy="347.1" r="3.2" fill="#ff922b" opacity="0.85"/>
<circle cx="516.7" cy="348.9" r="3.2" fill="#ff922b" opacity="0.85"/>
<circle cx="524.1" cy="347.1" r="3.2" fill="#ff922b" opacity="0.85"/>
<circle cx="531.4" cy="347.0" r="3.2" fill="#ff922b" opacity="0.85"/>
<circle cx="538.8" cy="347.1" r="3.2" fill="#ff922b" opacity="0.85"/>
<circle cx="546.1" cy="347.6" r="3.2" fill="#ff922b" opacity="0.85"/>
<circle cx="553.4" cy="347.0" r="3.2" fill="#ff922b" opacity="0.85"/>
<circle cx="560.8" cy="347.0" r="3.2" fill="#ff922b" opacity="0.85"/>
<circle cx="568.1" cy="347.1" r="3.2" fill="#ff922b" opacity="0.85"/>
<circle cx="575.5" cy="347.3" r="3.2" fill="#ff922b" opacity="0.85"/>
<circle cx="582.8" cy="347.2" r="3.2" fill="#ff922b" opacity="0.85"/>
<circle cx="590.1" cy="347.4" r="3.2" fill="#ff922b" opacity="0.85"/>
<circle cx="597.5" cy="347.4" r="3.2" fill="#ff922b" opacity="0.85"/>
<circle cx="604.8" cy="347.4" r="3.2" fill="#ff922b" opacity="0.85"/>
<circle cx="612.2" cy="346.9" r="3.2" fill="#ff922b" opacity="0.85"/>
<circle cx="619.5" cy="347.1" r="3.2" fill="#ff922b" opacity="0.85"/>
<circle cx="626.8" cy="347.1" r="3.2" fill="#ff922b" opacity="0.85"/>
<circle cx="634.2" cy="347.1" r="3.2" fill="#ff922b" opacity="0.85"/>
<circle cx="641.5" cy="347.1" r="3.2" fill="#ff922b" opacity="0.85"/>
<circle cx="648.9" cy="347.1" r="3.2" fill="#ff922b" opacity="0.85"/>
<circle cx="656.2" cy="347.2" r="3.2" fill="#ff922b" opacity="0.85"/>
<circle cx="663.5" cy="347.3" r="3.2" fill="#ff922b" opacity="0.85"/>
<circle cx="670.9" cy="347.5" r="3.2" fill="#ff922b" opacity="0.85"/>
<circle cx="678.2" cy="347.2" r="3.2" fill="#ff922b" opacity="0.85"/>
<circle cx="685.6" cy="347.1" r="3.2" fill="#ff922b" opacity="0.85"/>
<circle cx="692.9" cy="227.0" r="3.2" fill="#ff922b" opacity="0.85"/>
<circle cx="700.2" cy="347.1" r="3.2" fill="#ff922b" opacity="0.85"/>
<circle cx="707.6" cy="347.2" r="3.2" fill="#ff922b" opacity="0.85"/>
<circle cx="714.9" cy="227.9" r="3.2" fill="#ff922b" opacity="0.85"/>
<circle cx="722.3" cy="347.3" r="3.2" fill="#ff922b" opacity="0.85"/>
<circle cx="729.6" cy="347.3" r="3.2" fill="#ff922b" opacity="0.85"/>
<circle cx="736.9" cy="347.4" r="3.2" fill="#ff922b" opacity="0.85"/>
<circle cx="744.3" cy="227.8" r="3.2" fill="#ff922b" opacity="0.85"/>
<circle cx="751.6" cy="230.8" r="3.2" fill="#ff922b" opacity="0.85"/>
<circle cx="759.0" cy="227.8" r="3.2" fill="#ff922b" opacity="0.85"/>
<circle cx="766.3" cy="347.1" r="3.2" fill="#ff922b" opacity="0.85"/>
<circle cx="773.7" cy="348.8" r="3.2" fill="#ff922b" opacity="0.85"/>
<circle cx="781.0" cy="233.0" r="3.2" fill="#ff922b" opacity="0.85"/>
<circle cx="847" cy="84" r="5" fill="#ff922b"/>
<text x="866" y="88" font-size="13" fill="#c9d1d9" font-weight="700">Kāra</text>
<line x1="836" y1="108" x2="858" y2="108" stroke="#a7b0bc" stroke-width="2" stroke-dasharray="5 4"/>
<text x="866" y="112" font-size="13" fill="#c9d1d9" font-weight="400">Rust = 1.0×</text>
<circle cx="847" cy="132" r="4" fill="#3fb950"/>
<text x="866" y="136" font-size="13" fill="#c9d1d9" font-weight="400">C</text>
<circle cx="847" cy="156" r="4" fill="#bc8cff"/>
<text x="866" y="160" font-size="13" fill="#c9d1d9" font-weight="400">Go</text>
<text x="70" y="538" font-size="11.5" fill="#8b949e">Each dot is one benchmarked program (kata × approach); there is no connecting line because left-to-right order is not meaningful. Raw numbers: bench-results.json</text>
</svg>