<svg xmlns="http://www.w3.org/2000/svg" width="980" height="560" viewBox="0 0 980 560" font-family="-apple-system,Segoe UI,Helvetica,Arial,sans-serif">
<rect width="980" height="560" fill="#282c34"/>
<text x="70" y="34" font-size="21" font-weight="700" fill="#c9d1d9">Binary size — auto-parallel lane</text>
<text x="70" y="56" font-size="13" fill="#8b949e">relative to Rust = 1.0 · lower = smaller · 31 programs · log scale</text>
<line x1="70" y1="456.0" x2="812" y2="456.0" stroke="#3b414b" stroke-width="1"/>
<text x="60" y="460.0" font-size="12" text-anchor="end" fill="#8b949e">0.01×</text>
<line x1="70" y1="418.1" x2="812" y2="418.1" stroke="#3b414b" stroke-width="1"/>
<text x="60" y="422.1" font-size="12" text-anchor="end" fill="#8b949e">0.02×</text>
<line x1="70" y1="367.9" x2="812" y2="367.9" stroke="#3b414b" stroke-width="1"/>
<text x="60" y="371.9" font-size="12" text-anchor="end" fill="#8b949e">0.05×</text>
<line x1="70" y1="330.0" x2="812" y2="330.0" stroke="#3b414b" stroke-width="1"/>
<text x="60" y="334.0" font-size="12" text-anchor="end" fill="#8b949e">0.1×</text>
<line x1="70" y1="292.1" x2="812" y2="292.1" stroke="#3b414b" stroke-width="1"/>
<text x="60" y="296.1" font-size="12" text-anchor="end" fill="#8b949e">0.2×</text>
<line x1="70" y1="241.9" x2="812" y2="241.9" stroke="#3b414b" stroke-width="1"/>
<text x="60" y="245.9" font-size="12" text-anchor="end" fill="#8b949e">0.5×</text>
<line x1="70" y1="204.0" x2="812" y2="204.0" stroke="#a7b0bc" stroke-width="2" stroke-dasharray="5 4"/>
<text x="60" y="208.0" font-size="12" text-anchor="end" fill="#aeb6c0" font-weight="700">1×</text>
<line x1="70" y1="166.1" x2="812" y2="166.1" stroke="#3b414b" stroke-width="1"/>
<text x="60" y="170.1" font-size="12" text-anchor="end" fill="#8b949e">2×</text>
<line x1="70" y1="115.9" x2="812" y2="115.9" stroke="#3b414b" stroke-width="1"/>
<text x="60" y="119.9" font-size="12" text-anchor="end" fill="#8b949e">5×</text>
<line x1="70" y1="78.0" x2="812" y2="78.0" stroke="#3b414b" stroke-width="1"/>
<text x="60" y="82.0" font-size="12" text-anchor="end" fill="#8b949e">10×</text>
<text x="812" y="198.0" font-size="11" text-anchor="end" fill="#aeb6c0">Rust baseline</text>
<line x1="70" y1="456" x2="812" y2="456" stroke="#3b414b"/>
<text x="441.0" y="478" font-size="11" text-anchor="middle" fill="#8b949e">31 programs (kata × approach) — x-order carries no meaning</text>
<circle cx="99.7" cy="347.5" r="2.6" fill="#3fb950" opacity="0.7"/>
<circle cx="122.4" cy="347.6" r="2.6" fill="#3fb950" opacity="0.7"/>
<circle cx="145.2" cy="347.4" r="2.6" fill="#3fb950" opacity="0.7"/>
<circle cx="167.9" cy="347.1" r="2.6" fill="#3fb950" opacity="0.7"/>
<circle cx="190.7" cy="347.6" r="2.6" fill="#3fb950" opacity="0.7"/>
<circle cx="213.5" cy="347.3" r="2.6" fill="#3fb950" opacity="0.7"/>
<circle cx="236.2" cy="347.6" r="2.6" fill="#3fb950" opacity="0.7"/>
<circle cx="259.0" cy="347.4" r="2.6" fill="#3fb950" opacity="0.7"/>
<circle cx="281.7" cy="347.5" r="2.6" fill="#3fb950" opacity="0.7"/>
<circle cx="304.5" cy="347.3" r="2.6" fill="#3fb950" opacity="0.7"/>
<circle cx="327.2" cy="347.5" r="2.6" fill="#3fb950" opacity="0.7"/>
<circle cx="350.0" cy="347.5" r="2.6" fill="#3fb950" opacity="0.7"/>
<circle cx="372.7" cy="347.5" r="2.6" fill="#3fb950" opacity="0.7"/>
<circle cx="395.5" cy="347.5" r="2.6" fill="#3fb950" opacity="0.7"/>
<circle cx="418.2" cy="325.5" r="2.6" fill="#3fb950" opacity="0.7"/>
<circle cx="441.0" cy="347.4" r="2.6" fill="#3fb950" opacity="0.7"/>
<circle cx="463.8" cy="347.5" r="2.6" fill="#3fb950" opacity="0.7"/>
<circle cx="486.5" cy="347.3" r="2.6" fill="#3fb950" opacity="0.7"/>
<circle cx="509.3" cy="347.6" r="2.6" fill="#3fb950" opacity="0.7"/>
<circle cx="532.0" cy="347.4" r="2.6" fill="#3fb950" opacity="0.7"/>
<circle cx="554.8" cy="347.4" r="2.6" fill="#3fb950" opacity="0.7"/>
<circle cx="577.5" cy="347.5" r="2.6" fill="#3fb950" opacity="0.7"/>
<circle cx="600.3" cy="347.3" r="2.6" fill="#3fb950" opacity="0.7"/>
<circle cx="623.0" cy="347.6" r="2.6" fill="#3fb950" opacity="0.7"/>
<circle cx="645.8" cy="347.4" r="2.6" fill="#3fb950" opacity="0.7"/>
<circle cx="668.5" cy="347.6" r="2.6" fill="#3fb950" opacity="0.7"/>
<circle cx="691.3" cy="347.5" r="2.6" fill="#3fb950" opacity="0.7"/>
<circle cx="714.1" cy="347.2" r="2.6" fill="#3fb950" opacity="0.7"/>
<circle cx="736.8" cy="347.5" r="2.6" fill="#3fb950" opacity="0.7"/>
<circle cx="759.6" cy="347.4" r="2.6" fill="#3fb950" opacity="0.7"/>
<circle cx="782.3" cy="346.9" r="2.6" fill="#3fb950" opacity="0.7"/>
<circle cx="102.3" cy="111.6" r="2.6" fill="#bc8cff" opacity="0.7"/>
<circle cx="125.1" cy="111.7" r="2.6" fill="#bc8cff" opacity="0.7"/>
<circle cx="147.8" cy="111.6" r="2.6" fill="#bc8cff" opacity="0.7"/>
<circle cx="170.6" cy="111.7" r="2.6" fill="#bc8cff" opacity="0.7"/>
<circle cx="193.3" cy="111.8" r="2.6" fill="#bc8cff" opacity="0.7"/>
<circle cx="216.1" cy="111.7" r="2.6" fill="#bc8cff" opacity="0.7"/>
<circle cx="238.8" cy="111.8" r="2.6" fill="#bc8cff" opacity="0.7"/>
<circle cx="261.6" cy="111.7" r="2.6" fill="#bc8cff" opacity="0.7"/>
<circle cx="284.4" cy="111.7" r="2.6" fill="#bc8cff" opacity="0.7"/>
<circle cx="307.1" cy="111.7" r="2.6" fill="#bc8cff" opacity="0.7"/>
<circle cx="329.9" cy="111.7" r="2.6" fill="#bc8cff" opacity="0.7"/>
<circle cx="352.6" cy="111.8" r="2.6" fill="#bc8cff" opacity="0.7"/>
<circle cx="375.4" cy="111.4" r="2.6" fill="#bc8cff" opacity="0.7"/>
<circle cx="398.1" cy="111.4" r="2.6" fill="#bc8cff" opacity="0.7"/>
<circle cx="420.9" cy="111.7" r="2.6" fill="#bc8cff" opacity="0.7"/>
<circle cx="443.6" cy="111.4" r="2.6" fill="#bc8cff" opacity="0.7"/>
<circle cx="466.4" cy="111.7" r="2.6" fill="#bc8cff" opacity="0.7"/>
<circle cx="489.1" cy="111.7" r="2.6" fill="#bc8cff" opacity="0.7"/>
<circle cx="511.9" cy="111.8" r="2.6" fill="#bc8cff" opacity="0.7"/>
<circle cx="534.7" cy="111.6" r="2.6" fill="#bc8cff" opacity="0.7"/>
<circle cx="557.4" cy="111.8" r="2.6" fill="#bc8cff" opacity="0.7"/>
<circle cx="580.2" cy="111.7" r="2.6" fill="#bc8cff" opacity="0.7"/>
<circle cx="602.9" cy="111.8" r="2.6" fill="#bc8cff" opacity="0.7"/>
<circle cx="625.7" cy="111.7" r="2.6" fill="#bc8cff" opacity="0.7"/>
<circle cx="648.4" cy="111.9" r="2.6" fill="#bc8cff" opacity="0.7"/>
<circle cx="671.2" cy="111.7" r="2.6" fill="#bc8cff" opacity="0.7"/>
<circle cx="693.9" cy="111.8" r="2.6" fill="#bc8cff" opacity="0.7"/>
<circle cx="716.7" cy="111.5" r="2.6" fill="#bc8cff" opacity="0.7"/>
<circle cx="739.4" cy="111.8" r="2.6" fill="#bc8cff" opacity="0.7"/>
<circle cx="762.2" cy="111.8" r="2.6" fill="#bc8cff" opacity="0.7"/>
<circle cx="785.0" cy="111.9" r="2.6" fill="#bc8cff" opacity="0.7"/>
<circle cx="97.0" cy="227.3" r="3.2" fill="#ff922b" opacity="0.85"/>
<circle cx="119.8" cy="227.4" r="3.2" fill="#ff922b" opacity="0.85"/>
<circle cx="142.6" cy="227.3" r="3.2" fill="#ff922b" opacity="0.85"/>
<circle cx="165.3" cy="227.3" r="3.2" fill="#ff922b" opacity="0.85"/>
<circle cx="188.1" cy="227.4" r="3.2" fill="#ff922b" opacity="0.85"/>
<circle cx="210.8" cy="227.4" r="3.2" fill="#ff922b" opacity="0.85"/>
<circle cx="233.6" cy="227.4" r="3.2" fill="#ff922b" opacity="0.85"/>
<circle cx="256.3" cy="227.4" r="3.2" fill="#ff922b" opacity="0.85"/>
<circle cx="279.1" cy="227.4" r="3.2" fill="#ff922b" opacity="0.85"/>
<circle cx="301.8" cy="227.4" r="3.2" fill="#ff922b" opacity="0.85"/>
<circle cx="324.6" cy="227.4" r="3.2" fill="#ff922b" opacity="0.85"/>
<circle cx="347.3" cy="227.4" r="3.2" fill="#ff922b" opacity="0.85"/>
<circle cx="370.1" cy="224.6" r="3.2" fill="#ff922b" opacity="0.85"/>
<circle cx="392.9" cy="224.6" r="3.2" fill="#ff922b" opacity="0.85"/>
<circle cx="415.6" cy="227.4" r="3.2" fill="#ff922b" opacity="0.85"/>
<circle cx="438.4" cy="224.6" r="3.2" fill="#ff922b" opacity="0.85"/>
<circle cx="461.1" cy="227.4" r="3.2" fill="#ff922b" opacity="0.85"/>
<circle cx="483.9" cy="227.4" r="3.2" fill="#ff922b" opacity="0.85"/>
<circle cx="506.6" cy="227.5" r="3.2" fill="#ff922b" opacity="0.85"/>
<circle cx="529.4" cy="227.3" r="3.2" fill="#ff922b" opacity="0.85"/>
<circle cx="552.1" cy="224.6" r="3.2" fill="#ff922b" opacity="0.85"/>
<circle cx="574.9" cy="227.4" r="3.2" fill="#ff922b" opacity="0.85"/>
<circle cx="597.6" cy="227.4" r="3.2" fill="#ff922b" opacity="0.85"/>
<circle cx="620.4" cy="227.4" r="3.2" fill="#ff922b" opacity="0.85"/>
<circle cx="643.2" cy="224.4" r="3.2" fill="#ff922b" opacity="0.85"/>
<circle cx="665.9" cy="227.4" r="3.2" fill="#ff922b" opacity="0.85"/>
<circle cx="688.7" cy="224.6" r="3.2" fill="#ff922b" opacity="0.85"/>
<circle cx="711.4" cy="227.1" r="3.2" fill="#ff922b" opacity="0.85"/>
<circle cx="734.2" cy="224.5" r="3.2" fill="#ff922b" opacity="0.85"/>
<circle cx="756.9" cy="224.5" r="3.2" fill="#ff922b" opacity="0.85"/>
<circle cx="779.7" cy="224.6" r="3.2" fill="#ff922b" opacity="0.85"/>
<circle cx="847" cy="84" r="5" fill="#ff922b"/>
<text x="866" y="88" font-size="13" fill="#c9d1d9" font-weight="700">Kāra</text>
<line x1="836" y1="108" x2="858" y2="108" stroke="#a7b0bc" stroke-width="2" stroke-dasharray="5 4"/>
<text x="866" y="112" font-size="13" fill="#c9d1d9" font-weight="400">Rust = 1.0×</text>
<circle cx="847" cy="132" r="4" fill="#3fb950"/>
<text x="866" y="136" font-size="13" fill="#c9d1d9" font-weight="400">C</text>
<circle cx="847" cy="156" r="4" fill="#bc8cff"/>
<text x="866" y="160" font-size="13" fill="#c9d1d9" font-weight="400">Go</text>
<text x="70" y="538" font-size="11.5" fill="#8b949e">Each dot is one benchmarked program (kata × approach); there is no connecting line because left-to-right order is not meaningful. Raw numbers: bench-results.json</text>
</svg>