<svg xmlns="http://www.w3.org/2000/svg" width="980" height="560" viewBox="0 0 980 560" font-family="-apple-system,Segoe UI,Helvetica,Arial,sans-serif">
<rect width="980" height="560" fill="#282c34"/>
<text x="70" y="34" font-size="21" font-weight="700" fill="#c9d1d9">Binary size — sequential lane</text>
<text x="70" y="56" font-size="13" fill="#8b949e">relative to Rust = 1.0 · lower = smaller · 32 programs · log scale</text>
<line x1="70" y1="456.0" x2="812" y2="456.0" stroke="#3b414b" stroke-width="1"/>
<text x="60" y="460.0" font-size="12" text-anchor="end" fill="#8b949e">0.01×</text>
<line x1="70" y1="418.1" x2="812" y2="418.1" stroke="#3b414b" stroke-width="1"/>
<text x="60" y="422.1" font-size="12" text-anchor="end" fill="#8b949e">0.02×</text>
<line x1="70" y1="367.9" x2="812" y2="367.9" stroke="#3b414b" stroke-width="1"/>
<text x="60" y="371.9" font-size="12" text-anchor="end" fill="#8b949e">0.05×</text>
<line x1="70" y1="330.0" x2="812" y2="330.0" stroke="#3b414b" stroke-width="1"/>
<text x="60" y="334.0" font-size="12" text-anchor="end" fill="#8b949e">0.1×</text>
<line x1="70" y1="292.1" x2="812" y2="292.1" stroke="#3b414b" stroke-width="1"/>
<text x="60" y="296.1" font-size="12" text-anchor="end" fill="#8b949e">0.2×</text>
<line x1="70" y1="241.9" x2="812" y2="241.9" stroke="#3b414b" stroke-width="1"/>
<text x="60" y="245.9" font-size="12" text-anchor="end" fill="#8b949e">0.5×</text>
<line x1="70" y1="204.0" x2="812" y2="204.0" stroke="#6e7681" stroke-width="1.4" stroke-dasharray="5 4"/>
<text x="60" y="208.0" font-size="12" text-anchor="end" fill="#aeb6c0" font-weight="700">1×</text>
<line x1="70" y1="166.1" x2="812" y2="166.1" stroke="#3b414b" stroke-width="1"/>
<text x="60" y="170.1" font-size="12" text-anchor="end" fill="#8b949e">2×</text>
<line x1="70" y1="115.9" x2="812" y2="115.9" stroke="#3b414b" stroke-width="1"/>
<text x="60" y="119.9" font-size="12" text-anchor="end" fill="#8b949e">5×</text>
<line x1="70" y1="78.0" x2="812" y2="78.0" stroke="#3b414b" stroke-width="1"/>
<text x="60" y="82.0" font-size="12" text-anchor="end" fill="#8b949e">10×</text>
<text x="812" y="198.0" font-size="11" text-anchor="end" fill="#aeb6c0">Rust baseline</text>
<line x1="70" y1="456" x2="812" y2="456" stroke="#3b414b"/>
<text x="441.0" y="478" font-size="11" text-anchor="middle" fill="#8b949e">32 programs (kata × approach) — x-order carries no meaning</text>
<circle cx="99.7" cy="347.9" r="2.6" fill="#3fb950" opacity="0.7"/>
<circle cx="121.7" cy="347.9" r="2.6" fill="#3fb950" opacity="0.7"/>
<circle cx="143.7" cy="347.9" r="2.6" fill="#3fb950" opacity="0.7"/>
<circle cx="165.7" cy="348.2" r="2.6" fill="#3fb950" opacity="0.7"/>
<circle cx="187.8" cy="348.1" r="2.6" fill="#3fb950" opacity="0.7"/>
<circle cx="209.8" cy="348.0" r="2.6" fill="#3fb950" opacity="0.7"/>
<circle cx="231.8" cy="347.6" r="2.6" fill="#3fb950" opacity="0.7"/>
<circle cx="253.8" cy="348.1" r="2.6" fill="#3fb950" opacity="0.7"/>
<circle cx="275.8" cy="348.1" r="2.6" fill="#3fb950" opacity="0.7"/>
<circle cx="297.9" cy="348.1" r="2.6" fill="#3fb950" opacity="0.7"/>
<circle cx="319.9" cy="348.1" r="2.6" fill="#3fb950" opacity="0.7"/>
<circle cx="341.9" cy="348.1" r="2.6" fill="#3fb950" opacity="0.7"/>
<circle cx="363.9" cy="348.0" r="2.6" fill="#3fb950" opacity="0.7"/>
<circle cx="385.9" cy="348.0" r="2.6" fill="#3fb950" opacity="0.7"/>
<circle cx="408.0" cy="348.0" r="2.6" fill="#3fb950" opacity="0.7"/>
<circle cx="430.0" cy="349.9" r="2.6" fill="#3fb950" opacity="0.7"/>
<circle cx="452.0" cy="348.0" r="2.6" fill="#3fb950" opacity="0.7"/>
<circle cx="474.0" cy="347.7" r="2.6" fill="#3fb950" opacity="0.7"/>
<circle cx="496.1" cy="349.9" r="2.6" fill="#3fb950" opacity="0.7"/>
<circle cx="518.1" cy="348.2" r="2.6" fill="#3fb950" opacity="0.7"/>
<circle cx="540.1" cy="348.0" r="2.6" fill="#3fb950" opacity="0.7"/>
<circle cx="562.1" cy="348.1" r="2.6" fill="#3fb950" opacity="0.7"/>
<circle cx="584.1" cy="350.0" r="2.6" fill="#3fb950" opacity="0.7"/>
<circle cx="606.2" cy="348.1" r="2.6" fill="#3fb950" opacity="0.7"/>
<circle cx="628.2" cy="348.0" r="2.6" fill="#3fb950" opacity="0.7"/>
<circle cx="650.2" cy="348.0" r="2.6" fill="#3fb950" opacity="0.7"/>
<circle cx="672.2" cy="348.2" r="2.6" fill="#3fb950" opacity="0.7"/>
<circle cx="694.2" cy="348.1" r="2.6" fill="#3fb950" opacity="0.7"/>
<circle cx="716.3" cy="350.0" r="2.6" fill="#3fb950" opacity="0.7"/>
<circle cx="738.3" cy="347.9" r="2.6" fill="#3fb950" opacity="0.7"/>
<circle cx="760.3" cy="347.9" r="2.6" fill="#3fb950" opacity="0.7"/>
<circle cx="782.3" cy="348.0" r="2.6" fill="#3fb950" opacity="0.7"/>
<circle cx="102.3" cy="112.3" r="2.6" fill="#bc8cff" opacity="0.7"/>
<circle cx="124.3" cy="112.5" r="2.6" fill="#bc8cff" opacity="0.7"/>
<circle cx="146.4" cy="112.4" r="2.6" fill="#bc8cff" opacity="0.7"/>
<circle cx="168.4" cy="112.5" r="2.6" fill="#bc8cff" opacity="0.7"/>
<circle cx="190.4" cy="112.3" r="2.6" fill="#bc8cff" opacity="0.7"/>
<circle cx="212.4" cy="112.3" r="2.6" fill="#bc8cff" opacity="0.7"/>
<circle cx="234.4" cy="112.3" r="2.6" fill="#bc8cff" opacity="0.7"/>
<circle cx="256.5" cy="112.3" r="2.6" fill="#bc8cff" opacity="0.7"/>
<circle cx="278.5" cy="112.3" r="2.6" fill="#bc8cff" opacity="0.7"/>
<circle cx="300.5" cy="112.3" r="2.6" fill="#bc8cff" opacity="0.7"/>
<circle cx="322.5" cy="112.3" r="2.6" fill="#bc8cff" opacity="0.7"/>
<circle cx="344.5" cy="112.3" r="2.6" fill="#bc8cff" opacity="0.7"/>
<circle cx="366.6" cy="112.3" r="2.6" fill="#bc8cff" opacity="0.7"/>
<circle cx="388.6" cy="112.3" r="2.6" fill="#bc8cff" opacity="0.7"/>
<circle cx="410.6" cy="112.3" r="2.6" fill="#bc8cff" opacity="0.7"/>
<circle cx="432.6" cy="113.9" r="2.6" fill="#bc8cff" opacity="0.7"/>
<circle cx="454.6" cy="111.9" r="2.6" fill="#bc8cff" opacity="0.7"/>
<circle cx="476.7" cy="112.3" r="2.6" fill="#bc8cff" opacity="0.7"/>
<circle cx="498.7" cy="113.9" r="2.6" fill="#bc8cff" opacity="0.7"/>
<circle cx="520.7" cy="112.4" r="2.6" fill="#bc8cff" opacity="0.7"/>
<circle cx="542.7" cy="112.3" r="2.6" fill="#bc8cff" opacity="0.7"/>
<circle cx="564.7" cy="112.4" r="2.6" fill="#bc8cff" opacity="0.7"/>
<circle cx="586.8" cy="113.9" r="2.6" fill="#bc8cff" opacity="0.7"/>
<circle cx="608.8" cy="112.3" r="2.6" fill="#bc8cff" opacity="0.7"/>
<circle cx="630.8" cy="112.3" r="2.6" fill="#bc8cff" opacity="0.7"/>
<circle cx="652.8" cy="112.3" r="2.6" fill="#bc8cff" opacity="0.7"/>
<circle cx="674.9" cy="112.3" r="2.6" fill="#bc8cff" opacity="0.7"/>
<circle cx="696.9" cy="112.3" r="2.6" fill="#bc8cff" opacity="0.7"/>
<circle cx="718.9" cy="114.7" r="2.6" fill="#bc8cff" opacity="0.7"/>
<circle cx="740.9" cy="112.3" r="2.6" fill="#bc8cff" opacity="0.7"/>
<circle cx="762.9" cy="112.3" r="2.6" fill="#bc8cff" opacity="0.7"/>
<circle cx="785.0" cy="112.3" r="2.6" fill="#bc8cff" opacity="0.7"/>
<circle cx="97.0" cy="348.0" r="3.2" fill="#ff922b" opacity="0.85"/>
<circle cx="119.1" cy="231.1" r="3.2" fill="#ff922b" opacity="0.85"/>
<circle cx="141.1" cy="348.0" r="3.2" fill="#ff922b" opacity="0.85"/>
<circle cx="163.1" cy="231.1" r="3.2" fill="#ff922b" opacity="0.85"/>
<circle cx="185.1" cy="347.7" r="3.2" fill="#ff922b" opacity="0.85"/>
<circle cx="207.1" cy="347.7" r="3.2" fill="#ff922b" opacity="0.85"/>
<circle cx="229.2" cy="347.6" r="3.2" fill="#ff922b" opacity="0.85"/>
<circle cx="251.2" cy="347.9" r="3.2" fill="#ff922b" opacity="0.85"/>
<circle cx="273.2" cy="347.9" r="3.2" fill="#ff922b" opacity="0.85"/>
<circle cx="295.2" cy="347.9" r="3.2" fill="#ff922b" opacity="0.85"/>
<circle cx="317.3" cy="347.8" r="3.2" fill="#ff922b" opacity="0.85"/>
<circle cx="339.3" cy="347.9" r="3.2" fill="#ff922b" opacity="0.85"/>
<circle cx="361.3" cy="347.9" r="3.2" fill="#ff922b" opacity="0.85"/>
<circle cx="383.3" cy="347.9" r="3.2" fill="#ff922b" opacity="0.85"/>
<circle cx="405.3" cy="347.7" r="3.2" fill="#ff922b" opacity="0.85"/>
<circle cx="427.4" cy="229.9" r="3.2" fill="#ff922b" opacity="0.85"/>
<circle cx="449.4" cy="227.9" r="3.2" fill="#ff922b" opacity="0.85"/>
<circle cx="471.4" cy="347.5" r="3.2" fill="#ff922b" opacity="0.85"/>
<circle cx="493.4" cy="229.9" r="3.2" fill="#ff922b" opacity="0.85"/>
<circle cx="515.4" cy="348.0" r="3.2" fill="#ff922b" opacity="0.85"/>
<circle cx="537.5" cy="347.9" r="3.2" fill="#ff922b" opacity="0.85"/>
<circle cx="559.5" cy="348.0" r="3.2" fill="#ff922b" opacity="0.85"/>
<circle cx="581.5" cy="229.9" r="3.2" fill="#ff922b" opacity="0.85"/>
<circle cx="603.5" cy="347.9" r="3.2" fill="#ff922b" opacity="0.85"/>
<circle cx="625.5" cy="347.5" r="3.2" fill="#ff922b" opacity="0.85"/>
<circle cx="647.6" cy="347.7" r="3.2" fill="#ff922b" opacity="0.85"/>
<circle cx="669.6" cy="347.9" r="3.2" fill="#ff922b" opacity="0.85"/>
<circle cx="691.6" cy="347.9" r="3.2" fill="#ff922b" opacity="0.85"/>
<circle cx="713.6" cy="233.2" r="3.2" fill="#ff922b" opacity="0.85"/>
<circle cx="735.6" cy="347.7" r="3.2" fill="#ff922b" opacity="0.85"/>
<circle cx="757.7" cy="347.9" r="3.2" fill="#ff922b" opacity="0.85"/>
<circle cx="779.7" cy="347.9" r="3.2" fill="#ff922b" opacity="0.85"/>
<circle cx="847" cy="84" r="5" fill="#ff922b"/>
<text x="866" y="88" font-size="13" fill="#c9d1d9" font-weight="700">Kāra</text>
<line x1="836" y1="108" x2="858" y2="108" stroke="#6e7681" stroke-width="1.6" stroke-dasharray="5 4"/>
<text x="866" y="112" font-size="13" fill="#c9d1d9" font-weight="400">Rust</text>
<circle cx="847" cy="132" r="4" fill="#3fb950"/>
<text x="866" y="136" font-size="13" fill="#c9d1d9" font-weight="400">C</text>
<circle cx="847" cy="156" r="4" fill="#bc8cff"/>
<text x="866" y="160" font-size="13" fill="#c9d1d9" font-weight="400">Go</text>
<text x="70" y="538" font-size="11.5" fill="#8b949e">Each dot is one benchmarked program (kata × approach); there is no connecting line because left-to-right order is not meaningful. Raw numbers: bench-results.json</text>
</svg>