<svg xmlns="http://www.w3.org/2000/svg" width="980" height="560" viewBox="0 0 980 560" font-family="-apple-system,Segoe UI,Helvetica,Arial,sans-serif">
<rect width="980" height="560" fill="#282c34"/>
<text x="70" y="34" font-size="21" font-weight="700" fill="#c9d1d9">Binary size — sequential lane</text>
<text x="70" y="56" font-size="13" fill="#8b949e">relative to Rust = 1.0 · lower = smaller · 24 programs · log scale</text>
<line x1="70" y1="456.0" x2="812" y2="456.0" stroke="#3b414b" stroke-width="1"/>
<text x="60" y="460.0" font-size="12" text-anchor="end" fill="#8b949e">0.01×</text>
<line x1="70" y1="418.1" x2="812" y2="418.1" stroke="#3b414b" stroke-width="1"/>
<text x="60" y="422.1" font-size="12" text-anchor="end" fill="#8b949e">0.02×</text>
<line x1="70" y1="367.9" x2="812" y2="367.9" stroke="#3b414b" stroke-width="1"/>
<text x="60" y="371.9" font-size="12" text-anchor="end" fill="#8b949e">0.05×</text>
<line x1="70" y1="330.0" x2="812" y2="330.0" stroke="#3b414b" stroke-width="1"/>
<text x="60" y="334.0" font-size="12" text-anchor="end" fill="#8b949e">0.1×</text>
<line x1="70" y1="292.1" x2="812" y2="292.1" stroke="#3b414b" stroke-width="1"/>
<text x="60" y="296.1" font-size="12" text-anchor="end" fill="#8b949e">0.2×</text>
<line x1="70" y1="241.9" x2="812" y2="241.9" stroke="#3b414b" stroke-width="1"/>
<text x="60" y="245.9" font-size="12" text-anchor="end" fill="#8b949e">0.5×</text>
<line x1="70" y1="204.0" x2="812" y2="204.0" stroke="#6e7681" stroke-width="1.4" stroke-dasharray="5 4"/>
<text x="60" y="208.0" font-size="12" text-anchor="end" fill="#aeb6c0" font-weight="700">1×</text>
<line x1="70" y1="166.1" x2="812" y2="166.1" stroke="#3b414b" stroke-width="1"/>
<text x="60" y="170.1" font-size="12" text-anchor="end" fill="#8b949e">2×</text>
<line x1="70" y1="115.9" x2="812" y2="115.9" stroke="#3b414b" stroke-width="1"/>
<text x="60" y="119.9" font-size="12" text-anchor="end" fill="#8b949e">5×</text>
<line x1="70" y1="78.0" x2="812" y2="78.0" stroke="#3b414b" stroke-width="1"/>
<text x="60" y="82.0" font-size="12" text-anchor="end" fill="#8b949e">10×</text>
<text x="812" y="198.0" font-size="11" text-anchor="end" fill="#aeb6c0">Rust baseline</text>
<line x1="99.7" y1="456" x2="99.7" y2="461" stroke="#3b414b"/>
<g transform="translate(99.7,474) rotate(35)">
<text x="0" y="0" font-size="10.5" fill="#8b949e">#1</text>
<text x="0" y="12" font-size="10.5" fill="#8b949e">brute_force</text>
</g>
<line x1="129.4" y1="456" x2="129.4" y2="461" stroke="#3b414b"/>
<g transform="translate(129.4,474) rotate(35)">
<text x="0" y="0" font-size="10.5" fill="#8b949e">#1</text>
<text x="0" y="12" font-size="10.5" fill="#8b949e">hash_map</text>
</g>
<line x1="159.0" y1="456" x2="159.0" y2="461" stroke="#3b414b"/>
<g transform="translate(159.0,474) rotate(35)">
<text x="0" y="0" font-size="10.5" fill="#8b949e">#2</text>
<text x="0" y="12" font-size="10.5" fill="#8b949e">iterative</text>
</g>
<line x1="188.7" y1="456" x2="188.7" y2="461" stroke="#3b414b"/>
<g transform="translate(188.7,474) rotate(35)">
<text x="0" y="0" font-size="10.5" fill="#8b949e">#3</text>
<text x="0" y="12" font-size="10.5" fill="#8b949e">sliding_window</text>
</g>
<line x1="218.4" y1="456" x2="218.4" y2="461" stroke="#3b414b"/>
<g transform="translate(218.4,474) rotate(35)">
<text x="0" y="0" font-size="10.5" fill="#8b949e">#4</text>
<text x="0" y="12" font-size="10.5" fill="#8b949e">binary_search…</text>
</g>
<line x1="248.1" y1="456" x2="248.1" y2="461" stroke="#3b414b"/>
<g transform="translate(248.1,474) rotate(35)">
<text x="0" y="0" font-size="10.5" fill="#8b949e">#5</text>
<text x="0" y="12" font-size="10.5" fill="#8b949e">expand_around…</text>
</g>
<line x1="277.8" y1="456" x2="277.8" y2="461" stroke="#3b414b"/>
<g transform="translate(277.8,474) rotate(35)">
<text x="0" y="0" font-size="10.5" fill="#8b949e">#6</text>
<text x="0" y="12" font-size="10.5" fill="#8b949e">row_buffers</text>
</g>
<line x1="307.4" y1="456" x2="307.4" y2="461" stroke="#3b414b"/>
<g transform="translate(307.4,474) rotate(35)">
<text x="0" y="0" font-size="10.5" fill="#8b949e">#7</text>
<text x="0" y="12" font-size="10.5" fill="#8b949e">reverse</text>
</g>
<line x1="337.1" y1="456" x2="337.1" y2="461" stroke="#3b414b"/>
<g transform="translate(337.1,474) rotate(35)">
<text x="0" y="0" font-size="10.5" fill="#8b949e">#8</text>
<text x="0" y="12" font-size="10.5" fill="#8b949e">atoi</text>
</g>
<line x1="366.8" y1="456" x2="366.8" y2="461" stroke="#3b414b"/>
<g transform="translate(366.8,474) rotate(35)">
<text x="0" y="0" font-size="10.5" fill="#8b949e">#9</text>
<text x="0" y="12" font-size="10.5" fill="#8b949e">palindrome</text>
</g>
<line x1="396.5" y1="456" x2="396.5" y2="461" stroke="#3b414b"/>
<g transform="translate(396.5,474) rotate(35)">
<text x="0" y="0" font-size="10.5" fill="#8b949e">#10</text>
<text x="0" y="12" font-size="10.5" fill="#8b949e">regex</text>
</g>
<line x1="426.2" y1="456" x2="426.2" y2="461" stroke="#3b414b"/>
<g transform="translate(426.2,474) rotate(35)">
<text x="0" y="0" font-size="10.5" fill="#8b949e">#11</text>
<text x="0" y="12" font-size="10.5" fill="#8b949e">container</text>
</g>
<line x1="455.8" y1="456" x2="455.8" y2="461" stroke="#3b414b"/>
<g transform="translate(455.8,474) rotate(35)">
<text x="0" y="0" font-size="10.5" fill="#8b949e">#12</text>
<text x="0" y="12" font-size="10.5" fill="#8b949e">greedy</text>
</g>
<line x1="485.5" y1="456" x2="485.5" y2="461" stroke="#3b414b"/>
<g transform="translate(485.5,474) rotate(35)">
<text x="0" y="0" font-size="10.5" fill="#8b949e">#13</text>
<text x="0" y="12" font-size="10.5" fill="#8b949e">greedy</text>
</g>
<line x1="515.2" y1="456" x2="515.2" y2="461" stroke="#3b414b"/>
<g transform="translate(515.2,474) rotate(35)">
<text x="0" y="0" font-size="10.5" fill="#8b949e">#14</text>
<text x="0" y="12" font-size="10.5" fill="#8b949e">vertical</text>
</g>
<line x1="544.9" y1="456" x2="544.9" y2="461" stroke="#3b414b"/>
<g transform="translate(544.9,474) rotate(35)">
<text x="0" y="0" font-size="10.5" fill="#8b949e">#15</text>
<text x="0" y="12" font-size="10.5" fill="#8b949e">three_sum</text>
</g>
<line x1="574.6" y1="456" x2="574.6" y2="461" stroke="#3b414b"/>
<g transform="translate(574.6,474) rotate(35)">
<text x="0" y="0" font-size="10.5" fill="#8b949e">#16</text>
<text x="0" y="12" font-size="10.5" fill="#8b949e">three_sum_clo…</text>
</g>
<line x1="604.2" y1="456" x2="604.2" y2="461" stroke="#3b414b"/>
<g transform="translate(604.2,474) rotate(35)">
<text x="0" y="0" font-size="10.5" fill="#8b949e">#17</text>
<text x="0" y="12" font-size="10.5" fill="#8b949e">letter_combin…</text>
</g>
<line x1="633.9" y1="456" x2="633.9" y2="461" stroke="#3b414b"/>
<g transform="translate(633.9,474) rotate(35)">
<text x="0" y="0" font-size="10.5" fill="#8b949e">#18</text>
<text x="0" y="12" font-size="10.5" fill="#8b949e">four_sum</text>
</g>
<line x1="663.6" y1="456" x2="663.6" y2="461" stroke="#3b414b"/>
<g transform="translate(663.6,474) rotate(35)">
<text x="0" y="0" font-size="10.5" fill="#8b949e">#19</text>
<text x="0" y="12" font-size="10.5" fill="#8b949e">remove_nth</text>
</g>
<line x1="693.3" y1="456" x2="693.3" y2="461" stroke="#3b414b"/>
<g transform="translate(693.3,474) rotate(35)">
<text x="0" y="0" font-size="10.5" fill="#8b949e">#20</text>
<text x="0" y="12" font-size="10.5" fill="#8b949e">valid_parenth…</text>
</g>
<line x1="723.0" y1="456" x2="723.0" y2="461" stroke="#3b414b"/>
<g transform="translate(723.0,474) rotate(35)">
<text x="0" y="0" font-size="10.5" fill="#8b949e">#21</text>
<text x="0" y="12" font-size="10.5" fill="#8b949e">iterative</text>
</g>
<line x1="752.6" y1="456" x2="752.6" y2="461" stroke="#3b414b"/>
<g transform="translate(752.6,474) rotate(35)">
<text x="0" y="0" font-size="10.5" fill="#8b949e">#56</text>
<text x="0" y="12" font-size="10.5" fill="#8b949e">merge_interva…</text>
</g>
<line x1="782.3" y1="456" x2="782.3" y2="461" stroke="#3b414b"/>
<g transform="translate(782.3,474) rotate(35)">
<text x="0" y="0" font-size="10.5" fill="#8b949e">#204</text>
<text x="0" y="12" font-size="10.5" fill="#8b949e">count</text>
</g>
<circle cx="99.7" cy="347.9" r="4.0" fill="#3fb950" opacity="0.95"/>
<circle cx="129.4" cy="347.9" r="4.0" fill="#3fb950" opacity="0.95"/>
<circle cx="159.0" cy="347.9" r="4.0" fill="#3fb950" opacity="0.95"/>
<circle cx="188.7" cy="348.2" r="4.0" fill="#3fb950" opacity="0.95"/>
<circle cx="218.4" cy="348.1" r="4.0" fill="#3fb950" opacity="0.95"/>
<circle cx="248.1" cy="348.0" r="4.0" fill="#3fb950" opacity="0.95"/>
<circle cx="277.8" cy="347.6" r="4.0" fill="#3fb950" opacity="0.95"/>
<circle cx="307.4" cy="348.1" r="4.0" fill="#3fb950" opacity="0.95"/>
<circle cx="337.1" cy="348.1" r="4.0" fill="#3fb950" opacity="0.95"/>
<circle cx="366.8" cy="348.1" r="4.0" fill="#3fb950" opacity="0.95"/>
<circle cx="396.5" cy="348.1" r="4.0" fill="#3fb950" opacity="0.95"/>
<circle cx="426.2" cy="348.1" r="4.0" fill="#3fb950" opacity="0.95"/>
<circle cx="455.8" cy="348.0" r="4.0" fill="#3fb950" opacity="0.95"/>
<circle cx="485.5" cy="348.0" r="4.0" fill="#3fb950" opacity="0.95"/>
<circle cx="515.2" cy="348.0" r="4.0" fill="#3fb950" opacity="0.95"/>
<circle cx="544.9" cy="349.9" r="4.0" fill="#3fb950" opacity="0.95"/>
<circle cx="574.6" cy="348.0" r="4.0" fill="#3fb950" opacity="0.95"/>
<circle cx="604.2" cy="347.7" r="4.0" fill="#3fb950" opacity="0.95"/>
<circle cx="633.9" cy="349.9" r="4.0" fill="#3fb950" opacity="0.95"/>
<circle cx="663.6" cy="348.2" r="4.0" fill="#3fb950" opacity="0.95"/>
<circle cx="693.3" cy="348.0" r="4.0" fill="#3fb950" opacity="0.95"/>
<circle cx="723.0" cy="348.1" r="4.0" fill="#3fb950" opacity="0.95"/>
<circle cx="752.6" cy="350.0" r="4.0" fill="#3fb950" opacity="0.95"/>
<circle cx="782.3" cy="348.0" r="4.0" fill="#3fb950" opacity="0.95"/>
<circle cx="103.5" cy="112.3" r="4.0" fill="#bc8cff" opacity="0.95"/>
<circle cx="133.2" cy="112.5" r="4.0" fill="#bc8cff" opacity="0.95"/>
<circle cx="162.9" cy="112.4" r="4.0" fill="#bc8cff" opacity="0.95"/>
<circle cx="192.6" cy="112.5" r="4.0" fill="#bc8cff" opacity="0.95"/>
<circle cx="222.2" cy="112.3" r="4.0" fill="#bc8cff" opacity="0.95"/>
<circle cx="251.9" cy="112.3" r="4.0" fill="#bc8cff" opacity="0.95"/>
<circle cx="281.6" cy="112.3" r="4.0" fill="#bc8cff" opacity="0.95"/>
<circle cx="311.3" cy="112.3" r="4.0" fill="#bc8cff" opacity="0.95"/>
<circle cx="341.0" cy="112.3" r="4.0" fill="#bc8cff" opacity="0.95"/>
<circle cx="370.6" cy="112.3" r="4.0" fill="#bc8cff" opacity="0.95"/>
<circle cx="400.3" cy="112.3" r="4.0" fill="#bc8cff" opacity="0.95"/>
<circle cx="430.0" cy="112.3" r="4.0" fill="#bc8cff" opacity="0.95"/>
<circle cx="459.7" cy="112.3" r="4.0" fill="#bc8cff" opacity="0.95"/>
<circle cx="489.4" cy="112.3" r="4.0" fill="#bc8cff" opacity="0.95"/>
<circle cx="519.0" cy="112.3" r="4.0" fill="#bc8cff" opacity="0.95"/>
<circle cx="548.7" cy="113.9" r="4.0" fill="#bc8cff" opacity="0.95"/>
<circle cx="578.4" cy="111.9" r="4.0" fill="#bc8cff" opacity="0.95"/>
<circle cx="608.1" cy="112.3" r="4.0" fill="#bc8cff" opacity="0.95"/>
<circle cx="637.8" cy="113.9" r="4.0" fill="#bc8cff" opacity="0.95"/>
<circle cx="667.4" cy="112.4" r="4.0" fill="#bc8cff" opacity="0.95"/>
<circle cx="697.1" cy="112.3" r="4.0" fill="#bc8cff" opacity="0.95"/>
<circle cx="726.8" cy="112.4" r="4.0" fill="#bc8cff" opacity="0.95"/>
<circle cx="756.5" cy="113.9" r="4.0" fill="#bc8cff" opacity="0.95"/>
<circle cx="786.2" cy="112.3" r="4.0" fill="#bc8cff" opacity="0.95"/>
<circle cx="95.8" cy="348.0" r="5.0" fill="#ff922b" opacity="1.0"/>
<circle cx="125.5" cy="231.1" r="5.0" fill="#ff922b" opacity="1.0"/>
<circle cx="155.2" cy="348.0" r="5.0" fill="#ff922b" opacity="1.0"/>
<circle cx="184.9" cy="231.1" r="5.0" fill="#ff922b" opacity="1.0"/>
<circle cx="214.6" cy="347.7" r="5.0" fill="#ff922b" opacity="1.0"/>
<circle cx="244.2" cy="347.7" r="5.0" fill="#ff922b" opacity="1.0"/>
<circle cx="273.9" cy="347.6" r="5.0" fill="#ff922b" opacity="1.0"/>
<circle cx="303.6" cy="347.9" r="5.0" fill="#ff922b" opacity="1.0"/>
<circle cx="333.3" cy="347.9" r="5.0" fill="#ff922b" opacity="1.0"/>
<circle cx="363.0" cy="347.9" r="5.0" fill="#ff922b" opacity="1.0"/>
<circle cx="392.6" cy="347.8" r="5.0" fill="#ff922b" opacity="1.0"/>
<circle cx="422.3" cy="347.9" r="5.0" fill="#ff922b" opacity="1.0"/>
<circle cx="452.0" cy="347.9" r="5.0" fill="#ff922b" opacity="1.0"/>
<circle cx="481.7" cy="347.9" r="5.0" fill="#ff922b" opacity="1.0"/>
<circle cx="511.4" cy="347.7" r="5.0" fill="#ff922b" opacity="1.0"/>
<circle cx="541.0" cy="229.9" r="5.0" fill="#ff922b" opacity="1.0"/>
<circle cx="570.7" cy="227.9" r="5.0" fill="#ff922b" opacity="1.0"/>
<circle cx="600.4" cy="347.5" r="5.0" fill="#ff922b" opacity="1.0"/>
<circle cx="630.1" cy="229.9" r="5.0" fill="#ff922b" opacity="1.0"/>
<circle cx="659.8" cy="348.0" r="5.0" fill="#ff922b" opacity="1.0"/>
<circle cx="689.4" cy="347.9" r="5.0" fill="#ff922b" opacity="1.0"/>
<circle cx="719.1" cy="348.0" r="5.0" fill="#ff922b" opacity="1.0"/>
<circle cx="748.8" cy="229.9" r="5.0" fill="#ff922b" opacity="1.0"/>
<circle cx="778.5" cy="347.9" r="5.0" fill="#ff922b" opacity="1.0"/>
<circle cx="847" cy="84" r="5" fill="#ff922b"/>
<text x="866" y="88" font-size="13" fill="#c9d1d9" font-weight="700">Kāra</text>
<line x1="836" y1="108" x2="858" y2="108" stroke="#6e7681" stroke-width="1.6" stroke-dasharray="5 4"/>
<text x="866" y="112" font-size="13" fill="#c9d1d9" font-weight="400">Rust</text>
<circle cx="847" cy="132" r="4" fill="#3fb950"/>
<text x="866" y="136" font-size="13" fill="#c9d1d9" font-weight="400">C</text>
<circle cx="847" cy="156" r="4" fill="#bc8cff"/>
<text x="866" y="160" font-size="13" fill="#c9d1d9" font-weight="400">Go</text>
<text x="70" y="538" font-size="11.5" fill="#8b949e">Each dot is one benchmarked program (kata × approach); there is no connecting line because left-to-right order is not meaningful. Raw numbers: bench-results.json</text>
</svg>