<svg xmlns="http://www.w3.org/2000/svg" width="980" height="560" viewBox="0 0 980 560" font-family="-apple-system,Segoe UI,Helvetica,Arial,sans-serif">
<rect width="980" height="560" fill="#282c34"/>
<text x="70" y="34" font-size="21" font-weight="700" fill="#c9d1d9">Binary size — sequential lane</text>
<text x="70" y="56" font-size="13" fill="#8b949e">relative to Rust = 1.0 · lower = smaller · 48 programs · log scale</text>
<line x1="70" y1="456.0" x2="812" y2="456.0" stroke="#3b414b" stroke-width="1"/>
<text x="60" y="460.0" font-size="12" text-anchor="end" fill="#8b949e">0.01×</text>
<line x1="70" y1="418.1" x2="812" y2="418.1" stroke="#3b414b" stroke-width="1"/>
<text x="60" y="422.1" font-size="12" text-anchor="end" fill="#8b949e">0.02×</text>
<line x1="70" y1="367.9" x2="812" y2="367.9" stroke="#3b414b" stroke-width="1"/>
<text x="60" y="371.9" font-size="12" text-anchor="end" fill="#8b949e">0.05×</text>
<line x1="70" y1="330.0" x2="812" y2="330.0" stroke="#3b414b" stroke-width="1"/>
<text x="60" y="334.0" font-size="12" text-anchor="end" fill="#8b949e">0.1×</text>
<line x1="70" y1="292.1" x2="812" y2="292.1" stroke="#3b414b" stroke-width="1"/>
<text x="60" y="296.1" font-size="12" text-anchor="end" fill="#8b949e">0.2×</text>
<line x1="70" y1="241.9" x2="812" y2="241.9" stroke="#3b414b" stroke-width="1"/>
<text x="60" y="245.9" font-size="12" text-anchor="end" fill="#8b949e">0.5×</text>
<line x1="70" y1="204.0" x2="812" y2="204.0" stroke="#a7b0bc" stroke-width="2" stroke-dasharray="5 4"/>
<text x="60" y="208.0" font-size="12" text-anchor="end" fill="#aeb6c0" font-weight="700">1×</text>
<line x1="70" y1="166.1" x2="812" y2="166.1" stroke="#3b414b" stroke-width="1"/>
<text x="60" y="170.1" font-size="12" text-anchor="end" fill="#8b949e">2×</text>
<line x1="70" y1="115.9" x2="812" y2="115.9" stroke="#3b414b" stroke-width="1"/>
<text x="60" y="119.9" font-size="12" text-anchor="end" fill="#8b949e">5×</text>
<line x1="70" y1="78.0" x2="812" y2="78.0" stroke="#3b414b" stroke-width="1"/>
<text x="60" y="82.0" font-size="12" text-anchor="end" fill="#8b949e">10×</text>
<text x="812" y="198.0" font-size="11" text-anchor="end" fill="#aeb6c0">Rust baseline</text>
<line x1="70" y1="456" x2="812" y2="456" stroke="#3b414b"/>
<text x="441.0" y="478" font-size="11" text-anchor="middle" fill="#8b949e">48 programs (kata × approach) — x-order carries no meaning</text>
<circle cx="99.7" cy="347.9" r="2.6" fill="#3fb950" opacity="0.7"/>
<circle cx="114.2" cy="347.9" r="2.6" fill="#3fb950" opacity="0.7"/>
<circle cx="128.7" cy="347.9" r="2.6" fill="#3fb950" opacity="0.7"/>
<circle cx="143.3" cy="348.2" r="2.6" fill="#3fb950" opacity="0.7"/>
<circle cx="157.8" cy="348.1" r="2.6" fill="#3fb950" opacity="0.7"/>
<circle cx="172.3" cy="348.0" r="2.6" fill="#3fb950" opacity="0.7"/>
<circle cx="186.8" cy="347.6" r="2.6" fill="#3fb950" opacity="0.7"/>
<circle cx="201.3" cy="348.1" r="2.6" fill="#3fb950" opacity="0.7"/>
<circle cx="215.9" cy="348.1" r="2.6" fill="#3fb950" opacity="0.7"/>
<circle cx="230.4" cy="348.1" r="2.6" fill="#3fb950" opacity="0.7"/>
<circle cx="244.9" cy="348.1" r="2.6" fill="#3fb950" opacity="0.7"/>
<circle cx="259.4" cy="348.1" r="2.6" fill="#3fb950" opacity="0.7"/>
<circle cx="274.0" cy="348.0" r="2.6" fill="#3fb950" opacity="0.7"/>
<circle cx="288.5" cy="348.0" r="2.6" fill="#3fb950" opacity="0.7"/>
<circle cx="303.0" cy="348.0" r="2.6" fill="#3fb950" opacity="0.7"/>
<circle cx="317.5" cy="349.9" r="2.6" fill="#3fb950" opacity="0.7"/>
<circle cx="332.1" cy="348.0" r="2.6" fill="#3fb950" opacity="0.7"/>
<circle cx="346.6" cy="347.7" r="2.6" fill="#3fb950" opacity="0.7"/>
<circle cx="361.1" cy="349.9" r="2.6" fill="#3fb950" opacity="0.7"/>
<circle cx="375.6" cy="348.2" r="2.6" fill="#3fb950" opacity="0.7"/>
<circle cx="390.2" cy="348.0" r="2.6" fill="#3fb950" opacity="0.7"/>
<circle cx="404.7" cy="348.1" r="2.6" fill="#3fb950" opacity="0.7"/>
<circle cx="419.2" cy="347.9" r="2.6" fill="#3fb950" opacity="0.7"/>
<circle cx="433.7" cy="348.1" r="2.6" fill="#3fb950" opacity="0.7"/>
<circle cx="448.3" cy="348.2" r="2.6" fill="#3fb950" opacity="0.7"/>
<circle cx="462.8" cy="348.2" r="2.6" fill="#3fb950" opacity="0.7"/>
<circle cx="477.3" cy="348.0" r="2.6" fill="#3fb950" opacity="0.7"/>
<circle cx="491.8" cy="348.0" r="2.6" fill="#3fb950" opacity="0.7"/>
<circle cx="506.4" cy="348.0" r="2.6" fill="#3fb950" opacity="0.7"/>
<circle cx="520.9" cy="348.0" r="2.6" fill="#3fb950" opacity="0.7"/>
<circle cx="535.4" cy="348.2" r="2.6" fill="#3fb950" opacity="0.7"/>
<circle cx="549.9" cy="349.9" r="2.6" fill="#3fb950" opacity="0.7"/>
<circle cx="564.5" cy="350.0" r="2.6" fill="#3fb950" opacity="0.7"/>
<circle cx="579.0" cy="348.1" r="2.6" fill="#3fb950" opacity="0.7"/>
<circle cx="593.5" cy="348.0" r="2.6" fill="#3fb950" opacity="0.7"/>
<circle cx="608.0" cy="348.0" r="2.6" fill="#3fb950" opacity="0.7"/>
<circle cx="622.6" cy="348.2" r="2.6" fill="#3fb950" opacity="0.7"/>
<circle cx="637.1" cy="348.1" r="2.6" fill="#3fb950" opacity="0.7"/>
<circle cx="651.6" cy="350.0" r="2.6" fill="#3fb950" opacity="0.7"/>
<circle cx="666.1" cy="347.9" r="2.6" fill="#3fb950" opacity="0.7"/>
<circle cx="680.7" cy="347.9" r="2.6" fill="#3fb950" opacity="0.7"/>
<circle cx="695.2" cy="348.0" r="2.6" fill="#3fb950" opacity="0.7"/>
<circle cx="709.7" cy="348.3" r="2.6" fill="#3fb950" opacity="0.7"/>
<circle cx="724.2" cy="348.3" r="2.6" fill="#3fb950" opacity="0.7"/>
<circle cx="738.7" cy="347.9" r="2.6" fill="#3fb950" opacity="0.7"/>
<circle cx="753.3" cy="347.8" r="2.6" fill="#3fb950" opacity="0.7"/>
<circle cx="767.8" cy="349.8" r="2.6" fill="#3fb950" opacity="0.7"/>
<circle cx="782.3" cy="349.5" r="2.6" fill="#3fb950" opacity="0.7"/>
<circle cx="102.3" cy="112.3" r="2.6" fill="#bc8cff" opacity="0.7"/>
<circle cx="116.8" cy="112.5" r="2.6" fill="#bc8cff" opacity="0.7"/>
<circle cx="131.4" cy="112.4" r="2.6" fill="#bc8cff" opacity="0.7"/>
<circle cx="145.9" cy="112.5" r="2.6" fill="#bc8cff" opacity="0.7"/>
<circle cx="160.4" cy="112.3" r="2.6" fill="#bc8cff" opacity="0.7"/>
<circle cx="174.9" cy="112.3" r="2.6" fill="#bc8cff" opacity="0.7"/>
<circle cx="189.5" cy="112.3" r="2.6" fill="#bc8cff" opacity="0.7"/>
<circle cx="204.0" cy="112.3" r="2.6" fill="#bc8cff" opacity="0.7"/>
<circle cx="218.5" cy="112.3" r="2.6" fill="#bc8cff" opacity="0.7"/>
<circle cx="233.0" cy="112.3" r="2.6" fill="#bc8cff" opacity="0.7"/>
<circle cx="247.6" cy="112.3" r="2.6" fill="#bc8cff" opacity="0.7"/>
<circle cx="262.1" cy="112.3" r="2.6" fill="#bc8cff" opacity="0.7"/>
<circle cx="276.6" cy="112.3" r="2.6" fill="#bc8cff" opacity="0.7"/>
<circle cx="291.1" cy="112.3" r="2.6" fill="#bc8cff" opacity="0.7"/>
<circle cx="305.7" cy="112.3" r="2.6" fill="#bc8cff" opacity="0.7"/>
<circle cx="320.2" cy="113.9" r="2.6" fill="#bc8cff" opacity="0.7"/>
<circle cx="334.7" cy="111.9" r="2.6" fill="#bc8cff" opacity="0.7"/>
<circle cx="349.2" cy="112.3" r="2.6" fill="#bc8cff" opacity="0.7"/>
<circle cx="363.7" cy="113.9" r="2.6" fill="#bc8cff" opacity="0.7"/>
<circle cx="378.3" cy="112.4" r="2.6" fill="#bc8cff" opacity="0.7"/>
<circle cx="392.8" cy="112.3" r="2.6" fill="#bc8cff" opacity="0.7"/>
<circle cx="407.3" cy="112.4" r="2.6" fill="#bc8cff" opacity="0.7"/>
<circle cx="421.8" cy="112.4" r="2.6" fill="#bc8cff" opacity="0.7"/>
<circle cx="436.4" cy="112.4" r="2.6" fill="#bc8cff" opacity="0.7"/>
<circle cx="450.9" cy="112.4" r="2.6" fill="#bc8cff" opacity="0.7"/>
<circle cx="465.4" cy="112.4" r="2.6" fill="#bc8cff" opacity="0.7"/>
<circle cx="479.9" cy="112.3" r="2.6" fill="#bc8cff" opacity="0.7"/>
<circle cx="494.5" cy="112.3" r="2.6" fill="#bc8cff" opacity="0.7"/>
<circle cx="509.0" cy="112.3" r="2.6" fill="#bc8cff" opacity="0.7"/>
<circle cx="523.5" cy="112.3" r="2.6" fill="#bc8cff" opacity="0.7"/>
<circle cx="538.0" cy="112.3" r="2.6" fill="#bc8cff" opacity="0.7"/>
<circle cx="552.6" cy="114.4" r="2.6" fill="#bc8cff" opacity="0.7"/>
<circle cx="567.1" cy="113.9" r="2.6" fill="#bc8cff" opacity="0.7"/>
<circle cx="581.6" cy="112.3" r="2.6" fill="#bc8cff" opacity="0.7"/>
<circle cx="596.1" cy="112.3" r="2.6" fill="#bc8cff" opacity="0.7"/>
<circle cx="610.7" cy="112.3" r="2.6" fill="#bc8cff" opacity="0.7"/>
<circle cx="625.2" cy="112.3" r="2.6" fill="#bc8cff" opacity="0.7"/>
<circle cx="639.7" cy="112.3" r="2.6" fill="#bc8cff" opacity="0.7"/>
<circle cx="654.2" cy="114.7" r="2.6" fill="#bc8cff" opacity="0.7"/>
<circle cx="668.8" cy="112.3" r="2.6" fill="#bc8cff" opacity="0.7"/>
<circle cx="683.3" cy="112.3" r="2.6" fill="#bc8cff" opacity="0.7"/>
<circle cx="697.8" cy="112.3" r="2.6" fill="#bc8cff" opacity="0.7"/>
<circle cx="712.3" cy="112.5" r="2.6" fill="#bc8cff" opacity="0.7"/>
<circle cx="726.9" cy="112.5" r="2.6" fill="#bc8cff" opacity="0.7"/>
<circle cx="741.4" cy="112.3" r="2.6" fill="#bc8cff" opacity="0.7"/>
<circle cx="755.9" cy="112.3" r="2.6" fill="#bc8cff" opacity="0.7"/>
<circle cx="770.4" cy="113.8" r="2.6" fill="#bc8cff" opacity="0.7"/>
<circle cx="785.0" cy="114.5" r="2.6" fill="#bc8cff" opacity="0.7"/>
<circle cx="97.0" cy="347.9" r="3.2" fill="#ff922b" opacity="0.85"/>
<circle cx="111.6" cy="231.1" r="3.2" fill="#ff922b" opacity="0.85"/>
<circle cx="126.1" cy="347.9" r="3.2" fill="#ff922b" opacity="0.85"/>
<circle cx="140.6" cy="231.1" r="3.2" fill="#ff922b" opacity="0.85"/>
<circle cx="155.1" cy="347.7" r="3.2" fill="#ff922b" opacity="0.85"/>
<circle cx="169.7" cy="347.7" r="3.2" fill="#ff922b" opacity="0.85"/>
<circle cx="184.2" cy="347.6" r="3.2" fill="#ff922b" opacity="0.85"/>
<circle cx="198.7" cy="347.9" r="3.2" fill="#ff922b" opacity="0.85"/>
<circle cx="213.2" cy="347.9" r="3.2" fill="#ff922b" opacity="0.85"/>
<circle cx="227.8" cy="347.9" r="3.2" fill="#ff922b" opacity="0.85"/>
<circle cx="242.3" cy="347.8" r="3.2" fill="#ff922b" opacity="0.85"/>
<circle cx="256.8" cy="347.9" r="3.2" fill="#ff922b" opacity="0.85"/>
<circle cx="271.3" cy="347.9" r="3.2" fill="#ff922b" opacity="0.85"/>
<circle cx="285.9" cy="347.9" r="3.2" fill="#ff922b" opacity="0.85"/>
<circle cx="300.4" cy="347.7" r="3.2" fill="#ff922b" opacity="0.85"/>
<circle cx="314.9" cy="229.9" r="3.2" fill="#ff922b" opacity="0.85"/>
<circle cx="329.4" cy="227.9" r="3.2" fill="#ff922b" opacity="0.85"/>
<circle cx="344.0" cy="347.5" r="3.2" fill="#ff922b" opacity="0.85"/>
<circle cx="358.5" cy="229.9" r="3.2" fill="#ff922b" opacity="0.85"/>
<circle cx="373.0" cy="348.0" r="3.2" fill="#ff922b" opacity="0.85"/>
<circle cx="387.5" cy="347.9" r="3.2" fill="#ff922b" opacity="0.85"/>
<circle cx="402.1" cy="348.0" r="3.2" fill="#ff922b" opacity="0.85"/>
<circle cx="416.6" cy="347.9" r="3.2" fill="#ff922b" opacity="0.85"/>
<circle cx="431.1" cy="347.9" r="3.2" fill="#ff922b" opacity="0.85"/>
<circle cx="445.6" cy="347.8" r="3.2" fill="#ff922b" opacity="0.85"/>
<circle cx="460.2" cy="347.8" r="3.2" fill="#ff922b" opacity="0.85"/>
<circle cx="474.7" cy="347.7" r="3.2" fill="#ff922b" opacity="0.85"/>
<circle cx="489.2" cy="347.7" r="3.2" fill="#ff922b" opacity="0.85"/>
<circle cx="503.7" cy="347.8" r="3.2" fill="#ff922b" opacity="0.85"/>
<circle cx="518.3" cy="347.7" r="3.2" fill="#ff922b" opacity="0.85"/>
<circle cx="532.8" cy="348.0" r="3.2" fill="#ff922b" opacity="0.85"/>
<circle cx="547.3" cy="229.8" r="3.2" fill="#ff922b" opacity="0.85"/>
<circle cx="561.8" cy="229.9" r="3.2" fill="#ff922b" opacity="0.85"/>
<circle cx="576.3" cy="347.9" r="3.2" fill="#ff922b" opacity="0.85"/>
<circle cx="590.9" cy="347.5" r="3.2" fill="#ff922b" opacity="0.85"/>
<circle cx="605.4" cy="347.8" r="3.2" fill="#ff922b" opacity="0.85"/>
<circle cx="619.9" cy="347.9" r="3.2" fill="#ff922b" opacity="0.85"/>
<circle cx="634.4" cy="347.9" r="3.2" fill="#ff922b" opacity="0.85"/>
<circle cx="649.0" cy="233.2" r="3.2" fill="#ff922b" opacity="0.85"/>
<circle cx="663.5" cy="347.7" r="3.2" fill="#ff922b" opacity="0.85"/>
<circle cx="678.0" cy="347.9" r="3.2" fill="#ff922b" opacity="0.85"/>
<circle cx="692.5" cy="347.9" r="3.2" fill="#ff922b" opacity="0.85"/>
<circle cx="707.1" cy="348.0" r="3.2" fill="#ff922b" opacity="0.85"/>
<circle cx="721.6" cy="348.0" r="3.2" fill="#ff922b" opacity="0.85"/>
<circle cx="736.1" cy="227.8" r="3.2" fill="#ff922b" opacity="0.85"/>
<circle cx="750.6" cy="347.5" r="3.2" fill="#ff922b" opacity="0.85"/>
<circle cx="765.2" cy="229.8" r="3.2" fill="#ff922b" opacity="0.85"/>
<circle cx="779.7" cy="233.1" r="3.2" fill="#ff922b" opacity="0.85"/>
<circle cx="847" cy="84" r="5" fill="#ff922b"/>
<text x="866" y="88" font-size="13" fill="#c9d1d9" font-weight="700">Kāra</text>
<line x1="836" y1="108" x2="858" y2="108" stroke="#a7b0bc" stroke-width="2" stroke-dasharray="5 4"/>
<text x="866" y="112" font-size="13" fill="#c9d1d9" font-weight="400">Rust = 1.0×</text>
<circle cx="847" cy="132" r="4" fill="#3fb950"/>
<text x="866" y="136" font-size="13" fill="#c9d1d9" font-weight="400">C</text>
<circle cx="847" cy="156" r="4" fill="#bc8cff"/>
<text x="866" y="160" font-size="13" fill="#c9d1d9" font-weight="400">Go</text>
<text x="70" y="538" font-size="11.5" fill="#8b949e">Each dot is one benchmarked program (kata × approach); there is no connecting line because left-to-right order is not meaningful. Raw numbers: bench-results.json</text>
</svg>