<svg xmlns="http://www.w3.org/2000/svg" width="980" height="560" viewBox="0 0 980 560" font-family="-apple-system,Segoe UI,Helvetica,Arial,sans-serif">
<rect width="980" height="560" fill="#282c34"/>
<text x="70" y="34" font-size="21" font-weight="700" fill="#c9d1d9">Binary size — sequential lane</text>
<text x="70" y="56" font-size="13" fill="#8b949e">relative to Rust = 1.0 · lower = smaller · 39 programs · log scale</text>
<line x1="70" y1="456.0" x2="812" y2="456.0" stroke="#3b414b" stroke-width="1"/>
<text x="60" y="460.0" font-size="12" text-anchor="end" fill="#8b949e">0.01×</text>
<line x1="70" y1="418.1" x2="812" y2="418.1" stroke="#3b414b" stroke-width="1"/>
<text x="60" y="422.1" font-size="12" text-anchor="end" fill="#8b949e">0.02×</text>
<line x1="70" y1="367.9" x2="812" y2="367.9" stroke="#3b414b" stroke-width="1"/>
<text x="60" y="371.9" font-size="12" text-anchor="end" fill="#8b949e">0.05×</text>
<line x1="70" y1="330.0" x2="812" y2="330.0" stroke="#3b414b" stroke-width="1"/>
<text x="60" y="334.0" font-size="12" text-anchor="end" fill="#8b949e">0.1×</text>
<line x1="70" y1="292.1" x2="812" y2="292.1" stroke="#3b414b" stroke-width="1"/>
<text x="60" y="296.1" font-size="12" text-anchor="end" fill="#8b949e">0.2×</text>
<line x1="70" y1="241.9" x2="812" y2="241.9" stroke="#3b414b" stroke-width="1"/>
<text x="60" y="245.9" font-size="12" text-anchor="end" fill="#8b949e">0.5×</text>
<line x1="70" y1="204.0" x2="812" y2="204.0" stroke="#a7b0bc" stroke-width="2" stroke-dasharray="5 4"/>
<text x="60" y="208.0" font-size="12" text-anchor="end" fill="#aeb6c0" font-weight="700">1×</text>
<line x1="70" y1="166.1" x2="812" y2="166.1" stroke="#3b414b" stroke-width="1"/>
<text x="60" y="170.1" font-size="12" text-anchor="end" fill="#8b949e">2×</text>
<line x1="70" y1="115.9" x2="812" y2="115.9" stroke="#3b414b" stroke-width="1"/>
<text x="60" y="119.9" font-size="12" text-anchor="end" fill="#8b949e">5×</text>
<line x1="70" y1="78.0" x2="812" y2="78.0" stroke="#3b414b" stroke-width="1"/>
<text x="60" y="82.0" font-size="12" text-anchor="end" fill="#8b949e">10×</text>
<text x="812" y="198.0" font-size="11" text-anchor="end" fill="#aeb6c0">Rust baseline</text>
<line x1="70" y1="456" x2="812" y2="456" stroke="#3b414b"/>
<text x="441.0" y="478" font-size="11" text-anchor="middle" fill="#8b949e">39 programs (kata × approach) — x-order carries no meaning</text>
<circle cx="99.7" cy="347.9" r="2.6" fill="#3fb950" opacity="0.7"/>
<circle cx="117.6" cy="347.9" r="2.6" fill="#3fb950" opacity="0.7"/>
<circle cx="135.6" cy="347.9" r="2.6" fill="#3fb950" opacity="0.7"/>
<circle cx="153.6" cy="348.2" r="2.6" fill="#3fb950" opacity="0.7"/>
<circle cx="171.5" cy="348.1" r="2.6" fill="#3fb950" opacity="0.7"/>
<circle cx="189.5" cy="348.0" r="2.6" fill="#3fb950" opacity="0.7"/>
<circle cx="207.5" cy="347.6" r="2.6" fill="#3fb950" opacity="0.7"/>
<circle cx="225.4" cy="348.1" r="2.6" fill="#3fb950" opacity="0.7"/>
<circle cx="243.4" cy="348.1" r="2.6" fill="#3fb950" opacity="0.7"/>
<circle cx="261.4" cy="348.1" r="2.6" fill="#3fb950" opacity="0.7"/>
<circle cx="279.3" cy="348.1" r="2.6" fill="#3fb950" opacity="0.7"/>
<circle cx="297.3" cy="348.1" r="2.6" fill="#3fb950" opacity="0.7"/>
<circle cx="315.3" cy="348.0" r="2.6" fill="#3fb950" opacity="0.7"/>
<circle cx="333.2" cy="348.0" r="2.6" fill="#3fb950" opacity="0.7"/>
<circle cx="351.2" cy="348.0" r="2.6" fill="#3fb950" opacity="0.7"/>
<circle cx="369.1" cy="349.9" r="2.6" fill="#3fb950" opacity="0.7"/>
<circle cx="387.1" cy="348.0" r="2.6" fill="#3fb950" opacity="0.7"/>
<circle cx="405.1" cy="347.7" r="2.6" fill="#3fb950" opacity="0.7"/>
<circle cx="423.0" cy="349.9" r="2.6" fill="#3fb950" opacity="0.7"/>
<circle cx="441.0" cy="348.2" r="2.6" fill="#3fb950" opacity="0.7"/>
<circle cx="459.0" cy="348.0" r="2.6" fill="#3fb950" opacity="0.7"/>
<circle cx="476.9" cy="348.1" r="2.6" fill="#3fb950" opacity="0.7"/>
<circle cx="494.9" cy="347.9" r="2.6" fill="#3fb950" opacity="0.7"/>
<circle cx="512.9" cy="348.1" r="2.6" fill="#3fb950" opacity="0.7"/>
<circle cx="530.8" cy="348.2" r="2.6" fill="#3fb950" opacity="0.7"/>
<circle cx="548.8" cy="350.0" r="2.6" fill="#3fb950" opacity="0.7"/>
<circle cx="566.7" cy="348.1" r="2.6" fill="#3fb950" opacity="0.7"/>
<circle cx="584.7" cy="348.0" r="2.6" fill="#3fb950" opacity="0.7"/>
<circle cx="602.7" cy="348.0" r="2.6" fill="#3fb950" opacity="0.7"/>
<circle cx="620.6" cy="348.2" r="2.6" fill="#3fb950" opacity="0.7"/>
<circle cx="638.6" cy="348.1" r="2.6" fill="#3fb950" opacity="0.7"/>
<circle cx="656.6" cy="350.0" r="2.6" fill="#3fb950" opacity="0.7"/>
<circle cx="674.5" cy="347.9" r="2.6" fill="#3fb950" opacity="0.7"/>
<circle cx="692.5" cy="347.9" r="2.6" fill="#3fb950" opacity="0.7"/>
<circle cx="710.5" cy="348.0" r="2.6" fill="#3fb950" opacity="0.7"/>
<circle cx="728.4" cy="348.3" r="2.6" fill="#3fb950" opacity="0.7"/>
<circle cx="746.4" cy="348.3" r="2.6" fill="#3fb950" opacity="0.7"/>
<circle cx="764.4" cy="349.8" r="2.6" fill="#3fb950" opacity="0.7"/>
<circle cx="782.3" cy="349.5" r="2.6" fill="#3fb950" opacity="0.7"/>
<circle cx="102.3" cy="112.3" r="2.6" fill="#bc8cff" opacity="0.7"/>
<circle cx="120.3" cy="112.5" r="2.6" fill="#bc8cff" opacity="0.7"/>
<circle cx="138.2" cy="112.4" r="2.6" fill="#bc8cff" opacity="0.7"/>
<circle cx="156.2" cy="112.5" r="2.6" fill="#bc8cff" opacity="0.7"/>
<circle cx="174.2" cy="112.3" r="2.6" fill="#bc8cff" opacity="0.7"/>
<circle cx="192.1" cy="112.3" r="2.6" fill="#bc8cff" opacity="0.7"/>
<circle cx="210.1" cy="112.3" r="2.6" fill="#bc8cff" opacity="0.7"/>
<circle cx="228.1" cy="112.3" r="2.6" fill="#bc8cff" opacity="0.7"/>
<circle cx="246.0" cy="112.3" r="2.6" fill="#bc8cff" opacity="0.7"/>
<circle cx="264.0" cy="112.3" r="2.6" fill="#bc8cff" opacity="0.7"/>
<circle cx="282.0" cy="112.3" r="2.6" fill="#bc8cff" opacity="0.7"/>
<circle cx="299.9" cy="112.3" r="2.6" fill="#bc8cff" opacity="0.7"/>
<circle cx="317.9" cy="112.3" r="2.6" fill="#bc8cff" opacity="0.7"/>
<circle cx="335.8" cy="112.3" r="2.6" fill="#bc8cff" opacity="0.7"/>
<circle cx="353.8" cy="112.3" r="2.6" fill="#bc8cff" opacity="0.7"/>
<circle cx="371.8" cy="113.9" r="2.6" fill="#bc8cff" opacity="0.7"/>
<circle cx="389.7" cy="111.9" r="2.6" fill="#bc8cff" opacity="0.7"/>
<circle cx="407.7" cy="112.3" r="2.6" fill="#bc8cff" opacity="0.7"/>
<circle cx="425.7" cy="113.9" r="2.6" fill="#bc8cff" opacity="0.7"/>
<circle cx="443.6" cy="112.4" r="2.6" fill="#bc8cff" opacity="0.7"/>
<circle cx="461.6" cy="112.3" r="2.6" fill="#bc8cff" opacity="0.7"/>
<circle cx="479.6" cy="112.4" r="2.6" fill="#bc8cff" opacity="0.7"/>
<circle cx="497.5" cy="112.4" r="2.6" fill="#bc8cff" opacity="0.7"/>
<circle cx="515.5" cy="112.4" r="2.6" fill="#bc8cff" opacity="0.7"/>
<circle cx="533.5" cy="112.4" r="2.6" fill="#bc8cff" opacity="0.7"/>
<circle cx="551.4" cy="113.9" r="2.6" fill="#bc8cff" opacity="0.7"/>
<circle cx="569.4" cy="112.3" r="2.6" fill="#bc8cff" opacity="0.7"/>
<circle cx="587.3" cy="112.3" r="2.6" fill="#bc8cff" opacity="0.7"/>
<circle cx="605.3" cy="112.3" r="2.6" fill="#bc8cff" opacity="0.7"/>
<circle cx="623.3" cy="112.3" r="2.6" fill="#bc8cff" opacity="0.7"/>
<circle cx="641.2" cy="112.3" r="2.6" fill="#bc8cff" opacity="0.7"/>
<circle cx="659.2" cy="114.7" r="2.6" fill="#bc8cff" opacity="0.7"/>
<circle cx="677.2" cy="112.3" r="2.6" fill="#bc8cff" opacity="0.7"/>
<circle cx="695.1" cy="112.3" r="2.6" fill="#bc8cff" opacity="0.7"/>
<circle cx="713.1" cy="112.3" r="2.6" fill="#bc8cff" opacity="0.7"/>
<circle cx="731.1" cy="112.5" r="2.6" fill="#bc8cff" opacity="0.7"/>
<circle cx="749.0" cy="112.5" r="2.6" fill="#bc8cff" opacity="0.7"/>
<circle cx="767.0" cy="113.8" r="2.6" fill="#bc8cff" opacity="0.7"/>
<circle cx="785.0" cy="114.5" r="2.6" fill="#bc8cff" opacity="0.7"/>
<circle cx="97.0" cy="348.0" r="3.2" fill="#ff922b" opacity="0.85"/>
<circle cx="115.0" cy="231.1" r="3.2" fill="#ff922b" opacity="0.85"/>
<circle cx="133.0" cy="347.9" r="3.2" fill="#ff922b" opacity="0.85"/>
<circle cx="150.9" cy="231.1" r="3.2" fill="#ff922b" opacity="0.85"/>
<circle cx="168.9" cy="347.7" r="3.2" fill="#ff922b" opacity="0.85"/>
<circle cx="186.9" cy="347.7" r="3.2" fill="#ff922b" opacity="0.85"/>
<circle cx="204.8" cy="347.6" r="3.2" fill="#ff922b" opacity="0.85"/>
<circle cx="222.8" cy="347.9" r="3.2" fill="#ff922b" opacity="0.85"/>
<circle cx="240.8" cy="347.9" r="3.2" fill="#ff922b" opacity="0.85"/>
<circle cx="258.7" cy="347.9" r="3.2" fill="#ff922b" opacity="0.85"/>
<circle cx="276.7" cy="347.8" r="3.2" fill="#ff922b" opacity="0.85"/>
<circle cx="294.7" cy="347.9" r="3.2" fill="#ff922b" opacity="0.85"/>
<circle cx="312.6" cy="347.9" r="3.2" fill="#ff922b" opacity="0.85"/>
<circle cx="330.6" cy="347.9" r="3.2" fill="#ff922b" opacity="0.85"/>
<circle cx="348.5" cy="347.7" r="3.2" fill="#ff922b" opacity="0.85"/>
<circle cx="366.5" cy="229.9" r="3.2" fill="#ff922b" opacity="0.85"/>
<circle cx="384.5" cy="227.9" r="3.2" fill="#ff922b" opacity="0.85"/>
<circle cx="402.4" cy="347.5" r="3.2" fill="#ff922b" opacity="0.85"/>
<circle cx="420.4" cy="229.9" r="3.2" fill="#ff922b" opacity="0.85"/>
<circle cx="438.4" cy="348.0" r="3.2" fill="#ff922b" opacity="0.85"/>
<circle cx="456.3" cy="347.9" r="3.2" fill="#ff922b" opacity="0.85"/>
<circle cx="474.3" cy="348.0" r="3.2" fill="#ff922b" opacity="0.85"/>
<circle cx="492.3" cy="347.9" r="3.2" fill="#ff922b" opacity="0.85"/>
<circle cx="510.2" cy="347.9" r="3.2" fill="#ff922b" opacity="0.85"/>
<circle cx="528.2" cy="347.8" r="3.2" fill="#ff922b" opacity="0.85"/>
<circle cx="546.2" cy="229.9" r="3.2" fill="#ff922b" opacity="0.85"/>
<circle cx="564.1" cy="347.9" r="3.2" fill="#ff922b" opacity="0.85"/>
<circle cx="582.1" cy="347.5" r="3.2" fill="#ff922b" opacity="0.85"/>
<circle cx="600.0" cy="347.8" r="3.2" fill="#ff922b" opacity="0.85"/>
<circle cx="618.0" cy="347.9" r="3.2" fill="#ff922b" opacity="0.85"/>
<circle cx="636.0" cy="347.9" r="3.2" fill="#ff922b" opacity="0.85"/>
<circle cx="653.9" cy="233.2" r="3.2" fill="#ff922b" opacity="0.85"/>
<circle cx="671.9" cy="347.7" r="3.2" fill="#ff922b" opacity="0.85"/>
<circle cx="689.9" cy="347.9" r="3.2" fill="#ff922b" opacity="0.85"/>
<circle cx="707.8" cy="347.9" r="3.2" fill="#ff922b" opacity="0.85"/>
<circle cx="725.8" cy="348.0" r="3.2" fill="#ff922b" opacity="0.85"/>
<circle cx="743.8" cy="348.0" r="3.2" fill="#ff922b" opacity="0.85"/>
<circle cx="761.7" cy="229.8" r="3.2" fill="#ff922b" opacity="0.85"/>
<circle cx="779.7" cy="233.1" r="3.2" fill="#ff922b" opacity="0.85"/>
<circle cx="847" cy="84" r="5" fill="#ff922b"/>
<text x="866" y="88" font-size="13" fill="#c9d1d9" font-weight="700">Kāra</text>
<line x1="836" y1="108" x2="858" y2="108" stroke="#a7b0bc" stroke-width="2" stroke-dasharray="5 4"/>
<text x="866" y="112" font-size="13" fill="#c9d1d9" font-weight="400">Rust = 1.0×</text>
<circle cx="847" cy="132" r="4" fill="#3fb950"/>
<text x="866" y="136" font-size="13" fill="#c9d1d9" font-weight="400">C</text>
<circle cx="847" cy="156" r="4" fill="#bc8cff"/>
<text x="866" y="160" font-size="13" fill="#c9d1d9" font-weight="400">Go</text>
<text x="70" y="538" font-size="11.5" fill="#8b949e">Each dot is one benchmarked program (kata × approach); there is no connecting line because left-to-right order is not meaningful. Raw numbers: bench-results.json</text>
</svg>