<svg xmlns="http://www.w3.org/2000/svg" width="980" height="560" viewBox="0 0 980 560" font-family="-apple-system,Segoe UI,Helvetica,Arial,sans-serif">
<rect width="980" height="560" fill="#282c34"/>
<text x="70" y="34" font-size="21" font-weight="700" fill="#c9d1d9">Binary size — sequential lane</text>
<text x="70" y="56" font-size="13" fill="#8b949e">relative to Rust = 1.0 · lower = smaller · 34 programs · log scale</text>
<line x1="70" y1="456.0" x2="812" y2="456.0" stroke="#3b414b" stroke-width="1"/>
<text x="60" y="460.0" font-size="12" text-anchor="end" fill="#8b949e">0.01×</text>
<line x1="70" y1="418.1" x2="812" y2="418.1" stroke="#3b414b" stroke-width="1"/>
<text x="60" y="422.1" font-size="12" text-anchor="end" fill="#8b949e">0.02×</text>
<line x1="70" y1="367.9" x2="812" y2="367.9" stroke="#3b414b" stroke-width="1"/>
<text x="60" y="371.9" font-size="12" text-anchor="end" fill="#8b949e">0.05×</text>
<line x1="70" y1="330.0" x2="812" y2="330.0" stroke="#3b414b" stroke-width="1"/>
<text x="60" y="334.0" font-size="12" text-anchor="end" fill="#8b949e">0.1×</text>
<line x1="70" y1="292.1" x2="812" y2="292.1" stroke="#3b414b" stroke-width="1"/>
<text x="60" y="296.1" font-size="12" text-anchor="end" fill="#8b949e">0.2×</text>
<line x1="70" y1="241.9" x2="812" y2="241.9" stroke="#3b414b" stroke-width="1"/>
<text x="60" y="245.9" font-size="12" text-anchor="end" fill="#8b949e">0.5×</text>
<line x1="70" y1="204.0" x2="812" y2="204.0" stroke="#6e7681" stroke-width="1.4" stroke-dasharray="5 4"/>
<text x="60" y="208.0" font-size="12" text-anchor="end" fill="#aeb6c0" font-weight="700">1×</text>
<line x1="70" y1="166.1" x2="812" y2="166.1" stroke="#3b414b" stroke-width="1"/>
<text x="60" y="170.1" font-size="12" text-anchor="end" fill="#8b949e">2×</text>
<line x1="70" y1="115.9" x2="812" y2="115.9" stroke="#3b414b" stroke-width="1"/>
<text x="60" y="119.9" font-size="12" text-anchor="end" fill="#8b949e">5×</text>
<line x1="70" y1="78.0" x2="812" y2="78.0" stroke="#3b414b" stroke-width="1"/>
<text x="60" y="82.0" font-size="12" text-anchor="end" fill="#8b949e">10×</text>
<text x="812" y="198.0" font-size="11" text-anchor="end" fill="#aeb6c0">Rust baseline</text>
<line x1="70" y1="456" x2="812" y2="456" stroke="#3b414b"/>
<text x="441.0" y="478" font-size="11" text-anchor="middle" fill="#8b949e">34 programs (kata × approach) — x-order carries no meaning</text>
<circle cx="99.7" cy="347.9" r="2.6" fill="#3fb950" opacity="0.7"/>
<circle cx="120.4" cy="347.9" r="2.6" fill="#3fb950" opacity="0.7"/>
<circle cx="141.1" cy="347.9" r="2.6" fill="#3fb950" opacity="0.7"/>
<circle cx="161.7" cy="348.2" r="2.6" fill="#3fb950" opacity="0.7"/>
<circle cx="182.4" cy="348.1" r="2.6" fill="#3fb950" opacity="0.7"/>
<circle cx="203.1" cy="348.0" r="2.6" fill="#3fb950" opacity="0.7"/>
<circle cx="223.8" cy="347.6" r="2.6" fill="#3fb950" opacity="0.7"/>
<circle cx="244.5" cy="348.1" r="2.6" fill="#3fb950" opacity="0.7"/>
<circle cx="265.2" cy="348.1" r="2.6" fill="#3fb950" opacity="0.7"/>
<circle cx="285.9" cy="348.1" r="2.6" fill="#3fb950" opacity="0.7"/>
<circle cx="306.5" cy="348.1" r="2.6" fill="#3fb950" opacity="0.7"/>
<circle cx="327.2" cy="348.1" r="2.6" fill="#3fb950" opacity="0.7"/>
<circle cx="347.9" cy="348.0" r="2.6" fill="#3fb950" opacity="0.7"/>
<circle cx="368.6" cy="348.0" r="2.6" fill="#3fb950" opacity="0.7"/>
<circle cx="389.3" cy="348.0" r="2.6" fill="#3fb950" opacity="0.7"/>
<circle cx="410.0" cy="349.9" r="2.6" fill="#3fb950" opacity="0.7"/>
<circle cx="430.7" cy="348.0" r="2.6" fill="#3fb950" opacity="0.7"/>
<circle cx="451.3" cy="347.7" r="2.6" fill="#3fb950" opacity="0.7"/>
<circle cx="472.0" cy="349.9" r="2.6" fill="#3fb950" opacity="0.7"/>
<circle cx="492.7" cy="348.2" r="2.6" fill="#3fb950" opacity="0.7"/>
<circle cx="513.4" cy="348.0" r="2.6" fill="#3fb950" opacity="0.7"/>
<circle cx="534.1" cy="348.1" r="2.6" fill="#3fb950" opacity="0.7"/>
<circle cx="554.8" cy="350.0" r="2.6" fill="#3fb950" opacity="0.7"/>
<circle cx="575.5" cy="348.1" r="2.6" fill="#3fb950" opacity="0.7"/>
<circle cx="596.1" cy="348.0" r="2.6" fill="#3fb950" opacity="0.7"/>
<circle cx="616.8" cy="348.0" r="2.6" fill="#3fb950" opacity="0.7"/>
<circle cx="637.5" cy="348.2" r="2.6" fill="#3fb950" opacity="0.7"/>
<circle cx="658.2" cy="348.1" r="2.6" fill="#3fb950" opacity="0.7"/>
<circle cx="678.9" cy="350.0" r="2.6" fill="#3fb950" opacity="0.7"/>
<circle cx="699.6" cy="347.9" r="2.6" fill="#3fb950" opacity="0.7"/>
<circle cx="720.3" cy="347.9" r="2.6" fill="#3fb950" opacity="0.7"/>
<circle cx="740.9" cy="348.0" r="2.6" fill="#3fb950" opacity="0.7"/>
<circle cx="761.6" cy="348.3" r="2.6" fill="#3fb950" opacity="0.7"/>
<circle cx="782.3" cy="348.3" r="2.6" fill="#3fb950" opacity="0.7"/>
<circle cx="102.3" cy="112.3" r="2.6" fill="#bc8cff" opacity="0.7"/>
<circle cx="123.0" cy="112.5" r="2.6" fill="#bc8cff" opacity="0.7"/>
<circle cx="143.7" cy="112.4" r="2.6" fill="#bc8cff" opacity="0.7"/>
<circle cx="164.4" cy="112.5" r="2.6" fill="#bc8cff" opacity="0.7"/>
<circle cx="185.1" cy="112.3" r="2.6" fill="#bc8cff" opacity="0.7"/>
<circle cx="205.7" cy="112.3" r="2.6" fill="#bc8cff" opacity="0.7"/>
<circle cx="226.4" cy="112.3" r="2.6" fill="#bc8cff" opacity="0.7"/>
<circle cx="247.1" cy="112.3" r="2.6" fill="#bc8cff" opacity="0.7"/>
<circle cx="267.8" cy="112.3" r="2.6" fill="#bc8cff" opacity="0.7"/>
<circle cx="288.5" cy="112.3" r="2.6" fill="#bc8cff" opacity="0.7"/>
<circle cx="309.2" cy="112.3" r="2.6" fill="#bc8cff" opacity="0.7"/>
<circle cx="329.9" cy="112.3" r="2.6" fill="#bc8cff" opacity="0.7"/>
<circle cx="350.5" cy="112.3" r="2.6" fill="#bc8cff" opacity="0.7"/>
<circle cx="371.2" cy="112.3" r="2.6" fill="#bc8cff" opacity="0.7"/>
<circle cx="391.9" cy="112.3" r="2.6" fill="#bc8cff" opacity="0.7"/>
<circle cx="412.6" cy="113.9" r="2.6" fill="#bc8cff" opacity="0.7"/>
<circle cx="433.3" cy="111.9" r="2.6" fill="#bc8cff" opacity="0.7"/>
<circle cx="454.0" cy="112.3" r="2.6" fill="#bc8cff" opacity="0.7"/>
<circle cx="474.7" cy="113.9" r="2.6" fill="#bc8cff" opacity="0.7"/>
<circle cx="495.3" cy="112.4" r="2.6" fill="#bc8cff" opacity="0.7"/>
<circle cx="516.0" cy="112.3" r="2.6" fill="#bc8cff" opacity="0.7"/>
<circle cx="536.7" cy="112.4" r="2.6" fill="#bc8cff" opacity="0.7"/>
<circle cx="557.4" cy="113.9" r="2.6" fill="#bc8cff" opacity="0.7"/>
<circle cx="578.1" cy="112.3" r="2.6" fill="#bc8cff" opacity="0.7"/>
<circle cx="598.8" cy="112.3" r="2.6" fill="#bc8cff" opacity="0.7"/>
<circle cx="619.5" cy="112.3" r="2.6" fill="#bc8cff" opacity="0.7"/>
<circle cx="640.2" cy="112.3" r="2.6" fill="#bc8cff" opacity="0.7"/>
<circle cx="660.8" cy="112.3" r="2.6" fill="#bc8cff" opacity="0.7"/>
<circle cx="681.5" cy="114.7" r="2.6" fill="#bc8cff" opacity="0.7"/>
<circle cx="702.2" cy="112.3" r="2.6" fill="#bc8cff" opacity="0.7"/>
<circle cx="722.9" cy="112.3" r="2.6" fill="#bc8cff" opacity="0.7"/>
<circle cx="743.6" cy="112.3" r="2.6" fill="#bc8cff" opacity="0.7"/>
<circle cx="764.3" cy="112.5" r="2.6" fill="#bc8cff" opacity="0.7"/>
<circle cx="785.0" cy="112.5" r="2.6" fill="#bc8cff" opacity="0.7"/>
<circle cx="97.0" cy="348.0" r="3.2" fill="#ff922b" opacity="0.85"/>
<circle cx="117.7" cy="231.1" r="3.2" fill="#ff922b" opacity="0.85"/>
<circle cx="138.4" cy="348.0" r="3.2" fill="#ff922b" opacity="0.85"/>
<circle cx="159.1" cy="231.1" r="3.2" fill="#ff922b" opacity="0.85"/>
<circle cx="179.8" cy="347.7" r="3.2" fill="#ff922b" opacity="0.85"/>
<circle cx="200.5" cy="347.7" r="3.2" fill="#ff922b" opacity="0.85"/>
<circle cx="221.2" cy="347.6" r="3.2" fill="#ff922b" opacity="0.85"/>
<circle cx="241.8" cy="347.9" r="3.2" fill="#ff922b" opacity="0.85"/>
<circle cx="262.5" cy="347.9" r="3.2" fill="#ff922b" opacity="0.85"/>
<circle cx="283.2" cy="347.9" r="3.2" fill="#ff922b" opacity="0.85"/>
<circle cx="303.9" cy="347.8" r="3.2" fill="#ff922b" opacity="0.85"/>
<circle cx="324.6" cy="347.9" r="3.2" fill="#ff922b" opacity="0.85"/>
<circle cx="345.3" cy="347.9" r="3.2" fill="#ff922b" opacity="0.85"/>
<circle cx="366.0" cy="347.9" r="3.2" fill="#ff922b" opacity="0.85"/>
<circle cx="386.7" cy="347.7" r="3.2" fill="#ff922b" opacity="0.85"/>
<circle cx="407.3" cy="229.9" r="3.2" fill="#ff922b" opacity="0.85"/>
<circle cx="428.0" cy="227.9" r="3.2" fill="#ff922b" opacity="0.85"/>
<circle cx="448.7" cy="347.5" r="3.2" fill="#ff922b" opacity="0.85"/>
<circle cx="469.4" cy="229.9" r="3.2" fill="#ff922b" opacity="0.85"/>
<circle cx="490.1" cy="348.0" r="3.2" fill="#ff922b" opacity="0.85"/>
<circle cx="510.8" cy="347.9" r="3.2" fill="#ff922b" opacity="0.85"/>
<circle cx="531.5" cy="348.0" r="3.2" fill="#ff922b" opacity="0.85"/>
<circle cx="552.1" cy="229.9" r="3.2" fill="#ff922b" opacity="0.85"/>
<circle cx="572.8" cy="347.9" r="3.2" fill="#ff922b" opacity="0.85"/>
<circle cx="593.5" cy="347.5" r="3.2" fill="#ff922b" opacity="0.85"/>
<circle cx="614.2" cy="347.7" r="3.2" fill="#ff922b" opacity="0.85"/>
<circle cx="634.9" cy="347.9" r="3.2" fill="#ff922b" opacity="0.85"/>
<circle cx="655.6" cy="347.9" r="3.2" fill="#ff922b" opacity="0.85"/>
<circle cx="676.3" cy="233.2" r="3.2" fill="#ff922b" opacity="0.85"/>
<circle cx="696.9" cy="347.7" r="3.2" fill="#ff922b" opacity="0.85"/>
<circle cx="717.6" cy="347.9" r="3.2" fill="#ff922b" opacity="0.85"/>
<circle cx="738.3" cy="347.9" r="3.2" fill="#ff922b" opacity="0.85"/>
<circle cx="759.0" cy="348.0" r="3.2" fill="#ff922b" opacity="0.85"/>
<circle cx="779.7" cy="348.0" r="3.2" fill="#ff922b" opacity="0.85"/>
<circle cx="847" cy="84" r="5" fill="#ff922b"/>
<text x="866" y="88" font-size="13" fill="#c9d1d9" font-weight="700">Kāra</text>
<line x1="836" y1="108" x2="858" y2="108" stroke="#6e7681" stroke-width="1.6" stroke-dasharray="5 4"/>
<text x="866" y="112" font-size="13" fill="#c9d1d9" font-weight="400">Rust</text>
<circle cx="847" cy="132" r="4" fill="#3fb950"/>
<text x="866" y="136" font-size="13" fill="#c9d1d9" font-weight="400">C</text>
<circle cx="847" cy="156" r="4" fill="#bc8cff"/>
<text x="866" y="160" font-size="13" fill="#c9d1d9" font-weight="400">Go</text>
<text x="70" y="538" font-size="11.5" fill="#8b949e">Each dot is one benchmarked program (kata × approach); there is no connecting line because left-to-right order is not meaningful. Raw numbers: bench-results.json</text>
</svg>