<svg xmlns="http://www.w3.org/2000/svg" width="980" height="560" viewBox="0 0 980 560" font-family="-apple-system,Segoe UI,Helvetica,Arial,sans-serif">
<rect width="980" height="560" fill="#282c34"/>
<text x="70" y="34" font-size="21" font-weight="700" fill="#c9d1d9">Binary size — sequential lane</text>
<text x="70" y="56" font-size="13" fill="#8b949e">relative to Rust = 1.0 · lower = smaller · 35 programs · log scale</text>
<line x1="70" y1="456.0" x2="812" y2="456.0" stroke="#3b414b" stroke-width="1"/>
<text x="60" y="460.0" font-size="12" text-anchor="end" fill="#8b949e">0.01×</text>
<line x1="70" y1="418.1" x2="812" y2="418.1" stroke="#3b414b" stroke-width="1"/>
<text x="60" y="422.1" font-size="12" text-anchor="end" fill="#8b949e">0.02×</text>
<line x1="70" y1="367.9" x2="812" y2="367.9" stroke="#3b414b" stroke-width="1"/>
<text x="60" y="371.9" font-size="12" text-anchor="end" fill="#8b949e">0.05×</text>
<line x1="70" y1="330.0" x2="812" y2="330.0" stroke="#3b414b" stroke-width="1"/>
<text x="60" y="334.0" font-size="12" text-anchor="end" fill="#8b949e">0.1×</text>
<line x1="70" y1="292.1" x2="812" y2="292.1" stroke="#3b414b" stroke-width="1"/>
<text x="60" y="296.1" font-size="12" text-anchor="end" fill="#8b949e">0.2×</text>
<line x1="70" y1="241.9" x2="812" y2="241.9" stroke="#3b414b" stroke-width="1"/>
<text x="60" y="245.9" font-size="12" text-anchor="end" fill="#8b949e">0.5×</text>
<line x1="70" y1="204.0" x2="812" y2="204.0" stroke="#6e7681" stroke-width="1.4" stroke-dasharray="5 4"/>
<text x="60" y="208.0" font-size="12" text-anchor="end" fill="#aeb6c0" font-weight="700">1×</text>
<line x1="70" y1="166.1" x2="812" y2="166.1" stroke="#3b414b" stroke-width="1"/>
<text x="60" y="170.1" font-size="12" text-anchor="end" fill="#8b949e">2×</text>
<line x1="70" y1="115.9" x2="812" y2="115.9" stroke="#3b414b" stroke-width="1"/>
<text x="60" y="119.9" font-size="12" text-anchor="end" fill="#8b949e">5×</text>
<line x1="70" y1="78.0" x2="812" y2="78.0" stroke="#3b414b" stroke-width="1"/>
<text x="60" y="82.0" font-size="12" text-anchor="end" fill="#8b949e">10×</text>
<text x="812" y="198.0" font-size="11" text-anchor="end" fill="#aeb6c0">Rust baseline</text>
<line x1="70" y1="456" x2="812" y2="456" stroke="#3b414b"/>
<text x="441.0" y="478" font-size="11" text-anchor="middle" fill="#8b949e">35 programs (kata × approach) — x-order carries no meaning</text>
<circle cx="99.7" cy="347.9" r="2.6" fill="#3fb950" opacity="0.7"/>
<circle cx="119.8" cy="347.9" r="2.6" fill="#3fb950" opacity="0.7"/>
<circle cx="139.8" cy="347.9" r="2.6" fill="#3fb950" opacity="0.7"/>
<circle cx="159.9" cy="348.2" r="2.6" fill="#3fb950" opacity="0.7"/>
<circle cx="180.0" cy="348.1" r="2.6" fill="#3fb950" opacity="0.7"/>
<circle cx="200.1" cy="348.0" r="2.6" fill="#3fb950" opacity="0.7"/>
<circle cx="220.1" cy="347.6" r="2.6" fill="#3fb950" opacity="0.7"/>
<circle cx="240.2" cy="348.1" r="2.6" fill="#3fb950" opacity="0.7"/>
<circle cx="260.3" cy="348.1" r="2.6" fill="#3fb950" opacity="0.7"/>
<circle cx="280.4" cy="348.1" r="2.6" fill="#3fb950" opacity="0.7"/>
<circle cx="300.5" cy="348.1" r="2.6" fill="#3fb950" opacity="0.7"/>
<circle cx="320.5" cy="348.1" r="2.6" fill="#3fb950" opacity="0.7"/>
<circle cx="340.6" cy="348.0" r="2.6" fill="#3fb950" opacity="0.7"/>
<circle cx="360.7" cy="348.0" r="2.6" fill="#3fb950" opacity="0.7"/>
<circle cx="380.8" cy="348.0" r="2.6" fill="#3fb950" opacity="0.7"/>
<circle cx="400.8" cy="349.9" r="2.6" fill="#3fb950" opacity="0.7"/>
<circle cx="420.9" cy="348.0" r="2.6" fill="#3fb950" opacity="0.7"/>
<circle cx="441.0" cy="347.7" r="2.6" fill="#3fb950" opacity="0.7"/>
<circle cx="461.1" cy="349.9" r="2.6" fill="#3fb950" opacity="0.7"/>
<circle cx="481.2" cy="348.2" r="2.6" fill="#3fb950" opacity="0.7"/>
<circle cx="501.2" cy="348.0" r="2.6" fill="#3fb950" opacity="0.7"/>
<circle cx="521.3" cy="348.1" r="2.6" fill="#3fb950" opacity="0.7"/>
<circle cx="541.4" cy="350.0" r="2.6" fill="#3fb950" opacity="0.7"/>
<circle cx="561.5" cy="348.1" r="2.6" fill="#3fb950" opacity="0.7"/>
<circle cx="581.5" cy="348.0" r="2.6" fill="#3fb950" opacity="0.7"/>
<circle cx="601.6" cy="348.0" r="2.6" fill="#3fb950" opacity="0.7"/>
<circle cx="621.7" cy="348.2" r="2.6" fill="#3fb950" opacity="0.7"/>
<circle cx="641.8" cy="348.1" r="2.6" fill="#3fb950" opacity="0.7"/>
<circle cx="661.9" cy="350.0" r="2.6" fill="#3fb950" opacity="0.7"/>
<circle cx="681.9" cy="347.9" r="2.6" fill="#3fb950" opacity="0.7"/>
<circle cx="702.0" cy="347.9" r="2.6" fill="#3fb950" opacity="0.7"/>
<circle cx="722.1" cy="348.0" r="2.6" fill="#3fb950" opacity="0.7"/>
<circle cx="742.2" cy="348.3" r="2.6" fill="#3fb950" opacity="0.7"/>
<circle cx="762.2" cy="348.3" r="2.6" fill="#3fb950" opacity="0.7"/>
<circle cx="782.3" cy="349.8" r="2.6" fill="#3fb950" opacity="0.7"/>
<circle cx="102.3" cy="112.3" r="2.6" fill="#bc8cff" opacity="0.7"/>
<circle cx="122.4" cy="112.5" r="2.6" fill="#bc8cff" opacity="0.7"/>
<circle cx="142.5" cy="112.4" r="2.6" fill="#bc8cff" opacity="0.7"/>
<circle cx="162.5" cy="112.5" r="2.6" fill="#bc8cff" opacity="0.7"/>
<circle cx="182.6" cy="112.3" r="2.6" fill="#bc8cff" opacity="0.7"/>
<circle cx="202.7" cy="112.3" r="2.6" fill="#bc8cff" opacity="0.7"/>
<circle cx="222.8" cy="112.3" r="2.6" fill="#bc8cff" opacity="0.7"/>
<circle cx="242.9" cy="112.3" r="2.6" fill="#bc8cff" opacity="0.7"/>
<circle cx="262.9" cy="112.3" r="2.6" fill="#bc8cff" opacity="0.7"/>
<circle cx="283.0" cy="112.3" r="2.6" fill="#bc8cff" opacity="0.7"/>
<circle cx="303.1" cy="112.3" r="2.6" fill="#bc8cff" opacity="0.7"/>
<circle cx="323.2" cy="112.3" r="2.6" fill="#bc8cff" opacity="0.7"/>
<circle cx="343.2" cy="112.3" r="2.6" fill="#bc8cff" opacity="0.7"/>
<circle cx="363.3" cy="112.3" r="2.6" fill="#bc8cff" opacity="0.7"/>
<circle cx="383.4" cy="112.3" r="2.6" fill="#bc8cff" opacity="0.7"/>
<circle cx="403.5" cy="113.9" r="2.6" fill="#bc8cff" opacity="0.7"/>
<circle cx="423.6" cy="111.9" r="2.6" fill="#bc8cff" opacity="0.7"/>
<circle cx="443.6" cy="112.3" r="2.6" fill="#bc8cff" opacity="0.7"/>
<circle cx="463.7" cy="113.9" r="2.6" fill="#bc8cff" opacity="0.7"/>
<circle cx="483.8" cy="112.4" r="2.6" fill="#bc8cff" opacity="0.7"/>
<circle cx="503.9" cy="112.3" r="2.6" fill="#bc8cff" opacity="0.7"/>
<circle cx="523.9" cy="112.4" r="2.6" fill="#bc8cff" opacity="0.7"/>
<circle cx="544.0" cy="113.9" r="2.6" fill="#bc8cff" opacity="0.7"/>
<circle cx="564.1" cy="112.3" r="2.6" fill="#bc8cff" opacity="0.7"/>
<circle cx="584.2" cy="112.3" r="2.6" fill="#bc8cff" opacity="0.7"/>
<circle cx="604.3" cy="112.3" r="2.6" fill="#bc8cff" opacity="0.7"/>
<circle cx="624.3" cy="112.3" r="2.6" fill="#bc8cff" opacity="0.7"/>
<circle cx="644.4" cy="112.3" r="2.6" fill="#bc8cff" opacity="0.7"/>
<circle cx="664.5" cy="114.7" r="2.6" fill="#bc8cff" opacity="0.7"/>
<circle cx="684.6" cy="112.3" r="2.6" fill="#bc8cff" opacity="0.7"/>
<circle cx="704.6" cy="112.3" r="2.6" fill="#bc8cff" opacity="0.7"/>
<circle cx="724.7" cy="112.3" r="2.6" fill="#bc8cff" opacity="0.7"/>
<circle cx="744.8" cy="112.5" r="2.6" fill="#bc8cff" opacity="0.7"/>
<circle cx="764.9" cy="112.5" r="2.6" fill="#bc8cff" opacity="0.7"/>
<circle cx="785.0" cy="113.8" r="2.6" fill="#bc8cff" opacity="0.7"/>
<circle cx="97.0" cy="348.0" r="3.2" fill="#ff922b" opacity="0.85"/>
<circle cx="117.1" cy="231.1" r="3.2" fill="#ff922b" opacity="0.85"/>
<circle cx="137.2" cy="348.0" r="3.2" fill="#ff922b" opacity="0.85"/>
<circle cx="157.3" cy="231.1" r="3.2" fill="#ff922b" opacity="0.85"/>
<circle cx="177.4" cy="347.7" r="3.2" fill="#ff922b" opacity="0.85"/>
<circle cx="197.4" cy="347.7" r="3.2" fill="#ff922b" opacity="0.85"/>
<circle cx="217.5" cy="347.6" r="3.2" fill="#ff922b" opacity="0.85"/>
<circle cx="237.6" cy="347.9" r="3.2" fill="#ff922b" opacity="0.85"/>
<circle cx="257.7" cy="347.9" r="3.2" fill="#ff922b" opacity="0.85"/>
<circle cx="277.7" cy="347.9" r="3.2" fill="#ff922b" opacity="0.85"/>
<circle cx="297.8" cy="347.8" r="3.2" fill="#ff922b" opacity="0.85"/>
<circle cx="317.9" cy="347.9" r="3.2" fill="#ff922b" opacity="0.85"/>
<circle cx="338.0" cy="347.9" r="3.2" fill="#ff922b" opacity="0.85"/>
<circle cx="358.1" cy="347.9" r="3.2" fill="#ff922b" opacity="0.85"/>
<circle cx="378.1" cy="347.7" r="3.2" fill="#ff922b" opacity="0.85"/>
<circle cx="398.2" cy="229.9" r="3.2" fill="#ff922b" opacity="0.85"/>
<circle cx="418.3" cy="227.9" r="3.2" fill="#ff922b" opacity="0.85"/>
<circle cx="438.4" cy="347.5" r="3.2" fill="#ff922b" opacity="0.85"/>
<circle cx="458.4" cy="229.9" r="3.2" fill="#ff922b" opacity="0.85"/>
<circle cx="478.5" cy="348.0" r="3.2" fill="#ff922b" opacity="0.85"/>
<circle cx="498.6" cy="347.9" r="3.2" fill="#ff922b" opacity="0.85"/>
<circle cx="518.7" cy="348.0" r="3.2" fill="#ff922b" opacity="0.85"/>
<circle cx="538.8" cy="229.9" r="3.2" fill="#ff922b" opacity="0.85"/>
<circle cx="558.8" cy="347.9" r="3.2" fill="#ff922b" opacity="0.85"/>
<circle cx="578.9" cy="347.5" r="3.2" fill="#ff922b" opacity="0.85"/>
<circle cx="599.0" cy="347.7" r="3.2" fill="#ff922b" opacity="0.85"/>
<circle cx="619.1" cy="347.9" r="3.2" fill="#ff922b" opacity="0.85"/>
<circle cx="639.1" cy="347.9" r="3.2" fill="#ff922b" opacity="0.85"/>
<circle cx="659.2" cy="233.2" r="3.2" fill="#ff922b" opacity="0.85"/>
<circle cx="679.3" cy="347.7" r="3.2" fill="#ff922b" opacity="0.85"/>
<circle cx="699.4" cy="347.9" r="3.2" fill="#ff922b" opacity="0.85"/>
<circle cx="719.5" cy="347.9" r="3.2" fill="#ff922b" opacity="0.85"/>
<circle cx="739.5" cy="348.0" r="3.2" fill="#ff922b" opacity="0.85"/>
<circle cx="759.6" cy="348.0" r="3.2" fill="#ff922b" opacity="0.85"/>
<circle cx="779.7" cy="229.8" r="3.2" fill="#ff922b" opacity="0.85"/>
<circle cx="847" cy="84" r="5" fill="#ff922b"/>
<text x="866" y="88" font-size="13" fill="#c9d1d9" font-weight="700">Kāra</text>
<line x1="836" y1="108" x2="858" y2="108" stroke="#6e7681" stroke-width="1.6" stroke-dasharray="5 4"/>
<text x="866" y="112" font-size="13" fill="#c9d1d9" font-weight="400">Rust</text>
<circle cx="847" cy="132" r="4" fill="#3fb950"/>
<text x="866" y="136" font-size="13" fill="#c9d1d9" font-weight="400">C</text>
<circle cx="847" cy="156" r="4" fill="#bc8cff"/>
<text x="866" y="160" font-size="13" fill="#c9d1d9" font-weight="400">Go</text>
<text x="70" y="538" font-size="11.5" fill="#8b949e">Each dot is one benchmarked program (kata × approach); there is no connecting line because left-to-right order is not meaningful. Raw numbers: bench-results.json</text>
</svg>