<svg xmlns="http://www.w3.org/2000/svg" width="980" height="560" viewBox="0 0 980 560" font-family="-apple-system,Segoe UI,Helvetica,Arial,sans-serif">
<rect width="980" height="560" fill="#282c34"/>
<text x="70" y="34" font-size="21" font-weight="700" fill="#c9d1d9">Binary size — sequential lane</text>
<text x="70" y="56" font-size="13" fill="#8b949e">relative to Rust = 1.0 · lower = smaller · 51 programs · log scale</text>
<line x1="70" y1="456.0" x2="812" y2="456.0" stroke="#3b414b" stroke-width="1"/>
<text x="60" y="460.0" font-size="12" text-anchor="end" fill="#8b949e">0.01×</text>
<line x1="70" y1="418.1" x2="812" y2="418.1" stroke="#3b414b" stroke-width="1"/>
<text x="60" y="422.1" font-size="12" text-anchor="end" fill="#8b949e">0.02×</text>
<line x1="70" y1="367.9" x2="812" y2="367.9" stroke="#3b414b" stroke-width="1"/>
<text x="60" y="371.9" font-size="12" text-anchor="end" fill="#8b949e">0.05×</text>
<line x1="70" y1="330.0" x2="812" y2="330.0" stroke="#3b414b" stroke-width="1"/>
<text x="60" y="334.0" font-size="12" text-anchor="end" fill="#8b949e">0.1×</text>
<line x1="70" y1="292.1" x2="812" y2="292.1" stroke="#3b414b" stroke-width="1"/>
<text x="60" y="296.1" font-size="12" text-anchor="end" fill="#8b949e">0.2×</text>
<line x1="70" y1="241.9" x2="812" y2="241.9" stroke="#3b414b" stroke-width="1"/>
<text x="60" y="245.9" font-size="12" text-anchor="end" fill="#8b949e">0.5×</text>
<line x1="70" y1="204.0" x2="812" y2="204.0" stroke="#a7b0bc" stroke-width="2" stroke-dasharray="5 4"/>
<text x="60" y="208.0" font-size="12" text-anchor="end" fill="#aeb6c0" font-weight="700">1×</text>
<line x1="70" y1="166.1" x2="812" y2="166.1" stroke="#3b414b" stroke-width="1"/>
<text x="60" y="170.1" font-size="12" text-anchor="end" fill="#8b949e">2×</text>
<line x1="70" y1="115.9" x2="812" y2="115.9" stroke="#3b414b" stroke-width="1"/>
<text x="60" y="119.9" font-size="12" text-anchor="end" fill="#8b949e">5×</text>
<line x1="70" y1="78.0" x2="812" y2="78.0" stroke="#3b414b" stroke-width="1"/>
<text x="60" y="82.0" font-size="12" text-anchor="end" fill="#8b949e">10×</text>
<text x="812" y="198.0" font-size="11" text-anchor="end" fill="#aeb6c0">Rust baseline</text>
<line x1="70" y1="456" x2="812" y2="456" stroke="#3b414b"/>
<text x="441.0" y="478" font-size="11" text-anchor="middle" fill="#8b949e">51 programs (kata × approach) — x-order carries no meaning</text>
<circle cx="99.7" cy="347.9" r="2.6" fill="#3fb950" opacity="0.7"/>
<circle cx="113.3" cy="347.9" r="2.6" fill="#3fb950" opacity="0.7"/>
<circle cx="127.0" cy="347.9" r="2.6" fill="#3fb950" opacity="0.7"/>
<circle cx="140.6" cy="348.2" r="2.6" fill="#3fb950" opacity="0.7"/>
<circle cx="154.3" cy="348.1" r="2.6" fill="#3fb950" opacity="0.7"/>
<circle cx="167.9" cy="348.0" r="2.6" fill="#3fb950" opacity="0.7"/>
<circle cx="181.6" cy="347.6" r="2.6" fill="#3fb950" opacity="0.7"/>
<circle cx="195.2" cy="348.1" r="2.6" fill="#3fb950" opacity="0.7"/>
<circle cx="208.9" cy="348.1" r="2.6" fill="#3fb950" opacity="0.7"/>
<circle cx="222.6" cy="348.1" r="2.6" fill="#3fb950" opacity="0.7"/>
<circle cx="236.2" cy="348.1" r="2.6" fill="#3fb950" opacity="0.7"/>
<circle cx="249.9" cy="348.1" r="2.6" fill="#3fb950" opacity="0.7"/>
<circle cx="263.5" cy="348.0" r="2.6" fill="#3fb950" opacity="0.7"/>
<circle cx="277.2" cy="348.0" r="2.6" fill="#3fb950" opacity="0.7"/>
<circle cx="290.8" cy="348.0" r="2.6" fill="#3fb950" opacity="0.7"/>
<circle cx="304.5" cy="349.9" r="2.6" fill="#3fb950" opacity="0.7"/>
<circle cx="318.1" cy="348.0" r="2.6" fill="#3fb950" opacity="0.7"/>
<circle cx="331.8" cy="347.7" r="2.6" fill="#3fb950" opacity="0.7"/>
<circle cx="345.4" cy="349.9" r="2.6" fill="#3fb950" opacity="0.7"/>
<circle cx="359.1" cy="348.2" r="2.6" fill="#3fb950" opacity="0.7"/>
<circle cx="372.7" cy="348.0" r="2.6" fill="#3fb950" opacity="0.7"/>
<circle cx="386.4" cy="348.1" r="2.6" fill="#3fb950" opacity="0.7"/>
<circle cx="400.0" cy="347.9" r="2.6" fill="#3fb950" opacity="0.7"/>
<circle cx="413.7" cy="348.1" r="2.6" fill="#3fb950" opacity="0.7"/>
<circle cx="427.3" cy="348.2" r="2.6" fill="#3fb950" opacity="0.7"/>
<circle cx="441.0" cy="348.2" r="2.6" fill="#3fb950" opacity="0.7"/>
<circle cx="454.7" cy="348.0" r="2.6" fill="#3fb950" opacity="0.7"/>
<circle cx="468.3" cy="348.0" r="2.6" fill="#3fb950" opacity="0.7"/>
<circle cx="482.0" cy="348.0" r="2.6" fill="#3fb950" opacity="0.7"/>
<circle cx="495.6" cy="348.0" r="2.6" fill="#3fb950" opacity="0.7"/>
<circle cx="509.3" cy="348.2" r="2.6" fill="#3fb950" opacity="0.7"/>
<circle cx="522.9" cy="349.9" r="2.6" fill="#3fb950" opacity="0.7"/>
<circle cx="536.6" cy="350.0" r="2.6" fill="#3fb950" opacity="0.7"/>
<circle cx="550.2" cy="348.1" r="2.6" fill="#3fb950" opacity="0.7"/>
<circle cx="563.9" cy="348.0" r="2.6" fill="#3fb950" opacity="0.7"/>
<circle cx="577.5" cy="348.0" r="2.6" fill="#3fb950" opacity="0.7"/>
<circle cx="591.2" cy="348.2" r="2.6" fill="#3fb950" opacity="0.7"/>
<circle cx="604.8" cy="348.1" r="2.6" fill="#3fb950" opacity="0.7"/>
<circle cx="618.5" cy="348.1" r="2.6" fill="#3fb950" opacity="0.7"/>
<circle cx="632.1" cy="350.0" r="2.6" fill="#3fb950" opacity="0.7"/>
<circle cx="645.8" cy="347.9" r="2.6" fill="#3fb950" opacity="0.7"/>
<circle cx="659.4" cy="347.9" r="2.6" fill="#3fb950" opacity="0.7"/>
<circle cx="673.1" cy="348.0" r="2.6" fill="#3fb950" opacity="0.7"/>
<circle cx="686.8" cy="348.0" r="2.6" fill="#3fb950" opacity="0.7"/>
<circle cx="700.4" cy="348.3" r="2.6" fill="#3fb950" opacity="0.7"/>
<circle cx="714.1" cy="348.3" r="2.6" fill="#3fb950" opacity="0.7"/>
<circle cx="727.7" cy="347.9" r="2.6" fill="#3fb950" opacity="0.7"/>
<circle cx="741.4" cy="347.8" r="2.6" fill="#3fb950" opacity="0.7"/>
<circle cx="755.0" cy="347.8" r="2.6" fill="#3fb950" opacity="0.7"/>
<circle cx="768.7" cy="349.8" r="2.6" fill="#3fb950" opacity="0.7"/>
<circle cx="782.3" cy="349.5" r="2.6" fill="#3fb950" opacity="0.7"/>
<circle cx="102.2" cy="112.3" r="2.6" fill="#bc8cff" opacity="0.7"/>
<circle cx="115.8" cy="112.5" r="2.6" fill="#bc8cff" opacity="0.7"/>
<circle cx="129.5" cy="112.4" r="2.6" fill="#bc8cff" opacity="0.7"/>
<circle cx="143.1" cy="112.5" r="2.6" fill="#bc8cff" opacity="0.7"/>
<circle cx="156.8" cy="112.3" r="2.6" fill="#bc8cff" opacity="0.7"/>
<circle cx="170.4" cy="112.3" r="2.6" fill="#bc8cff" opacity="0.7"/>
<circle cx="184.1" cy="112.3" r="2.6" fill="#bc8cff" opacity="0.7"/>
<circle cx="197.7" cy="112.3" r="2.6" fill="#bc8cff" opacity="0.7"/>
<circle cx="211.4" cy="112.3" r="2.6" fill="#bc8cff" opacity="0.7"/>
<circle cx="225.0" cy="112.3" r="2.6" fill="#bc8cff" opacity="0.7"/>
<circle cx="238.7" cy="112.3" r="2.6" fill="#bc8cff" opacity="0.7"/>
<circle cx="252.3" cy="112.3" r="2.6" fill="#bc8cff" opacity="0.7"/>
<circle cx="266.0" cy="112.3" r="2.6" fill="#bc8cff" opacity="0.7"/>
<circle cx="279.6" cy="112.3" r="2.6" fill="#bc8cff" opacity="0.7"/>
<circle cx="293.3" cy="112.3" r="2.6" fill="#bc8cff" opacity="0.7"/>
<circle cx="306.9" cy="113.9" r="2.6" fill="#bc8cff" opacity="0.7"/>
<circle cx="320.6" cy="111.9" r="2.6" fill="#bc8cff" opacity="0.7"/>
<circle cx="334.3" cy="112.3" r="2.6" fill="#bc8cff" opacity="0.7"/>
<circle cx="347.9" cy="113.9" r="2.6" fill="#bc8cff" opacity="0.7"/>
<circle cx="361.6" cy="112.4" r="2.6" fill="#bc8cff" opacity="0.7"/>
<circle cx="375.2" cy="112.3" r="2.6" fill="#bc8cff" opacity="0.7"/>
<circle cx="388.9" cy="112.4" r="2.6" fill="#bc8cff" opacity="0.7"/>
<circle cx="402.5" cy="112.4" r="2.6" fill="#bc8cff" opacity="0.7"/>
<circle cx="416.2" cy="112.4" r="2.6" fill="#bc8cff" opacity="0.7"/>
<circle cx="429.8" cy="112.4" r="2.6" fill="#bc8cff" opacity="0.7"/>
<circle cx="443.5" cy="112.4" r="2.6" fill="#bc8cff" opacity="0.7"/>
<circle cx="457.1" cy="112.3" r="2.6" fill="#bc8cff" opacity="0.7"/>
<circle cx="470.8" cy="112.3" r="2.6" fill="#bc8cff" opacity="0.7"/>
<circle cx="484.4" cy="112.3" r="2.6" fill="#bc8cff" opacity="0.7"/>
<circle cx="498.1" cy="112.3" r="2.6" fill="#bc8cff" opacity="0.7"/>
<circle cx="511.7" cy="112.3" r="2.6" fill="#bc8cff" opacity="0.7"/>
<circle cx="525.4" cy="114.4" r="2.6" fill="#bc8cff" opacity="0.7"/>
<circle cx="539.0" cy="113.9" r="2.6" fill="#bc8cff" opacity="0.7"/>
<circle cx="552.7" cy="112.3" r="2.6" fill="#bc8cff" opacity="0.7"/>
<circle cx="566.3" cy="112.3" r="2.6" fill="#bc8cff" opacity="0.7"/>
<circle cx="580.0" cy="112.3" r="2.6" fill="#bc8cff" opacity="0.7"/>
<circle cx="593.7" cy="112.3" r="2.6" fill="#bc8cff" opacity="0.7"/>
<circle cx="607.3" cy="112.3" r="2.6" fill="#bc8cff" opacity="0.7"/>
<circle cx="621.0" cy="112.3" r="2.6" fill="#bc8cff" opacity="0.7"/>
<circle cx="634.6" cy="114.7" r="2.6" fill="#bc8cff" opacity="0.7"/>
<circle cx="648.3" cy="112.3" r="2.6" fill="#bc8cff" opacity="0.7"/>
<circle cx="661.9" cy="112.3" r="2.6" fill="#bc8cff" opacity="0.7"/>
<circle cx="675.6" cy="112.4" r="2.6" fill="#bc8cff" opacity="0.7"/>
<circle cx="689.2" cy="112.3" r="2.6" fill="#bc8cff" opacity="0.7"/>
<circle cx="702.9" cy="112.5" r="2.6" fill="#bc8cff" opacity="0.7"/>
<circle cx="716.5" cy="112.5" r="2.6" fill="#bc8cff" opacity="0.7"/>
<circle cx="730.2" cy="112.3" r="2.6" fill="#bc8cff" opacity="0.7"/>
<circle cx="743.8" cy="112.3" r="2.6" fill="#bc8cff" opacity="0.7"/>
<circle cx="757.5" cy="112.3" r="2.6" fill="#bc8cff" opacity="0.7"/>
<circle cx="771.1" cy="113.8" r="2.6" fill="#bc8cff" opacity="0.7"/>
<circle cx="784.8" cy="114.5" r="2.6" fill="#bc8cff" opacity="0.7"/>
<circle cx="97.2" cy="347.9" r="3.2" fill="#ff922b" opacity="0.85"/>
<circle cx="110.9" cy="231.1" r="3.2" fill="#ff922b" opacity="0.85"/>
<circle cx="124.5" cy="347.9" r="3.2" fill="#ff922b" opacity="0.85"/>
<circle cx="138.2" cy="231.1" r="3.2" fill="#ff922b" opacity="0.85"/>
<circle cx="151.8" cy="347.7" r="3.2" fill="#ff922b" opacity="0.85"/>
<circle cx="165.5" cy="347.7" r="3.2" fill="#ff922b" opacity="0.85"/>
<circle cx="179.1" cy="347.6" r="3.2" fill="#ff922b" opacity="0.85"/>
<circle cx="192.8" cy="347.9" r="3.2" fill="#ff922b" opacity="0.85"/>
<circle cx="206.4" cy="347.9" r="3.2" fill="#ff922b" opacity="0.85"/>
<circle cx="220.1" cy="347.9" r="3.2" fill="#ff922b" opacity="0.85"/>
<circle cx="233.7" cy="347.8" r="3.2" fill="#ff922b" opacity="0.85"/>
<circle cx="247.4" cy="347.9" r="3.2" fill="#ff922b" opacity="0.85"/>
<circle cx="261.0" cy="347.9" r="3.2" fill="#ff922b" opacity="0.85"/>
<circle cx="274.7" cy="347.9" r="3.2" fill="#ff922b" opacity="0.85"/>
<circle cx="288.3" cy="347.7" r="3.2" fill="#ff922b" opacity="0.85"/>
<circle cx="302.0" cy="229.9" r="3.2" fill="#ff922b" opacity="0.85"/>
<circle cx="315.7" cy="227.9" r="3.2" fill="#ff922b" opacity="0.85"/>
<circle cx="329.3" cy="347.5" r="3.2" fill="#ff922b" opacity="0.85"/>
<circle cx="343.0" cy="229.9" r="3.2" fill="#ff922b" opacity="0.85"/>
<circle cx="356.6" cy="348.0" r="3.2" fill="#ff922b" opacity="0.85"/>
<circle cx="370.3" cy="347.9" r="3.2" fill="#ff922b" opacity="0.85"/>
<circle cx="383.9" cy="348.0" r="3.2" fill="#ff922b" opacity="0.85"/>
<circle cx="397.6" cy="347.9" r="3.2" fill="#ff922b" opacity="0.85"/>
<circle cx="411.2" cy="347.9" r="3.2" fill="#ff922b" opacity="0.85"/>
<circle cx="424.9" cy="347.8" r="3.2" fill="#ff922b" opacity="0.85"/>
<circle cx="438.5" cy="347.8" r="3.2" fill="#ff922b" opacity="0.85"/>
<circle cx="452.2" cy="347.7" r="3.2" fill="#ff922b" opacity="0.85"/>
<circle cx="465.8" cy="347.7" r="3.2" fill="#ff922b" opacity="0.85"/>
<circle cx="479.5" cy="347.8" r="3.2" fill="#ff922b" opacity="0.85"/>
<circle cx="493.1" cy="347.7" r="3.2" fill="#ff922b" opacity="0.85"/>
<circle cx="506.8" cy="348.0" r="3.2" fill="#ff922b" opacity="0.85"/>
<circle cx="520.4" cy="229.8" r="3.2" fill="#ff922b" opacity="0.85"/>
<circle cx="534.1" cy="229.9" r="3.2" fill="#ff922b" opacity="0.85"/>
<circle cx="547.7" cy="347.9" r="3.2" fill="#ff922b" opacity="0.85"/>
<circle cx="561.4" cy="347.5" r="3.2" fill="#ff922b" opacity="0.85"/>
<circle cx="575.1" cy="347.8" r="3.2" fill="#ff922b" opacity="0.85"/>
<circle cx="588.7" cy="347.9" r="3.2" fill="#ff922b" opacity="0.85"/>
<circle cx="602.4" cy="347.9" r="3.2" fill="#ff922b" opacity="0.85"/>
<circle cx="616.0" cy="347.5" r="3.2" fill="#ff922b" opacity="0.85"/>
<circle cx="629.7" cy="233.2" r="3.2" fill="#ff922b" opacity="0.85"/>
<circle cx="643.3" cy="347.7" r="3.2" fill="#ff922b" opacity="0.85"/>
<circle cx="657.0" cy="347.9" r="3.2" fill="#ff922b" opacity="0.85"/>
<circle cx="670.6" cy="227.9" r="3.2" fill="#ff922b" opacity="0.85"/>
<circle cx="684.3" cy="347.5" r="3.2" fill="#ff922b" opacity="0.85"/>
<circle cx="697.9" cy="348.0" r="3.2" fill="#ff922b" opacity="0.85"/>
<circle cx="711.6" cy="348.0" r="3.2" fill="#ff922b" opacity="0.85"/>
<circle cx="725.2" cy="227.8" r="3.2" fill="#ff922b" opacity="0.85"/>
<circle cx="738.9" cy="230.9" r="3.2" fill="#ff922b" opacity="0.85"/>
<circle cx="752.5" cy="347.5" r="3.2" fill="#ff922b" opacity="0.85"/>
<circle cx="766.2" cy="229.8" r="3.2" fill="#ff922b" opacity="0.85"/>
<circle cx="779.8" cy="233.1" r="3.2" fill="#ff922b" opacity="0.85"/>
<circle cx="847" cy="84" r="5" fill="#ff922b"/>
<text x="866" y="88" font-size="13" fill="#c9d1d9" font-weight="700">Kāra</text>
<line x1="836" y1="108" x2="858" y2="108" stroke="#a7b0bc" stroke-width="2" stroke-dasharray="5 4"/>
<text x="866" y="112" font-size="13" fill="#c9d1d9" font-weight="400">Rust = 1.0×</text>
<circle cx="847" cy="132" r="4" fill="#3fb950"/>
<text x="866" y="136" font-size="13" fill="#c9d1d9" font-weight="400">C</text>
<circle cx="847" cy="156" r="4" fill="#bc8cff"/>
<text x="866" y="160" font-size="13" fill="#c9d1d9" font-weight="400">Go</text>
<text x="70" y="538" font-size="11.5" fill="#8b949e">Each dot is one benchmarked program (kata × approach); there is no connecting line because left-to-right order is not meaningful. Raw numbers: bench-results.json</text>
</svg>