<svg xmlns="http://www.w3.org/2000/svg" width="980" height="560" viewBox="0 0 980 560" font-family="-apple-system,Segoe UI,Helvetica,Arial,sans-serif">
<rect width="980" height="560" fill="#282c34"/>
<text x="70" y="34" font-size="21" font-weight="700" fill="#c9d1d9">Binary size — auto-parallel lane</text>
<text x="70" y="56" font-size="13" fill="#8b949e">relative to Rust = 1.0 · lower = smaller · 33 programs · log scale</text>
<line x1="70" y1="456.0" x2="812" y2="456.0" stroke="#3b414b" stroke-width="1"/>
<text x="60" y="460.0" font-size="12" text-anchor="end" fill="#8b949e">0.01×</text>
<line x1="70" y1="418.1" x2="812" y2="418.1" stroke="#3b414b" stroke-width="1"/>
<text x="60" y="422.1" font-size="12" text-anchor="end" fill="#8b949e">0.02×</text>
<line x1="70" y1="367.9" x2="812" y2="367.9" stroke="#3b414b" stroke-width="1"/>
<text x="60" y="371.9" font-size="12" text-anchor="end" fill="#8b949e">0.05×</text>
<line x1="70" y1="330.0" x2="812" y2="330.0" stroke="#3b414b" stroke-width="1"/>
<text x="60" y="334.0" font-size="12" text-anchor="end" fill="#8b949e">0.1×</text>
<line x1="70" y1="292.1" x2="812" y2="292.1" stroke="#3b414b" stroke-width="1"/>
<text x="60" y="296.1" font-size="12" text-anchor="end" fill="#8b949e">0.2×</text>
<line x1="70" y1="241.9" x2="812" y2="241.9" stroke="#3b414b" stroke-width="1"/>
<text x="60" y="245.9" font-size="12" text-anchor="end" fill="#8b949e">0.5×</text>
<line x1="70" y1="204.0" x2="812" y2="204.0" stroke="#a7b0bc" stroke-width="2" stroke-dasharray="5 4"/>
<text x="60" y="208.0" font-size="12" text-anchor="end" fill="#aeb6c0" font-weight="700">1×</text>
<line x1="70" y1="166.1" x2="812" y2="166.1" stroke="#3b414b" stroke-width="1"/>
<text x="60" y="170.1" font-size="12" text-anchor="end" fill="#8b949e">2×</text>
<line x1="70" y1="115.9" x2="812" y2="115.9" stroke="#3b414b" stroke-width="1"/>
<text x="60" y="119.9" font-size="12" text-anchor="end" fill="#8b949e">5×</text>
<line x1="70" y1="78.0" x2="812" y2="78.0" stroke="#3b414b" stroke-width="1"/>
<text x="60" y="82.0" font-size="12" text-anchor="end" fill="#8b949e">10×</text>
<text x="812" y="198.0" font-size="11" text-anchor="end" fill="#aeb6c0">Rust baseline</text>
<line x1="70" y1="456" x2="812" y2="456" stroke="#3b414b"/>
<text x="441.0" y="478" font-size="11" text-anchor="middle" fill="#8b949e">33 programs (kata × approach) — x-order carries no meaning</text>
<circle cx="99.7" cy="347.5" r="2.6" fill="#3fb950" opacity="0.7"/>
<circle cx="121.0" cy="347.6" r="2.6" fill="#3fb950" opacity="0.7"/>
<circle cx="142.3" cy="347.4" r="2.6" fill="#3fb950" opacity="0.7"/>
<circle cx="163.7" cy="347.1" r="2.6" fill="#3fb950" opacity="0.7"/>
<circle cx="185.0" cy="347.6" r="2.6" fill="#3fb950" opacity="0.7"/>
<circle cx="206.3" cy="347.3" r="2.6" fill="#3fb950" opacity="0.7"/>
<circle cx="227.7" cy="347.6" r="2.6" fill="#3fb950" opacity="0.7"/>
<circle cx="249.0" cy="347.4" r="2.6" fill="#3fb950" opacity="0.7"/>
<circle cx="270.3" cy="347.5" r="2.6" fill="#3fb950" opacity="0.7"/>
<circle cx="291.7" cy="347.3" r="2.6" fill="#3fb950" opacity="0.7"/>
<circle cx="313.0" cy="347.5" r="2.6" fill="#3fb950" opacity="0.7"/>
<circle cx="334.3" cy="347.5" r="2.6" fill="#3fb950" opacity="0.7"/>
<circle cx="355.7" cy="347.5" r="2.6" fill="#3fb950" opacity="0.7"/>
<circle cx="377.0" cy="347.5" r="2.6" fill="#3fb950" opacity="0.7"/>
<circle cx="398.3" cy="325.5" r="2.6" fill="#3fb950" opacity="0.7"/>
<circle cx="419.7" cy="347.4" r="2.6" fill="#3fb950" opacity="0.7"/>
<circle cx="441.0" cy="347.5" r="2.6" fill="#3fb950" opacity="0.7"/>
<circle cx="462.3" cy="347.3" r="2.6" fill="#3fb950" opacity="0.7"/>
<circle cx="483.7" cy="347.6" r="2.6" fill="#3fb950" opacity="0.7"/>
<circle cx="505.0" cy="347.4" r="2.6" fill="#3fb950" opacity="0.7"/>
<circle cx="526.3" cy="347.4" r="2.6" fill="#3fb950" opacity="0.7"/>
<circle cx="547.7" cy="347.4" r="2.6" fill="#3fb950" opacity="0.7"/>
<circle cx="569.0" cy="347.5" r="2.6" fill="#3fb950" opacity="0.7"/>
<circle cx="590.3" cy="347.5" r="2.6" fill="#3fb950" opacity="0.7"/>
<circle cx="611.7" cy="347.3" r="2.6" fill="#3fb950" opacity="0.7"/>
<circle cx="633.0" cy="347.6" r="2.6" fill="#3fb950" opacity="0.7"/>
<circle cx="654.3" cy="347.4" r="2.6" fill="#3fb950" opacity="0.7"/>
<circle cx="675.7" cy="347.6" r="2.6" fill="#3fb950" opacity="0.7"/>
<circle cx="697.0" cy="347.5" r="2.6" fill="#3fb950" opacity="0.7"/>
<circle cx="718.3" cy="347.2" r="2.6" fill="#3fb950" opacity="0.7"/>
<circle cx="739.7" cy="347.5" r="2.6" fill="#3fb950" opacity="0.7"/>
<circle cx="761.0" cy="347.4" r="2.6" fill="#3fb950" opacity="0.7"/>
<circle cx="782.3" cy="346.9" r="2.6" fill="#3fb950" opacity="0.7"/>
<circle cx="102.3" cy="111.6" r="2.6" fill="#bc8cff" opacity="0.7"/>
<circle cx="123.6" cy="111.7" r="2.6" fill="#bc8cff" opacity="0.7"/>
<circle cx="145.0" cy="111.6" r="2.6" fill="#bc8cff" opacity="0.7"/>
<circle cx="166.3" cy="111.7" r="2.6" fill="#bc8cff" opacity="0.7"/>
<circle cx="187.6" cy="111.8" r="2.6" fill="#bc8cff" opacity="0.7"/>
<circle cx="209.0" cy="111.7" r="2.6" fill="#bc8cff" opacity="0.7"/>
<circle cx="230.3" cy="111.8" r="2.6" fill="#bc8cff" opacity="0.7"/>
<circle cx="251.6" cy="111.7" r="2.6" fill="#bc8cff" opacity="0.7"/>
<circle cx="273.0" cy="111.7" r="2.6" fill="#bc8cff" opacity="0.7"/>
<circle cx="294.3" cy="111.7" r="2.6" fill="#bc8cff" opacity="0.7"/>
<circle cx="315.6" cy="111.7" r="2.6" fill="#bc8cff" opacity="0.7"/>
<circle cx="337.0" cy="111.8" r="2.6" fill="#bc8cff" opacity="0.7"/>
<circle cx="358.3" cy="111.4" r="2.6" fill="#bc8cff" opacity="0.7"/>
<circle cx="379.6" cy="111.4" r="2.6" fill="#bc8cff" opacity="0.7"/>
<circle cx="401.0" cy="111.7" r="2.6" fill="#bc8cff" opacity="0.7"/>
<circle cx="422.3" cy="111.4" r="2.6" fill="#bc8cff" opacity="0.7"/>
<circle cx="443.6" cy="111.7" r="2.6" fill="#bc8cff" opacity="0.7"/>
<circle cx="465.0" cy="111.7" r="2.6" fill="#bc8cff" opacity="0.7"/>
<circle cx="486.3" cy="111.8" r="2.6" fill="#bc8cff" opacity="0.7"/>
<circle cx="507.6" cy="111.6" r="2.6" fill="#bc8cff" opacity="0.7"/>
<circle cx="529.0" cy="111.8" r="2.6" fill="#bc8cff" opacity="0.7"/>
<circle cx="550.3" cy="111.8" r="2.6" fill="#bc8cff" opacity="0.7"/>
<circle cx="571.6" cy="111.8" r="2.6" fill="#bc8cff" opacity="0.7"/>
<circle cx="593.0" cy="111.7" r="2.6" fill="#bc8cff" opacity="0.7"/>
<circle cx="614.3" cy="111.8" r="2.6" fill="#bc8cff" opacity="0.7"/>
<circle cx="635.6" cy="111.7" r="2.6" fill="#bc8cff" opacity="0.7"/>
<circle cx="657.0" cy="111.9" r="2.6" fill="#bc8cff" opacity="0.7"/>
<circle cx="678.3" cy="111.7" r="2.6" fill="#bc8cff" opacity="0.7"/>
<circle cx="699.6" cy="111.8" r="2.6" fill="#bc8cff" opacity="0.7"/>
<circle cx="721.0" cy="111.5" r="2.6" fill="#bc8cff" opacity="0.7"/>
<circle cx="742.3" cy="111.8" r="2.6" fill="#bc8cff" opacity="0.7"/>
<circle cx="763.6" cy="111.8" r="2.6" fill="#bc8cff" opacity="0.7"/>
<circle cx="785.0" cy="111.9" r="2.6" fill="#bc8cff" opacity="0.7"/>
<circle cx="97.0" cy="227.3" r="3.2" fill="#ff922b" opacity="0.85"/>
<circle cx="118.4" cy="227.4" r="3.2" fill="#ff922b" opacity="0.85"/>
<circle cx="139.7" cy="227.3" r="3.2" fill="#ff922b" opacity="0.85"/>
<circle cx="161.0" cy="227.3" r="3.2" fill="#ff922b" opacity="0.85"/>
<circle cx="182.4" cy="227.4" r="3.2" fill="#ff922b" opacity="0.85"/>
<circle cx="203.7" cy="227.4" r="3.2" fill="#ff922b" opacity="0.85"/>
<circle cx="225.0" cy="227.4" r="3.2" fill="#ff922b" opacity="0.85"/>
<circle cx="246.4" cy="227.4" r="3.2" fill="#ff922b" opacity="0.85"/>
<circle cx="267.7" cy="227.4" r="3.2" fill="#ff922b" opacity="0.85"/>
<circle cx="289.0" cy="227.4" r="3.2" fill="#ff922b" opacity="0.85"/>
<circle cx="310.4" cy="227.4" r="3.2" fill="#ff922b" opacity="0.85"/>
<circle cx="331.7" cy="227.4" r="3.2" fill="#ff922b" opacity="0.85"/>
<circle cx="353.0" cy="224.6" r="3.2" fill="#ff922b" opacity="0.85"/>
<circle cx="374.4" cy="224.6" r="3.2" fill="#ff922b" opacity="0.85"/>
<circle cx="395.7" cy="227.4" r="3.2" fill="#ff922b" opacity="0.85"/>
<circle cx="417.0" cy="224.6" r="3.2" fill="#ff922b" opacity="0.85"/>
<circle cx="438.4" cy="227.4" r="3.2" fill="#ff922b" opacity="0.85"/>
<circle cx="459.7" cy="227.4" r="3.2" fill="#ff922b" opacity="0.85"/>
<circle cx="481.0" cy="227.5" r="3.2" fill="#ff922b" opacity="0.85"/>
<circle cx="502.4" cy="227.3" r="3.2" fill="#ff922b" opacity="0.85"/>
<circle cx="523.7" cy="224.6" r="3.2" fill="#ff922b" opacity="0.85"/>
<circle cx="545.0" cy="224.4" r="3.2" fill="#ff922b" opacity="0.85"/>
<circle cx="566.4" cy="224.5" r="3.2" fill="#ff922b" opacity="0.85"/>
<circle cx="587.7" cy="227.4" r="3.2" fill="#ff922b" opacity="0.85"/>
<circle cx="609.0" cy="227.4" r="3.2" fill="#ff922b" opacity="0.85"/>
<circle cx="630.4" cy="227.4" r="3.2" fill="#ff922b" opacity="0.85"/>
<circle cx="651.7" cy="224.4" r="3.2" fill="#ff922b" opacity="0.85"/>
<circle cx="673.0" cy="227.4" r="3.2" fill="#ff922b" opacity="0.85"/>
<circle cx="694.4" cy="224.6" r="3.2" fill="#ff922b" opacity="0.85"/>
<circle cx="715.7" cy="227.1" r="3.2" fill="#ff922b" opacity="0.85"/>
<circle cx="737.0" cy="224.5" r="3.2" fill="#ff922b" opacity="0.85"/>
<circle cx="758.4" cy="224.5" r="3.2" fill="#ff922b" opacity="0.85"/>
<circle cx="779.7" cy="224.6" r="3.2" fill="#ff922b" opacity="0.85"/>
<circle cx="847" cy="84" r="5" fill="#ff922b"/>
<text x="866" y="88" font-size="13" fill="#c9d1d9" font-weight="700">Kāra</text>
<line x1="836" y1="108" x2="858" y2="108" stroke="#a7b0bc" stroke-width="2" stroke-dasharray="5 4"/>
<text x="866" y="112" font-size="13" fill="#c9d1d9" font-weight="400">Rust = 1.0×</text>
<circle cx="847" cy="132" r="4" fill="#3fb950"/>
<text x="866" y="136" font-size="13" fill="#c9d1d9" font-weight="400">C</text>
<circle cx="847" cy="156" r="4" fill="#bc8cff"/>
<text x="866" y="160" font-size="13" fill="#c9d1d9" font-weight="400">Go</text>
<text x="70" y="538" font-size="11.5" fill="#8b949e">Each dot is one benchmarked program (kata × approach); there is no connecting line because left-to-right order is not meaningful. Raw numbers: bench-results.json</text>
</svg>