<svg xmlns="http://www.w3.org/2000/svg" width="980" height="560" viewBox="0 0 980 560" font-family="-apple-system,Segoe UI,Helvetica,Arial,sans-serif">
<rect width="980" height="560" fill="#282c34"/>
<text x="70" y="34" font-size="21" font-weight="700" fill="#c9d1d9">Binary size — auto-parallel lane</text>
<text x="70" y="56" font-size="13" fill="#8b949e">relative to Rust = 1.0 · lower = smaller · 2 programs · log scale</text>
<line x1="70" y1="456.0" x2="812" y2="456.0" stroke="#3b414b" stroke-width="1"/>
<text x="60" y="460.0" font-size="12" text-anchor="end" fill="#8b949e">0.1×</text>
<line x1="70" y1="399.1" x2="812" y2="399.1" stroke="#3b414b" stroke-width="1"/>
<text x="60" y="403.1" font-size="12" text-anchor="end" fill="#8b949e">0.2×</text>
<line x1="70" y1="323.9" x2="812" y2="323.9" stroke="#3b414b" stroke-width="1"/>
<text x="60" y="327.9" font-size="12" text-anchor="end" fill="#8b949e">0.5×</text>
<line x1="70" y1="267.0" x2="812" y2="267.0" stroke="#a7b0bc" stroke-width="2" stroke-dasharray="5 4"/>
<text x="60" y="271.0" font-size="12" text-anchor="end" fill="#aeb6c0" font-weight="700">1×</text>
<line x1="70" y1="210.1" x2="812" y2="210.1" stroke="#3b414b" stroke-width="1"/>
<text x="60" y="214.1" font-size="12" text-anchor="end" fill="#8b949e">2×</text>
<line x1="70" y1="134.9" x2="812" y2="134.9" stroke="#3b414b" stroke-width="1"/>
<text x="60" y="138.9" font-size="12" text-anchor="end" fill="#8b949e">5×</text>
<line x1="70" y1="78.0" x2="812" y2="78.0" stroke="#3b414b" stroke-width="1"/>
<text x="60" y="82.0" font-size="12" text-anchor="end" fill="#8b949e">10×</text>
<text x="812" y="261.0" font-size="11" text-anchor="end" fill="#aeb6c0">Rust baseline</text>
<line x1="99.7" y1="456" x2="99.7" y2="461" stroke="#3b414b"/>
<g transform="translate(99.7,474) rotate(35)">
<text x="0" y="0" font-size="10.5" fill="#8b949e">#204</text>
<text x="0" y="12" font-size="10.5" fill="#8b949e">count</text>
</g>
<line x1="782.3" y1="456" x2="782.3" y2="461" stroke="#3b414b"/>
<g transform="translate(782.3,474) rotate(35)">
<text x="0" y="0" font-size="10.5" fill="#8b949e">#394</text>
<text x="0" y="12" font-size="10.5" fill="#8b949e">decode_string</text>
</g>
<circle cx="102.6" cy="128.2" r="4.0" fill="#bc8cff" opacity="0.95"/>
<circle cx="785.2" cy="128.6" r="4.0" fill="#bc8cff" opacity="0.95"/>
<circle cx="96.8" cy="285.6" r="5.0" fill="#ff922b" opacity="1.0"/>
<circle cx="779.4" cy="297.8" r="5.0" fill="#ff922b" opacity="1.0"/>
<circle cx="847" cy="84" r="5" fill="#ff922b"/>
<text x="866" y="88" font-size="13" fill="#c9d1d9" font-weight="700">Kāra</text>
<line x1="836" y1="108" x2="858" y2="108" stroke="#a7b0bc" stroke-width="2" stroke-dasharray="5 4"/>
<text x="866" y="112" font-size="13" fill="#c9d1d9" font-weight="400">Rust = 1.0×</text>
<circle cx="847" cy="132" r="4" fill="#bc8cff"/>
<text x="866" y="136" font-size="13" fill="#c9d1d9" font-weight="400">Go</text>
<text x="70" y="538" font-size="11.5" fill="#8b949e">Each dot is one benchmarked program (kata × approach); there is no connecting line because left-to-right order is not meaningful. Raw numbers: bench-results.json</text>
</svg>