<svg xmlns="http://www.w3.org/2000/svg" width="980" height="560" viewBox="0 0 980 560" font-family="-apple-system,Segoe UI,Helvetica,Arial,sans-serif">
<rect width="980" height="560" fill="#282c34"/>
<text x="70" y="34" font-size="21" font-weight="700" fill="#c9d1d9">Binary size — sequential lane</text>
<text x="70" y="56" font-size="13" fill="#8b949e">relative to Rust = 1.0 · lower = smaller · 65 programs · log scale</text>
<line x1="70" y1="456.0" x2="812" y2="456.0" stroke="#3b414b" stroke-width="1"/>
<text x="60" y="460.0" font-size="12" text-anchor="end" fill="#8b949e">0.01×</text>
<line x1="70" y1="418.1" x2="812" y2="418.1" stroke="#3b414b" stroke-width="1"/>
<text x="60" y="422.1" font-size="12" text-anchor="end" fill="#8b949e">0.02×</text>
<line x1="70" y1="367.9" x2="812" y2="367.9" stroke="#3b414b" stroke-width="1"/>
<text x="60" y="371.9" font-size="12" text-anchor="end" fill="#8b949e">0.05×</text>
<line x1="70" y1="330.0" x2="812" y2="330.0" stroke="#3b414b" stroke-width="1"/>
<text x="60" y="334.0" font-size="12" text-anchor="end" fill="#8b949e">0.1×</text>
<line x1="70" y1="292.1" x2="812" y2="292.1" stroke="#3b414b" stroke-width="1"/>
<text x="60" y="296.1" font-size="12" text-anchor="end" fill="#8b949e">0.2×</text>
<line x1="70" y1="241.9" x2="812" y2="241.9" stroke="#3b414b" stroke-width="1"/>
<text x="60" y="245.9" font-size="12" text-anchor="end" fill="#8b949e">0.5×</text>
<line x1="70" y1="204.0" x2="812" y2="204.0" stroke="#a7b0bc" stroke-width="2" stroke-dasharray="5 4"/>
<text x="60" y="208.0" font-size="12" text-anchor="end" fill="#aeb6c0" font-weight="700">1×</text>
<line x1="70" y1="166.1" x2="812" y2="166.1" stroke="#3b414b" stroke-width="1"/>
<text x="60" y="170.1" font-size="12" text-anchor="end" fill="#8b949e">2×</text>
<line x1="70" y1="115.9" x2="812" y2="115.9" stroke="#3b414b" stroke-width="1"/>
<text x="60" y="119.9" font-size="12" text-anchor="end" fill="#8b949e">5×</text>
<line x1="70" y1="78.0" x2="812" y2="78.0" stroke="#3b414b" stroke-width="1"/>
<text x="60" y="82.0" font-size="12" text-anchor="end" fill="#8b949e">10×</text>
<text x="812" y="198.0" font-size="11" text-anchor="end" fill="#aeb6c0">Rust baseline</text>
<line x1="70" y1="456" x2="812" y2="456" stroke="#3b414b"/>
<text x="441.0" y="478" font-size="11" text-anchor="middle" fill="#8b949e">65 programs (kata × approach) — x-order carries no meaning</text>
<circle cx="99.7" cy="347.9" r="2.6" fill="#3fb950" opacity="0.7"/>
<circle cx="110.3" cy="347.9" r="2.6" fill="#3fb950" opacity="0.7"/>
<circle cx="121.0" cy="347.9" r="2.6" fill="#3fb950" opacity="0.7"/>
<circle cx="131.7" cy="348.2" r="2.6" fill="#3fb950" opacity="0.7"/>
<circle cx="142.3" cy="348.1" r="2.6" fill="#3fb950" opacity="0.7"/>
<circle cx="153.0" cy="348.0" r="2.6" fill="#3fb950" opacity="0.7"/>
<circle cx="163.7" cy="347.6" r="2.6" fill="#3fb950" opacity="0.7"/>
<circle cx="174.3" cy="348.1" r="2.6" fill="#3fb950" opacity="0.7"/>
<circle cx="185.0" cy="348.1" r="2.6" fill="#3fb950" opacity="0.7"/>
<circle cx="195.7" cy="348.1" r="2.6" fill="#3fb950" opacity="0.7"/>
<circle cx="206.3" cy="348.1" r="2.6" fill="#3fb950" opacity="0.7"/>
<circle cx="217.0" cy="348.1" r="2.6" fill="#3fb950" opacity="0.7"/>
<circle cx="227.7" cy="348.0" r="2.6" fill="#3fb950" opacity="0.7"/>
<circle cx="238.3" cy="348.0" r="2.6" fill="#3fb950" opacity="0.7"/>
<circle cx="249.0" cy="348.0" r="2.6" fill="#3fb950" opacity="0.7"/>
<circle cx="259.7" cy="349.9" r="2.6" fill="#3fb950" opacity="0.7"/>
<circle cx="270.3" cy="348.0" r="2.6" fill="#3fb950" opacity="0.7"/>
<circle cx="281.0" cy="347.7" r="2.6" fill="#3fb950" opacity="0.7"/>
<circle cx="291.7" cy="349.9" r="2.6" fill="#3fb950" opacity="0.7"/>
<circle cx="302.3" cy="348.2" r="2.6" fill="#3fb950" opacity="0.7"/>
<circle cx="313.0" cy="348.0" r="2.6" fill="#3fb950" opacity="0.7"/>
<circle cx="323.7" cy="348.1" r="2.6" fill="#3fb950" opacity="0.7"/>
<circle cx="334.3" cy="347.9" r="2.6" fill="#3fb950" opacity="0.7"/>
<circle cx="345.0" cy="348.1" r="2.6" fill="#3fb950" opacity="0.7"/>
<circle cx="355.7" cy="348.2" r="2.6" fill="#3fb950" opacity="0.7"/>
<circle cx="366.3" cy="348.2" r="2.6" fill="#3fb950" opacity="0.7"/>
<circle cx="377.0" cy="348.0" r="2.6" fill="#3fb950" opacity="0.7"/>
<circle cx="387.7" cy="348.0" r="2.6" fill="#3fb950" opacity="0.7"/>
<circle cx="398.3" cy="348.0" r="2.6" fill="#3fb950" opacity="0.7"/>
<circle cx="409.0" cy="348.0" r="2.6" fill="#3fb950" opacity="0.7"/>
<circle cx="419.7" cy="348.2" r="2.6" fill="#3fb950" opacity="0.7"/>
<circle cx="430.3" cy="349.9" r="2.6" fill="#3fb950" opacity="0.7"/>
<circle cx="441.0" cy="348.0" r="2.6" fill="#3fb950" opacity="0.7"/>
<circle cx="451.7" cy="348.1" r="2.6" fill="#3fb950" opacity="0.7"/>
<circle cx="462.3" cy="348.1" r="2.6" fill="#3fb950" opacity="0.7"/>
<circle cx="473.0" cy="348.1" r="2.6" fill="#3fb950" opacity="0.7"/>
<circle cx="483.7" cy="348.1" r="2.6" fill="#3fb950" opacity="0.7"/>
<circle cx="494.3" cy="347.9" r="2.6" fill="#3fb950" opacity="0.7"/>
<circle cx="505.0" cy="347.9" r="2.6" fill="#3fb950" opacity="0.7"/>
<circle cx="515.7" cy="347.9" r="2.6" fill="#3fb950" opacity="0.7"/>
<circle cx="526.3" cy="348.0" r="2.6" fill="#3fb950" opacity="0.7"/>
<circle cx="537.0" cy="347.6" r="2.6" fill="#3fb950" opacity="0.7"/>
<circle cx="547.7" cy="348.1" r="2.6" fill="#3fb950" opacity="0.7"/>
<circle cx="558.3" cy="348.1" r="2.6" fill="#3fb950" opacity="0.7"/>
<circle cx="569.0" cy="347.9" r="2.6" fill="#3fb950" opacity="0.7"/>
<circle cx="579.7" cy="350.0" r="2.6" fill="#3fb950" opacity="0.7"/>
<circle cx="590.3" cy="348.1" r="2.6" fill="#3fb950" opacity="0.7"/>
<circle cx="601.0" cy="348.0" r="2.6" fill="#3fb950" opacity="0.7"/>
<circle cx="611.7" cy="348.0" r="2.6" fill="#3fb950" opacity="0.7"/>
<circle cx="622.3" cy="348.2" r="2.6" fill="#3fb950" opacity="0.7"/>
<circle cx="633.0" cy="348.1" r="2.6" fill="#3fb950" opacity="0.7"/>
<circle cx="643.7" cy="348.1" r="2.6" fill="#3fb950" opacity="0.7"/>
<circle cx="654.3" cy="350.0" r="2.6" fill="#3fb950" opacity="0.7"/>
<circle cx="665.0" cy="347.9" r="2.6" fill="#3fb950" opacity="0.7"/>
<circle cx="675.7" cy="347.9" r="2.6" fill="#3fb950" opacity="0.7"/>
<circle cx="686.3" cy="348.0" r="2.6" fill="#3fb950" opacity="0.7"/>
<circle cx="697.0" cy="348.0" r="2.6" fill="#3fb950" opacity="0.7"/>
<circle cx="707.7" cy="348.3" r="2.6" fill="#3fb950" opacity="0.7"/>
<circle cx="718.3" cy="348.3" r="2.6" fill="#3fb950" opacity="0.7"/>
<circle cx="729.0" cy="347.9" r="2.6" fill="#3fb950" opacity="0.7"/>
<circle cx="739.7" cy="347.8" r="2.6" fill="#3fb950" opacity="0.7"/>
<circle cx="750.3" cy="348.0" r="2.6" fill="#3fb950" opacity="0.7"/>
<circle cx="761.0" cy="347.8" r="2.6" fill="#3fb950" opacity="0.7"/>
<circle cx="771.7" cy="349.8" r="2.6" fill="#3fb950" opacity="0.7"/>
<circle cx="782.3" cy="349.5" r="2.6" fill="#3fb950" opacity="0.7"/>
<circle cx="101.6" cy="112.3" r="2.6" fill="#bc8cff" opacity="0.7"/>
<circle cx="112.3" cy="112.5" r="2.6" fill="#bc8cff" opacity="0.7"/>
<circle cx="122.9" cy="112.4" r="2.6" fill="#bc8cff" opacity="0.7"/>
<circle cx="133.6" cy="112.5" r="2.6" fill="#bc8cff" opacity="0.7"/>
<circle cx="144.3" cy="112.3" r="2.6" fill="#bc8cff" opacity="0.7"/>
<circle cx="154.9" cy="112.3" r="2.6" fill="#bc8cff" opacity="0.7"/>
<circle cx="165.6" cy="112.3" r="2.6" fill="#bc8cff" opacity="0.7"/>
<circle cx="176.3" cy="112.3" r="2.6" fill="#bc8cff" opacity="0.7"/>
<circle cx="186.9" cy="112.3" r="2.6" fill="#bc8cff" opacity="0.7"/>
<circle cx="197.6" cy="112.3" r="2.6" fill="#bc8cff" opacity="0.7"/>
<circle cx="208.3" cy="112.3" r="2.6" fill="#bc8cff" opacity="0.7"/>
<circle cx="218.9" cy="112.3" r="2.6" fill="#bc8cff" opacity="0.7"/>
<circle cx="229.6" cy="112.3" r="2.6" fill="#bc8cff" opacity="0.7"/>
<circle cx="240.3" cy="112.3" r="2.6" fill="#bc8cff" opacity="0.7"/>
<circle cx="250.9" cy="112.3" r="2.6" fill="#bc8cff" opacity="0.7"/>
<circle cx="261.6" cy="113.9" r="2.6" fill="#bc8cff" opacity="0.7"/>
<circle cx="272.3" cy="111.9" r="2.6" fill="#bc8cff" opacity="0.7"/>
<circle cx="282.9" cy="112.3" r="2.6" fill="#bc8cff" opacity="0.7"/>
<circle cx="293.6" cy="113.9" r="2.6" fill="#bc8cff" opacity="0.7"/>
<circle cx="304.3" cy="112.4" r="2.6" fill="#bc8cff" opacity="0.7"/>
<circle cx="314.9" cy="112.3" r="2.6" fill="#bc8cff" opacity="0.7"/>
<circle cx="325.6" cy="112.4" r="2.6" fill="#bc8cff" opacity="0.7"/>
<circle cx="336.3" cy="112.4" r="2.6" fill="#bc8cff" opacity="0.7"/>
<circle cx="346.9" cy="112.4" r="2.6" fill="#bc8cff" opacity="0.7"/>
<circle cx="357.6" cy="112.4" r="2.6" fill="#bc8cff" opacity="0.7"/>
<circle cx="368.3" cy="112.4" r="2.6" fill="#bc8cff" opacity="0.7"/>
<circle cx="378.9" cy="112.3" r="2.6" fill="#bc8cff" opacity="0.7"/>
<circle cx="389.6" cy="112.3" r="2.6" fill="#bc8cff" opacity="0.7"/>
<circle cx="400.3" cy="112.3" r="2.6" fill="#bc8cff" opacity="0.7"/>
<circle cx="410.9" cy="112.3" r="2.6" fill="#bc8cff" opacity="0.7"/>
<circle cx="421.6" cy="112.3" r="2.6" fill="#bc8cff" opacity="0.7"/>
<circle cx="432.3" cy="114.4" r="2.6" fill="#bc8cff" opacity="0.7"/>
<circle cx="442.9" cy="112.3" r="2.6" fill="#bc8cff" opacity="0.7"/>
<circle cx="453.6" cy="112.4" r="2.6" fill="#bc8cff" opacity="0.7"/>
<circle cx="464.3" cy="112.3" r="2.6" fill="#bc8cff" opacity="0.7"/>
<circle cx="474.9" cy="112.3" r="2.6" fill="#bc8cff" opacity="0.7"/>
<circle cx="485.6" cy="112.3" r="2.6" fill="#bc8cff" opacity="0.7"/>
<circle cx="496.3" cy="112.3" r="2.6" fill="#bc8cff" opacity="0.7"/>
<circle cx="506.9" cy="112.3" r="2.6" fill="#bc8cff" opacity="0.7"/>
<circle cx="517.6" cy="112.4" r="2.6" fill="#bc8cff" opacity="0.7"/>
<circle cx="528.3" cy="112.4" r="2.6" fill="#bc8cff" opacity="0.7"/>
<circle cx="538.9" cy="111.9" r="2.6" fill="#bc8cff" opacity="0.7"/>
<circle cx="549.6" cy="112.3" r="2.6" fill="#bc8cff" opacity="0.7"/>
<circle cx="560.3" cy="112.3" r="2.6" fill="#bc8cff" opacity="0.7"/>
<circle cx="570.9" cy="112.3" r="2.6" fill="#bc8cff" opacity="0.7"/>
<circle cx="581.6" cy="113.9" r="2.6" fill="#bc8cff" opacity="0.7"/>
<circle cx="592.3" cy="112.3" r="2.6" fill="#bc8cff" opacity="0.7"/>
<circle cx="602.9" cy="112.3" r="2.6" fill="#bc8cff" opacity="0.7"/>
<circle cx="613.6" cy="112.3" r="2.6" fill="#bc8cff" opacity="0.7"/>
<circle cx="624.3" cy="112.3" r="2.6" fill="#bc8cff" opacity="0.7"/>
<circle cx="634.9" cy="112.3" r="2.6" fill="#bc8cff" opacity="0.7"/>
<circle cx="645.6" cy="112.3" r="2.6" fill="#bc8cff" opacity="0.7"/>
<circle cx="656.3" cy="114.7" r="2.6" fill="#bc8cff" opacity="0.7"/>
<circle cx="666.9" cy="112.3" r="2.6" fill="#bc8cff" opacity="0.7"/>
<circle cx="677.6" cy="112.3" r="2.6" fill="#bc8cff" opacity="0.7"/>
<circle cx="688.3" cy="112.4" r="2.6" fill="#bc8cff" opacity="0.7"/>
<circle cx="698.9" cy="112.3" r="2.6" fill="#bc8cff" opacity="0.7"/>
<circle cx="709.6" cy="112.5" r="2.6" fill="#bc8cff" opacity="0.7"/>
<circle cx="720.3" cy="112.5" r="2.6" fill="#bc8cff" opacity="0.7"/>
<circle cx="730.9" cy="112.3" r="2.6" fill="#bc8cff" opacity="0.7"/>
<circle cx="741.6" cy="112.3" r="2.6" fill="#bc8cff" opacity="0.7"/>
<circle cx="752.3" cy="112.3" r="2.6" fill="#bc8cff" opacity="0.7"/>
<circle cx="762.9" cy="112.3" r="2.6" fill="#bc8cff" opacity="0.7"/>
<circle cx="773.6" cy="113.8" r="2.6" fill="#bc8cff" opacity="0.7"/>
<circle cx="784.3" cy="114.5" r="2.6" fill="#bc8cff" opacity="0.7"/>
<circle cx="97.7" cy="347.6" r="3.2" fill="#ff922b" opacity="0.85"/>
<circle cx="108.4" cy="231.0" r="3.2" fill="#ff922b" opacity="0.85"/>
<circle cx="119.1" cy="347.1" r="3.2" fill="#ff922b" opacity="0.85"/>
<circle cx="129.7" cy="231.0" r="3.2" fill="#ff922b" opacity="0.85"/>
<circle cx="140.4" cy="347.2" r="3.2" fill="#ff922b" opacity="0.85"/>
<circle cx="151.1" cy="346.9" r="3.2" fill="#ff922b" opacity="0.85"/>
<circle cx="161.7" cy="347.0" r="3.2" fill="#ff922b" opacity="0.85"/>
<circle cx="172.4" cy="347.1" r="3.2" fill="#ff922b" opacity="0.85"/>
<circle cx="183.1" cy="347.3" r="3.2" fill="#ff922b" opacity="0.85"/>
<circle cx="193.7" cy="347.2" r="3.2" fill="#ff922b" opacity="0.85"/>
<circle cx="204.4" cy="347.3" r="3.2" fill="#ff922b" opacity="0.85"/>
<circle cx="215.1" cy="347.2" r="3.2" fill="#ff922b" opacity="0.85"/>
<circle cx="225.7" cy="347.1" r="3.2" fill="#ff922b" opacity="0.85"/>
<circle cx="236.4" cy="347.1" r="3.2" fill="#ff922b" opacity="0.85"/>
<circle cx="247.1" cy="346.9" r="3.2" fill="#ff922b" opacity="0.85"/>
<circle cx="257.7" cy="348.9" r="3.2" fill="#ff922b" opacity="0.85"/>
<circle cx="268.4" cy="346.9" r="3.2" fill="#ff922b" opacity="0.85"/>
<circle cx="279.1" cy="230.8" r="3.2" fill="#ff922b" opacity="0.85"/>
<circle cx="289.7" cy="348.9" r="3.2" fill="#ff922b" opacity="0.85"/>
<circle cx="300.4" cy="347.6" r="3.2" fill="#ff922b" opacity="0.85"/>
<circle cx="311.1" cy="347.1" r="3.2" fill="#ff922b" opacity="0.85"/>
<circle cx="321.7" cy="347.6" r="3.2" fill="#ff922b" opacity="0.85"/>
<circle cx="332.4" cy="347.2" r="3.2" fill="#ff922b" opacity="0.85"/>
<circle cx="343.1" cy="347.3" r="3.2" fill="#ff922b" opacity="0.85"/>
<circle cx="353.7" cy="347.5" r="3.2" fill="#ff922b" opacity="0.85"/>
<circle cx="364.4" cy="347.5" r="3.2" fill="#ff922b" opacity="0.85"/>
<circle cx="375.1" cy="347.2" r="3.2" fill="#ff922b" opacity="0.85"/>
<circle cx="385.7" cy="347.2" r="3.2" fill="#ff922b" opacity="0.85"/>
<circle cx="396.4" cy="347.2" r="3.2" fill="#ff922b" opacity="0.85"/>
<circle cx="407.1" cy="347.2" r="3.2" fill="#ff922b" opacity="0.85"/>
<circle cx="417.7" cy="347.7" r="3.2" fill="#ff922b" opacity="0.85"/>
<circle cx="428.4" cy="229.8" r="3.2" fill="#ff922b" opacity="0.85"/>
<circle cx="439.1" cy="347.4" r="3.2" fill="#ff922b" opacity="0.85"/>
<circle cx="449.7" cy="347.2" r="3.2" fill="#ff922b" opacity="0.85"/>
<circle cx="460.4" cy="347.1" r="3.2" fill="#ff922b" opacity="0.85"/>
<circle cx="471.1" cy="347.1" r="3.2" fill="#ff922b" opacity="0.85"/>
<circle cx="481.7" cy="347.1" r="3.2" fill="#ff922b" opacity="0.85"/>
<circle cx="492.4" cy="347.6" r="3.2" fill="#ff922b" opacity="0.85"/>
<circle cx="503.1" cy="347.4" r="3.2" fill="#ff922b" opacity="0.85"/>
<circle cx="513.7" cy="346.9" r="3.2" fill="#ff922b" opacity="0.85"/>
<circle cx="524.4" cy="347.2" r="3.2" fill="#ff922b" opacity="0.85"/>
<circle cx="535.1" cy="347.2" r="3.2" fill="#ff922b" opacity="0.85"/>
<circle cx="545.7" cy="347.0" r="3.2" fill="#ff922b" opacity="0.85"/>
<circle cx="556.4" cy="347.0" r="3.2" fill="#ff922b" opacity="0.85"/>
<circle cx="567.1" cy="227.8" r="3.2" fill="#ff922b" opacity="0.85"/>
<circle cx="577.7" cy="348.9" r="3.2" fill="#ff922b" opacity="0.85"/>
<circle cx="588.4" cy="347.3" r="3.2" fill="#ff922b" opacity="0.85"/>
<circle cx="599.1" cy="346.9" r="3.2" fill="#ff922b" opacity="0.85"/>
<circle cx="609.7" cy="347.2" r="3.2" fill="#ff922b" opacity="0.85"/>
<circle cx="620.4" cy="347.3" r="3.2" fill="#ff922b" opacity="0.85"/>
<circle cx="631.1" cy="347.2" r="3.2" fill="#ff922b" opacity="0.85"/>
<circle cx="641.7" cy="347.1" r="3.2" fill="#ff922b" opacity="0.85"/>
<circle cx="652.4" cy="227.0" r="3.2" fill="#ff922b" opacity="0.85"/>
<circle cx="663.1" cy="347.1" r="3.2" fill="#ff922b" opacity="0.85"/>
<circle cx="673.7" cy="347.2" r="3.2" fill="#ff922b" opacity="0.85"/>
<circle cx="684.4" cy="227.9" r="3.2" fill="#ff922b" opacity="0.85"/>
<circle cx="695.1" cy="347.3" r="3.2" fill="#ff922b" opacity="0.85"/>
<circle cx="705.7" cy="347.3" r="3.2" fill="#ff922b" opacity="0.85"/>
<circle cx="716.4" cy="347.4" r="3.2" fill="#ff922b" opacity="0.85"/>
<circle cx="727.1" cy="227.8" r="3.2" fill="#ff922b" opacity="0.85"/>
<circle cx="737.7" cy="230.8" r="3.2" fill="#ff922b" opacity="0.85"/>
<circle cx="748.4" cy="227.8" r="3.2" fill="#ff922b" opacity="0.85"/>
<circle cx="759.1" cy="347.1" r="3.2" fill="#ff922b" opacity="0.85"/>
<circle cx="769.7" cy="348.8" r="3.2" fill="#ff922b" opacity="0.85"/>
<circle cx="780.4" cy="233.0" r="3.2" fill="#ff922b" opacity="0.85"/>
<circle cx="847" cy="84" r="5" fill="#ff922b"/>
<text x="866" y="88" font-size="13" fill="#c9d1d9" font-weight="700">Kāra</text>
<line x1="836" y1="108" x2="858" y2="108" stroke="#a7b0bc" stroke-width="2" stroke-dasharray="5 4"/>
<text x="866" y="112" font-size="13" fill="#c9d1d9" font-weight="400">Rust = 1.0×</text>
<circle cx="847" cy="132" r="4" fill="#3fb950"/>
<text x="866" y="136" font-size="13" fill="#c9d1d9" font-weight="400">C</text>
<circle cx="847" cy="156" r="4" fill="#bc8cff"/>
<text x="866" y="160" font-size="13" fill="#c9d1d9" font-weight="400">Go</text>
<text x="70" y="538" font-size="11.5" fill="#8b949e">Each dot is one benchmarked program (kata × approach); there is no connecting line because left-to-right order is not meaningful. Raw numbers: bench-results.json</text>
</svg>