<svg xmlns="http://www.w3.org/2000/svg" width="980" height="560" viewBox="0 0 980 560" font-family="-apple-system,Segoe UI,Helvetica,Arial,sans-serif">
<rect width="980" height="560" fill="#282c34"/>
<text x="70" y="34" font-size="21" font-weight="700" fill="#c9d1d9">Binary size — sequential lane</text>
<text x="70" y="56" font-size="13" fill="#8b949e">relative to Rust = 1.0 · lower = smaller · 22 programs · log scale</text>
<line x1="70" y1="456.0" x2="812" y2="456.0" stroke="#3b414b" stroke-width="1"/>
<text x="60" y="460.0" font-size="12" text-anchor="end" fill="#8b949e">0.01×</text>
<line x1="70" y1="418.1" x2="812" y2="418.1" stroke="#3b414b" stroke-width="1"/>
<text x="60" y="422.1" font-size="12" text-anchor="end" fill="#8b949e">0.02×</text>
<line x1="70" y1="367.9" x2="812" y2="367.9" stroke="#3b414b" stroke-width="1"/>
<text x="60" y="371.9" font-size="12" text-anchor="end" fill="#8b949e">0.05×</text>
<line x1="70" y1="330.0" x2="812" y2="330.0" stroke="#3b414b" stroke-width="1"/>
<text x="60" y="334.0" font-size="12" text-anchor="end" fill="#8b949e">0.1×</text>
<line x1="70" y1="292.1" x2="812" y2="292.1" stroke="#3b414b" stroke-width="1"/>
<text x="60" y="296.1" font-size="12" text-anchor="end" fill="#8b949e">0.2×</text>
<line x1="70" y1="241.9" x2="812" y2="241.9" stroke="#3b414b" stroke-width="1"/>
<text x="60" y="245.9" font-size="12" text-anchor="end" fill="#8b949e">0.5×</text>
<line x1="70" y1="204.0" x2="812" y2="204.0" stroke="#6e7681" stroke-width="1.4" stroke-dasharray="5 4"/>
<text x="60" y="208.0" font-size="12" text-anchor="end" fill="#aeb6c0" font-weight="700">1×</text>
<line x1="70" y1="166.1" x2="812" y2="166.1" stroke="#3b414b" stroke-width="1"/>
<text x="60" y="170.1" font-size="12" text-anchor="end" fill="#8b949e">2×</text>
<line x1="70" y1="115.9" x2="812" y2="115.9" stroke="#3b414b" stroke-width="1"/>
<text x="60" y="119.9" font-size="12" text-anchor="end" fill="#8b949e">5×</text>
<line x1="70" y1="78.0" x2="812" y2="78.0" stroke="#3b414b" stroke-width="1"/>
<text x="60" y="82.0" font-size="12" text-anchor="end" fill="#8b949e">10×</text>
<text x="812" y="198.0" font-size="11" text-anchor="end" fill="#aeb6c0">Rust baseline</text>
<line x1="99.7" y1="456" x2="99.7" y2="461" stroke="#3b414b"/>
<g transform="translate(99.7,474) rotate(35)">
<text x="0" y="0" font-size="10.5" fill="#8b949e">#1</text>
<text x="0" y="12" font-size="10.5" fill="#8b949e">brute_force</text>
</g>
<line x1="132.2" y1="456" x2="132.2" y2="461" stroke="#3b414b"/>
<g transform="translate(132.2,474) rotate(35)">
<text x="0" y="0" font-size="10.5" fill="#8b949e">#1</text>
<text x="0" y="12" font-size="10.5" fill="#8b949e">hash_map</text>
</g>
<line x1="164.7" y1="456" x2="164.7" y2="461" stroke="#3b414b"/>
<g transform="translate(164.7,474) rotate(35)">
<text x="0" y="0" font-size="10.5" fill="#8b949e">#2</text>
<text x="0" y="12" font-size="10.5" fill="#8b949e">iterative</text>
</g>
<line x1="197.2" y1="456" x2="197.2" y2="461" stroke="#3b414b"/>
<g transform="translate(197.2,474) rotate(35)">
<text x="0" y="0" font-size="10.5" fill="#8b949e">#3</text>
<text x="0" y="12" font-size="10.5" fill="#8b949e">sliding_window</text>
</g>
<line x1="229.7" y1="456" x2="229.7" y2="461" stroke="#3b414b"/>
<g transform="translate(229.7,474) rotate(35)">
<text x="0" y="0" font-size="10.5" fill="#8b949e">#4</text>
<text x="0" y="12" font-size="10.5" fill="#8b949e">binary_search…</text>
</g>
<line x1="262.2" y1="456" x2="262.2" y2="461" stroke="#3b414b"/>
<g transform="translate(262.2,474) rotate(35)">
<text x="0" y="0" font-size="10.5" fill="#8b949e">#5</text>
<text x="0" y="12" font-size="10.5" fill="#8b949e">expand_around…</text>
</g>
<line x1="294.7" y1="456" x2="294.7" y2="461" stroke="#3b414b"/>
<g transform="translate(294.7,474) rotate(35)">
<text x="0" y="0" font-size="10.5" fill="#8b949e">#6</text>
<text x="0" y="12" font-size="10.5" fill="#8b949e">row_buffers</text>
</g>
<line x1="327.2" y1="456" x2="327.2" y2="461" stroke="#3b414b"/>
<g transform="translate(327.2,474) rotate(35)">
<text x="0" y="0" font-size="10.5" fill="#8b949e">#7</text>
<text x="0" y="12" font-size="10.5" fill="#8b949e">reverse</text>
</g>
<line x1="359.7" y1="456" x2="359.7" y2="461" stroke="#3b414b"/>
<g transform="translate(359.7,474) rotate(35)">
<text x="0" y="0" font-size="10.5" fill="#8b949e">#8</text>
<text x="0" y="12" font-size="10.5" fill="#8b949e">atoi</text>
</g>
<line x1="392.2" y1="456" x2="392.2" y2="461" stroke="#3b414b"/>
<g transform="translate(392.2,474) rotate(35)">
<text x="0" y="0" font-size="10.5" fill="#8b949e">#9</text>
<text x="0" y="12" font-size="10.5" fill="#8b949e">palindrome</text>
</g>
<line x1="424.7" y1="456" x2="424.7" y2="461" stroke="#3b414b"/>
<g transform="translate(424.7,474) rotate(35)">
<text x="0" y="0" font-size="10.5" fill="#8b949e">#10</text>
<text x="0" y="12" font-size="10.5" fill="#8b949e">regex</text>
</g>
<line x1="457.3" y1="456" x2="457.3" y2="461" stroke="#3b414b"/>
<g transform="translate(457.3,474) rotate(35)">
<text x="0" y="0" font-size="10.5" fill="#8b949e">#11</text>
<text x="0" y="12" font-size="10.5" fill="#8b949e">container</text>
</g>
<line x1="489.8" y1="456" x2="489.8" y2="461" stroke="#3b414b"/>
<g transform="translate(489.8,474) rotate(35)">
<text x="0" y="0" font-size="10.5" fill="#8b949e">#12</text>
<text x="0" y="12" font-size="10.5" fill="#8b949e">greedy</text>
</g>
<line x1="522.3" y1="456" x2="522.3" y2="461" stroke="#3b414b"/>
<g transform="translate(522.3,474) rotate(35)">
<text x="0" y="0" font-size="10.5" fill="#8b949e">#13</text>
<text x="0" y="12" font-size="10.5" fill="#8b949e">greedy</text>
</g>
<line x1="554.8" y1="456" x2="554.8" y2="461" stroke="#3b414b"/>
<g transform="translate(554.8,474) rotate(35)">
<text x="0" y="0" font-size="10.5" fill="#8b949e">#14</text>
<text x="0" y="12" font-size="10.5" fill="#8b949e">vertical</text>
</g>
<line x1="587.3" y1="456" x2="587.3" y2="461" stroke="#3b414b"/>
<g transform="translate(587.3,474) rotate(35)">
<text x="0" y="0" font-size="10.5" fill="#8b949e">#15</text>
<text x="0" y="12" font-size="10.5" fill="#8b949e">three_sum</text>
</g>
<line x1="619.8" y1="456" x2="619.8" y2="461" stroke="#3b414b"/>
<g transform="translate(619.8,474) rotate(35)">
<text x="0" y="0" font-size="10.5" fill="#8b949e">#16</text>
<text x="0" y="12" font-size="10.5" fill="#8b949e">three_sum_clo…</text>
</g>
<line x1="652.3" y1="456" x2="652.3" y2="461" stroke="#3b414b"/>
<g transform="translate(652.3,474) rotate(35)">
<text x="0" y="0" font-size="10.5" fill="#8b949e">#17</text>
<text x="0" y="12" font-size="10.5" fill="#8b949e">letter_combin…</text>
</g>
<line x1="684.8" y1="456" x2="684.8" y2="461" stroke="#3b414b"/>
<g transform="translate(684.8,474) rotate(35)">
<text x="0" y="0" font-size="10.5" fill="#8b949e">#18</text>
<text x="0" y="12" font-size="10.5" fill="#8b949e">four_sum</text>
</g>
<line x1="717.3" y1="456" x2="717.3" y2="461" stroke="#3b414b"/>
<g transform="translate(717.3,474) rotate(35)">
<text x="0" y="0" font-size="10.5" fill="#8b949e">#19</text>
<text x="0" y="12" font-size="10.5" fill="#8b949e">remove_nth</text>
</g>
<line x1="749.8" y1="456" x2="749.8" y2="461" stroke="#3b414b"/>
<g transform="translate(749.8,474) rotate(35)">
<text x="0" y="0" font-size="10.5" fill="#8b949e">#20</text>
<text x="0" y="12" font-size="10.5" fill="#8b949e">valid_parenth…</text>
</g>
<line x1="782.3" y1="456" x2="782.3" y2="461" stroke="#3b414b"/>
<g transform="translate(782.3,474) rotate(35)">
<text x="0" y="0" font-size="10.5" fill="#8b949e">#204</text>
<text x="0" y="12" font-size="10.5" fill="#8b949e">count</text>
</g>
<circle cx="99.7" cy="347.9" r="4.0" fill="#3fb950" opacity="0.95"/>
<circle cx="132.2" cy="347.9" r="4.0" fill="#3fb950" opacity="0.95"/>
<circle cx="164.7" cy="347.9" r="4.0" fill="#3fb950" opacity="0.95"/>
<circle cx="197.2" cy="348.2" r="4.0" fill="#3fb950" opacity="0.95"/>
<circle cx="229.7" cy="348.1" r="4.0" fill="#3fb950" opacity="0.95"/>
<circle cx="262.2" cy="348.0" r="4.0" fill="#3fb950" opacity="0.95"/>
<circle cx="294.7" cy="347.6" r="4.0" fill="#3fb950" opacity="0.95"/>
<circle cx="327.2" cy="348.1" r="4.0" fill="#3fb950" opacity="0.95"/>
<circle cx="359.7" cy="348.1" r="4.0" fill="#3fb950" opacity="0.95"/>
<circle cx="392.2" cy="348.1" r="4.0" fill="#3fb950" opacity="0.95"/>
<circle cx="424.7" cy="348.1" r="4.0" fill="#3fb950" opacity="0.95"/>
<circle cx="457.3" cy="348.1" r="4.0" fill="#3fb950" opacity="0.95"/>
<circle cx="489.8" cy="348.0" r="4.0" fill="#3fb950" opacity="0.95"/>
<circle cx="522.3" cy="348.0" r="4.0" fill="#3fb950" opacity="0.95"/>
<circle cx="554.8" cy="348.0" r="4.0" fill="#3fb950" opacity="0.95"/>
<circle cx="587.3" cy="349.9" r="4.0" fill="#3fb950" opacity="0.95"/>
<circle cx="619.8" cy="348.0" r="4.0" fill="#3fb950" opacity="0.95"/>
<circle cx="652.3" cy="347.7" r="4.0" fill="#3fb950" opacity="0.95"/>
<circle cx="684.8" cy="349.9" r="4.0" fill="#3fb950" opacity="0.95"/>
<circle cx="717.3" cy="348.2" r="4.0" fill="#3fb950" opacity="0.95"/>
<circle cx="749.8" cy="348.0" r="4.0" fill="#3fb950" opacity="0.95"/>
<circle cx="782.3" cy="348.0" r="4.0" fill="#3fb950" opacity="0.95"/>
<circle cx="103.5" cy="112.3" r="4.0" fill="#bc8cff" opacity="0.95"/>
<circle cx="136.0" cy="112.5" r="4.0" fill="#bc8cff" opacity="0.95"/>
<circle cx="168.5" cy="112.4" r="4.0" fill="#bc8cff" opacity="0.95"/>
<circle cx="201.0" cy="112.5" r="4.0" fill="#bc8cff" opacity="0.95"/>
<circle cx="233.5" cy="112.3" r="4.0" fill="#bc8cff" opacity="0.95"/>
<circle cx="266.0" cy="112.3" r="4.0" fill="#bc8cff" opacity="0.95"/>
<circle cx="298.6" cy="112.3" r="4.0" fill="#bc8cff" opacity="0.95"/>
<circle cx="331.1" cy="112.3" r="4.0" fill="#bc8cff" opacity="0.95"/>
<circle cx="363.6" cy="112.3" r="4.0" fill="#bc8cff" opacity="0.95"/>
<circle cx="396.1" cy="112.3" r="4.0" fill="#bc8cff" opacity="0.95"/>
<circle cx="428.6" cy="112.3" r="4.0" fill="#bc8cff" opacity="0.95"/>
<circle cx="461.1" cy="112.3" r="4.0" fill="#bc8cff" opacity="0.95"/>
<circle cx="493.6" cy="112.3" r="4.0" fill="#bc8cff" opacity="0.95"/>
<circle cx="526.1" cy="112.3" r="4.0" fill="#bc8cff" opacity="0.95"/>
<circle cx="558.6" cy="112.3" r="4.0" fill="#bc8cff" opacity="0.95"/>
<circle cx="591.1" cy="113.9" r="4.0" fill="#bc8cff" opacity="0.95"/>
<circle cx="623.6" cy="111.9" r="4.0" fill="#bc8cff" opacity="0.95"/>
<circle cx="656.1" cy="112.3" r="4.0" fill="#bc8cff" opacity="0.95"/>
<circle cx="688.6" cy="113.9" r="4.0" fill="#bc8cff" opacity="0.95"/>
<circle cx="721.1" cy="112.4" r="4.0" fill="#bc8cff" opacity="0.95"/>
<circle cx="753.6" cy="112.3" r="4.0" fill="#bc8cff" opacity="0.95"/>
<circle cx="786.2" cy="112.3" r="4.0" fill="#bc8cff" opacity="0.95"/>
<circle cx="95.8" cy="348.0" r="5.0" fill="#ff922b" opacity="1.0"/>
<circle cx="128.4" cy="231.1" r="5.0" fill="#ff922b" opacity="1.0"/>
<circle cx="160.9" cy="348.0" r="5.0" fill="#ff922b" opacity="1.0"/>
<circle cx="193.4" cy="231.1" r="5.0" fill="#ff922b" opacity="1.0"/>
<circle cx="225.9" cy="347.7" r="5.0" fill="#ff922b" opacity="1.0"/>
<circle cx="258.4" cy="347.7" r="5.0" fill="#ff922b" opacity="1.0"/>
<circle cx="290.9" cy="347.6" r="5.0" fill="#ff922b" opacity="1.0"/>
<circle cx="323.4" cy="347.9" r="5.0" fill="#ff922b" opacity="1.0"/>
<circle cx="355.9" cy="347.9" r="5.0" fill="#ff922b" opacity="1.0"/>
<circle cx="388.4" cy="347.9" r="5.0" fill="#ff922b" opacity="1.0"/>
<circle cx="420.9" cy="347.8" r="5.0" fill="#ff922b" opacity="1.0"/>
<circle cx="453.4" cy="347.9" r="5.0" fill="#ff922b" opacity="1.0"/>
<circle cx="485.9" cy="347.9" r="5.0" fill="#ff922b" opacity="1.0"/>
<circle cx="518.4" cy="347.9" r="5.0" fill="#ff922b" opacity="1.0"/>
<circle cx="550.9" cy="347.7" r="5.0" fill="#ff922b" opacity="1.0"/>
<circle cx="583.4" cy="229.9" r="5.0" fill="#ff922b" opacity="1.0"/>
<circle cx="616.0" cy="227.9" r="5.0" fill="#ff922b" opacity="1.0"/>
<circle cx="648.5" cy="347.5" r="5.0" fill="#ff922b" opacity="1.0"/>
<circle cx="681.0" cy="229.9" r="5.0" fill="#ff922b" opacity="1.0"/>
<circle cx="713.5" cy="348.0" r="5.0" fill="#ff922b" opacity="1.0"/>
<circle cx="746.0" cy="347.9" r="5.0" fill="#ff922b" opacity="1.0"/>
<circle cx="778.5" cy="347.9" r="5.0" fill="#ff922b" opacity="1.0"/>
<circle cx="847" cy="84" r="5" fill="#ff922b"/>
<text x="866" y="88" font-size="13" fill="#c9d1d9" font-weight="700">Kāra</text>
<line x1="836" y1="108" x2="858" y2="108" stroke="#6e7681" stroke-width="1.6" stroke-dasharray="5 4"/>
<text x="866" y="112" font-size="13" fill="#c9d1d9" font-weight="400">Rust</text>
<circle cx="847" cy="132" r="4" fill="#3fb950"/>
<text x="866" y="136" font-size="13" fill="#c9d1d9" font-weight="400">C</text>
<circle cx="847" cy="156" r="4" fill="#bc8cff"/>
<text x="866" y="160" font-size="13" fill="#c9d1d9" font-weight="400">Go</text>
<text x="70" y="538" font-size="11.5" fill="#8b949e">Each dot is one benchmarked program (kata × approach); there is no connecting line because left-to-right order is not meaningful. Raw numbers: bench-results.json</text>
</svg>