<svg xmlns="http://www.w3.org/2000/svg" width="980" height="560" viewBox="0 0 980 560" font-family="-apple-system,Segoe UI,Helvetica,Arial,sans-serif">
<rect width="980" height="560" fill="#282c34"/>
<text x="70" y="34" font-size="21" font-weight="700" fill="#c9d1d9">Binary size — sequential lane</text>
<text x="70" y="56" font-size="13" fill="#8b949e">relative to Rust = 1.0 · lower = smaller · 17 programs · log scale</text>
<line x1="70" y1="456.0" x2="812" y2="456.0" stroke="#3b414b" stroke-width="1"/>
<text x="60" y="460.0" font-size="12" text-anchor="end" fill="#8b949e">0.01×</text>
<line x1="70" y1="418.1" x2="812" y2="418.1" stroke="#3b414b" stroke-width="1"/>
<text x="60" y="422.1" font-size="12" text-anchor="end" fill="#8b949e">0.02×</text>
<line x1="70" y1="367.9" x2="812" y2="367.9" stroke="#3b414b" stroke-width="1"/>
<text x="60" y="371.9" font-size="12" text-anchor="end" fill="#8b949e">0.05×</text>
<line x1="70" y1="330.0" x2="812" y2="330.0" stroke="#3b414b" stroke-width="1"/>
<text x="60" y="334.0" font-size="12" text-anchor="end" fill="#8b949e">0.1×</text>
<line x1="70" y1="292.1" x2="812" y2="292.1" stroke="#3b414b" stroke-width="1"/>
<text x="60" y="296.1" font-size="12" text-anchor="end" fill="#8b949e">0.2×</text>
<line x1="70" y1="241.9" x2="812" y2="241.9" stroke="#3b414b" stroke-width="1"/>
<text x="60" y="245.9" font-size="12" text-anchor="end" fill="#8b949e">0.5×</text>
<line x1="70" y1="204.0" x2="812" y2="204.0" stroke="#6e7681" stroke-width="1.4" stroke-dasharray="5 4"/>
<text x="60" y="208.0" font-size="12" text-anchor="end" fill="#aeb6c0" font-weight="700">1×</text>
<line x1="70" y1="166.1" x2="812" y2="166.1" stroke="#3b414b" stroke-width="1"/>
<text x="60" y="170.1" font-size="12" text-anchor="end" fill="#8b949e">2×</text>
<line x1="70" y1="115.9" x2="812" y2="115.9" stroke="#3b414b" stroke-width="1"/>
<text x="60" y="119.9" font-size="12" text-anchor="end" fill="#8b949e">5×</text>
<line x1="70" y1="78.0" x2="812" y2="78.0" stroke="#3b414b" stroke-width="1"/>
<text x="60" y="82.0" font-size="12" text-anchor="end" fill="#8b949e">10×</text>
<text x="812" y="198.0" font-size="11" text-anchor="end" fill="#aeb6c0">Rust baseline</text>
<line x1="99.7" y1="456" x2="99.7" y2="461" stroke="#3b414b"/>
<g transform="translate(99.7,474) rotate(35)">
<text x="0" y="0" font-size="10.5" fill="#8b949e">#1</text>
<text x="0" y="12" font-size="10.5" fill="#8b949e">brute_force</text>
</g>
<line x1="142.3" y1="456" x2="142.3" y2="461" stroke="#3b414b"/>
<g transform="translate(142.3,474) rotate(35)">
<text x="0" y="0" font-size="10.5" fill="#8b949e">#1</text>
<text x="0" y="12" font-size="10.5" fill="#8b949e">hash_map</text>
</g>
<line x1="185.0" y1="456" x2="185.0" y2="461" stroke="#3b414b"/>
<g transform="translate(185.0,474) rotate(35)">
<text x="0" y="0" font-size="10.5" fill="#8b949e">#2</text>
<text x="0" y="12" font-size="10.5" fill="#8b949e">iterative</text>
</g>
<line x1="227.7" y1="456" x2="227.7" y2="461" stroke="#3b414b"/>
<g transform="translate(227.7,474) rotate(35)">
<text x="0" y="0" font-size="10.5" fill="#8b949e">#3</text>
<text x="0" y="12" font-size="10.5" fill="#8b949e">sliding_window</text>
</g>
<line x1="270.3" y1="456" x2="270.3" y2="461" stroke="#3b414b"/>
<g transform="translate(270.3,474) rotate(35)">
<text x="0" y="0" font-size="10.5" fill="#8b949e">#4</text>
<text x="0" y="12" font-size="10.5" fill="#8b949e">binary_search…</text>
</g>
<line x1="313.0" y1="456" x2="313.0" y2="461" stroke="#3b414b"/>
<g transform="translate(313.0,474) rotate(35)">
<text x="0" y="0" font-size="10.5" fill="#8b949e">#5</text>
<text x="0" y="12" font-size="10.5" fill="#8b949e">expand_around…</text>
</g>
<line x1="355.7" y1="456" x2="355.7" y2="461" stroke="#3b414b"/>
<g transform="translate(355.7,474) rotate(35)">
<text x="0" y="0" font-size="10.5" fill="#8b949e">#6</text>
<text x="0" y="12" font-size="10.5" fill="#8b949e">row_buffers</text>
</g>
<line x1="398.3" y1="456" x2="398.3" y2="461" stroke="#3b414b"/>
<g transform="translate(398.3,474) rotate(35)">
<text x="0" y="0" font-size="10.5" fill="#8b949e">#7</text>
<text x="0" y="12" font-size="10.5" fill="#8b949e">reverse</text>
</g>
<line x1="441.0" y1="456" x2="441.0" y2="461" stroke="#3b414b"/>
<g transform="translate(441.0,474) rotate(35)">
<text x="0" y="0" font-size="10.5" fill="#8b949e">#8</text>
<text x="0" y="12" font-size="10.5" fill="#8b949e">atoi</text>
</g>
<line x1="483.7" y1="456" x2="483.7" y2="461" stroke="#3b414b"/>
<g transform="translate(483.7,474) rotate(35)">
<text x="0" y="0" font-size="10.5" fill="#8b949e">#9</text>
<text x="0" y="12" font-size="10.5" fill="#8b949e">palindrome</text>
</g>
<line x1="526.3" y1="456" x2="526.3" y2="461" stroke="#3b414b"/>
<g transform="translate(526.3,474) rotate(35)">
<text x="0" y="0" font-size="10.5" fill="#8b949e">#10</text>
<text x="0" y="12" font-size="10.5" fill="#8b949e">regex</text>
</g>
<line x1="569.0" y1="456" x2="569.0" y2="461" stroke="#3b414b"/>
<g transform="translate(569.0,474) rotate(35)">
<text x="0" y="0" font-size="10.5" fill="#8b949e">#11</text>
<text x="0" y="12" font-size="10.5" fill="#8b949e">container</text>
</g>
<line x1="611.7" y1="456" x2="611.7" y2="461" stroke="#3b414b"/>
<g transform="translate(611.7,474) rotate(35)">
<text x="0" y="0" font-size="10.5" fill="#8b949e">#12</text>
<text x="0" y="12" font-size="10.5" fill="#8b949e">greedy</text>
</g>
<line x1="654.3" y1="456" x2="654.3" y2="461" stroke="#3b414b"/>
<g transform="translate(654.3,474) rotate(35)">
<text x="0" y="0" font-size="10.5" fill="#8b949e">#13</text>
<text x="0" y="12" font-size="10.5" fill="#8b949e">greedy</text>
</g>
<line x1="697.0" y1="456" x2="697.0" y2="461" stroke="#3b414b"/>
<g transform="translate(697.0,474) rotate(35)">
<text x="0" y="0" font-size="10.5" fill="#8b949e">#14</text>
<text x="0" y="12" font-size="10.5" fill="#8b949e">vertical</text>
</g>
<line x1="739.7" y1="456" x2="739.7" y2="461" stroke="#3b414b"/>
<g transform="translate(739.7,474) rotate(35)">
<text x="0" y="0" font-size="10.5" fill="#8b949e">#15</text>
<text x="0" y="12" font-size="10.5" fill="#8b949e">three_sum</text>
</g>
<line x1="782.3" y1="456" x2="782.3" y2="461" stroke="#3b414b"/>
<g transform="translate(782.3,474) rotate(35)">
<text x="0" y="0" font-size="10.5" fill="#8b949e">#204</text>
<text x="0" y="12" font-size="10.5" fill="#8b949e">count</text>
</g>
<circle cx="99.7" cy="347.9" r="4.0" fill="#3fb950" opacity="0.95"/>
<circle cx="142.3" cy="347.9" r="4.0" fill="#3fb950" opacity="0.95"/>
<circle cx="185.0" cy="347.9" r="4.0" fill="#3fb950" opacity="0.95"/>
<circle cx="227.7" cy="348.2" r="4.0" fill="#3fb950" opacity="0.95"/>
<circle cx="270.3" cy="348.1" r="4.0" fill="#3fb950" opacity="0.95"/>
<circle cx="313.0" cy="348.0" r="4.0" fill="#3fb950" opacity="0.95"/>
<circle cx="355.7" cy="347.6" r="4.0" fill="#3fb950" opacity="0.95"/>
<circle cx="398.3" cy="348.1" r="4.0" fill="#3fb950" opacity="0.95"/>
<circle cx="441.0" cy="348.1" r="4.0" fill="#3fb950" opacity="0.95"/>
<circle cx="483.7" cy="348.1" r="4.0" fill="#3fb950" opacity="0.95"/>
<circle cx="526.3" cy="348.1" r="4.0" fill="#3fb950" opacity="0.95"/>
<circle cx="569.0" cy="348.1" r="4.0" fill="#3fb950" opacity="0.95"/>
<circle cx="611.7" cy="348.0" r="4.0" fill="#3fb950" opacity="0.95"/>
<circle cx="654.3" cy="348.0" r="4.0" fill="#3fb950" opacity="0.95"/>
<circle cx="697.0" cy="348.0" r="4.0" fill="#3fb950" opacity="0.95"/>
<circle cx="739.7" cy="349.9" r="4.0" fill="#3fb950" opacity="0.95"/>
<circle cx="782.3" cy="348.0" r="4.0" fill="#3fb950" opacity="0.95"/>
<circle cx="103.5" cy="112.3" r="4.0" fill="#bc8cff" opacity="0.95"/>
<circle cx="146.2" cy="112.5" r="4.0" fill="#bc8cff" opacity="0.95"/>
<circle cx="188.8" cy="112.4" r="4.0" fill="#bc8cff" opacity="0.95"/>
<circle cx="231.5" cy="112.5" r="4.0" fill="#bc8cff" opacity="0.95"/>
<circle cx="274.2" cy="112.3" r="4.0" fill="#bc8cff" opacity="0.95"/>
<circle cx="316.8" cy="112.3" r="4.0" fill="#bc8cff" opacity="0.95"/>
<circle cx="359.5" cy="112.3" r="4.0" fill="#bc8cff" opacity="0.95"/>
<circle cx="402.2" cy="112.3" r="4.0" fill="#bc8cff" opacity="0.95"/>
<circle cx="444.8" cy="112.3" r="4.0" fill="#bc8cff" opacity="0.95"/>
<circle cx="487.5" cy="112.3" r="4.0" fill="#bc8cff" opacity="0.95"/>
<circle cx="530.2" cy="112.3" r="4.0" fill="#bc8cff" opacity="0.95"/>
<circle cx="572.8" cy="112.3" r="4.0" fill="#bc8cff" opacity="0.95"/>
<circle cx="615.5" cy="112.3" r="4.0" fill="#bc8cff" opacity="0.95"/>
<circle cx="658.2" cy="112.3" r="4.0" fill="#bc8cff" opacity="0.95"/>
<circle cx="700.8" cy="112.3" r="4.0" fill="#bc8cff" opacity="0.95"/>
<circle cx="743.5" cy="113.9" r="4.0" fill="#bc8cff" opacity="0.95"/>
<circle cx="786.2" cy="112.3" r="4.0" fill="#bc8cff" opacity="0.95"/>
<circle cx="95.8" cy="348.0" r="5.0" fill="#ff922b" opacity="1.0"/>
<circle cx="138.5" cy="231.1" r="5.0" fill="#ff922b" opacity="1.0"/>
<circle cx="181.2" cy="348.0" r="5.0" fill="#ff922b" opacity="1.0"/>
<circle cx="223.8" cy="231.1" r="5.0" fill="#ff922b" opacity="1.0"/>
<circle cx="266.5" cy="347.7" r="5.0" fill="#ff922b" opacity="1.0"/>
<circle cx="309.2" cy="347.7" r="5.0" fill="#ff922b" opacity="1.0"/>
<circle cx="351.8" cy="347.6" r="5.0" fill="#ff922b" opacity="1.0"/>
<circle cx="394.5" cy="347.9" r="5.0" fill="#ff922b" opacity="1.0"/>
<circle cx="437.2" cy="347.9" r="5.0" fill="#ff922b" opacity="1.0"/>
<circle cx="479.8" cy="347.9" r="5.0" fill="#ff922b" opacity="1.0"/>
<circle cx="522.5" cy="347.8" r="5.0" fill="#ff922b" opacity="1.0"/>
<circle cx="565.2" cy="347.9" r="5.0" fill="#ff922b" opacity="1.0"/>
<circle cx="607.8" cy="347.9" r="5.0" fill="#ff922b" opacity="1.0"/>
<circle cx="650.5" cy="347.9" r="5.0" fill="#ff922b" opacity="1.0"/>
<circle cx="693.2" cy="347.7" r="5.0" fill="#ff922b" opacity="1.0"/>
<circle cx="735.8" cy="229.9" r="5.0" fill="#ff922b" opacity="1.0"/>
<circle cx="778.5" cy="347.9" r="5.0" fill="#ff922b" opacity="1.0"/>
<circle cx="847" cy="84" r="5" fill="#ff922b"/>
<text x="866" y="88" font-size="13" fill="#c9d1d9" font-weight="700">Kāra</text>
<line x1="836" y1="108" x2="858" y2="108" stroke="#6e7681" stroke-width="1.6" stroke-dasharray="5 4"/>
<text x="866" y="112" font-size="13" fill="#c9d1d9" font-weight="400">Rust</text>
<circle cx="847" cy="132" r="4" fill="#3fb950"/>
<text x="866" y="136" font-size="13" fill="#c9d1d9" font-weight="400">C</text>
<circle cx="847" cy="156" r="4" fill="#bc8cff"/>
<text x="866" y="160" font-size="13" fill="#c9d1d9" font-weight="400">Go</text>
<text x="70" y="538" font-size="11.5" fill="#8b949e">Each dot is one benchmarked program (kata × approach); there is no connecting line because left-to-right order is not meaningful. Raw numbers: bench-results.json</text>
</svg>