<svg xmlns="http://www.w3.org/2000/svg" width="980" height="560" viewBox="0 0 980 560" font-family="-apple-system,Segoe UI,Helvetica,Arial,sans-serif">
<rect width="980" height="560" fill="#282c34"/>
<text x="70" y="34" font-size="21" font-weight="700" fill="#c9d1d9">Binary size — sequential lane</text>
<text x="70" y="56" font-size="13" fill="#8b949e">relative to Rust = 1.0 · lower = smaller · 42 programs · log scale</text>
<line x1="70" y1="456.0" x2="812" y2="456.0" stroke="#3b414b" stroke-width="1"/>
<text x="60" y="460.0" font-size="12" text-anchor="end" fill="#8b949e">0.01×</text>
<line x1="70" y1="418.1" x2="812" y2="418.1" stroke="#3b414b" stroke-width="1"/>
<text x="60" y="422.1" font-size="12" text-anchor="end" fill="#8b949e">0.02×</text>
<line x1="70" y1="367.9" x2="812" y2="367.9" stroke="#3b414b" stroke-width="1"/>
<text x="60" y="371.9" font-size="12" text-anchor="end" fill="#8b949e">0.05×</text>
<line x1="70" y1="330.0" x2="812" y2="330.0" stroke="#3b414b" stroke-width="1"/>
<text x="60" y="334.0" font-size="12" text-anchor="end" fill="#8b949e">0.1×</text>
<line x1="70" y1="292.1" x2="812" y2="292.1" stroke="#3b414b" stroke-width="1"/>
<text x="60" y="296.1" font-size="12" text-anchor="end" fill="#8b949e">0.2×</text>
<line x1="70" y1="241.9" x2="812" y2="241.9" stroke="#3b414b" stroke-width="1"/>
<text x="60" y="245.9" font-size="12" text-anchor="end" fill="#8b949e">0.5×</text>
<line x1="70" y1="204.0" x2="812" y2="204.0" stroke="#a7b0bc" stroke-width="2" stroke-dasharray="5 4"/>
<text x="60" y="208.0" font-size="12" text-anchor="end" fill="#aeb6c0" font-weight="700">1×</text>
<line x1="70" y1="166.1" x2="812" y2="166.1" stroke="#3b414b" stroke-width="1"/>
<text x="60" y="170.1" font-size="12" text-anchor="end" fill="#8b949e">2×</text>
<line x1="70" y1="115.9" x2="812" y2="115.9" stroke="#3b414b" stroke-width="1"/>
<text x="60" y="119.9" font-size="12" text-anchor="end" fill="#8b949e">5×</text>
<line x1="70" y1="78.0" x2="812" y2="78.0" stroke="#3b414b" stroke-width="1"/>
<text x="60" y="82.0" font-size="12" text-anchor="end" fill="#8b949e">10×</text>
<text x="812" y="198.0" font-size="11" text-anchor="end" fill="#aeb6c0">Rust baseline</text>
<line x1="70" y1="456" x2="812" y2="456" stroke="#3b414b"/>
<text x="441.0" y="478" font-size="11" text-anchor="middle" fill="#8b949e">42 programs (kata × approach) — x-order carries no meaning</text>
<circle cx="99.7" cy="347.9" r="2.6" fill="#3fb950" opacity="0.7"/>
<circle cx="116.3" cy="347.9" r="2.6" fill="#3fb950" opacity="0.7"/>
<circle cx="133.0" cy="347.9" r="2.6" fill="#3fb950" opacity="0.7"/>
<circle cx="149.6" cy="348.2" r="2.6" fill="#3fb950" opacity="0.7"/>
<circle cx="166.3" cy="348.1" r="2.6" fill="#3fb950" opacity="0.7"/>
<circle cx="182.9" cy="348.0" r="2.6" fill="#3fb950" opacity="0.7"/>
<circle cx="199.6" cy="347.6" r="2.6" fill="#3fb950" opacity="0.7"/>
<circle cx="216.2" cy="348.1" r="2.6" fill="#3fb950" opacity="0.7"/>
<circle cx="232.9" cy="348.1" r="2.6" fill="#3fb950" opacity="0.7"/>
<circle cx="249.5" cy="348.1" r="2.6" fill="#3fb950" opacity="0.7"/>
<circle cx="266.2" cy="348.1" r="2.6" fill="#3fb950" opacity="0.7"/>
<circle cx="282.8" cy="348.1" r="2.6" fill="#3fb950" opacity="0.7"/>
<circle cx="299.5" cy="348.0" r="2.6" fill="#3fb950" opacity="0.7"/>
<circle cx="316.1" cy="348.0" r="2.6" fill="#3fb950" opacity="0.7"/>
<circle cx="332.8" cy="348.0" r="2.6" fill="#3fb950" opacity="0.7"/>
<circle cx="349.4" cy="349.9" r="2.6" fill="#3fb950" opacity="0.7"/>
<circle cx="366.1" cy="348.0" r="2.6" fill="#3fb950" opacity="0.7"/>
<circle cx="382.7" cy="347.7" r="2.6" fill="#3fb950" opacity="0.7"/>
<circle cx="399.4" cy="349.9" r="2.6" fill="#3fb950" opacity="0.7"/>
<circle cx="416.0" cy="348.2" r="2.6" fill="#3fb950" opacity="0.7"/>
<circle cx="432.7" cy="348.0" r="2.6" fill="#3fb950" opacity="0.7"/>
<circle cx="449.3" cy="348.1" r="2.6" fill="#3fb950" opacity="0.7"/>
<circle cx="466.0" cy="347.9" r="2.6" fill="#3fb950" opacity="0.7"/>
<circle cx="482.6" cy="348.1" r="2.6" fill="#3fb950" opacity="0.7"/>
<circle cx="499.3" cy="348.2" r="2.6" fill="#3fb950" opacity="0.7"/>
<circle cx="515.9" cy="348.2" r="2.6" fill="#3fb950" opacity="0.7"/>
<circle cx="532.6" cy="348.0" r="2.6" fill="#3fb950" opacity="0.7"/>
<circle cx="549.2" cy="348.0" r="2.6" fill="#3fb950" opacity="0.7"/>
<circle cx="565.9" cy="350.0" r="2.6" fill="#3fb950" opacity="0.7"/>
<circle cx="582.5" cy="348.1" r="2.6" fill="#3fb950" opacity="0.7"/>
<circle cx="599.2" cy="348.0" r="2.6" fill="#3fb950" opacity="0.7"/>
<circle cx="615.8" cy="348.0" r="2.6" fill="#3fb950" opacity="0.7"/>
<circle cx="632.5" cy="348.2" r="2.6" fill="#3fb950" opacity="0.7"/>
<circle cx="649.1" cy="348.1" r="2.6" fill="#3fb950" opacity="0.7"/>
<circle cx="665.8" cy="350.0" r="2.6" fill="#3fb950" opacity="0.7"/>
<circle cx="682.4" cy="347.9" r="2.6" fill="#3fb950" opacity="0.7"/>
<circle cx="699.1" cy="347.9" r="2.6" fill="#3fb950" opacity="0.7"/>
<circle cx="715.7" cy="348.0" r="2.6" fill="#3fb950" opacity="0.7"/>
<circle cx="732.4" cy="348.3" r="2.6" fill="#3fb950" opacity="0.7"/>
<circle cx="749.0" cy="348.3" r="2.6" fill="#3fb950" opacity="0.7"/>
<circle cx="765.7" cy="349.8" r="2.6" fill="#3fb950" opacity="0.7"/>
<circle cx="782.3" cy="349.5" r="2.6" fill="#3fb950" opacity="0.7"/>
<circle cx="102.3" cy="112.3" r="2.6" fill="#bc8cff" opacity="0.7"/>
<circle cx="119.0" cy="112.5" r="2.6" fill="#bc8cff" opacity="0.7"/>
<circle cx="135.6" cy="112.4" r="2.6" fill="#bc8cff" opacity="0.7"/>
<circle cx="152.3" cy="112.5" r="2.6" fill="#bc8cff" opacity="0.7"/>
<circle cx="168.9" cy="112.3" r="2.6" fill="#bc8cff" opacity="0.7"/>
<circle cx="185.6" cy="112.3" r="2.6" fill="#bc8cff" opacity="0.7"/>
<circle cx="202.2" cy="112.3" r="2.6" fill="#bc8cff" opacity="0.7"/>
<circle cx="218.9" cy="112.3" r="2.6" fill="#bc8cff" opacity="0.7"/>
<circle cx="235.5" cy="112.3" r="2.6" fill="#bc8cff" opacity="0.7"/>
<circle cx="252.2" cy="112.3" r="2.6" fill="#bc8cff" opacity="0.7"/>
<circle cx="268.8" cy="112.3" r="2.6" fill="#bc8cff" opacity="0.7"/>
<circle cx="285.5" cy="112.3" r="2.6" fill="#bc8cff" opacity="0.7"/>
<circle cx="302.1" cy="112.3" r="2.6" fill="#bc8cff" opacity="0.7"/>
<circle cx="318.8" cy="112.3" r="2.6" fill="#bc8cff" opacity="0.7"/>
<circle cx="335.4" cy="112.3" r="2.6" fill="#bc8cff" opacity="0.7"/>
<circle cx="352.1" cy="113.9" r="2.6" fill="#bc8cff" opacity="0.7"/>
<circle cx="368.7" cy="111.9" r="2.6" fill="#bc8cff" opacity="0.7"/>
<circle cx="385.4" cy="112.3" r="2.6" fill="#bc8cff" opacity="0.7"/>
<circle cx="402.0" cy="113.9" r="2.6" fill="#bc8cff" opacity="0.7"/>
<circle cx="418.7" cy="112.4" r="2.6" fill="#bc8cff" opacity="0.7"/>
<circle cx="435.3" cy="112.3" r="2.6" fill="#bc8cff" opacity="0.7"/>
<circle cx="452.0" cy="112.4" r="2.6" fill="#bc8cff" opacity="0.7"/>
<circle cx="468.6" cy="112.4" r="2.6" fill="#bc8cff" opacity="0.7"/>
<circle cx="485.3" cy="112.4" r="2.6" fill="#bc8cff" opacity="0.7"/>
<circle cx="501.9" cy="112.4" r="2.6" fill="#bc8cff" opacity="0.7"/>
<circle cx="518.6" cy="112.4" r="2.6" fill="#bc8cff" opacity="0.7"/>
<circle cx="535.2" cy="112.3" r="2.6" fill="#bc8cff" opacity="0.7"/>
<circle cx="551.9" cy="112.3" r="2.6" fill="#bc8cff" opacity="0.7"/>
<circle cx="568.5" cy="113.9" r="2.6" fill="#bc8cff" opacity="0.7"/>
<circle cx="585.2" cy="112.3" r="2.6" fill="#bc8cff" opacity="0.7"/>
<circle cx="601.8" cy="112.3" r="2.6" fill="#bc8cff" opacity="0.7"/>
<circle cx="618.5" cy="112.3" r="2.6" fill="#bc8cff" opacity="0.7"/>
<circle cx="635.1" cy="112.3" r="2.6" fill="#bc8cff" opacity="0.7"/>
<circle cx="651.8" cy="112.3" r="2.6" fill="#bc8cff" opacity="0.7"/>
<circle cx="668.4" cy="114.7" r="2.6" fill="#bc8cff" opacity="0.7"/>
<circle cx="685.1" cy="112.3" r="2.6" fill="#bc8cff" opacity="0.7"/>
<circle cx="701.7" cy="112.3" r="2.6" fill="#bc8cff" opacity="0.7"/>
<circle cx="718.4" cy="112.3" r="2.6" fill="#bc8cff" opacity="0.7"/>
<circle cx="735.0" cy="112.5" r="2.6" fill="#bc8cff" opacity="0.7"/>
<circle cx="751.7" cy="112.5" r="2.6" fill="#bc8cff" opacity="0.7"/>
<circle cx="768.3" cy="113.8" r="2.6" fill="#bc8cff" opacity="0.7"/>
<circle cx="785.0" cy="114.5" r="2.6" fill="#bc8cff" opacity="0.7"/>
<circle cx="97.0" cy="348.0" r="3.2" fill="#ff922b" opacity="0.85"/>
<circle cx="113.7" cy="231.1" r="3.2" fill="#ff922b" opacity="0.85"/>
<circle cx="130.3" cy="347.9" r="3.2" fill="#ff922b" opacity="0.85"/>
<circle cx="147.0" cy="231.1" r="3.2" fill="#ff922b" opacity="0.85"/>
<circle cx="163.6" cy="347.7" r="3.2" fill="#ff922b" opacity="0.85"/>
<circle cx="180.3" cy="347.7" r="3.2" fill="#ff922b" opacity="0.85"/>
<circle cx="196.9" cy="347.6" r="3.2" fill="#ff922b" opacity="0.85"/>
<circle cx="213.6" cy="347.9" r="3.2" fill="#ff922b" opacity="0.85"/>
<circle cx="230.2" cy="347.9" r="3.2" fill="#ff922b" opacity="0.85"/>
<circle cx="246.9" cy="347.9" r="3.2" fill="#ff922b" opacity="0.85"/>
<circle cx="263.5" cy="347.8" r="3.2" fill="#ff922b" opacity="0.85"/>
<circle cx="280.2" cy="347.9" r="3.2" fill="#ff922b" opacity="0.85"/>
<circle cx="296.8" cy="347.9" r="3.2" fill="#ff922b" opacity="0.85"/>
<circle cx="313.5" cy="347.9" r="3.2" fill="#ff922b" opacity="0.85"/>
<circle cx="330.1" cy="347.7" r="3.2" fill="#ff922b" opacity="0.85"/>
<circle cx="346.8" cy="229.9" r="3.2" fill="#ff922b" opacity="0.85"/>
<circle cx="363.4" cy="227.9" r="3.2" fill="#ff922b" opacity="0.85"/>
<circle cx="380.1" cy="347.5" r="3.2" fill="#ff922b" opacity="0.85"/>
<circle cx="396.7" cy="229.9" r="3.2" fill="#ff922b" opacity="0.85"/>
<circle cx="413.4" cy="348.0" r="3.2" fill="#ff922b" opacity="0.85"/>
<circle cx="430.0" cy="347.9" r="3.2" fill="#ff922b" opacity="0.85"/>
<circle cx="446.7" cy="348.0" r="3.2" fill="#ff922b" opacity="0.85"/>
<circle cx="463.3" cy="347.9" r="3.2" fill="#ff922b" opacity="0.85"/>
<circle cx="480.0" cy="347.9" r="3.2" fill="#ff922b" opacity="0.85"/>
<circle cx="496.6" cy="347.8" r="3.2" fill="#ff922b" opacity="0.85"/>
<circle cx="513.3" cy="347.8" r="3.2" fill="#ff922b" opacity="0.85"/>
<circle cx="529.9" cy="347.7" r="3.2" fill="#ff922b" opacity="0.85"/>
<circle cx="546.6" cy="347.7" r="3.2" fill="#ff922b" opacity="0.85"/>
<circle cx="563.2" cy="229.9" r="3.2" fill="#ff922b" opacity="0.85"/>
<circle cx="579.9" cy="347.9" r="3.2" fill="#ff922b" opacity="0.85"/>
<circle cx="596.5" cy="347.5" r="3.2" fill="#ff922b" opacity="0.85"/>
<circle cx="613.2" cy="347.8" r="3.2" fill="#ff922b" opacity="0.85"/>
<circle cx="629.8" cy="347.9" r="3.2" fill="#ff922b" opacity="0.85"/>
<circle cx="646.5" cy="347.9" r="3.2" fill="#ff922b" opacity="0.85"/>
<circle cx="663.1" cy="233.2" r="3.2" fill="#ff922b" opacity="0.85"/>
<circle cx="679.8" cy="347.7" r="3.2" fill="#ff922b" opacity="0.85"/>
<circle cx="696.4" cy="347.9" r="3.2" fill="#ff922b" opacity="0.85"/>
<circle cx="713.1" cy="347.9" r="3.2" fill="#ff922b" opacity="0.85"/>
<circle cx="729.7" cy="348.0" r="3.2" fill="#ff922b" opacity="0.85"/>
<circle cx="746.4" cy="348.0" r="3.2" fill="#ff922b" opacity="0.85"/>
<circle cx="763.0" cy="229.8" r="3.2" fill="#ff922b" opacity="0.85"/>
<circle cx="779.7" cy="233.1" r="3.2" fill="#ff922b" opacity="0.85"/>
<circle cx="847" cy="84" r="5" fill="#ff922b"/>
<text x="866" y="88" font-size="13" fill="#c9d1d9" font-weight="700">Kāra</text>
<line x1="836" y1="108" x2="858" y2="108" stroke="#a7b0bc" stroke-width="2" stroke-dasharray="5 4"/>
<text x="866" y="112" font-size="13" fill="#c9d1d9" font-weight="400">Rust = 1.0×</text>
<circle cx="847" cy="132" r="4" fill="#3fb950"/>
<text x="866" y="136" font-size="13" fill="#c9d1d9" font-weight="400">C</text>
<circle cx="847" cy="156" r="4" fill="#bc8cff"/>
<text x="866" y="160" font-size="13" fill="#c9d1d9" font-weight="400">Go</text>
<text x="70" y="538" font-size="11.5" fill="#8b949e">Each dot is one benchmarked program (kata × approach); there is no connecting line because left-to-right order is not meaningful. Raw numbers: bench-results.json</text>
</svg>