<svg xmlns="http://www.w3.org/2000/svg" width="980" height="560" viewBox="0 0 980 560" font-family="-apple-system,Segoe UI,Helvetica,Arial,sans-serif">
<rect width="980" height="560" fill="#282c34"/>
<text x="70" y="34" font-size="21" font-weight="700" fill="#c9d1d9">Binary size — sequential lane</text>
<text x="70" y="56" font-size="13" fill="#8b949e">relative to Rust = 1.0 · lower = smaller · 46 programs · log scale</text>
<line x1="70" y1="456.0" x2="812" y2="456.0" stroke="#3b414b" stroke-width="1"/>
<text x="60" y="460.0" font-size="12" text-anchor="end" fill="#8b949e">0.01×</text>
<line x1="70" y1="418.1" x2="812" y2="418.1" stroke="#3b414b" stroke-width="1"/>
<text x="60" y="422.1" font-size="12" text-anchor="end" fill="#8b949e">0.02×</text>
<line x1="70" y1="367.9" x2="812" y2="367.9" stroke="#3b414b" stroke-width="1"/>
<text x="60" y="371.9" font-size="12" text-anchor="end" fill="#8b949e">0.05×</text>
<line x1="70" y1="330.0" x2="812" y2="330.0" stroke="#3b414b" stroke-width="1"/>
<text x="60" y="334.0" font-size="12" text-anchor="end" fill="#8b949e">0.1×</text>
<line x1="70" y1="292.1" x2="812" y2="292.1" stroke="#3b414b" stroke-width="1"/>
<text x="60" y="296.1" font-size="12" text-anchor="end" fill="#8b949e">0.2×</text>
<line x1="70" y1="241.9" x2="812" y2="241.9" stroke="#3b414b" stroke-width="1"/>
<text x="60" y="245.9" font-size="12" text-anchor="end" fill="#8b949e">0.5×</text>
<line x1="70" y1="204.0" x2="812" y2="204.0" stroke="#a7b0bc" stroke-width="2" stroke-dasharray="5 4"/>
<text x="60" y="208.0" font-size="12" text-anchor="end" fill="#aeb6c0" font-weight="700">1×</text>
<line x1="70" y1="166.1" x2="812" y2="166.1" stroke="#3b414b" stroke-width="1"/>
<text x="60" y="170.1" font-size="12" text-anchor="end" fill="#8b949e">2×</text>
<line x1="70" y1="115.9" x2="812" y2="115.9" stroke="#3b414b" stroke-width="1"/>
<text x="60" y="119.9" font-size="12" text-anchor="end" fill="#8b949e">5×</text>
<line x1="70" y1="78.0" x2="812" y2="78.0" stroke="#3b414b" stroke-width="1"/>
<text x="60" y="82.0" font-size="12" text-anchor="end" fill="#8b949e">10×</text>
<text x="812" y="198.0" font-size="11" text-anchor="end" fill="#aeb6c0">Rust baseline</text>
<line x1="70" y1="456" x2="812" y2="456" stroke="#3b414b"/>
<text x="441.0" y="478" font-size="11" text-anchor="middle" fill="#8b949e">46 programs (kata × approach) — x-order carries no meaning</text>
<circle cx="99.7" cy="347.9" r="2.6" fill="#3fb950" opacity="0.7"/>
<circle cx="114.8" cy="347.9" r="2.6" fill="#3fb950" opacity="0.7"/>
<circle cx="130.0" cy="347.9" r="2.6" fill="#3fb950" opacity="0.7"/>
<circle cx="145.2" cy="348.2" r="2.6" fill="#3fb950" opacity="0.7"/>
<circle cx="160.4" cy="348.1" r="2.6" fill="#3fb950" opacity="0.7"/>
<circle cx="175.5" cy="348.0" r="2.6" fill="#3fb950" opacity="0.7"/>
<circle cx="190.7" cy="347.6" r="2.6" fill="#3fb950" opacity="0.7"/>
<circle cx="205.9" cy="348.1" r="2.6" fill="#3fb950" opacity="0.7"/>
<circle cx="221.0" cy="348.1" r="2.6" fill="#3fb950" opacity="0.7"/>
<circle cx="236.2" cy="348.1" r="2.6" fill="#3fb950" opacity="0.7"/>
<circle cx="251.4" cy="348.1" r="2.6" fill="#3fb950" opacity="0.7"/>
<circle cx="266.5" cy="348.1" r="2.6" fill="#3fb950" opacity="0.7"/>
<circle cx="281.7" cy="348.0" r="2.6" fill="#3fb950" opacity="0.7"/>
<circle cx="296.9" cy="348.0" r="2.6" fill="#3fb950" opacity="0.7"/>
<circle cx="312.1" cy="348.0" r="2.6" fill="#3fb950" opacity="0.7"/>
<circle cx="327.2" cy="349.9" r="2.6" fill="#3fb950" opacity="0.7"/>
<circle cx="342.4" cy="348.0" r="2.6" fill="#3fb950" opacity="0.7"/>
<circle cx="357.6" cy="347.7" r="2.6" fill="#3fb950" opacity="0.7"/>
<circle cx="372.7" cy="349.9" r="2.6" fill="#3fb950" opacity="0.7"/>
<circle cx="387.9" cy="348.2" r="2.6" fill="#3fb950" opacity="0.7"/>
<circle cx="403.1" cy="348.0" r="2.6" fill="#3fb950" opacity="0.7"/>
<circle cx="418.2" cy="348.1" r="2.6" fill="#3fb950" opacity="0.7"/>
<circle cx="433.4" cy="347.9" r="2.6" fill="#3fb950" opacity="0.7"/>
<circle cx="448.6" cy="348.1" r="2.6" fill="#3fb950" opacity="0.7"/>
<circle cx="463.8" cy="348.2" r="2.6" fill="#3fb950" opacity="0.7"/>
<circle cx="478.9" cy="348.2" r="2.6" fill="#3fb950" opacity="0.7"/>
<circle cx="494.1" cy="348.0" r="2.6" fill="#3fb950" opacity="0.7"/>
<circle cx="509.3" cy="348.0" r="2.6" fill="#3fb950" opacity="0.7"/>
<circle cx="524.4" cy="348.0" r="2.6" fill="#3fb950" opacity="0.7"/>
<circle cx="539.6" cy="348.0" r="2.6" fill="#3fb950" opacity="0.7"/>
<circle cx="554.8" cy="348.2" r="2.6" fill="#3fb950" opacity="0.7"/>
<circle cx="569.9" cy="349.9" r="2.6" fill="#3fb950" opacity="0.7"/>
<circle cx="585.1" cy="350.0" r="2.6" fill="#3fb950" opacity="0.7"/>
<circle cx="600.3" cy="348.1" r="2.6" fill="#3fb950" opacity="0.7"/>
<circle cx="615.5" cy="348.0" r="2.6" fill="#3fb950" opacity="0.7"/>
<circle cx="630.6" cy="348.0" r="2.6" fill="#3fb950" opacity="0.7"/>
<circle cx="645.8" cy="348.2" r="2.6" fill="#3fb950" opacity="0.7"/>
<circle cx="661.0" cy="348.1" r="2.6" fill="#3fb950" opacity="0.7"/>
<circle cx="676.1" cy="350.0" r="2.6" fill="#3fb950" opacity="0.7"/>
<circle cx="691.3" cy="347.9" r="2.6" fill="#3fb950" opacity="0.7"/>
<circle cx="706.5" cy="347.9" r="2.6" fill="#3fb950" opacity="0.7"/>
<circle cx="721.6" cy="348.0" r="2.6" fill="#3fb950" opacity="0.7"/>
<circle cx="736.8" cy="348.3" r="2.6" fill="#3fb950" opacity="0.7"/>
<circle cx="752.0" cy="348.3" r="2.6" fill="#3fb950" opacity="0.7"/>
<circle cx="767.2" cy="349.8" r="2.6" fill="#3fb950" opacity="0.7"/>
<circle cx="782.3" cy="349.5" r="2.6" fill="#3fb950" opacity="0.7"/>
<circle cx="102.3" cy="112.3" r="2.6" fill="#bc8cff" opacity="0.7"/>
<circle cx="117.5" cy="112.5" r="2.6" fill="#bc8cff" opacity="0.7"/>
<circle cx="132.7" cy="112.4" r="2.6" fill="#bc8cff" opacity="0.7"/>
<circle cx="147.8" cy="112.5" r="2.6" fill="#bc8cff" opacity="0.7"/>
<circle cx="163.0" cy="112.3" r="2.6" fill="#bc8cff" opacity="0.7"/>
<circle cx="178.2" cy="112.3" r="2.6" fill="#bc8cff" opacity="0.7"/>
<circle cx="193.3" cy="112.3" r="2.6" fill="#bc8cff" opacity="0.7"/>
<circle cx="208.5" cy="112.3" r="2.6" fill="#bc8cff" opacity="0.7"/>
<circle cx="223.7" cy="112.3" r="2.6" fill="#bc8cff" opacity="0.7"/>
<circle cx="238.8" cy="112.3" r="2.6" fill="#bc8cff" opacity="0.7"/>
<circle cx="254.0" cy="112.3" r="2.6" fill="#bc8cff" opacity="0.7"/>
<circle cx="269.2" cy="112.3" r="2.6" fill="#bc8cff" opacity="0.7"/>
<circle cx="284.4" cy="112.3" r="2.6" fill="#bc8cff" opacity="0.7"/>
<circle cx="299.5" cy="112.3" r="2.6" fill="#bc8cff" opacity="0.7"/>
<circle cx="314.7" cy="112.3" r="2.6" fill="#bc8cff" opacity="0.7"/>
<circle cx="329.9" cy="113.9" r="2.6" fill="#bc8cff" opacity="0.7"/>
<circle cx="345.0" cy="111.9" r="2.6" fill="#bc8cff" opacity="0.7"/>
<circle cx="360.2" cy="112.3" r="2.6" fill="#bc8cff" opacity="0.7"/>
<circle cx="375.4" cy="113.9" r="2.6" fill="#bc8cff" opacity="0.7"/>
<circle cx="390.5" cy="112.4" r="2.6" fill="#bc8cff" opacity="0.7"/>
<circle cx="405.7" cy="112.3" r="2.6" fill="#bc8cff" opacity="0.7"/>
<circle cx="420.9" cy="112.4" r="2.6" fill="#bc8cff" opacity="0.7"/>
<circle cx="436.0" cy="112.4" r="2.6" fill="#bc8cff" opacity="0.7"/>
<circle cx="451.2" cy="112.4" r="2.6" fill="#bc8cff" opacity="0.7"/>
<circle cx="466.4" cy="112.4" r="2.6" fill="#bc8cff" opacity="0.7"/>
<circle cx="481.6" cy="112.4" r="2.6" fill="#bc8cff" opacity="0.7"/>
<circle cx="496.7" cy="112.3" r="2.6" fill="#bc8cff" opacity="0.7"/>
<circle cx="511.9" cy="112.3" r="2.6" fill="#bc8cff" opacity="0.7"/>
<circle cx="527.1" cy="112.3" r="2.6" fill="#bc8cff" opacity="0.7"/>
<circle cx="542.2" cy="112.3" r="2.6" fill="#bc8cff" opacity="0.7"/>
<circle cx="557.4" cy="112.3" r="2.6" fill="#bc8cff" opacity="0.7"/>
<circle cx="572.6" cy="114.4" r="2.6" fill="#bc8cff" opacity="0.7"/>
<circle cx="587.7" cy="113.9" r="2.6" fill="#bc8cff" opacity="0.7"/>
<circle cx="602.9" cy="112.3" r="2.6" fill="#bc8cff" opacity="0.7"/>
<circle cx="618.1" cy="112.3" r="2.6" fill="#bc8cff" opacity="0.7"/>
<circle cx="633.3" cy="112.3" r="2.6" fill="#bc8cff" opacity="0.7"/>
<circle cx="648.4" cy="112.3" r="2.6" fill="#bc8cff" opacity="0.7"/>
<circle cx="663.6" cy="112.3" r="2.6" fill="#bc8cff" opacity="0.7"/>
<circle cx="678.8" cy="114.7" r="2.6" fill="#bc8cff" opacity="0.7"/>
<circle cx="693.9" cy="112.3" r="2.6" fill="#bc8cff" opacity="0.7"/>
<circle cx="709.1" cy="112.3" r="2.6" fill="#bc8cff" opacity="0.7"/>
<circle cx="724.3" cy="112.3" r="2.6" fill="#bc8cff" opacity="0.7"/>
<circle cx="739.4" cy="112.5" r="2.6" fill="#bc8cff" opacity="0.7"/>
<circle cx="754.6" cy="112.5" r="2.6" fill="#bc8cff" opacity="0.7"/>
<circle cx="769.8" cy="113.8" r="2.6" fill="#bc8cff" opacity="0.7"/>
<circle cx="785.0" cy="114.5" r="2.6" fill="#bc8cff" opacity="0.7"/>
<circle cx="97.0" cy="348.0" r="3.2" fill="#ff922b" opacity="0.85"/>
<circle cx="112.2" cy="231.1" r="3.2" fill="#ff922b" opacity="0.85"/>
<circle cx="127.4" cy="347.9" r="3.2" fill="#ff922b" opacity="0.85"/>
<circle cx="142.6" cy="231.1" r="3.2" fill="#ff922b" opacity="0.85"/>
<circle cx="157.7" cy="347.7" r="3.2" fill="#ff922b" opacity="0.85"/>
<circle cx="172.9" cy="347.7" r="3.2" fill="#ff922b" opacity="0.85"/>
<circle cx="188.1" cy="347.6" r="3.2" fill="#ff922b" opacity="0.85"/>
<circle cx="203.2" cy="347.9" r="3.2" fill="#ff922b" opacity="0.85"/>
<circle cx="218.4" cy="347.9" r="3.2" fill="#ff922b" opacity="0.85"/>
<circle cx="233.6" cy="347.9" r="3.2" fill="#ff922b" opacity="0.85"/>
<circle cx="248.7" cy="347.8" r="3.2" fill="#ff922b" opacity="0.85"/>
<circle cx="263.9" cy="347.9" r="3.2" fill="#ff922b" opacity="0.85"/>
<circle cx="279.1" cy="347.9" r="3.2" fill="#ff922b" opacity="0.85"/>
<circle cx="294.3" cy="347.9" r="3.2" fill="#ff922b" opacity="0.85"/>
<circle cx="309.4" cy="347.7" r="3.2" fill="#ff922b" opacity="0.85"/>
<circle cx="324.6" cy="229.9" r="3.2" fill="#ff922b" opacity="0.85"/>
<circle cx="339.8" cy="227.9" r="3.2" fill="#ff922b" opacity="0.85"/>
<circle cx="354.9" cy="347.5" r="3.2" fill="#ff922b" opacity="0.85"/>
<circle cx="370.1" cy="229.9" r="3.2" fill="#ff922b" opacity="0.85"/>
<circle cx="385.3" cy="348.0" r="3.2" fill="#ff922b" opacity="0.85"/>
<circle cx="400.4" cy="347.9" r="3.2" fill="#ff922b" opacity="0.85"/>
<circle cx="415.6" cy="348.0" r="3.2" fill="#ff922b" opacity="0.85"/>
<circle cx="430.8" cy="347.9" r="3.2" fill="#ff922b" opacity="0.85"/>
<circle cx="446.0" cy="347.9" r="3.2" fill="#ff922b" opacity="0.85"/>
<circle cx="461.1" cy="347.8" r="3.2" fill="#ff922b" opacity="0.85"/>
<circle cx="476.3" cy="347.8" r="3.2" fill="#ff922b" opacity="0.85"/>
<circle cx="491.5" cy="347.7" r="3.2" fill="#ff922b" opacity="0.85"/>
<circle cx="506.6" cy="347.7" r="3.2" fill="#ff922b" opacity="0.85"/>
<circle cx="521.8" cy="347.8" r="3.2" fill="#ff922b" opacity="0.85"/>
<circle cx="537.0" cy="347.7" r="3.2" fill="#ff922b" opacity="0.85"/>
<circle cx="552.1" cy="348.0" r="3.2" fill="#ff922b" opacity="0.85"/>
<circle cx="567.3" cy="229.8" r="3.2" fill="#ff922b" opacity="0.85"/>
<circle cx="582.5" cy="229.9" r="3.2" fill="#ff922b" opacity="0.85"/>
<circle cx="597.6" cy="347.9" r="3.2" fill="#ff922b" opacity="0.85"/>
<circle cx="612.8" cy="347.5" r="3.2" fill="#ff922b" opacity="0.85"/>
<circle cx="628.0" cy="347.8" r="3.2" fill="#ff922b" opacity="0.85"/>
<circle cx="643.2" cy="347.9" r="3.2" fill="#ff922b" opacity="0.85"/>
<circle cx="658.3" cy="347.9" r="3.2" fill="#ff922b" opacity="0.85"/>
<circle cx="673.5" cy="233.2" r="3.2" fill="#ff922b" opacity="0.85"/>
<circle cx="688.7" cy="347.7" r="3.2" fill="#ff922b" opacity="0.85"/>
<circle cx="703.8" cy="347.9" r="3.2" fill="#ff922b" opacity="0.85"/>
<circle cx="719.0" cy="347.9" r="3.2" fill="#ff922b" opacity="0.85"/>
<circle cx="734.2" cy="348.0" r="3.2" fill="#ff922b" opacity="0.85"/>
<circle cx="749.3" cy="348.0" r="3.2" fill="#ff922b" opacity="0.85"/>
<circle cx="764.5" cy="229.8" r="3.2" fill="#ff922b" opacity="0.85"/>
<circle cx="779.7" cy="233.1" r="3.2" fill="#ff922b" opacity="0.85"/>
<circle cx="847" cy="84" r="5" fill="#ff922b"/>
<text x="866" y="88" font-size="13" fill="#c9d1d9" font-weight="700">Kāra</text>
<line x1="836" y1="108" x2="858" y2="108" stroke="#a7b0bc" stroke-width="2" stroke-dasharray="5 4"/>
<text x="866" y="112" font-size="13" fill="#c9d1d9" font-weight="400">Rust = 1.0×</text>
<circle cx="847" cy="132" r="4" fill="#3fb950"/>
<text x="866" y="136" font-size="13" fill="#c9d1d9" font-weight="400">C</text>
<circle cx="847" cy="156" r="4" fill="#bc8cff"/>
<text x="866" y="160" font-size="13" fill="#c9d1d9" font-weight="400">Go</text>
<text x="70" y="538" font-size="11.5" fill="#8b949e">Each dot is one benchmarked program (kata × approach); there is no connecting line because left-to-right order is not meaningful. Raw numbers: bench-results.json</text>
</svg>