<svg xmlns="http://www.w3.org/2000/svg" width="980" height="560" viewBox="0 0 980 560" font-family="-apple-system,Segoe UI,Helvetica,Arial,sans-serif">
<rect width="980" height="560" fill="#282c34"/>
<text x="70" y="34" font-size="21" font-weight="700" fill="#c9d1d9">Binary size — sequential lane</text>
<text x="70" y="56" font-size="13" fill="#8b949e">relative to Rust = 1.0 · lower = smaller · 57 programs · log scale</text>
<line x1="70" y1="456.0" x2="812" y2="456.0" stroke="#3b414b" stroke-width="1"/>
<text x="60" y="460.0" font-size="12" text-anchor="end" fill="#8b949e">0.01×</text>
<line x1="70" y1="418.1" x2="812" y2="418.1" stroke="#3b414b" stroke-width="1"/>
<text x="60" y="422.1" font-size="12" text-anchor="end" fill="#8b949e">0.02×</text>
<line x1="70" y1="367.9" x2="812" y2="367.9" stroke="#3b414b" stroke-width="1"/>
<text x="60" y="371.9" font-size="12" text-anchor="end" fill="#8b949e">0.05×</text>
<line x1="70" y1="330.0" x2="812" y2="330.0" stroke="#3b414b" stroke-width="1"/>
<text x="60" y="334.0" font-size="12" text-anchor="end" fill="#8b949e">0.1×</text>
<line x1="70" y1="292.1" x2="812" y2="292.1" stroke="#3b414b" stroke-width="1"/>
<text x="60" y="296.1" font-size="12" text-anchor="end" fill="#8b949e">0.2×</text>
<line x1="70" y1="241.9" x2="812" y2="241.9" stroke="#3b414b" stroke-width="1"/>
<text x="60" y="245.9" font-size="12" text-anchor="end" fill="#8b949e">0.5×</text>
<line x1="70" y1="204.0" x2="812" y2="204.0" stroke="#a7b0bc" stroke-width="2" stroke-dasharray="5 4"/>
<text x="60" y="208.0" font-size="12" text-anchor="end" fill="#aeb6c0" font-weight="700">1×</text>
<line x1="70" y1="166.1" x2="812" y2="166.1" stroke="#3b414b" stroke-width="1"/>
<text x="60" y="170.1" font-size="12" text-anchor="end" fill="#8b949e">2×</text>
<line x1="70" y1="115.9" x2="812" y2="115.9" stroke="#3b414b" stroke-width="1"/>
<text x="60" y="119.9" font-size="12" text-anchor="end" fill="#8b949e">5×</text>
<line x1="70" y1="78.0" x2="812" y2="78.0" stroke="#3b414b" stroke-width="1"/>
<text x="60" y="82.0" font-size="12" text-anchor="end" fill="#8b949e">10×</text>
<text x="812" y="198.0" font-size="11" text-anchor="end" fill="#aeb6c0">Rust baseline</text>
<line x1="70" y1="456" x2="812" y2="456" stroke="#3b414b"/>
<text x="441.0" y="478" font-size="11" text-anchor="middle" fill="#8b949e">57 programs (kata × approach) — x-order carries no meaning</text>
<circle cx="99.7" cy="347.9" r="2.6" fill="#3fb950" opacity="0.7"/>
<circle cx="111.9" cy="347.9" r="2.6" fill="#3fb950" opacity="0.7"/>
<circle cx="124.1" cy="347.9" r="2.6" fill="#3fb950" opacity="0.7"/>
<circle cx="136.2" cy="348.2" r="2.6" fill="#3fb950" opacity="0.7"/>
<circle cx="148.4" cy="348.1" r="2.6" fill="#3fb950" opacity="0.7"/>
<circle cx="160.6" cy="348.0" r="2.6" fill="#3fb950" opacity="0.7"/>
<circle cx="172.8" cy="347.6" r="2.6" fill="#3fb950" opacity="0.7"/>
<circle cx="185.0" cy="348.1" r="2.6" fill="#3fb950" opacity="0.7"/>
<circle cx="197.2" cy="348.1" r="2.6" fill="#3fb950" opacity="0.7"/>
<circle cx="209.4" cy="348.1" r="2.6" fill="#3fb950" opacity="0.7"/>
<circle cx="221.6" cy="348.1" r="2.6" fill="#3fb950" opacity="0.7"/>
<circle cx="233.8" cy="348.1" r="2.6" fill="#3fb950" opacity="0.7"/>
<circle cx="246.0" cy="348.0" r="2.6" fill="#3fb950" opacity="0.7"/>
<circle cx="258.1" cy="348.0" r="2.6" fill="#3fb950" opacity="0.7"/>
<circle cx="270.3" cy="348.0" r="2.6" fill="#3fb950" opacity="0.7"/>
<circle cx="282.5" cy="349.9" r="2.6" fill="#3fb950" opacity="0.7"/>
<circle cx="294.7" cy="348.0" r="2.6" fill="#3fb950" opacity="0.7"/>
<circle cx="306.9" cy="347.7" r="2.6" fill="#3fb950" opacity="0.7"/>
<circle cx="319.1" cy="349.9" r="2.6" fill="#3fb950" opacity="0.7"/>
<circle cx="331.3" cy="348.2" r="2.6" fill="#3fb950" opacity="0.7"/>
<circle cx="343.5" cy="348.0" r="2.6" fill="#3fb950" opacity="0.7"/>
<circle cx="355.7" cy="348.1" r="2.6" fill="#3fb950" opacity="0.7"/>
<circle cx="367.9" cy="347.9" r="2.6" fill="#3fb950" opacity="0.7"/>
<circle cx="380.1" cy="348.1" r="2.6" fill="#3fb950" opacity="0.7"/>
<circle cx="392.2" cy="348.2" r="2.6" fill="#3fb950" opacity="0.7"/>
<circle cx="404.4" cy="348.2" r="2.6" fill="#3fb950" opacity="0.7"/>
<circle cx="416.6" cy="348.0" r="2.6" fill="#3fb950" opacity="0.7"/>
<circle cx="428.8" cy="348.0" r="2.6" fill="#3fb950" opacity="0.7"/>
<circle cx="441.0" cy="348.0" r="2.6" fill="#3fb950" opacity="0.7"/>
<circle cx="453.2" cy="348.0" r="2.6" fill="#3fb950" opacity="0.7"/>
<circle cx="465.4" cy="348.2" r="2.6" fill="#3fb950" opacity="0.7"/>
<circle cx="477.6" cy="349.9" r="2.6" fill="#3fb950" opacity="0.7"/>
<circle cx="489.8" cy="348.0" r="2.6" fill="#3fb950" opacity="0.7"/>
<circle cx="501.9" cy="348.1" r="2.6" fill="#3fb950" opacity="0.7"/>
<circle cx="514.1" cy="348.1" r="2.6" fill="#3fb950" opacity="0.7"/>
<circle cx="526.3" cy="348.1" r="2.6" fill="#3fb950" opacity="0.7"/>
<circle cx="538.5" cy="347.9" r="2.6" fill="#3fb950" opacity="0.7"/>
<circle cx="550.7" cy="350.0" r="2.6" fill="#3fb950" opacity="0.7"/>
<circle cx="562.9" cy="348.1" r="2.6" fill="#3fb950" opacity="0.7"/>
<circle cx="575.1" cy="348.0" r="2.6" fill="#3fb950" opacity="0.7"/>
<circle cx="587.3" cy="348.0" r="2.6" fill="#3fb950" opacity="0.7"/>
<circle cx="599.5" cy="348.2" r="2.6" fill="#3fb950" opacity="0.7"/>
<circle cx="611.7" cy="348.1" r="2.6" fill="#3fb950" opacity="0.7"/>
<circle cx="623.8" cy="348.1" r="2.6" fill="#3fb950" opacity="0.7"/>
<circle cx="636.0" cy="350.0" r="2.6" fill="#3fb950" opacity="0.7"/>
<circle cx="648.2" cy="347.9" r="2.6" fill="#3fb950" opacity="0.7"/>
<circle cx="660.4" cy="347.9" r="2.6" fill="#3fb950" opacity="0.7"/>
<circle cx="672.6" cy="348.0" r="2.6" fill="#3fb950" opacity="0.7"/>
<circle cx="684.8" cy="348.0" r="2.6" fill="#3fb950" opacity="0.7"/>
<circle cx="697.0" cy="348.3" r="2.6" fill="#3fb950" opacity="0.7"/>
<circle cx="709.2" cy="348.3" r="2.6" fill="#3fb950" opacity="0.7"/>
<circle cx="721.4" cy="347.9" r="2.6" fill="#3fb950" opacity="0.7"/>
<circle cx="733.6" cy="347.8" r="2.6" fill="#3fb950" opacity="0.7"/>
<circle cx="745.8" cy="348.0" r="2.6" fill="#3fb950" opacity="0.7"/>
<circle cx="757.9" cy="347.8" r="2.6" fill="#3fb950" opacity="0.7"/>
<circle cx="770.1" cy="349.8" r="2.6" fill="#3fb950" opacity="0.7"/>
<circle cx="782.3" cy="349.5" r="2.6" fill="#3fb950" opacity="0.7"/>
<circle cx="101.9" cy="112.3" r="2.6" fill="#bc8cff" opacity="0.7"/>
<circle cx="114.1" cy="112.5" r="2.6" fill="#bc8cff" opacity="0.7"/>
<circle cx="126.3" cy="112.4" r="2.6" fill="#bc8cff" opacity="0.7"/>
<circle cx="138.5" cy="112.5" r="2.6" fill="#bc8cff" opacity="0.7"/>
<circle cx="150.6" cy="112.3" r="2.6" fill="#bc8cff" opacity="0.7"/>
<circle cx="162.8" cy="112.3" r="2.6" fill="#bc8cff" opacity="0.7"/>
<circle cx="175.0" cy="112.3" r="2.6" fill="#bc8cff" opacity="0.7"/>
<circle cx="187.2" cy="112.3" r="2.6" fill="#bc8cff" opacity="0.7"/>
<circle cx="199.4" cy="112.3" r="2.6" fill="#bc8cff" opacity="0.7"/>
<circle cx="211.6" cy="112.3" r="2.6" fill="#bc8cff" opacity="0.7"/>
<circle cx="223.8" cy="112.3" r="2.6" fill="#bc8cff" opacity="0.7"/>
<circle cx="236.0" cy="112.3" r="2.6" fill="#bc8cff" opacity="0.7"/>
<circle cx="248.2" cy="112.3" r="2.6" fill="#bc8cff" opacity="0.7"/>
<circle cx="260.4" cy="112.3" r="2.6" fill="#bc8cff" opacity="0.7"/>
<circle cx="272.5" cy="112.3" r="2.6" fill="#bc8cff" opacity="0.7"/>
<circle cx="284.7" cy="113.9" r="2.6" fill="#bc8cff" opacity="0.7"/>
<circle cx="296.9" cy="111.9" r="2.6" fill="#bc8cff" opacity="0.7"/>
<circle cx="309.1" cy="112.3" r="2.6" fill="#bc8cff" opacity="0.7"/>
<circle cx="321.3" cy="113.9" r="2.6" fill="#bc8cff" opacity="0.7"/>
<circle cx="333.5" cy="112.4" r="2.6" fill="#bc8cff" opacity="0.7"/>
<circle cx="345.7" cy="112.3" r="2.6" fill="#bc8cff" opacity="0.7"/>
<circle cx="357.9" cy="112.4" r="2.6" fill="#bc8cff" opacity="0.7"/>
<circle cx="370.1" cy="112.4" r="2.6" fill="#bc8cff" opacity="0.7"/>
<circle cx="382.3" cy="112.4" r="2.6" fill="#bc8cff" opacity="0.7"/>
<circle cx="394.4" cy="112.4" r="2.6" fill="#bc8cff" opacity="0.7"/>
<circle cx="406.6" cy="112.4" r="2.6" fill="#bc8cff" opacity="0.7"/>
<circle cx="418.8" cy="112.3" r="2.6" fill="#bc8cff" opacity="0.7"/>
<circle cx="431.0" cy="112.3" r="2.6" fill="#bc8cff" opacity="0.7"/>
<circle cx="443.2" cy="112.3" r="2.6" fill="#bc8cff" opacity="0.7"/>
<circle cx="455.4" cy="112.3" r="2.6" fill="#bc8cff" opacity="0.7"/>
<circle cx="467.6" cy="112.3" r="2.6" fill="#bc8cff" opacity="0.7"/>
<circle cx="479.8" cy="114.4" r="2.6" fill="#bc8cff" opacity="0.7"/>
<circle cx="492.0" cy="112.3" r="2.6" fill="#bc8cff" opacity="0.7"/>
<circle cx="504.2" cy="112.4" r="2.6" fill="#bc8cff" opacity="0.7"/>
<circle cx="516.3" cy="112.3" r="2.6" fill="#bc8cff" opacity="0.7"/>
<circle cx="528.5" cy="112.3" r="2.6" fill="#bc8cff" opacity="0.7"/>
<circle cx="540.7" cy="112.3" r="2.6" fill="#bc8cff" opacity="0.7"/>
<circle cx="552.9" cy="113.9" r="2.6" fill="#bc8cff" opacity="0.7"/>
<circle cx="565.1" cy="112.3" r="2.6" fill="#bc8cff" opacity="0.7"/>
<circle cx="577.3" cy="112.3" r="2.6" fill="#bc8cff" opacity="0.7"/>
<circle cx="589.5" cy="112.3" r="2.6" fill="#bc8cff" opacity="0.7"/>
<circle cx="601.7" cy="112.3" r="2.6" fill="#bc8cff" opacity="0.7"/>
<circle cx="613.9" cy="112.3" r="2.6" fill="#bc8cff" opacity="0.7"/>
<circle cx="626.1" cy="112.3" r="2.6" fill="#bc8cff" opacity="0.7"/>
<circle cx="638.2" cy="114.7" r="2.6" fill="#bc8cff" opacity="0.7"/>
<circle cx="650.4" cy="112.3" r="2.6" fill="#bc8cff" opacity="0.7"/>
<circle cx="662.6" cy="112.3" r="2.6" fill="#bc8cff" opacity="0.7"/>
<circle cx="674.8" cy="112.4" r="2.6" fill="#bc8cff" opacity="0.7"/>
<circle cx="687.0" cy="112.3" r="2.6" fill="#bc8cff" opacity="0.7"/>
<circle cx="699.2" cy="112.5" r="2.6" fill="#bc8cff" opacity="0.7"/>
<circle cx="711.4" cy="112.5" r="2.6" fill="#bc8cff" opacity="0.7"/>
<circle cx="723.6" cy="112.3" r="2.6" fill="#bc8cff" opacity="0.7"/>
<circle cx="735.8" cy="112.3" r="2.6" fill="#bc8cff" opacity="0.7"/>
<circle cx="748.0" cy="112.3" r="2.6" fill="#bc8cff" opacity="0.7"/>
<circle cx="760.1" cy="112.3" r="2.6" fill="#bc8cff" opacity="0.7"/>
<circle cx="772.3" cy="113.8" r="2.6" fill="#bc8cff" opacity="0.7"/>
<circle cx="784.5" cy="114.5" r="2.6" fill="#bc8cff" opacity="0.7"/>
<circle cx="97.5" cy="347.6" r="3.2" fill="#ff922b" opacity="0.85"/>
<circle cx="109.7" cy="231.0" r="3.2" fill="#ff922b" opacity="0.85"/>
<circle cx="121.9" cy="347.1" r="3.2" fill="#ff922b" opacity="0.85"/>
<circle cx="134.0" cy="231.0" r="3.2" fill="#ff922b" opacity="0.85"/>
<circle cx="146.2" cy="347.2" r="3.2" fill="#ff922b" opacity="0.85"/>
<circle cx="158.4" cy="346.9" r="3.2" fill="#ff922b" opacity="0.85"/>
<circle cx="170.6" cy="347.0" r="3.2" fill="#ff922b" opacity="0.85"/>
<circle cx="182.8" cy="347.1" r="3.2" fill="#ff922b" opacity="0.85"/>
<circle cx="195.0" cy="347.3" r="3.2" fill="#ff922b" opacity="0.85"/>
<circle cx="207.2" cy="347.2" r="3.2" fill="#ff922b" opacity="0.85"/>
<circle cx="219.4" cy="347.3" r="3.2" fill="#ff922b" opacity="0.85"/>
<circle cx="231.6" cy="347.2" r="3.2" fill="#ff922b" opacity="0.85"/>
<circle cx="243.8" cy="347.1" r="3.2" fill="#ff922b" opacity="0.85"/>
<circle cx="255.9" cy="347.1" r="3.2" fill="#ff922b" opacity="0.85"/>
<circle cx="268.1" cy="346.9" r="3.2" fill="#ff922b" opacity="0.85"/>
<circle cx="280.3" cy="348.9" r="3.2" fill="#ff922b" opacity="0.85"/>
<circle cx="292.5" cy="346.9" r="3.2" fill="#ff922b" opacity="0.85"/>
<circle cx="304.7" cy="230.8" r="3.2" fill="#ff922b" opacity="0.85"/>
<circle cx="316.9" cy="348.9" r="3.2" fill="#ff922b" opacity="0.85"/>
<circle cx="329.1" cy="347.6" r="3.2" fill="#ff922b" opacity="0.85"/>
<circle cx="341.3" cy="347.1" r="3.2" fill="#ff922b" opacity="0.85"/>
<circle cx="353.5" cy="347.6" r="3.2" fill="#ff922b" opacity="0.85"/>
<circle cx="365.7" cy="347.2" r="3.2" fill="#ff922b" opacity="0.85"/>
<circle cx="377.8" cy="347.3" r="3.2" fill="#ff922b" opacity="0.85"/>
<circle cx="390.0" cy="347.5" r="3.2" fill="#ff922b" opacity="0.85"/>
<circle cx="402.2" cy="347.5" r="3.2" fill="#ff922b" opacity="0.85"/>
<circle cx="414.4" cy="347.2" r="3.2" fill="#ff922b" opacity="0.85"/>
<circle cx="426.6" cy="347.2" r="3.2" fill="#ff922b" opacity="0.85"/>
<circle cx="438.8" cy="347.2" r="3.2" fill="#ff922b" opacity="0.85"/>
<circle cx="451.0" cy="347.2" r="3.2" fill="#ff922b" opacity="0.85"/>
<circle cx="463.2" cy="347.7" r="3.2" fill="#ff922b" opacity="0.85"/>
<circle cx="475.4" cy="229.8" r="3.2" fill="#ff922b" opacity="0.85"/>
<circle cx="487.6" cy="347.4" r="3.2" fill="#ff922b" opacity="0.85"/>
<circle cx="499.7" cy="347.2" r="3.2" fill="#ff922b" opacity="0.85"/>
<circle cx="511.9" cy="347.1" r="3.2" fill="#ff922b" opacity="0.85"/>
<circle cx="524.1" cy="347.1" r="3.2" fill="#ff922b" opacity="0.85"/>
<circle cx="536.3" cy="227.8" r="3.2" fill="#ff922b" opacity="0.85"/>
<circle cx="548.5" cy="348.9" r="3.2" fill="#ff922b" opacity="0.85"/>
<circle cx="560.7" cy="347.3" r="3.2" fill="#ff922b" opacity="0.85"/>
<circle cx="572.9" cy="346.9" r="3.2" fill="#ff922b" opacity="0.85"/>
<circle cx="585.1" cy="347.2" r="3.2" fill="#ff922b" opacity="0.85"/>
<circle cx="597.3" cy="347.3" r="3.2" fill="#ff922b" opacity="0.85"/>
<circle cx="609.5" cy="347.2" r="3.2" fill="#ff922b" opacity="0.85"/>
<circle cx="621.6" cy="347.1" r="3.2" fill="#ff922b" opacity="0.85"/>
<circle cx="633.8" cy="227.0" r="3.2" fill="#ff922b" opacity="0.85"/>
<circle cx="646.0" cy="347.1" r="3.2" fill="#ff922b" opacity="0.85"/>
<circle cx="658.2" cy="347.2" r="3.2" fill="#ff922b" opacity="0.85"/>
<circle cx="670.4" cy="227.9" r="3.2" fill="#ff922b" opacity="0.85"/>
<circle cx="682.6" cy="347.3" r="3.2" fill="#ff922b" opacity="0.85"/>
<circle cx="694.8" cy="347.3" r="3.2" fill="#ff922b" opacity="0.85"/>
<circle cx="707.0" cy="347.4" r="3.2" fill="#ff922b" opacity="0.85"/>
<circle cx="719.2" cy="227.8" r="3.2" fill="#ff922b" opacity="0.85"/>
<circle cx="731.4" cy="230.8" r="3.2" fill="#ff922b" opacity="0.85"/>
<circle cx="743.5" cy="227.8" r="3.2" fill="#ff922b" opacity="0.85"/>
<circle cx="755.7" cy="347.1" r="3.2" fill="#ff922b" opacity="0.85"/>
<circle cx="767.9" cy="348.8" r="3.2" fill="#ff922b" opacity="0.85"/>
<circle cx="780.1" cy="233.0" r="3.2" fill="#ff922b" opacity="0.85"/>
<circle cx="847" cy="84" r="5" fill="#ff922b"/>
<text x="866" y="88" font-size="13" fill="#c9d1d9" font-weight="700">Kāra</text>
<line x1="836" y1="108" x2="858" y2="108" stroke="#a7b0bc" stroke-width="2" stroke-dasharray="5 4"/>
<text x="866" y="112" font-size="13" fill="#c9d1d9" font-weight="400">Rust = 1.0×</text>
<circle cx="847" cy="132" r="4" fill="#3fb950"/>
<text x="866" y="136" font-size="13" fill="#c9d1d9" font-weight="400">C</text>
<circle cx="847" cy="156" r="4" fill="#bc8cff"/>
<text x="866" y="160" font-size="13" fill="#c9d1d9" font-weight="400">Go</text>
<text x="70" y="538" font-size="11.5" fill="#8b949e">Each dot is one benchmarked program (kata × approach); there is no connecting line because left-to-right order is not meaningful. Raw numbers: bench-results.json</text>
</svg>