<svg xmlns="http://www.w3.org/2000/svg" width="980" height="560" viewBox="0 0 980 560" font-family="-apple-system,Segoe UI,Helvetica,Arial,sans-serif">
<rect width="980" height="560" fill="#282c34"/>
<text x="70" y="34" font-size="21" font-weight="700" fill="#c9d1d9">Binary size — sequential lane</text>
<text x="70" y="56" font-size="13" fill="#8b949e">relative to Rust = 1.0 · lower = smaller · 36 programs · log scale</text>
<line x1="70" y1="456.0" x2="812" y2="456.0" stroke="#3b414b" stroke-width="1"/>
<text x="60" y="460.0" font-size="12" text-anchor="end" fill="#8b949e">0.01×</text>
<line x1="70" y1="418.1" x2="812" y2="418.1" stroke="#3b414b" stroke-width="1"/>
<text x="60" y="422.1" font-size="12" text-anchor="end" fill="#8b949e">0.02×</text>
<line x1="70" y1="367.9" x2="812" y2="367.9" stroke="#3b414b" stroke-width="1"/>
<text x="60" y="371.9" font-size="12" text-anchor="end" fill="#8b949e">0.05×</text>
<line x1="70" y1="330.0" x2="812" y2="330.0" stroke="#3b414b" stroke-width="1"/>
<text x="60" y="334.0" font-size="12" text-anchor="end" fill="#8b949e">0.1×</text>
<line x1="70" y1="292.1" x2="812" y2="292.1" stroke="#3b414b" stroke-width="1"/>
<text x="60" y="296.1" font-size="12" text-anchor="end" fill="#8b949e">0.2×</text>
<line x1="70" y1="241.9" x2="812" y2="241.9" stroke="#3b414b" stroke-width="1"/>
<text x="60" y="245.9" font-size="12" text-anchor="end" fill="#8b949e">0.5×</text>
<line x1="70" y1="204.0" x2="812" y2="204.0" stroke="#6e7681" stroke-width="1.4" stroke-dasharray="5 4"/>
<text x="60" y="208.0" font-size="12" text-anchor="end" fill="#aeb6c0" font-weight="700">1×</text>
<line x1="70" y1="166.1" x2="812" y2="166.1" stroke="#3b414b" stroke-width="1"/>
<text x="60" y="170.1" font-size="12" text-anchor="end" fill="#8b949e">2×</text>
<line x1="70" y1="115.9" x2="812" y2="115.9" stroke="#3b414b" stroke-width="1"/>
<text x="60" y="119.9" font-size="12" text-anchor="end" fill="#8b949e">5×</text>
<line x1="70" y1="78.0" x2="812" y2="78.0" stroke="#3b414b" stroke-width="1"/>
<text x="60" y="82.0" font-size="12" text-anchor="end" fill="#8b949e">10×</text>
<text x="812" y="198.0" font-size="11" text-anchor="end" fill="#aeb6c0">Rust baseline</text>
<line x1="70" y1="456" x2="812" y2="456" stroke="#3b414b"/>
<text x="441.0" y="478" font-size="11" text-anchor="middle" fill="#8b949e">36 programs (kata × approach) — x-order carries no meaning</text>
<circle cx="99.7" cy="347.9" r="2.6" fill="#3fb950" opacity="0.7"/>
<circle cx="119.2" cy="347.9" r="2.6" fill="#3fb950" opacity="0.7"/>
<circle cx="138.7" cy="347.9" r="2.6" fill="#3fb950" opacity="0.7"/>
<circle cx="158.2" cy="348.2" r="2.6" fill="#3fb950" opacity="0.7"/>
<circle cx="177.7" cy="348.1" r="2.6" fill="#3fb950" opacity="0.7"/>
<circle cx="197.2" cy="348.0" r="2.6" fill="#3fb950" opacity="0.7"/>
<circle cx="216.7" cy="347.6" r="2.6" fill="#3fb950" opacity="0.7"/>
<circle cx="236.2" cy="348.1" r="2.6" fill="#3fb950" opacity="0.7"/>
<circle cx="255.7" cy="348.1" r="2.6" fill="#3fb950" opacity="0.7"/>
<circle cx="275.2" cy="348.1" r="2.6" fill="#3fb950" opacity="0.7"/>
<circle cx="294.7" cy="348.1" r="2.6" fill="#3fb950" opacity="0.7"/>
<circle cx="314.2" cy="348.1" r="2.6" fill="#3fb950" opacity="0.7"/>
<circle cx="333.7" cy="348.0" r="2.6" fill="#3fb950" opacity="0.7"/>
<circle cx="353.2" cy="348.0" r="2.6" fill="#3fb950" opacity="0.7"/>
<circle cx="372.7" cy="348.0" r="2.6" fill="#3fb950" opacity="0.7"/>
<circle cx="392.2" cy="349.9" r="2.6" fill="#3fb950" opacity="0.7"/>
<circle cx="411.7" cy="348.0" r="2.6" fill="#3fb950" opacity="0.7"/>
<circle cx="431.2" cy="347.7" r="2.6" fill="#3fb950" opacity="0.7"/>
<circle cx="450.8" cy="349.9" r="2.6" fill="#3fb950" opacity="0.7"/>
<circle cx="470.3" cy="348.2" r="2.6" fill="#3fb950" opacity="0.7"/>
<circle cx="489.8" cy="348.0" r="2.6" fill="#3fb950" opacity="0.7"/>
<circle cx="509.3" cy="348.1" r="2.6" fill="#3fb950" opacity="0.7"/>
<circle cx="528.8" cy="350.0" r="2.6" fill="#3fb950" opacity="0.7"/>
<circle cx="548.3" cy="348.1" r="2.6" fill="#3fb950" opacity="0.7"/>
<circle cx="567.8" cy="348.0" r="2.6" fill="#3fb950" opacity="0.7"/>
<circle cx="587.3" cy="348.0" r="2.6" fill="#3fb950" opacity="0.7"/>
<circle cx="606.8" cy="348.2" r="2.6" fill="#3fb950" opacity="0.7"/>
<circle cx="626.3" cy="348.1" r="2.6" fill="#3fb950" opacity="0.7"/>
<circle cx="645.8" cy="350.0" r="2.6" fill="#3fb950" opacity="0.7"/>
<circle cx="665.3" cy="347.9" r="2.6" fill="#3fb950" opacity="0.7"/>
<circle cx="684.8" cy="347.9" r="2.6" fill="#3fb950" opacity="0.7"/>
<circle cx="704.3" cy="348.0" r="2.6" fill="#3fb950" opacity="0.7"/>
<circle cx="723.8" cy="348.3" r="2.6" fill="#3fb950" opacity="0.7"/>
<circle cx="743.3" cy="348.3" r="2.6" fill="#3fb950" opacity="0.7"/>
<circle cx="762.8" cy="349.8" r="2.6" fill="#3fb950" opacity="0.7"/>
<circle cx="782.3" cy="349.5" r="2.6" fill="#3fb950" opacity="0.7"/>
<circle cx="102.3" cy="112.3" r="2.6" fill="#bc8cff" opacity="0.7"/>
<circle cx="121.8" cy="112.5" r="2.6" fill="#bc8cff" opacity="0.7"/>
<circle cx="141.3" cy="112.4" r="2.6" fill="#bc8cff" opacity="0.7"/>
<circle cx="160.8" cy="112.5" r="2.6" fill="#bc8cff" opacity="0.7"/>
<circle cx="180.3" cy="112.3" r="2.6" fill="#bc8cff" opacity="0.7"/>
<circle cx="199.8" cy="112.3" r="2.6" fill="#bc8cff" opacity="0.7"/>
<circle cx="219.3" cy="112.3" r="2.6" fill="#bc8cff" opacity="0.7"/>
<circle cx="238.8" cy="112.3" r="2.6" fill="#bc8cff" opacity="0.7"/>
<circle cx="258.3" cy="112.3" r="2.6" fill="#bc8cff" opacity="0.7"/>
<circle cx="277.8" cy="112.3" r="2.6" fill="#bc8cff" opacity="0.7"/>
<circle cx="297.4" cy="112.3" r="2.6" fill="#bc8cff" opacity="0.7"/>
<circle cx="316.9" cy="112.3" r="2.6" fill="#bc8cff" opacity="0.7"/>
<circle cx="336.4" cy="112.3" r="2.6" fill="#bc8cff" opacity="0.7"/>
<circle cx="355.9" cy="112.3" r="2.6" fill="#bc8cff" opacity="0.7"/>
<circle cx="375.4" cy="112.3" r="2.6" fill="#bc8cff" opacity="0.7"/>
<circle cx="394.9" cy="113.9" r="2.6" fill="#bc8cff" opacity="0.7"/>
<circle cx="414.4" cy="111.9" r="2.6" fill="#bc8cff" opacity="0.7"/>
<circle cx="433.9" cy="112.3" r="2.6" fill="#bc8cff" opacity="0.7"/>
<circle cx="453.4" cy="113.9" r="2.6" fill="#bc8cff" opacity="0.7"/>
<circle cx="472.9" cy="112.4" r="2.6" fill="#bc8cff" opacity="0.7"/>
<circle cx="492.4" cy="112.3" r="2.6" fill="#bc8cff" opacity="0.7"/>
<circle cx="511.9" cy="112.4" r="2.6" fill="#bc8cff" opacity="0.7"/>
<circle cx="531.4" cy="113.9" r="2.6" fill="#bc8cff" opacity="0.7"/>
<circle cx="550.9" cy="112.3" r="2.6" fill="#bc8cff" opacity="0.7"/>
<circle cx="570.4" cy="112.3" r="2.6" fill="#bc8cff" opacity="0.7"/>
<circle cx="589.9" cy="112.3" r="2.6" fill="#bc8cff" opacity="0.7"/>
<circle cx="609.4" cy="112.3" r="2.6" fill="#bc8cff" opacity="0.7"/>
<circle cx="628.9" cy="112.3" r="2.6" fill="#bc8cff" opacity="0.7"/>
<circle cx="648.4" cy="114.7" r="2.6" fill="#bc8cff" opacity="0.7"/>
<circle cx="667.9" cy="112.3" r="2.6" fill="#bc8cff" opacity="0.7"/>
<circle cx="687.4" cy="112.3" r="2.6" fill="#bc8cff" opacity="0.7"/>
<circle cx="706.9" cy="112.3" r="2.6" fill="#bc8cff" opacity="0.7"/>
<circle cx="726.4" cy="112.5" r="2.6" fill="#bc8cff" opacity="0.7"/>
<circle cx="745.9" cy="112.5" r="2.6" fill="#bc8cff" opacity="0.7"/>
<circle cx="765.4" cy="113.8" r="2.6" fill="#bc8cff" opacity="0.7"/>
<circle cx="785.0" cy="114.5" r="2.6" fill="#bc8cff" opacity="0.7"/>
<circle cx="97.0" cy="348.0" r="3.2" fill="#ff922b" opacity="0.85"/>
<circle cx="116.6" cy="231.1" r="3.2" fill="#ff922b" opacity="0.85"/>
<circle cx="136.1" cy="348.0" r="3.2" fill="#ff922b" opacity="0.85"/>
<circle cx="155.6" cy="231.1" r="3.2" fill="#ff922b" opacity="0.85"/>
<circle cx="175.1" cy="347.7" r="3.2" fill="#ff922b" opacity="0.85"/>
<circle cx="194.6" cy="325.7" r="3.2" fill="#ff922b" opacity="0.85"/>
<circle cx="214.1" cy="325.7" r="3.2" fill="#ff922b" opacity="0.85"/>
<circle cx="233.6" cy="347.9" r="3.2" fill="#ff922b" opacity="0.85"/>
<circle cx="253.1" cy="347.9" r="3.2" fill="#ff922b" opacity="0.85"/>
<circle cx="272.6" cy="347.9" r="3.2" fill="#ff922b" opacity="0.85"/>
<circle cx="292.1" cy="347.8" r="3.2" fill="#ff922b" opacity="0.85"/>
<circle cx="311.6" cy="347.9" r="3.2" fill="#ff922b" opacity="0.85"/>
<circle cx="331.1" cy="347.9" r="3.2" fill="#ff922b" opacity="0.85"/>
<circle cx="350.6" cy="347.9" r="3.2" fill="#ff922b" opacity="0.85"/>
<circle cx="370.1" cy="347.7" r="3.2" fill="#ff922b" opacity="0.85"/>
<circle cx="389.6" cy="229.9" r="3.2" fill="#ff922b" opacity="0.85"/>
<circle cx="409.1" cy="227.9" r="3.2" fill="#ff922b" opacity="0.85"/>
<circle cx="428.6" cy="347.5" r="3.2" fill="#ff922b" opacity="0.85"/>
<circle cx="448.1" cy="229.9" r="3.2" fill="#ff922b" opacity="0.85"/>
<circle cx="467.6" cy="348.0" r="3.2" fill="#ff922b" opacity="0.85"/>
<circle cx="487.1" cy="347.9" r="3.2" fill="#ff922b" opacity="0.85"/>
<circle cx="506.6" cy="348.0" r="3.2" fill="#ff922b" opacity="0.85"/>
<circle cx="526.1" cy="229.9" r="3.2" fill="#ff922b" opacity="0.85"/>
<circle cx="545.6" cy="347.9" r="3.2" fill="#ff922b" opacity="0.85"/>
<circle cx="565.1" cy="347.5" r="3.2" fill="#ff922b" opacity="0.85"/>
<circle cx="584.6" cy="325.8" r="3.2" fill="#ff922b" opacity="0.85"/>
<circle cx="604.2" cy="347.9" r="3.2" fill="#ff922b" opacity="0.85"/>
<circle cx="623.7" cy="347.9" r="3.2" fill="#ff922b" opacity="0.85"/>
<circle cx="643.2" cy="233.2" r="3.2" fill="#ff922b" opacity="0.85"/>
<circle cx="662.7" cy="347.7" r="3.2" fill="#ff922b" opacity="0.85"/>
<circle cx="682.2" cy="347.9" r="3.2" fill="#ff922b" opacity="0.85"/>
<circle cx="701.7" cy="347.9" r="3.2" fill="#ff922b" opacity="0.85"/>
<circle cx="721.2" cy="348.0" r="3.2" fill="#ff922b" opacity="0.85"/>
<circle cx="740.7" cy="348.0" r="3.2" fill="#ff922b" opacity="0.85"/>
<circle cx="760.2" cy="229.8" r="3.2" fill="#ff922b" opacity="0.85"/>
<circle cx="779.7" cy="233.1" r="3.2" fill="#ff922b" opacity="0.85"/>
<circle cx="847" cy="84" r="5" fill="#ff922b"/>
<text x="866" y="88" font-size="13" fill="#c9d1d9" font-weight="700">Kāra</text>
<line x1="836" y1="108" x2="858" y2="108" stroke="#6e7681" stroke-width="1.6" stroke-dasharray="5 4"/>
<text x="866" y="112" font-size="13" fill="#c9d1d9" font-weight="400">Rust</text>
<circle cx="847" cy="132" r="4" fill="#3fb950"/>
<text x="866" y="136" font-size="13" fill="#c9d1d9" font-weight="400">C</text>
<circle cx="847" cy="156" r="4" fill="#bc8cff"/>
<text x="866" y="160" font-size="13" fill="#c9d1d9" font-weight="400">Go</text>
<text x="70" y="538" font-size="11.5" fill="#8b949e">Each dot is one benchmarked program (kata × approach); there is no connecting line because left-to-right order is not meaningful. Raw numbers: bench-results.json</text>
</svg>