<svg xmlns="http://www.w3.org/2000/svg" width="980" height="560" viewBox="0 0 980 560" font-family="-apple-system,Segoe UI,Helvetica,Arial,sans-serif">
<rect width="980" height="560" fill="#282c34"/>
<text x="70" y="34" font-size="21" font-weight="700" fill="#c9d1d9">Binary size — sequential lane</text>
<text x="70" y="56" font-size="13" fill="#8b949e">relative to Rust = 1.0 · lower = smaller · 106 programs · log scale</text>
<line x1="70" y1="456.0" x2="812" y2="456.0" stroke="#3b414b" stroke-width="1"/>
<text x="60" y="460.0" font-size="12" text-anchor="end" fill="#8b949e">0.01×</text>
<line x1="70" y1="418.1" x2="812" y2="418.1" stroke="#3b414b" stroke-width="1"/>
<text x="60" y="422.1" font-size="12" text-anchor="end" fill="#8b949e">0.02×</text>
<line x1="70" y1="367.9" x2="812" y2="367.9" stroke="#3b414b" stroke-width="1"/>
<text x="60" y="371.9" font-size="12" text-anchor="end" fill="#8b949e">0.05×</text>
<line x1="70" y1="330.0" x2="812" y2="330.0" stroke="#3b414b" stroke-width="1"/>
<text x="60" y="334.0" font-size="12" text-anchor="end" fill="#8b949e">0.1×</text>
<line x1="70" y1="292.1" x2="812" y2="292.1" stroke="#3b414b" stroke-width="1"/>
<text x="60" y="296.1" font-size="12" text-anchor="end" fill="#8b949e">0.2×</text>
<line x1="70" y1="241.9" x2="812" y2="241.9" stroke="#3b414b" stroke-width="1"/>
<text x="60" y="245.9" font-size="12" text-anchor="end" fill="#8b949e">0.5×</text>
<line x1="70" y1="204.0" x2="812" y2="204.0" stroke="#a7b0bc" stroke-width="2" stroke-dasharray="5 4"/>
<text x="60" y="208.0" font-size="12" text-anchor="end" fill="#aeb6c0" font-weight="700">1×</text>
<line x1="70" y1="166.1" x2="812" y2="166.1" stroke="#3b414b" stroke-width="1"/>
<text x="60" y="170.1" font-size="12" text-anchor="end" fill="#8b949e">2×</text>
<line x1="70" y1="115.9" x2="812" y2="115.9" stroke="#3b414b" stroke-width="1"/>
<text x="60" y="119.9" font-size="12" text-anchor="end" fill="#8b949e">5×</text>
<line x1="70" y1="78.0" x2="812" y2="78.0" stroke="#3b414b" stroke-width="1"/>
<text x="60" y="82.0" font-size="12" text-anchor="end" fill="#8b949e">10×</text>
<text x="812" y="198.0" font-size="11" text-anchor="end" fill="#aeb6c0">Rust baseline</text>
<line x1="70" y1="456" x2="812" y2="456" stroke="#3b414b"/>
<text x="441.0" y="478" font-size="11" text-anchor="middle" fill="#8b949e">106 programs (kata × approach) — x-order carries no meaning</text>
<circle cx="99.7" cy="347.9" r="2.6" fill="#3fb950" opacity="0.7"/>
<circle cx="106.2" cy="347.9" r="2.6" fill="#3fb950" opacity="0.7"/>
<circle cx="112.7" cy="347.9" r="2.6" fill="#3fb950" opacity="0.7"/>
<circle cx="119.2" cy="348.2" r="2.6" fill="#3fb950" opacity="0.7"/>
<circle cx="125.7" cy="348.1" r="2.6" fill="#3fb950" opacity="0.7"/>
<circle cx="132.2" cy="348.0" r="2.6" fill="#3fb950" opacity="0.7"/>
<circle cx="138.7" cy="347.6" r="2.6" fill="#3fb950" opacity="0.7"/>
<circle cx="145.2" cy="348.1" r="2.6" fill="#3fb950" opacity="0.7"/>
<circle cx="151.7" cy="348.1" r="2.6" fill="#3fb950" opacity="0.7"/>
<circle cx="158.2" cy="348.1" r="2.6" fill="#3fb950" opacity="0.7"/>
<circle cx="164.7" cy="348.1" r="2.6" fill="#3fb950" opacity="0.7"/>
<circle cx="171.2" cy="348.1" r="2.6" fill="#3fb950" opacity="0.7"/>
<circle cx="177.7" cy="348.0" r="2.6" fill="#3fb950" opacity="0.7"/>
<circle cx="184.2" cy="348.0" r="2.6" fill="#3fb950" opacity="0.7"/>
<circle cx="190.7" cy="348.0" r="2.6" fill="#3fb950" opacity="0.7"/>
<circle cx="197.2" cy="349.9" r="2.6" fill="#3fb950" opacity="0.7"/>
<circle cx="203.7" cy="348.0" r="2.6" fill="#3fb950" opacity="0.7"/>
<circle cx="210.2" cy="347.7" r="2.6" fill="#3fb950" opacity="0.7"/>
<circle cx="216.7" cy="349.9" r="2.6" fill="#3fb950" opacity="0.7"/>
<circle cx="223.2" cy="348.2" r="2.6" fill="#3fb950" opacity="0.7"/>
<circle cx="229.7" cy="348.0" r="2.6" fill="#3fb950" opacity="0.7"/>
<circle cx="236.2" cy="348.1" r="2.6" fill="#3fb950" opacity="0.7"/>
<circle cx="242.7" cy="347.9" r="2.6" fill="#3fb950" opacity="0.7"/>
<circle cx="249.2" cy="348.1" r="2.6" fill="#3fb950" opacity="0.7"/>
<circle cx="255.7" cy="348.2" r="2.6" fill="#3fb950" opacity="0.7"/>
<circle cx="262.2" cy="348.2" r="2.6" fill="#3fb950" opacity="0.7"/>
<circle cx="268.7" cy="348.0" r="2.6" fill="#3fb950" opacity="0.7"/>
<circle cx="275.2" cy="348.0" r="2.6" fill="#3fb950" opacity="0.7"/>
<circle cx="281.7" cy="348.0" r="2.6" fill="#3fb950" opacity="0.7"/>
<circle cx="288.2" cy="348.0" r="2.6" fill="#3fb950" opacity="0.7"/>
<circle cx="294.7" cy="348.2" r="2.6" fill="#3fb950" opacity="0.7"/>
<circle cx="301.2" cy="349.9" r="2.6" fill="#3fb950" opacity="0.7"/>
<circle cx="307.7" cy="348.0" r="2.6" fill="#3fb950" opacity="0.7"/>
<circle cx="314.2" cy="348.1" r="2.6" fill="#3fb950" opacity="0.7"/>
<circle cx="320.7" cy="348.1" r="2.6" fill="#3fb950" opacity="0.7"/>
<circle cx="327.2" cy="348.1" r="2.6" fill="#3fb950" opacity="0.7"/>
<circle cx="333.7" cy="348.1" r="2.6" fill="#3fb950" opacity="0.7"/>
<circle cx="340.2" cy="347.9" r="2.6" fill="#3fb950" opacity="0.7"/>
<circle cx="346.7" cy="347.9" r="2.6" fill="#3fb950" opacity="0.7"/>
<circle cx="353.2" cy="347.9" r="2.6" fill="#3fb950" opacity="0.7"/>
<circle cx="359.7" cy="348.0" r="2.6" fill="#3fb950" opacity="0.7"/>
<circle cx="366.2" cy="347.6" r="2.6" fill="#3fb950" opacity="0.7"/>
<circle cx="372.7" cy="348.1" r="2.6" fill="#3fb950" opacity="0.7"/>
<circle cx="379.2" cy="348.1" r="2.6" fill="#3fb950" opacity="0.7"/>
<circle cx="385.7" cy="347.9" r="2.6" fill="#3fb950" opacity="0.7"/>
<circle cx="392.2" cy="348.1" r="2.6" fill="#3fb950" opacity="0.7"/>
<circle cx="398.7" cy="348.1" r="2.6" fill="#3fb950" opacity="0.7"/>
<circle cx="405.2" cy="347.7" r="2.6" fill="#3fb950" opacity="0.7"/>
<circle cx="411.7" cy="347.6" r="2.6" fill="#3fb950" opacity="0.7"/>
<circle cx="418.2" cy="348.0" r="2.6" fill="#3fb950" opacity="0.7"/>
<circle cx="424.7" cy="350.1" r="2.6" fill="#3fb950" opacity="0.7"/>
<circle cx="431.2" cy="348.1" r="2.6" fill="#3fb950" opacity="0.7"/>
<circle cx="437.7" cy="348.2" r="2.6" fill="#3fb950" opacity="0.7"/>
<circle cx="444.3" cy="348.2" r="2.6" fill="#3fb950" opacity="0.7"/>
<circle cx="450.8" cy="348.2" r="2.6" fill="#3fb950" opacity="0.7"/>
<circle cx="457.3" cy="347.8" r="2.6" fill="#3fb950" opacity="0.7"/>
<circle cx="463.8" cy="348.1" r="2.6" fill="#3fb950" opacity="0.7"/>
<circle cx="470.3" cy="350.0" r="2.6" fill="#3fb950" opacity="0.7"/>
<circle cx="476.8" cy="348.0" r="2.6" fill="#3fb950" opacity="0.7"/>
<circle cx="483.3" cy="348.0" r="2.6" fill="#3fb950" opacity="0.7"/>
<circle cx="489.8" cy="348.1" r="2.6" fill="#3fb950" opacity="0.7"/>
<circle cx="496.3" cy="348.2" r="2.6" fill="#3fb950" opacity="0.7"/>
<circle cx="502.8" cy="348.0" r="2.6" fill="#3fb950" opacity="0.7"/>
<circle cx="509.3" cy="348.1" r="2.6" fill="#3fb950" opacity="0.7"/>
<circle cx="515.8" cy="348.1" r="2.6" fill="#3fb950" opacity="0.7"/>
<circle cx="522.3" cy="348.1" r="2.6" fill="#3fb950" opacity="0.7"/>
<circle cx="528.8" cy="348.0" r="2.6" fill="#3fb950" opacity="0.7"/>
<circle cx="535.3" cy="348.1" r="2.6" fill="#3fb950" opacity="0.7"/>
<circle cx="541.8" cy="348.2" r="2.6" fill="#3fb950" opacity="0.7"/>
<circle cx="548.3" cy="348.2" r="2.6" fill="#3fb950" opacity="0.7"/>
<circle cx="554.8" cy="348.0" r="2.6" fill="#3fb950" opacity="0.7"/>
<circle cx="561.3" cy="348.0" r="2.6" fill="#3fb950" opacity="0.7"/>
<circle cx="567.8" cy="348.0" r="2.6" fill="#3fb950" opacity="0.7"/>
<circle cx="574.3" cy="348.1" r="2.6" fill="#3fb950" opacity="0.7"/>
<circle cx="580.8" cy="348.0" r="2.6" fill="#3fb950" opacity="0.7"/>
<circle cx="587.3" cy="347.9" r="2.6" fill="#3fb950" opacity="0.7"/>
<circle cx="593.8" cy="348.0" r="2.6" fill="#3fb950" opacity="0.7"/>
<circle cx="600.3" cy="348.0" r="2.6" fill="#3fb950" opacity="0.7"/>
<circle cx="606.8" cy="348.1" r="2.6" fill="#3fb950" opacity="0.7"/>
<circle cx="613.3" cy="348.1" r="2.6" fill="#3fb950" opacity="0.7"/>
<circle cx="619.8" cy="348.1" r="2.6" fill="#3fb950" opacity="0.7"/>
<circle cx="626.3" cy="348.1" r="2.6" fill="#3fb950" opacity="0.7"/>
<circle cx="632.8" cy="348.1" r="2.6" fill="#3fb950" opacity="0.7"/>
<circle cx="639.3" cy="348.1" r="2.6" fill="#3fb950" opacity="0.7"/>
<circle cx="645.8" cy="348.2" r="2.6" fill="#3fb950" opacity="0.7"/>
<circle cx="652.3" cy="347.7" r="2.6" fill="#3fb950" opacity="0.7"/>
<circle cx="658.8" cy="348.0" r="2.6" fill="#3fb950" opacity="0.7"/>
<circle cx="665.3" cy="348.2" r="2.6" fill="#3fb950" opacity="0.7"/>
<circle cx="671.8" cy="348.0" r="2.6" fill="#3fb950" opacity="0.7"/>
<circle cx="678.3" cy="348.2" r="2.6" fill="#3fb950" opacity="0.7"/>
<circle cx="684.8" cy="348.0" r="2.6" fill="#3fb950" opacity="0.7"/>
<circle cx="691.3" cy="348.1" r="2.6" fill="#3fb950" opacity="0.7"/>
<circle cx="697.8" cy="348.1" r="2.6" fill="#3fb950" opacity="0.7"/>
<circle cx="704.3" cy="350.0" r="2.6" fill="#3fb950" opacity="0.7"/>
<circle cx="710.8" cy="347.9" r="2.6" fill="#3fb950" opacity="0.7"/>
<circle cx="717.3" cy="347.9" r="2.6" fill="#3fb950" opacity="0.7"/>
<circle cx="723.8" cy="348.0" r="2.6" fill="#3fb950" opacity="0.7"/>
<circle cx="730.3" cy="348.0" r="2.6" fill="#3fb950" opacity="0.7"/>
<circle cx="736.8" cy="348.3" r="2.6" fill="#3fb950" opacity="0.7"/>
<circle cx="743.3" cy="348.3" r="2.6" fill="#3fb950" opacity="0.7"/>
<circle cx="749.8" cy="347.9" r="2.6" fill="#3fb950" opacity="0.7"/>
<circle cx="756.3" cy="347.8" r="2.6" fill="#3fb950" opacity="0.7"/>
<circle cx="762.8" cy="348.0" r="2.6" fill="#3fb950" opacity="0.7"/>
<circle cx="769.3" cy="347.8" r="2.6" fill="#3fb950" opacity="0.7"/>
<circle cx="775.8" cy="349.8" r="2.6" fill="#3fb950" opacity="0.7"/>
<circle cx="782.3" cy="349.5" r="2.6" fill="#3fb950" opacity="0.7"/>
<circle cx="100.9" cy="112.3" r="2.6" fill="#bc8cff" opacity="0.7"/>
<circle cx="107.4" cy="112.5" r="2.6" fill="#bc8cff" opacity="0.7"/>
<circle cx="113.9" cy="112.4" r="2.6" fill="#bc8cff" opacity="0.7"/>
<circle cx="120.4" cy="112.5" r="2.6" fill="#bc8cff" opacity="0.7"/>
<circle cx="126.9" cy="112.3" r="2.6" fill="#bc8cff" opacity="0.7"/>
<circle cx="133.4" cy="112.3" r="2.6" fill="#bc8cff" opacity="0.7"/>
<circle cx="139.9" cy="112.3" r="2.6" fill="#bc8cff" opacity="0.7"/>
<circle cx="146.4" cy="112.3" r="2.6" fill="#bc8cff" opacity="0.7"/>
<circle cx="152.9" cy="112.3" r="2.6" fill="#bc8cff" opacity="0.7"/>
<circle cx="159.4" cy="112.3" r="2.6" fill="#bc8cff" opacity="0.7"/>
<circle cx="165.9" cy="112.3" r="2.6" fill="#bc8cff" opacity="0.7"/>
<circle cx="172.4" cy="112.3" r="2.6" fill="#bc8cff" opacity="0.7"/>
<circle cx="178.9" cy="112.3" r="2.6" fill="#bc8cff" opacity="0.7"/>
<circle cx="185.4" cy="112.3" r="2.6" fill="#bc8cff" opacity="0.7"/>
<circle cx="191.9" cy="112.3" r="2.6" fill="#bc8cff" opacity="0.7"/>
<circle cx="198.4" cy="113.9" r="2.6" fill="#bc8cff" opacity="0.7"/>
<circle cx="204.9" cy="111.9" r="2.6" fill="#bc8cff" opacity="0.7"/>
<circle cx="211.4" cy="112.3" r="2.6" fill="#bc8cff" opacity="0.7"/>
<circle cx="217.9" cy="113.9" r="2.6" fill="#bc8cff" opacity="0.7"/>
<circle cx="224.4" cy="112.4" r="2.6" fill="#bc8cff" opacity="0.7"/>
<circle cx="230.9" cy="112.3" r="2.6" fill="#bc8cff" opacity="0.7"/>
<circle cx="237.4" cy="112.4" r="2.6" fill="#bc8cff" opacity="0.7"/>
<circle cx="243.9" cy="112.4" r="2.6" fill="#bc8cff" opacity="0.7"/>
<circle cx="250.4" cy="112.4" r="2.6" fill="#bc8cff" opacity="0.7"/>
<circle cx="256.9" cy="112.4" r="2.6" fill="#bc8cff" opacity="0.7"/>
<circle cx="263.4" cy="112.4" r="2.6" fill="#bc8cff" opacity="0.7"/>
<circle cx="269.9" cy="112.3" r="2.6" fill="#bc8cff" opacity="0.7"/>
<circle cx="276.4" cy="112.3" r="2.6" fill="#bc8cff" opacity="0.7"/>
<circle cx="282.9" cy="112.3" r="2.6" fill="#bc8cff" opacity="0.7"/>
<circle cx="289.4" cy="112.3" r="2.6" fill="#bc8cff" opacity="0.7"/>
<circle cx="295.9" cy="112.3" r="2.6" fill="#bc8cff" opacity="0.7"/>
<circle cx="302.4" cy="114.4" r="2.6" fill="#bc8cff" opacity="0.7"/>
<circle cx="308.9" cy="112.3" r="2.6" fill="#bc8cff" opacity="0.7"/>
<circle cx="315.4" cy="112.4" r="2.6" fill="#bc8cff" opacity="0.7"/>
<circle cx="321.9" cy="112.3" r="2.6" fill="#bc8cff" opacity="0.7"/>
<circle cx="328.4" cy="112.3" r="2.6" fill="#bc8cff" opacity="0.7"/>
<circle cx="334.9" cy="112.3" r="2.6" fill="#bc8cff" opacity="0.7"/>
<circle cx="341.4" cy="112.3" r="2.6" fill="#bc8cff" opacity="0.7"/>
<circle cx="347.9" cy="112.3" r="2.6" fill="#bc8cff" opacity="0.7"/>
<circle cx="354.4" cy="112.4" r="2.6" fill="#bc8cff" opacity="0.7"/>
<circle cx="360.9" cy="112.4" r="2.6" fill="#bc8cff" opacity="0.7"/>
<circle cx="367.4" cy="111.9" r="2.6" fill="#bc8cff" opacity="0.7"/>
<circle cx="373.9" cy="112.3" r="2.6" fill="#bc8cff" opacity="0.7"/>
<circle cx="380.4" cy="112.3" r="2.6" fill="#bc8cff" opacity="0.7"/>
<circle cx="386.9" cy="112.3" r="2.6" fill="#bc8cff" opacity="0.7"/>
<circle cx="393.4" cy="112.3" r="2.6" fill="#bc8cff" opacity="0.7"/>
<circle cx="399.9" cy="112.3" r="2.6" fill="#bc8cff" opacity="0.7"/>
<circle cx="406.4" cy="112.3" r="2.6" fill="#bc8cff" opacity="0.7"/>
<circle cx="412.9" cy="111.9" r="2.6" fill="#bc8cff" opacity="0.7"/>
<circle cx="419.4" cy="112.3" r="2.6" fill="#bc8cff" opacity="0.7"/>
<circle cx="425.9" cy="114.3" r="2.6" fill="#bc8cff" opacity="0.7"/>
<circle cx="432.4" cy="112.2" r="2.6" fill="#bc8cff" opacity="0.7"/>
<circle cx="438.9" cy="112.3" r="2.6" fill="#bc8cff" opacity="0.7"/>
<circle cx="445.4" cy="112.3" r="2.6" fill="#bc8cff" opacity="0.7"/>
<circle cx="451.9" cy="112.3" r="2.6" fill="#bc8cff" opacity="0.7"/>
<circle cx="458.4" cy="112.3" r="2.6" fill="#bc8cff" opacity="0.7"/>
<circle cx="464.9" cy="112.3" r="2.6" fill="#bc8cff" opacity="0.7"/>
<circle cx="471.4" cy="113.9" r="2.6" fill="#bc8cff" opacity="0.7"/>
<circle cx="477.9" cy="112.3" r="2.6" fill="#bc8cff" opacity="0.7"/>
<circle cx="484.4" cy="112.3" r="2.6" fill="#bc8cff" opacity="0.7"/>
<circle cx="490.9" cy="112.4" r="2.6" fill="#bc8cff" opacity="0.7"/>
<circle cx="497.4" cy="112.4" r="2.6" fill="#bc8cff" opacity="0.7"/>
<circle cx="503.9" cy="112.3" r="2.6" fill="#bc8cff" opacity="0.7"/>
<circle cx="510.4" cy="112.3" r="2.6" fill="#bc8cff" opacity="0.7"/>
<circle cx="516.9" cy="112.3" r="2.6" fill="#bc8cff" opacity="0.7"/>
<circle cx="523.4" cy="112.3" r="2.6" fill="#bc8cff" opacity="0.7"/>
<circle cx="529.9" cy="112.3" r="2.6" fill="#bc8cff" opacity="0.7"/>
<circle cx="536.4" cy="112.3" r="2.6" fill="#bc8cff" opacity="0.7"/>
<circle cx="542.9" cy="112.3" r="2.6" fill="#bc8cff" opacity="0.7"/>
<circle cx="549.4" cy="112.3" r="2.6" fill="#bc8cff" opacity="0.7"/>
<circle cx="556.0" cy="112.3" r="2.6" fill="#bc8cff" opacity="0.7"/>
<circle cx="562.5" cy="112.3" r="2.6" fill="#bc8cff" opacity="0.7"/>
<circle cx="569.0" cy="112.3" r="2.6" fill="#bc8cff" opacity="0.7"/>
<circle cx="575.5" cy="112.3" r="2.6" fill="#bc8cff" opacity="0.7"/>
<circle cx="582.0" cy="112.3" r="2.6" fill="#bc8cff" opacity="0.7"/>
<circle cx="588.5" cy="112.3" r="2.6" fill="#bc8cff" opacity="0.7"/>
<circle cx="595.0" cy="112.3" r="2.6" fill="#bc8cff" opacity="0.7"/>
<circle cx="601.5" cy="112.3" r="2.6" fill="#bc8cff" opacity="0.7"/>
<circle cx="608.0" cy="112.3" r="2.6" fill="#bc8cff" opacity="0.7"/>
<circle cx="614.5" cy="112.3" r="2.6" fill="#bc8cff" opacity="0.7"/>
<circle cx="621.0" cy="112.3" r="2.6" fill="#bc8cff" opacity="0.7"/>
<circle cx="627.5" cy="112.4" r="2.6" fill="#bc8cff" opacity="0.7"/>
<circle cx="634.0" cy="112.4" r="2.6" fill="#bc8cff" opacity="0.7"/>
<circle cx="640.5" cy="112.3" r="2.6" fill="#bc8cff" opacity="0.7"/>
<circle cx="647.0" cy="112.4" r="2.6" fill="#bc8cff" opacity="0.7"/>
<circle cx="653.5" cy="112.3" r="2.6" fill="#bc8cff" opacity="0.7"/>
<circle cx="660.0" cy="112.3" r="2.6" fill="#bc8cff" opacity="0.7"/>
<circle cx="666.5" cy="112.3" r="2.6" fill="#bc8cff" opacity="0.7"/>
<circle cx="673.0" cy="112.3" r="2.6" fill="#bc8cff" opacity="0.7"/>
<circle cx="679.5" cy="112.3" r="2.6" fill="#bc8cff" opacity="0.7"/>
<circle cx="686.0" cy="112.3" r="2.6" fill="#bc8cff" opacity="0.7"/>
<circle cx="692.5" cy="112.3" r="2.6" fill="#bc8cff" opacity="0.7"/>
<circle cx="699.0" cy="112.3" r="2.6" fill="#bc8cff" opacity="0.7"/>
<circle cx="705.5" cy="114.7" r="2.6" fill="#bc8cff" opacity="0.7"/>
<circle cx="712.0" cy="112.3" r="2.6" fill="#bc8cff" opacity="0.7"/>
<circle cx="718.5" cy="112.3" r="2.6" fill="#bc8cff" opacity="0.7"/>
<circle cx="725.0" cy="112.4" r="2.6" fill="#bc8cff" opacity="0.7"/>
<circle cx="731.5" cy="112.3" r="2.6" fill="#bc8cff" opacity="0.7"/>
<circle cx="738.0" cy="112.5" r="2.6" fill="#bc8cff" opacity="0.7"/>
<circle cx="744.5" cy="112.5" r="2.6" fill="#bc8cff" opacity="0.7"/>
<circle cx="751.0" cy="112.3" r="2.6" fill="#bc8cff" opacity="0.7"/>
<circle cx="757.5" cy="112.3" r="2.6" fill="#bc8cff" opacity="0.7"/>
<circle cx="764.0" cy="112.3" r="2.6" fill="#bc8cff" opacity="0.7"/>
<circle cx="770.5" cy="112.3" r="2.6" fill="#bc8cff" opacity="0.7"/>
<circle cx="777.0" cy="113.8" r="2.6" fill="#bc8cff" opacity="0.7"/>
<circle cx="783.5" cy="114.5" r="2.6" fill="#bc8cff" opacity="0.7"/>
<circle cx="98.5" cy="347.6" r="3.2" fill="#ff922b" opacity="0.85"/>
<circle cx="105.0" cy="231.0" r="3.2" fill="#ff922b" opacity="0.85"/>
<circle cx="111.5" cy="347.1" r="3.2" fill="#ff922b" opacity="0.85"/>
<circle cx="118.0" cy="231.0" r="3.2" fill="#ff922b" opacity="0.85"/>
<circle cx="124.5" cy="347.2" r="3.2" fill="#ff922b" opacity="0.85"/>
<circle cx="131.0" cy="346.9" r="3.2" fill="#ff922b" opacity="0.85"/>
<circle cx="137.5" cy="347.0" r="3.2" fill="#ff922b" opacity="0.85"/>
<circle cx="144.0" cy="347.1" r="3.2" fill="#ff922b" opacity="0.85"/>
<circle cx="150.5" cy="347.3" r="3.2" fill="#ff922b" opacity="0.85"/>
<circle cx="157.0" cy="347.2" r="3.2" fill="#ff922b" opacity="0.85"/>
<circle cx="163.5" cy="347.3" r="3.2" fill="#ff922b" opacity="0.85"/>
<circle cx="170.0" cy="347.2" r="3.2" fill="#ff922b" opacity="0.85"/>
<circle cx="176.5" cy="347.1" r="3.2" fill="#ff922b" opacity="0.85"/>
<circle cx="183.0" cy="347.1" r="3.2" fill="#ff922b" opacity="0.85"/>
<circle cx="189.5" cy="346.9" r="3.2" fill="#ff922b" opacity="0.85"/>
<circle cx="196.0" cy="348.9" r="3.2" fill="#ff922b" opacity="0.85"/>
<circle cx="202.5" cy="346.9" r="3.2" fill="#ff922b" opacity="0.85"/>
<circle cx="209.0" cy="230.8" r="3.2" fill="#ff922b" opacity="0.85"/>
<circle cx="215.5" cy="348.9" r="3.2" fill="#ff922b" opacity="0.85"/>
<circle cx="222.0" cy="347.6" r="3.2" fill="#ff922b" opacity="0.85"/>
<circle cx="228.5" cy="347.1" r="3.2" fill="#ff922b" opacity="0.85"/>
<circle cx="235.0" cy="347.6" r="3.2" fill="#ff922b" opacity="0.85"/>
<circle cx="241.5" cy="347.2" r="3.2" fill="#ff922b" opacity="0.85"/>
<circle cx="248.0" cy="347.3" r="3.2" fill="#ff922b" opacity="0.85"/>
<circle cx="254.5" cy="347.5" r="3.2" fill="#ff922b" opacity="0.85"/>
<circle cx="261.0" cy="347.5" r="3.2" fill="#ff922b" opacity="0.85"/>
<circle cx="267.5" cy="347.2" r="3.2" fill="#ff922b" opacity="0.85"/>
<circle cx="274.0" cy="347.2" r="3.2" fill="#ff922b" opacity="0.85"/>
<circle cx="280.5" cy="347.2" r="3.2" fill="#ff922b" opacity="0.85"/>
<circle cx="287.0" cy="347.2" r="3.2" fill="#ff922b" opacity="0.85"/>
<circle cx="293.5" cy="347.7" r="3.2" fill="#ff922b" opacity="0.85"/>
<circle cx="300.0" cy="229.8" r="3.2" fill="#ff922b" opacity="0.85"/>
<circle cx="306.5" cy="347.4" r="3.2" fill="#ff922b" opacity="0.85"/>
<circle cx="313.0" cy="347.2" r="3.2" fill="#ff922b" opacity="0.85"/>
<circle cx="319.5" cy="347.1" r="3.2" fill="#ff922b" opacity="0.85"/>
<circle cx="326.0" cy="347.1" r="3.2" fill="#ff922b" opacity="0.85"/>
<circle cx="332.6" cy="347.1" r="3.2" fill="#ff922b" opacity="0.85"/>
<circle cx="339.1" cy="347.6" r="3.2" fill="#ff922b" opacity="0.85"/>
<circle cx="345.6" cy="347.4" r="3.2" fill="#ff922b" opacity="0.85"/>
<circle cx="352.1" cy="346.9" r="3.2" fill="#ff922b" opacity="0.85"/>
<circle cx="358.6" cy="347.2" r="3.2" fill="#ff922b" opacity="0.85"/>
<circle cx="365.1" cy="347.2" r="3.2" fill="#ff922b" opacity="0.85"/>
<circle cx="371.6" cy="347.0" r="3.2" fill="#ff922b" opacity="0.85"/>
<circle cx="378.1" cy="347.0" r="3.2" fill="#ff922b" opacity="0.85"/>
<circle cx="384.6" cy="227.8" r="3.2" fill="#ff922b" opacity="0.85"/>
<circle cx="391.1" cy="347.1" r="3.2" fill="#ff922b" opacity="0.85"/>
<circle cx="397.6" cy="347.0" r="3.2" fill="#ff922b" opacity="0.85"/>
<circle cx="404.1" cy="347.1" r="3.2" fill="#ff922b" opacity="0.85"/>
<circle cx="410.6" cy="347.1" r="3.2" fill="#ff922b" opacity="0.85"/>
<circle cx="417.1" cy="347.0" r="3.2" fill="#ff922b" opacity="0.85"/>
<circle cx="423.6" cy="230.1" r="3.2" fill="#ff922b" opacity="0.85"/>
<circle cx="430.1" cy="347.8" r="3.2" fill="#ff922b" opacity="0.85"/>
<circle cx="436.6" cy="347.6" r="3.2" fill="#ff922b" opacity="0.85"/>
<circle cx="443.1" cy="347.7" r="3.2" fill="#ff922b" opacity="0.85"/>
<circle cx="449.6" cy="347.6" r="3.2" fill="#ff922b" opacity="0.85"/>
<circle cx="456.1" cy="347.3" r="3.2" fill="#ff922b" opacity="0.85"/>
<circle cx="462.6" cy="347.1" r="3.2" fill="#ff922b" opacity="0.85"/>
<circle cx="469.1" cy="348.9" r="3.2" fill="#ff922b" opacity="0.85"/>
<circle cx="475.6" cy="347.1" r="3.2" fill="#ff922b" opacity="0.85"/>
<circle cx="482.1" cy="347.0" r="3.2" fill="#ff922b" opacity="0.85"/>
<circle cx="488.6" cy="347.1" r="3.2" fill="#ff922b" opacity="0.85"/>
<circle cx="495.1" cy="347.6" r="3.2" fill="#ff922b" opacity="0.85"/>
<circle cx="501.6" cy="347.0" r="3.2" fill="#ff922b" opacity="0.85"/>
<circle cx="508.1" cy="347.0" r="3.2" fill="#ff922b" opacity="0.85"/>
<circle cx="514.6" cy="347.1" r="3.2" fill="#ff922b" opacity="0.85"/>
<circle cx="521.1" cy="347.3" r="3.2" fill="#ff922b" opacity="0.85"/>
<circle cx="527.6" cy="347.2" r="3.2" fill="#ff922b" opacity="0.85"/>
<circle cx="534.1" cy="347.4" r="3.2" fill="#ff922b" opacity="0.85"/>
<circle cx="540.6" cy="347.4" r="3.2" fill="#ff922b" opacity="0.85"/>
<circle cx="547.1" cy="347.4" r="3.2" fill="#ff922b" opacity="0.85"/>
<circle cx="553.6" cy="346.9" r="3.2" fill="#ff922b" opacity="0.85"/>
<circle cx="560.1" cy="347.1" r="3.2" fill="#ff922b" opacity="0.85"/>
<circle cx="566.6" cy="347.1" r="3.2" fill="#ff922b" opacity="0.85"/>
<circle cx="573.1" cy="347.1" r="3.2" fill="#ff922b" opacity="0.85"/>
<circle cx="579.6" cy="347.1" r="3.2" fill="#ff922b" opacity="0.85"/>
<circle cx="586.1" cy="347.1" r="3.2" fill="#ff922b" opacity="0.85"/>
<circle cx="592.6" cy="347.2" r="3.2" fill="#ff922b" opacity="0.85"/>
<circle cx="599.1" cy="347.1" r="3.2" fill="#ff922b" opacity="0.85"/>
<circle cx="605.6" cy="347.1" r="3.2" fill="#ff922b" opacity="0.85"/>
<circle cx="612.1" cy="347.1" r="3.2" fill="#ff922b" opacity="0.85"/>
<circle cx="618.6" cy="347.1" r="3.2" fill="#ff922b" opacity="0.85"/>
<circle cx="625.1" cy="347.5" r="3.2" fill="#ff922b" opacity="0.85"/>
<circle cx="631.6" cy="347.5" r="3.2" fill="#ff922b" opacity="0.85"/>
<circle cx="638.1" cy="347.1" r="3.2" fill="#ff922b" opacity="0.85"/>
<circle cx="644.6" cy="347.5" r="3.2" fill="#ff922b" opacity="0.85"/>
<circle cx="651.1" cy="347.0" r="3.2" fill="#ff922b" opacity="0.85"/>
<circle cx="657.6" cy="347.2" r="3.2" fill="#ff922b" opacity="0.85"/>
<circle cx="664.1" cy="347.5" r="3.2" fill="#ff922b" opacity="0.85"/>
<circle cx="670.6" cy="347.2" r="3.2" fill="#ff922b" opacity="0.85"/>
<circle cx="677.1" cy="347.3" r="3.2" fill="#ff922b" opacity="0.85"/>
<circle cx="683.6" cy="347.5" r="3.2" fill="#ff922b" opacity="0.85"/>
<circle cx="690.1" cy="347.2" r="3.2" fill="#ff922b" opacity="0.85"/>
<circle cx="696.6" cy="347.1" r="3.2" fill="#ff922b" opacity="0.85"/>
<circle cx="703.1" cy="227.0" r="3.2" fill="#ff922b" opacity="0.85"/>
<circle cx="709.6" cy="347.1" r="3.2" fill="#ff922b" opacity="0.85"/>
<circle cx="716.1" cy="347.2" r="3.2" fill="#ff922b" opacity="0.85"/>
<circle cx="722.6" cy="227.9" r="3.2" fill="#ff922b" opacity="0.85"/>
<circle cx="729.1" cy="347.3" r="3.2" fill="#ff922b" opacity="0.85"/>
<circle cx="735.6" cy="347.3" r="3.2" fill="#ff922b" opacity="0.85"/>
<circle cx="742.1" cy="347.4" r="3.2" fill="#ff922b" opacity="0.85"/>
<circle cx="748.6" cy="227.8" r="3.2" fill="#ff922b" opacity="0.85"/>
<circle cx="755.1" cy="230.8" r="3.2" fill="#ff922b" opacity="0.85"/>
<circle cx="761.6" cy="227.8" r="3.2" fill="#ff922b" opacity="0.85"/>
<circle cx="768.1" cy="347.1" r="3.2" fill="#ff922b" opacity="0.85"/>
<circle cx="774.6" cy="348.8" r="3.2" fill="#ff922b" opacity="0.85"/>
<circle cx="781.1" cy="233.0" r="3.2" fill="#ff922b" opacity="0.85"/>
<circle cx="847" cy="84" r="5" fill="#ff922b"/>
<text x="866" y="88" font-size="13" fill="#c9d1d9" font-weight="700">Kāra</text>
<line x1="836" y1="108" x2="858" y2="108" stroke="#a7b0bc" stroke-width="2" stroke-dasharray="5 4"/>
<text x="866" y="112" font-size="13" fill="#c9d1d9" font-weight="400">Rust = 1.0×</text>
<circle cx="847" cy="132" r="4" fill="#3fb950"/>
<text x="866" y="136" font-size="13" fill="#c9d1d9" font-weight="400">C</text>
<circle cx="847" cy="156" r="4" fill="#bc8cff"/>
<text x="866" y="160" font-size="13" fill="#c9d1d9" font-weight="400">Go</text>
<text x="70" y="538" font-size="11.5" fill="#8b949e">Each dot is one benchmarked program (kata × approach); there is no connecting line because left-to-right order is not meaningful. Raw numbers: bench-results.json</text>
</svg>