<svg xmlns="http://www.w3.org/2000/svg" width="980" height="560" viewBox="0 0 980 560" font-family="-apple-system,Segoe UI,Helvetica,Arial,sans-serif">
<rect width="980" height="560" fill="#282c34"/>
<text x="70" y="34" font-size="21" font-weight="700" fill="#c9d1d9">Binary size — sequential lane</text>
<text x="70" y="56" font-size="13" fill="#8b949e">relative to Rust = 1.0 · lower = smaller · 28 programs · log scale</text>
<line x1="70" y1="456.0" x2="812" y2="456.0" stroke="#3b414b" stroke-width="1"/>
<text x="60" y="460.0" font-size="12" text-anchor="end" fill="#8b949e">0.01×</text>
<line x1="70" y1="418.1" x2="812" y2="418.1" stroke="#3b414b" stroke-width="1"/>
<text x="60" y="422.1" font-size="12" text-anchor="end" fill="#8b949e">0.02×</text>
<line x1="70" y1="367.9" x2="812" y2="367.9" stroke="#3b414b" stroke-width="1"/>
<text x="60" y="371.9" font-size="12" text-anchor="end" fill="#8b949e">0.05×</text>
<line x1="70" y1="330.0" x2="812" y2="330.0" stroke="#3b414b" stroke-width="1"/>
<text x="60" y="334.0" font-size="12" text-anchor="end" fill="#8b949e">0.1×</text>
<line x1="70" y1="292.1" x2="812" y2="292.1" stroke="#3b414b" stroke-width="1"/>
<text x="60" y="296.1" font-size="12" text-anchor="end" fill="#8b949e">0.2×</text>
<line x1="70" y1="241.9" x2="812" y2="241.9" stroke="#3b414b" stroke-width="1"/>
<text x="60" y="245.9" font-size="12" text-anchor="end" fill="#8b949e">0.5×</text>
<line x1="70" y1="204.0" x2="812" y2="204.0" stroke="#6e7681" stroke-width="1.4" stroke-dasharray="5 4"/>
<text x="60" y="208.0" font-size="12" text-anchor="end" fill="#aeb6c0" font-weight="700">1×</text>
<line x1="70" y1="166.1" x2="812" y2="166.1" stroke="#3b414b" stroke-width="1"/>
<text x="60" y="170.1" font-size="12" text-anchor="end" fill="#8b949e">2×</text>
<line x1="70" y1="115.9" x2="812" y2="115.9" stroke="#3b414b" stroke-width="1"/>
<text x="60" y="119.9" font-size="12" text-anchor="end" fill="#8b949e">5×</text>
<line x1="70" y1="78.0" x2="812" y2="78.0" stroke="#3b414b" stroke-width="1"/>
<text x="60" y="82.0" font-size="12" text-anchor="end" fill="#8b949e">10×</text>
<text x="812" y="198.0" font-size="11" text-anchor="end" fill="#aeb6c0">Rust baseline</text>
<line x1="99.7" y1="456" x2="99.7" y2="461" stroke="#3b414b"/>
<g transform="translate(99.7,474) rotate(35)">
<text x="0" y="0" font-size="10.5" fill="#8b949e">#1</text>
<text x="0" y="12" font-size="10.5" fill="#8b949e">brute_force</text>
</g>
<line x1="125.0" y1="456" x2="125.0" y2="461" stroke="#3b414b"/>
<g transform="translate(125.0,474) rotate(35)">
<text x="0" y="0" font-size="10.5" fill="#8b949e">#1</text>
<text x="0" y="12" font-size="10.5" fill="#8b949e">hash_map</text>
</g>
<line x1="150.2" y1="456" x2="150.2" y2="461" stroke="#3b414b"/>
<g transform="translate(150.2,474) rotate(35)">
<text x="0" y="0" font-size="10.5" fill="#8b949e">#2</text>
<text x="0" y="12" font-size="10.5" fill="#8b949e">iterative</text>
</g>
<line x1="175.5" y1="456" x2="175.5" y2="461" stroke="#3b414b"/>
<g transform="translate(175.5,474) rotate(35)">
<text x="0" y="0" font-size="10.5" fill="#8b949e">#3</text>
<text x="0" y="12" font-size="10.5" fill="#8b949e">sliding_window</text>
</g>
<line x1="200.8" y1="456" x2="200.8" y2="461" stroke="#3b414b"/>
<g transform="translate(200.8,474) rotate(35)">
<text x="0" y="0" font-size="10.5" fill="#8b949e">#4</text>
<text x="0" y="12" font-size="10.5" fill="#8b949e">binary_search…</text>
</g>
<line x1="226.1" y1="456" x2="226.1" y2="461" stroke="#3b414b"/>
<g transform="translate(226.1,474) rotate(35)">
<text x="0" y="0" font-size="10.5" fill="#8b949e">#5</text>
<text x="0" y="12" font-size="10.5" fill="#8b949e">expand_around…</text>
</g>
<line x1="251.4" y1="456" x2="251.4" y2="461" stroke="#3b414b"/>
<g transform="translate(251.4,474) rotate(35)">
<text x="0" y="0" font-size="10.5" fill="#8b949e">#6</text>
<text x="0" y="12" font-size="10.5" fill="#8b949e">row_buffers</text>
</g>
<line x1="276.7" y1="456" x2="276.7" y2="461" stroke="#3b414b"/>
<g transform="translate(276.7,474) rotate(35)">
<text x="0" y="0" font-size="10.5" fill="#8b949e">#7</text>
<text x="0" y="12" font-size="10.5" fill="#8b949e">reverse</text>
</g>
<line x1="301.9" y1="456" x2="301.9" y2="461" stroke="#3b414b"/>
<g transform="translate(301.9,474) rotate(35)">
<text x="0" y="0" font-size="10.5" fill="#8b949e">#8</text>
<text x="0" y="12" font-size="10.5" fill="#8b949e">atoi</text>
</g>
<line x1="327.2" y1="456" x2="327.2" y2="461" stroke="#3b414b"/>
<g transform="translate(327.2,474) rotate(35)">
<text x="0" y="0" font-size="10.5" fill="#8b949e">#9</text>
<text x="0" y="12" font-size="10.5" fill="#8b949e">palindrome</text>
</g>
<line x1="352.5" y1="456" x2="352.5" y2="461" stroke="#3b414b"/>
<g transform="translate(352.5,474) rotate(35)">
<text x="0" y="0" font-size="10.5" fill="#8b949e">#10</text>
<text x="0" y="12" font-size="10.5" fill="#8b949e">regex</text>
</g>
<line x1="377.8" y1="456" x2="377.8" y2="461" stroke="#3b414b"/>
<g transform="translate(377.8,474) rotate(35)">
<text x="0" y="0" font-size="10.5" fill="#8b949e">#11</text>
<text x="0" y="12" font-size="10.5" fill="#8b949e">container</text>
</g>
<line x1="403.1" y1="456" x2="403.1" y2="461" stroke="#3b414b"/>
<g transform="translate(403.1,474) rotate(35)">
<text x="0" y="0" font-size="10.5" fill="#8b949e">#12</text>
<text x="0" y="12" font-size="10.5" fill="#8b949e">greedy</text>
</g>
<line x1="428.4" y1="456" x2="428.4" y2="461" stroke="#3b414b"/>
<g transform="translate(428.4,474) rotate(35)">
<text x="0" y="0" font-size="10.5" fill="#8b949e">#13</text>
<text x="0" y="12" font-size="10.5" fill="#8b949e">greedy</text>
</g>
<line x1="453.6" y1="456" x2="453.6" y2="461" stroke="#3b414b"/>
<g transform="translate(453.6,474) rotate(35)">
<text x="0" y="0" font-size="10.5" fill="#8b949e">#14</text>
<text x="0" y="12" font-size="10.5" fill="#8b949e">vertical</text>
</g>
<line x1="478.9" y1="456" x2="478.9" y2="461" stroke="#3b414b"/>
<g transform="translate(478.9,474) rotate(35)">
<text x="0" y="0" font-size="10.5" fill="#8b949e">#15</text>
<text x="0" y="12" font-size="10.5" fill="#8b949e">three_sum</text>
</g>
<line x1="504.2" y1="456" x2="504.2" y2="461" stroke="#3b414b"/>
<g transform="translate(504.2,474) rotate(35)">
<text x="0" y="0" font-size="10.5" fill="#8b949e">#16</text>
<text x="0" y="12" font-size="10.5" fill="#8b949e">three_sum_clo…</text>
</g>
<line x1="529.5" y1="456" x2="529.5" y2="461" stroke="#3b414b"/>
<g transform="translate(529.5,474) rotate(35)">
<text x="0" y="0" font-size="10.5" fill="#8b949e">#17</text>
<text x="0" y="12" font-size="10.5" fill="#8b949e">letter_combin…</text>
</g>
<line x1="554.8" y1="456" x2="554.8" y2="461" stroke="#3b414b"/>
<g transform="translate(554.8,474) rotate(35)">
<text x="0" y="0" font-size="10.5" fill="#8b949e">#18</text>
<text x="0" y="12" font-size="10.5" fill="#8b949e">four_sum</text>
</g>
<line x1="580.1" y1="456" x2="580.1" y2="461" stroke="#3b414b"/>
<g transform="translate(580.1,474) rotate(35)">
<text x="0" y="0" font-size="10.5" fill="#8b949e">#19</text>
<text x="0" y="12" font-size="10.5" fill="#8b949e">remove_nth</text>
</g>
<line x1="605.3" y1="456" x2="605.3" y2="461" stroke="#3b414b"/>
<g transform="translate(605.3,474) rotate(35)">
<text x="0" y="0" font-size="10.5" fill="#8b949e">#20</text>
<text x="0" y="12" font-size="10.5" fill="#8b949e">valid_parenth…</text>
</g>
<line x1="630.6" y1="456" x2="630.6" y2="461" stroke="#3b414b"/>
<g transform="translate(630.6,474) rotate(35)">
<text x="0" y="0" font-size="10.5" fill="#8b949e">#21</text>
<text x="0" y="12" font-size="10.5" fill="#8b949e">iterative</text>
</g>
<line x1="655.9" y1="456" x2="655.9" y2="461" stroke="#3b414b"/>
<g transform="translate(655.9,474) rotate(35)">
<text x="0" y="0" font-size="10.5" fill="#8b949e">#56</text>
<text x="0" y="12" font-size="10.5" fill="#8b949e">merge_interva…</text>
</g>
<line x1="681.2" y1="456" x2="681.2" y2="461" stroke="#3b414b"/>
<g transform="translate(681.2,474) rotate(35)">
<text x="0" y="0" font-size="10.5" fill="#8b949e">#65</text>
<text x="0" y="12" font-size="10.5" fill="#8b949e">valid</text>
</g>
<line x1="706.5" y1="456" x2="706.5" y2="461" stroke="#3b414b"/>
<g transform="translate(706.5,474) rotate(35)">
<text x="0" y="0" font-size="10.5" fill="#8b949e">#71</text>
<text x="0" y="12" font-size="10.5" fill="#8b949e">simplify</text>
</g>
<line x1="731.8" y1="456" x2="731.8" y2="461" stroke="#3b414b"/>
<g transform="translate(731.8,474) rotate(35)">
<text x="0" y="0" font-size="10.5" fill="#8b949e">#88</text>
<text x="0" y="12" font-size="10.5" fill="#8b949e">two_pointer</text>
</g>
<line x1="757.0" y1="456" x2="757.0" y2="461" stroke="#3b414b"/>
<g transform="translate(757.0,474) rotate(35)">
<text x="0" y="0" font-size="10.5" fill="#8b949e">#91</text>
<text x="0" y="12" font-size="10.5" fill="#8b949e">decode_ways</text>
</g>
<line x1="782.3" y1="456" x2="782.3" y2="461" stroke="#3b414b"/>
<g transform="translate(782.3,474) rotate(35)">
<text x="0" y="0" font-size="10.5" fill="#8b949e">#204</text>
<text x="0" y="12" font-size="10.5" fill="#8b949e">count</text>
</g>
<circle cx="99.7" cy="347.9" r="4.0" fill="#3fb950" opacity="0.95"/>
<circle cx="125.0" cy="347.9" r="4.0" fill="#3fb950" opacity="0.95"/>
<circle cx="150.2" cy="347.9" r="4.0" fill="#3fb950" opacity="0.95"/>
<circle cx="175.5" cy="348.2" r="4.0" fill="#3fb950" opacity="0.95"/>
<circle cx="200.8" cy="348.1" r="4.0" fill="#3fb950" opacity="0.95"/>
<circle cx="226.1" cy="348.0" r="4.0" fill="#3fb950" opacity="0.95"/>
<circle cx="251.4" cy="347.6" r="4.0" fill="#3fb950" opacity="0.95"/>
<circle cx="276.7" cy="348.1" r="4.0" fill="#3fb950" opacity="0.95"/>
<circle cx="301.9" cy="348.1" r="4.0" fill="#3fb950" opacity="0.95"/>
<circle cx="327.2" cy="348.1" r="4.0" fill="#3fb950" opacity="0.95"/>
<circle cx="352.5" cy="348.1" r="4.0" fill="#3fb950" opacity="0.95"/>
<circle cx="377.8" cy="348.1" r="4.0" fill="#3fb950" opacity="0.95"/>
<circle cx="403.1" cy="348.0" r="4.0" fill="#3fb950" opacity="0.95"/>
<circle cx="428.4" cy="348.0" r="4.0" fill="#3fb950" opacity="0.95"/>
<circle cx="453.6" cy="348.0" r="4.0" fill="#3fb950" opacity="0.95"/>
<circle cx="478.9" cy="349.9" r="4.0" fill="#3fb950" opacity="0.95"/>
<circle cx="504.2" cy="348.0" r="4.0" fill="#3fb950" opacity="0.95"/>
<circle cx="529.5" cy="347.7" r="4.0" fill="#3fb950" opacity="0.95"/>
<circle cx="554.8" cy="349.9" r="4.0" fill="#3fb950" opacity="0.95"/>
<circle cx="580.1" cy="348.2" r="4.0" fill="#3fb950" opacity="0.95"/>
<circle cx="605.3" cy="348.0" r="4.0" fill="#3fb950" opacity="0.95"/>
<circle cx="630.6" cy="348.1" r="4.0" fill="#3fb950" opacity="0.95"/>
<circle cx="655.9" cy="350.0" r="4.0" fill="#3fb950" opacity="0.95"/>
<circle cx="681.2" cy="348.1" r="4.0" fill="#3fb950" opacity="0.95"/>
<circle cx="706.5" cy="348.0" r="4.0" fill="#3fb950" opacity="0.95"/>
<circle cx="731.8" cy="348.0" r="4.0" fill="#3fb950" opacity="0.95"/>
<circle cx="757.0" cy="348.2" r="4.0" fill="#3fb950" opacity="0.95"/>
<circle cx="782.3" cy="348.0" r="4.0" fill="#3fb950" opacity="0.95"/>
<circle cx="103.5" cy="112.3" r="4.0" fill="#bc8cff" opacity="0.95"/>
<circle cx="128.8" cy="112.5" r="4.0" fill="#bc8cff" opacity="0.95"/>
<circle cx="154.1" cy="112.4" r="4.0" fill="#bc8cff" opacity="0.95"/>
<circle cx="179.4" cy="112.5" r="4.0" fill="#bc8cff" opacity="0.95"/>
<circle cx="204.6" cy="112.3" r="4.0" fill="#bc8cff" opacity="0.95"/>
<circle cx="229.9" cy="112.3" r="4.0" fill="#bc8cff" opacity="0.95"/>
<circle cx="255.2" cy="112.3" r="4.0" fill="#bc8cff" opacity="0.95"/>
<circle cx="280.5" cy="112.3" r="4.0" fill="#bc8cff" opacity="0.95"/>
<circle cx="305.8" cy="112.3" r="4.0" fill="#bc8cff" opacity="0.95"/>
<circle cx="331.1" cy="112.3" r="4.0" fill="#bc8cff" opacity="0.95"/>
<circle cx="356.3" cy="112.3" r="4.0" fill="#bc8cff" opacity="0.95"/>
<circle cx="381.6" cy="112.3" r="4.0" fill="#bc8cff" opacity="0.95"/>
<circle cx="406.9" cy="112.3" r="4.0" fill="#bc8cff" opacity="0.95"/>
<circle cx="432.2" cy="112.3" r="4.0" fill="#bc8cff" opacity="0.95"/>
<circle cx="457.5" cy="112.3" r="4.0" fill="#bc8cff" opacity="0.95"/>
<circle cx="482.8" cy="113.9" r="4.0" fill="#bc8cff" opacity="0.95"/>
<circle cx="508.0" cy="111.9" r="4.0" fill="#bc8cff" opacity="0.95"/>
<circle cx="533.3" cy="112.3" r="4.0" fill="#bc8cff" opacity="0.95"/>
<circle cx="558.6" cy="113.9" r="4.0" fill="#bc8cff" opacity="0.95"/>
<circle cx="583.9" cy="112.4" r="4.0" fill="#bc8cff" opacity="0.95"/>
<circle cx="609.2" cy="112.3" r="4.0" fill="#bc8cff" opacity="0.95"/>
<circle cx="634.5" cy="112.4" r="4.0" fill="#bc8cff" opacity="0.95"/>
<circle cx="659.7" cy="113.9" r="4.0" fill="#bc8cff" opacity="0.95"/>
<circle cx="685.0" cy="112.3" r="4.0" fill="#bc8cff" opacity="0.95"/>
<circle cx="710.3" cy="112.3" r="4.0" fill="#bc8cff" opacity="0.95"/>
<circle cx="735.6" cy="112.3" r="4.0" fill="#bc8cff" opacity="0.95"/>
<circle cx="760.9" cy="112.3" r="4.0" fill="#bc8cff" opacity="0.95"/>
<circle cx="786.2" cy="112.3" r="4.0" fill="#bc8cff" opacity="0.95"/>
<circle cx="95.8" cy="348.0" r="5.0" fill="#ff922b" opacity="1.0"/>
<circle cx="121.1" cy="231.1" r="5.0" fill="#ff922b" opacity="1.0"/>
<circle cx="146.4" cy="348.0" r="5.0" fill="#ff922b" opacity="1.0"/>
<circle cx="171.7" cy="231.1" r="5.0" fill="#ff922b" opacity="1.0"/>
<circle cx="197.0" cy="347.7" r="5.0" fill="#ff922b" opacity="1.0"/>
<circle cx="222.3" cy="347.7" r="5.0" fill="#ff922b" opacity="1.0"/>
<circle cx="247.5" cy="347.6" r="5.0" fill="#ff922b" opacity="1.0"/>
<circle cx="272.8" cy="347.9" r="5.0" fill="#ff922b" opacity="1.0"/>
<circle cx="298.1" cy="347.9" r="5.0" fill="#ff922b" opacity="1.0"/>
<circle cx="323.4" cy="347.9" r="5.0" fill="#ff922b" opacity="1.0"/>
<circle cx="348.7" cy="347.8" r="5.0" fill="#ff922b" opacity="1.0"/>
<circle cx="374.0" cy="347.9" r="5.0" fill="#ff922b" opacity="1.0"/>
<circle cx="399.2" cy="347.9" r="5.0" fill="#ff922b" opacity="1.0"/>
<circle cx="424.5" cy="347.9" r="5.0" fill="#ff922b" opacity="1.0"/>
<circle cx="449.8" cy="347.7" r="5.0" fill="#ff922b" opacity="1.0"/>
<circle cx="475.1" cy="229.9" r="5.0" fill="#ff922b" opacity="1.0"/>
<circle cx="500.4" cy="227.9" r="5.0" fill="#ff922b" opacity="1.0"/>
<circle cx="525.7" cy="347.5" r="5.0" fill="#ff922b" opacity="1.0"/>
<circle cx="550.9" cy="229.9" r="5.0" fill="#ff922b" opacity="1.0"/>
<circle cx="576.2" cy="348.0" r="5.0" fill="#ff922b" opacity="1.0"/>
<circle cx="601.5" cy="347.9" r="5.0" fill="#ff922b" opacity="1.0"/>
<circle cx="626.8" cy="348.0" r="5.0" fill="#ff922b" opacity="1.0"/>
<circle cx="652.1" cy="229.9" r="5.0" fill="#ff922b" opacity="1.0"/>
<circle cx="677.4" cy="347.9" r="5.0" fill="#ff922b" opacity="1.0"/>
<circle cx="702.6" cy="347.5" r="5.0" fill="#ff922b" opacity="1.0"/>
<circle cx="727.9" cy="347.7" r="5.0" fill="#ff922b" opacity="1.0"/>
<circle cx="753.2" cy="347.9" r="5.0" fill="#ff922b" opacity="1.0"/>
<circle cx="778.5" cy="347.9" r="5.0" fill="#ff922b" opacity="1.0"/>
<circle cx="847" cy="84" r="5" fill="#ff922b"/>
<text x="866" y="88" font-size="13" fill="#c9d1d9" font-weight="700">Kāra</text>
<line x1="836" y1="108" x2="858" y2="108" stroke="#6e7681" stroke-width="1.6" stroke-dasharray="5 4"/>
<text x="866" y="112" font-size="13" fill="#c9d1d9" font-weight="400">Rust</text>
<circle cx="847" cy="132" r="4" fill="#3fb950"/>
<text x="866" y="136" font-size="13" fill="#c9d1d9" font-weight="400">C</text>
<circle cx="847" cy="156" r="4" fill="#bc8cff"/>
<text x="866" y="160" font-size="13" fill="#c9d1d9" font-weight="400">Go</text>
<text x="70" y="538" font-size="11.5" fill="#8b949e">Each dot is one benchmarked program (kata × approach); there is no connecting line because left-to-right order is not meaningful. Raw numbers: bench-results.json</text>
</svg>