<svg xmlns="http://www.w3.org/2000/svg" width="980" height="560" viewBox="0 0 980 560" font-family="-apple-system,Segoe UI,Helvetica,Arial,sans-serif">
<rect width="980" height="560" fill="#282c34"/>
<text x="70" y="34" font-size="21" font-weight="700" fill="#c9d1d9">Binary size — sequential lane</text>
<text x="70" y="56" font-size="13" fill="#8b949e">relative to Rust = 1.0 · lower = smaller · 115 programs · log scale</text>
<line x1="70" y1="456.0" x2="812" y2="456.0" stroke="#3b414b" stroke-width="1"/>
<text x="60" y="460.0" font-size="12" text-anchor="end" fill="#8b949e">0.01×</text>
<line x1="70" y1="418.1" x2="812" y2="418.1" stroke="#3b414b" stroke-width="1"/>
<text x="60" y="422.1" font-size="12" text-anchor="end" fill="#8b949e">0.02×</text>
<line x1="70" y1="367.9" x2="812" y2="367.9" stroke="#3b414b" stroke-width="1"/>
<text x="60" y="371.9" font-size="12" text-anchor="end" fill="#8b949e">0.05×</text>
<line x1="70" y1="330.0" x2="812" y2="330.0" stroke="#3b414b" stroke-width="1"/>
<text x="60" y="334.0" font-size="12" text-anchor="end" fill="#8b949e">0.1×</text>
<line x1="70" y1="292.1" x2="812" y2="292.1" stroke="#3b414b" stroke-width="1"/>
<text x="60" y="296.1" font-size="12" text-anchor="end" fill="#8b949e">0.2×</text>
<line x1="70" y1="241.9" x2="812" y2="241.9" stroke="#3b414b" stroke-width="1"/>
<text x="60" y="245.9" font-size="12" text-anchor="end" fill="#8b949e">0.5×</text>
<line x1="70" y1="204.0" x2="812" y2="204.0" stroke="#a7b0bc" stroke-width="2" stroke-dasharray="5 4"/>
<text x="60" y="208.0" font-size="12" text-anchor="end" fill="#aeb6c0" font-weight="700">1×</text>
<line x1="70" y1="166.1" x2="812" y2="166.1" stroke="#3b414b" stroke-width="1"/>
<text x="60" y="170.1" font-size="12" text-anchor="end" fill="#8b949e">2×</text>
<line x1="70" y1="115.9" x2="812" y2="115.9" stroke="#3b414b" stroke-width="1"/>
<text x="60" y="119.9" font-size="12" text-anchor="end" fill="#8b949e">5×</text>
<line x1="70" y1="78.0" x2="812" y2="78.0" stroke="#3b414b" stroke-width="1"/>
<text x="60" y="82.0" font-size="12" text-anchor="end" fill="#8b949e">10×</text>
<text x="812" y="198.0" font-size="11" text-anchor="end" fill="#aeb6c0">Rust baseline</text>
<line x1="70" y1="456" x2="812" y2="456" stroke="#3b414b"/>
<text x="441.0" y="478" font-size="11" text-anchor="middle" fill="#8b949e">115 programs (kata × approach) — x-order carries no meaning</text>
<circle cx="99.7" cy="347.9" r="2.6" fill="#3fb950" opacity="0.7"/>
<circle cx="105.7" cy="347.9" r="2.6" fill="#3fb950" opacity="0.7"/>
<circle cx="111.7" cy="347.9" r="2.6" fill="#3fb950" opacity="0.7"/>
<circle cx="117.6" cy="348.2" r="2.6" fill="#3fb950" opacity="0.7"/>
<circle cx="123.6" cy="348.1" r="2.6" fill="#3fb950" opacity="0.7"/>
<circle cx="129.6" cy="348.0" r="2.6" fill="#3fb950" opacity="0.7"/>
<circle cx="135.6" cy="347.6" r="2.6" fill="#3fb950" opacity="0.7"/>
<circle cx="141.6" cy="348.1" r="2.6" fill="#3fb950" opacity="0.7"/>
<circle cx="147.6" cy="348.1" r="2.6" fill="#3fb950" opacity="0.7"/>
<circle cx="153.6" cy="348.1" r="2.6" fill="#3fb950" opacity="0.7"/>
<circle cx="159.6" cy="348.1" r="2.6" fill="#3fb950" opacity="0.7"/>
<circle cx="165.5" cy="348.1" r="2.6" fill="#3fb950" opacity="0.7"/>
<circle cx="171.5" cy="348.0" r="2.6" fill="#3fb950" opacity="0.7"/>
<circle cx="177.5" cy="348.0" r="2.6" fill="#3fb950" opacity="0.7"/>
<circle cx="183.5" cy="348.0" r="2.6" fill="#3fb950" opacity="0.7"/>
<circle cx="189.5" cy="349.9" r="2.6" fill="#3fb950" opacity="0.7"/>
<circle cx="195.5" cy="348.0" r="2.6" fill="#3fb950" opacity="0.7"/>
<circle cx="201.5" cy="347.7" r="2.6" fill="#3fb950" opacity="0.7"/>
<circle cx="207.5" cy="349.9" r="2.6" fill="#3fb950" opacity="0.7"/>
<circle cx="213.5" cy="348.2" r="2.6" fill="#3fb950" opacity="0.7"/>
<circle cx="219.4" cy="348.0" r="2.6" fill="#3fb950" opacity="0.7"/>
<circle cx="225.4" cy="348.1" r="2.6" fill="#3fb950" opacity="0.7"/>
<circle cx="231.4" cy="347.9" r="2.6" fill="#3fb950" opacity="0.7"/>
<circle cx="237.4" cy="348.1" r="2.6" fill="#3fb950" opacity="0.7"/>
<circle cx="243.4" cy="348.2" r="2.6" fill="#3fb950" opacity="0.7"/>
<circle cx="249.4" cy="348.2" r="2.6" fill="#3fb950" opacity="0.7"/>
<circle cx="255.4" cy="348.0" r="2.6" fill="#3fb950" opacity="0.7"/>
<circle cx="261.4" cy="348.0" r="2.6" fill="#3fb950" opacity="0.7"/>
<circle cx="267.3" cy="348.0" r="2.6" fill="#3fb950" opacity="0.7"/>
<circle cx="273.3" cy="348.0" r="2.6" fill="#3fb950" opacity="0.7"/>
<circle cx="279.3" cy="348.2" r="2.6" fill="#3fb950" opacity="0.7"/>
<circle cx="285.3" cy="349.9" r="2.6" fill="#3fb950" opacity="0.7"/>
<circle cx="291.3" cy="348.0" r="2.6" fill="#3fb950" opacity="0.7"/>
<circle cx="297.3" cy="348.1" r="2.6" fill="#3fb950" opacity="0.7"/>
<circle cx="303.3" cy="348.1" r="2.6" fill="#3fb950" opacity="0.7"/>
<circle cx="309.3" cy="348.1" r="2.6" fill="#3fb950" opacity="0.7"/>
<circle cx="315.3" cy="348.1" r="2.6" fill="#3fb950" opacity="0.7"/>
<circle cx="321.2" cy="347.9" r="2.6" fill="#3fb950" opacity="0.7"/>
<circle cx="327.2" cy="347.9" r="2.6" fill="#3fb950" opacity="0.7"/>
<circle cx="333.2" cy="347.9" r="2.6" fill="#3fb950" opacity="0.7"/>
<circle cx="339.2" cy="348.0" r="2.6" fill="#3fb950" opacity="0.7"/>
<circle cx="345.2" cy="347.6" r="2.6" fill="#3fb950" opacity="0.7"/>
<circle cx="351.2" cy="348.1" r="2.6" fill="#3fb950" opacity="0.7"/>
<circle cx="357.2" cy="348.1" r="2.6" fill="#3fb950" opacity="0.7"/>
<circle cx="363.2" cy="347.9" r="2.6" fill="#3fb950" opacity="0.7"/>
<circle cx="369.1" cy="348.1" r="2.6" fill="#3fb950" opacity="0.7"/>
<circle cx="375.1" cy="348.1" r="2.6" fill="#3fb950" opacity="0.7"/>
<circle cx="381.1" cy="347.7" r="2.6" fill="#3fb950" opacity="0.7"/>
<circle cx="387.1" cy="347.6" r="2.6" fill="#3fb950" opacity="0.7"/>
<circle cx="393.1" cy="348.0" r="2.6" fill="#3fb950" opacity="0.7"/>
<circle cx="399.1" cy="350.1" r="2.6" fill="#3fb950" opacity="0.7"/>
<circle cx="405.1" cy="348.1" r="2.6" fill="#3fb950" opacity="0.7"/>
<circle cx="411.1" cy="348.2" r="2.6" fill="#3fb950" opacity="0.7"/>
<circle cx="417.0" cy="348.2" r="2.6" fill="#3fb950" opacity="0.7"/>
<circle cx="423.0" cy="348.2" r="2.6" fill="#3fb950" opacity="0.7"/>
<circle cx="429.0" cy="347.8" r="2.6" fill="#3fb950" opacity="0.7"/>
<circle cx="435.0" cy="348.1" r="2.6" fill="#3fb950" opacity="0.7"/>
<circle cx="441.0" cy="350.0" r="2.6" fill="#3fb950" opacity="0.7"/>
<circle cx="447.0" cy="348.0" r="2.6" fill="#3fb950" opacity="0.7"/>
<circle cx="453.0" cy="348.0" r="2.6" fill="#3fb950" opacity="0.7"/>
<circle cx="459.0" cy="348.1" r="2.6" fill="#3fb950" opacity="0.7"/>
<circle cx="465.0" cy="348.2" r="2.6" fill="#3fb950" opacity="0.7"/>
<circle cx="470.9" cy="348.0" r="2.6" fill="#3fb950" opacity="0.7"/>
<circle cx="476.9" cy="348.1" r="2.6" fill="#3fb950" opacity="0.7"/>
<circle cx="482.9" cy="348.1" r="2.6" fill="#3fb950" opacity="0.7"/>
<circle cx="488.9" cy="348.1" r="2.6" fill="#3fb950" opacity="0.7"/>
<circle cx="494.9" cy="348.0" r="2.6" fill="#3fb950" opacity="0.7"/>
<circle cx="500.9" cy="348.1" r="2.6" fill="#3fb950" opacity="0.7"/>
<circle cx="506.9" cy="348.2" r="2.6" fill="#3fb950" opacity="0.7"/>
<circle cx="512.9" cy="348.2" r="2.6" fill="#3fb950" opacity="0.7"/>
<circle cx="518.8" cy="348.0" r="2.6" fill="#3fb950" opacity="0.7"/>
<circle cx="524.8" cy="348.0" r="2.6" fill="#3fb950" opacity="0.7"/>
<circle cx="530.8" cy="348.0" r="2.6" fill="#3fb950" opacity="0.7"/>
<circle cx="536.8" cy="348.1" r="2.6" fill="#3fb950" opacity="0.7"/>
<circle cx="542.8" cy="348.0" r="2.6" fill="#3fb950" opacity="0.7"/>
<circle cx="548.8" cy="347.9" r="2.6" fill="#3fb950" opacity="0.7"/>
<circle cx="554.8" cy="348.0" r="2.6" fill="#3fb950" opacity="0.7"/>
<circle cx="560.8" cy="348.0" r="2.6" fill="#3fb950" opacity="0.7"/>
<circle cx="566.7" cy="348.1" r="2.6" fill="#3fb950" opacity="0.7"/>
<circle cx="572.7" cy="348.1" r="2.6" fill="#3fb950" opacity="0.7"/>
<circle cx="578.7" cy="348.1" r="2.6" fill="#3fb950" opacity="0.7"/>
<circle cx="584.7" cy="348.1" r="2.6" fill="#3fb950" opacity="0.7"/>
<circle cx="590.7" cy="348.1" r="2.6" fill="#3fb950" opacity="0.7"/>
<circle cx="596.7" cy="348.1" r="2.6" fill="#3fb950" opacity="0.7"/>
<circle cx="602.7" cy="348.2" r="2.6" fill="#3fb950" opacity="0.7"/>
<circle cx="608.7" cy="347.7" r="2.6" fill="#3fb950" opacity="0.7"/>
<circle cx="614.7" cy="348.0" r="2.6" fill="#3fb950" opacity="0.7"/>
<circle cx="620.6" cy="348.2" r="2.6" fill="#3fb950" opacity="0.7"/>
<circle cx="626.6" cy="348.0" r="2.6" fill="#3fb950" opacity="0.7"/>
<circle cx="632.6" cy="348.2" r="2.6" fill="#3fb950" opacity="0.7"/>
<circle cx="638.6" cy="348.2" r="2.6" fill="#3fb950" opacity="0.7"/>
<circle cx="644.6" cy="348.2" r="2.6" fill="#3fb950" opacity="0.7"/>
<circle cx="650.6" cy="348.0" r="2.6" fill="#3fb950" opacity="0.7"/>
<circle cx="656.6" cy="347.7" r="2.6" fill="#3fb950" opacity="0.7"/>
<circle cx="662.6" cy="348.1" r="2.6" fill="#3fb950" opacity="0.7"/>
<circle cx="668.5" cy="348.0" r="2.6" fill="#3fb950" opacity="0.7"/>
<circle cx="674.5" cy="348.0" r="2.6" fill="#3fb950" opacity="0.7"/>
<circle cx="680.5" cy="348.1" r="2.6" fill="#3fb950" opacity="0.7"/>
<circle cx="686.5" cy="348.0" r="2.6" fill="#3fb950" opacity="0.7"/>
<circle cx="692.5" cy="347.9" r="2.6" fill="#3fb950" opacity="0.7"/>
<circle cx="698.5" cy="348.1" r="2.6" fill="#3fb950" opacity="0.7"/>
<circle cx="704.5" cy="348.1" r="2.6" fill="#3fb950" opacity="0.7"/>
<circle cx="710.5" cy="350.0" r="2.6" fill="#3fb950" opacity="0.7"/>
<circle cx="716.5" cy="347.9" r="2.6" fill="#3fb950" opacity="0.7"/>
<circle cx="722.4" cy="347.9" r="2.6" fill="#3fb950" opacity="0.7"/>
<circle cx="728.4" cy="348.0" r="2.6" fill="#3fb950" opacity="0.7"/>
<circle cx="734.4" cy="348.0" r="2.6" fill="#3fb950" opacity="0.7"/>
<circle cx="740.4" cy="348.3" r="2.6" fill="#3fb950" opacity="0.7"/>
<circle cx="746.4" cy="348.3" r="2.6" fill="#3fb950" opacity="0.7"/>
<circle cx="752.4" cy="347.9" r="2.6" fill="#3fb950" opacity="0.7"/>
<circle cx="758.4" cy="347.8" r="2.6" fill="#3fb950" opacity="0.7"/>
<circle cx="764.4" cy="348.0" r="2.6" fill="#3fb950" opacity="0.7"/>
<circle cx="770.3" cy="347.8" r="2.6" fill="#3fb950" opacity="0.7"/>
<circle cx="776.3" cy="349.8" r="2.6" fill="#3fb950" opacity="0.7"/>
<circle cx="782.3" cy="349.5" r="2.6" fill="#3fb950" opacity="0.7"/>
<circle cx="100.8" cy="112.3" r="2.6" fill="#bc8cff" opacity="0.7"/>
<circle cx="106.8" cy="112.5" r="2.6" fill="#bc8cff" opacity="0.7"/>
<circle cx="112.7" cy="112.4" r="2.6" fill="#bc8cff" opacity="0.7"/>
<circle cx="118.7" cy="112.5" r="2.6" fill="#bc8cff" opacity="0.7"/>
<circle cx="124.7" cy="112.3" r="2.6" fill="#bc8cff" opacity="0.7"/>
<circle cx="130.7" cy="112.3" r="2.6" fill="#bc8cff" opacity="0.7"/>
<circle cx="136.7" cy="112.3" r="2.6" fill="#bc8cff" opacity="0.7"/>
<circle cx="142.7" cy="112.3" r="2.6" fill="#bc8cff" opacity="0.7"/>
<circle cx="148.7" cy="112.3" r="2.6" fill="#bc8cff" opacity="0.7"/>
<circle cx="154.7" cy="112.3" r="2.6" fill="#bc8cff" opacity="0.7"/>
<circle cx="160.6" cy="112.3" r="2.6" fill="#bc8cff" opacity="0.7"/>
<circle cx="166.6" cy="112.3" r="2.6" fill="#bc8cff" opacity="0.7"/>
<circle cx="172.6" cy="112.3" r="2.6" fill="#bc8cff" opacity="0.7"/>
<circle cx="178.6" cy="112.3" r="2.6" fill="#bc8cff" opacity="0.7"/>
<circle cx="184.6" cy="112.3" r="2.6" fill="#bc8cff" opacity="0.7"/>
<circle cx="190.6" cy="113.9" r="2.6" fill="#bc8cff" opacity="0.7"/>
<circle cx="196.6" cy="111.9" r="2.6" fill="#bc8cff" opacity="0.7"/>
<circle cx="202.6" cy="112.3" r="2.6" fill="#bc8cff" opacity="0.7"/>
<circle cx="208.6" cy="113.9" r="2.6" fill="#bc8cff" opacity="0.7"/>
<circle cx="214.5" cy="112.4" r="2.6" fill="#bc8cff" opacity="0.7"/>
<circle cx="220.5" cy="112.3" r="2.6" fill="#bc8cff" opacity="0.7"/>
<circle cx="226.5" cy="112.4" r="2.6" fill="#bc8cff" opacity="0.7"/>
<circle cx="232.5" cy="112.4" r="2.6" fill="#bc8cff" opacity="0.7"/>
<circle cx="238.5" cy="112.4" r="2.6" fill="#bc8cff" opacity="0.7"/>
<circle cx="244.5" cy="112.4" r="2.6" fill="#bc8cff" opacity="0.7"/>
<circle cx="250.5" cy="112.4" r="2.6" fill="#bc8cff" opacity="0.7"/>
<circle cx="256.5" cy="112.3" r="2.6" fill="#bc8cff" opacity="0.7"/>
<circle cx="262.4" cy="112.3" r="2.6" fill="#bc8cff" opacity="0.7"/>
<circle cx="268.4" cy="112.3" r="2.6" fill="#bc8cff" opacity="0.7"/>
<circle cx="274.4" cy="112.3" r="2.6" fill="#bc8cff" opacity="0.7"/>
<circle cx="280.4" cy="112.3" r="2.6" fill="#bc8cff" opacity="0.7"/>
<circle cx="286.4" cy="114.4" r="2.6" fill="#bc8cff" opacity="0.7"/>
<circle cx="292.4" cy="112.3" r="2.6" fill="#bc8cff" opacity="0.7"/>
<circle cx="298.4" cy="112.4" r="2.6" fill="#bc8cff" opacity="0.7"/>
<circle cx="304.4" cy="112.3" r="2.6" fill="#bc8cff" opacity="0.7"/>
<circle cx="310.3" cy="112.3" r="2.6" fill="#bc8cff" opacity="0.7"/>
<circle cx="316.3" cy="112.3" r="2.6" fill="#bc8cff" opacity="0.7"/>
<circle cx="322.3" cy="112.3" r="2.6" fill="#bc8cff" opacity="0.7"/>
<circle cx="328.3" cy="112.3" r="2.6" fill="#bc8cff" opacity="0.7"/>
<circle cx="334.3" cy="112.4" r="2.6" fill="#bc8cff" opacity="0.7"/>
<circle cx="340.3" cy="112.4" r="2.6" fill="#bc8cff" opacity="0.7"/>
<circle cx="346.3" cy="111.9" r="2.6" fill="#bc8cff" opacity="0.7"/>
<circle cx="352.3" cy="112.3" r="2.6" fill="#bc8cff" opacity="0.7"/>
<circle cx="358.3" cy="112.3" r="2.6" fill="#bc8cff" opacity="0.7"/>
<circle cx="364.2" cy="112.3" r="2.6" fill="#bc8cff" opacity="0.7"/>
<circle cx="370.2" cy="112.3" r="2.6" fill="#bc8cff" opacity="0.7"/>
<circle cx="376.2" cy="112.3" r="2.6" fill="#bc8cff" opacity="0.7"/>
<circle cx="382.2" cy="112.3" r="2.6" fill="#bc8cff" opacity="0.7"/>
<circle cx="388.2" cy="111.9" r="2.6" fill="#bc8cff" opacity="0.7"/>
<circle cx="394.2" cy="112.3" r="2.6" fill="#bc8cff" opacity="0.7"/>
<circle cx="400.2" cy="114.3" r="2.6" fill="#bc8cff" opacity="0.7"/>
<circle cx="406.2" cy="112.2" r="2.6" fill="#bc8cff" opacity="0.7"/>
<circle cx="412.1" cy="112.3" r="2.6" fill="#bc8cff" opacity="0.7"/>
<circle cx="418.1" cy="112.3" r="2.6" fill="#bc8cff" opacity="0.7"/>
<circle cx="424.1" cy="112.3" r="2.6" fill="#bc8cff" opacity="0.7"/>
<circle cx="430.1" cy="112.3" r="2.6" fill="#bc8cff" opacity="0.7"/>
<circle cx="436.1" cy="112.3" r="2.6" fill="#bc8cff" opacity="0.7"/>
<circle cx="442.1" cy="113.9" r="2.6" fill="#bc8cff" opacity="0.7"/>
<circle cx="448.1" cy="112.3" r="2.6" fill="#bc8cff" opacity="0.7"/>
<circle cx="454.1" cy="112.3" r="2.6" fill="#bc8cff" opacity="0.7"/>
<circle cx="460.0" cy="112.4" r="2.6" fill="#bc8cff" opacity="0.7"/>
<circle cx="466.0" cy="112.4" r="2.6" fill="#bc8cff" opacity="0.7"/>
<circle cx="472.0" cy="112.3" r="2.6" fill="#bc8cff" opacity="0.7"/>
<circle cx="478.0" cy="112.3" r="2.6" fill="#bc8cff" opacity="0.7"/>
<circle cx="484.0" cy="112.3" r="2.6" fill="#bc8cff" opacity="0.7"/>
<circle cx="490.0" cy="112.3" r="2.6" fill="#bc8cff" opacity="0.7"/>
<circle cx="496.0" cy="112.3" r="2.6" fill="#bc8cff" opacity="0.7"/>
<circle cx="502.0" cy="112.3" r="2.6" fill="#bc8cff" opacity="0.7"/>
<circle cx="508.0" cy="112.3" r="2.6" fill="#bc8cff" opacity="0.7"/>
<circle cx="513.9" cy="112.3" r="2.6" fill="#bc8cff" opacity="0.7"/>
<circle cx="519.9" cy="112.3" r="2.6" fill="#bc8cff" opacity="0.7"/>
<circle cx="525.9" cy="112.3" r="2.6" fill="#bc8cff" opacity="0.7"/>
<circle cx="531.9" cy="112.3" r="2.6" fill="#bc8cff" opacity="0.7"/>
<circle cx="537.9" cy="112.3" r="2.6" fill="#bc8cff" opacity="0.7"/>
<circle cx="543.9" cy="112.3" r="2.6" fill="#bc8cff" opacity="0.7"/>
<circle cx="549.9" cy="112.3" r="2.6" fill="#bc8cff" opacity="0.7"/>
<circle cx="555.9" cy="112.3" r="2.6" fill="#bc8cff" opacity="0.7"/>
<circle cx="561.8" cy="112.3" r="2.6" fill="#bc8cff" opacity="0.7"/>
<circle cx="567.8" cy="112.3" r="2.6" fill="#bc8cff" opacity="0.7"/>
<circle cx="573.8" cy="112.3" r="2.6" fill="#bc8cff" opacity="0.7"/>
<circle cx="579.8" cy="112.3" r="2.6" fill="#bc8cff" opacity="0.7"/>
<circle cx="585.8" cy="112.4" r="2.6" fill="#bc8cff" opacity="0.7"/>
<circle cx="591.8" cy="112.4" r="2.6" fill="#bc8cff" opacity="0.7"/>
<circle cx="597.8" cy="112.3" r="2.6" fill="#bc8cff" opacity="0.7"/>
<circle cx="603.8" cy="112.4" r="2.6" fill="#bc8cff" opacity="0.7"/>
<circle cx="609.8" cy="112.3" r="2.6" fill="#bc8cff" opacity="0.7"/>
<circle cx="615.7" cy="112.3" r="2.6" fill="#bc8cff" opacity="0.7"/>
<circle cx="621.7" cy="112.3" r="2.6" fill="#bc8cff" opacity="0.7"/>
<circle cx="627.7" cy="112.3" r="2.6" fill="#bc8cff" opacity="0.7"/>
<circle cx="633.7" cy="112.3" r="2.6" fill="#bc8cff" opacity="0.7"/>
<circle cx="639.7" cy="112.4" r="2.6" fill="#bc8cff" opacity="0.7"/>
<circle cx="645.7" cy="112.3" r="2.6" fill="#bc8cff" opacity="0.7"/>
<circle cx="651.7" cy="112.3" r="2.6" fill="#bc8cff" opacity="0.7"/>
<circle cx="657.7" cy="112.2" r="2.6" fill="#bc8cff" opacity="0.7"/>
<circle cx="663.6" cy="112.0" r="2.6" fill="#bc8cff" opacity="0.7"/>
<circle cx="669.6" cy="111.9" r="2.6" fill="#bc8cff" opacity="0.7"/>
<circle cx="675.6" cy="112.3" r="2.6" fill="#bc8cff" opacity="0.7"/>
<circle cx="681.6" cy="112.1" r="2.6" fill="#bc8cff" opacity="0.7"/>
<circle cx="687.6" cy="112.0" r="2.6" fill="#bc8cff" opacity="0.7"/>
<circle cx="693.6" cy="112.1" r="2.6" fill="#bc8cff" opacity="0.7"/>
<circle cx="699.6" cy="112.3" r="2.6" fill="#bc8cff" opacity="0.7"/>
<circle cx="705.6" cy="112.3" r="2.6" fill="#bc8cff" opacity="0.7"/>
<circle cx="711.5" cy="114.7" r="2.6" fill="#bc8cff" opacity="0.7"/>
<circle cx="717.5" cy="112.3" r="2.6" fill="#bc8cff" opacity="0.7"/>
<circle cx="723.5" cy="112.3" r="2.6" fill="#bc8cff" opacity="0.7"/>
<circle cx="729.5" cy="112.4" r="2.6" fill="#bc8cff" opacity="0.7"/>
<circle cx="735.5" cy="112.3" r="2.6" fill="#bc8cff" opacity="0.7"/>
<circle cx="741.5" cy="112.5" r="2.6" fill="#bc8cff" opacity="0.7"/>
<circle cx="747.5" cy="112.5" r="2.6" fill="#bc8cff" opacity="0.7"/>
<circle cx="753.5" cy="112.3" r="2.6" fill="#bc8cff" opacity="0.7"/>
<circle cx="759.5" cy="112.3" r="2.6" fill="#bc8cff" opacity="0.7"/>
<circle cx="765.4" cy="112.3" r="2.6" fill="#bc8cff" opacity="0.7"/>
<circle cx="771.4" cy="112.3" r="2.6" fill="#bc8cff" opacity="0.7"/>
<circle cx="777.4" cy="113.8" r="2.6" fill="#bc8cff" opacity="0.7"/>
<circle cx="783.4" cy="114.5" r="2.6" fill="#bc8cff" opacity="0.7"/>
<circle cx="98.6" cy="347.6" r="3.2" fill="#ff922b" opacity="0.85"/>
<circle cx="104.6" cy="231.0" r="3.2" fill="#ff922b" opacity="0.85"/>
<circle cx="110.6" cy="347.1" r="3.2" fill="#ff922b" opacity="0.85"/>
<circle cx="116.6" cy="231.0" r="3.2" fill="#ff922b" opacity="0.85"/>
<circle cx="122.5" cy="347.2" r="3.2" fill="#ff922b" opacity="0.85"/>
<circle cx="128.5" cy="346.9" r="3.2" fill="#ff922b" opacity="0.85"/>
<circle cx="134.5" cy="347.0" r="3.2" fill="#ff922b" opacity="0.85"/>
<circle cx="140.5" cy="347.1" r="3.2" fill="#ff922b" opacity="0.85"/>
<circle cx="146.5" cy="347.3" r="3.2" fill="#ff922b" opacity="0.85"/>
<circle cx="152.5" cy="347.2" r="3.2" fill="#ff922b" opacity="0.85"/>
<circle cx="158.5" cy="347.3" r="3.2" fill="#ff922b" opacity="0.85"/>
<circle cx="164.5" cy="347.2" r="3.2" fill="#ff922b" opacity="0.85"/>
<circle cx="170.5" cy="347.1" r="3.2" fill="#ff922b" opacity="0.85"/>
<circle cx="176.4" cy="347.1" r="3.2" fill="#ff922b" opacity="0.85"/>
<circle cx="182.4" cy="346.9" r="3.2" fill="#ff922b" opacity="0.85"/>
<circle cx="188.4" cy="348.9" r="3.2" fill="#ff922b" opacity="0.85"/>
<circle cx="194.4" cy="346.9" r="3.2" fill="#ff922b" opacity="0.85"/>
<circle cx="200.4" cy="230.8" r="3.2" fill="#ff922b" opacity="0.85"/>
<circle cx="206.4" cy="348.9" r="3.2" fill="#ff922b" opacity="0.85"/>
<circle cx="212.4" cy="347.6" r="3.2" fill="#ff922b" opacity="0.85"/>
<circle cx="218.4" cy="347.1" r="3.2" fill="#ff922b" opacity="0.85"/>
<circle cx="224.3" cy="347.6" r="3.2" fill="#ff922b" opacity="0.85"/>
<circle cx="230.3" cy="347.2" r="3.2" fill="#ff922b" opacity="0.85"/>
<circle cx="236.3" cy="347.3" r="3.2" fill="#ff922b" opacity="0.85"/>
<circle cx="242.3" cy="347.5" r="3.2" fill="#ff922b" opacity="0.85"/>
<circle cx="248.3" cy="347.5" r="3.2" fill="#ff922b" opacity="0.85"/>
<circle cx="254.3" cy="347.2" r="3.2" fill="#ff922b" opacity="0.85"/>
<circle cx="260.3" cy="347.2" r="3.2" fill="#ff922b" opacity="0.85"/>
<circle cx="266.3" cy="347.2" r="3.2" fill="#ff922b" opacity="0.85"/>
<circle cx="272.2" cy="347.2" r="3.2" fill="#ff922b" opacity="0.85"/>
<circle cx="278.2" cy="347.7" r="3.2" fill="#ff922b" opacity="0.85"/>
<circle cx="284.2" cy="229.8" r="3.2" fill="#ff922b" opacity="0.85"/>
<circle cx="290.2" cy="347.4" r="3.2" fill="#ff922b" opacity="0.85"/>
<circle cx="296.2" cy="347.2" r="3.2" fill="#ff922b" opacity="0.85"/>
<circle cx="302.2" cy="347.1" r="3.2" fill="#ff922b" opacity="0.85"/>
<circle cx="308.2" cy="347.1" r="3.2" fill="#ff922b" opacity="0.85"/>
<circle cx="314.2" cy="347.1" r="3.2" fill="#ff922b" opacity="0.85"/>
<circle cx="320.2" cy="347.6" r="3.2" fill="#ff922b" opacity="0.85"/>
<circle cx="326.1" cy="347.4" r="3.2" fill="#ff922b" opacity="0.85"/>
<circle cx="332.1" cy="346.9" r="3.2" fill="#ff922b" opacity="0.85"/>
<circle cx="338.1" cy="347.2" r="3.2" fill="#ff922b" opacity="0.85"/>
<circle cx="344.1" cy="347.2" r="3.2" fill="#ff922b" opacity="0.85"/>
<circle cx="350.1" cy="347.0" r="3.2" fill="#ff922b" opacity="0.85"/>
<circle cx="356.1" cy="347.0" r="3.2" fill="#ff922b" opacity="0.85"/>
<circle cx="362.1" cy="227.8" r="3.2" fill="#ff922b" opacity="0.85"/>
<circle cx="368.1" cy="347.1" r="3.2" fill="#ff922b" opacity="0.85"/>
<circle cx="374.0" cy="347.0" r="3.2" fill="#ff922b" opacity="0.85"/>
<circle cx="380.0" cy="347.1" r="3.2" fill="#ff922b" opacity="0.85"/>
<circle cx="386.0" cy="347.1" r="3.2" fill="#ff922b" opacity="0.85"/>
<circle cx="392.0" cy="347.0" r="3.2" fill="#ff922b" opacity="0.85"/>
<circle cx="398.0" cy="230.1" r="3.2" fill="#ff922b" opacity="0.85"/>
<circle cx="404.0" cy="347.8" r="3.2" fill="#ff922b" opacity="0.85"/>
<circle cx="410.0" cy="347.6" r="3.2" fill="#ff922b" opacity="0.85"/>
<circle cx="416.0" cy="347.7" r="3.2" fill="#ff922b" opacity="0.85"/>
<circle cx="422.0" cy="347.6" r="3.2" fill="#ff922b" opacity="0.85"/>
<circle cx="427.9" cy="347.3" r="3.2" fill="#ff922b" opacity="0.85"/>
<circle cx="433.9" cy="347.1" r="3.2" fill="#ff922b" opacity="0.85"/>
<circle cx="439.9" cy="348.9" r="3.2" fill="#ff922b" opacity="0.85"/>
<circle cx="445.9" cy="347.1" r="3.2" fill="#ff922b" opacity="0.85"/>
<circle cx="451.9" cy="347.0" r="3.2" fill="#ff922b" opacity="0.85"/>
<circle cx="457.9" cy="347.1" r="3.2" fill="#ff922b" opacity="0.85"/>
<circle cx="463.9" cy="347.6" r="3.2" fill="#ff922b" opacity="0.85"/>
<circle cx="469.9" cy="347.0" r="3.2" fill="#ff922b" opacity="0.85"/>
<circle cx="475.8" cy="347.0" r="3.2" fill="#ff922b" opacity="0.85"/>
<circle cx="481.8" cy="347.1" r="3.2" fill="#ff922b" opacity="0.85"/>
<circle cx="487.8" cy="347.3" r="3.2" fill="#ff922b" opacity="0.85"/>
<circle cx="493.8" cy="347.2" r="3.2" fill="#ff922b" opacity="0.85"/>
<circle cx="499.8" cy="347.4" r="3.2" fill="#ff922b" opacity="0.85"/>
<circle cx="505.8" cy="347.4" r="3.2" fill="#ff922b" opacity="0.85"/>
<circle cx="511.8" cy="347.4" r="3.2" fill="#ff922b" opacity="0.85"/>
<circle cx="517.8" cy="346.9" r="3.2" fill="#ff922b" opacity="0.85"/>
<circle cx="523.7" cy="347.1" r="3.2" fill="#ff922b" opacity="0.85"/>
<circle cx="529.7" cy="347.1" r="3.2" fill="#ff922b" opacity="0.85"/>
<circle cx="535.7" cy="347.1" r="3.2" fill="#ff922b" opacity="0.85"/>
<circle cx="541.7" cy="347.1" r="3.2" fill="#ff922b" opacity="0.85"/>
<circle cx="547.7" cy="347.1" r="3.2" fill="#ff922b" opacity="0.85"/>
<circle cx="553.7" cy="347.2" r="3.2" fill="#ff922b" opacity="0.85"/>
<circle cx="559.7" cy="347.1" r="3.2" fill="#ff922b" opacity="0.85"/>
<circle cx="565.7" cy="347.1" r="3.2" fill="#ff922b" opacity="0.85"/>
<circle cx="571.7" cy="347.1" r="3.2" fill="#ff922b" opacity="0.85"/>
<circle cx="577.6" cy="347.1" r="3.2" fill="#ff922b" opacity="0.85"/>
<circle cx="583.6" cy="347.5" r="3.2" fill="#ff922b" opacity="0.85"/>
<circle cx="589.6" cy="347.5" r="3.2" fill="#ff922b" opacity="0.85"/>
<circle cx="595.6" cy="347.1" r="3.2" fill="#ff922b" opacity="0.85"/>
<circle cx="601.6" cy="347.5" r="3.2" fill="#ff922b" opacity="0.85"/>
<circle cx="607.6" cy="347.0" r="3.2" fill="#ff922b" opacity="0.85"/>
<circle cx="613.6" cy="347.2" r="3.2" fill="#ff922b" opacity="0.85"/>
<circle cx="619.6" cy="347.5" r="3.2" fill="#ff922b" opacity="0.85"/>
<circle cx="625.5" cy="347.2" r="3.2" fill="#ff922b" opacity="0.85"/>
<circle cx="631.5" cy="347.3" r="3.2" fill="#ff922b" opacity="0.85"/>
<circle cx="637.5" cy="347.5" r="3.2" fill="#ff922b" opacity="0.85"/>
<circle cx="643.5" cy="347.5" r="3.2" fill="#ff922b" opacity="0.85"/>
<circle cx="649.5" cy="347.5" r="3.2" fill="#ff922b" opacity="0.85"/>
<circle cx="655.5" cy="347.3" r="3.2" fill="#ff922b" opacity="0.85"/>
<circle cx="661.5" cy="347.2" r="3.2" fill="#ff922b" opacity="0.85"/>
<circle cx="667.5" cy="347.1" r="3.2" fill="#ff922b" opacity="0.85"/>
<circle cx="673.4" cy="347.5" r="3.2" fill="#ff922b" opacity="0.85"/>
<circle cx="679.4" cy="347.3" r="3.2" fill="#ff922b" opacity="0.85"/>
<circle cx="685.4" cy="347.2" r="3.2" fill="#ff922b" opacity="0.85"/>
<circle cx="691.4" cy="347.3" r="3.2" fill="#ff922b" opacity="0.85"/>
<circle cx="697.4" cy="347.2" r="3.2" fill="#ff922b" opacity="0.85"/>
<circle cx="703.4" cy="347.1" r="3.2" fill="#ff922b" opacity="0.85"/>
<circle cx="709.4" cy="227.0" r="3.2" fill="#ff922b" opacity="0.85"/>
<circle cx="715.4" cy="347.1" r="3.2" fill="#ff922b" opacity="0.85"/>
<circle cx="721.4" cy="347.2" r="3.2" fill="#ff922b" opacity="0.85"/>
<circle cx="727.3" cy="227.9" r="3.2" fill="#ff922b" opacity="0.85"/>
<circle cx="733.3" cy="347.3" r="3.2" fill="#ff922b" opacity="0.85"/>
<circle cx="739.3" cy="347.3" r="3.2" fill="#ff922b" opacity="0.85"/>
<circle cx="745.3" cy="347.4" r="3.2" fill="#ff922b" opacity="0.85"/>
<circle cx="751.3" cy="227.8" r="3.2" fill="#ff922b" opacity="0.85"/>
<circle cx="757.3" cy="230.8" r="3.2" fill="#ff922b" opacity="0.85"/>
<circle cx="763.3" cy="227.8" r="3.2" fill="#ff922b" opacity="0.85"/>
<circle cx="769.3" cy="347.1" r="3.2" fill="#ff922b" opacity="0.85"/>
<circle cx="775.2" cy="348.8" r="3.2" fill="#ff922b" opacity="0.85"/>
<circle cx="781.2" cy="233.0" r="3.2" fill="#ff922b" opacity="0.85"/>
<circle cx="847" cy="84" r="5" fill="#ff922b"/>
<text x="866" y="88" font-size="13" fill="#c9d1d9" font-weight="700">Kāra</text>
<line x1="836" y1="108" x2="858" y2="108" stroke="#a7b0bc" stroke-width="2" stroke-dasharray="5 4"/>
<text x="866" y="112" font-size="13" fill="#c9d1d9" font-weight="400">Rust = 1.0×</text>
<circle cx="847" cy="132" r="4" fill="#3fb950"/>
<text x="866" y="136" font-size="13" fill="#c9d1d9" font-weight="400">C</text>
<circle cx="847" cy="156" r="4" fill="#bc8cff"/>
<text x="866" y="160" font-size="13" fill="#c9d1d9" font-weight="400">Go</text>
<text x="70" y="538" font-size="11.5" fill="#8b949e">Each dot is one benchmarked program (kata × approach); there is no connecting line because left-to-right order is not meaningful. Raw numbers: bench-results.json</text>
</svg>