<svg xmlns="http://www.w3.org/2000/svg" width="980" height="560" viewBox="0 0 980 560" font-family="-apple-system,Segoe UI,Helvetica,Arial,sans-serif">
<rect width="980" height="560" fill="#282c34"/>
<text x="70" y="34" font-size="21" font-weight="700" fill="#c9d1d9">Binary size — sequential lane</text>
<text x="70" y="56" font-size="13" fill="#8b949e">relative to Rust = 1.0 · lower = smaller · 98 programs · log scale</text>
<line x1="70" y1="456.0" x2="812" y2="456.0" stroke="#3b414b" stroke-width="1"/>
<text x="60" y="460.0" font-size="12" text-anchor="end" fill="#8b949e">0.01×</text>
<line x1="70" y1="418.1" x2="812" y2="418.1" stroke="#3b414b" stroke-width="1"/>
<text x="60" y="422.1" font-size="12" text-anchor="end" fill="#8b949e">0.02×</text>
<line x1="70" y1="367.9" x2="812" y2="367.9" stroke="#3b414b" stroke-width="1"/>
<text x="60" y="371.9" font-size="12" text-anchor="end" fill="#8b949e">0.05×</text>
<line x1="70" y1="330.0" x2="812" y2="330.0" stroke="#3b414b" stroke-width="1"/>
<text x="60" y="334.0" font-size="12" text-anchor="end" fill="#8b949e">0.1×</text>
<line x1="70" y1="292.1" x2="812" y2="292.1" stroke="#3b414b" stroke-width="1"/>
<text x="60" y="296.1" font-size="12" text-anchor="end" fill="#8b949e">0.2×</text>
<line x1="70" y1="241.9" x2="812" y2="241.9" stroke="#3b414b" stroke-width="1"/>
<text x="60" y="245.9" font-size="12" text-anchor="end" fill="#8b949e">0.5×</text>
<line x1="70" y1="204.0" x2="812" y2="204.0" stroke="#a7b0bc" stroke-width="2" stroke-dasharray="5 4"/>
<text x="60" y="208.0" font-size="12" text-anchor="end" fill="#aeb6c0" font-weight="700">1×</text>
<line x1="70" y1="166.1" x2="812" y2="166.1" stroke="#3b414b" stroke-width="1"/>
<text x="60" y="170.1" font-size="12" text-anchor="end" fill="#8b949e">2×</text>
<line x1="70" y1="115.9" x2="812" y2="115.9" stroke="#3b414b" stroke-width="1"/>
<text x="60" y="119.9" font-size="12" text-anchor="end" fill="#8b949e">5×</text>
<line x1="70" y1="78.0" x2="812" y2="78.0" stroke="#3b414b" stroke-width="1"/>
<text x="60" y="82.0" font-size="12" text-anchor="end" fill="#8b949e">10×</text>
<text x="812" y="198.0" font-size="11" text-anchor="end" fill="#aeb6c0">Rust baseline</text>
<line x1="70" y1="456" x2="812" y2="456" stroke="#3b414b"/>
<text x="441.0" y="478" font-size="11" text-anchor="middle" fill="#8b949e">98 programs (kata × approach) — x-order carries no meaning</text>
<circle cx="99.7" cy="347.9" r="2.6" fill="#3fb950" opacity="0.7"/>
<circle cx="106.7" cy="347.9" r="2.6" fill="#3fb950" opacity="0.7"/>
<circle cx="113.8" cy="347.9" r="2.6" fill="#3fb950" opacity="0.7"/>
<circle cx="120.8" cy="348.2" r="2.6" fill="#3fb950" opacity="0.7"/>
<circle cx="127.8" cy="348.1" r="2.6" fill="#3fb950" opacity="0.7"/>
<circle cx="134.9" cy="348.0" r="2.6" fill="#3fb950" opacity="0.7"/>
<circle cx="141.9" cy="347.6" r="2.6" fill="#3fb950" opacity="0.7"/>
<circle cx="148.9" cy="348.1" r="2.6" fill="#3fb950" opacity="0.7"/>
<circle cx="156.0" cy="348.1" r="2.6" fill="#3fb950" opacity="0.7"/>
<circle cx="163.0" cy="348.1" r="2.6" fill="#3fb950" opacity="0.7"/>
<circle cx="170.1" cy="348.1" r="2.6" fill="#3fb950" opacity="0.7"/>
<circle cx="177.1" cy="348.1" r="2.6" fill="#3fb950" opacity="0.7"/>
<circle cx="184.1" cy="348.0" r="2.6" fill="#3fb950" opacity="0.7"/>
<circle cx="191.2" cy="348.0" r="2.6" fill="#3fb950" opacity="0.7"/>
<circle cx="198.2" cy="348.0" r="2.6" fill="#3fb950" opacity="0.7"/>
<circle cx="205.2" cy="349.9" r="2.6" fill="#3fb950" opacity="0.7"/>
<circle cx="212.3" cy="348.0" r="2.6" fill="#3fb950" opacity="0.7"/>
<circle cx="219.3" cy="347.7" r="2.6" fill="#3fb950" opacity="0.7"/>
<circle cx="226.4" cy="349.9" r="2.6" fill="#3fb950" opacity="0.7"/>
<circle cx="233.4" cy="348.2" r="2.6" fill="#3fb950" opacity="0.7"/>
<circle cx="240.4" cy="348.0" r="2.6" fill="#3fb950" opacity="0.7"/>
<circle cx="247.5" cy="348.1" r="2.6" fill="#3fb950" opacity="0.7"/>
<circle cx="254.5" cy="347.9" r="2.6" fill="#3fb950" opacity="0.7"/>
<circle cx="261.5" cy="348.1" r="2.6" fill="#3fb950" opacity="0.7"/>
<circle cx="268.6" cy="348.2" r="2.6" fill="#3fb950" opacity="0.7"/>
<circle cx="275.6" cy="348.2" r="2.6" fill="#3fb950" opacity="0.7"/>
<circle cx="282.7" cy="348.0" r="2.6" fill="#3fb950" opacity="0.7"/>
<circle cx="289.7" cy="348.0" r="2.6" fill="#3fb950" opacity="0.7"/>
<circle cx="296.7" cy="348.0" r="2.6" fill="#3fb950" opacity="0.7"/>
<circle cx="303.8" cy="348.0" r="2.6" fill="#3fb950" opacity="0.7"/>
<circle cx="310.8" cy="348.2" r="2.6" fill="#3fb950" opacity="0.7"/>
<circle cx="317.8" cy="349.9" r="2.6" fill="#3fb950" opacity="0.7"/>
<circle cx="324.9" cy="348.0" r="2.6" fill="#3fb950" opacity="0.7"/>
<circle cx="331.9" cy="348.1" r="2.6" fill="#3fb950" opacity="0.7"/>
<circle cx="339.0" cy="348.1" r="2.6" fill="#3fb950" opacity="0.7"/>
<circle cx="346.0" cy="348.1" r="2.6" fill="#3fb950" opacity="0.7"/>
<circle cx="353.0" cy="348.1" r="2.6" fill="#3fb950" opacity="0.7"/>
<circle cx="360.1" cy="347.9" r="2.6" fill="#3fb950" opacity="0.7"/>
<circle cx="367.1" cy="347.9" r="2.6" fill="#3fb950" opacity="0.7"/>
<circle cx="374.1" cy="347.9" r="2.6" fill="#3fb950" opacity="0.7"/>
<circle cx="381.2" cy="348.0" r="2.6" fill="#3fb950" opacity="0.7"/>
<circle cx="388.2" cy="347.6" r="2.6" fill="#3fb950" opacity="0.7"/>
<circle cx="395.3" cy="348.1" r="2.6" fill="#3fb950" opacity="0.7"/>
<circle cx="402.3" cy="348.1" r="2.6" fill="#3fb950" opacity="0.7"/>
<circle cx="409.3" cy="347.9" r="2.6" fill="#3fb950" opacity="0.7"/>
<circle cx="416.4" cy="348.1" r="2.6" fill="#3fb950" opacity="0.7"/>
<circle cx="423.4" cy="348.1" r="2.6" fill="#3fb950" opacity="0.7"/>
<circle cx="430.4" cy="347.7" r="2.6" fill="#3fb950" opacity="0.7"/>
<circle cx="437.5" cy="347.6" r="2.6" fill="#3fb950" opacity="0.7"/>
<circle cx="444.5" cy="348.0" r="2.6" fill="#3fb950" opacity="0.7"/>
<circle cx="451.6" cy="350.1" r="2.6" fill="#3fb950" opacity="0.7"/>
<circle cx="458.6" cy="348.1" r="2.6" fill="#3fb950" opacity="0.7"/>
<circle cx="465.6" cy="348.2" r="2.6" fill="#3fb950" opacity="0.7"/>
<circle cx="472.7" cy="348.2" r="2.6" fill="#3fb950" opacity="0.7"/>
<circle cx="479.7" cy="348.2" r="2.6" fill="#3fb950" opacity="0.7"/>
<circle cx="486.7" cy="347.8" r="2.6" fill="#3fb950" opacity="0.7"/>
<circle cx="493.8" cy="348.1" r="2.6" fill="#3fb950" opacity="0.7"/>
<circle cx="500.8" cy="350.0" r="2.6" fill="#3fb950" opacity="0.7"/>
<circle cx="507.9" cy="348.0" r="2.6" fill="#3fb950" opacity="0.7"/>
<circle cx="514.9" cy="348.0" r="2.6" fill="#3fb950" opacity="0.7"/>
<circle cx="521.9" cy="348.1" r="2.6" fill="#3fb950" opacity="0.7"/>
<circle cx="529.0" cy="348.2" r="2.6" fill="#3fb950" opacity="0.7"/>
<circle cx="536.0" cy="348.0" r="2.6" fill="#3fb950" opacity="0.7"/>
<circle cx="543.0" cy="348.1" r="2.6" fill="#3fb950" opacity="0.7"/>
<circle cx="550.1" cy="348.1" r="2.6" fill="#3fb950" opacity="0.7"/>
<circle cx="557.1" cy="348.1" r="2.6" fill="#3fb950" opacity="0.7"/>
<circle cx="564.2" cy="348.0" r="2.6" fill="#3fb950" opacity="0.7"/>
<circle cx="571.2" cy="348.1" r="2.6" fill="#3fb950" opacity="0.7"/>
<circle cx="578.2" cy="348.2" r="2.6" fill="#3fb950" opacity="0.7"/>
<circle cx="585.3" cy="348.2" r="2.6" fill="#3fb950" opacity="0.7"/>
<circle cx="592.3" cy="348.0" r="2.6" fill="#3fb950" opacity="0.7"/>
<circle cx="599.3" cy="348.0" r="2.6" fill="#3fb950" opacity="0.7"/>
<circle cx="606.4" cy="348.0" r="2.6" fill="#3fb950" opacity="0.7"/>
<circle cx="613.4" cy="348.1" r="2.6" fill="#3fb950" opacity="0.7"/>
<circle cx="620.5" cy="348.0" r="2.6" fill="#3fb950" opacity="0.7"/>
<circle cx="627.5" cy="347.9" r="2.6" fill="#3fb950" opacity="0.7"/>
<circle cx="634.5" cy="348.0" r="2.6" fill="#3fb950" opacity="0.7"/>
<circle cx="641.6" cy="348.0" r="2.6" fill="#3fb950" opacity="0.7"/>
<circle cx="648.6" cy="348.1" r="2.6" fill="#3fb950" opacity="0.7"/>
<circle cx="655.6" cy="348.1" r="2.6" fill="#3fb950" opacity="0.7"/>
<circle cx="662.7" cy="348.0" r="2.6" fill="#3fb950" opacity="0.7"/>
<circle cx="669.7" cy="348.2" r="2.6" fill="#3fb950" opacity="0.7"/>
<circle cx="676.8" cy="348.0" r="2.6" fill="#3fb950" opacity="0.7"/>
<circle cx="683.8" cy="348.1" r="2.6" fill="#3fb950" opacity="0.7"/>
<circle cx="690.8" cy="348.1" r="2.6" fill="#3fb950" opacity="0.7"/>
<circle cx="697.9" cy="350.0" r="2.6" fill="#3fb950" opacity="0.7"/>
<circle cx="704.9" cy="347.9" r="2.6" fill="#3fb950" opacity="0.7"/>
<circle cx="711.9" cy="347.9" r="2.6" fill="#3fb950" opacity="0.7"/>
<circle cx="719.0" cy="348.0" r="2.6" fill="#3fb950" opacity="0.7"/>
<circle cx="726.0" cy="348.0" r="2.6" fill="#3fb950" opacity="0.7"/>
<circle cx="733.1" cy="348.3" r="2.6" fill="#3fb950" opacity="0.7"/>
<circle cx="740.1" cy="348.3" r="2.6" fill="#3fb950" opacity="0.7"/>
<circle cx="747.1" cy="347.9" r="2.6" fill="#3fb950" opacity="0.7"/>
<circle cx="754.2" cy="347.8" r="2.6" fill="#3fb950" opacity="0.7"/>
<circle cx="761.2" cy="348.0" r="2.6" fill="#3fb950" opacity="0.7"/>
<circle cx="768.2" cy="347.8" r="2.6" fill="#3fb950" opacity="0.7"/>
<circle cx="775.3" cy="349.8" r="2.6" fill="#3fb950" opacity="0.7"/>
<circle cx="782.3" cy="349.5" r="2.6" fill="#3fb950" opacity="0.7"/>
<circle cx="101.0" cy="112.3" r="2.6" fill="#bc8cff" opacity="0.7"/>
<circle cx="108.0" cy="112.5" r="2.6" fill="#bc8cff" opacity="0.7"/>
<circle cx="115.0" cy="112.4" r="2.6" fill="#bc8cff" opacity="0.7"/>
<circle cx="122.1" cy="112.5" r="2.6" fill="#bc8cff" opacity="0.7"/>
<circle cx="129.1" cy="112.3" r="2.6" fill="#bc8cff" opacity="0.7"/>
<circle cx="136.1" cy="112.3" r="2.6" fill="#bc8cff" opacity="0.7"/>
<circle cx="143.2" cy="112.3" r="2.6" fill="#bc8cff" opacity="0.7"/>
<circle cx="150.2" cy="112.3" r="2.6" fill="#bc8cff" opacity="0.7"/>
<circle cx="157.3" cy="112.3" r="2.6" fill="#bc8cff" opacity="0.7"/>
<circle cx="164.3" cy="112.3" r="2.6" fill="#bc8cff" opacity="0.7"/>
<circle cx="171.3" cy="112.3" r="2.6" fill="#bc8cff" opacity="0.7"/>
<circle cx="178.4" cy="112.3" r="2.6" fill="#bc8cff" opacity="0.7"/>
<circle cx="185.4" cy="112.3" r="2.6" fill="#bc8cff" opacity="0.7"/>
<circle cx="192.4" cy="112.3" r="2.6" fill="#bc8cff" opacity="0.7"/>
<circle cx="199.5" cy="112.3" r="2.6" fill="#bc8cff" opacity="0.7"/>
<circle cx="206.5" cy="113.9" r="2.6" fill="#bc8cff" opacity="0.7"/>
<circle cx="213.6" cy="111.9" r="2.6" fill="#bc8cff" opacity="0.7"/>
<circle cx="220.6" cy="112.3" r="2.6" fill="#bc8cff" opacity="0.7"/>
<circle cx="227.6" cy="113.9" r="2.6" fill="#bc8cff" opacity="0.7"/>
<circle cx="234.7" cy="112.4" r="2.6" fill="#bc8cff" opacity="0.7"/>
<circle cx="241.7" cy="112.3" r="2.6" fill="#bc8cff" opacity="0.7"/>
<circle cx="248.7" cy="112.4" r="2.6" fill="#bc8cff" opacity="0.7"/>
<circle cx="255.8" cy="112.4" r="2.6" fill="#bc8cff" opacity="0.7"/>
<circle cx="262.8" cy="112.4" r="2.6" fill="#bc8cff" opacity="0.7"/>
<circle cx="269.9" cy="112.4" r="2.6" fill="#bc8cff" opacity="0.7"/>
<circle cx="276.9" cy="112.4" r="2.6" fill="#bc8cff" opacity="0.7"/>
<circle cx="283.9" cy="112.3" r="2.6" fill="#bc8cff" opacity="0.7"/>
<circle cx="291.0" cy="112.3" r="2.6" fill="#bc8cff" opacity="0.7"/>
<circle cx="298.0" cy="112.3" r="2.6" fill="#bc8cff" opacity="0.7"/>
<circle cx="305.0" cy="112.3" r="2.6" fill="#bc8cff" opacity="0.7"/>
<circle cx="312.1" cy="112.3" r="2.6" fill="#bc8cff" opacity="0.7"/>
<circle cx="319.1" cy="114.4" r="2.6" fill="#bc8cff" opacity="0.7"/>
<circle cx="326.2" cy="112.3" r="2.6" fill="#bc8cff" opacity="0.7"/>
<circle cx="333.2" cy="112.4" r="2.6" fill="#bc8cff" opacity="0.7"/>
<circle cx="340.2" cy="112.3" r="2.6" fill="#bc8cff" opacity="0.7"/>
<circle cx="347.3" cy="112.3" r="2.6" fill="#bc8cff" opacity="0.7"/>
<circle cx="354.3" cy="112.3" r="2.6" fill="#bc8cff" opacity="0.7"/>
<circle cx="361.3" cy="112.3" r="2.6" fill="#bc8cff" opacity="0.7"/>
<circle cx="368.4" cy="112.3" r="2.6" fill="#bc8cff" opacity="0.7"/>
<circle cx="375.4" cy="112.4" r="2.6" fill="#bc8cff" opacity="0.7"/>
<circle cx="382.5" cy="112.4" r="2.6" fill="#bc8cff" opacity="0.7"/>
<circle cx="389.5" cy="111.9" r="2.6" fill="#bc8cff" opacity="0.7"/>
<circle cx="396.5" cy="112.3" r="2.6" fill="#bc8cff" opacity="0.7"/>
<circle cx="403.6" cy="112.3" r="2.6" fill="#bc8cff" opacity="0.7"/>
<circle cx="410.6" cy="112.3" r="2.6" fill="#bc8cff" opacity="0.7"/>
<circle cx="417.6" cy="112.3" r="2.6" fill="#bc8cff" opacity="0.7"/>
<circle cx="424.7" cy="112.3" r="2.6" fill="#bc8cff" opacity="0.7"/>
<circle cx="431.7" cy="112.3" r="2.6" fill="#bc8cff" opacity="0.7"/>
<circle cx="438.8" cy="111.9" r="2.6" fill="#bc8cff" opacity="0.7"/>
<circle cx="445.8" cy="112.3" r="2.6" fill="#bc8cff" opacity="0.7"/>
<circle cx="452.8" cy="114.3" r="2.6" fill="#bc8cff" opacity="0.7"/>
<circle cx="459.9" cy="112.2" r="2.6" fill="#bc8cff" opacity="0.7"/>
<circle cx="466.9" cy="112.3" r="2.6" fill="#bc8cff" opacity="0.7"/>
<circle cx="473.9" cy="112.3" r="2.6" fill="#bc8cff" opacity="0.7"/>
<circle cx="481.0" cy="112.3" r="2.6" fill="#bc8cff" opacity="0.7"/>
<circle cx="488.0" cy="112.3" r="2.6" fill="#bc8cff" opacity="0.7"/>
<circle cx="495.1" cy="112.3" r="2.6" fill="#bc8cff" opacity="0.7"/>
<circle cx="502.1" cy="113.9" r="2.6" fill="#bc8cff" opacity="0.7"/>
<circle cx="509.1" cy="112.3" r="2.6" fill="#bc8cff" opacity="0.7"/>
<circle cx="516.2" cy="112.3" r="2.6" fill="#bc8cff" opacity="0.7"/>
<circle cx="523.2" cy="112.4" r="2.6" fill="#bc8cff" opacity="0.7"/>
<circle cx="530.2" cy="112.4" r="2.6" fill="#bc8cff" opacity="0.7"/>
<circle cx="537.3" cy="112.3" r="2.6" fill="#bc8cff" opacity="0.7"/>
<circle cx="544.3" cy="112.3" r="2.6" fill="#bc8cff" opacity="0.7"/>
<circle cx="551.4" cy="112.3" r="2.6" fill="#bc8cff" opacity="0.7"/>
<circle cx="558.4" cy="112.3" r="2.6" fill="#bc8cff" opacity="0.7"/>
<circle cx="565.4" cy="112.3" r="2.6" fill="#bc8cff" opacity="0.7"/>
<circle cx="572.5" cy="112.3" r="2.6" fill="#bc8cff" opacity="0.7"/>
<circle cx="579.5" cy="112.3" r="2.6" fill="#bc8cff" opacity="0.7"/>
<circle cx="586.5" cy="112.3" r="2.6" fill="#bc8cff" opacity="0.7"/>
<circle cx="593.6" cy="112.3" r="2.6" fill="#bc8cff" opacity="0.7"/>
<circle cx="600.6" cy="112.3" r="2.6" fill="#bc8cff" opacity="0.7"/>
<circle cx="607.7" cy="112.3" r="2.6" fill="#bc8cff" opacity="0.7"/>
<circle cx="614.7" cy="112.3" r="2.6" fill="#bc8cff" opacity="0.7"/>
<circle cx="621.7" cy="112.3" r="2.6" fill="#bc8cff" opacity="0.7"/>
<circle cx="628.8" cy="112.3" r="2.6" fill="#bc8cff" opacity="0.7"/>
<circle cx="635.8" cy="112.3" r="2.6" fill="#bc8cff" opacity="0.7"/>
<circle cx="642.8" cy="112.3" r="2.6" fill="#bc8cff" opacity="0.7"/>
<circle cx="649.9" cy="112.3" r="2.6" fill="#bc8cff" opacity="0.7"/>
<circle cx="656.9" cy="112.3" r="2.6" fill="#bc8cff" opacity="0.7"/>
<circle cx="664.0" cy="112.3" r="2.6" fill="#bc8cff" opacity="0.7"/>
<circle cx="671.0" cy="112.3" r="2.6" fill="#bc8cff" opacity="0.7"/>
<circle cx="678.0" cy="112.3" r="2.6" fill="#bc8cff" opacity="0.7"/>
<circle cx="685.1" cy="112.3" r="2.6" fill="#bc8cff" opacity="0.7"/>
<circle cx="692.1" cy="112.3" r="2.6" fill="#bc8cff" opacity="0.7"/>
<circle cx="699.1" cy="114.7" r="2.6" fill="#bc8cff" opacity="0.7"/>
<circle cx="706.2" cy="112.3" r="2.6" fill="#bc8cff" opacity="0.7"/>
<circle cx="713.2" cy="112.3" r="2.6" fill="#bc8cff" opacity="0.7"/>
<circle cx="720.3" cy="112.4" r="2.6" fill="#bc8cff" opacity="0.7"/>
<circle cx="727.3" cy="112.3" r="2.6" fill="#bc8cff" opacity="0.7"/>
<circle cx="734.3" cy="112.5" r="2.6" fill="#bc8cff" opacity="0.7"/>
<circle cx="741.4" cy="112.5" r="2.6" fill="#bc8cff" opacity="0.7"/>
<circle cx="748.4" cy="112.3" r="2.6" fill="#bc8cff" opacity="0.7"/>
<circle cx="755.4" cy="112.3" r="2.6" fill="#bc8cff" opacity="0.7"/>
<circle cx="762.5" cy="112.3" r="2.6" fill="#bc8cff" opacity="0.7"/>
<circle cx="769.5" cy="112.3" r="2.6" fill="#bc8cff" opacity="0.7"/>
<circle cx="776.6" cy="113.8" r="2.6" fill="#bc8cff" opacity="0.7"/>
<circle cx="783.6" cy="114.5" r="2.6" fill="#bc8cff" opacity="0.7"/>
<circle cx="98.4" cy="347.6" r="3.2" fill="#ff922b" opacity="0.85"/>
<circle cx="105.4" cy="231.0" r="3.2" fill="#ff922b" opacity="0.85"/>
<circle cx="112.5" cy="347.1" r="3.2" fill="#ff922b" opacity="0.85"/>
<circle cx="119.5" cy="231.0" r="3.2" fill="#ff922b" opacity="0.85"/>
<circle cx="126.6" cy="347.2" r="3.2" fill="#ff922b" opacity="0.85"/>
<circle cx="133.6" cy="346.9" r="3.2" fill="#ff922b" opacity="0.85"/>
<circle cx="140.6" cy="347.0" r="3.2" fill="#ff922b" opacity="0.85"/>
<circle cx="147.7" cy="347.1" r="3.2" fill="#ff922b" opacity="0.85"/>
<circle cx="154.7" cy="347.3" r="3.2" fill="#ff922b" opacity="0.85"/>
<circle cx="161.7" cy="347.2" r="3.2" fill="#ff922b" opacity="0.85"/>
<circle cx="168.8" cy="347.3" r="3.2" fill="#ff922b" opacity="0.85"/>
<circle cx="175.8" cy="347.2" r="3.2" fill="#ff922b" opacity="0.85"/>
<circle cx="182.9" cy="347.1" r="3.2" fill="#ff922b" opacity="0.85"/>
<circle cx="189.9" cy="347.1" r="3.2" fill="#ff922b" opacity="0.85"/>
<circle cx="196.9" cy="346.9" r="3.2" fill="#ff922b" opacity="0.85"/>
<circle cx="204.0" cy="348.9" r="3.2" fill="#ff922b" opacity="0.85"/>
<circle cx="211.0" cy="346.9" r="3.2" fill="#ff922b" opacity="0.85"/>
<circle cx="218.0" cy="230.8" r="3.2" fill="#ff922b" opacity="0.85"/>
<circle cx="225.1" cy="348.9" r="3.2" fill="#ff922b" opacity="0.85"/>
<circle cx="232.1" cy="347.6" r="3.2" fill="#ff922b" opacity="0.85"/>
<circle cx="239.2" cy="347.1" r="3.2" fill="#ff922b" opacity="0.85"/>
<circle cx="246.2" cy="347.6" r="3.2" fill="#ff922b" opacity="0.85"/>
<circle cx="253.2" cy="347.2" r="3.2" fill="#ff922b" opacity="0.85"/>
<circle cx="260.3" cy="347.3" r="3.2" fill="#ff922b" opacity="0.85"/>
<circle cx="267.3" cy="347.5" r="3.2" fill="#ff922b" opacity="0.85"/>
<circle cx="274.3" cy="347.5" r="3.2" fill="#ff922b" opacity="0.85"/>
<circle cx="281.4" cy="347.2" r="3.2" fill="#ff922b" opacity="0.85"/>
<circle cx="288.4" cy="347.2" r="3.2" fill="#ff922b" opacity="0.85"/>
<circle cx="295.5" cy="347.2" r="3.2" fill="#ff922b" opacity="0.85"/>
<circle cx="302.5" cy="347.2" r="3.2" fill="#ff922b" opacity="0.85"/>
<circle cx="309.5" cy="347.7" r="3.2" fill="#ff922b" opacity="0.85"/>
<circle cx="316.6" cy="229.8" r="3.2" fill="#ff922b" opacity="0.85"/>
<circle cx="323.6" cy="347.4" r="3.2" fill="#ff922b" opacity="0.85"/>
<circle cx="330.6" cy="347.2" r="3.2" fill="#ff922b" opacity="0.85"/>
<circle cx="337.7" cy="347.1" r="3.2" fill="#ff922b" opacity="0.85"/>
<circle cx="344.7" cy="347.1" r="3.2" fill="#ff922b" opacity="0.85"/>
<circle cx="351.8" cy="347.1" r="3.2" fill="#ff922b" opacity="0.85"/>
<circle cx="358.8" cy="347.6" r="3.2" fill="#ff922b" opacity="0.85"/>
<circle cx="365.8" cy="347.4" r="3.2" fill="#ff922b" opacity="0.85"/>
<circle cx="372.9" cy="346.9" r="3.2" fill="#ff922b" opacity="0.85"/>
<circle cx="379.9" cy="347.2" r="3.2" fill="#ff922b" opacity="0.85"/>
<circle cx="386.9" cy="347.2" r="3.2" fill="#ff922b" opacity="0.85"/>
<circle cx="394.0" cy="347.0" r="3.2" fill="#ff922b" opacity="0.85"/>
<circle cx="401.0" cy="347.0" r="3.2" fill="#ff922b" opacity="0.85"/>
<circle cx="408.1" cy="227.8" r="3.2" fill="#ff922b" opacity="0.85"/>
<circle cx="415.1" cy="347.1" r="3.2" fill="#ff922b" opacity="0.85"/>
<circle cx="422.1" cy="347.0" r="3.2" fill="#ff922b" opacity="0.85"/>
<circle cx="429.2" cy="347.1" r="3.2" fill="#ff922b" opacity="0.85"/>
<circle cx="436.2" cy="347.1" r="3.2" fill="#ff922b" opacity="0.85"/>
<circle cx="443.2" cy="347.0" r="3.2" fill="#ff922b" opacity="0.85"/>
<circle cx="450.3" cy="230.1" r="3.2" fill="#ff922b" opacity="0.85"/>
<circle cx="457.3" cy="347.8" r="3.2" fill="#ff922b" opacity="0.85"/>
<circle cx="464.4" cy="347.6" r="3.2" fill="#ff922b" opacity="0.85"/>
<circle cx="471.4" cy="347.7" r="3.2" fill="#ff922b" opacity="0.85"/>
<circle cx="478.4" cy="347.6" r="3.2" fill="#ff922b" opacity="0.85"/>
<circle cx="485.5" cy="347.3" r="3.2" fill="#ff922b" opacity="0.85"/>
<circle cx="492.5" cy="347.1" r="3.2" fill="#ff922b" opacity="0.85"/>
<circle cx="499.5" cy="348.9" r="3.2" fill="#ff922b" opacity="0.85"/>
<circle cx="506.6" cy="347.1" r="3.2" fill="#ff922b" opacity="0.85"/>
<circle cx="513.6" cy="347.0" r="3.2" fill="#ff922b" opacity="0.85"/>
<circle cx="520.7" cy="347.1" r="3.2" fill="#ff922b" opacity="0.85"/>
<circle cx="527.7" cy="347.6" r="3.2" fill="#ff922b" opacity="0.85"/>
<circle cx="534.7" cy="347.0" r="3.2" fill="#ff922b" opacity="0.85"/>
<circle cx="541.8" cy="347.0" r="3.2" fill="#ff922b" opacity="0.85"/>
<circle cx="548.8" cy="347.1" r="3.2" fill="#ff922b" opacity="0.85"/>
<circle cx="555.8" cy="347.3" r="3.2" fill="#ff922b" opacity="0.85"/>
<circle cx="562.9" cy="347.2" r="3.2" fill="#ff922b" opacity="0.85"/>
<circle cx="569.9" cy="347.4" r="3.2" fill="#ff922b" opacity="0.85"/>
<circle cx="577.0" cy="347.4" r="3.2" fill="#ff922b" opacity="0.85"/>
<circle cx="584.0" cy="347.4" r="3.2" fill="#ff922b" opacity="0.85"/>
<circle cx="591.0" cy="346.9" r="3.2" fill="#ff922b" opacity="0.85"/>
<circle cx="598.1" cy="347.1" r="3.2" fill="#ff922b" opacity="0.85"/>
<circle cx="605.1" cy="347.1" r="3.2" fill="#ff922b" opacity="0.85"/>
<circle cx="612.1" cy="347.1" r="3.2" fill="#ff922b" opacity="0.85"/>
<circle cx="619.2" cy="347.1" r="3.2" fill="#ff922b" opacity="0.85"/>
<circle cx="626.2" cy="347.1" r="3.2" fill="#ff922b" opacity="0.85"/>
<circle cx="633.3" cy="347.2" r="3.2" fill="#ff922b" opacity="0.85"/>
<circle cx="640.3" cy="347.1" r="3.2" fill="#ff922b" opacity="0.85"/>
<circle cx="647.3" cy="347.1" r="3.2" fill="#ff922b" opacity="0.85"/>
<circle cx="654.4" cy="347.1" r="3.2" fill="#ff922b" opacity="0.85"/>
<circle cx="661.4" cy="347.2" r="3.2" fill="#ff922b" opacity="0.85"/>
<circle cx="668.4" cy="347.3" r="3.2" fill="#ff922b" opacity="0.85"/>
<circle cx="675.5" cy="347.5" r="3.2" fill="#ff922b" opacity="0.85"/>
<circle cx="682.5" cy="347.2" r="3.2" fill="#ff922b" opacity="0.85"/>
<circle cx="689.6" cy="347.1" r="3.2" fill="#ff922b" opacity="0.85"/>
<circle cx="696.6" cy="227.0" r="3.2" fill="#ff922b" opacity="0.85"/>
<circle cx="703.6" cy="347.1" r="3.2" fill="#ff922b" opacity="0.85"/>
<circle cx="710.7" cy="347.2" r="3.2" fill="#ff922b" opacity="0.85"/>
<circle cx="717.7" cy="227.9" r="3.2" fill="#ff922b" opacity="0.85"/>
<circle cx="724.7" cy="347.3" r="3.2" fill="#ff922b" opacity="0.85"/>
<circle cx="731.8" cy="347.3" r="3.2" fill="#ff922b" opacity="0.85"/>
<circle cx="738.8" cy="347.4" r="3.2" fill="#ff922b" opacity="0.85"/>
<circle cx="745.9" cy="227.8" r="3.2" fill="#ff922b" opacity="0.85"/>
<circle cx="752.9" cy="230.8" r="3.2" fill="#ff922b" opacity="0.85"/>
<circle cx="759.9" cy="227.8" r="3.2" fill="#ff922b" opacity="0.85"/>
<circle cx="767.0" cy="347.1" r="3.2" fill="#ff922b" opacity="0.85"/>
<circle cx="774.0" cy="348.8" r="3.2" fill="#ff922b" opacity="0.85"/>
<circle cx="781.0" cy="233.0" r="3.2" fill="#ff922b" opacity="0.85"/>
<circle cx="847" cy="84" r="5" fill="#ff922b"/>
<text x="866" y="88" font-size="13" fill="#c9d1d9" font-weight="700">Kāra</text>
<line x1="836" y1="108" x2="858" y2="108" stroke="#a7b0bc" stroke-width="2" stroke-dasharray="5 4"/>
<text x="866" y="112" font-size="13" fill="#c9d1d9" font-weight="400">Rust = 1.0×</text>
<circle cx="847" cy="132" r="4" fill="#3fb950"/>
<text x="866" y="136" font-size="13" fill="#c9d1d9" font-weight="400">C</text>
<circle cx="847" cy="156" r="4" fill="#bc8cff"/>
<text x="866" y="160" font-size="13" fill="#c9d1d9" font-weight="400">Go</text>
<text x="70" y="538" font-size="11.5" fill="#8b949e">Each dot is one benchmarked program (kata × approach); there is no connecting line because left-to-right order is not meaningful. Raw numbers: bench-results.json</text>
</svg>