<svg xmlns="http://www.w3.org/2000/svg" width="980" height="560" viewBox="0 0 980 560" font-family="-apple-system,Segoe UI,Helvetica,Arial,sans-serif">
<rect width="980" height="560" fill="#282c34"/>
<text x="70" y="34" font-size="21" font-weight="700" fill="#c9d1d9">Binary size — sequential lane</text>
<text x="70" y="56" font-size="13" fill="#8b949e">relative to Rust = 1.0 · lower = smaller · 38 programs · log scale</text>
<line x1="70" y1="456.0" x2="812" y2="456.0" stroke="#3b414b" stroke-width="1"/>
<text x="60" y="460.0" font-size="12" text-anchor="end" fill="#8b949e">0.01×</text>
<line x1="70" y1="418.1" x2="812" y2="418.1" stroke="#3b414b" stroke-width="1"/>
<text x="60" y="422.1" font-size="12" text-anchor="end" fill="#8b949e">0.02×</text>
<line x1="70" y1="367.9" x2="812" y2="367.9" stroke="#3b414b" stroke-width="1"/>
<text x="60" y="371.9" font-size="12" text-anchor="end" fill="#8b949e">0.05×</text>
<line x1="70" y1="330.0" x2="812" y2="330.0" stroke="#3b414b" stroke-width="1"/>
<text x="60" y="334.0" font-size="12" text-anchor="end" fill="#8b949e">0.1×</text>
<line x1="70" y1="292.1" x2="812" y2="292.1" stroke="#3b414b" stroke-width="1"/>
<text x="60" y="296.1" font-size="12" text-anchor="end" fill="#8b949e">0.2×</text>
<line x1="70" y1="241.9" x2="812" y2="241.9" stroke="#3b414b" stroke-width="1"/>
<text x="60" y="245.9" font-size="12" text-anchor="end" fill="#8b949e">0.5×</text>
<line x1="70" y1="204.0" x2="812" y2="204.0" stroke="#a7b0bc" stroke-width="2" stroke-dasharray="5 4"/>
<text x="60" y="208.0" font-size="12" text-anchor="end" fill="#aeb6c0" font-weight="700">1×</text>
<line x1="70" y1="166.1" x2="812" y2="166.1" stroke="#3b414b" stroke-width="1"/>
<text x="60" y="170.1" font-size="12" text-anchor="end" fill="#8b949e">2×</text>
<line x1="70" y1="115.9" x2="812" y2="115.9" stroke="#3b414b" stroke-width="1"/>
<text x="60" y="119.9" font-size="12" text-anchor="end" fill="#8b949e">5×</text>
<line x1="70" y1="78.0" x2="812" y2="78.0" stroke="#3b414b" stroke-width="1"/>
<text x="60" y="82.0" font-size="12" text-anchor="end" fill="#8b949e">10×</text>
<text x="812" y="198.0" font-size="11" text-anchor="end" fill="#aeb6c0">Rust baseline</text>
<line x1="70" y1="456" x2="812" y2="456" stroke="#3b414b"/>
<text x="441.0" y="478" font-size="11" text-anchor="middle" fill="#8b949e">38 programs (kata × approach) — x-order carries no meaning</text>
<circle cx="99.7" cy="347.9" r="2.6" fill="#3fb950" opacity="0.7"/>
<circle cx="118.1" cy="347.9" r="2.6" fill="#3fb950" opacity="0.7"/>
<circle cx="136.6" cy="347.9" r="2.6" fill="#3fb950" opacity="0.7"/>
<circle cx="155.0" cy="348.2" r="2.6" fill="#3fb950" opacity="0.7"/>
<circle cx="173.5" cy="348.1" r="2.6" fill="#3fb950" opacity="0.7"/>
<circle cx="191.9" cy="348.0" r="2.6" fill="#3fb950" opacity="0.7"/>
<circle cx="210.4" cy="347.6" r="2.6" fill="#3fb950" opacity="0.7"/>
<circle cx="228.8" cy="348.1" r="2.6" fill="#3fb950" opacity="0.7"/>
<circle cx="247.3" cy="348.1" r="2.6" fill="#3fb950" opacity="0.7"/>
<circle cx="265.7" cy="348.1" r="2.6" fill="#3fb950" opacity="0.7"/>
<circle cx="284.2" cy="348.1" r="2.6" fill="#3fb950" opacity="0.7"/>
<circle cx="302.6" cy="348.1" r="2.6" fill="#3fb950" opacity="0.7"/>
<circle cx="321.1" cy="348.0" r="2.6" fill="#3fb950" opacity="0.7"/>
<circle cx="339.5" cy="348.0" r="2.6" fill="#3fb950" opacity="0.7"/>
<circle cx="358.0" cy="348.0" r="2.6" fill="#3fb950" opacity="0.7"/>
<circle cx="376.4" cy="349.9" r="2.6" fill="#3fb950" opacity="0.7"/>
<circle cx="394.9" cy="348.0" r="2.6" fill="#3fb950" opacity="0.7"/>
<circle cx="413.3" cy="347.7" r="2.6" fill="#3fb950" opacity="0.7"/>
<circle cx="431.8" cy="349.9" r="2.6" fill="#3fb950" opacity="0.7"/>
<circle cx="450.2" cy="348.2" r="2.6" fill="#3fb950" opacity="0.7"/>
<circle cx="468.7" cy="348.0" r="2.6" fill="#3fb950" opacity="0.7"/>
<circle cx="487.1" cy="348.1" r="2.6" fill="#3fb950" opacity="0.7"/>
<circle cx="505.6" cy="347.9" r="2.6" fill="#3fb950" opacity="0.7"/>
<circle cx="524.0" cy="348.1" r="2.6" fill="#3fb950" opacity="0.7"/>
<circle cx="542.5" cy="350.0" r="2.6" fill="#3fb950" opacity="0.7"/>
<circle cx="560.9" cy="348.1" r="2.6" fill="#3fb950" opacity="0.7"/>
<circle cx="579.4" cy="348.0" r="2.6" fill="#3fb950" opacity="0.7"/>
<circle cx="597.8" cy="348.0" r="2.6" fill="#3fb950" opacity="0.7"/>
<circle cx="616.3" cy="348.2" r="2.6" fill="#3fb950" opacity="0.7"/>
<circle cx="634.7" cy="348.1" r="2.6" fill="#3fb950" opacity="0.7"/>
<circle cx="653.2" cy="350.0" r="2.6" fill="#3fb950" opacity="0.7"/>
<circle cx="671.6" cy="347.9" r="2.6" fill="#3fb950" opacity="0.7"/>
<circle cx="690.1" cy="347.9" r="2.6" fill="#3fb950" opacity="0.7"/>
<circle cx="708.5" cy="348.0" r="2.6" fill="#3fb950" opacity="0.7"/>
<circle cx="727.0" cy="348.3" r="2.6" fill="#3fb950" opacity="0.7"/>
<circle cx="745.4" cy="348.3" r="2.6" fill="#3fb950" opacity="0.7"/>
<circle cx="763.9" cy="349.8" r="2.6" fill="#3fb950" opacity="0.7"/>
<circle cx="782.3" cy="349.5" r="2.6" fill="#3fb950" opacity="0.7"/>
<circle cx="102.3" cy="112.3" r="2.6" fill="#bc8cff" opacity="0.7"/>
<circle cx="120.8" cy="112.5" r="2.6" fill="#bc8cff" opacity="0.7"/>
<circle cx="139.2" cy="112.4" r="2.6" fill="#bc8cff" opacity="0.7"/>
<circle cx="157.7" cy="112.5" r="2.6" fill="#bc8cff" opacity="0.7"/>
<circle cx="176.1" cy="112.3" r="2.6" fill="#bc8cff" opacity="0.7"/>
<circle cx="194.6" cy="112.3" r="2.6" fill="#bc8cff" opacity="0.7"/>
<circle cx="213.0" cy="112.3" r="2.6" fill="#bc8cff" opacity="0.7"/>
<circle cx="231.5" cy="112.3" r="2.6" fill="#bc8cff" opacity="0.7"/>
<circle cx="249.9" cy="112.3" r="2.6" fill="#bc8cff" opacity="0.7"/>
<circle cx="268.4" cy="112.3" r="2.6" fill="#bc8cff" opacity="0.7"/>
<circle cx="286.8" cy="112.3" r="2.6" fill="#bc8cff" opacity="0.7"/>
<circle cx="305.3" cy="112.3" r="2.6" fill="#bc8cff" opacity="0.7"/>
<circle cx="323.7" cy="112.3" r="2.6" fill="#bc8cff" opacity="0.7"/>
<circle cx="342.2" cy="112.3" r="2.6" fill="#bc8cff" opacity="0.7"/>
<circle cx="360.6" cy="112.3" r="2.6" fill="#bc8cff" opacity="0.7"/>
<circle cx="379.1" cy="113.9" r="2.6" fill="#bc8cff" opacity="0.7"/>
<circle cx="397.5" cy="111.9" r="2.6" fill="#bc8cff" opacity="0.7"/>
<circle cx="416.0" cy="112.3" r="2.6" fill="#bc8cff" opacity="0.7"/>
<circle cx="434.4" cy="113.9" r="2.6" fill="#bc8cff" opacity="0.7"/>
<circle cx="452.9" cy="112.4" r="2.6" fill="#bc8cff" opacity="0.7"/>
<circle cx="471.3" cy="112.3" r="2.6" fill="#bc8cff" opacity="0.7"/>
<circle cx="489.8" cy="112.4" r="2.6" fill="#bc8cff" opacity="0.7"/>
<circle cx="508.2" cy="112.4" r="2.6" fill="#bc8cff" opacity="0.7"/>
<circle cx="526.7" cy="112.4" r="2.6" fill="#bc8cff" opacity="0.7"/>
<circle cx="545.1" cy="113.9" r="2.6" fill="#bc8cff" opacity="0.7"/>
<circle cx="563.6" cy="112.3" r="2.6" fill="#bc8cff" opacity="0.7"/>
<circle cx="582.0" cy="112.3" r="2.6" fill="#bc8cff" opacity="0.7"/>
<circle cx="600.5" cy="112.3" r="2.6" fill="#bc8cff" opacity="0.7"/>
<circle cx="618.9" cy="112.3" r="2.6" fill="#bc8cff" opacity="0.7"/>
<circle cx="637.4" cy="112.3" r="2.6" fill="#bc8cff" opacity="0.7"/>
<circle cx="655.8" cy="114.7" r="2.6" fill="#bc8cff" opacity="0.7"/>
<circle cx="674.3" cy="112.3" r="2.6" fill="#bc8cff" opacity="0.7"/>
<circle cx="692.7" cy="112.3" r="2.6" fill="#bc8cff" opacity="0.7"/>
<circle cx="711.2" cy="112.3" r="2.6" fill="#bc8cff" opacity="0.7"/>
<circle cx="729.6" cy="112.5" r="2.6" fill="#bc8cff" opacity="0.7"/>
<circle cx="748.1" cy="112.5" r="2.6" fill="#bc8cff" opacity="0.7"/>
<circle cx="766.5" cy="113.8" r="2.6" fill="#bc8cff" opacity="0.7"/>
<circle cx="785.0" cy="114.5" r="2.6" fill="#bc8cff" opacity="0.7"/>
<circle cx="97.0" cy="348.0" r="3.2" fill="#ff922b" opacity="0.85"/>
<circle cx="115.5" cy="231.1" r="3.2" fill="#ff922b" opacity="0.85"/>
<circle cx="133.9" cy="347.9" r="3.2" fill="#ff922b" opacity="0.85"/>
<circle cx="152.4" cy="231.1" r="3.2" fill="#ff922b" opacity="0.85"/>
<circle cx="170.8" cy="347.7" r="3.2" fill="#ff922b" opacity="0.85"/>
<circle cx="189.3" cy="347.7" r="3.2" fill="#ff922b" opacity="0.85"/>
<circle cx="207.7" cy="347.6" r="3.2" fill="#ff922b" opacity="0.85"/>
<circle cx="226.2" cy="347.9" r="3.2" fill="#ff922b" opacity="0.85"/>
<circle cx="244.6" cy="347.9" r="3.2" fill="#ff922b" opacity="0.85"/>
<circle cx="263.1" cy="347.9" r="3.2" fill="#ff922b" opacity="0.85"/>
<circle cx="281.5" cy="347.8" r="3.2" fill="#ff922b" opacity="0.85"/>
<circle cx="300.0" cy="347.9" r="3.2" fill="#ff922b" opacity="0.85"/>
<circle cx="318.4" cy="347.9" r="3.2" fill="#ff922b" opacity="0.85"/>
<circle cx="336.9" cy="347.9" r="3.2" fill="#ff922b" opacity="0.85"/>
<circle cx="355.3" cy="347.7" r="3.2" fill="#ff922b" opacity="0.85"/>
<circle cx="373.8" cy="229.9" r="3.2" fill="#ff922b" opacity="0.85"/>
<circle cx="392.2" cy="227.9" r="3.2" fill="#ff922b" opacity="0.85"/>
<circle cx="410.7" cy="347.5" r="3.2" fill="#ff922b" opacity="0.85"/>
<circle cx="429.1" cy="229.9" r="3.2" fill="#ff922b" opacity="0.85"/>
<circle cx="447.6" cy="348.0" r="3.2" fill="#ff922b" opacity="0.85"/>
<circle cx="466.0" cy="347.9" r="3.2" fill="#ff922b" opacity="0.85"/>
<circle cx="484.5" cy="348.0" r="3.2" fill="#ff922b" opacity="0.85"/>
<circle cx="502.9" cy="347.9" r="3.2" fill="#ff922b" opacity="0.85"/>
<circle cx="521.4" cy="347.9" r="3.2" fill="#ff922b" opacity="0.85"/>
<circle cx="539.8" cy="229.9" r="3.2" fill="#ff922b" opacity="0.85"/>
<circle cx="558.3" cy="347.9" r="3.2" fill="#ff922b" opacity="0.85"/>
<circle cx="576.7" cy="347.5" r="3.2" fill="#ff922b" opacity="0.85"/>
<circle cx="595.2" cy="347.8" r="3.2" fill="#ff922b" opacity="0.85"/>
<circle cx="613.6" cy="347.9" r="3.2" fill="#ff922b" opacity="0.85"/>
<circle cx="632.1" cy="347.9" r="3.2" fill="#ff922b" opacity="0.85"/>
<circle cx="650.5" cy="233.2" r="3.2" fill="#ff922b" opacity="0.85"/>
<circle cx="669.0" cy="347.7" r="3.2" fill="#ff922b" opacity="0.85"/>
<circle cx="687.4" cy="347.9" r="3.2" fill="#ff922b" opacity="0.85"/>
<circle cx="705.9" cy="347.9" r="3.2" fill="#ff922b" opacity="0.85"/>
<circle cx="724.3" cy="348.0" r="3.2" fill="#ff922b" opacity="0.85"/>
<circle cx="742.8" cy="348.0" r="3.2" fill="#ff922b" opacity="0.85"/>
<circle cx="761.2" cy="229.8" r="3.2" fill="#ff922b" opacity="0.85"/>
<circle cx="779.7" cy="233.1" r="3.2" fill="#ff922b" opacity="0.85"/>
<circle cx="847" cy="84" r="5" fill="#ff922b"/>
<text x="866" y="88" font-size="13" fill="#c9d1d9" font-weight="700">Kāra</text>
<line x1="836" y1="108" x2="858" y2="108" stroke="#a7b0bc" stroke-width="2" stroke-dasharray="5 4"/>
<text x="866" y="112" font-size="13" fill="#c9d1d9" font-weight="400">Rust = 1.0×</text>
<circle cx="847" cy="132" r="4" fill="#3fb950"/>
<text x="866" y="136" font-size="13" fill="#c9d1d9" font-weight="400">C</text>
<circle cx="847" cy="156" r="4" fill="#bc8cff"/>
<text x="866" y="160" font-size="13" fill="#c9d1d9" font-weight="400">Go</text>
<text x="70" y="538" font-size="11.5" fill="#8b949e">Each dot is one benchmarked program (kata × approach); there is no connecting line because left-to-right order is not meaningful. Raw numbers: bench-results.json</text>
</svg>