<svg xmlns="http://www.w3.org/2000/svg" width="980" height="560" viewBox="0 0 980 560" font-family="-apple-system,Segoe UI,Helvetica,Arial,sans-serif">
<rect width="980" height="560" fill="#282c34"/>
<text x="70" y="34" font-size="21" font-weight="700" fill="#c9d1d9">Binary size — sequential lane</text>
<text x="70" y="56" font-size="13" fill="#8b949e">relative to Rust = 1.0 · lower = smaller · 18 programs · log scale</text>
<line x1="70" y1="456.0" x2="812" y2="456.0" stroke="#3b414b" stroke-width="1"/>
<text x="60" y="460.0" font-size="12" text-anchor="end" fill="#8b949e">0.01×</text>
<line x1="70" y1="418.1" x2="812" y2="418.1" stroke="#3b414b" stroke-width="1"/>
<text x="60" y="422.1" font-size="12" text-anchor="end" fill="#8b949e">0.02×</text>
<line x1="70" y1="367.9" x2="812" y2="367.9" stroke="#3b414b" stroke-width="1"/>
<text x="60" y="371.9" font-size="12" text-anchor="end" fill="#8b949e">0.05×</text>
<line x1="70" y1="330.0" x2="812" y2="330.0" stroke="#3b414b" stroke-width="1"/>
<text x="60" y="334.0" font-size="12" text-anchor="end" fill="#8b949e">0.1×</text>
<line x1="70" y1="292.1" x2="812" y2="292.1" stroke="#3b414b" stroke-width="1"/>
<text x="60" y="296.1" font-size="12" text-anchor="end" fill="#8b949e">0.2×</text>
<line x1="70" y1="241.9" x2="812" y2="241.9" stroke="#3b414b" stroke-width="1"/>
<text x="60" y="245.9" font-size="12" text-anchor="end" fill="#8b949e">0.5×</text>
<line x1="70" y1="204.0" x2="812" y2="204.0" stroke="#6e7681" stroke-width="1.4" stroke-dasharray="5 4"/>
<text x="60" y="208.0" font-size="12" text-anchor="end" fill="#aeb6c0" font-weight="700">1×</text>
<line x1="70" y1="166.1" x2="812" y2="166.1" stroke="#3b414b" stroke-width="1"/>
<text x="60" y="170.1" font-size="12" text-anchor="end" fill="#8b949e">2×</text>
<line x1="70" y1="115.9" x2="812" y2="115.9" stroke="#3b414b" stroke-width="1"/>
<text x="60" y="119.9" font-size="12" text-anchor="end" fill="#8b949e">5×</text>
<line x1="70" y1="78.0" x2="812" y2="78.0" stroke="#3b414b" stroke-width="1"/>
<text x="60" y="82.0" font-size="12" text-anchor="end" fill="#8b949e">10×</text>
<text x="812" y="198.0" font-size="11" text-anchor="end" fill="#aeb6c0">Rust baseline</text>
<line x1="99.7" y1="456" x2="99.7" y2="461" stroke="#3b414b"/>
<g transform="translate(99.7,474) rotate(35)">
<text x="0" y="0" font-size="10.5" fill="#8b949e">#1</text>
<text x="0" y="12" font-size="10.5" fill="#8b949e">brute_force</text>
</g>
<line x1="139.8" y1="456" x2="139.8" y2="461" stroke="#3b414b"/>
<g transform="translate(139.8,474) rotate(35)">
<text x="0" y="0" font-size="10.5" fill="#8b949e">#1</text>
<text x="0" y="12" font-size="10.5" fill="#8b949e">hash_map</text>
</g>
<line x1="180.0" y1="456" x2="180.0" y2="461" stroke="#3b414b"/>
<g transform="translate(180.0,474) rotate(35)">
<text x="0" y="0" font-size="10.5" fill="#8b949e">#2</text>
<text x="0" y="12" font-size="10.5" fill="#8b949e">iterative</text>
</g>
<line x1="220.1" y1="456" x2="220.1" y2="461" stroke="#3b414b"/>
<g transform="translate(220.1,474) rotate(35)">
<text x="0" y="0" font-size="10.5" fill="#8b949e">#3</text>
<text x="0" y="12" font-size="10.5" fill="#8b949e">sliding_window</text>
</g>
<line x1="260.3" y1="456" x2="260.3" y2="461" stroke="#3b414b"/>
<g transform="translate(260.3,474) rotate(35)">
<text x="0" y="0" font-size="10.5" fill="#8b949e">#4</text>
<text x="0" y="12" font-size="10.5" fill="#8b949e">binary_search…</text>
</g>
<line x1="300.5" y1="456" x2="300.5" y2="461" stroke="#3b414b"/>
<g transform="translate(300.5,474) rotate(35)">
<text x="0" y="0" font-size="10.5" fill="#8b949e">#5</text>
<text x="0" y="12" font-size="10.5" fill="#8b949e">expand_around…</text>
</g>
<line x1="340.6" y1="456" x2="340.6" y2="461" stroke="#3b414b"/>
<g transform="translate(340.6,474) rotate(35)">
<text x="0" y="0" font-size="10.5" fill="#8b949e">#6</text>
<text x="0" y="12" font-size="10.5" fill="#8b949e">row_buffers</text>
</g>
<line x1="380.8" y1="456" x2="380.8" y2="461" stroke="#3b414b"/>
<g transform="translate(380.8,474) rotate(35)">
<text x="0" y="0" font-size="10.5" fill="#8b949e">#7</text>
<text x="0" y="12" font-size="10.5" fill="#8b949e">reverse</text>
</g>
<line x1="420.9" y1="456" x2="420.9" y2="461" stroke="#3b414b"/>
<g transform="translate(420.9,474) rotate(35)">
<text x="0" y="0" font-size="10.5" fill="#8b949e">#8</text>
<text x="0" y="12" font-size="10.5" fill="#8b949e">atoi</text>
</g>
<line x1="461.1" y1="456" x2="461.1" y2="461" stroke="#3b414b"/>
<g transform="translate(461.1,474) rotate(35)">
<text x="0" y="0" font-size="10.5" fill="#8b949e">#9</text>
<text x="0" y="12" font-size="10.5" fill="#8b949e">palindrome</text>
</g>
<line x1="501.2" y1="456" x2="501.2" y2="461" stroke="#3b414b"/>
<g transform="translate(501.2,474) rotate(35)">
<text x="0" y="0" font-size="10.5" fill="#8b949e">#10</text>
<text x="0" y="12" font-size="10.5" fill="#8b949e">regex</text>
</g>
<line x1="541.4" y1="456" x2="541.4" y2="461" stroke="#3b414b"/>
<g transform="translate(541.4,474) rotate(35)">
<text x="0" y="0" font-size="10.5" fill="#8b949e">#11</text>
<text x="0" y="12" font-size="10.5" fill="#8b949e">container</text>
</g>
<line x1="581.5" y1="456" x2="581.5" y2="461" stroke="#3b414b"/>
<g transform="translate(581.5,474) rotate(35)">
<text x="0" y="0" font-size="10.5" fill="#8b949e">#12</text>
<text x="0" y="12" font-size="10.5" fill="#8b949e">greedy</text>
</g>
<line x1="621.7" y1="456" x2="621.7" y2="461" stroke="#3b414b"/>
<g transform="translate(621.7,474) rotate(35)">
<text x="0" y="0" font-size="10.5" fill="#8b949e">#13</text>
<text x="0" y="12" font-size="10.5" fill="#8b949e">greedy</text>
</g>
<line x1="661.9" y1="456" x2="661.9" y2="461" stroke="#3b414b"/>
<g transform="translate(661.9,474) rotate(35)">
<text x="0" y="0" font-size="10.5" fill="#8b949e">#14</text>
<text x="0" y="12" font-size="10.5" fill="#8b949e">vertical</text>
</g>
<line x1="702.0" y1="456" x2="702.0" y2="461" stroke="#3b414b"/>
<g transform="translate(702.0,474) rotate(35)">
<text x="0" y="0" font-size="10.5" fill="#8b949e">#15</text>
<text x="0" y="12" font-size="10.5" fill="#8b949e">three_sum</text>
</g>
<line x1="742.2" y1="456" x2="742.2" y2="461" stroke="#3b414b"/>
<g transform="translate(742.2,474) rotate(35)">
<text x="0" y="0" font-size="10.5" fill="#8b949e">#16</text>
<text x="0" y="12" font-size="10.5" fill="#8b949e">three_sum_clo…</text>
</g>
<line x1="782.3" y1="456" x2="782.3" y2="461" stroke="#3b414b"/>
<g transform="translate(782.3,474) rotate(35)">
<text x="0" y="0" font-size="10.5" fill="#8b949e">#204</text>
<text x="0" y="12" font-size="10.5" fill="#8b949e">count</text>
</g>
<circle cx="99.7" cy="347.9" r="4.0" fill="#3fb950" opacity="0.95"/>
<circle cx="139.8" cy="347.9" r="4.0" fill="#3fb950" opacity="0.95"/>
<circle cx="180.0" cy="347.9" r="4.0" fill="#3fb950" opacity="0.95"/>
<circle cx="220.1" cy="348.2" r="4.0" fill="#3fb950" opacity="0.95"/>
<circle cx="260.3" cy="348.1" r="4.0" fill="#3fb950" opacity="0.95"/>
<circle cx="300.5" cy="348.0" r="4.0" fill="#3fb950" opacity="0.95"/>
<circle cx="340.6" cy="347.6" r="4.0" fill="#3fb950" opacity="0.95"/>
<circle cx="380.8" cy="348.1" r="4.0" fill="#3fb950" opacity="0.95"/>
<circle cx="420.9" cy="348.1" r="4.0" fill="#3fb950" opacity="0.95"/>
<circle cx="461.1" cy="348.1" r="4.0" fill="#3fb950" opacity="0.95"/>
<circle cx="501.2" cy="348.1" r="4.0" fill="#3fb950" opacity="0.95"/>
<circle cx="541.4" cy="348.1" r="4.0" fill="#3fb950" opacity="0.95"/>
<circle cx="581.5" cy="348.0" r="4.0" fill="#3fb950" opacity="0.95"/>
<circle cx="621.7" cy="348.0" r="4.0" fill="#3fb950" opacity="0.95"/>
<circle cx="661.9" cy="348.0" r="4.0" fill="#3fb950" opacity="0.95"/>
<circle cx="702.0" cy="349.9" r="4.0" fill="#3fb950" opacity="0.95"/>
<circle cx="742.2" cy="348.0" r="4.0" fill="#3fb950" opacity="0.95"/>
<circle cx="782.3" cy="348.0" r="4.0" fill="#3fb950" opacity="0.95"/>
<circle cx="103.5" cy="112.3" r="4.0" fill="#bc8cff" opacity="0.95"/>
<circle cx="143.7" cy="112.5" r="4.0" fill="#bc8cff" opacity="0.95"/>
<circle cx="183.8" cy="112.4" r="4.0" fill="#bc8cff" opacity="0.95"/>
<circle cx="224.0" cy="112.5" r="4.0" fill="#bc8cff" opacity="0.95"/>
<circle cx="264.1" cy="112.3" r="4.0" fill="#bc8cff" opacity="0.95"/>
<circle cx="304.3" cy="112.3" r="4.0" fill="#bc8cff" opacity="0.95"/>
<circle cx="344.4" cy="112.3" r="4.0" fill="#bc8cff" opacity="0.95"/>
<circle cx="384.6" cy="112.3" r="4.0" fill="#bc8cff" opacity="0.95"/>
<circle cx="424.8" cy="112.3" r="4.0" fill="#bc8cff" opacity="0.95"/>
<circle cx="464.9" cy="112.3" r="4.0" fill="#bc8cff" opacity="0.95"/>
<circle cx="505.1" cy="112.3" r="4.0" fill="#bc8cff" opacity="0.95"/>
<circle cx="545.2" cy="112.3" r="4.0" fill="#bc8cff" opacity="0.95"/>
<circle cx="585.4" cy="112.3" r="4.0" fill="#bc8cff" opacity="0.95"/>
<circle cx="625.5" cy="112.3" r="4.0" fill="#bc8cff" opacity="0.95"/>
<circle cx="665.7" cy="112.3" r="4.0" fill="#bc8cff" opacity="0.95"/>
<circle cx="705.8" cy="113.9" r="4.0" fill="#bc8cff" opacity="0.95"/>
<circle cx="746.0" cy="111.9" r="4.0" fill="#bc8cff" opacity="0.95"/>
<circle cx="786.2" cy="112.3" r="4.0" fill="#bc8cff" opacity="0.95"/>
<circle cx="95.8" cy="348.0" r="5.0" fill="#ff922b" opacity="1.0"/>
<circle cx="136.0" cy="231.1" r="5.0" fill="#ff922b" opacity="1.0"/>
<circle cx="176.2" cy="348.0" r="5.0" fill="#ff922b" opacity="1.0"/>
<circle cx="216.3" cy="231.1" r="5.0" fill="#ff922b" opacity="1.0"/>
<circle cx="256.5" cy="347.7" r="5.0" fill="#ff922b" opacity="1.0"/>
<circle cx="296.6" cy="347.7" r="5.0" fill="#ff922b" opacity="1.0"/>
<circle cx="336.8" cy="347.6" r="5.0" fill="#ff922b" opacity="1.0"/>
<circle cx="376.9" cy="347.9" r="5.0" fill="#ff922b" opacity="1.0"/>
<circle cx="417.1" cy="347.9" r="5.0" fill="#ff922b" opacity="1.0"/>
<circle cx="457.2" cy="347.9" r="5.0" fill="#ff922b" opacity="1.0"/>
<circle cx="497.4" cy="347.8" r="5.0" fill="#ff922b" opacity="1.0"/>
<circle cx="537.6" cy="347.9" r="5.0" fill="#ff922b" opacity="1.0"/>
<circle cx="577.7" cy="347.9" r="5.0" fill="#ff922b" opacity="1.0"/>
<circle cx="617.9" cy="347.9" r="5.0" fill="#ff922b" opacity="1.0"/>
<circle cx="658.0" cy="347.7" r="5.0" fill="#ff922b" opacity="1.0"/>
<circle cx="698.2" cy="229.9" r="5.0" fill="#ff922b" opacity="1.0"/>
<circle cx="738.3" cy="227.9" r="5.0" fill="#ff922b" opacity="1.0"/>
<circle cx="778.5" cy="347.9" r="5.0" fill="#ff922b" opacity="1.0"/>
<circle cx="847" cy="84" r="5" fill="#ff922b"/>
<text x="866" y="88" font-size="13" fill="#c9d1d9" font-weight="700">Kāra</text>
<line x1="836" y1="108" x2="858" y2="108" stroke="#6e7681" stroke-width="1.6" stroke-dasharray="5 4"/>
<text x="866" y="112" font-size="13" fill="#c9d1d9" font-weight="400">Rust</text>
<circle cx="847" cy="132" r="4" fill="#3fb950"/>
<text x="866" y="136" font-size="13" fill="#c9d1d9" font-weight="400">C</text>
<circle cx="847" cy="156" r="4" fill="#bc8cff"/>
<text x="866" y="160" font-size="13" fill="#c9d1d9" font-weight="400">Go</text>
<text x="70" y="538" font-size="11.5" fill="#8b949e">Each dot is one benchmarked program (kata × approach); there is no connecting line because left-to-right order is not meaningful. Raw numbers: bench-results.json</text>
</svg>