<svg xmlns="http://www.w3.org/2000/svg" width="980" height="560" viewBox="0 0 980 560" font-family="-apple-system,Segoe UI,Helvetica,Arial,sans-serif">
<rect width="980" height="560" fill="#282c34"/>
<text x="70" y="34" font-size="21" font-weight="700" fill="#c9d1d9">Compile peak memory (cold)</text>
<text x="70" y="56" font-size="13" fill="#8b949e">relative to Rust = 1.0 · lower = leaner · 95 programs</text>
<line x1="70" y1="456.0" x2="812" y2="456.0" stroke="#3b414b" stroke-width="1"/>
<text x="60" y="460.0" font-size="12" text-anchor="end" fill="#8b949e">0.0×</text>
<line x1="70" y1="330.0" x2="812" y2="330.0" stroke="#3b414b" stroke-width="1"/>
<text x="60" y="334.0" font-size="12" text-anchor="end" fill="#8b949e">0.5×</text>
<line x1="70" y1="204.0" x2="812" y2="204.0" stroke="#a7b0bc" stroke-width="2" stroke-dasharray="5 4"/>
<text x="60" y="208.0" font-size="12" text-anchor="end" fill="#aeb6c0" font-weight="700">1.0×</text>
<line x1="70" y1="78.0" x2="812" y2="78.0" stroke="#3b414b" stroke-width="1"/>
<text x="60" y="82.0" font-size="12" text-anchor="end" fill="#8b949e">1.5×</text>
<text x="812" y="198.0" font-size="11" text-anchor="end" fill="#aeb6c0">Rust baseline</text>
<line x1="70" y1="456" x2="812" y2="456" stroke="#3b414b"/>
<text x="441.0" y="478" font-size="11" text-anchor="middle" fill="#8b949e">95 programs (kata × approach) — x-order carries no meaning</text>
<circle cx="100.7" cy="431.6" r="2.6" fill="#3fb950" opacity="0.7"/>
<circle cx="107.9" cy="438.7" r="2.6" fill="#3fb950" opacity="0.7"/>
<circle cx="115.2" cy="435.8" r="2.6" fill="#3fb950" opacity="0.7"/>
<circle cx="122.5" cy="439.1" r="2.6" fill="#3fb950" opacity="0.7"/>
<circle cx="129.7" cy="434.2" r="2.6" fill="#3fb950" opacity="0.7"/>
<circle cx="137.0" cy="434.5" r="2.6" fill="#3fb950" opacity="0.7"/>
<circle cx="144.2" cy="435.8" r="2.6" fill="#3fb950" opacity="0.7"/>
<circle cx="151.5" cy="432.0" r="2.6" fill="#3fb950" opacity="0.7"/>
<circle cx="158.8" cy="431.7" r="2.6" fill="#3fb950" opacity="0.7"/>
<circle cx="166.0" cy="432.3" r="2.6" fill="#3fb950" opacity="0.7"/>
<circle cx="173.3" cy="432.1" r="2.6" fill="#3fb950" opacity="0.7"/>
<circle cx="180.6" cy="433.4" r="2.6" fill="#3fb950" opacity="0.7"/>
<circle cx="187.8" cy="433.0" r="2.6" fill="#3fb950" opacity="0.7"/>
<circle cx="195.1" cy="433.3" r="2.6" fill="#3fb950" opacity="0.7"/>
<circle cx="202.3" cy="434.3" r="2.6" fill="#3fb950" opacity="0.7"/>
<circle cx="209.6" cy="439.1" r="2.6" fill="#3fb950" opacity="0.7"/>
<circle cx="216.9" cy="438.8" r="2.6" fill="#3fb950" opacity="0.7"/>
<circle cx="224.1" cy="433.2" r="2.6" fill="#3fb950" opacity="0.7"/>
<circle cx="231.4" cy="439.4" r="2.6" fill="#3fb950" opacity="0.7"/>
<circle cx="238.6" cy="434.9" r="2.6" fill="#3fb950" opacity="0.7"/>
<circle cx="245.9" cy="432.1" r="2.6" fill="#3fb950" opacity="0.7"/>
<circle cx="253.2" cy="435.3" r="2.6" fill="#3fb950" opacity="0.7"/>
<circle cx="260.4" cy="432.8" r="2.6" fill="#3fb950" opacity="0.7"/>
<circle cx="267.7" cy="436.7" r="2.6" fill="#3fb950" opacity="0.7"/>
<circle cx="275.0" cy="434.7" r="2.6" fill="#3fb950" opacity="0.7"/>
<circle cx="282.2" cy="435.6" r="2.6" fill="#3fb950" opacity="0.7"/>
<circle cx="289.5" cy="433.8" r="2.6" fill="#3fb950" opacity="0.7"/>
<circle cx="296.7" cy="434.0" r="2.6" fill="#3fb950" opacity="0.7"/>
<circle cx="304.0" cy="431.9" r="2.6" fill="#3fb950" opacity="0.7"/>
<circle cx="311.3" cy="433.4" r="2.6" fill="#3fb950" opacity="0.7"/>
<circle cx="318.5" cy="430.6" r="2.6" fill="#3fb950" opacity="0.7"/>
<circle cx="325.8" cy="439.9" r="2.6" fill="#3fb950" opacity="0.7"/>
<circle cx="333.1" cy="431.0" r="2.6" fill="#3fb950" opacity="0.7"/>
<circle cx="340.3" cy="432.1" r="2.6" fill="#3fb950" opacity="0.7"/>
<circle cx="347.6" cy="431.8" r="2.6" fill="#3fb950" opacity="0.7"/>
<circle cx="354.8" cy="432.1" r="2.6" fill="#3fb950" opacity="0.7"/>
<circle cx="362.1" cy="431.8" r="2.6" fill="#3fb950" opacity="0.7"/>
<circle cx="369.4" cy="431.4" r="2.6" fill="#3fb950" opacity="0.7"/>
<circle cx="376.6" cy="431.9" r="2.6" fill="#3fb950" opacity="0.7"/>
<circle cx="383.9" cy="433.4" r="2.6" fill="#3fb950" opacity="0.7"/>
<circle cx="391.2" cy="434.1" r="2.6" fill="#3fb950" opacity="0.7"/>
<circle cx="398.4" cy="436.9" r="2.6" fill="#3fb950" opacity="0.7"/>
<circle cx="405.7" cy="433.4" r="2.6" fill="#3fb950" opacity="0.7"/>
<circle cx="412.9" cy="433.0" r="2.6" fill="#3fb950" opacity="0.7"/>
<circle cx="420.2" cy="435.6" r="2.6" fill="#3fb950" opacity="0.7"/>
<circle cx="427.5" cy="435.2" r="2.6" fill="#3fb950" opacity="0.7"/>
<circle cx="434.7" cy="433.8" r="2.6" fill="#3fb950" opacity="0.7"/>
<circle cx="442.0" cy="435.8" r="2.6" fill="#3fb950" opacity="0.7"/>
<circle cx="449.2" cy="439.5" r="2.6" fill="#3fb950" opacity="0.7"/>
<circle cx="456.5" cy="435.7" r="2.6" fill="#3fb950" opacity="0.7"/>
<circle cx="463.8" cy="443.0" r="2.6" fill="#3fb950" opacity="0.7"/>
<circle cx="471.0" cy="430.7" r="2.6" fill="#3fb950" opacity="0.7"/>
<circle cx="478.3" cy="431.2" r="2.6" fill="#3fb950" opacity="0.7"/>
<circle cx="485.6" cy="430.8" r="2.6" fill="#3fb950" opacity="0.7"/>
<circle cx="492.8" cy="429.6" r="2.6" fill="#3fb950" opacity="0.7"/>
<circle cx="500.1" cy="430.6" r="2.6" fill="#3fb950" opacity="0.7"/>
<circle cx="507.3" cy="431.8" r="2.6" fill="#3fb950" opacity="0.7"/>
<circle cx="514.6" cy="439.4" r="2.6" fill="#3fb950" opacity="0.7"/>
<circle cx="521.9" cy="435.4" r="2.6" fill="#3fb950" opacity="0.7"/>
<circle cx="529.1" cy="435.6" r="2.6" fill="#3fb950" opacity="0.7"/>
<circle cx="536.4" cy="435.9" r="2.6" fill="#3fb950" opacity="0.7"/>
<circle cx="543.7" cy="434.9" r="2.6" fill="#3fb950" opacity="0.7"/>
<circle cx="550.9" cy="433.4" r="2.6" fill="#3fb950" opacity="0.7"/>
<circle cx="558.2" cy="432.7" r="2.6" fill="#3fb950" opacity="0.7"/>
<circle cx="565.4" cy="433.1" r="2.6" fill="#3fb950" opacity="0.7"/>
<circle cx="572.7" cy="432.2" r="2.6" fill="#3fb950" opacity="0.7"/>
<circle cx="580.0" cy="430.5" r="2.6" fill="#3fb950" opacity="0.7"/>
<circle cx="587.2" cy="432.2" r="2.6" fill="#3fb950" opacity="0.7"/>
<circle cx="594.5" cy="429.8" r="2.6" fill="#3fb950" opacity="0.7"/>
<circle cx="601.8" cy="430.3" r="2.6" fill="#3fb950" opacity="0.7"/>
<circle cx="609.0" cy="436.2" r="2.6" fill="#3fb950" opacity="0.7"/>
<circle cx="616.3" cy="433.2" r="2.6" fill="#3fb950" opacity="0.7"/>
<circle cx="623.5" cy="434.8" r="2.6" fill="#3fb950" opacity="0.7"/>
<circle cx="630.8" cy="432.9" r="2.6" fill="#3fb950" opacity="0.7"/>
<circle cx="638.1" cy="431.7" r="2.6" fill="#3fb950" opacity="0.7"/>
<circle cx="645.3" cy="433.0" r="2.6" fill="#3fb950" opacity="0.7"/>
<circle cx="652.6" cy="432.4" r="2.6" fill="#3fb950" opacity="0.7"/>
<circle cx="659.9" cy="434.8" r="2.6" fill="#3fb950" opacity="0.7"/>
<circle cx="667.1" cy="432.0" r="2.6" fill="#3fb950" opacity="0.7"/>
<circle cx="674.4" cy="432.5" r="2.6" fill="#3fb950" opacity="0.7"/>
<circle cx="681.6" cy="432.8" r="2.6" fill="#3fb950" opacity="0.7"/>
<circle cx="688.9" cy="432.8" r="2.6" fill="#3fb950" opacity="0.7"/>
<circle cx="696.2" cy="441.6" r="2.6" fill="#3fb950" opacity="0.7"/>
<circle cx="703.4" cy="432.2" r="2.6" fill="#3fb950" opacity="0.7"/>
<circle cx="710.7" cy="434.1" r="2.6" fill="#3fb950" opacity="0.7"/>
<circle cx="717.9" cy="435.5" r="2.6" fill="#3fb950" opacity="0.7"/>
<circle cx="725.2" cy="432.2" r="2.6" fill="#3fb950" opacity="0.7"/>
<circle cx="732.5" cy="437.2" r="2.6" fill="#3fb950" opacity="0.7"/>
<circle cx="739.7" cy="436.9" r="2.6" fill="#3fb950" opacity="0.7"/>
<circle cx="747.0" cy="434.6" r="2.6" fill="#3fb950" opacity="0.7"/>
<circle cx="754.3" cy="433.5" r="2.6" fill="#3fb950" opacity="0.7"/>
<circle cx="761.5" cy="434.4" r="2.6" fill="#3fb950" opacity="0.7"/>
<circle cx="768.8" cy="435.8" r="2.6" fill="#3fb950" opacity="0.7"/>
<circle cx="776.0" cy="438.9" r="2.6" fill="#3fb950" opacity="0.7"/>
<circle cx="783.3" cy="441.8" r="2.6" fill="#3fb950" opacity="0.7"/>
<circle cx="98.7" cy="330.2" r="3.2" fill="#ff922b" opacity="0.85"/>
<circle cx="106.0" cy="366.3" r="3.2" fill="#ff922b" opacity="0.85"/>
<circle cx="113.2" cy="348.3" r="3.2" fill="#ff922b" opacity="0.85"/>
<circle cx="120.5" cy="368.1" r="3.2" fill="#ff922b" opacity="0.85"/>
<circle cx="127.7" cy="338.7" r="3.2" fill="#ff922b" opacity="0.85"/>
<circle cx="135.0" cy="342.1" r="3.2" fill="#ff922b" opacity="0.85"/>
<circle cx="142.3" cy="344.6" r="3.2" fill="#ff922b" opacity="0.85"/>
<circle cx="149.5" cy="334.2" r="3.2" fill="#ff922b" opacity="0.85"/>
<circle cx="156.8" cy="327.6" r="3.2" fill="#ff922b" opacity="0.85"/>
<circle cx="164.1" cy="330.4" r="3.2" fill="#ff922b" opacity="0.85"/>
<circle cx="171.3" cy="325.6" r="3.2" fill="#ff922b" opacity="0.85"/>
<circle cx="178.6" cy="336.7" r="3.2" fill="#ff922b" opacity="0.85"/>
<circle cx="185.8" cy="325.6" r="3.2" fill="#ff922b" opacity="0.85"/>
<circle cx="193.1" cy="321.2" r="3.2" fill="#ff922b" opacity="0.85"/>
<circle cx="200.4" cy="336.9" r="3.2" fill="#ff922b" opacity="0.85"/>
<circle cx="207.6" cy="352.4" r="3.2" fill="#ff922b" opacity="0.85"/>
<circle cx="214.9" cy="354.1" r="3.2" fill="#ff922b" opacity="0.85"/>
<circle cx="222.1" cy="331.3" r="3.2" fill="#ff922b" opacity="0.85"/>
<circle cx="229.4" cy="340.2" r="3.2" fill="#ff922b" opacity="0.85"/>
<circle cx="236.7" cy="341.5" r="3.2" fill="#ff922b" opacity="0.85"/>
<circle cx="243.9" cy="330.6" r="3.2" fill="#ff922b" opacity="0.85"/>
<circle cx="251.2" cy="338.7" r="3.2" fill="#ff922b" opacity="0.85"/>
<circle cx="258.5" cy="336.2" r="3.2" fill="#ff922b" opacity="0.85"/>
<circle cx="265.7" cy="339.5" r="3.2" fill="#ff922b" opacity="0.85"/>
<circle cx="273.0" cy="341.0" r="3.2" fill="#ff922b" opacity="0.85"/>
<circle cx="280.2" cy="339.5" r="3.2" fill="#ff922b" opacity="0.85"/>
<circle cx="287.5" cy="340.1" r="3.2" fill="#ff922b" opacity="0.85"/>
<circle cx="294.8" cy="341.6" r="3.2" fill="#ff922b" opacity="0.85"/>
<circle cx="302.0" cy="331.3" r="3.2" fill="#ff922b" opacity="0.85"/>
<circle cx="309.3" cy="334.9" r="3.2" fill="#ff922b" opacity="0.85"/>
<circle cx="316.6" cy="328.8" r="3.2" fill="#ff922b" opacity="0.85"/>
<circle cx="323.8" cy="358.6" r="3.2" fill="#ff922b" opacity="0.85"/>
<circle cx="331.1" cy="325.4" r="3.2" fill="#ff922b" opacity="0.85"/>
<circle cx="338.3" cy="330.5" r="3.2" fill="#ff922b" opacity="0.85"/>
<circle cx="345.6" cy="332.9" r="3.2" fill="#ff922b" opacity="0.85"/>
<circle cx="352.9" cy="331.8" r="3.2" fill="#ff922b" opacity="0.85"/>
<circle cx="360.1" cy="332.5" r="3.2" fill="#ff922b" opacity="0.85"/>
<circle cx="367.4" cy="290.0" r="3.2" fill="#ff922b" opacity="0.85"/>
<circle cx="374.7" cy="308.0" r="3.2" fill="#ff922b" opacity="0.85"/>
<circle cx="381.9" cy="332.6" r="3.2" fill="#ff922b" opacity="0.85"/>
<circle cx="389.2" cy="336.9" r="3.2" fill="#ff922b" opacity="0.85"/>
<circle cx="396.4" cy="346.4" r="3.2" fill="#ff922b" opacity="0.85"/>
<circle cx="403.7" cy="337.1" r="3.2" fill="#ff922b" opacity="0.85"/>
<circle cx="411.0" cy="335.6" r="3.2" fill="#ff922b" opacity="0.85"/>
<circle cx="418.2" cy="334.7" r="3.2" fill="#ff922b" opacity="0.85"/>
<circle cx="425.5" cy="344.1" r="3.2" fill="#ff922b" opacity="0.85"/>
<circle cx="432.8" cy="339.7" r="3.2" fill="#ff922b" opacity="0.85"/>
<circle cx="440.0" cy="344.1" r="3.2" fill="#ff922b" opacity="0.85"/>
<circle cx="447.3" cy="361.9" r="3.2" fill="#ff922b" opacity="0.85"/>
<circle cx="454.5" cy="298.5" r="3.2" fill="#ff922b" opacity="0.85"/>
<circle cx="461.8" cy="360.2" r="3.2" fill="#ff922b" opacity="0.85"/>
<circle cx="469.1" cy="274.7" r="3.2" fill="#ff922b" opacity="0.85"/>
<circle cx="476.3" cy="269.5" r="3.2" fill="#ff922b" opacity="0.85"/>
<circle cx="483.6" cy="265.6" r="3.2" fill="#ff922b" opacity="0.85"/>
<circle cx="490.8" cy="261.5" r="3.2" fill="#ff922b" opacity="0.85"/>
<circle cx="498.1" cy="254.2" r="3.2" fill="#ff922b" opacity="0.85"/>
<circle cx="505.4" cy="281.4" r="3.2" fill="#ff922b" opacity="0.85"/>
<circle cx="512.6" cy="365.0" r="3.2" fill="#ff922b" opacity="0.85"/>
<circle cx="519.9" cy="291.7" r="3.2" fill="#ff922b" opacity="0.85"/>
<circle cx="527.2" cy="289.6" r="3.2" fill="#ff922b" opacity="0.85"/>
<circle cx="534.4" cy="290.8" r="3.2" fill="#ff922b" opacity="0.85"/>
<circle cx="541.7" cy="286.2" r="3.2" fill="#ff922b" opacity="0.85"/>
<circle cx="548.9" cy="292.3" r="3.2" fill="#ff922b" opacity="0.85"/>
<circle cx="556.2" cy="281.6" r="3.2" fill="#ff922b" opacity="0.85"/>
<circle cx="563.5" cy="280.7" r="3.2" fill="#ff922b" opacity="0.85"/>
<circle cx="570.7" cy="327.4" r="3.2" fill="#ff922b" opacity="0.85"/>
<circle cx="578.0" cy="265.6" r="3.2" fill="#ff922b" opacity="0.85"/>
<circle cx="585.3" cy="242.3" r="3.2" fill="#ff922b" opacity="0.85"/>
<circle cx="592.5" cy="263.3" r="3.2" fill="#ff922b" opacity="0.85"/>
<circle cx="599.8" cy="265.9" r="3.2" fill="#ff922b" opacity="0.85"/>
<circle cx="607.0" cy="344.1" r="3.2" fill="#ff922b" opacity="0.85"/>
<circle cx="614.3" cy="277.5" r="3.2" fill="#ff922b" opacity="0.85"/>
<circle cx="621.6" cy="278.4" r="3.2" fill="#ff922b" opacity="0.85"/>
<circle cx="628.8" cy="277.6" r="3.2" fill="#ff922b" opacity="0.85"/>
<circle cx="636.1" cy="274.3" r="3.2" fill="#ff922b" opacity="0.85"/>
<circle cx="643.4" cy="268.2" r="3.2" fill="#ff922b" opacity="0.85"/>
<circle cx="650.6" cy="276.1" r="3.2" fill="#ff922b" opacity="0.85"/>
<circle cx="657.9" cy="345.4" r="3.2" fill="#ff922b" opacity="0.85"/>
<circle cx="665.1" cy="334.0" r="3.2" fill="#ff922b" opacity="0.85"/>
<circle cx="672.4" cy="269.7" r="3.2" fill="#ff922b" opacity="0.85"/>
<circle cx="679.7" cy="338.4" r="3.2" fill="#ff922b" opacity="0.85"/>
<circle cx="686.9" cy="333.2" r="3.2" fill="#ff922b" opacity="0.85"/>
<circle cx="694.2" cy="375.2" r="3.2" fill="#ff922b" opacity="0.85"/>
<circle cx="701.4" cy="334.3" r="3.2" fill="#ff922b" opacity="0.85"/>
<circle cx="708.7" cy="341.6" r="3.2" fill="#ff922b" opacity="0.85"/>
<circle cx="716.0" cy="346.9" r="3.2" fill="#ff922b" opacity="0.85"/>
<circle cx="723.2" cy="334.4" r="3.2" fill="#ff922b" opacity="0.85"/>
<circle cx="730.5" cy="349.7" r="3.2" fill="#ff922b" opacity="0.85"/>
<circle cx="737.8" cy="349.7" r="3.2" fill="#ff922b" opacity="0.85"/>
<circle cx="745.0" cy="338.7" r="3.2" fill="#ff922b" opacity="0.85"/>
<circle cx="752.3" cy="338.7" r="3.2" fill="#ff922b" opacity="0.85"/>
<circle cx="759.5" cy="332.4" r="3.2" fill="#ff922b" opacity="0.85"/>
<circle cx="766.8" cy="336.4" r="3.2" fill="#ff922b" opacity="0.85"/>
<circle cx="774.1" cy="367.4" r="3.2" fill="#ff922b" opacity="0.85"/>
<circle cx="781.3" cy="370.7" r="3.2" fill="#ff922b" opacity="0.85"/>
<circle cx="847" cy="84" r="5" fill="#ff922b"/>
<text x="866" y="88" font-size="13" fill="#c9d1d9" font-weight="700">Kāra</text>
<line x1="836" y1="108" x2="858" y2="108" stroke="#a7b0bc" stroke-width="2" stroke-dasharray="5 4"/>
<text x="866" y="112" font-size="13" fill="#c9d1d9" font-weight="400">Rust = 1.0×</text>
<circle cx="847" cy="132" r="4" fill="#3fb950"/>
<text x="866" y="136" font-size="13" fill="#c9d1d9" font-weight="400">C</text>
<text x="70" y="538" font-size="11.5" fill="#8b949e">Each dot is one benchmarked program (kata × approach); there is no connecting line because left-to-right order is not meaningful. Raw numbers: bench-results.json</text>
</svg>