<svg xmlns="http://www.w3.org/2000/svg" width="980" height="560" viewBox="0 0 980 560" font-family="-apple-system,Segoe UI,Helvetica,Arial,sans-serif">
<rect width="980" height="560" fill="#282c34"/>
<text x="70" y="34" font-size="21" font-weight="700" fill="#c9d1d9">Compile peak memory (cold)</text>
<text x="70" y="56" font-size="13" fill="#8b949e">relative to Rust = 1.0 · lower = leaner · 44 programs</text>
<line x1="70" y1="456.0" x2="812" y2="456.0" stroke="#3b414b" stroke-width="1"/>
<text x="60" y="460.0" font-size="12" text-anchor="end" fill="#8b949e">0.0×</text>
<line x1="70" y1="330.0" x2="812" y2="330.0" stroke="#3b414b" stroke-width="1"/>
<text x="60" y="334.0" font-size="12" text-anchor="end" fill="#8b949e">0.5×</text>
<line x1="70" y1="204.0" x2="812" y2="204.0" stroke="#a7b0bc" stroke-width="2" stroke-dasharray="5 4"/>
<text x="60" y="208.0" font-size="12" text-anchor="end" fill="#aeb6c0" font-weight="700">1.0×</text>
<line x1="70" y1="78.0" x2="812" y2="78.0" stroke="#3b414b" stroke-width="1"/>
<text x="60" y="82.0" font-size="12" text-anchor="end" fill="#8b949e">1.5×</text>
<text x="812" y="198.0" font-size="11" text-anchor="end" fill="#aeb6c0">Rust baseline</text>
<line x1="70" y1="456" x2="812" y2="456" stroke="#3b414b"/>
<text x="441.0" y="478" font-size="11" text-anchor="middle" fill="#8b949e">44 programs (kata × approach) — x-order carries no meaning</text>
<circle cx="101.7" cy="431.6" r="2.6" fill="#3fb950" opacity="0.7"/>
<circle cx="117.5" cy="438.7" r="2.6" fill="#3fb950" opacity="0.7"/>
<circle cx="133.4" cy="436.1" r="2.6" fill="#3fb950" opacity="0.7"/>
<circle cx="149.3" cy="438.9" r="2.6" fill="#3fb950" opacity="0.7"/>
<circle cx="165.2" cy="433.7" r="2.6" fill="#3fb950" opacity="0.7"/>
<circle cx="181.0" cy="434.6" r="2.6" fill="#3fb950" opacity="0.7"/>
<circle cx="196.9" cy="435.8" r="2.6" fill="#3fb950" opacity="0.7"/>
<circle cx="212.8" cy="431.9" r="2.6" fill="#3fb950" opacity="0.7"/>
<circle cx="228.7" cy="431.3" r="2.6" fill="#3fb950" opacity="0.7"/>
<circle cx="244.5" cy="432.3" r="2.6" fill="#3fb950" opacity="0.7"/>
<circle cx="260.4" cy="432.1" r="2.6" fill="#3fb950" opacity="0.7"/>
<circle cx="276.3" cy="432.8" r="2.6" fill="#3fb950" opacity="0.7"/>
<circle cx="292.2" cy="433.1" r="2.6" fill="#3fb950" opacity="0.7"/>
<circle cx="308.0" cy="433.4" r="2.6" fill="#3fb950" opacity="0.7"/>
<circle cx="323.9" cy="434.2" r="2.6" fill="#3fb950" opacity="0.7"/>
<circle cx="339.8" cy="439.2" r="2.6" fill="#3fb950" opacity="0.7"/>
<circle cx="355.7" cy="438.7" r="2.6" fill="#3fb950" opacity="0.7"/>
<circle cx="371.5" cy="433.4" r="2.6" fill="#3fb950" opacity="0.7"/>
<circle cx="387.4" cy="439.6" r="2.6" fill="#3fb950" opacity="0.7"/>
<circle cx="403.3" cy="435.1" r="2.6" fill="#3fb950" opacity="0.7"/>
<circle cx="419.2" cy="432.1" r="2.6" fill="#3fb950" opacity="0.7"/>
<circle cx="435.0" cy="435.3" r="2.6" fill="#3fb950" opacity="0.7"/>
<circle cx="450.9" cy="432.8" r="2.6" fill="#3fb950" opacity="0.7"/>
<circle cx="466.8" cy="436.7" r="2.6" fill="#3fb950" opacity="0.7"/>
<circle cx="482.7" cy="434.3" r="2.6" fill="#3fb950" opacity="0.7"/>
<circle cx="498.5" cy="435.9" r="2.6" fill="#3fb950" opacity="0.7"/>
<circle cx="514.4" cy="434.2" r="2.6" fill="#3fb950" opacity="0.7"/>
<circle cx="530.3" cy="434.1" r="2.6" fill="#3fb950" opacity="0.7"/>
<circle cx="546.2" cy="432.3" r="2.6" fill="#3fb950" opacity="0.7"/>
<circle cx="562.0" cy="433.7" r="2.6" fill="#3fb950" opacity="0.7"/>
<circle cx="577.9" cy="440.0" r="2.6" fill="#3fb950" opacity="0.7"/>
<circle cx="593.8" cy="432.4" r="2.6" fill="#3fb950" opacity="0.7"/>
<circle cx="609.7" cy="436.2" r="2.6" fill="#3fb950" opacity="0.7"/>
<circle cx="625.5" cy="434.8" r="2.6" fill="#3fb950" opacity="0.7"/>
<circle cx="641.4" cy="432.4" r="2.6" fill="#3fb950" opacity="0.7"/>
<circle cx="657.3" cy="433.5" r="2.6" fill="#3fb950" opacity="0.7"/>
<circle cx="673.2" cy="441.5" r="2.6" fill="#3fb950" opacity="0.7"/>
<circle cx="689.0" cy="432.3" r="2.6" fill="#3fb950" opacity="0.7"/>
<circle cx="704.9" cy="433.7" r="2.6" fill="#3fb950" opacity="0.7"/>
<circle cx="720.8" cy="431.6" r="2.6" fill="#3fb950" opacity="0.7"/>
<circle cx="736.7" cy="437.3" r="2.6" fill="#3fb950" opacity="0.7"/>
<circle cx="752.5" cy="437.2" r="2.6" fill="#3fb950" opacity="0.7"/>
<circle cx="768.4" cy="439.3" r="2.6" fill="#3fb950" opacity="0.7"/>
<circle cx="784.3" cy="442.0" r="2.6" fill="#3fb950" opacity="0.7"/>
<circle cx="97.7" cy="366.0" r="3.2" fill="#ff922b" opacity="0.85"/>
<circle cx="113.6" cy="389.9" r="3.2" fill="#ff922b" opacity="0.85"/>
<circle cx="129.5" cy="360.5" r="3.2" fill="#ff922b" opacity="0.85"/>
<circle cx="145.3" cy="388.6" r="3.2" fill="#ff922b" opacity="0.85"/>
<circle cx="161.2" cy="368.1" r="3.2" fill="#ff922b" opacity="0.85"/>
<circle cx="177.1" cy="358.0" r="3.2" fill="#ff922b" opacity="0.85"/>
<circle cx="193.0" cy="358.8" r="3.2" fill="#ff922b" opacity="0.85"/>
<circle cx="208.8" cy="362.4" r="3.2" fill="#ff922b" opacity="0.85"/>
<circle cx="224.7" cy="358.1" r="3.2" fill="#ff922b" opacity="0.85"/>
<circle cx="240.6" cy="361.4" r="3.2" fill="#ff922b" opacity="0.85"/>
<circle cx="256.5" cy="358.7" r="3.2" fill="#ff922b" opacity="0.85"/>
<circle cx="272.3" cy="367.7" r="3.2" fill="#ff922b" opacity="0.85"/>
<circle cx="288.2" cy="351.0" r="3.2" fill="#ff922b" opacity="0.85"/>
<circle cx="304.1" cy="348.8" r="3.2" fill="#ff922b" opacity="0.85"/>
<circle cx="320.0" cy="360.8" r="3.2" fill="#ff922b" opacity="0.85"/>
<circle cx="335.8" cy="381.2" r="3.2" fill="#ff922b" opacity="0.85"/>
<circle cx="351.7" cy="384.5" r="3.2" fill="#ff922b" opacity="0.85"/>
<circle cx="367.6" cy="359.0" r="3.2" fill="#ff922b" opacity="0.85"/>
<circle cx="383.5" cy="378.4" r="3.2" fill="#ff922b" opacity="0.85"/>
<circle cx="399.3" cy="370.7" r="3.2" fill="#ff922b" opacity="0.85"/>
<circle cx="415.2" cy="358.2" r="3.2" fill="#ff922b" opacity="0.85"/>
<circle cx="431.1" cy="352.0" r="3.2" fill="#ff922b" opacity="0.85"/>
<circle cx="447.0" cy="344.2" r="3.2" fill="#ff922b" opacity="0.85"/>
<circle cx="462.8" cy="350.5" r="3.2" fill="#ff922b" opacity="0.85"/>
<circle cx="478.7" cy="347.7" r="3.2" fill="#ff922b" opacity="0.85"/>
<circle cx="494.6" cy="348.4" r="3.2" fill="#ff922b" opacity="0.85"/>
<circle cx="510.5" cy="349.9" r="3.2" fill="#ff922b" opacity="0.85"/>
<circle cx="526.3" cy="347.8" r="3.2" fill="#ff922b" opacity="0.85"/>
<circle cx="542.2" cy="341.8" r="3.2" fill="#ff922b" opacity="0.85"/>
<circle cx="558.1" cy="345.3" r="3.2" fill="#ff922b" opacity="0.85"/>
<circle cx="574.0" cy="387.4" r="3.2" fill="#ff922b" opacity="0.85"/>
<circle cx="589.8" cy="357.9" r="3.2" fill="#ff922b" opacity="0.85"/>
<circle cx="605.7" cy="368.7" r="3.2" fill="#ff922b" opacity="0.85"/>
<circle cx="621.6" cy="358.0" r="3.2" fill="#ff922b" opacity="0.85"/>
<circle cx="637.5" cy="365.4" r="3.2" fill="#ff922b" opacity="0.85"/>
<circle cx="653.3" cy="368.5" r="3.2" fill="#ff922b" opacity="0.85"/>
<circle cx="669.2" cy="383.5" r="3.2" fill="#ff922b" opacity="0.85"/>
<circle cx="685.1" cy="367.2" r="3.2" fill="#ff922b" opacity="0.85"/>
<circle cx="701.0" cy="361.1" r="3.2" fill="#ff922b" opacity="0.85"/>
<circle cx="716.8" cy="362.8" r="3.2" fill="#ff922b" opacity="0.85"/>
<circle cx="732.7" cy="377.6" r="3.2" fill="#ff922b" opacity="0.85"/>
<circle cx="748.6" cy="379.0" r="3.2" fill="#ff922b" opacity="0.85"/>
<circle cx="764.5" cy="390.3" r="3.2" fill="#ff922b" opacity="0.85"/>
<circle cx="780.3" cy="391.2" r="3.2" fill="#ff922b" opacity="0.85"/>
<circle cx="847" cy="84" r="5" fill="#ff922b"/>
<text x="866" y="88" font-size="13" fill="#c9d1d9" font-weight="700">Kāra</text>
<line x1="836" y1="108" x2="858" y2="108" stroke="#a7b0bc" stroke-width="2" stroke-dasharray="5 4"/>
<text x="866" y="112" font-size="13" fill="#c9d1d9" font-weight="400">Rust = 1.0×</text>
<circle cx="847" cy="132" r="4" fill="#3fb950"/>
<text x="866" y="136" font-size="13" fill="#c9d1d9" font-weight="400">C</text>
<text x="70" y="538" font-size="11.5" fill="#8b949e">Each dot is one benchmarked program (kata × approach); there is no connecting line because left-to-right order is not meaningful. Raw numbers: bench-results.json</text>
</svg>