<svg xmlns="http://www.w3.org/2000/svg" width="980" height="560" viewBox="0 0 980 560" font-family="-apple-system,Segoe UI,Helvetica,Arial,sans-serif">
<rect width="980" height="560" fill="#282c34"/>
<text x="70" y="34" font-size="21" font-weight="700" fill="#c9d1d9">Compile peak memory (cold)</text>
<text x="70" y="56" font-size="13" fill="#8b949e">relative to Rust = 1.0 · lower = leaner · 107 programs</text>
<line x1="70" y1="456.0" x2="812" y2="456.0" stroke="#3b414b" stroke-width="1"/>
<text x="60" y="460.0" font-size="12" text-anchor="end" fill="#8b949e">0.0×</text>
<line x1="70" y1="330.0" x2="812" y2="330.0" stroke="#3b414b" stroke-width="1"/>
<text x="60" y="334.0" font-size="12" text-anchor="end" fill="#8b949e">0.5×</text>
<line x1="70" y1="204.0" x2="812" y2="204.0" stroke="#a7b0bc" stroke-width="2" stroke-dasharray="5 4"/>
<text x="60" y="208.0" font-size="12" text-anchor="end" fill="#aeb6c0" font-weight="700">1.0×</text>
<line x1="70" y1="78.0" x2="812" y2="78.0" stroke="#3b414b" stroke-width="1"/>
<text x="60" y="82.0" font-size="12" text-anchor="end" fill="#8b949e">1.5×</text>
<text x="812" y="198.0" font-size="11" text-anchor="end" fill="#aeb6c0">Rust baseline</text>
<line x1="70" y1="456" x2="812" y2="456" stroke="#3b414b"/>
<text x="441.0" y="478" font-size="11" text-anchor="middle" fill="#8b949e">107 programs (kata × approach) — x-order carries no meaning</text>
<circle cx="100.6" cy="431.6" r="2.6" fill="#3fb950" opacity="0.7"/>
<circle cx="107.0" cy="438.7" r="2.6" fill="#3fb950" opacity="0.7"/>
<circle cx="113.4" cy="435.8" r="2.6" fill="#3fb950" opacity="0.7"/>
<circle cx="119.9" cy="439.1" r="2.6" fill="#3fb950" opacity="0.7"/>
<circle cx="126.3" cy="434.2" r="2.6" fill="#3fb950" opacity="0.7"/>
<circle cx="132.8" cy="434.5" r="2.6" fill="#3fb950" opacity="0.7"/>
<circle cx="139.2" cy="435.8" r="2.6" fill="#3fb950" opacity="0.7"/>
<circle cx="145.6" cy="432.0" r="2.6" fill="#3fb950" opacity="0.7"/>
<circle cx="152.1" cy="431.7" r="2.6" fill="#3fb950" opacity="0.7"/>
<circle cx="158.5" cy="432.3" r="2.6" fill="#3fb950" opacity="0.7"/>
<circle cx="165.0" cy="432.1" r="2.6" fill="#3fb950" opacity="0.7"/>
<circle cx="171.4" cy="433.4" r="2.6" fill="#3fb950" opacity="0.7"/>
<circle cx="177.8" cy="433.0" r="2.6" fill="#3fb950" opacity="0.7"/>
<circle cx="184.3" cy="433.3" r="2.6" fill="#3fb950" opacity="0.7"/>
<circle cx="190.7" cy="434.3" r="2.6" fill="#3fb950" opacity="0.7"/>
<circle cx="197.2" cy="439.1" r="2.6" fill="#3fb950" opacity="0.7"/>
<circle cx="203.6" cy="438.8" r="2.6" fill="#3fb950" opacity="0.7"/>
<circle cx="210.0" cy="433.2" r="2.6" fill="#3fb950" opacity="0.7"/>
<circle cx="216.5" cy="439.4" r="2.6" fill="#3fb950" opacity="0.7"/>
<circle cx="222.9" cy="434.9" r="2.6" fill="#3fb950" opacity="0.7"/>
<circle cx="229.4" cy="432.1" r="2.6" fill="#3fb950" opacity="0.7"/>
<circle cx="235.8" cy="435.3" r="2.6" fill="#3fb950" opacity="0.7"/>
<circle cx="242.2" cy="432.8" r="2.6" fill="#3fb950" opacity="0.7"/>
<circle cx="248.7" cy="436.7" r="2.6" fill="#3fb950" opacity="0.7"/>
<circle cx="255.1" cy="434.7" r="2.6" fill="#3fb950" opacity="0.7"/>
<circle cx="261.6" cy="435.6" r="2.6" fill="#3fb950" opacity="0.7"/>
<circle cx="268.0" cy="433.8" r="2.6" fill="#3fb950" opacity="0.7"/>
<circle cx="274.4" cy="434.0" r="2.6" fill="#3fb950" opacity="0.7"/>
<circle cx="280.9" cy="431.9" r="2.6" fill="#3fb950" opacity="0.7"/>
<circle cx="287.3" cy="433.4" r="2.6" fill="#3fb950" opacity="0.7"/>
<circle cx="293.8" cy="430.6" r="2.6" fill="#3fb950" opacity="0.7"/>
<circle cx="300.2" cy="439.9" r="2.6" fill="#3fb950" opacity="0.7"/>
<circle cx="306.6" cy="431.0" r="2.6" fill="#3fb950" opacity="0.7"/>
<circle cx="313.1" cy="432.1" r="2.6" fill="#3fb950" opacity="0.7"/>
<circle cx="319.5" cy="431.8" r="2.6" fill="#3fb950" opacity="0.7"/>
<circle cx="326.0" cy="432.1" r="2.6" fill="#3fb950" opacity="0.7"/>
<circle cx="332.4" cy="431.8" r="2.6" fill="#3fb950" opacity="0.7"/>
<circle cx="338.8" cy="431.4" r="2.6" fill="#3fb950" opacity="0.7"/>
<circle cx="345.3" cy="431.9" r="2.6" fill="#3fb950" opacity="0.7"/>
<circle cx="351.7" cy="433.4" r="2.6" fill="#3fb950" opacity="0.7"/>
<circle cx="358.2" cy="434.1" r="2.6" fill="#3fb950" opacity="0.7"/>
<circle cx="364.6" cy="436.9" r="2.6" fill="#3fb950" opacity="0.7"/>
<circle cx="371.0" cy="433.4" r="2.6" fill="#3fb950" opacity="0.7"/>
<circle cx="377.5" cy="433.0" r="2.6" fill="#3fb950" opacity="0.7"/>
<circle cx="383.9" cy="435.6" r="2.6" fill="#3fb950" opacity="0.7"/>
<circle cx="390.4" cy="435.2" r="2.6" fill="#3fb950" opacity="0.7"/>
<circle cx="396.8" cy="433.8" r="2.6" fill="#3fb950" opacity="0.7"/>
<circle cx="403.2" cy="435.8" r="2.6" fill="#3fb950" opacity="0.7"/>
<circle cx="409.7" cy="439.5" r="2.6" fill="#3fb950" opacity="0.7"/>
<circle cx="416.1" cy="435.7" r="2.6" fill="#3fb950" opacity="0.7"/>
<circle cx="422.6" cy="443.0" r="2.6" fill="#3fb950" opacity="0.7"/>
<circle cx="429.0" cy="430.7" r="2.6" fill="#3fb950" opacity="0.7"/>
<circle cx="435.4" cy="431.2" r="2.6" fill="#3fb950" opacity="0.7"/>
<circle cx="441.9" cy="430.8" r="2.6" fill="#3fb950" opacity="0.7"/>
<circle cx="448.3" cy="429.6" r="2.6" fill="#3fb950" opacity="0.7"/>
<circle cx="454.8" cy="430.6" r="2.6" fill="#3fb950" opacity="0.7"/>
<circle cx="461.2" cy="431.8" r="2.6" fill="#3fb950" opacity="0.7"/>
<circle cx="467.6" cy="439.4" r="2.6" fill="#3fb950" opacity="0.7"/>
<circle cx="474.1" cy="435.4" r="2.6" fill="#3fb950" opacity="0.7"/>
<circle cx="480.5" cy="435.6" r="2.6" fill="#3fb950" opacity="0.7"/>
<circle cx="487.0" cy="435.9" r="2.6" fill="#3fb950" opacity="0.7"/>
<circle cx="493.4" cy="434.9" r="2.6" fill="#3fb950" opacity="0.7"/>
<circle cx="499.8" cy="433.4" r="2.6" fill="#3fb950" opacity="0.7"/>
<circle cx="506.3" cy="432.7" r="2.6" fill="#3fb950" opacity="0.7"/>
<circle cx="512.7" cy="433.1" r="2.6" fill="#3fb950" opacity="0.7"/>
<circle cx="519.2" cy="432.2" r="2.6" fill="#3fb950" opacity="0.7"/>
<circle cx="525.6" cy="430.5" r="2.6" fill="#3fb950" opacity="0.7"/>
<circle cx="532.0" cy="432.2" r="2.6" fill="#3fb950" opacity="0.7"/>
<circle cx="538.5" cy="429.8" r="2.6" fill="#3fb950" opacity="0.7"/>
<circle cx="544.9" cy="430.3" r="2.6" fill="#3fb950" opacity="0.7"/>
<circle cx="551.4" cy="436.2" r="2.6" fill="#3fb950" opacity="0.7"/>
<circle cx="557.8" cy="433.2" r="2.6" fill="#3fb950" opacity="0.7"/>
<circle cx="564.2" cy="434.8" r="2.6" fill="#3fb950" opacity="0.7"/>
<circle cx="570.7" cy="432.9" r="2.6" fill="#3fb950" opacity="0.7"/>
<circle cx="577.1" cy="431.7" r="2.6" fill="#3fb950" opacity="0.7"/>
<circle cx="583.6" cy="433.0" r="2.6" fill="#3fb950" opacity="0.7"/>
<circle cx="590.0" cy="432.4" r="2.6" fill="#3fb950" opacity="0.7"/>
<circle cx="596.4" cy="435.1" r="2.6" fill="#3fb950" opacity="0.7"/>
<circle cx="602.9" cy="433.7" r="2.6" fill="#3fb950" opacity="0.7"/>
<circle cx="609.3" cy="432.3" r="2.6" fill="#3fb950" opacity="0.7"/>
<circle cx="615.8" cy="432.5" r="2.6" fill="#3fb950" opacity="0.7"/>
<circle cx="622.2" cy="435.6" r="2.6" fill="#3fb950" opacity="0.7"/>
<circle cx="628.6" cy="434.9" r="2.6" fill="#3fb950" opacity="0.7"/>
<circle cx="635.1" cy="432.9" r="2.6" fill="#3fb950" opacity="0.7"/>
<circle cx="641.5" cy="434.7" r="2.6" fill="#3fb950" opacity="0.7"/>
<circle cx="648.0" cy="434.9" r="2.6" fill="#3fb950" opacity="0.7"/>
<circle cx="654.4" cy="434.8" r="2.6" fill="#3fb950" opacity="0.7"/>
<circle cx="660.8" cy="430.1" r="2.6" fill="#3fb950" opacity="0.7"/>
<circle cx="667.3" cy="433.4" r="2.6" fill="#3fb950" opacity="0.7"/>
<circle cx="673.7" cy="432.0" r="2.6" fill="#3fb950" opacity="0.7"/>
<circle cx="680.2" cy="435.4" r="2.6" fill="#3fb950" opacity="0.7"/>
<circle cx="686.6" cy="432.5" r="2.6" fill="#3fb950" opacity="0.7"/>
<circle cx="693.0" cy="432.8" r="2.6" fill="#3fb950" opacity="0.7"/>
<circle cx="699.5" cy="432.8" r="2.6" fill="#3fb950" opacity="0.7"/>
<circle cx="705.9" cy="441.6" r="2.6" fill="#3fb950" opacity="0.7"/>
<circle cx="712.4" cy="432.2" r="2.6" fill="#3fb950" opacity="0.7"/>
<circle cx="718.8" cy="434.1" r="2.6" fill="#3fb950" opacity="0.7"/>
<circle cx="725.2" cy="435.5" r="2.6" fill="#3fb950" opacity="0.7"/>
<circle cx="731.7" cy="432.2" r="2.6" fill="#3fb950" opacity="0.7"/>
<circle cx="738.1" cy="437.2" r="2.6" fill="#3fb950" opacity="0.7"/>
<circle cx="744.6" cy="436.9" r="2.6" fill="#3fb950" opacity="0.7"/>
<circle cx="751.0" cy="434.6" r="2.6" fill="#3fb950" opacity="0.7"/>
<circle cx="757.4" cy="433.5" r="2.6" fill="#3fb950" opacity="0.7"/>
<circle cx="763.9" cy="434.4" r="2.6" fill="#3fb950" opacity="0.7"/>
<circle cx="770.3" cy="435.8" r="2.6" fill="#3fb950" opacity="0.7"/>
<circle cx="776.8" cy="438.9" r="2.6" fill="#3fb950" opacity="0.7"/>
<circle cx="783.2" cy="441.8" r="2.6" fill="#3fb950" opacity="0.7"/>
<circle cx="98.8" cy="330.2" r="3.2" fill="#ff922b" opacity="0.85"/>
<circle cx="105.2" cy="366.3" r="3.2" fill="#ff922b" opacity="0.85"/>
<circle cx="111.7" cy="348.3" r="3.2" fill="#ff922b" opacity="0.85"/>
<circle cx="118.1" cy="368.1" r="3.2" fill="#ff922b" opacity="0.85"/>
<circle cx="124.6" cy="338.7" r="3.2" fill="#ff922b" opacity="0.85"/>
<circle cx="131.0" cy="342.1" r="3.2" fill="#ff922b" opacity="0.85"/>
<circle cx="137.4" cy="344.6" r="3.2" fill="#ff922b" opacity="0.85"/>
<circle cx="143.9" cy="334.2" r="3.2" fill="#ff922b" opacity="0.85"/>
<circle cx="150.3" cy="327.6" r="3.2" fill="#ff922b" opacity="0.85"/>
<circle cx="156.8" cy="330.4" r="3.2" fill="#ff922b" opacity="0.85"/>
<circle cx="163.2" cy="325.6" r="3.2" fill="#ff922b" opacity="0.85"/>
<circle cx="169.6" cy="336.7" r="3.2" fill="#ff922b" opacity="0.85"/>
<circle cx="176.1" cy="325.6" r="3.2" fill="#ff922b" opacity="0.85"/>
<circle cx="182.5" cy="321.2" r="3.2" fill="#ff922b" opacity="0.85"/>
<circle cx="189.0" cy="336.9" r="3.2" fill="#ff922b" opacity="0.85"/>
<circle cx="195.4" cy="352.4" r="3.2" fill="#ff922b" opacity="0.85"/>
<circle cx="201.8" cy="354.1" r="3.2" fill="#ff922b" opacity="0.85"/>
<circle cx="208.3" cy="331.3" r="3.2" fill="#ff922b" opacity="0.85"/>
<circle cx="214.7" cy="340.2" r="3.2" fill="#ff922b" opacity="0.85"/>
<circle cx="221.2" cy="341.5" r="3.2" fill="#ff922b" opacity="0.85"/>
<circle cx="227.6" cy="330.6" r="3.2" fill="#ff922b" opacity="0.85"/>
<circle cx="234.0" cy="338.7" r="3.2" fill="#ff922b" opacity="0.85"/>
<circle cx="240.5" cy="336.2" r="3.2" fill="#ff922b" opacity="0.85"/>
<circle cx="246.9" cy="339.5" r="3.2" fill="#ff922b" opacity="0.85"/>
<circle cx="253.4" cy="341.0" r="3.2" fill="#ff922b" opacity="0.85"/>
<circle cx="259.8" cy="339.5" r="3.2" fill="#ff922b" opacity="0.85"/>
<circle cx="266.2" cy="340.1" r="3.2" fill="#ff922b" opacity="0.85"/>
<circle cx="272.7" cy="341.6" r="3.2" fill="#ff922b" opacity="0.85"/>
<circle cx="279.1" cy="331.3" r="3.2" fill="#ff922b" opacity="0.85"/>
<circle cx="285.6" cy="334.9" r="3.2" fill="#ff922b" opacity="0.85"/>
<circle cx="292.0" cy="328.8" r="3.2" fill="#ff922b" opacity="0.85"/>
<circle cx="298.4" cy="358.6" r="3.2" fill="#ff922b" opacity="0.85"/>
<circle cx="304.9" cy="325.4" r="3.2" fill="#ff922b" opacity="0.85"/>
<circle cx="311.3" cy="330.5" r="3.2" fill="#ff922b" opacity="0.85"/>
<circle cx="317.8" cy="332.9" r="3.2" fill="#ff922b" opacity="0.85"/>
<circle cx="324.2" cy="331.8" r="3.2" fill="#ff922b" opacity="0.85"/>
<circle cx="330.6" cy="332.5" r="3.2" fill="#ff922b" opacity="0.85"/>
<circle cx="337.1" cy="290.0" r="3.2" fill="#ff922b" opacity="0.85"/>
<circle cx="343.5" cy="308.0" r="3.2" fill="#ff922b" opacity="0.85"/>
<circle cx="350.0" cy="332.6" r="3.2" fill="#ff922b" opacity="0.85"/>
<circle cx="356.4" cy="336.9" r="3.2" fill="#ff922b" opacity="0.85"/>
<circle cx="362.8" cy="346.4" r="3.2" fill="#ff922b" opacity="0.85"/>
<circle cx="369.3" cy="337.1" r="3.2" fill="#ff922b" opacity="0.85"/>
<circle cx="375.7" cy="335.6" r="3.2" fill="#ff922b" opacity="0.85"/>
<circle cx="382.2" cy="334.7" r="3.2" fill="#ff922b" opacity="0.85"/>
<circle cx="388.6" cy="344.1" r="3.2" fill="#ff922b" opacity="0.85"/>
<circle cx="395.0" cy="339.7" r="3.2" fill="#ff922b" opacity="0.85"/>
<circle cx="401.5" cy="344.1" r="3.2" fill="#ff922b" opacity="0.85"/>
<circle cx="407.9" cy="361.9" r="3.2" fill="#ff922b" opacity="0.85"/>
<circle cx="414.4" cy="298.5" r="3.2" fill="#ff922b" opacity="0.85"/>
<circle cx="420.8" cy="360.2" r="3.2" fill="#ff922b" opacity="0.85"/>
<circle cx="427.2" cy="274.7" r="3.2" fill="#ff922b" opacity="0.85"/>
<circle cx="433.7" cy="269.5" r="3.2" fill="#ff922b" opacity="0.85"/>
<circle cx="440.1" cy="265.6" r="3.2" fill="#ff922b" opacity="0.85"/>
<circle cx="446.6" cy="261.5" r="3.2" fill="#ff922b" opacity="0.85"/>
<circle cx="453.0" cy="254.2" r="3.2" fill="#ff922b" opacity="0.85"/>
<circle cx="459.4" cy="281.4" r="3.2" fill="#ff922b" opacity="0.85"/>
<circle cx="465.9" cy="365.0" r="3.2" fill="#ff922b" opacity="0.85"/>
<circle cx="472.3" cy="291.7" r="3.2" fill="#ff922b" opacity="0.85"/>
<circle cx="478.8" cy="289.6" r="3.2" fill="#ff922b" opacity="0.85"/>
<circle cx="485.2" cy="290.8" r="3.2" fill="#ff922b" opacity="0.85"/>
<circle cx="491.6" cy="286.2" r="3.2" fill="#ff922b" opacity="0.85"/>
<circle cx="498.1" cy="292.3" r="3.2" fill="#ff922b" opacity="0.85"/>
<circle cx="504.5" cy="281.6" r="3.2" fill="#ff922b" opacity="0.85"/>
<circle cx="511.0" cy="280.7" r="3.2" fill="#ff922b" opacity="0.85"/>
<circle cx="517.4" cy="327.4" r="3.2" fill="#ff922b" opacity="0.85"/>
<circle cx="523.8" cy="265.6" r="3.2" fill="#ff922b" opacity="0.85"/>
<circle cx="530.3" cy="242.3" r="3.2" fill="#ff922b" opacity="0.85"/>
<circle cx="536.7" cy="263.3" r="3.2" fill="#ff922b" opacity="0.85"/>
<circle cx="543.2" cy="265.9" r="3.2" fill="#ff922b" opacity="0.85"/>
<circle cx="549.6" cy="344.1" r="3.2" fill="#ff922b" opacity="0.85"/>
<circle cx="556.0" cy="277.5" r="3.2" fill="#ff922b" opacity="0.85"/>
<circle cx="562.5" cy="278.4" r="3.2" fill="#ff922b" opacity="0.85"/>
<circle cx="568.9" cy="277.6" r="3.2" fill="#ff922b" opacity="0.85"/>
<circle cx="575.4" cy="274.3" r="3.2" fill="#ff922b" opacity="0.85"/>
<circle cx="581.8" cy="268.2" r="3.2" fill="#ff922b" opacity="0.85"/>
<circle cx="588.2" cy="276.1" r="3.2" fill="#ff922b" opacity="0.85"/>
<circle cx="594.7" cy="293.5" r="3.2" fill="#ff922b" opacity="0.85"/>
<circle cx="601.1" cy="284.3" r="3.2" fill="#ff922b" opacity="0.85"/>
<circle cx="607.6" cy="277.2" r="3.2" fill="#ff922b" opacity="0.85"/>
<circle cx="614.0" cy="274.6" r="3.2" fill="#ff922b" opacity="0.85"/>
<circle cx="620.4" cy="284.4" r="3.2" fill="#ff922b" opacity="0.85"/>
<circle cx="626.9" cy="289.3" r="3.2" fill="#ff922b" opacity="0.85"/>
<circle cx="633.3" cy="278.7" r="3.2" fill="#ff922b" opacity="0.85"/>
<circle cx="639.8" cy="285.4" r="3.2" fill="#ff922b" opacity="0.85"/>
<circle cx="646.2" cy="272.4" r="3.2" fill="#ff922b" opacity="0.85"/>
<circle cx="652.6" cy="345.4" r="3.2" fill="#ff922b" opacity="0.85"/>
<circle cx="659.1" cy="263.4" r="3.2" fill="#ff922b" opacity="0.85"/>
<circle cx="665.5" cy="280.2" r="3.2" fill="#ff922b" opacity="0.85"/>
<circle cx="672.0" cy="334.0" r="3.2" fill="#ff922b" opacity="0.85"/>
<circle cx="678.4" cy="288.1" r="3.2" fill="#ff922b" opacity="0.85"/>
<circle cx="684.8" cy="269.7" r="3.2" fill="#ff922b" opacity="0.85"/>
<circle cx="691.3" cy="338.4" r="3.2" fill="#ff922b" opacity="0.85"/>
<circle cx="697.7" cy="333.2" r="3.2" fill="#ff922b" opacity="0.85"/>
<circle cx="704.2" cy="375.2" r="3.2" fill="#ff922b" opacity="0.85"/>
<circle cx="710.6" cy="334.3" r="3.2" fill="#ff922b" opacity="0.85"/>
<circle cx="717.0" cy="341.6" r="3.2" fill="#ff922b" opacity="0.85"/>
<circle cx="723.5" cy="346.9" r="3.2" fill="#ff922b" opacity="0.85"/>
<circle cx="729.9" cy="334.4" r="3.2" fill="#ff922b" opacity="0.85"/>
<circle cx="736.4" cy="349.7" r="3.2" fill="#ff922b" opacity="0.85"/>
<circle cx="742.8" cy="349.7" r="3.2" fill="#ff922b" opacity="0.85"/>
<circle cx="749.2" cy="338.7" r="3.2" fill="#ff922b" opacity="0.85"/>
<circle cx="755.7" cy="338.7" r="3.2" fill="#ff922b" opacity="0.85"/>
<circle cx="762.1" cy="332.4" r="3.2" fill="#ff922b" opacity="0.85"/>
<circle cx="768.6" cy="336.4" r="3.2" fill="#ff922b" opacity="0.85"/>
<circle cx="775.0" cy="367.4" r="3.2" fill="#ff922b" opacity="0.85"/>
<circle cx="781.4" cy="370.7" r="3.2" fill="#ff922b" opacity="0.85"/>
<circle cx="847" cy="84" r="5" fill="#ff922b"/>
<text x="866" y="88" font-size="13" fill="#c9d1d9" font-weight="700">Kāra</text>
<line x1="836" y1="108" x2="858" y2="108" stroke="#a7b0bc" stroke-width="2" stroke-dasharray="5 4"/>
<text x="866" y="112" font-size="13" fill="#c9d1d9" font-weight="400">Rust = 1.0×</text>
<circle cx="847" cy="132" r="4" fill="#3fb950"/>
<text x="866" y="136" font-size="13" fill="#c9d1d9" font-weight="400">C</text>
<text x="70" y="538" font-size="11.5" fill="#8b949e">Each dot is one benchmarked program (kata × approach); there is no connecting line because left-to-right order is not meaningful. Raw numbers: bench-results.json</text>
</svg>