<svg xmlns="http://www.w3.org/2000/svg" width="980" height="560" viewBox="0 0 980 560" font-family="-apple-system,Segoe UI,Helvetica,Arial,sans-serif">
<rect width="980" height="560" fill="#282c34"/>
<text x="70" y="34" font-size="21" font-weight="700" fill="#c9d1d9">Compile time (cold)</text>
<text x="70" y="56" font-size="13" fill="#8b949e">relative to Rust = 1.0 · lower = faster · 29 programs</text>
<line x1="70" y1="456.0" x2="812" y2="456.0" stroke="#3b414b" stroke-width="1"/>
<text x="60" y="460.0" font-size="12" text-anchor="end" fill="#8b949e">0.0×</text>
<line x1="70" y1="330.0" x2="812" y2="330.0" stroke="#3b414b" stroke-width="1"/>
<text x="60" y="334.0" font-size="12" text-anchor="end" fill="#8b949e">0.5×</text>
<line x1="70" y1="204.0" x2="812" y2="204.0" stroke="#6e7681" stroke-width="1.4" stroke-dasharray="5 4"/>
<text x="60" y="208.0" font-size="12" text-anchor="end" fill="#aeb6c0" font-weight="700">1.0×</text>
<line x1="70" y1="78.0" x2="812" y2="78.0" stroke="#3b414b" stroke-width="1"/>
<text x="60" y="82.0" font-size="12" text-anchor="end" fill="#8b949e">1.5×</text>
<text x="812" y="198.0" font-size="11" text-anchor="end" fill="#aeb6c0">Rust baseline</text>
<line x1="99.7" y1="456" x2="99.7" y2="461" stroke="#3b414b"/>
<g transform="translate(99.7,474) rotate(35)">
<text x="0" y="0" font-size="10.5" fill="#8b949e">#1</text>
<text x="0" y="12" font-size="10.5" fill="#8b949e">brute_force</text>
</g>
<line x1="124.1" y1="456" x2="124.1" y2="461" stroke="#3b414b"/>
<g transform="translate(124.1,474) rotate(35)">
<text x="0" y="0" font-size="10.5" fill="#8b949e">#1</text>
<text x="0" y="12" font-size="10.5" fill="#8b949e">hash_map</text>
</g>
<line x1="148.4" y1="456" x2="148.4" y2="461" stroke="#3b414b"/>
<g transform="translate(148.4,474) rotate(35)">
<text x="0" y="0" font-size="10.5" fill="#8b949e">#2</text>
<text x="0" y="12" font-size="10.5" fill="#8b949e">iterative</text>
</g>
<line x1="172.8" y1="456" x2="172.8" y2="461" stroke="#3b414b"/>
<g transform="translate(172.8,474) rotate(35)">
<text x="0" y="0" font-size="10.5" fill="#8b949e">#3</text>
<text x="0" y="12" font-size="10.5" fill="#8b949e">sliding_window</text>
</g>
<line x1="197.2" y1="456" x2="197.2" y2="461" stroke="#3b414b"/>
<g transform="translate(197.2,474) rotate(35)">
<text x="0" y="0" font-size="10.5" fill="#8b949e">#4</text>
<text x="0" y="12" font-size="10.5" fill="#8b949e">binary_search…</text>
</g>
<line x1="221.6" y1="456" x2="221.6" y2="461" stroke="#3b414b"/>
<g transform="translate(221.6,474) rotate(35)">
<text x="0" y="0" font-size="10.5" fill="#8b949e">#5</text>
<text x="0" y="12" font-size="10.5" fill="#8b949e">expand_around…</text>
</g>
<line x1="246.0" y1="456" x2="246.0" y2="461" stroke="#3b414b"/>
<g transform="translate(246.0,474) rotate(35)">
<text x="0" y="0" font-size="10.5" fill="#8b949e">#6</text>
<text x="0" y="12" font-size="10.5" fill="#8b949e">row_buffers</text>
</g>
<line x1="270.3" y1="456" x2="270.3" y2="461" stroke="#3b414b"/>
<g transform="translate(270.3,474) rotate(35)">
<text x="0" y="0" font-size="10.5" fill="#8b949e">#7</text>
<text x="0" y="12" font-size="10.5" fill="#8b949e">reverse</text>
</g>
<line x1="294.7" y1="456" x2="294.7" y2="461" stroke="#3b414b"/>
<g transform="translate(294.7,474) rotate(35)">
<text x="0" y="0" font-size="10.5" fill="#8b949e">#8</text>
<text x="0" y="12" font-size="10.5" fill="#8b949e">atoi</text>
</g>
<line x1="319.1" y1="456" x2="319.1" y2="461" stroke="#3b414b"/>
<g transform="translate(319.1,474) rotate(35)">
<text x="0" y="0" font-size="10.5" fill="#8b949e">#9</text>
<text x="0" y="12" font-size="10.5" fill="#8b949e">palindrome</text>
</g>
<line x1="343.5" y1="456" x2="343.5" y2="461" stroke="#3b414b"/>
<g transform="translate(343.5,474) rotate(35)">
<text x="0" y="0" font-size="10.5" fill="#8b949e">#10</text>
<text x="0" y="12" font-size="10.5" fill="#8b949e">regex</text>
</g>
<line x1="367.9" y1="456" x2="367.9" y2="461" stroke="#3b414b"/>
<g transform="translate(367.9,474) rotate(35)">
<text x="0" y="0" font-size="10.5" fill="#8b949e">#11</text>
<text x="0" y="12" font-size="10.5" fill="#8b949e">container</text>
</g>
<line x1="392.2" y1="456" x2="392.2" y2="461" stroke="#3b414b"/>
<g transform="translate(392.2,474) rotate(35)">
<text x="0" y="0" font-size="10.5" fill="#8b949e">#12</text>
<text x="0" y="12" font-size="10.5" fill="#8b949e">greedy</text>
</g>
<line x1="416.6" y1="456" x2="416.6" y2="461" stroke="#3b414b"/>
<g transform="translate(416.6,474) rotate(35)">
<text x="0" y="0" font-size="10.5" fill="#8b949e">#13</text>
<text x="0" y="12" font-size="10.5" fill="#8b949e">greedy</text>
</g>
<line x1="441.0" y1="456" x2="441.0" y2="461" stroke="#3b414b"/>
<g transform="translate(441.0,474) rotate(35)">
<text x="0" y="0" font-size="10.5" fill="#8b949e">#14</text>
<text x="0" y="12" font-size="10.5" fill="#8b949e">vertical</text>
</g>
<line x1="465.4" y1="456" x2="465.4" y2="461" stroke="#3b414b"/>
<g transform="translate(465.4,474) rotate(35)">
<text x="0" y="0" font-size="10.5" fill="#8b949e">#15</text>
<text x="0" y="12" font-size="10.5" fill="#8b949e">three_sum</text>
</g>
<line x1="489.8" y1="456" x2="489.8" y2="461" stroke="#3b414b"/>
<g transform="translate(489.8,474) rotate(35)">
<text x="0" y="0" font-size="10.5" fill="#8b949e">#16</text>
<text x="0" y="12" font-size="10.5" fill="#8b949e">three_sum_clo…</text>
</g>
<line x1="514.1" y1="456" x2="514.1" y2="461" stroke="#3b414b"/>
<g transform="translate(514.1,474) rotate(35)">
<text x="0" y="0" font-size="10.5" fill="#8b949e">#17</text>
<text x="0" y="12" font-size="10.5" fill="#8b949e">letter_combin…</text>
</g>
<line x1="538.5" y1="456" x2="538.5" y2="461" stroke="#3b414b"/>
<g transform="translate(538.5,474) rotate(35)">
<text x="0" y="0" font-size="10.5" fill="#8b949e">#18</text>
<text x="0" y="12" font-size="10.5" fill="#8b949e">four_sum</text>
</g>
<line x1="562.9" y1="456" x2="562.9" y2="461" stroke="#3b414b"/>
<g transform="translate(562.9,474) rotate(35)">
<text x="0" y="0" font-size="10.5" fill="#8b949e">#19</text>
<text x="0" y="12" font-size="10.5" fill="#8b949e">remove_nth</text>
</g>
<line x1="587.3" y1="456" x2="587.3" y2="461" stroke="#3b414b"/>
<g transform="translate(587.3,474) rotate(35)">
<text x="0" y="0" font-size="10.5" fill="#8b949e">#20</text>
<text x="0" y="12" font-size="10.5" fill="#8b949e">valid_parenth…</text>
</g>
<line x1="611.7" y1="456" x2="611.7" y2="461" stroke="#3b414b"/>
<g transform="translate(611.7,474) rotate(35)">
<text x="0" y="0" font-size="10.5" fill="#8b949e">#21</text>
<text x="0" y="12" font-size="10.5" fill="#8b949e">iterative</text>
</g>
<line x1="636.0" y1="456" x2="636.0" y2="461" stroke="#3b414b"/>
<g transform="translate(636.0,474) rotate(35)">
<text x="0" y="0" font-size="10.5" fill="#8b949e">#56</text>
<text x="0" y="12" font-size="10.5" fill="#8b949e">merge_interva…</text>
</g>
<line x1="660.4" y1="456" x2="660.4" y2="461" stroke="#3b414b"/>
<g transform="translate(660.4,474) rotate(35)">
<text x="0" y="0" font-size="10.5" fill="#8b949e">#65</text>
<text x="0" y="12" font-size="10.5" fill="#8b949e">valid</text>
</g>
<line x1="684.8" y1="456" x2="684.8" y2="461" stroke="#3b414b"/>
<g transform="translate(684.8,474) rotate(35)">
<text x="0" y="0" font-size="10.5" fill="#8b949e">#71</text>
<text x="0" y="12" font-size="10.5" fill="#8b949e">simplify</text>
</g>
<line x1="709.2" y1="456" x2="709.2" y2="461" stroke="#3b414b"/>
<g transform="translate(709.2,474) rotate(35)">
<text x="0" y="0" font-size="10.5" fill="#8b949e">#88</text>
<text x="0" y="12" font-size="10.5" fill="#8b949e">two_pointer</text>
</g>
<line x1="733.6" y1="456" x2="733.6" y2="461" stroke="#3b414b"/>
<g transform="translate(733.6,474) rotate(35)">
<text x="0" y="0" font-size="10.5" fill="#8b949e">#91</text>
<text x="0" y="12" font-size="10.5" fill="#8b949e">decode_ways</text>
</g>
<line x1="757.9" y1="456" x2="757.9" y2="461" stroke="#3b414b"/>
<g transform="translate(757.9,474) rotate(35)">
<text x="0" y="0" font-size="10.5" fill="#8b949e">#121</text>
<text x="0" y="12" font-size="10.5" fill="#8b949e">one_pass</text>
</g>
<line x1="782.3" y1="456" x2="782.3" y2="461" stroke="#3b414b"/>
<g transform="translate(782.3,474) rotate(35)">
<text x="0" y="0" font-size="10.5" fill="#8b949e">#204</text>
<text x="0" y="12" font-size="10.5" fill="#8b949e">count</text>
</g>
<circle cx="102.6" cy="312.9" r="4.0" fill="#3fb950" opacity="0.95"/>
<circle cx="126.9" cy="362.3" r="4.0" fill="#3fb950" opacity="0.95"/>
<circle cx="151.3" cy="349.7" r="4.0" fill="#3fb950" opacity="0.95"/>
<circle cx="175.7" cy="360.0" r="4.0" fill="#3fb950" opacity="0.95"/>
<circle cx="200.1" cy="333.9" r="4.0" fill="#3fb950" opacity="0.95"/>
<circle cx="224.5" cy="344.2" r="4.0" fill="#3fb950" opacity="0.95"/>
<circle cx="248.8" cy="356.2" r="4.0" fill="#3fb950" opacity="0.95"/>
<circle cx="273.2" cy="322.5" r="4.0" fill="#3fb950" opacity="0.95"/>
<circle cx="297.6" cy="320.0" r="4.0" fill="#3fb950" opacity="0.95"/>
<circle cx="322.0" cy="320.9" r="4.0" fill="#3fb950" opacity="0.95"/>
<circle cx="346.4" cy="330.9" r="4.0" fill="#3fb950" opacity="0.95"/>
<circle cx="370.7" cy="320.7" r="4.0" fill="#3fb950" opacity="0.95"/>
<circle cx="395.1" cy="320.4" r="4.0" fill="#3fb950" opacity="0.95"/>
<circle cx="419.5" cy="323.6" r="4.0" fill="#3fb950" opacity="0.95"/>
<circle cx="443.9" cy="341.5" r="4.0" fill="#3fb950" opacity="0.95"/>
<circle cx="468.3" cy="349.2" r="4.0" fill="#3fb950" opacity="0.95"/>
<circle cx="492.6" cy="353.7" r="4.0" fill="#3fb950" opacity="0.95"/>
<circle cx="517.0" cy="334.0" r="4.0" fill="#3fb950" opacity="0.95"/>
<circle cx="541.4" cy="347.9" r="4.0" fill="#3fb950" opacity="0.95"/>
<circle cx="565.8" cy="343.5" r="4.0" fill="#3fb950" opacity="0.95"/>
<circle cx="590.2" cy="307.2" r="4.0" fill="#3fb950" opacity="0.95"/>
<circle cx="614.5" cy="352.4" r="4.0" fill="#3fb950" opacity="0.95"/>
<circle cx="638.9" cy="354.7" r="4.0" fill="#3fb950" opacity="0.95"/>
<circle cx="663.3" cy="311.0" r="4.0" fill="#3fb950" opacity="0.95"/>
<circle cx="687.7" cy="363.0" r="4.0" fill="#3fb950" opacity="0.95"/>
<circle cx="712.1" cy="321.8" r="4.0" fill="#3fb950" opacity="0.95"/>
<circle cx="736.4" cy="315.3" r="4.0" fill="#3fb950" opacity="0.95"/>
<circle cx="760.8" cy="320.6" r="4.0" fill="#3fb950" opacity="0.95"/>
<circle cx="785.2" cy="322.5" r="4.0" fill="#3fb950" opacity="0.95"/>
<circle cx="96.8" cy="266.5" r="5.0" fill="#ff922b" opacity="1.0"/>
<circle cx="121.2" cy="312.9" r="5.0" fill="#ff922b" opacity="1.0"/>
<circle cx="145.6" cy="275.5" r="5.0" fill="#ff922b" opacity="1.0"/>
<circle cx="169.9" cy="315.4" r="5.0" fill="#ff922b" opacity="1.0"/>
<circle cx="194.3" cy="265.9" r="5.0" fill="#ff922b" opacity="1.0"/>
<circle cx="218.7" cy="285.9" r="5.0" fill="#ff922b" opacity="1.0"/>
<circle cx="243.1" cy="292.8" r="5.0" fill="#ff922b" opacity="1.0"/>
<circle cx="267.5" cy="250.0" r="5.0" fill="#ff922b" opacity="1.0"/>
<circle cx="291.8" cy="238.4" r="5.0" fill="#ff922b" opacity="1.0"/>
<circle cx="316.2" cy="251.8" r="5.0" fill="#ff922b" opacity="1.0"/>
<circle cx="340.6" cy="280.5" r="5.0" fill="#ff922b" opacity="1.0"/>
<circle cx="365.0" cy="256.0" r="5.0" fill="#ff922b" opacity="1.0"/>
<circle cx="389.4" cy="234.7" r="5.0" fill="#ff922b" opacity="1.0"/>
<circle cx="413.7" cy="236.2" r="5.0" fill="#ff922b" opacity="1.0"/>
<circle cx="438.1" cy="282.4" r="5.0" fill="#ff922b" opacity="1.0"/>
<circle cx="462.5" cy="292.9" r="5.0" fill="#ff922b" opacity="1.0"/>
<circle cx="486.9" cy="298.0" r="5.0" fill="#ff922b" opacity="1.0"/>
<circle cx="511.3" cy="254.2" r="5.0" fill="#ff922b" opacity="1.0"/>
<circle cx="535.6" cy="290.9" r="5.0" fill="#ff922b" opacity="1.0"/>
<circle cx="560.0" cy="263.8" r="5.0" fill="#ff922b" opacity="1.0"/>
<circle cx="584.4" cy="219.7" r="5.0" fill="#ff922b" opacity="1.0"/>
<circle cx="608.8" cy="260.8" r="5.0" fill="#ff922b" opacity="1.0"/>
<circle cx="633.2" cy="298.8" r="5.0" fill="#ff922b" opacity="1.0"/>
<circle cx="657.5" cy="215.4" r="5.0" fill="#ff922b" opacity="1.0"/>
<circle cx="681.9" cy="284.0" r="5.0" fill="#ff922b" opacity="1.0"/>
<circle cx="706.3" cy="260.5" r="5.0" fill="#ff922b" opacity="1.0"/>
<circle cx="730.7" cy="232.6" r="5.0" fill="#ff922b" opacity="1.0"/>
<circle cx="755.1" cy="243.8" r="5.0" fill="#ff922b" opacity="1.0"/>
<circle cx="779.4" cy="257.4" r="5.0" fill="#ff922b" opacity="1.0"/>
<circle cx="847" cy="84" r="5" fill="#ff922b"/>
<text x="866" y="88" font-size="13" fill="#c9d1d9" font-weight="700">Kāra</text>
<line x1="836" y1="108" x2="858" y2="108" stroke="#6e7681" stroke-width="1.6" stroke-dasharray="5 4"/>
<text x="866" y="112" font-size="13" fill="#c9d1d9" font-weight="400">Rust</text>
<circle cx="847" cy="132" r="4" fill="#3fb950"/>
<text x="866" y="136" font-size="13" fill="#c9d1d9" font-weight="400">C</text>
<text x="70" y="538" font-size="11.5" fill="#8b949e">Each dot is one benchmarked program (kata × approach); there is no connecting line because left-to-right order is not meaningful. Raw numbers: bench-results.json</text>
</svg>