<svg xmlns="http://www.w3.org/2000/svg" width="980" height="560" viewBox="0 0 980 560" font-family="-apple-system,Segoe UI,Helvetica,Arial,sans-serif">
<rect width="980" height="560" fill="#282c34"/>
<text x="70" y="34" font-size="21" font-weight="700" fill="#c9d1d9">Compile peak memory (cold)</text>
<text x="70" y="56" font-size="13" fill="#8b949e">relative to Rust = 1.0 · lower = leaner · 48 programs</text>
<line x1="70" y1="456.0" x2="812" y2="456.0" stroke="#3b414b" stroke-width="1"/>
<text x="60" y="460.0" font-size="12" text-anchor="end" fill="#8b949e">0.0×</text>
<line x1="70" y1="330.0" x2="812" y2="330.0" stroke="#3b414b" stroke-width="1"/>
<text x="60" y="334.0" font-size="12" text-anchor="end" fill="#8b949e">0.5×</text>
<line x1="70" y1="204.0" x2="812" y2="204.0" stroke="#a7b0bc" stroke-width="2" stroke-dasharray="5 4"/>
<text x="60" y="208.0" font-size="12" text-anchor="end" fill="#aeb6c0" font-weight="700">1.0×</text>
<line x1="70" y1="78.0" x2="812" y2="78.0" stroke="#3b414b" stroke-width="1"/>
<text x="60" y="82.0" font-size="12" text-anchor="end" fill="#8b949e">1.5×</text>
<text x="812" y="198.0" font-size="11" text-anchor="end" fill="#aeb6c0">Rust baseline</text>
<line x1="70" y1="456" x2="812" y2="456" stroke="#3b414b"/>
<text x="441.0" y="478" font-size="11" text-anchor="middle" fill="#8b949e">48 programs (kata × approach) — x-order carries no meaning</text>
<circle cx="101.7" cy="431.6" r="2.6" fill="#3fb950" opacity="0.7"/>
<circle cx="116.2" cy="438.7" r="2.6" fill="#3fb950" opacity="0.7"/>
<circle cx="130.7" cy="436.1" r="2.6" fill="#3fb950" opacity="0.7"/>
<circle cx="145.2" cy="438.9" r="2.6" fill="#3fb950" opacity="0.7"/>
<circle cx="159.8" cy="433.7" r="2.6" fill="#3fb950" opacity="0.7"/>
<circle cx="174.3" cy="434.6" r="2.6" fill="#3fb950" opacity="0.7"/>
<circle cx="188.8" cy="435.8" r="2.6" fill="#3fb950" opacity="0.7"/>
<circle cx="203.3" cy="431.9" r="2.6" fill="#3fb950" opacity="0.7"/>
<circle cx="217.8" cy="431.3" r="2.6" fill="#3fb950" opacity="0.7"/>
<circle cx="232.4" cy="432.3" r="2.6" fill="#3fb950" opacity="0.7"/>
<circle cx="246.9" cy="432.1" r="2.6" fill="#3fb950" opacity="0.7"/>
<circle cx="261.4" cy="432.8" r="2.6" fill="#3fb950" opacity="0.7"/>
<circle cx="275.9" cy="433.1" r="2.6" fill="#3fb950" opacity="0.7"/>
<circle cx="290.5" cy="433.4" r="2.6" fill="#3fb950" opacity="0.7"/>
<circle cx="305.0" cy="434.2" r="2.6" fill="#3fb950" opacity="0.7"/>
<circle cx="319.5" cy="439.2" r="2.6" fill="#3fb950" opacity="0.7"/>
<circle cx="334.0" cy="438.7" r="2.6" fill="#3fb950" opacity="0.7"/>
<circle cx="348.6" cy="433.4" r="2.6" fill="#3fb950" opacity="0.7"/>
<circle cx="363.1" cy="439.6" r="2.6" fill="#3fb950" opacity="0.7"/>
<circle cx="377.6" cy="435.1" r="2.6" fill="#3fb950" opacity="0.7"/>
<circle cx="392.1" cy="432.1" r="2.6" fill="#3fb950" opacity="0.7"/>
<circle cx="406.7" cy="435.3" r="2.6" fill="#3fb950" opacity="0.7"/>
<circle cx="421.2" cy="432.8" r="2.6" fill="#3fb950" opacity="0.7"/>
<circle cx="435.7" cy="436.7" r="2.6" fill="#3fb950" opacity="0.7"/>
<circle cx="450.2" cy="434.3" r="2.6" fill="#3fb950" opacity="0.7"/>
<circle cx="464.8" cy="435.9" r="2.6" fill="#3fb950" opacity="0.7"/>
<circle cx="479.3" cy="434.2" r="2.6" fill="#3fb950" opacity="0.7"/>
<circle cx="493.8" cy="434.1" r="2.6" fill="#3fb950" opacity="0.7"/>
<circle cx="508.3" cy="432.3" r="2.6" fill="#3fb950" opacity="0.7"/>
<circle cx="522.9" cy="433.7" r="2.6" fill="#3fb950" opacity="0.7"/>
<circle cx="537.4" cy="430.7" r="2.6" fill="#3fb950" opacity="0.7"/>
<circle cx="551.9" cy="440.2" r="2.6" fill="#3fb950" opacity="0.7"/>
<circle cx="566.4" cy="440.0" r="2.6" fill="#3fb950" opacity="0.7"/>
<circle cx="581.0" cy="432.4" r="2.6" fill="#3fb950" opacity="0.7"/>
<circle cx="595.5" cy="436.2" r="2.6" fill="#3fb950" opacity="0.7"/>
<circle cx="610.0" cy="434.8" r="2.6" fill="#3fb950" opacity="0.7"/>
<circle cx="624.5" cy="432.4" r="2.6" fill="#3fb950" opacity="0.7"/>
<circle cx="639.1" cy="433.5" r="2.6" fill="#3fb950" opacity="0.7"/>
<circle cx="653.6" cy="441.5" r="2.6" fill="#3fb950" opacity="0.7"/>
<circle cx="668.1" cy="432.3" r="2.6" fill="#3fb950" opacity="0.7"/>
<circle cx="682.6" cy="433.7" r="2.6" fill="#3fb950" opacity="0.7"/>
<circle cx="697.1" cy="431.6" r="2.6" fill="#3fb950" opacity="0.7"/>
<circle cx="711.7" cy="437.3" r="2.6" fill="#3fb950" opacity="0.7"/>
<circle cx="726.2" cy="437.2" r="2.6" fill="#3fb950" opacity="0.7"/>
<circle cx="740.7" cy="434.3" r="2.6" fill="#3fb950" opacity="0.7"/>
<circle cx="755.2" cy="436.1" r="2.6" fill="#3fb950" opacity="0.7"/>
<circle cx="769.8" cy="439.3" r="2.6" fill="#3fb950" opacity="0.7"/>
<circle cx="784.3" cy="442.0" r="2.6" fill="#3fb950" opacity="0.7"/>
<circle cx="97.7" cy="366.0" r="3.2" fill="#ff922b" opacity="0.85"/>
<circle cx="112.2" cy="389.9" r="3.2" fill="#ff922b" opacity="0.85"/>
<circle cx="126.8" cy="360.5" r="3.2" fill="#ff922b" opacity="0.85"/>
<circle cx="141.3" cy="388.6" r="3.2" fill="#ff922b" opacity="0.85"/>
<circle cx="155.8" cy="368.1" r="3.2" fill="#ff922b" opacity="0.85"/>
<circle cx="170.3" cy="358.0" r="3.2" fill="#ff922b" opacity="0.85"/>
<circle cx="184.9" cy="358.8" r="3.2" fill="#ff922b" opacity="0.85"/>
<circle cx="199.4" cy="362.4" r="3.2" fill="#ff922b" opacity="0.85"/>
<circle cx="213.9" cy="358.1" r="3.2" fill="#ff922b" opacity="0.85"/>
<circle cx="228.4" cy="361.4" r="3.2" fill="#ff922b" opacity="0.85"/>
<circle cx="242.9" cy="358.7" r="3.2" fill="#ff922b" opacity="0.85"/>
<circle cx="257.5" cy="367.7" r="3.2" fill="#ff922b" opacity="0.85"/>
<circle cx="272.0" cy="351.0" r="3.2" fill="#ff922b" opacity="0.85"/>
<circle cx="286.5" cy="348.8" r="3.2" fill="#ff922b" opacity="0.85"/>
<circle cx="301.0" cy="360.8" r="3.2" fill="#ff922b" opacity="0.85"/>
<circle cx="315.6" cy="381.2" r="3.2" fill="#ff922b" opacity="0.85"/>
<circle cx="330.1" cy="384.5" r="3.2" fill="#ff922b" opacity="0.85"/>
<circle cx="344.6" cy="359.0" r="3.2" fill="#ff922b" opacity="0.85"/>
<circle cx="359.1" cy="378.4" r="3.2" fill="#ff922b" opacity="0.85"/>
<circle cx="373.7" cy="370.7" r="3.2" fill="#ff922b" opacity="0.85"/>
<circle cx="388.2" cy="358.2" r="3.2" fill="#ff922b" opacity="0.85"/>
<circle cx="402.7" cy="352.0" r="3.2" fill="#ff922b" opacity="0.85"/>
<circle cx="417.2" cy="344.2" r="3.2" fill="#ff922b" opacity="0.85"/>
<circle cx="431.8" cy="350.5" r="3.2" fill="#ff922b" opacity="0.85"/>
<circle cx="446.3" cy="347.7" r="3.2" fill="#ff922b" opacity="0.85"/>
<circle cx="460.8" cy="348.4" r="3.2" fill="#ff922b" opacity="0.85"/>
<circle cx="475.3" cy="349.9" r="3.2" fill="#ff922b" opacity="0.85"/>
<circle cx="489.9" cy="347.8" r="3.2" fill="#ff922b" opacity="0.85"/>
<circle cx="504.4" cy="341.8" r="3.2" fill="#ff922b" opacity="0.85"/>
<circle cx="518.9" cy="345.3" r="3.2" fill="#ff922b" opacity="0.85"/>
<circle cx="533.4" cy="334.2" r="3.2" fill="#ff922b" opacity="0.85"/>
<circle cx="548.0" cy="363.1" r="3.2" fill="#ff922b" opacity="0.85"/>
<circle cx="562.5" cy="387.4" r="3.2" fill="#ff922b" opacity="0.85"/>
<circle cx="577.0" cy="357.9" r="3.2" fill="#ff922b" opacity="0.85"/>
<circle cx="591.5" cy="368.7" r="3.2" fill="#ff922b" opacity="0.85"/>
<circle cx="606.1" cy="358.0" r="3.2" fill="#ff922b" opacity="0.85"/>
<circle cx="620.6" cy="365.4" r="3.2" fill="#ff922b" opacity="0.85"/>
<circle cx="635.1" cy="368.5" r="3.2" fill="#ff922b" opacity="0.85"/>
<circle cx="649.6" cy="383.5" r="3.2" fill="#ff922b" opacity="0.85"/>
<circle cx="664.2" cy="367.2" r="3.2" fill="#ff922b" opacity="0.85"/>
<circle cx="678.7" cy="361.1" r="3.2" fill="#ff922b" opacity="0.85"/>
<circle cx="693.2" cy="362.8" r="3.2" fill="#ff922b" opacity="0.85"/>
<circle cx="707.7" cy="377.6" r="3.2" fill="#ff922b" opacity="0.85"/>
<circle cx="722.2" cy="379.0" r="3.2" fill="#ff922b" opacity="0.85"/>
<circle cx="736.8" cy="339.3" r="3.2" fill="#ff922b" opacity="0.85"/>
<circle cx="751.3" cy="339.1" r="3.2" fill="#ff922b" opacity="0.85"/>
<circle cx="765.8" cy="390.3" r="3.2" fill="#ff922b" opacity="0.85"/>
<circle cx="780.3" cy="391.2" r="3.2" fill="#ff922b" opacity="0.85"/>
<circle cx="847" cy="84" r="5" fill="#ff922b"/>
<text x="866" y="88" font-size="13" fill="#c9d1d9" font-weight="700">Kāra</text>
<line x1="836" y1="108" x2="858" y2="108" stroke="#a7b0bc" stroke-width="2" stroke-dasharray="5 4"/>
<text x="866" y="112" font-size="13" fill="#c9d1d9" font-weight="400">Rust = 1.0×</text>
<circle cx="847" cy="132" r="4" fill="#3fb950"/>
<text x="866" y="136" font-size="13" fill="#c9d1d9" font-weight="400">C</text>
<text x="70" y="538" font-size="11.5" fill="#8b949e">Each dot is one benchmarked program (kata × approach); there is no connecting line because left-to-right order is not meaningful. Raw numbers: bench-results.json</text>
</svg>