<svg xmlns="http://www.w3.org/2000/svg" width="980" height="560" viewBox="0 0 980 560" font-family="-apple-system,Segoe UI,Helvetica,Arial,sans-serif">
<rect width="980" height="560" fill="#282c34"/>
<text x="70" y="34" font-size="21" font-weight="700" fill="#c9d1d9">Compile time (cold)</text>
<text x="70" y="56" font-size="13" fill="#8b949e">relative to Rust = 1.0 · lower = faster · 115 programs</text>
<line x1="70" y1="456.0" x2="812" y2="456.0" stroke="#3b414b" stroke-width="1"/>
<text x="60" y="460.0" font-size="12" text-anchor="end" fill="#8b949e">0.0×</text>
<line x1="70" y1="330.0" x2="812" y2="330.0" stroke="#3b414b" stroke-width="1"/>
<text x="60" y="334.0" font-size="12" text-anchor="end" fill="#8b949e">0.5×</text>
<line x1="70" y1="204.0" x2="812" y2="204.0" stroke="#a7b0bc" stroke-width="2" stroke-dasharray="5 4"/>
<text x="60" y="208.0" font-size="12" text-anchor="end" fill="#aeb6c0" font-weight="700">1.0×</text>
<line x1="70" y1="78.0" x2="812" y2="78.0" stroke="#3b414b" stroke-width="1"/>
<text x="60" y="82.0" font-size="12" text-anchor="end" fill="#8b949e">1.5×</text>
<text x="812" y="198.0" font-size="11" text-anchor="end" fill="#aeb6c0">Rust baseline</text>
<line x1="70" y1="456" x2="812" y2="456" stroke="#3b414b"/>
<text x="441.0" y="478" font-size="11" text-anchor="middle" fill="#8b949e">115 programs (kata × approach) — x-order carries no meaning</text>
<circle cx="100.5" cy="315.0" r="2.6" fill="#3fb950" opacity="0.7"/>
<circle cx="106.5" cy="356.9" r="2.6" fill="#3fb950" opacity="0.7"/>
<circle cx="112.5" cy="353.5" r="2.6" fill="#3fb950" opacity="0.7"/>
<circle cx="118.5" cy="361.9" r="2.6" fill="#3fb950" opacity="0.7"/>
<circle cx="124.4" cy="337.9" r="2.6" fill="#3fb950" opacity="0.7"/>
<circle cx="130.4" cy="349.8" r="2.6" fill="#3fb950" opacity="0.7"/>
<circle cx="136.4" cy="362.0" r="2.6" fill="#3fb950" opacity="0.7"/>
<circle cx="142.4" cy="331.0" r="2.6" fill="#3fb950" opacity="0.7"/>
<circle cx="148.4" cy="332.2" r="2.6" fill="#3fb950" opacity="0.7"/>
<circle cx="154.4" cy="329.4" r="2.6" fill="#3fb950" opacity="0.7"/>
<circle cx="160.4" cy="331.8" r="2.6" fill="#3fb950" opacity="0.7"/>
<circle cx="166.4" cy="332.6" r="2.6" fill="#3fb950" opacity="0.7"/>
<circle cx="172.4" cy="331.2" r="2.6" fill="#3fb950" opacity="0.7"/>
<circle cx="178.3" cy="333.4" r="2.6" fill="#3fb950" opacity="0.7"/>
<circle cx="184.3" cy="342.8" r="2.6" fill="#3fb950" opacity="0.7"/>
<circle cx="190.3" cy="354.9" r="2.6" fill="#3fb950" opacity="0.7"/>
<circle cx="196.3" cy="360.0" r="2.6" fill="#3fb950" opacity="0.7"/>
<circle cx="202.3" cy="346.4" r="2.6" fill="#3fb950" opacity="0.7"/>
<circle cx="208.3" cy="354.4" r="2.6" fill="#3fb950" opacity="0.7"/>
<circle cx="214.3" cy="352.3" r="2.6" fill="#3fb950" opacity="0.7"/>
<circle cx="220.3" cy="324.8" r="2.6" fill="#3fb950" opacity="0.7"/>
<circle cx="226.2" cy="357.2" r="2.6" fill="#3fb950" opacity="0.7"/>
<circle cx="232.2" cy="334.3" r="2.6" fill="#3fb950" opacity="0.7"/>
<circle cx="238.2" cy="361.8" r="2.6" fill="#3fb950" opacity="0.7"/>
<circle cx="244.2" cy="353.3" r="2.6" fill="#3fb950" opacity="0.7"/>
<circle cx="250.2" cy="361.3" r="2.6" fill="#3fb950" opacity="0.7"/>
<circle cx="256.2" cy="333.6" r="2.6" fill="#3fb950" opacity="0.7"/>
<circle cx="262.2" cy="333.5" r="2.6" fill="#3fb950" opacity="0.7"/>
<circle cx="268.2" cy="325.5" r="2.6" fill="#3fb950" opacity="0.7"/>
<circle cx="274.1" cy="334.1" r="2.6" fill="#3fb950" opacity="0.7"/>
<circle cx="280.1" cy="320.0" r="2.6" fill="#3fb950" opacity="0.7"/>
<circle cx="286.1" cy="383.0" r="2.6" fill="#3fb950" opacity="0.7"/>
<circle cx="292.1" cy="326.9" r="2.6" fill="#3fb950" opacity="0.7"/>
<circle cx="298.1" cy="333.2" r="2.6" fill="#3fb950" opacity="0.7"/>
<circle cx="304.1" cy="326.8" r="2.6" fill="#3fb950" opacity="0.7"/>
<circle cx="310.1" cy="330.4" r="2.6" fill="#3fb950" opacity="0.7"/>
<circle cx="316.1" cy="330.7" r="2.6" fill="#3fb950" opacity="0.7"/>
<circle cx="322.1" cy="320.5" r="2.6" fill="#3fb950" opacity="0.7"/>
<circle cx="328.0" cy="325.7" r="2.6" fill="#3fb950" opacity="0.7"/>
<circle cx="334.0" cy="328.6" r="2.6" fill="#3fb950" opacity="0.7"/>
<circle cx="340.0" cy="328.3" r="2.6" fill="#3fb950" opacity="0.7"/>
<circle cx="346.0" cy="344.1" r="2.6" fill="#3fb950" opacity="0.7"/>
<circle cx="352.0" cy="321.5" r="2.6" fill="#3fb950" opacity="0.7"/>
<circle cx="358.0" cy="325.8" r="2.6" fill="#3fb950" opacity="0.7"/>
<circle cx="364.0" cy="341.0" r="2.6" fill="#3fb950" opacity="0.7"/>
<circle cx="370.0" cy="344.0" r="2.6" fill="#3fb950" opacity="0.7"/>
<circle cx="375.9" cy="333.3" r="2.6" fill="#3fb950" opacity="0.7"/>
<circle cx="381.9" cy="337.2" r="2.6" fill="#3fb950" opacity="0.7"/>
<circle cx="387.9" cy="364.4" r="2.6" fill="#3fb950" opacity="0.7"/>
<circle cx="393.9" cy="281.1" r="2.6" fill="#3fb950" opacity="0.7"/>
<circle cx="399.9" cy="352.0" r="2.6" fill="#3fb950" opacity="0.7"/>
<circle cx="405.9" cy="317.7" r="2.6" fill="#3fb950" opacity="0.7"/>
<circle cx="411.9" cy="320.1" r="2.6" fill="#3fb950" opacity="0.7"/>
<circle cx="417.9" cy="319.5" r="2.6" fill="#3fb950" opacity="0.7"/>
<circle cx="423.8" cy="180.7" r="2.6" fill="#3fb950" opacity="0.7"/>
<circle cx="429.8" cy="316.2" r="2.6" fill="#3fb950" opacity="0.7"/>
<circle cx="435.8" cy="324.5" r="2.6" fill="#3fb950" opacity="0.7"/>
<circle cx="441.8" cy="360.4" r="2.6" fill="#3fb950" opacity="0.7"/>
<circle cx="447.8" cy="359.0" r="2.6" fill="#3fb950" opacity="0.7"/>
<circle cx="453.8" cy="338.5" r="2.6" fill="#3fb950" opacity="0.7"/>
<circle cx="459.8" cy="340.9" r="2.6" fill="#3fb950" opacity="0.7"/>
<circle cx="465.8" cy="365.5" r="2.6" fill="#3fb950" opacity="0.7"/>
<circle cx="471.8" cy="332.1" r="2.6" fill="#3fb950" opacity="0.7"/>
<circle cx="477.7" cy="327.4" r="2.6" fill="#3fb950" opacity="0.7"/>
<circle cx="483.7" cy="330.3" r="2.6" fill="#3fb950" opacity="0.7"/>
<circle cx="489.7" cy="330.5" r="2.6" fill="#3fb950" opacity="0.7"/>
<circle cx="495.7" cy="319.8" r="2.6" fill="#3fb950" opacity="0.7"/>
<circle cx="501.7" cy="318.2" r="2.6" fill="#3fb950" opacity="0.7"/>
<circle cx="507.7" cy="323.1" r="2.6" fill="#3fb950" opacity="0.7"/>
<circle cx="513.7" cy="329.5" r="2.6" fill="#3fb950" opacity="0.7"/>
<circle cx="519.7" cy="366.0" r="2.6" fill="#3fb950" opacity="0.7"/>
<circle cx="525.6" cy="330.9" r="2.6" fill="#3fb950" opacity="0.7"/>
<circle cx="531.6" cy="246.1" r="2.6" fill="#3fb950" opacity="0.7"/>
<circle cx="537.6" cy="326.3" r="2.6" fill="#3fb950" opacity="0.7"/>
<circle cx="543.6" cy="329.0" r="2.6" fill="#3fb950" opacity="0.7"/>
<circle cx="549.6" cy="330.4" r="2.6" fill="#3fb950" opacity="0.7"/>
<circle cx="555.6" cy="335.7" r="2.6" fill="#3fb950" opacity="0.7"/>
<circle cx="561.6" cy="347.1" r="2.6" fill="#3fb950" opacity="0.7"/>
<circle cx="567.6" cy="341.7" r="2.6" fill="#3fb950" opacity="0.7"/>
<circle cx="573.6" cy="331.0" r="2.6" fill="#3fb950" opacity="0.7"/>
<circle cx="579.5" cy="328.7" r="2.6" fill="#3fb950" opacity="0.7"/>
<circle cx="585.5" cy="360.5" r="2.6" fill="#3fb950" opacity="0.7"/>
<circle cx="591.5" cy="352.5" r="2.6" fill="#3fb950" opacity="0.7"/>
<circle cx="597.5" cy="330.2" r="2.6" fill="#3fb950" opacity="0.7"/>
<circle cx="603.5" cy="357.3" r="2.6" fill="#3fb950" opacity="0.7"/>
<circle cx="609.5" cy="334.3" r="2.6" fill="#3fb950" opacity="0.7"/>
<circle cx="615.5" cy="335.3" r="2.6" fill="#3fb950" opacity="0.7"/>
<circle cx="621.5" cy="321.7" r="2.6" fill="#3fb950" opacity="0.7"/>
<circle cx="627.4" cy="338.8" r="2.6" fill="#3fb950" opacity="0.7"/>
<circle cx="633.4" cy="329.1" r="2.6" fill="#3fb950" opacity="0.7"/>
<circle cx="639.4" cy="356.5" r="2.6" fill="#3fb950" opacity="0.7"/>
<circle cx="645.4" cy="313.3" r="2.6" fill="#3fb950" opacity="0.7"/>
<circle cx="651.4" cy="323.3" r="2.6" fill="#3fb950" opacity="0.7"/>
<circle cx="657.4" cy="343.8" r="2.6" fill="#3fb950" opacity="0.7"/>
<circle cx="663.4" cy="330.1" r="2.6" fill="#3fb950" opacity="0.7"/>
<circle cx="669.4" cy="341.5" r="2.6" fill="#3fb950" opacity="0.7"/>
<circle cx="675.3" cy="321.1" r="2.6" fill="#3fb950" opacity="0.7"/>
<circle cx="681.3" cy="354.1" r="2.6" fill="#3fb950" opacity="0.7"/>
<circle cx="687.3" cy="341.9" r="2.6" fill="#3fb950" opacity="0.7"/>
<circle cx="693.3" cy="326.7" r="2.6" fill="#3fb950" opacity="0.7"/>
<circle cx="699.3" cy="336.2" r="2.6" fill="#3fb950" opacity="0.7"/>
<circle cx="705.3" cy="332.2" r="2.6" fill="#3fb950" opacity="0.7"/>
<circle cx="711.3" cy="370.4" r="2.6" fill="#3fb950" opacity="0.7"/>
<circle cx="717.3" cy="329.1" r="2.6" fill="#3fb950" opacity="0.7"/>
<circle cx="723.3" cy="328.6" r="2.6" fill="#3fb950" opacity="0.7"/>
<circle cx="729.2" cy="350.8" r="2.6" fill="#3fb950" opacity="0.7"/>
<circle cx="735.2" cy="335.2" r="2.6" fill="#3fb950" opacity="0.7"/>
<circle cx="741.2" cy="365.5" r="2.6" fill="#3fb950" opacity="0.7"/>
<circle cx="747.2" cy="369.3" r="2.6" fill="#3fb950" opacity="0.7"/>
<circle cx="753.2" cy="346.0" r="2.6" fill="#3fb950" opacity="0.7"/>
<circle cx="759.2" cy="333.6" r="2.6" fill="#3fb950" opacity="0.7"/>
<circle cx="765.2" cy="336.0" r="2.6" fill="#3fb950" opacity="0.7"/>
<circle cx="771.2" cy="346.6" r="2.6" fill="#3fb950" opacity="0.7"/>
<circle cx="777.1" cy="366.3" r="2.6" fill="#3fb950" opacity="0.7"/>
<circle cx="783.1" cy="366.7" r="2.6" fill="#3fb950" opacity="0.7"/>
<circle cx="98.9" cy="221.7" r="3.2" fill="#ff922b" opacity="0.85"/>
<circle cx="104.9" cy="294.4" r="3.2" fill="#ff922b" opacity="0.85"/>
<circle cx="110.8" cy="289.1" r="3.2" fill="#ff922b" opacity="0.85"/>
<circle cx="116.8" cy="308.1" r="3.2" fill="#ff922b" opacity="0.85"/>
<circle cx="122.8" cy="258.4" r="3.2" fill="#ff922b" opacity="0.85"/>
<circle cx="128.8" cy="277.4" r="3.2" fill="#ff922b" opacity="0.85"/>
<circle cx="134.8" cy="293.8" r="3.2" fill="#ff922b" opacity="0.85"/>
<circle cx="140.8" cy="253.7" r="3.2" fill="#ff922b" opacity="0.85"/>
<circle cx="146.8" cy="239.7" r="3.2" fill="#ff922b" opacity="0.85"/>
<circle cx="152.8" cy="252.9" r="3.2" fill="#ff922b" opacity="0.85"/>
<circle cx="158.7" cy="235.2" r="3.2" fill="#ff922b" opacity="0.85"/>
<circle cx="164.7" cy="259.9" r="3.2" fill="#ff922b" opacity="0.85"/>
<circle cx="170.7" cy="252.1" r="3.2" fill="#ff922b" opacity="0.85"/>
<circle cx="176.7" cy="248.8" r="3.2" fill="#ff922b" opacity="0.85"/>
<circle cx="182.7" cy="276.3" r="3.2" fill="#ff922b" opacity="0.85"/>
<circle cx="188.7" cy="285.5" r="3.2" fill="#ff922b" opacity="0.85"/>
<circle cx="194.7" cy="296.9" r="3.2" fill="#ff922b" opacity="0.85"/>
<circle cx="200.7" cy="264.3" r="3.2" fill="#ff922b" opacity="0.85"/>
<circle cx="206.7" cy="271.4" r="3.2" fill="#ff922b" opacity="0.85"/>
<circle cx="212.6" cy="274.6" r="3.2" fill="#ff922b" opacity="0.85"/>
<circle cx="218.6" cy="249.4" r="3.2" fill="#ff922b" opacity="0.85"/>
<circle cx="224.6" cy="270.7" r="3.2" fill="#ff922b" opacity="0.85"/>
<circle cx="230.6" cy="258.2" r="3.2" fill="#ff922b" opacity="0.85"/>
<circle cx="236.6" cy="283.1" r="3.2" fill="#ff922b" opacity="0.85"/>
<circle cx="242.6" cy="273.2" r="3.2" fill="#ff922b" opacity="0.85"/>
<circle cx="248.6" cy="279.2" r="3.2" fill="#ff922b" opacity="0.85"/>
<circle cx="254.6" cy="272.8" r="3.2" fill="#ff922b" opacity="0.85"/>
<circle cx="260.5" cy="266.9" r="3.2" fill="#ff922b" opacity="0.85"/>
<circle cx="266.5" cy="235.8" r="3.2" fill="#ff922b" opacity="0.85"/>
<circle cx="272.5" cy="258.6" r="3.2" fill="#ff922b" opacity="0.85"/>
<circle cx="278.5" cy="231.2" r="3.2" fill="#ff922b" opacity="0.85"/>
<circle cx="284.5" cy="344.8" r="3.2" fill="#ff922b" opacity="0.85"/>
<circle cx="290.5" cy="245.1" r="3.2" fill="#ff922b" opacity="0.85"/>
<circle cx="296.5" cy="250.3" r="3.2" fill="#ff922b" opacity="0.85"/>
<circle cx="302.5" cy="250.7" r="3.2" fill="#ff922b" opacity="0.85"/>
<circle cx="308.4" cy="256.7" r="3.2" fill="#ff922b" opacity="0.85"/>
<circle cx="314.4" cy="254.8" r="3.2" fill="#ff922b" opacity="0.85"/>
<circle cx="320.4" cy="156.8" r="3.2" fill="#ff922b" opacity="0.85"/>
<circle cx="326.4" cy="212.9" r="3.2" fill="#ff922b" opacity="0.85"/>
<circle cx="332.4" cy="253.4" r="3.2" fill="#ff922b" opacity="0.85"/>
<circle cx="338.4" cy="248.6" r="3.2" fill="#ff922b" opacity="0.85"/>
<circle cx="344.4" cy="270.6" r="3.2" fill="#ff922b" opacity="0.85"/>
<circle cx="350.4" cy="240.8" r="3.2" fill="#ff922b" opacity="0.85"/>
<circle cx="356.4" cy="255.3" r="3.2" fill="#ff922b" opacity="0.85"/>
<circle cx="362.3" cy="265.7" r="3.2" fill="#ff922b" opacity="0.85"/>
<circle cx="368.3" cy="270.9" r="3.2" fill="#ff922b" opacity="0.85"/>
<circle cx="374.3" cy="235.5" r="3.2" fill="#ff922b" opacity="0.85"/>
<circle cx="380.3" cy="266.7" r="3.2" fill="#ff922b" opacity="0.85"/>
<circle cx="386.3" cy="298.2" r="3.2" fill="#ff922b" opacity="0.85"/>
<circle cx="392.3" cy="289.4" r="3.2" fill="#ff922b" opacity="0.85"/>
<circle cx="398.3" cy="318.7" r="3.2" fill="#ff922b" opacity="0.85"/>
<circle cx="404.3" cy="196.6" r="3.2" fill="#ff922b" opacity="0.85"/>
<circle cx="410.2" cy="192.8" r="3.2" fill="#ff922b" opacity="0.85"/>
<circle cx="416.2" cy="194.7" r="3.2" fill="#ff922b" opacity="0.85"/>
<circle cx="422.2" cy="203.1" r="3.2" fill="#ff922b" opacity="0.85"/>
<circle cx="428.2" cy="201.3" r="3.2" fill="#ff922b" opacity="0.85"/>
<circle cx="434.2" cy="223.1" r="3.2" fill="#ff922b" opacity="0.85"/>
<circle cx="440.2" cy="303.9" r="3.2" fill="#ff922b" opacity="0.85"/>
<circle cx="446.2" cy="267.5" r="3.2" fill="#ff922b" opacity="0.85"/>
<circle cx="452.2" cy="251.8" r="3.2" fill="#ff922b" opacity="0.85"/>
<circle cx="458.2" cy="231.3" r="3.2" fill="#ff922b" opacity="0.85"/>
<circle cx="464.1" cy="189.9" r="3.2" fill="#ff922b" opacity="0.85"/>
<circle cx="470.1" cy="210.5" r="3.2" fill="#ff922b" opacity="0.85"/>
<circle cx="476.1" cy="204.3" r="3.2" fill="#ff922b" opacity="0.85"/>
<circle cx="482.1" cy="211.0" r="3.2" fill="#ff922b" opacity="0.85"/>
<circle cx="488.1" cy="239.0" r="3.2" fill="#ff922b" opacity="0.85"/>
<circle cx="494.1" cy="168.4" r="3.2" fill="#ff922b" opacity="0.85"/>
<circle cx="500.1" cy="149.6" r="3.2" fill="#ff922b" opacity="0.85"/>
<circle cx="506.1" cy="172.8" r="3.2" fill="#ff922b" opacity="0.85"/>
<circle cx="512.0" cy="173.8" r="3.2" fill="#ff922b" opacity="0.85"/>
<circle cx="518.0" cy="283.0" r="3.2" fill="#ff922b" opacity="0.85"/>
<circle cx="524.0" cy="221.1" r="3.2" fill="#ff922b" opacity="0.85"/>
<circle cx="530.0" cy="242.6" r="3.2" fill="#ff922b" opacity="0.85"/>
<circle cx="536.0" cy="209.0" r="3.2" fill="#ff922b" opacity="0.85"/>
<circle cx="542.0" cy="193.9" r="3.2" fill="#ff922b" opacity="0.85"/>
<circle cx="548.0" cy="191.7" r="3.2" fill="#ff922b" opacity="0.85"/>
<circle cx="554.0" cy="197.4" r="3.2" fill="#ff922b" opacity="0.85"/>
<circle cx="559.9" cy="226.6" r="3.2" fill="#ff922b" opacity="0.85"/>
<circle cx="565.9" cy="219.4" r="3.2" fill="#ff922b" opacity="0.85"/>
<circle cx="571.9" cy="196.7" r="3.2" fill="#ff922b" opacity="0.85"/>
<circle cx="577.9" cy="207.8" r="3.2" fill="#ff922b" opacity="0.85"/>
<circle cx="583.9" cy="235.3" r="3.2" fill="#ff922b" opacity="0.85"/>
<circle cx="589.9" cy="237.3" r="3.2" fill="#ff922b" opacity="0.85"/>
<circle cx="595.9" cy="197.3" r="3.2" fill="#ff922b" opacity="0.85"/>
<circle cx="601.9" cy="233.2" r="3.2" fill="#ff922b" opacity="0.85"/>
<circle cx="607.9" cy="208.5" r="3.2" fill="#ff922b" opacity="0.85"/>
<circle cx="613.8" cy="270.9" r="3.2" fill="#ff922b" opacity="0.85"/>
<circle cx="619.8" cy="175.4" r="3.2" fill="#ff922b" opacity="0.85"/>
<circle cx="625.8" cy="212.3" r="3.2" fill="#ff922b" opacity="0.85"/>
<circle cx="631.8" cy="244.3" r="3.2" fill="#ff922b" opacity="0.85"/>
<circle cx="637.8" cy="240.4" r="3.2" fill="#ff922b" opacity="0.85"/>
<circle cx="643.8" cy="198.5" r="3.2" fill="#ff922b" opacity="0.85"/>
<circle cx="649.8" cy="183.2" r="3.2" fill="#ff922b" opacity="0.85"/>
<circle cx="655.8" cy="208.3" r="3.2" fill="#ff922b" opacity="0.85"/>
<circle cx="661.7" cy="201.2" r="3.2" fill="#ff922b" opacity="0.85"/>
<circle cx="667.7" cy="195.7" r="3.2" fill="#ff922b" opacity="0.85"/>
<circle cx="673.7" cy="197.4" r="3.2" fill="#ff922b" opacity="0.85"/>
<circle cx="679.7" cy="235.6" r="3.2" fill="#ff922b" opacity="0.85"/>
<circle cx="685.7" cy="165.3" r="3.2" fill="#ff922b" opacity="0.85"/>
<circle cx="691.7" cy="175.9" r="3.2" fill="#ff922b" opacity="0.85"/>
<circle cx="697.7" cy="267.1" r="3.2" fill="#ff922b" opacity="0.85"/>
<circle cx="703.7" cy="250.5" r="3.2" fill="#ff922b" opacity="0.85"/>
<circle cx="709.6" cy="325.9" r="3.2" fill="#ff922b" opacity="0.85"/>
<circle cx="715.6" cy="251.9" r="3.2" fill="#ff922b" opacity="0.85"/>
<circle cx="721.6" cy="263.9" r="3.2" fill="#ff922b" opacity="0.85"/>
<circle cx="727.6" cy="284.8" r="3.2" fill="#ff922b" opacity="0.85"/>
<circle cx="733.6" cy="260.3" r="3.2" fill="#ff922b" opacity="0.85"/>
<circle cx="739.6" cy="304.3" r="3.2" fill="#ff922b" opacity="0.85"/>
<circle cx="745.6" cy="303.9" r="3.2" fill="#ff922b" opacity="0.85"/>
<circle cx="751.6" cy="264.7" r="3.2" fill="#ff922b" opacity="0.85"/>
<circle cx="757.6" cy="269.4" r="3.2" fill="#ff922b" opacity="0.85"/>
<circle cx="763.5" cy="259.4" r="3.2" fill="#ff922b" opacity="0.85"/>
<circle cx="769.5" cy="256.4" r="3.2" fill="#ff922b" opacity="0.85"/>
<circle cx="775.5" cy="313.0" r="3.2" fill="#ff922b" opacity="0.85"/>
<circle cx="781.5" cy="311.6" r="3.2" fill="#ff922b" opacity="0.85"/>
<circle cx="847" cy="84" r="5" fill="#ff922b"/>
<text x="866" y="88" font-size="13" fill="#c9d1d9" font-weight="700">Kāra</text>
<line x1="836" y1="108" x2="858" y2="108" stroke="#a7b0bc" stroke-width="2" stroke-dasharray="5 4"/>
<text x="866" y="112" font-size="13" fill="#c9d1d9" font-weight="400">Rust = 1.0×</text>
<circle cx="847" cy="132" r="4" fill="#3fb950"/>
<text x="866" y="136" font-size="13" fill="#c9d1d9" font-weight="400">C</text>
<text x="70" y="538" font-size="11.5" fill="#8b949e">Each dot is one benchmarked program (kata × approach); there is no connecting line because left-to-right order is not meaningful. Raw numbers: bench-results.json</text>
</svg>