<svg xmlns="http://www.w3.org/2000/svg" width="980" height="560" viewBox="0 0 980 560" font-family="-apple-system,Segoe UI,Helvetica,Arial,sans-serif">
<rect width="980" height="560" fill="#282c34"/>
<text x="70" y="34" font-size="21" font-weight="700" fill="#c9d1d9">Compile time (cold)</text>
<text x="70" y="56" font-size="13" fill="#8b949e">relative to Rust = 1.0 · lower = faster · 52 programs</text>
<line x1="70" y1="456.0" x2="812" y2="456.0" stroke="#3b414b" stroke-width="1"/>
<text x="60" y="460.0" font-size="12" text-anchor="end" fill="#8b949e">0.0×</text>
<line x1="70" y1="444.2" x2="812" y2="444.2" stroke="#a7b0bc" stroke-width="2" stroke-dasharray="5 4"/>
<text x="60" y="448.2" font-size="12" text-anchor="end" fill="#aeb6c0" font-weight="700">1.0×</text>
<line x1="70" y1="380.4" x2="812" y2="380.4" stroke="#3b414b" stroke-width="1"/>
<text x="60" y="384.4" font-size="12" text-anchor="end" fill="#8b949e">6.4×</text>
<line x1="70" y1="304.8" x2="812" y2="304.8" stroke="#3b414b" stroke-width="1"/>
<text x="60" y="308.8" font-size="12" text-anchor="end" fill="#8b949e">12.8×</text>
<line x1="70" y1="229.2" x2="812" y2="229.2" stroke="#3b414b" stroke-width="1"/>
<text x="60" y="233.2" font-size="12" text-anchor="end" fill="#8b949e">19.2×</text>
<line x1="70" y1="153.6" x2="812" y2="153.6" stroke="#3b414b" stroke-width="1"/>
<text x="60" y="157.6" font-size="12" text-anchor="end" fill="#8b949e">25.6×</text>
<line x1="70" y1="78.0" x2="812" y2="78.0" stroke="#3b414b" stroke-width="1"/>
<text x="60" y="82.0" font-size="12" text-anchor="end" fill="#8b949e">32.0×</text>
<text x="812" y="438.2" font-size="11" text-anchor="end" fill="#aeb6c0">Rust baseline</text>
<line x1="70" y1="456" x2="812" y2="456" stroke="#3b414b"/>
<text x="441.0" y="478" font-size="11" text-anchor="middle" fill="#8b949e">52 programs (kata × approach) — x-order carries no meaning</text>
<circle cx="101.5" cy="449.4" r="2.6" fill="#3fb950" opacity="0.7"/>
<circle cx="114.9" cy="451.6" r="2.6" fill="#3fb950" opacity="0.7"/>
<circle cx="128.3" cy="450.8" r="2.6" fill="#3fb950" opacity="0.7"/>
<circle cx="141.7" cy="451.5" r="2.6" fill="#3fb950" opacity="0.7"/>
<circle cx="155.0" cy="450.3" r="2.6" fill="#3fb950" opacity="0.7"/>
<circle cx="168.4" cy="450.5" r="2.6" fill="#3fb950" opacity="0.7"/>
<circle cx="181.8" cy="451.1" r="2.6" fill="#3fb950" opacity="0.7"/>
<circle cx="195.2" cy="449.7" r="2.6" fill="#3fb950" opacity="0.7"/>
<circle cx="208.6" cy="449.6" r="2.6" fill="#3fb950" opacity="0.7"/>
<circle cx="222.0" cy="449.7" r="2.6" fill="#3fb950" opacity="0.7"/>
<circle cx="235.3" cy="450.1" r="2.6" fill="#3fb950" opacity="0.7"/>
<circle cx="248.7" cy="449.7" r="2.6" fill="#3fb950" opacity="0.7"/>
<circle cx="262.1" cy="449.6" r="2.6" fill="#3fb950" opacity="0.7"/>
<circle cx="275.5" cy="449.8" r="2.6" fill="#3fb950" opacity="0.7"/>
<circle cx="288.9" cy="450.6" r="2.6" fill="#3fb950" opacity="0.7"/>
<circle cx="302.3" cy="451.0" r="2.6" fill="#3fb950" opacity="0.7"/>
<circle cx="315.7" cy="451.2" r="2.6" fill="#3fb950" opacity="0.7"/>
<circle cx="329.0" cy="450.3" r="2.6" fill="#3fb950" opacity="0.7"/>
<circle cx="342.4" cy="450.9" r="2.6" fill="#3fb950" opacity="0.7"/>
<circle cx="355.8" cy="450.7" r="2.6" fill="#3fb950" opacity="0.7"/>
<circle cx="369.2" cy="449.0" r="2.6" fill="#3fb950" opacity="0.7"/>
<circle cx="382.6" cy="451.1" r="2.6" fill="#3fb950" opacity="0.7"/>
<circle cx="396.0" cy="449.7" r="2.6" fill="#3fb950" opacity="0.7"/>
<circle cx="409.4" cy="451.3" r="2.6" fill="#3fb950" opacity="0.7"/>
<circle cx="422.7" cy="451.0" r="2.6" fill="#3fb950" opacity="0.7"/>
<circle cx="436.1" cy="451.4" r="2.6" fill="#3fb950" opacity="0.7"/>
<circle cx="449.5" cy="449.4" r="2.6" fill="#3fb950" opacity="0.7"/>
<circle cx="462.9" cy="449.8" r="2.6" fill="#3fb950" opacity="0.7"/>
<circle cx="476.3" cy="449.4" r="2.6" fill="#3fb950" opacity="0.7"/>
<circle cx="489.7" cy="450.1" r="2.6" fill="#3fb950" opacity="0.7"/>
<circle cx="503.1" cy="449.5" r="2.6" fill="#3fb950" opacity="0.7"/>
<circle cx="516.4" cy="452.6" r="2.6" fill="#3fb950" opacity="0.7"/>
<circle cx="529.8" cy="451.3" r="2.6" fill="#3fb950" opacity="0.7"/>
<circle cx="543.2" cy="449.2" r="2.6" fill="#3fb950" opacity="0.7"/>
<circle cx="556.6" cy="451.6" r="2.6" fill="#3fb950" opacity="0.7"/>
<circle cx="570.0" cy="449.6" r="2.6" fill="#3fb950" opacity="0.7"/>
<circle cx="583.4" cy="449.4" r="2.6" fill="#3fb950" opacity="0.7"/>
<circle cx="596.7" cy="449.7" r="2.6" fill="#3fb950" opacity="0.7"/>
<circle cx="610.1" cy="449.8" r="2.6" fill="#3fb950" opacity="0.7"/>
<circle cx="623.5" cy="451.6" r="2.6" fill="#3fb950" opacity="0.7"/>
<circle cx="636.9" cy="449.3" r="2.6" fill="#3fb950" opacity="0.7"/>
<circle cx="650.3" cy="449.5" r="2.6" fill="#3fb950" opacity="0.7"/>
<circle cx="663.7" cy="451.0" r="2.6" fill="#3fb950" opacity="0.7"/>
<circle cx="677.1" cy="450.3" r="2.6" fill="#3fb950" opacity="0.7"/>
<circle cx="690.4" cy="451.2" r="2.6" fill="#3fb950" opacity="0.7"/>
<circle cx="703.8" cy="451.8" r="2.6" fill="#3fb950" opacity="0.7"/>
<circle cx="717.2" cy="450.5" r="2.6" fill="#3fb950" opacity="0.7"/>
<circle cx="730.6" cy="450.3" r="2.6" fill="#3fb950" opacity="0.7"/>
<circle cx="744.0" cy="450.5" r="2.6" fill="#3fb950" opacity="0.7"/>
<circle cx="757.4" cy="451.0" r="2.6" fill="#3fb950" opacity="0.7"/>
<circle cx="770.8" cy="451.5" r="2.6" fill="#3fb950" opacity="0.7"/>
<circle cx="784.1" cy="451.6" r="2.6" fill="#3fb950" opacity="0.7"/>
<circle cx="97.9" cy="87.3" r="3.2" fill="#ff922b" opacity="0.85"/>
<circle cx="111.2" cy="448.6" r="3.2" fill="#ff922b" opacity="0.85"/>
<circle cx="124.6" cy="447.6" r="3.2" fill="#ff922b" opacity="0.85"/>
<circle cx="138.0" cy="449.4" r="3.2" fill="#ff922b" opacity="0.85"/>
<circle cx="151.4" cy="447.1" r="3.2" fill="#ff922b" opacity="0.85"/>
<circle cx="164.8" cy="446.9" r="3.2" fill="#ff922b" opacity="0.85"/>
<circle cx="178.2" cy="447.6" r="3.2" fill="#ff922b" opacity="0.85"/>
<circle cx="191.6" cy="446.3" r="3.2" fill="#ff922b" opacity="0.85"/>
<circle cx="204.9" cy="445.8" r="3.2" fill="#ff922b" opacity="0.85"/>
<circle cx="218.3" cy="446.4" r="3.2" fill="#ff922b" opacity="0.85"/>
<circle cx="231.7" cy="447.8" r="3.2" fill="#ff922b" opacity="0.85"/>
<circle cx="245.1" cy="446.6" r="3.2" fill="#ff922b" opacity="0.85"/>
<circle cx="258.5" cy="445.6" r="3.2" fill="#ff922b" opacity="0.85"/>
<circle cx="271.9" cy="445.7" r="3.2" fill="#ff922b" opacity="0.85"/>
<circle cx="285.3" cy="447.9" r="3.2" fill="#ff922b" opacity="0.85"/>
<circle cx="298.6" cy="448.4" r="3.2" fill="#ff922b" opacity="0.85"/>
<circle cx="312.0" cy="448.6" r="3.2" fill="#ff922b" opacity="0.85"/>
<circle cx="325.4" cy="446.5" r="3.2" fill="#ff922b" opacity="0.85"/>
<circle cx="338.8" cy="448.3" r="3.2" fill="#ff922b" opacity="0.85"/>
<circle cx="352.2" cy="447.0" r="3.2" fill="#ff922b" opacity="0.85"/>
<circle cx="365.6" cy="444.9" r="3.2" fill="#ff922b" opacity="0.85"/>
<circle cx="378.9" cy="446.7" r="3.2" fill="#ff922b" opacity="0.85"/>
<circle cx="392.3" cy="445.2" r="3.2" fill="#ff922b" opacity="0.85"/>
<circle cx="405.7" cy="447.6" r="3.2" fill="#ff922b" opacity="0.85"/>
<circle cx="419.1" cy="446.7" r="3.2" fill="#ff922b" opacity="0.85"/>
<circle cx="432.5" cy="447.2" r="3.2" fill="#ff922b" opacity="0.85"/>
<circle cx="445.9" cy="445.7" r="3.2" fill="#ff922b" opacity="0.85"/>
<circle cx="459.3" cy="446.2" r="3.2" fill="#ff922b" opacity="0.85"/>
<circle cx="472.6" cy="445.0" r="3.2" fill="#ff922b" opacity="0.85"/>
<circle cx="486.0" cy="445.7" r="3.2" fill="#ff922b" opacity="0.85"/>
<circle cx="499.4" cy="444.9" r="3.2" fill="#ff922b" opacity="0.85"/>
<circle cx="512.8" cy="450.7" r="3.2" fill="#ff922b" opacity="0.85"/>
<circle cx="526.2" cy="448.6" r="3.2" fill="#ff922b" opacity="0.85"/>
<circle cx="539.6" cy="444.7" r="3.2" fill="#ff922b" opacity="0.85"/>
<circle cx="553.0" cy="447.9" r="3.2" fill="#ff922b" opacity="0.85"/>
<circle cx="566.3" cy="446.4" r="3.2" fill="#ff922b" opacity="0.85"/>
<circle cx="579.7" cy="445.5" r="3.2" fill="#ff922b" opacity="0.85"/>
<circle cx="593.1" cy="446.1" r="3.2" fill="#ff922b" opacity="0.85"/>
<circle cx="606.5" cy="446.0" r="3.2" fill="#ff922b" opacity="0.85"/>
<circle cx="619.9" cy="449.7" r="3.2" fill="#ff922b" opacity="0.85"/>
<circle cx="633.3" cy="445.8" r="3.2" fill="#ff922b" opacity="0.85"/>
<circle cx="646.7" cy="446.4" r="3.2" fill="#ff922b" opacity="0.85"/>
<circle cx="660.0" cy="447.9" r="3.2" fill="#ff922b" opacity="0.85"/>
<circle cx="673.4" cy="446.1" r="3.2" fill="#ff922b" opacity="0.85"/>
<circle cx="686.8" cy="449.1" r="3.2" fill="#ff922b" opacity="0.85"/>
<circle cx="700.2" cy="449.1" r="3.2" fill="#ff922b" opacity="0.85"/>
<circle cx="713.6" cy="446.1" r="3.2" fill="#ff922b" opacity="0.85"/>
<circle cx="727.0" cy="447.3" r="3.2" fill="#ff922b" opacity="0.85"/>
<circle cx="740.3" cy="447.1" r="3.2" fill="#ff922b" opacity="0.85"/>
<circle cx="753.7" cy="446.8" r="3.2" fill="#ff922b" opacity="0.85"/>
<circle cx="767.1" cy="448.9" r="3.2" fill="#ff922b" opacity="0.85"/>
<circle cx="780.5" cy="449.4" r="3.2" fill="#ff922b" opacity="0.85"/>
<circle cx="847" cy="84" r="5" fill="#ff922b"/>
<text x="866" y="88" font-size="13" fill="#c9d1d9" font-weight="700">Kāra</text>
<line x1="836" y1="108" x2="858" y2="108" stroke="#a7b0bc" stroke-width="2" stroke-dasharray="5 4"/>
<text x="866" y="112" font-size="13" fill="#c9d1d9" font-weight="400">Rust = 1.0×</text>
<circle cx="847" cy="132" r="4" fill="#3fb950"/>
<text x="866" y="136" font-size="13" fill="#c9d1d9" font-weight="400">C</text>
<text x="70" y="538" font-size="11.5" fill="#8b949e">Each dot is one benchmarked program (kata × approach); there is no connecting line because left-to-right order is not meaningful. Raw numbers: bench-results.json</text>
</svg>