<svg xmlns="http://www.w3.org/2000/svg" width="980" height="560" viewBox="0 0 980 560" font-family="-apple-system,Segoe UI,Helvetica,Arial,sans-serif">
<rect width="980" height="560" fill="#282c34"/>
<text x="70" y="34" font-size="21" font-weight="700" fill="#c9d1d9">Compile time (cold)</text>
<text x="70" y="56" font-size="13" fill="#8b949e">relative to Rust = 1.0 · lower = faster · 48 programs</text>
<line x1="70" y1="456.0" x2="812" y2="456.0" stroke="#3b414b" stroke-width="1"/>
<text x="60" y="460.0" font-size="12" text-anchor="end" fill="#8b949e">0.0×</text>
<line x1="70" y1="330.0" x2="812" y2="330.0" stroke="#3b414b" stroke-width="1"/>
<text x="60" y="334.0" font-size="12" text-anchor="end" fill="#8b949e">0.5×</text>
<line x1="70" y1="204.0" x2="812" y2="204.0" stroke="#a7b0bc" stroke-width="2" stroke-dasharray="5 4"/>
<text x="60" y="208.0" font-size="12" text-anchor="end" fill="#aeb6c0" font-weight="700">1.0×</text>
<line x1="70" y1="78.0" x2="812" y2="78.0" stroke="#3b414b" stroke-width="1"/>
<text x="60" y="82.0" font-size="12" text-anchor="end" fill="#8b949e">1.5×</text>
<text x="812" y="198.0" font-size="11" text-anchor="end" fill="#aeb6c0">Rust baseline</text>
<line x1="70" y1="456" x2="812" y2="456" stroke="#3b414b"/>
<text x="441.0" y="478" font-size="11" text-anchor="middle" fill="#8b949e">48 programs (kata × approach) — x-order carries no meaning</text>
<circle cx="101.7" cy="312.9" r="2.6" fill="#3fb950" opacity="0.7"/>
<circle cx="116.2" cy="362.3" r="2.6" fill="#3fb950" opacity="0.7"/>
<circle cx="130.7" cy="344.1" r="2.6" fill="#3fb950" opacity="0.7"/>
<circle cx="145.2" cy="360.0" r="2.6" fill="#3fb950" opacity="0.7"/>
<circle cx="159.8" cy="333.9" r="2.6" fill="#3fb950" opacity="0.7"/>
<circle cx="174.3" cy="339.2" r="2.6" fill="#3fb950" opacity="0.7"/>
<circle cx="188.8" cy="350.6" r="2.6" fill="#3fb950" opacity="0.7"/>
<circle cx="203.3" cy="322.5" r="2.6" fill="#3fb950" opacity="0.7"/>
<circle cx="217.8" cy="320.0" r="2.6" fill="#3fb950" opacity="0.7"/>
<circle cx="232.4" cy="320.9" r="2.6" fill="#3fb950" opacity="0.7"/>
<circle cx="246.9" cy="330.9" r="2.6" fill="#3fb950" opacity="0.7"/>
<circle cx="261.4" cy="320.7" r="2.6" fill="#3fb950" opacity="0.7"/>
<circle cx="275.9" cy="320.4" r="2.6" fill="#3fb950" opacity="0.7"/>
<circle cx="290.5" cy="323.6" r="2.6" fill="#3fb950" opacity="0.7"/>
<circle cx="305.0" cy="341.5" r="2.6" fill="#3fb950" opacity="0.7"/>
<circle cx="319.5" cy="349.2" r="2.6" fill="#3fb950" opacity="0.7"/>
<circle cx="334.0" cy="353.7" r="2.6" fill="#3fb950" opacity="0.7"/>
<circle cx="348.6" cy="334.0" r="2.6" fill="#3fb950" opacity="0.7"/>
<circle cx="363.1" cy="347.9" r="2.6" fill="#3fb950" opacity="0.7"/>
<circle cx="377.6" cy="343.5" r="2.6" fill="#3fb950" opacity="0.7"/>
<circle cx="392.1" cy="307.2" r="2.6" fill="#3fb950" opacity="0.7"/>
<circle cx="406.7" cy="351.6" r="2.6" fill="#3fb950" opacity="0.7"/>
<circle cx="421.2" cy="320.9" r="2.6" fill="#3fb950" opacity="0.7"/>
<circle cx="435.7" cy="356.3" r="2.6" fill="#3fb950" opacity="0.7"/>
<circle cx="450.2" cy="348.3" r="2.6" fill="#3fb950" opacity="0.7"/>
<circle cx="464.8" cy="357.6" r="2.6" fill="#3fb950" opacity="0.7"/>
<circle cx="479.3" cy="314.6" r="2.6" fill="#3fb950" opacity="0.7"/>
<circle cx="493.8" cy="323.4" r="2.6" fill="#3fb950" opacity="0.7"/>
<circle cx="508.3" cy="315.6" r="2.6" fill="#3fb950" opacity="0.7"/>
<circle cx="522.9" cy="329.1" r="2.6" fill="#3fb950" opacity="0.7"/>
<circle cx="537.4" cy="316.4" r="2.6" fill="#3fb950" opacity="0.7"/>
<circle cx="551.9" cy="384.2" r="2.6" fill="#3fb950" opacity="0.7"/>
<circle cx="566.4" cy="354.7" r="2.6" fill="#3fb950" opacity="0.7"/>
<circle cx="581.0" cy="311.0" r="2.6" fill="#3fb950" opacity="0.7"/>
<circle cx="595.5" cy="363.0" r="2.6" fill="#3fb950" opacity="0.7"/>
<circle cx="610.0" cy="319.7" r="2.6" fill="#3fb950" opacity="0.7"/>
<circle cx="624.5" cy="315.3" r="2.6" fill="#3fb950" opacity="0.7"/>
<circle cx="639.1" cy="320.6" r="2.6" fill="#3fb950" opacity="0.7"/>
<circle cx="653.6" cy="361.6" r="2.6" fill="#3fb950" opacity="0.7"/>
<circle cx="668.1" cy="312.4" r="2.6" fill="#3fb950" opacity="0.7"/>
<circle cx="682.6" cy="316.7" r="2.6" fill="#3fb950" opacity="0.7"/>
<circle cx="697.1" cy="322.5" r="2.6" fill="#3fb950" opacity="0.7"/>
<circle cx="711.7" cy="353.6" r="2.6" fill="#3fb950" opacity="0.7"/>
<circle cx="726.2" cy="367.1" r="2.6" fill="#3fb950" opacity="0.7"/>
<circle cx="740.7" cy="338.4" r="2.6" fill="#3fb950" opacity="0.7"/>
<circle cx="755.2" cy="343.7" r="2.6" fill="#3fb950" opacity="0.7"/>
<circle cx="769.8" cy="359.8" r="2.6" fill="#3fb950" opacity="0.7"/>
<circle cx="784.3" cy="362.4" r="2.6" fill="#3fb950" opacity="0.7"/>
<circle cx="97.7" cy="266.5" r="3.2" fill="#ff922b" opacity="0.85"/>
<circle cx="112.2" cy="312.9" r="3.2" fill="#ff922b" opacity="0.85"/>
<circle cx="126.8" cy="277.1" r="3.2" fill="#ff922b" opacity="0.85"/>
<circle cx="141.3" cy="315.4" r="3.2" fill="#ff922b" opacity="0.85"/>
<circle cx="155.8" cy="265.9" r="3.2" fill="#ff922b" opacity="0.85"/>
<circle cx="170.3" cy="261.8" r="3.2" fill="#ff922b" opacity="0.85"/>
<circle cx="184.9" cy="276.2" r="3.2" fill="#ff922b" opacity="0.85"/>
<circle cx="199.4" cy="250.0" r="3.2" fill="#ff922b" opacity="0.85"/>
<circle cx="213.9" cy="238.4" r="3.2" fill="#ff922b" opacity="0.85"/>
<circle cx="228.4" cy="251.8" r="3.2" fill="#ff922b" opacity="0.85"/>
<circle cx="242.9" cy="280.5" r="3.2" fill="#ff922b" opacity="0.85"/>
<circle cx="257.5" cy="256.0" r="3.2" fill="#ff922b" opacity="0.85"/>
<circle cx="272.0" cy="234.7" r="3.2" fill="#ff922b" opacity="0.85"/>
<circle cx="286.5" cy="236.2" r="3.2" fill="#ff922b" opacity="0.85"/>
<circle cx="301.0" cy="282.4" r="3.2" fill="#ff922b" opacity="0.85"/>
<circle cx="315.6" cy="292.9" r="3.2" fill="#ff922b" opacity="0.85"/>
<circle cx="330.1" cy="298.0" r="3.2" fill="#ff922b" opacity="0.85"/>
<circle cx="344.6" cy="254.2" r="3.2" fill="#ff922b" opacity="0.85"/>
<circle cx="359.1" cy="290.9" r="3.2" fill="#ff922b" opacity="0.85"/>
<circle cx="373.7" cy="263.8" r="3.2" fill="#ff922b" opacity="0.85"/>
<circle cx="388.2" cy="219.7" r="3.2" fill="#ff922b" opacity="0.85"/>
<circle cx="402.7" cy="257.8" r="3.2" fill="#ff922b" opacity="0.85"/>
<circle cx="417.2" cy="226.4" r="3.2" fill="#ff922b" opacity="0.85"/>
<circle cx="431.8" cy="276.8" r="3.2" fill="#ff922b" opacity="0.85"/>
<circle cx="446.3" cy="258.2" r="3.2" fill="#ff922b" opacity="0.85"/>
<circle cx="460.8" cy="267.9" r="3.2" fill="#ff922b" opacity="0.85"/>
<circle cx="475.3" cy="236.2" r="3.2" fill="#ff922b" opacity="0.85"/>
<circle cx="489.9" cy="246.1" r="3.2" fill="#ff922b" opacity="0.85"/>
<circle cx="504.4" cy="221.6" r="3.2" fill="#ff922b" opacity="0.85"/>
<circle cx="518.9" cy="236.4" r="3.2" fill="#ff922b" opacity="0.85"/>
<circle cx="533.4" cy="218.6" r="3.2" fill="#ff922b" opacity="0.85"/>
<circle cx="548.0" cy="343.2" r="3.2" fill="#ff922b" opacity="0.85"/>
<circle cx="562.5" cy="298.8" r="3.2" fill="#ff922b" opacity="0.85"/>
<circle cx="577.0" cy="215.4" r="3.2" fill="#ff922b" opacity="0.85"/>
<circle cx="591.5" cy="284.0" r="3.2" fill="#ff922b" opacity="0.85"/>
<circle cx="606.1" cy="252.2" r="3.2" fill="#ff922b" opacity="0.85"/>
<circle cx="620.6" cy="232.6" r="3.2" fill="#ff922b" opacity="0.85"/>
<circle cx="635.1" cy="243.8" r="3.2" fill="#ff922b" opacity="0.85"/>
<circle cx="649.6" cy="322.4" r="3.2" fill="#ff922b" opacity="0.85"/>
<circle cx="664.2" cy="238.0" r="3.2" fill="#ff922b" opacity="0.85"/>
<circle cx="678.7" cy="250.8" r="3.2" fill="#ff922b" opacity="0.85"/>
<circle cx="693.2" cy="257.4" r="3.2" fill="#ff922b" opacity="0.85"/>
<circle cx="707.7" cy="308.7" r="3.2" fill="#ff922b" opacity="0.85"/>
<circle cx="722.2" cy="308.3" r="3.2" fill="#ff922b" opacity="0.85"/>
<circle cx="736.8" cy="244.8" r="3.2" fill="#ff922b" opacity="0.85"/>
<circle cx="751.3" cy="238.6" r="3.2" fill="#ff922b" opacity="0.85"/>
<circle cx="765.8" cy="304.2" r="3.2" fill="#ff922b" opacity="0.85"/>
<circle cx="780.3" cy="314.6" r="3.2" fill="#ff922b" opacity="0.85"/>
<circle cx="847" cy="84" r="5" fill="#ff922b"/>
<text x="866" y="88" font-size="13" fill="#c9d1d9" font-weight="700">Kāra</text>
<line x1="836" y1="108" x2="858" y2="108" stroke="#a7b0bc" stroke-width="2" stroke-dasharray="5 4"/>
<text x="866" y="112" font-size="13" fill="#c9d1d9" font-weight="400">Rust = 1.0×</text>
<circle cx="847" cy="132" r="4" fill="#3fb950"/>
<text x="866" y="136" font-size="13" fill="#c9d1d9" font-weight="400">C</text>
<text x="70" y="538" font-size="11.5" fill="#8b949e">Each dot is one benchmarked program (kata × approach); there is no connecting line because left-to-right order is not meaningful. Raw numbers: bench-results.json</text>
</svg>