<svg xmlns="http://www.w3.org/2000/svg" width="980" height="560" viewBox="0 0 980 560" font-family="-apple-system,Segoe UI,Helvetica,Arial,sans-serif">
<rect width="980" height="560" fill="#282c34"/>
<text x="70" y="34" font-size="21" font-weight="700" fill="#c9d1d9">Compile peak memory (cold)</text>
<text x="70" y="56" font-size="13" fill="#8b949e">relative to Rust = 1.0 · lower = leaner · 92 programs</text>
<line x1="70" y1="456.0" x2="812" y2="456.0" stroke="#3b414b" stroke-width="1"/>
<text x="60" y="460.0" font-size="12" text-anchor="end" fill="#8b949e">0.0×</text>
<line x1="70" y1="330.0" x2="812" y2="330.0" stroke="#3b414b" stroke-width="1"/>
<text x="60" y="334.0" font-size="12" text-anchor="end" fill="#8b949e">0.5×</text>
<line x1="70" y1="204.0" x2="812" y2="204.0" stroke="#a7b0bc" stroke-width="2" stroke-dasharray="5 4"/>
<text x="60" y="208.0" font-size="12" text-anchor="end" fill="#aeb6c0" font-weight="700">1.0×</text>
<line x1="70" y1="78.0" x2="812" y2="78.0" stroke="#3b414b" stroke-width="1"/>
<text x="60" y="82.0" font-size="12" text-anchor="end" fill="#8b949e">1.5×</text>
<text x="812" y="198.0" font-size="11" text-anchor="end" fill="#aeb6c0">Rust baseline</text>
<line x1="70" y1="456" x2="812" y2="456" stroke="#3b414b"/>
<text x="441.0" y="478" font-size="11" text-anchor="middle" fill="#8b949e">92 programs (kata × approach) — x-order carries no meaning</text>
<circle cx="100.7" cy="431.6" r="2.6" fill="#3fb950" opacity="0.7"/>
<circle cx="108.2" cy="438.7" r="2.6" fill="#3fb950" opacity="0.7"/>
<circle cx="115.7" cy="435.8" r="2.6" fill="#3fb950" opacity="0.7"/>
<circle cx="123.2" cy="439.1" r="2.6" fill="#3fb950" opacity="0.7"/>
<circle cx="130.7" cy="434.2" r="2.6" fill="#3fb950" opacity="0.7"/>
<circle cx="138.2" cy="434.5" r="2.6" fill="#3fb950" opacity="0.7"/>
<circle cx="145.7" cy="435.8" r="2.6" fill="#3fb950" opacity="0.7"/>
<circle cx="153.2" cy="432.0" r="2.6" fill="#3fb950" opacity="0.7"/>
<circle cx="160.7" cy="431.7" r="2.6" fill="#3fb950" opacity="0.7"/>
<circle cx="168.2" cy="432.3" r="2.6" fill="#3fb950" opacity="0.7"/>
<circle cx="175.7" cy="432.1" r="2.6" fill="#3fb950" opacity="0.7"/>
<circle cx="183.2" cy="433.4" r="2.6" fill="#3fb950" opacity="0.7"/>
<circle cx="190.7" cy="433.0" r="2.6" fill="#3fb950" opacity="0.7"/>
<circle cx="198.2" cy="433.3" r="2.6" fill="#3fb950" opacity="0.7"/>
<circle cx="205.7" cy="434.3" r="2.6" fill="#3fb950" opacity="0.7"/>
<circle cx="213.2" cy="439.1" r="2.6" fill="#3fb950" opacity="0.7"/>
<circle cx="220.7" cy="438.8" r="2.6" fill="#3fb950" opacity="0.7"/>
<circle cx="228.2" cy="433.2" r="2.6" fill="#3fb950" opacity="0.7"/>
<circle cx="235.7" cy="439.4" r="2.6" fill="#3fb950" opacity="0.7"/>
<circle cx="243.2" cy="434.9" r="2.6" fill="#3fb950" opacity="0.7"/>
<circle cx="250.7" cy="432.1" r="2.6" fill="#3fb950" opacity="0.7"/>
<circle cx="258.2" cy="435.3" r="2.6" fill="#3fb950" opacity="0.7"/>
<circle cx="265.7" cy="432.8" r="2.6" fill="#3fb950" opacity="0.7"/>
<circle cx="273.2" cy="436.7" r="2.6" fill="#3fb950" opacity="0.7"/>
<circle cx="280.7" cy="434.7" r="2.6" fill="#3fb950" opacity="0.7"/>
<circle cx="288.2" cy="435.6" r="2.6" fill="#3fb950" opacity="0.7"/>
<circle cx="295.7" cy="433.8" r="2.6" fill="#3fb950" opacity="0.7"/>
<circle cx="303.2" cy="434.0" r="2.6" fill="#3fb950" opacity="0.7"/>
<circle cx="310.7" cy="431.9" r="2.6" fill="#3fb950" opacity="0.7"/>
<circle cx="318.2" cy="433.4" r="2.6" fill="#3fb950" opacity="0.7"/>
<circle cx="325.7" cy="430.6" r="2.6" fill="#3fb950" opacity="0.7"/>
<circle cx="333.2" cy="439.9" r="2.6" fill="#3fb950" opacity="0.7"/>
<circle cx="340.7" cy="431.0" r="2.6" fill="#3fb950" opacity="0.7"/>
<circle cx="348.2" cy="432.1" r="2.6" fill="#3fb950" opacity="0.7"/>
<circle cx="355.8" cy="431.8" r="2.6" fill="#3fb950" opacity="0.7"/>
<circle cx="363.3" cy="432.1" r="2.6" fill="#3fb950" opacity="0.7"/>
<circle cx="370.8" cy="431.8" r="2.6" fill="#3fb950" opacity="0.7"/>
<circle cx="378.3" cy="431.4" r="2.6" fill="#3fb950" opacity="0.7"/>
<circle cx="385.8" cy="431.9" r="2.6" fill="#3fb950" opacity="0.7"/>
<circle cx="393.3" cy="433.4" r="2.6" fill="#3fb950" opacity="0.7"/>
<circle cx="400.8" cy="434.1" r="2.6" fill="#3fb950" opacity="0.7"/>
<circle cx="408.3" cy="436.9" r="2.6" fill="#3fb950" opacity="0.7"/>
<circle cx="415.8" cy="433.4" r="2.6" fill="#3fb950" opacity="0.7"/>
<circle cx="423.3" cy="433.0" r="2.6" fill="#3fb950" opacity="0.7"/>
<circle cx="430.8" cy="435.6" r="2.6" fill="#3fb950" opacity="0.7"/>
<circle cx="438.3" cy="435.2" r="2.6" fill="#3fb950" opacity="0.7"/>
<circle cx="445.8" cy="433.8" r="2.6" fill="#3fb950" opacity="0.7"/>
<circle cx="453.3" cy="435.8" r="2.6" fill="#3fb950" opacity="0.7"/>
<circle cx="460.8" cy="439.5" r="2.6" fill="#3fb950" opacity="0.7"/>
<circle cx="468.3" cy="435.7" r="2.6" fill="#3fb950" opacity="0.7"/>
<circle cx="475.8" cy="443.0" r="2.6" fill="#3fb950" opacity="0.7"/>
<circle cx="483.3" cy="430.7" r="2.6" fill="#3fb950" opacity="0.7"/>
<circle cx="490.8" cy="431.2" r="2.6" fill="#3fb950" opacity="0.7"/>
<circle cx="498.3" cy="430.8" r="2.6" fill="#3fb950" opacity="0.7"/>
<circle cx="505.8" cy="429.6" r="2.6" fill="#3fb950" opacity="0.7"/>
<circle cx="513.3" cy="430.6" r="2.6" fill="#3fb950" opacity="0.7"/>
<circle cx="520.8" cy="431.8" r="2.6" fill="#3fb950" opacity="0.7"/>
<circle cx="528.3" cy="439.4" r="2.6" fill="#3fb950" opacity="0.7"/>
<circle cx="535.8" cy="435.4" r="2.6" fill="#3fb950" opacity="0.7"/>
<circle cx="543.3" cy="435.6" r="2.6" fill="#3fb950" opacity="0.7"/>
<circle cx="550.8" cy="435.9" r="2.6" fill="#3fb950" opacity="0.7"/>
<circle cx="558.3" cy="434.9" r="2.6" fill="#3fb950" opacity="0.7"/>
<circle cx="565.8" cy="433.4" r="2.6" fill="#3fb950" opacity="0.7"/>
<circle cx="573.3" cy="432.7" r="2.6" fill="#3fb950" opacity="0.7"/>
<circle cx="580.8" cy="433.1" r="2.6" fill="#3fb950" opacity="0.7"/>
<circle cx="588.3" cy="432.2" r="2.6" fill="#3fb950" opacity="0.7"/>
<circle cx="595.8" cy="430.5" r="2.6" fill="#3fb950" opacity="0.7"/>
<circle cx="603.3" cy="432.2" r="2.6" fill="#3fb950" opacity="0.7"/>
<circle cx="610.8" cy="429.8" r="2.6" fill="#3fb950" opacity="0.7"/>
<circle cx="618.3" cy="430.3" r="2.6" fill="#3fb950" opacity="0.7"/>
<circle cx="625.8" cy="436.2" r="2.6" fill="#3fb950" opacity="0.7"/>
<circle cx="633.3" cy="433.2" r="2.6" fill="#3fb950" opacity="0.7"/>
<circle cx="640.8" cy="434.8" r="2.6" fill="#3fb950" opacity="0.7"/>
<circle cx="648.3" cy="432.9" r="2.6" fill="#3fb950" opacity="0.7"/>
<circle cx="655.8" cy="434.8" r="2.6" fill="#3fb950" opacity="0.7"/>
<circle cx="663.3" cy="432.0" r="2.6" fill="#3fb950" opacity="0.7"/>
<circle cx="670.8" cy="432.5" r="2.6" fill="#3fb950" opacity="0.7"/>
<circle cx="678.3" cy="432.8" r="2.6" fill="#3fb950" opacity="0.7"/>
<circle cx="685.8" cy="432.8" r="2.6" fill="#3fb950" opacity="0.7"/>
<circle cx="693.3" cy="441.6" r="2.6" fill="#3fb950" opacity="0.7"/>
<circle cx="700.8" cy="432.2" r="2.6" fill="#3fb950" opacity="0.7"/>
<circle cx="708.3" cy="434.1" r="2.6" fill="#3fb950" opacity="0.7"/>
<circle cx="715.8" cy="435.5" r="2.6" fill="#3fb950" opacity="0.7"/>
<circle cx="723.3" cy="432.2" r="2.6" fill="#3fb950" opacity="0.7"/>
<circle cx="730.8" cy="437.2" r="2.6" fill="#3fb950" opacity="0.7"/>
<circle cx="738.3" cy="436.9" r="2.6" fill="#3fb950" opacity="0.7"/>
<circle cx="745.8" cy="434.6" r="2.6" fill="#3fb950" opacity="0.7"/>
<circle cx="753.3" cy="433.5" r="2.6" fill="#3fb950" opacity="0.7"/>
<circle cx="760.8" cy="434.4" r="2.6" fill="#3fb950" opacity="0.7"/>
<circle cx="768.3" cy="435.8" r="2.6" fill="#3fb950" opacity="0.7"/>
<circle cx="775.8" cy="438.9" r="2.6" fill="#3fb950" opacity="0.7"/>
<circle cx="783.3" cy="441.8" r="2.6" fill="#3fb950" opacity="0.7"/>
<circle cx="98.7" cy="330.2" r="3.2" fill="#ff922b" opacity="0.85"/>
<circle cx="106.2" cy="366.3" r="3.2" fill="#ff922b" opacity="0.85"/>
<circle cx="113.7" cy="348.3" r="3.2" fill="#ff922b" opacity="0.85"/>
<circle cx="121.2" cy="368.1" r="3.2" fill="#ff922b" opacity="0.85"/>
<circle cx="128.7" cy="338.7" r="3.2" fill="#ff922b" opacity="0.85"/>
<circle cx="136.2" cy="342.1" r="3.2" fill="#ff922b" opacity="0.85"/>
<circle cx="143.7" cy="344.6" r="3.2" fill="#ff922b" opacity="0.85"/>
<circle cx="151.2" cy="334.2" r="3.2" fill="#ff922b" opacity="0.85"/>
<circle cx="158.7" cy="327.6" r="3.2" fill="#ff922b" opacity="0.85"/>
<circle cx="166.2" cy="330.4" r="3.2" fill="#ff922b" opacity="0.85"/>
<circle cx="173.7" cy="325.6" r="3.2" fill="#ff922b" opacity="0.85"/>
<circle cx="181.2" cy="336.7" r="3.2" fill="#ff922b" opacity="0.85"/>
<circle cx="188.7" cy="325.6" r="3.2" fill="#ff922b" opacity="0.85"/>
<circle cx="196.2" cy="321.2" r="3.2" fill="#ff922b" opacity="0.85"/>
<circle cx="203.7" cy="336.9" r="3.2" fill="#ff922b" opacity="0.85"/>
<circle cx="211.2" cy="352.4" r="3.2" fill="#ff922b" opacity="0.85"/>
<circle cx="218.7" cy="354.1" r="3.2" fill="#ff922b" opacity="0.85"/>
<circle cx="226.2" cy="331.3" r="3.2" fill="#ff922b" opacity="0.85"/>
<circle cx="233.7" cy="340.2" r="3.2" fill="#ff922b" opacity="0.85"/>
<circle cx="241.2" cy="341.5" r="3.2" fill="#ff922b" opacity="0.85"/>
<circle cx="248.7" cy="330.6" r="3.2" fill="#ff922b" opacity="0.85"/>
<circle cx="256.2" cy="338.7" r="3.2" fill="#ff922b" opacity="0.85"/>
<circle cx="263.7" cy="336.2" r="3.2" fill="#ff922b" opacity="0.85"/>
<circle cx="271.2" cy="339.5" r="3.2" fill="#ff922b" opacity="0.85"/>
<circle cx="278.7" cy="341.0" r="3.2" fill="#ff922b" opacity="0.85"/>
<circle cx="286.2" cy="339.5" r="3.2" fill="#ff922b" opacity="0.85"/>
<circle cx="293.7" cy="340.1" r="3.2" fill="#ff922b" opacity="0.85"/>
<circle cx="301.2" cy="341.6" r="3.2" fill="#ff922b" opacity="0.85"/>
<circle cx="308.7" cy="331.3" r="3.2" fill="#ff922b" opacity="0.85"/>
<circle cx="316.2" cy="334.9" r="3.2" fill="#ff922b" opacity="0.85"/>
<circle cx="323.7" cy="328.8" r="3.2" fill="#ff922b" opacity="0.85"/>
<circle cx="331.2" cy="358.6" r="3.2" fill="#ff922b" opacity="0.85"/>
<circle cx="338.7" cy="325.4" r="3.2" fill="#ff922b" opacity="0.85"/>
<circle cx="346.2" cy="330.5" r="3.2" fill="#ff922b" opacity="0.85"/>
<circle cx="353.7" cy="332.9" r="3.2" fill="#ff922b" opacity="0.85"/>
<circle cx="361.2" cy="331.8" r="3.2" fill="#ff922b" opacity="0.85"/>
<circle cx="368.7" cy="332.5" r="3.2" fill="#ff922b" opacity="0.85"/>
<circle cx="376.2" cy="290.0" r="3.2" fill="#ff922b" opacity="0.85"/>
<circle cx="383.7" cy="308.0" r="3.2" fill="#ff922b" opacity="0.85"/>
<circle cx="391.2" cy="332.6" r="3.2" fill="#ff922b" opacity="0.85"/>
<circle cx="398.7" cy="336.9" r="3.2" fill="#ff922b" opacity="0.85"/>
<circle cx="406.2" cy="346.4" r="3.2" fill="#ff922b" opacity="0.85"/>
<circle cx="413.7" cy="337.1" r="3.2" fill="#ff922b" opacity="0.85"/>
<circle cx="421.2" cy="335.6" r="3.2" fill="#ff922b" opacity="0.85"/>
<circle cx="428.7" cy="334.7" r="3.2" fill="#ff922b" opacity="0.85"/>
<circle cx="436.2" cy="344.1" r="3.2" fill="#ff922b" opacity="0.85"/>
<circle cx="443.7" cy="339.7" r="3.2" fill="#ff922b" opacity="0.85"/>
<circle cx="451.2" cy="344.1" r="3.2" fill="#ff922b" opacity="0.85"/>
<circle cx="458.7" cy="361.9" r="3.2" fill="#ff922b" opacity="0.85"/>
<circle cx="466.2" cy="298.5" r="3.2" fill="#ff922b" opacity="0.85"/>
<circle cx="473.7" cy="360.2" r="3.2" fill="#ff922b" opacity="0.85"/>
<circle cx="481.2" cy="274.7" r="3.2" fill="#ff922b" opacity="0.85"/>
<circle cx="488.7" cy="269.5" r="3.2" fill="#ff922b" opacity="0.85"/>
<circle cx="496.2" cy="265.6" r="3.2" fill="#ff922b" opacity="0.85"/>
<circle cx="503.7" cy="261.5" r="3.2" fill="#ff922b" opacity="0.85"/>
<circle cx="511.2" cy="254.2" r="3.2" fill="#ff922b" opacity="0.85"/>
<circle cx="518.7" cy="281.4" r="3.2" fill="#ff922b" opacity="0.85"/>
<circle cx="526.2" cy="365.0" r="3.2" fill="#ff922b" opacity="0.85"/>
<circle cx="533.8" cy="291.7" r="3.2" fill="#ff922b" opacity="0.85"/>
<circle cx="541.3" cy="289.6" r="3.2" fill="#ff922b" opacity="0.85"/>
<circle cx="548.8" cy="290.8" r="3.2" fill="#ff922b" opacity="0.85"/>
<circle cx="556.3" cy="286.2" r="3.2" fill="#ff922b" opacity="0.85"/>
<circle cx="563.8" cy="292.3" r="3.2" fill="#ff922b" opacity="0.85"/>
<circle cx="571.3" cy="281.6" r="3.2" fill="#ff922b" opacity="0.85"/>
<circle cx="578.8" cy="280.7" r="3.2" fill="#ff922b" opacity="0.85"/>
<circle cx="586.3" cy="327.4" r="3.2" fill="#ff922b" opacity="0.85"/>
<circle cx="593.8" cy="265.6" r="3.2" fill="#ff922b" opacity="0.85"/>
<circle cx="601.3" cy="242.3" r="3.2" fill="#ff922b" opacity="0.85"/>
<circle cx="608.8" cy="263.3" r="3.2" fill="#ff922b" opacity="0.85"/>
<circle cx="616.3" cy="265.9" r="3.2" fill="#ff922b" opacity="0.85"/>
<circle cx="623.8" cy="344.1" r="3.2" fill="#ff922b" opacity="0.85"/>
<circle cx="631.3" cy="277.5" r="3.2" fill="#ff922b" opacity="0.85"/>
<circle cx="638.8" cy="278.4" r="3.2" fill="#ff922b" opacity="0.85"/>
<circle cx="646.3" cy="277.6" r="3.2" fill="#ff922b" opacity="0.85"/>
<circle cx="653.8" cy="345.4" r="3.2" fill="#ff922b" opacity="0.85"/>
<circle cx="661.3" cy="334.0" r="3.2" fill="#ff922b" opacity="0.85"/>
<circle cx="668.8" cy="269.7" r="3.2" fill="#ff922b" opacity="0.85"/>
<circle cx="676.3" cy="338.4" r="3.2" fill="#ff922b" opacity="0.85"/>
<circle cx="683.8" cy="333.2" r="3.2" fill="#ff922b" opacity="0.85"/>
<circle cx="691.3" cy="375.2" r="3.2" fill="#ff922b" opacity="0.85"/>
<circle cx="698.8" cy="334.3" r="3.2" fill="#ff922b" opacity="0.85"/>
<circle cx="706.3" cy="341.6" r="3.2" fill="#ff922b" opacity="0.85"/>
<circle cx="713.8" cy="346.9" r="3.2" fill="#ff922b" opacity="0.85"/>
<circle cx="721.3" cy="334.4" r="3.2" fill="#ff922b" opacity="0.85"/>
<circle cx="728.8" cy="349.7" r="3.2" fill="#ff922b" opacity="0.85"/>
<circle cx="736.3" cy="349.7" r="3.2" fill="#ff922b" opacity="0.85"/>
<circle cx="743.8" cy="338.7" r="3.2" fill="#ff922b" opacity="0.85"/>
<circle cx="751.3" cy="338.7" r="3.2" fill="#ff922b" opacity="0.85"/>
<circle cx="758.8" cy="332.4" r="3.2" fill="#ff922b" opacity="0.85"/>
<circle cx="766.3" cy="336.4" r="3.2" fill="#ff922b" opacity="0.85"/>
<circle cx="773.8" cy="367.4" r="3.2" fill="#ff922b" opacity="0.85"/>
<circle cx="781.3" cy="370.7" r="3.2" fill="#ff922b" opacity="0.85"/>
<circle cx="847" cy="84" r="5" fill="#ff922b"/>
<text x="866" y="88" font-size="13" fill="#c9d1d9" font-weight="700">Kāra</text>
<line x1="836" y1="108" x2="858" y2="108" stroke="#a7b0bc" stroke-width="2" stroke-dasharray="5 4"/>
<text x="866" y="112" font-size="13" fill="#c9d1d9" font-weight="400">Rust = 1.0×</text>
<circle cx="847" cy="132" r="4" fill="#3fb950"/>
<text x="866" y="136" font-size="13" fill="#c9d1d9" font-weight="400">C</text>
<text x="70" y="538" font-size="11.5" fill="#8b949e">Each dot is one benchmarked program (kata × approach); there is no connecting line because left-to-right order is not meaningful. Raw numbers: bench-results.json</text>
</svg>