<svg xmlns="http://www.w3.org/2000/svg" width="980" height="560" viewBox="0 0 980 560" font-family="-apple-system,Segoe UI,Helvetica,Arial,sans-serif">
<rect width="980" height="560" fill="#282c34"/>
<text x="70" y="34" font-size="21" font-weight="700" fill="#c9d1d9">Compile time (cold)</text>
<text x="70" y="56" font-size="13" fill="#8b949e">relative to Rust = 1.0 · lower = faster · 98 programs</text>
<line x1="70" y1="456.0" x2="812" y2="456.0" stroke="#3b414b" stroke-width="1"/>
<text x="60" y="460.0" font-size="12" text-anchor="end" fill="#8b949e">0.0×</text>
<line x1="70" y1="330.0" x2="812" y2="330.0" stroke="#3b414b" stroke-width="1"/>
<text x="60" y="334.0" font-size="12" text-anchor="end" fill="#8b949e">0.5×</text>
<line x1="70" y1="204.0" x2="812" y2="204.0" stroke="#a7b0bc" stroke-width="2" stroke-dasharray="5 4"/>
<text x="60" y="208.0" font-size="12" text-anchor="end" fill="#aeb6c0" font-weight="700">1.0×</text>
<line x1="70" y1="78.0" x2="812" y2="78.0" stroke="#3b414b" stroke-width="1"/>
<text x="60" y="82.0" font-size="12" text-anchor="end" fill="#8b949e">1.5×</text>
<text x="812" y="198.0" font-size="11" text-anchor="end" fill="#aeb6c0">Rust baseline</text>
<line x1="70" y1="456" x2="812" y2="456" stroke="#3b414b"/>
<text x="441.0" y="478" font-size="11" text-anchor="middle" fill="#8b949e">98 programs (kata × approach) — x-order carries no meaning</text>
<circle cx="100.6" cy="315.0" r="2.6" fill="#3fb950" opacity="0.7"/>
<circle cx="107.7" cy="356.9" r="2.6" fill="#3fb950" opacity="0.7"/>
<circle cx="114.7" cy="353.5" r="2.6" fill="#3fb950" opacity="0.7"/>
<circle cx="121.7" cy="361.9" r="2.6" fill="#3fb950" opacity="0.7"/>
<circle cx="128.8" cy="337.9" r="2.6" fill="#3fb950" opacity="0.7"/>
<circle cx="135.8" cy="349.8" r="2.6" fill="#3fb950" opacity="0.7"/>
<circle cx="142.9" cy="362.0" r="2.6" fill="#3fb950" opacity="0.7"/>
<circle cx="149.9" cy="331.0" r="2.6" fill="#3fb950" opacity="0.7"/>
<circle cx="156.9" cy="332.2" r="2.6" fill="#3fb950" opacity="0.7"/>
<circle cx="164.0" cy="329.4" r="2.6" fill="#3fb950" opacity="0.7"/>
<circle cx="171.0" cy="331.8" r="2.6" fill="#3fb950" opacity="0.7"/>
<circle cx="178.0" cy="332.6" r="2.6" fill="#3fb950" opacity="0.7"/>
<circle cx="185.1" cy="331.2" r="2.6" fill="#3fb950" opacity="0.7"/>
<circle cx="192.1" cy="333.4" r="2.6" fill="#3fb950" opacity="0.7"/>
<circle cx="199.2" cy="342.8" r="2.6" fill="#3fb950" opacity="0.7"/>
<circle cx="206.2" cy="354.9" r="2.6" fill="#3fb950" opacity="0.7"/>
<circle cx="213.2" cy="360.0" r="2.6" fill="#3fb950" opacity="0.7"/>
<circle cx="220.3" cy="346.4" r="2.6" fill="#3fb950" opacity="0.7"/>
<circle cx="227.3" cy="354.4" r="2.6" fill="#3fb950" opacity="0.7"/>
<circle cx="234.3" cy="352.3" r="2.6" fill="#3fb950" opacity="0.7"/>
<circle cx="241.4" cy="324.8" r="2.6" fill="#3fb950" opacity="0.7"/>
<circle cx="248.4" cy="357.2" r="2.6" fill="#3fb950" opacity="0.7"/>
<circle cx="255.5" cy="334.3" r="2.6" fill="#3fb950" opacity="0.7"/>
<circle cx="262.5" cy="361.8" r="2.6" fill="#3fb950" opacity="0.7"/>
<circle cx="269.5" cy="353.3" r="2.6" fill="#3fb950" opacity="0.7"/>
<circle cx="276.6" cy="361.3" r="2.6" fill="#3fb950" opacity="0.7"/>
<circle cx="283.6" cy="333.6" r="2.6" fill="#3fb950" opacity="0.7"/>
<circle cx="290.6" cy="333.5" r="2.6" fill="#3fb950" opacity="0.7"/>
<circle cx="297.7" cy="325.5" r="2.6" fill="#3fb950" opacity="0.7"/>
<circle cx="304.7" cy="334.1" r="2.6" fill="#3fb950" opacity="0.7"/>
<circle cx="311.8" cy="320.0" r="2.6" fill="#3fb950" opacity="0.7"/>
<circle cx="318.8" cy="383.0" r="2.6" fill="#3fb950" opacity="0.7"/>
<circle cx="325.8" cy="326.9" r="2.6" fill="#3fb950" opacity="0.7"/>
<circle cx="332.9" cy="333.2" r="2.6" fill="#3fb950" opacity="0.7"/>
<circle cx="339.9" cy="326.8" r="2.6" fill="#3fb950" opacity="0.7"/>
<circle cx="346.9" cy="330.4" r="2.6" fill="#3fb950" opacity="0.7"/>
<circle cx="354.0" cy="330.7" r="2.6" fill="#3fb950" opacity="0.7"/>
<circle cx="361.0" cy="320.5" r="2.6" fill="#3fb950" opacity="0.7"/>
<circle cx="368.1" cy="325.7" r="2.6" fill="#3fb950" opacity="0.7"/>
<circle cx="375.1" cy="328.6" r="2.6" fill="#3fb950" opacity="0.7"/>
<circle cx="382.1" cy="328.3" r="2.6" fill="#3fb950" opacity="0.7"/>
<circle cx="389.2" cy="344.1" r="2.6" fill="#3fb950" opacity="0.7"/>
<circle cx="396.2" cy="321.5" r="2.6" fill="#3fb950" opacity="0.7"/>
<circle cx="403.2" cy="325.8" r="2.6" fill="#3fb950" opacity="0.7"/>
<circle cx="410.3" cy="341.0" r="2.6" fill="#3fb950" opacity="0.7"/>
<circle cx="417.3" cy="344.0" r="2.6" fill="#3fb950" opacity="0.7"/>
<circle cx="424.4" cy="333.3" r="2.6" fill="#3fb950" opacity="0.7"/>
<circle cx="431.4" cy="337.2" r="2.6" fill="#3fb950" opacity="0.7"/>
<circle cx="438.4" cy="364.4" r="2.6" fill="#3fb950" opacity="0.7"/>
<circle cx="445.5" cy="281.1" r="2.6" fill="#3fb950" opacity="0.7"/>
<circle cx="452.5" cy="352.0" r="2.6" fill="#3fb950" opacity="0.7"/>
<circle cx="459.6" cy="317.7" r="2.6" fill="#3fb950" opacity="0.7"/>
<circle cx="466.6" cy="320.1" r="2.6" fill="#3fb950" opacity="0.7"/>
<circle cx="473.6" cy="319.5" r="2.6" fill="#3fb950" opacity="0.7"/>
<circle cx="480.7" cy="180.7" r="2.6" fill="#3fb950" opacity="0.7"/>
<circle cx="487.7" cy="316.2" r="2.6" fill="#3fb950" opacity="0.7"/>
<circle cx="494.7" cy="324.5" r="2.6" fill="#3fb950" opacity="0.7"/>
<circle cx="501.8" cy="360.4" r="2.6" fill="#3fb950" opacity="0.7"/>
<circle cx="508.8" cy="359.0" r="2.6" fill="#3fb950" opacity="0.7"/>
<circle cx="515.9" cy="338.5" r="2.6" fill="#3fb950" opacity="0.7"/>
<circle cx="522.9" cy="340.9" r="2.6" fill="#3fb950" opacity="0.7"/>
<circle cx="529.9" cy="365.5" r="2.6" fill="#3fb950" opacity="0.7"/>
<circle cx="537.0" cy="332.1" r="2.6" fill="#3fb950" opacity="0.7"/>
<circle cx="544.0" cy="327.4" r="2.6" fill="#3fb950" opacity="0.7"/>
<circle cx="551.0" cy="330.3" r="2.6" fill="#3fb950" opacity="0.7"/>
<circle cx="558.1" cy="330.5" r="2.6" fill="#3fb950" opacity="0.7"/>
<circle cx="565.1" cy="319.8" r="2.6" fill="#3fb950" opacity="0.7"/>
<circle cx="572.2" cy="318.2" r="2.6" fill="#3fb950" opacity="0.7"/>
<circle cx="579.2" cy="323.1" r="2.6" fill="#3fb950" opacity="0.7"/>
<circle cx="586.2" cy="329.5" r="2.6" fill="#3fb950" opacity="0.7"/>
<circle cx="593.3" cy="366.0" r="2.6" fill="#3fb950" opacity="0.7"/>
<circle cx="600.3" cy="330.9" r="2.6" fill="#3fb950" opacity="0.7"/>
<circle cx="607.3" cy="246.1" r="2.6" fill="#3fb950" opacity="0.7"/>
<circle cx="614.4" cy="326.3" r="2.6" fill="#3fb950" opacity="0.7"/>
<circle cx="621.4" cy="329.0" r="2.6" fill="#3fb950" opacity="0.7"/>
<circle cx="628.5" cy="330.4" r="2.6" fill="#3fb950" opacity="0.7"/>
<circle cx="635.5" cy="335.7" r="2.6" fill="#3fb950" opacity="0.7"/>
<circle cx="642.5" cy="347.1" r="2.6" fill="#3fb950" opacity="0.7"/>
<circle cx="649.6" cy="341.7" r="2.6" fill="#3fb950" opacity="0.7"/>
<circle cx="656.6" cy="331.0" r="2.6" fill="#3fb950" opacity="0.7"/>
<circle cx="663.6" cy="335.3" r="2.6" fill="#3fb950" opacity="0.7"/>
<circle cx="670.7" cy="329.1" r="2.6" fill="#3fb950" opacity="0.7"/>
<circle cx="677.7" cy="321.1" r="2.6" fill="#3fb950" opacity="0.7"/>
<circle cx="684.8" cy="336.2" r="2.6" fill="#3fb950" opacity="0.7"/>
<circle cx="691.8" cy="332.2" r="2.6" fill="#3fb950" opacity="0.7"/>
<circle cx="698.8" cy="370.4" r="2.6" fill="#3fb950" opacity="0.7"/>
<circle cx="705.9" cy="329.1" r="2.6" fill="#3fb950" opacity="0.7"/>
<circle cx="712.9" cy="328.6" r="2.6" fill="#3fb950" opacity="0.7"/>
<circle cx="719.9" cy="350.8" r="2.6" fill="#3fb950" opacity="0.7"/>
<circle cx="727.0" cy="335.2" r="2.6" fill="#3fb950" opacity="0.7"/>
<circle cx="734.0" cy="365.5" r="2.6" fill="#3fb950" opacity="0.7"/>
<circle cx="741.1" cy="369.3" r="2.6" fill="#3fb950" opacity="0.7"/>
<circle cx="748.1" cy="346.0" r="2.6" fill="#3fb950" opacity="0.7"/>
<circle cx="755.1" cy="333.6" r="2.6" fill="#3fb950" opacity="0.7"/>
<circle cx="762.2" cy="336.0" r="2.6" fill="#3fb950" opacity="0.7"/>
<circle cx="769.2" cy="346.6" r="2.6" fill="#3fb950" opacity="0.7"/>
<circle cx="776.2" cy="366.3" r="2.6" fill="#3fb950" opacity="0.7"/>
<circle cx="783.3" cy="366.7" r="2.6" fill="#3fb950" opacity="0.7"/>
<circle cx="98.7" cy="221.7" r="3.2" fill="#ff922b" opacity="0.85"/>
<circle cx="105.8" cy="294.4" r="3.2" fill="#ff922b" opacity="0.85"/>
<circle cx="112.8" cy="289.1" r="3.2" fill="#ff922b" opacity="0.85"/>
<circle cx="119.8" cy="308.1" r="3.2" fill="#ff922b" opacity="0.85"/>
<circle cx="126.9" cy="258.4" r="3.2" fill="#ff922b" opacity="0.85"/>
<circle cx="133.9" cy="277.4" r="3.2" fill="#ff922b" opacity="0.85"/>
<circle cx="140.9" cy="293.8" r="3.2" fill="#ff922b" opacity="0.85"/>
<circle cx="148.0" cy="253.7" r="3.2" fill="#ff922b" opacity="0.85"/>
<circle cx="155.0" cy="239.7" r="3.2" fill="#ff922b" opacity="0.85"/>
<circle cx="162.1" cy="252.9" r="3.2" fill="#ff922b" opacity="0.85"/>
<circle cx="169.1" cy="235.2" r="3.2" fill="#ff922b" opacity="0.85"/>
<circle cx="176.1" cy="259.9" r="3.2" fill="#ff922b" opacity="0.85"/>
<circle cx="183.2" cy="252.1" r="3.2" fill="#ff922b" opacity="0.85"/>
<circle cx="190.2" cy="248.8" r="3.2" fill="#ff922b" opacity="0.85"/>
<circle cx="197.2" cy="276.3" r="3.2" fill="#ff922b" opacity="0.85"/>
<circle cx="204.3" cy="285.5" r="3.2" fill="#ff922b" opacity="0.85"/>
<circle cx="211.3" cy="296.9" r="3.2" fill="#ff922b" opacity="0.85"/>
<circle cx="218.4" cy="264.3" r="3.2" fill="#ff922b" opacity="0.85"/>
<circle cx="225.4" cy="271.4" r="3.2" fill="#ff922b" opacity="0.85"/>
<circle cx="232.4" cy="274.6" r="3.2" fill="#ff922b" opacity="0.85"/>
<circle cx="239.5" cy="249.4" r="3.2" fill="#ff922b" opacity="0.85"/>
<circle cx="246.5" cy="270.7" r="3.2" fill="#ff922b" opacity="0.85"/>
<circle cx="253.5" cy="258.2" r="3.2" fill="#ff922b" opacity="0.85"/>
<circle cx="260.6" cy="283.1" r="3.2" fill="#ff922b" opacity="0.85"/>
<circle cx="267.6" cy="273.2" r="3.2" fill="#ff922b" opacity="0.85"/>
<circle cx="274.7" cy="279.2" r="3.2" fill="#ff922b" opacity="0.85"/>
<circle cx="281.7" cy="272.8" r="3.2" fill="#ff922b" opacity="0.85"/>
<circle cx="288.7" cy="266.9" r="3.2" fill="#ff922b" opacity="0.85"/>
<circle cx="295.8" cy="235.8" r="3.2" fill="#ff922b" opacity="0.85"/>
<circle cx="302.8" cy="258.6" r="3.2" fill="#ff922b" opacity="0.85"/>
<circle cx="309.8" cy="231.2" r="3.2" fill="#ff922b" opacity="0.85"/>
<circle cx="316.9" cy="344.8" r="3.2" fill="#ff922b" opacity="0.85"/>
<circle cx="323.9" cy="245.1" r="3.2" fill="#ff922b" opacity="0.85"/>
<circle cx="331.0" cy="250.3" r="3.2" fill="#ff922b" opacity="0.85"/>
<circle cx="338.0" cy="250.7" r="3.2" fill="#ff922b" opacity="0.85"/>
<circle cx="345.0" cy="256.7" r="3.2" fill="#ff922b" opacity="0.85"/>
<circle cx="352.1" cy="254.8" r="3.2" fill="#ff922b" opacity="0.85"/>
<circle cx="359.1" cy="156.8" r="3.2" fill="#ff922b" opacity="0.85"/>
<circle cx="366.1" cy="212.9" r="3.2" fill="#ff922b" opacity="0.85"/>
<circle cx="373.2" cy="253.4" r="3.2" fill="#ff922b" opacity="0.85"/>
<circle cx="380.2" cy="248.6" r="3.2" fill="#ff922b" opacity="0.85"/>
<circle cx="387.3" cy="270.6" r="3.2" fill="#ff922b" opacity="0.85"/>
<circle cx="394.3" cy="240.8" r="3.2" fill="#ff922b" opacity="0.85"/>
<circle cx="401.3" cy="255.3" r="3.2" fill="#ff922b" opacity="0.85"/>
<circle cx="408.4" cy="265.7" r="3.2" fill="#ff922b" opacity="0.85"/>
<circle cx="415.4" cy="270.9" r="3.2" fill="#ff922b" opacity="0.85"/>
<circle cx="422.4" cy="235.5" r="3.2" fill="#ff922b" opacity="0.85"/>
<circle cx="429.5" cy="266.7" r="3.2" fill="#ff922b" opacity="0.85"/>
<circle cx="436.5" cy="298.2" r="3.2" fill="#ff922b" opacity="0.85"/>
<circle cx="443.6" cy="289.4" r="3.2" fill="#ff922b" opacity="0.85"/>
<circle cx="450.6" cy="318.7" r="3.2" fill="#ff922b" opacity="0.85"/>
<circle cx="457.6" cy="196.6" r="3.2" fill="#ff922b" opacity="0.85"/>
<circle cx="464.7" cy="192.8" r="3.2" fill="#ff922b" opacity="0.85"/>
<circle cx="471.7" cy="194.7" r="3.2" fill="#ff922b" opacity="0.85"/>
<circle cx="478.8" cy="203.1" r="3.2" fill="#ff922b" opacity="0.85"/>
<circle cx="485.8" cy="201.3" r="3.2" fill="#ff922b" opacity="0.85"/>
<circle cx="492.8" cy="223.1" r="3.2" fill="#ff922b" opacity="0.85"/>
<circle cx="499.9" cy="303.9" r="3.2" fill="#ff922b" opacity="0.85"/>
<circle cx="506.9" cy="267.5" r="3.2" fill="#ff922b" opacity="0.85"/>
<circle cx="513.9" cy="251.8" r="3.2" fill="#ff922b" opacity="0.85"/>
<circle cx="521.0" cy="231.3" r="3.2" fill="#ff922b" opacity="0.85"/>
<circle cx="528.0" cy="189.9" r="3.2" fill="#ff922b" opacity="0.85"/>
<circle cx="535.1" cy="210.5" r="3.2" fill="#ff922b" opacity="0.85"/>
<circle cx="542.1" cy="204.3" r="3.2" fill="#ff922b" opacity="0.85"/>
<circle cx="549.1" cy="211.0" r="3.2" fill="#ff922b" opacity="0.85"/>
<circle cx="556.2" cy="239.0" r="3.2" fill="#ff922b" opacity="0.85"/>
<circle cx="563.2" cy="168.4" r="3.2" fill="#ff922b" opacity="0.85"/>
<circle cx="570.2" cy="149.6" r="3.2" fill="#ff922b" opacity="0.85"/>
<circle cx="577.3" cy="172.8" r="3.2" fill="#ff922b" opacity="0.85"/>
<circle cx="584.3" cy="173.8" r="3.2" fill="#ff922b" opacity="0.85"/>
<circle cx="591.4" cy="283.0" r="3.2" fill="#ff922b" opacity="0.85"/>
<circle cx="598.4" cy="221.1" r="3.2" fill="#ff922b" opacity="0.85"/>
<circle cx="605.4" cy="242.6" r="3.2" fill="#ff922b" opacity="0.85"/>
<circle cx="612.5" cy="209.0" r="3.2" fill="#ff922b" opacity="0.85"/>
<circle cx="619.5" cy="193.9" r="3.2" fill="#ff922b" opacity="0.85"/>
<circle cx="626.5" cy="191.7" r="3.2" fill="#ff922b" opacity="0.85"/>
<circle cx="633.6" cy="197.4" r="3.2" fill="#ff922b" opacity="0.85"/>
<circle cx="640.6" cy="226.6" r="3.2" fill="#ff922b" opacity="0.85"/>
<circle cx="647.7" cy="219.4" r="3.2" fill="#ff922b" opacity="0.85"/>
<circle cx="654.7" cy="196.7" r="3.2" fill="#ff922b" opacity="0.85"/>
<circle cx="661.7" cy="270.9" r="3.2" fill="#ff922b" opacity="0.85"/>
<circle cx="668.8" cy="244.3" r="3.2" fill="#ff922b" opacity="0.85"/>
<circle cx="675.8" cy="197.4" r="3.2" fill="#ff922b" opacity="0.85"/>
<circle cx="682.8" cy="267.1" r="3.2" fill="#ff922b" opacity="0.85"/>
<circle cx="689.9" cy="250.5" r="3.2" fill="#ff922b" opacity="0.85"/>
<circle cx="696.9" cy="325.9" r="3.2" fill="#ff922b" opacity="0.85"/>
<circle cx="704.0" cy="251.9" r="3.2" fill="#ff922b" opacity="0.85"/>
<circle cx="711.0" cy="263.9" r="3.2" fill="#ff922b" opacity="0.85"/>
<circle cx="718.0" cy="284.8" r="3.2" fill="#ff922b" opacity="0.85"/>
<circle cx="725.1" cy="260.3" r="3.2" fill="#ff922b" opacity="0.85"/>
<circle cx="732.1" cy="304.3" r="3.2" fill="#ff922b" opacity="0.85"/>
<circle cx="739.1" cy="303.9" r="3.2" fill="#ff922b" opacity="0.85"/>
<circle cx="746.2" cy="264.7" r="3.2" fill="#ff922b" opacity="0.85"/>
<circle cx="753.2" cy="269.4" r="3.2" fill="#ff922b" opacity="0.85"/>
<circle cx="760.3" cy="259.4" r="3.2" fill="#ff922b" opacity="0.85"/>
<circle cx="767.3" cy="256.4" r="3.2" fill="#ff922b" opacity="0.85"/>
<circle cx="774.3" cy="313.0" r="3.2" fill="#ff922b" opacity="0.85"/>
<circle cx="781.4" cy="311.6" r="3.2" fill="#ff922b" opacity="0.85"/>
<circle cx="847" cy="84" r="5" fill="#ff922b"/>
<text x="866" y="88" font-size="13" fill="#c9d1d9" font-weight="700">Kāra</text>
<line x1="836" y1="108" x2="858" y2="108" stroke="#a7b0bc" stroke-width="2" stroke-dasharray="5 4"/>
<text x="866" y="112" font-size="13" fill="#c9d1d9" font-weight="400">Rust = 1.0×</text>
<circle cx="847" cy="132" r="4" fill="#3fb950"/>
<text x="866" y="136" font-size="13" fill="#c9d1d9" font-weight="400">C</text>
<text x="70" y="538" font-size="11.5" fill="#8b949e">Each dot is one benchmarked program (kata × approach); there is no connecting line because left-to-right order is not meaningful. Raw numbers: bench-results.json</text>
</svg>