<svg xmlns="http://www.w3.org/2000/svg" width="980" height="560" viewBox="0 0 980 560" font-family="-apple-system,Segoe UI,Helvetica,Arial,sans-serif">
<rect width="980" height="560" fill="#282c34"/>
<text x="70" y="34" font-size="21" font-weight="700" fill="#c9d1d9">Compile peak memory (cold)</text>
<text x="70" y="56" font-size="13" fill="#8b949e">relative to Rust = 1.0 · lower = leaner · 46 programs</text>
<line x1="70" y1="456.0" x2="812" y2="456.0" stroke="#3b414b" stroke-width="1"/>
<text x="60" y="460.0" font-size="12" text-anchor="end" fill="#8b949e">0.0×</text>
<line x1="70" y1="330.0" x2="812" y2="330.0" stroke="#3b414b" stroke-width="1"/>
<text x="60" y="334.0" font-size="12" text-anchor="end" fill="#8b949e">0.5×</text>
<line x1="70" y1="204.0" x2="812" y2="204.0" stroke="#a7b0bc" stroke-width="2" stroke-dasharray="5 4"/>
<text x="60" y="208.0" font-size="12" text-anchor="end" fill="#aeb6c0" font-weight="700">1.0×</text>
<line x1="70" y1="78.0" x2="812" y2="78.0" stroke="#3b414b" stroke-width="1"/>
<text x="60" y="82.0" font-size="12" text-anchor="end" fill="#8b949e">1.5×</text>
<text x="812" y="198.0" font-size="11" text-anchor="end" fill="#aeb6c0">Rust baseline</text>
<line x1="70" y1="456" x2="812" y2="456" stroke="#3b414b"/>
<text x="441.0" y="478" font-size="11" text-anchor="middle" fill="#8b949e">46 programs (kata × approach) — x-order carries no meaning</text>
<circle cx="101.7" cy="431.6" r="2.6" fill="#3fb950" opacity="0.7"/>
<circle cx="116.8" cy="438.7" r="2.6" fill="#3fb950" opacity="0.7"/>
<circle cx="132.0" cy="436.1" r="2.6" fill="#3fb950" opacity="0.7"/>
<circle cx="147.2" cy="438.9" r="2.6" fill="#3fb950" opacity="0.7"/>
<circle cx="162.3" cy="433.7" r="2.6" fill="#3fb950" opacity="0.7"/>
<circle cx="177.5" cy="434.6" r="2.6" fill="#3fb950" opacity="0.7"/>
<circle cx="192.7" cy="435.8" r="2.6" fill="#3fb950" opacity="0.7"/>
<circle cx="207.8" cy="431.9" r="2.6" fill="#3fb950" opacity="0.7"/>
<circle cx="223.0" cy="431.3" r="2.6" fill="#3fb950" opacity="0.7"/>
<circle cx="238.2" cy="432.3" r="2.6" fill="#3fb950" opacity="0.7"/>
<circle cx="253.4" cy="432.1" r="2.6" fill="#3fb950" opacity="0.7"/>
<circle cx="268.5" cy="432.8" r="2.6" fill="#3fb950" opacity="0.7"/>
<circle cx="283.7" cy="433.1" r="2.6" fill="#3fb950" opacity="0.7"/>
<circle cx="298.9" cy="433.4" r="2.6" fill="#3fb950" opacity="0.7"/>
<circle cx="314.0" cy="434.2" r="2.6" fill="#3fb950" opacity="0.7"/>
<circle cx="329.2" cy="439.2" r="2.6" fill="#3fb950" opacity="0.7"/>
<circle cx="344.4" cy="438.7" r="2.6" fill="#3fb950" opacity="0.7"/>
<circle cx="359.5" cy="433.4" r="2.6" fill="#3fb950" opacity="0.7"/>
<circle cx="374.7" cy="439.6" r="2.6" fill="#3fb950" opacity="0.7"/>
<circle cx="389.9" cy="435.1" r="2.6" fill="#3fb950" opacity="0.7"/>
<circle cx="405.1" cy="432.1" r="2.6" fill="#3fb950" opacity="0.7"/>
<circle cx="420.2" cy="435.3" r="2.6" fill="#3fb950" opacity="0.7"/>
<circle cx="435.4" cy="432.8" r="2.6" fill="#3fb950" opacity="0.7"/>
<circle cx="450.6" cy="436.7" r="2.6" fill="#3fb950" opacity="0.7"/>
<circle cx="465.7" cy="434.3" r="2.6" fill="#3fb950" opacity="0.7"/>
<circle cx="480.9" cy="435.9" r="2.6" fill="#3fb950" opacity="0.7"/>
<circle cx="496.1" cy="434.2" r="2.6" fill="#3fb950" opacity="0.7"/>
<circle cx="511.2" cy="434.1" r="2.6" fill="#3fb950" opacity="0.7"/>
<circle cx="526.4" cy="432.3" r="2.6" fill="#3fb950" opacity="0.7"/>
<circle cx="541.6" cy="433.7" r="2.6" fill="#3fb950" opacity="0.7"/>
<circle cx="556.7" cy="430.7" r="2.6" fill="#3fb950" opacity="0.7"/>
<circle cx="571.9" cy="440.2" r="2.6" fill="#3fb950" opacity="0.7"/>
<circle cx="587.1" cy="440.0" r="2.6" fill="#3fb950" opacity="0.7"/>
<circle cx="602.3" cy="432.4" r="2.6" fill="#3fb950" opacity="0.7"/>
<circle cx="617.4" cy="436.2" r="2.6" fill="#3fb950" opacity="0.7"/>
<circle cx="632.6" cy="434.8" r="2.6" fill="#3fb950" opacity="0.7"/>
<circle cx="647.8" cy="432.4" r="2.6" fill="#3fb950" opacity="0.7"/>
<circle cx="662.9" cy="433.5" r="2.6" fill="#3fb950" opacity="0.7"/>
<circle cx="678.1" cy="441.5" r="2.6" fill="#3fb950" opacity="0.7"/>
<circle cx="693.3" cy="432.3" r="2.6" fill="#3fb950" opacity="0.7"/>
<circle cx="708.4" cy="433.7" r="2.6" fill="#3fb950" opacity="0.7"/>
<circle cx="723.6" cy="431.6" r="2.6" fill="#3fb950" opacity="0.7"/>
<circle cx="738.8" cy="437.3" r="2.6" fill="#3fb950" opacity="0.7"/>
<circle cx="754.0" cy="437.2" r="2.6" fill="#3fb950" opacity="0.7"/>
<circle cx="769.1" cy="439.3" r="2.6" fill="#3fb950" opacity="0.7"/>
<circle cx="784.3" cy="442.0" r="2.6" fill="#3fb950" opacity="0.7"/>
<circle cx="97.7" cy="366.0" r="3.2" fill="#ff922b" opacity="0.85"/>
<circle cx="112.9" cy="389.9" r="3.2" fill="#ff922b" opacity="0.85"/>
<circle cx="128.0" cy="360.5" r="3.2" fill="#ff922b" opacity="0.85"/>
<circle cx="143.2" cy="388.6" r="3.2" fill="#ff922b" opacity="0.85"/>
<circle cx="158.4" cy="368.1" r="3.2" fill="#ff922b" opacity="0.85"/>
<circle cx="173.6" cy="358.0" r="3.2" fill="#ff922b" opacity="0.85"/>
<circle cx="188.7" cy="358.8" r="3.2" fill="#ff922b" opacity="0.85"/>
<circle cx="203.9" cy="362.4" r="3.2" fill="#ff922b" opacity="0.85"/>
<circle cx="219.1" cy="358.1" r="3.2" fill="#ff922b" opacity="0.85"/>
<circle cx="234.2" cy="361.4" r="3.2" fill="#ff922b" opacity="0.85"/>
<circle cx="249.4" cy="358.7" r="3.2" fill="#ff922b" opacity="0.85"/>
<circle cx="264.6" cy="367.7" r="3.2" fill="#ff922b" opacity="0.85"/>
<circle cx="279.7" cy="351.0" r="3.2" fill="#ff922b" opacity="0.85"/>
<circle cx="294.9" cy="348.8" r="3.2" fill="#ff922b" opacity="0.85"/>
<circle cx="310.1" cy="360.8" r="3.2" fill="#ff922b" opacity="0.85"/>
<circle cx="325.3" cy="381.2" r="3.2" fill="#ff922b" opacity="0.85"/>
<circle cx="340.4" cy="384.5" r="3.2" fill="#ff922b" opacity="0.85"/>
<circle cx="355.6" cy="359.0" r="3.2" fill="#ff922b" opacity="0.85"/>
<circle cx="370.8" cy="378.4" r="3.2" fill="#ff922b" opacity="0.85"/>
<circle cx="385.9" cy="370.7" r="3.2" fill="#ff922b" opacity="0.85"/>
<circle cx="401.1" cy="358.2" r="3.2" fill="#ff922b" opacity="0.85"/>
<circle cx="416.3" cy="352.0" r="3.2" fill="#ff922b" opacity="0.85"/>
<circle cx="431.4" cy="344.2" r="3.2" fill="#ff922b" opacity="0.85"/>
<circle cx="446.6" cy="350.5" r="3.2" fill="#ff922b" opacity="0.85"/>
<circle cx="461.8" cy="347.7" r="3.2" fill="#ff922b" opacity="0.85"/>
<circle cx="476.9" cy="348.4" r="3.2" fill="#ff922b" opacity="0.85"/>
<circle cx="492.1" cy="349.9" r="3.2" fill="#ff922b" opacity="0.85"/>
<circle cx="507.3" cy="347.8" r="3.2" fill="#ff922b" opacity="0.85"/>
<circle cx="522.5" cy="341.8" r="3.2" fill="#ff922b" opacity="0.85"/>
<circle cx="537.6" cy="345.3" r="3.2" fill="#ff922b" opacity="0.85"/>
<circle cx="552.8" cy="334.2" r="3.2" fill="#ff922b" opacity="0.85"/>
<circle cx="568.0" cy="366.7" r="3.2" fill="#ff922b" opacity="0.85"/>
<circle cx="583.1" cy="387.4" r="3.2" fill="#ff922b" opacity="0.85"/>
<circle cx="598.3" cy="357.9" r="3.2" fill="#ff922b" opacity="0.85"/>
<circle cx="613.5" cy="368.7" r="3.2" fill="#ff922b" opacity="0.85"/>
<circle cx="628.6" cy="358.0" r="3.2" fill="#ff922b" opacity="0.85"/>
<circle cx="643.8" cy="365.4" r="3.2" fill="#ff922b" opacity="0.85"/>
<circle cx="659.0" cy="368.5" r="3.2" fill="#ff922b" opacity="0.85"/>
<circle cx="674.2" cy="383.5" r="3.2" fill="#ff922b" opacity="0.85"/>
<circle cx="689.3" cy="367.2" r="3.2" fill="#ff922b" opacity="0.85"/>
<circle cx="704.5" cy="361.1" r="3.2" fill="#ff922b" opacity="0.85"/>
<circle cx="719.7" cy="362.8" r="3.2" fill="#ff922b" opacity="0.85"/>
<circle cx="734.8" cy="377.6" r="3.2" fill="#ff922b" opacity="0.85"/>
<circle cx="750.0" cy="379.0" r="3.2" fill="#ff922b" opacity="0.85"/>
<circle cx="765.2" cy="390.3" r="3.2" fill="#ff922b" opacity="0.85"/>
<circle cx="780.3" cy="391.2" r="3.2" fill="#ff922b" opacity="0.85"/>
<circle cx="847" cy="84" r="5" fill="#ff922b"/>
<text x="866" y="88" font-size="13" fill="#c9d1d9" font-weight="700">Kāra</text>
<line x1="836" y1="108" x2="858" y2="108" stroke="#a7b0bc" stroke-width="2" stroke-dasharray="5 4"/>
<text x="866" y="112" font-size="13" fill="#c9d1d9" font-weight="400">Rust = 1.0×</text>
<circle cx="847" cy="132" r="4" fill="#3fb950"/>
<text x="866" y="136" font-size="13" fill="#c9d1d9" font-weight="400">C</text>
<text x="70" y="538" font-size="11.5" fill="#8b949e">Each dot is one benchmarked program (kata × approach); there is no connecting line because left-to-right order is not meaningful. Raw numbers: bench-results.json</text>
</svg>