<svg xmlns="http://www.w3.org/2000/svg" width="980" height="560" viewBox="0 0 980 560" font-family="-apple-system,Segoe UI,Helvetica,Arial,sans-serif">
<rect width="980" height="560" fill="#282c34"/>
<text x="70" y="34" font-size="21" font-weight="700" fill="#c9d1d9">Compile time (cold)</text>
<text x="70" y="56" font-size="13" fill="#8b949e">relative to Rust = 1.0 · lower = faster · 40 programs</text>
<line x1="70" y1="456.0" x2="812" y2="456.0" stroke="#3b414b" stroke-width="1"/>
<text x="60" y="460.0" font-size="12" text-anchor="end" fill="#8b949e">0.0×</text>
<line x1="70" y1="330.0" x2="812" y2="330.0" stroke="#3b414b" stroke-width="1"/>
<text x="60" y="334.0" font-size="12" text-anchor="end" fill="#8b949e">0.5×</text>
<line x1="70" y1="204.0" x2="812" y2="204.0" stroke="#a7b0bc" stroke-width="2" stroke-dasharray="5 4"/>
<text x="60" y="208.0" font-size="12" text-anchor="end" fill="#aeb6c0" font-weight="700">1.0×</text>
<line x1="70" y1="78.0" x2="812" y2="78.0" stroke="#3b414b" stroke-width="1"/>
<text x="60" y="82.0" font-size="12" text-anchor="end" fill="#8b949e">1.5×</text>
<text x="812" y="198.0" font-size="11" text-anchor="end" fill="#aeb6c0">Rust baseline</text>
<line x1="70" y1="456" x2="812" y2="456" stroke="#3b414b"/>
<text x="441.0" y="478" font-size="11" text-anchor="middle" fill="#8b949e">40 programs (kata × approach) — x-order carries no meaning</text>
<circle cx="101.7" cy="312.9" r="2.6" fill="#3fb950" opacity="0.7"/>
<circle cx="119.2" cy="362.3" r="2.6" fill="#3fb950" opacity="0.7"/>
<circle cx="136.7" cy="344.1" r="2.6" fill="#3fb950" opacity="0.7"/>
<circle cx="154.2" cy="360.0" r="2.6" fill="#3fb950" opacity="0.7"/>
<circle cx="171.7" cy="333.9" r="2.6" fill="#3fb950" opacity="0.7"/>
<circle cx="189.2" cy="339.2" r="2.6" fill="#3fb950" opacity="0.7"/>
<circle cx="206.7" cy="350.6" r="2.6" fill="#3fb950" opacity="0.7"/>
<circle cx="224.2" cy="322.5" r="2.6" fill="#3fb950" opacity="0.7"/>
<circle cx="241.7" cy="320.0" r="2.6" fill="#3fb950" opacity="0.7"/>
<circle cx="259.2" cy="320.9" r="2.6" fill="#3fb950" opacity="0.7"/>
<circle cx="276.7" cy="330.9" r="2.6" fill="#3fb950" opacity="0.7"/>
<circle cx="294.2" cy="320.7" r="2.6" fill="#3fb950" opacity="0.7"/>
<circle cx="311.7" cy="320.4" r="2.6" fill="#3fb950" opacity="0.7"/>
<circle cx="329.2" cy="323.6" r="2.6" fill="#3fb950" opacity="0.7"/>
<circle cx="346.7" cy="341.5" r="2.6" fill="#3fb950" opacity="0.7"/>
<circle cx="364.2" cy="349.2" r="2.6" fill="#3fb950" opacity="0.7"/>
<circle cx="381.7" cy="353.7" r="2.6" fill="#3fb950" opacity="0.7"/>
<circle cx="399.2" cy="334.0" r="2.6" fill="#3fb950" opacity="0.7"/>
<circle cx="416.7" cy="347.9" r="2.6" fill="#3fb950" opacity="0.7"/>
<circle cx="434.2" cy="343.5" r="2.6" fill="#3fb950" opacity="0.7"/>
<circle cx="451.7" cy="307.2" r="2.6" fill="#3fb950" opacity="0.7"/>
<circle cx="469.2" cy="351.6" r="2.6" fill="#3fb950" opacity="0.7"/>
<circle cx="486.7" cy="320.9" r="2.6" fill="#3fb950" opacity="0.7"/>
<circle cx="504.2" cy="356.3" r="2.6" fill="#3fb950" opacity="0.7"/>
<circle cx="521.7" cy="348.3" r="2.6" fill="#3fb950" opacity="0.7"/>
<circle cx="539.2" cy="357.6" r="2.6" fill="#3fb950" opacity="0.7"/>
<circle cx="556.7" cy="354.7" r="2.6" fill="#3fb950" opacity="0.7"/>
<circle cx="574.3" cy="311.0" r="2.6" fill="#3fb950" opacity="0.7"/>
<circle cx="591.8" cy="363.0" r="2.6" fill="#3fb950" opacity="0.7"/>
<circle cx="609.3" cy="319.7" r="2.6" fill="#3fb950" opacity="0.7"/>
<circle cx="626.8" cy="315.3" r="2.6" fill="#3fb950" opacity="0.7"/>
<circle cx="644.3" cy="320.6" r="2.6" fill="#3fb950" opacity="0.7"/>
<circle cx="661.8" cy="361.6" r="2.6" fill="#3fb950" opacity="0.7"/>
<circle cx="679.3" cy="312.4" r="2.6" fill="#3fb950" opacity="0.7"/>
<circle cx="696.8" cy="316.7" r="2.6" fill="#3fb950" opacity="0.7"/>
<circle cx="714.3" cy="322.5" r="2.6" fill="#3fb950" opacity="0.7"/>
<circle cx="731.8" cy="353.6" r="2.6" fill="#3fb950" opacity="0.7"/>
<circle cx="749.3" cy="367.1" r="2.6" fill="#3fb950" opacity="0.7"/>
<circle cx="766.8" cy="359.8" r="2.6" fill="#3fb950" opacity="0.7"/>
<circle cx="784.3" cy="362.4" r="2.6" fill="#3fb950" opacity="0.7"/>
<circle cx="97.7" cy="266.5" r="3.2" fill="#ff922b" opacity="0.85"/>
<circle cx="115.2" cy="312.9" r="3.2" fill="#ff922b" opacity="0.85"/>
<circle cx="132.7" cy="277.1" r="3.2" fill="#ff922b" opacity="0.85"/>
<circle cx="150.2" cy="315.4" r="3.2" fill="#ff922b" opacity="0.85"/>
<circle cx="167.7" cy="265.9" r="3.2" fill="#ff922b" opacity="0.85"/>
<circle cx="185.2" cy="261.8" r="3.2" fill="#ff922b" opacity="0.85"/>
<circle cx="202.7" cy="276.2" r="3.2" fill="#ff922b" opacity="0.85"/>
<circle cx="220.2" cy="250.0" r="3.2" fill="#ff922b" opacity="0.85"/>
<circle cx="237.7" cy="238.4" r="3.2" fill="#ff922b" opacity="0.85"/>
<circle cx="255.2" cy="251.8" r="3.2" fill="#ff922b" opacity="0.85"/>
<circle cx="272.7" cy="280.5" r="3.2" fill="#ff922b" opacity="0.85"/>
<circle cx="290.2" cy="256.0" r="3.2" fill="#ff922b" opacity="0.85"/>
<circle cx="307.7" cy="234.7" r="3.2" fill="#ff922b" opacity="0.85"/>
<circle cx="325.3" cy="236.2" r="3.2" fill="#ff922b" opacity="0.85"/>
<circle cx="342.8" cy="282.4" r="3.2" fill="#ff922b" opacity="0.85"/>
<circle cx="360.3" cy="292.9" r="3.2" fill="#ff922b" opacity="0.85"/>
<circle cx="377.8" cy="298.0" r="3.2" fill="#ff922b" opacity="0.85"/>
<circle cx="395.3" cy="254.2" r="3.2" fill="#ff922b" opacity="0.85"/>
<circle cx="412.8" cy="290.9" r="3.2" fill="#ff922b" opacity="0.85"/>
<circle cx="430.3" cy="263.8" r="3.2" fill="#ff922b" opacity="0.85"/>
<circle cx="447.8" cy="219.7" r="3.2" fill="#ff922b" opacity="0.85"/>
<circle cx="465.3" cy="257.8" r="3.2" fill="#ff922b" opacity="0.85"/>
<circle cx="482.8" cy="226.4" r="3.2" fill="#ff922b" opacity="0.85"/>
<circle cx="500.3" cy="276.8" r="3.2" fill="#ff922b" opacity="0.85"/>
<circle cx="517.8" cy="258.2" r="3.2" fill="#ff922b" opacity="0.85"/>
<circle cx="535.3" cy="267.9" r="3.2" fill="#ff922b" opacity="0.85"/>
<circle cx="552.8" cy="298.8" r="3.2" fill="#ff922b" opacity="0.85"/>
<circle cx="570.3" cy="215.4" r="3.2" fill="#ff922b" opacity="0.85"/>
<circle cx="587.8" cy="284.0" r="3.2" fill="#ff922b" opacity="0.85"/>
<circle cx="605.3" cy="252.2" r="3.2" fill="#ff922b" opacity="0.85"/>
<circle cx="622.8" cy="232.6" r="3.2" fill="#ff922b" opacity="0.85"/>
<circle cx="640.3" cy="243.8" r="3.2" fill="#ff922b" opacity="0.85"/>
<circle cx="657.8" cy="322.4" r="3.2" fill="#ff922b" opacity="0.85"/>
<circle cx="675.3" cy="238.0" r="3.2" fill="#ff922b" opacity="0.85"/>
<circle cx="692.8" cy="250.8" r="3.2" fill="#ff922b" opacity="0.85"/>
<circle cx="710.3" cy="257.4" r="3.2" fill="#ff922b" opacity="0.85"/>
<circle cx="727.8" cy="308.7" r="3.2" fill="#ff922b" opacity="0.85"/>
<circle cx="745.3" cy="308.3" r="3.2" fill="#ff922b" opacity="0.85"/>
<circle cx="762.8" cy="304.2" r="3.2" fill="#ff922b" opacity="0.85"/>
<circle cx="780.3" cy="314.6" r="3.2" fill="#ff922b" opacity="0.85"/>
<circle cx="847" cy="84" r="5" fill="#ff922b"/>
<text x="866" y="88" font-size="13" fill="#c9d1d9" font-weight="700">Kāra</text>
<line x1="836" y1="108" x2="858" y2="108" stroke="#a7b0bc" stroke-width="2" stroke-dasharray="5 4"/>
<text x="866" y="112" font-size="13" fill="#c9d1d9" font-weight="400">Rust = 1.0×</text>
<circle cx="847" cy="132" r="4" fill="#3fb950"/>
<text x="866" y="136" font-size="13" fill="#c9d1d9" font-weight="400">C</text>
<text x="70" y="538" font-size="11.5" fill="#8b949e">Each dot is one benchmarked program (kata × approach); there is no connecting line because left-to-right order is not meaningful. Raw numbers: bench-results.json</text>
</svg>