<svg xmlns="http://www.w3.org/2000/svg" width="980" height="560" viewBox="0 0 980 560" font-family="-apple-system,Segoe UI,Helvetica,Arial,sans-serif">
<rect width="980" height="560" fill="#282c34"/>
<text x="70" y="34" font-size="21" font-weight="700" fill="#c9d1d9">Compile time (cold)</text>
<text x="70" y="56" font-size="13" fill="#8b949e">relative to Rust = 1.0 · lower = faster · 36 programs</text>
<line x1="70" y1="456.0" x2="812" y2="456.0" stroke="#3b414b" stroke-width="1"/>
<text x="60" y="460.0" font-size="12" text-anchor="end" fill="#8b949e">0.0×</text>
<line x1="70" y1="330.0" x2="812" y2="330.0" stroke="#3b414b" stroke-width="1"/>
<text x="60" y="334.0" font-size="12" text-anchor="end" fill="#8b949e">0.5×</text>
<line x1="70" y1="204.0" x2="812" y2="204.0" stroke="#6e7681" stroke-width="1.4" stroke-dasharray="5 4"/>
<text x="60" y="208.0" font-size="12" text-anchor="end" fill="#aeb6c0" font-weight="700">1.0×</text>
<line x1="70" y1="78.0" x2="812" y2="78.0" stroke="#3b414b" stroke-width="1"/>
<text x="60" y="82.0" font-size="12" text-anchor="end" fill="#8b949e">1.5×</text>
<text x="812" y="198.0" font-size="11" text-anchor="end" fill="#aeb6c0">Rust baseline</text>
<line x1="70" y1="456" x2="812" y2="456" stroke="#3b414b"/>
<text x="441.0" y="478" font-size="11" text-anchor="middle" fill="#8b949e">36 programs (kata × approach) — x-order carries no meaning</text>
<circle cx="101.7" cy="312.9" r="2.6" fill="#3fb950" opacity="0.7"/>
<circle cx="121.2" cy="362.3" r="2.6" fill="#3fb950" opacity="0.7"/>
<circle cx="140.7" cy="349.7" r="2.6" fill="#3fb950" opacity="0.7"/>
<circle cx="160.2" cy="360.0" r="2.6" fill="#3fb950" opacity="0.7"/>
<circle cx="179.7" cy="333.9" r="2.6" fill="#3fb950" opacity="0.7"/>
<circle cx="199.2" cy="339.2" r="2.6" fill="#3fb950" opacity="0.7"/>
<circle cx="218.7" cy="350.6" r="2.6" fill="#3fb950" opacity="0.7"/>
<circle cx="238.2" cy="322.5" r="2.6" fill="#3fb950" opacity="0.7"/>
<circle cx="257.7" cy="320.0" r="2.6" fill="#3fb950" opacity="0.7"/>
<circle cx="277.2" cy="320.9" r="2.6" fill="#3fb950" opacity="0.7"/>
<circle cx="296.7" cy="330.9" r="2.6" fill="#3fb950" opacity="0.7"/>
<circle cx="316.2" cy="320.7" r="2.6" fill="#3fb950" opacity="0.7"/>
<circle cx="335.7" cy="320.4" r="2.6" fill="#3fb950" opacity="0.7"/>
<circle cx="355.2" cy="323.6" r="2.6" fill="#3fb950" opacity="0.7"/>
<circle cx="374.7" cy="341.5" r="2.6" fill="#3fb950" opacity="0.7"/>
<circle cx="394.2" cy="349.2" r="2.6" fill="#3fb950" opacity="0.7"/>
<circle cx="413.7" cy="353.7" r="2.6" fill="#3fb950" opacity="0.7"/>
<circle cx="433.2" cy="334.0" r="2.6" fill="#3fb950" opacity="0.7"/>
<circle cx="452.7" cy="347.9" r="2.6" fill="#3fb950" opacity="0.7"/>
<circle cx="472.2" cy="343.5" r="2.6" fill="#3fb950" opacity="0.7"/>
<circle cx="491.7" cy="307.2" r="2.6" fill="#3fb950" opacity="0.7"/>
<circle cx="511.2" cy="352.4" r="2.6" fill="#3fb950" opacity="0.7"/>
<circle cx="530.7" cy="354.7" r="2.6" fill="#3fb950" opacity="0.7"/>
<circle cx="550.2" cy="311.0" r="2.6" fill="#3fb950" opacity="0.7"/>
<circle cx="569.8" cy="363.0" r="2.6" fill="#3fb950" opacity="0.7"/>
<circle cx="589.3" cy="319.7" r="2.6" fill="#3fb950" opacity="0.7"/>
<circle cx="608.8" cy="315.3" r="2.6" fill="#3fb950" opacity="0.7"/>
<circle cx="628.3" cy="320.6" r="2.6" fill="#3fb950" opacity="0.7"/>
<circle cx="647.8" cy="361.6" r="2.6" fill="#3fb950" opacity="0.7"/>
<circle cx="667.3" cy="312.4" r="2.6" fill="#3fb950" opacity="0.7"/>
<circle cx="686.8" cy="316.7" r="2.6" fill="#3fb950" opacity="0.7"/>
<circle cx="706.3" cy="322.5" r="2.6" fill="#3fb950" opacity="0.7"/>
<circle cx="725.8" cy="353.6" r="2.6" fill="#3fb950" opacity="0.7"/>
<circle cx="745.3" cy="367.1" r="2.6" fill="#3fb950" opacity="0.7"/>
<circle cx="764.8" cy="359.8" r="2.6" fill="#3fb950" opacity="0.7"/>
<circle cx="784.3" cy="362.4" r="2.6" fill="#3fb950" opacity="0.7"/>
<circle cx="97.7" cy="266.5" r="3.2" fill="#ff922b" opacity="0.85"/>
<circle cx="117.2" cy="312.9" r="3.2" fill="#ff922b" opacity="0.85"/>
<circle cx="136.7" cy="275.5" r="3.2" fill="#ff922b" opacity="0.85"/>
<circle cx="156.2" cy="315.4" r="3.2" fill="#ff922b" opacity="0.85"/>
<circle cx="175.7" cy="265.9" r="3.2" fill="#ff922b" opacity="0.85"/>
<circle cx="195.2" cy="261.8" r="3.2" fill="#ff922b" opacity="0.85"/>
<circle cx="214.7" cy="276.2" r="3.2" fill="#ff922b" opacity="0.85"/>
<circle cx="234.2" cy="250.0" r="3.2" fill="#ff922b" opacity="0.85"/>
<circle cx="253.7" cy="238.4" r="3.2" fill="#ff922b" opacity="0.85"/>
<circle cx="273.2" cy="251.8" r="3.2" fill="#ff922b" opacity="0.85"/>
<circle cx="292.7" cy="280.5" r="3.2" fill="#ff922b" opacity="0.85"/>
<circle cx="312.2" cy="256.0" r="3.2" fill="#ff922b" opacity="0.85"/>
<circle cx="331.8" cy="234.7" r="3.2" fill="#ff922b" opacity="0.85"/>
<circle cx="351.3" cy="236.2" r="3.2" fill="#ff922b" opacity="0.85"/>
<circle cx="370.8" cy="282.4" r="3.2" fill="#ff922b" opacity="0.85"/>
<circle cx="390.3" cy="292.9" r="3.2" fill="#ff922b" opacity="0.85"/>
<circle cx="409.8" cy="298.0" r="3.2" fill="#ff922b" opacity="0.85"/>
<circle cx="429.3" cy="254.2" r="3.2" fill="#ff922b" opacity="0.85"/>
<circle cx="448.8" cy="290.9" r="3.2" fill="#ff922b" opacity="0.85"/>
<circle cx="468.3" cy="263.8" r="3.2" fill="#ff922b" opacity="0.85"/>
<circle cx="487.8" cy="219.7" r="3.2" fill="#ff922b" opacity="0.85"/>
<circle cx="507.3" cy="260.8" r="3.2" fill="#ff922b" opacity="0.85"/>
<circle cx="526.8" cy="298.8" r="3.2" fill="#ff922b" opacity="0.85"/>
<circle cx="546.3" cy="215.4" r="3.2" fill="#ff922b" opacity="0.85"/>
<circle cx="565.8" cy="284.0" r="3.2" fill="#ff922b" opacity="0.85"/>
<circle cx="585.3" cy="252.2" r="3.2" fill="#ff922b" opacity="0.85"/>
<circle cx="604.8" cy="232.6" r="3.2" fill="#ff922b" opacity="0.85"/>
<circle cx="624.3" cy="243.8" r="3.2" fill="#ff922b" opacity="0.85"/>
<circle cx="643.8" cy="322.4" r="3.2" fill="#ff922b" opacity="0.85"/>
<circle cx="663.3" cy="238.0" r="3.2" fill="#ff922b" opacity="0.85"/>
<circle cx="682.8" cy="250.8" r="3.2" fill="#ff922b" opacity="0.85"/>
<circle cx="702.3" cy="257.4" r="3.2" fill="#ff922b" opacity="0.85"/>
<circle cx="721.8" cy="308.7" r="3.2" fill="#ff922b" opacity="0.85"/>
<circle cx="741.3" cy="308.3" r="3.2" fill="#ff922b" opacity="0.85"/>
<circle cx="760.8" cy="304.2" r="3.2" fill="#ff922b" opacity="0.85"/>
<circle cx="780.3" cy="314.6" r="3.2" fill="#ff922b" opacity="0.85"/>
<circle cx="847" cy="84" r="5" fill="#ff922b"/>
<text x="866" y="88" font-size="13" fill="#c9d1d9" font-weight="700">Kāra</text>
<line x1="836" y1="108" x2="858" y2="108" stroke="#6e7681" stroke-width="1.6" stroke-dasharray="5 4"/>
<text x="866" y="112" font-size="13" fill="#c9d1d9" font-weight="400">Rust</text>
<circle cx="847" cy="132" r="4" fill="#3fb950"/>
<text x="866" y="136" font-size="13" fill="#c9d1d9" font-weight="400">C</text>
<text x="70" y="538" font-size="11.5" fill="#8b949e">Each dot is one benchmarked program (kata × approach); there is no connecting line because left-to-right order is not meaningful. Raw numbers: bench-results.json</text>
</svg>