<svg xmlns="http://www.w3.org/2000/svg" width="980" height="560" viewBox="0 0 980 560" font-family="-apple-system,Segoe UI,Helvetica,Arial,sans-serif">
<rect width="980" height="560" fill="#282c34"/>
<text x="70" y="34" font-size="21" font-weight="700" fill="#c9d1d9">Compile time (cold)</text>
<text x="70" y="56" font-size="13" fill="#8b949e">relative to Rust = 1.0 · lower = faster · 96 programs</text>
<line x1="70" y1="456.0" x2="812" y2="456.0" stroke="#3b414b" stroke-width="1"/>
<text x="60" y="460.0" font-size="12" text-anchor="end" fill="#8b949e">0.0×</text>
<line x1="70" y1="330.0" x2="812" y2="330.0" stroke="#3b414b" stroke-width="1"/>
<text x="60" y="334.0" font-size="12" text-anchor="end" fill="#8b949e">0.5×</text>
<line x1="70" y1="204.0" x2="812" y2="204.0" stroke="#a7b0bc" stroke-width="2" stroke-dasharray="5 4"/>
<text x="60" y="208.0" font-size="12" text-anchor="end" fill="#aeb6c0" font-weight="700">1.0×</text>
<line x1="70" y1="78.0" x2="812" y2="78.0" stroke="#3b414b" stroke-width="1"/>
<text x="60" y="82.0" font-size="12" text-anchor="end" fill="#8b949e">1.5×</text>
<text x="812" y="198.0" font-size="11" text-anchor="end" fill="#aeb6c0">Rust baseline</text>
<line x1="70" y1="456" x2="812" y2="456" stroke="#3b414b"/>
<text x="441.0" y="478" font-size="11" text-anchor="middle" fill="#8b949e">96 programs (kata × approach) — x-order carries no meaning</text>
<circle cx="100.7" cy="315.0" r="2.6" fill="#3fb950" opacity="0.7"/>
<circle cx="107.8" cy="356.9" r="2.6" fill="#3fb950" opacity="0.7"/>
<circle cx="115.0" cy="353.5" r="2.6" fill="#3fb950" opacity="0.7"/>
<circle cx="122.2" cy="361.9" r="2.6" fill="#3fb950" opacity="0.7"/>
<circle cx="129.4" cy="337.9" r="2.6" fill="#3fb950" opacity="0.7"/>
<circle cx="136.6" cy="349.8" r="2.6" fill="#3fb950" opacity="0.7"/>
<circle cx="143.8" cy="362.0" r="2.6" fill="#3fb950" opacity="0.7"/>
<circle cx="151.0" cy="331.0" r="2.6" fill="#3fb950" opacity="0.7"/>
<circle cx="158.1" cy="332.2" r="2.6" fill="#3fb950" opacity="0.7"/>
<circle cx="165.3" cy="329.4" r="2.6" fill="#3fb950" opacity="0.7"/>
<circle cx="172.5" cy="331.8" r="2.6" fill="#3fb950" opacity="0.7"/>
<circle cx="179.7" cy="332.6" r="2.6" fill="#3fb950" opacity="0.7"/>
<circle cx="186.9" cy="331.2" r="2.6" fill="#3fb950" opacity="0.7"/>
<circle cx="194.1" cy="333.4" r="2.6" fill="#3fb950" opacity="0.7"/>
<circle cx="201.3" cy="342.8" r="2.6" fill="#3fb950" opacity="0.7"/>
<circle cx="208.4" cy="354.9" r="2.6" fill="#3fb950" opacity="0.7"/>
<circle cx="215.6" cy="360.0" r="2.6" fill="#3fb950" opacity="0.7"/>
<circle cx="222.8" cy="346.4" r="2.6" fill="#3fb950" opacity="0.7"/>
<circle cx="230.0" cy="354.4" r="2.6" fill="#3fb950" opacity="0.7"/>
<circle cx="237.2" cy="352.3" r="2.6" fill="#3fb950" opacity="0.7"/>
<circle cx="244.4" cy="324.8" r="2.6" fill="#3fb950" opacity="0.7"/>
<circle cx="251.6" cy="357.2" r="2.6" fill="#3fb950" opacity="0.7"/>
<circle cx="258.7" cy="334.3" r="2.6" fill="#3fb950" opacity="0.7"/>
<circle cx="265.9" cy="361.8" r="2.6" fill="#3fb950" opacity="0.7"/>
<circle cx="273.1" cy="353.3" r="2.6" fill="#3fb950" opacity="0.7"/>
<circle cx="280.3" cy="361.3" r="2.6" fill="#3fb950" opacity="0.7"/>
<circle cx="287.5" cy="333.6" r="2.6" fill="#3fb950" opacity="0.7"/>
<circle cx="294.7" cy="333.5" r="2.6" fill="#3fb950" opacity="0.7"/>
<circle cx="301.9" cy="325.5" r="2.6" fill="#3fb950" opacity="0.7"/>
<circle cx="309.0" cy="334.1" r="2.6" fill="#3fb950" opacity="0.7"/>
<circle cx="316.2" cy="320.0" r="2.6" fill="#3fb950" opacity="0.7"/>
<circle cx="323.4" cy="383.0" r="2.6" fill="#3fb950" opacity="0.7"/>
<circle cx="330.6" cy="326.9" r="2.6" fill="#3fb950" opacity="0.7"/>
<circle cx="337.8" cy="333.2" r="2.6" fill="#3fb950" opacity="0.7"/>
<circle cx="345.0" cy="326.8" r="2.6" fill="#3fb950" opacity="0.7"/>
<circle cx="352.2" cy="330.4" r="2.6" fill="#3fb950" opacity="0.7"/>
<circle cx="359.3" cy="330.7" r="2.6" fill="#3fb950" opacity="0.7"/>
<circle cx="366.5" cy="320.5" r="2.6" fill="#3fb950" opacity="0.7"/>
<circle cx="373.7" cy="325.7" r="2.6" fill="#3fb950" opacity="0.7"/>
<circle cx="380.9" cy="328.6" r="2.6" fill="#3fb950" opacity="0.7"/>
<circle cx="388.1" cy="328.3" r="2.6" fill="#3fb950" opacity="0.7"/>
<circle cx="395.3" cy="344.1" r="2.6" fill="#3fb950" opacity="0.7"/>
<circle cx="402.5" cy="321.5" r="2.6" fill="#3fb950" opacity="0.7"/>
<circle cx="409.6" cy="325.8" r="2.6" fill="#3fb950" opacity="0.7"/>
<circle cx="416.8" cy="341.0" r="2.6" fill="#3fb950" opacity="0.7"/>
<circle cx="424.0" cy="344.0" r="2.6" fill="#3fb950" opacity="0.7"/>
<circle cx="431.2" cy="333.3" r="2.6" fill="#3fb950" opacity="0.7"/>
<circle cx="438.4" cy="337.2" r="2.6" fill="#3fb950" opacity="0.7"/>
<circle cx="445.6" cy="364.4" r="2.6" fill="#3fb950" opacity="0.7"/>
<circle cx="452.8" cy="281.1" r="2.6" fill="#3fb950" opacity="0.7"/>
<circle cx="459.9" cy="352.0" r="2.6" fill="#3fb950" opacity="0.7"/>
<circle cx="467.1" cy="317.7" r="2.6" fill="#3fb950" opacity="0.7"/>
<circle cx="474.3" cy="320.1" r="2.6" fill="#3fb950" opacity="0.7"/>
<circle cx="481.5" cy="319.5" r="2.6" fill="#3fb950" opacity="0.7"/>
<circle cx="488.7" cy="180.7" r="2.6" fill="#3fb950" opacity="0.7"/>
<circle cx="495.9" cy="316.2" r="2.6" fill="#3fb950" opacity="0.7"/>
<circle cx="503.1" cy="324.5" r="2.6" fill="#3fb950" opacity="0.7"/>
<circle cx="510.2" cy="360.4" r="2.6" fill="#3fb950" opacity="0.7"/>
<circle cx="517.4" cy="359.0" r="2.6" fill="#3fb950" opacity="0.7"/>
<circle cx="524.6" cy="338.5" r="2.6" fill="#3fb950" opacity="0.7"/>
<circle cx="531.8" cy="340.9" r="2.6" fill="#3fb950" opacity="0.7"/>
<circle cx="539.0" cy="365.5" r="2.6" fill="#3fb950" opacity="0.7"/>
<circle cx="546.2" cy="332.1" r="2.6" fill="#3fb950" opacity="0.7"/>
<circle cx="553.4" cy="327.4" r="2.6" fill="#3fb950" opacity="0.7"/>
<circle cx="560.5" cy="330.3" r="2.6" fill="#3fb950" opacity="0.7"/>
<circle cx="567.7" cy="330.5" r="2.6" fill="#3fb950" opacity="0.7"/>
<circle cx="574.9" cy="319.8" r="2.6" fill="#3fb950" opacity="0.7"/>
<circle cx="582.1" cy="318.2" r="2.6" fill="#3fb950" opacity="0.7"/>
<circle cx="589.3" cy="323.1" r="2.6" fill="#3fb950" opacity="0.7"/>
<circle cx="596.5" cy="329.5" r="2.6" fill="#3fb950" opacity="0.7"/>
<circle cx="603.7" cy="366.0" r="2.6" fill="#3fb950" opacity="0.7"/>
<circle cx="610.8" cy="330.9" r="2.6" fill="#3fb950" opacity="0.7"/>
<circle cx="618.0" cy="246.1" r="2.6" fill="#3fb950" opacity="0.7"/>
<circle cx="625.2" cy="326.3" r="2.6" fill="#3fb950" opacity="0.7"/>
<circle cx="632.4" cy="329.0" r="2.6" fill="#3fb950" opacity="0.7"/>
<circle cx="639.6" cy="330.4" r="2.6" fill="#3fb950" opacity="0.7"/>
<circle cx="646.8" cy="335.7" r="2.6" fill="#3fb950" opacity="0.7"/>
<circle cx="654.0" cy="347.1" r="2.6" fill="#3fb950" opacity="0.7"/>
<circle cx="661.1" cy="335.3" r="2.6" fill="#3fb950" opacity="0.7"/>
<circle cx="668.3" cy="329.1" r="2.6" fill="#3fb950" opacity="0.7"/>
<circle cx="675.5" cy="321.1" r="2.6" fill="#3fb950" opacity="0.7"/>
<circle cx="682.7" cy="336.2" r="2.6" fill="#3fb950" opacity="0.7"/>
<circle cx="689.9" cy="332.2" r="2.6" fill="#3fb950" opacity="0.7"/>
<circle cx="697.1" cy="370.4" r="2.6" fill="#3fb950" opacity="0.7"/>
<circle cx="704.3" cy="329.1" r="2.6" fill="#3fb950" opacity="0.7"/>
<circle cx="711.4" cy="328.6" r="2.6" fill="#3fb950" opacity="0.7"/>
<circle cx="718.6" cy="350.8" r="2.6" fill="#3fb950" opacity="0.7"/>
<circle cx="725.8" cy="335.2" r="2.6" fill="#3fb950" opacity="0.7"/>
<circle cx="733.0" cy="365.5" r="2.6" fill="#3fb950" opacity="0.7"/>
<circle cx="740.2" cy="369.3" r="2.6" fill="#3fb950" opacity="0.7"/>
<circle cx="747.4" cy="346.0" r="2.6" fill="#3fb950" opacity="0.7"/>
<circle cx="754.6" cy="333.6" r="2.6" fill="#3fb950" opacity="0.7"/>
<circle cx="761.7" cy="336.0" r="2.6" fill="#3fb950" opacity="0.7"/>
<circle cx="768.9" cy="346.6" r="2.6" fill="#3fb950" opacity="0.7"/>
<circle cx="776.1" cy="366.3" r="2.6" fill="#3fb950" opacity="0.7"/>
<circle cx="783.3" cy="366.7" r="2.6" fill="#3fb950" opacity="0.7"/>
<circle cx="98.7" cy="221.7" r="3.2" fill="#ff922b" opacity="0.85"/>
<circle cx="105.9" cy="294.4" r="3.2" fill="#ff922b" opacity="0.85"/>
<circle cx="113.1" cy="289.1" r="3.2" fill="#ff922b" opacity="0.85"/>
<circle cx="120.3" cy="308.1" r="3.2" fill="#ff922b" opacity="0.85"/>
<circle cx="127.4" cy="258.4" r="3.2" fill="#ff922b" opacity="0.85"/>
<circle cx="134.6" cy="277.4" r="3.2" fill="#ff922b" opacity="0.85"/>
<circle cx="141.8" cy="293.8" r="3.2" fill="#ff922b" opacity="0.85"/>
<circle cx="149.0" cy="253.7" r="3.2" fill="#ff922b" opacity="0.85"/>
<circle cx="156.2" cy="239.7" r="3.2" fill="#ff922b" opacity="0.85"/>
<circle cx="163.4" cy="252.9" r="3.2" fill="#ff922b" opacity="0.85"/>
<circle cx="170.6" cy="235.2" r="3.2" fill="#ff922b" opacity="0.85"/>
<circle cx="177.7" cy="259.9" r="3.2" fill="#ff922b" opacity="0.85"/>
<circle cx="184.9" cy="252.1" r="3.2" fill="#ff922b" opacity="0.85"/>
<circle cx="192.1" cy="248.8" r="3.2" fill="#ff922b" opacity="0.85"/>
<circle cx="199.3" cy="276.3" r="3.2" fill="#ff922b" opacity="0.85"/>
<circle cx="206.5" cy="285.5" r="3.2" fill="#ff922b" opacity="0.85"/>
<circle cx="213.7" cy="296.9" r="3.2" fill="#ff922b" opacity="0.85"/>
<circle cx="220.9" cy="264.3" r="3.2" fill="#ff922b" opacity="0.85"/>
<circle cx="228.0" cy="271.4" r="3.2" fill="#ff922b" opacity="0.85"/>
<circle cx="235.2" cy="274.6" r="3.2" fill="#ff922b" opacity="0.85"/>
<circle cx="242.4" cy="249.4" r="3.2" fill="#ff922b" opacity="0.85"/>
<circle cx="249.6" cy="270.7" r="3.2" fill="#ff922b" opacity="0.85"/>
<circle cx="256.8" cy="258.2" r="3.2" fill="#ff922b" opacity="0.85"/>
<circle cx="264.0" cy="283.1" r="3.2" fill="#ff922b" opacity="0.85"/>
<circle cx="271.2" cy="273.2" r="3.2" fill="#ff922b" opacity="0.85"/>
<circle cx="278.3" cy="279.2" r="3.2" fill="#ff922b" opacity="0.85"/>
<circle cx="285.5" cy="272.8" r="3.2" fill="#ff922b" opacity="0.85"/>
<circle cx="292.7" cy="266.9" r="3.2" fill="#ff922b" opacity="0.85"/>
<circle cx="299.9" cy="235.8" r="3.2" fill="#ff922b" opacity="0.85"/>
<circle cx="307.1" cy="258.6" r="3.2" fill="#ff922b" opacity="0.85"/>
<circle cx="314.3" cy="231.2" r="3.2" fill="#ff922b" opacity="0.85"/>
<circle cx="321.5" cy="344.8" r="3.2" fill="#ff922b" opacity="0.85"/>
<circle cx="328.6" cy="245.1" r="3.2" fill="#ff922b" opacity="0.85"/>
<circle cx="335.8" cy="250.3" r="3.2" fill="#ff922b" opacity="0.85"/>
<circle cx="343.0" cy="250.7" r="3.2" fill="#ff922b" opacity="0.85"/>
<circle cx="350.2" cy="256.7" r="3.2" fill="#ff922b" opacity="0.85"/>
<circle cx="357.4" cy="254.8" r="3.2" fill="#ff922b" opacity="0.85"/>
<circle cx="364.6" cy="156.8" r="3.2" fill="#ff922b" opacity="0.85"/>
<circle cx="371.8" cy="212.9" r="3.2" fill="#ff922b" opacity="0.85"/>
<circle cx="378.9" cy="253.4" r="3.2" fill="#ff922b" opacity="0.85"/>
<circle cx="386.1" cy="248.6" r="3.2" fill="#ff922b" opacity="0.85"/>
<circle cx="393.3" cy="270.6" r="3.2" fill="#ff922b" opacity="0.85"/>
<circle cx="400.5" cy="240.8" r="3.2" fill="#ff922b" opacity="0.85"/>
<circle cx="407.7" cy="255.3" r="3.2" fill="#ff922b" opacity="0.85"/>
<circle cx="414.9" cy="265.7" r="3.2" fill="#ff922b" opacity="0.85"/>
<circle cx="422.1" cy="270.9" r="3.2" fill="#ff922b" opacity="0.85"/>
<circle cx="429.2" cy="235.5" r="3.2" fill="#ff922b" opacity="0.85"/>
<circle cx="436.4" cy="266.7" r="3.2" fill="#ff922b" opacity="0.85"/>
<circle cx="443.6" cy="298.2" r="3.2" fill="#ff922b" opacity="0.85"/>
<circle cx="450.8" cy="289.4" r="3.2" fill="#ff922b" opacity="0.85"/>
<circle cx="458.0" cy="318.7" r="3.2" fill="#ff922b" opacity="0.85"/>
<circle cx="465.2" cy="196.6" r="3.2" fill="#ff922b" opacity="0.85"/>
<circle cx="472.4" cy="192.8" r="3.2" fill="#ff922b" opacity="0.85"/>
<circle cx="479.5" cy="194.7" r="3.2" fill="#ff922b" opacity="0.85"/>
<circle cx="486.7" cy="203.1" r="3.2" fill="#ff922b" opacity="0.85"/>
<circle cx="493.9" cy="201.3" r="3.2" fill="#ff922b" opacity="0.85"/>
<circle cx="501.1" cy="223.1" r="3.2" fill="#ff922b" opacity="0.85"/>
<circle cx="508.3" cy="303.9" r="3.2" fill="#ff922b" opacity="0.85"/>
<circle cx="515.5" cy="267.5" r="3.2" fill="#ff922b" opacity="0.85"/>
<circle cx="522.7" cy="251.8" r="3.2" fill="#ff922b" opacity="0.85"/>
<circle cx="529.8" cy="231.3" r="3.2" fill="#ff922b" opacity="0.85"/>
<circle cx="537.0" cy="189.9" r="3.2" fill="#ff922b" opacity="0.85"/>
<circle cx="544.2" cy="210.5" r="3.2" fill="#ff922b" opacity="0.85"/>
<circle cx="551.4" cy="204.3" r="3.2" fill="#ff922b" opacity="0.85"/>
<circle cx="558.6" cy="211.0" r="3.2" fill="#ff922b" opacity="0.85"/>
<circle cx="565.8" cy="239.0" r="3.2" fill="#ff922b" opacity="0.85"/>
<circle cx="573.0" cy="168.4" r="3.2" fill="#ff922b" opacity="0.85"/>
<circle cx="580.1" cy="149.6" r="3.2" fill="#ff922b" opacity="0.85"/>
<circle cx="587.3" cy="172.8" r="3.2" fill="#ff922b" opacity="0.85"/>
<circle cx="594.5" cy="173.8" r="3.2" fill="#ff922b" opacity="0.85"/>
<circle cx="601.7" cy="283.0" r="3.2" fill="#ff922b" opacity="0.85"/>
<circle cx="608.9" cy="221.1" r="3.2" fill="#ff922b" opacity="0.85"/>
<circle cx="616.1" cy="242.6" r="3.2" fill="#ff922b" opacity="0.85"/>
<circle cx="623.3" cy="209.0" r="3.2" fill="#ff922b" opacity="0.85"/>
<circle cx="630.4" cy="193.9" r="3.2" fill="#ff922b" opacity="0.85"/>
<circle cx="637.6" cy="191.7" r="3.2" fill="#ff922b" opacity="0.85"/>
<circle cx="644.8" cy="197.4" r="3.2" fill="#ff922b" opacity="0.85"/>
<circle cx="652.0" cy="226.6" r="3.2" fill="#ff922b" opacity="0.85"/>
<circle cx="659.2" cy="270.9" r="3.2" fill="#ff922b" opacity="0.85"/>
<circle cx="666.4" cy="244.3" r="3.2" fill="#ff922b" opacity="0.85"/>
<circle cx="673.6" cy="197.4" r="3.2" fill="#ff922b" opacity="0.85"/>
<circle cx="680.7" cy="267.1" r="3.2" fill="#ff922b" opacity="0.85"/>
<circle cx="687.9" cy="250.5" r="3.2" fill="#ff922b" opacity="0.85"/>
<circle cx="695.1" cy="325.9" r="3.2" fill="#ff922b" opacity="0.85"/>
<circle cx="702.3" cy="251.9" r="3.2" fill="#ff922b" opacity="0.85"/>
<circle cx="709.5" cy="263.9" r="3.2" fill="#ff922b" opacity="0.85"/>
<circle cx="716.7" cy="284.8" r="3.2" fill="#ff922b" opacity="0.85"/>
<circle cx="723.9" cy="260.3" r="3.2" fill="#ff922b" opacity="0.85"/>
<circle cx="731.0" cy="304.3" r="3.2" fill="#ff922b" opacity="0.85"/>
<circle cx="738.2" cy="303.9" r="3.2" fill="#ff922b" opacity="0.85"/>
<circle cx="745.4" cy="264.7" r="3.2" fill="#ff922b" opacity="0.85"/>
<circle cx="752.6" cy="269.4" r="3.2" fill="#ff922b" opacity="0.85"/>
<circle cx="759.8" cy="259.4" r="3.2" fill="#ff922b" opacity="0.85"/>
<circle cx="767.0" cy="256.4" r="3.2" fill="#ff922b" opacity="0.85"/>
<circle cx="774.2" cy="313.0" r="3.2" fill="#ff922b" opacity="0.85"/>
<circle cx="781.3" cy="311.6" r="3.2" fill="#ff922b" opacity="0.85"/>
<circle cx="847" cy="84" r="5" fill="#ff922b"/>
<text x="866" y="88" font-size="13" fill="#c9d1d9" font-weight="700">Kāra</text>
<line x1="836" y1="108" x2="858" y2="108" stroke="#a7b0bc" stroke-width="2" stroke-dasharray="5 4"/>
<text x="866" y="112" font-size="13" fill="#c9d1d9" font-weight="400">Rust = 1.0×</text>
<circle cx="847" cy="132" r="4" fill="#3fb950"/>
<text x="866" y="136" font-size="13" fill="#c9d1d9" font-weight="400">C</text>
<text x="70" y="538" font-size="11.5" fill="#8b949e">Each dot is one benchmarked program (kata × approach); there is no connecting line because left-to-right order is not meaningful. Raw numbers: bench-results.json</text>
</svg>