<svg xmlns="http://www.w3.org/2000/svg" width="980" height="560" viewBox="0 0 980 560" font-family="-apple-system,Segoe UI,Helvetica,Arial,sans-serif">
<rect width="980" height="560" fill="#282c34"/>
<text x="70" y="34" font-size="21" font-weight="700" fill="#c9d1d9">Compile time (cold)</text>
<text x="70" y="56" font-size="13" fill="#8b949e">relative to Rust = 1.0 · lower = faster · 25 programs</text>
<line x1="70" y1="456.0" x2="812" y2="456.0" stroke="#3b414b" stroke-width="1"/>
<text x="60" y="460.0" font-size="12" text-anchor="end" fill="#8b949e">0.0×</text>
<line x1="70" y1="330.0" x2="812" y2="330.0" stroke="#3b414b" stroke-width="1"/>
<text x="60" y="334.0" font-size="12" text-anchor="end" fill="#8b949e">0.5×</text>
<line x1="70" y1="204.0" x2="812" y2="204.0" stroke="#6e7681" stroke-width="1.4" stroke-dasharray="5 4"/>
<text x="60" y="208.0" font-size="12" text-anchor="end" fill="#aeb6c0" font-weight="700">1.0×</text>
<line x1="70" y1="78.0" x2="812" y2="78.0" stroke="#3b414b" stroke-width="1"/>
<text x="60" y="82.0" font-size="12" text-anchor="end" fill="#8b949e">1.5×</text>
<text x="812" y="198.0" font-size="11" text-anchor="end" fill="#aeb6c0">Rust baseline</text>
<line x1="99.7" y1="456" x2="99.7" y2="461" stroke="#3b414b"/>
<g transform="translate(99.7,474) rotate(35)">
<text x="0" y="0" font-size="10.5" fill="#8b949e">#1</text>
<text x="0" y="12" font-size="10.5" fill="#8b949e">brute_force</text>
</g>
<line x1="128.1" y1="456" x2="128.1" y2="461" stroke="#3b414b"/>
<g transform="translate(128.1,474) rotate(35)">
<text x="0" y="0" font-size="10.5" fill="#8b949e">#1</text>
<text x="0" y="12" font-size="10.5" fill="#8b949e">hash_map</text>
</g>
<line x1="156.6" y1="456" x2="156.6" y2="461" stroke="#3b414b"/>
<g transform="translate(156.6,474) rotate(35)">
<text x="0" y="0" font-size="10.5" fill="#8b949e">#2</text>
<text x="0" y="12" font-size="10.5" fill="#8b949e">iterative</text>
</g>
<line x1="185.0" y1="456" x2="185.0" y2="461" stroke="#3b414b"/>
<g transform="translate(185.0,474) rotate(35)">
<text x="0" y="0" font-size="10.5" fill="#8b949e">#3</text>
<text x="0" y="12" font-size="10.5" fill="#8b949e">sliding_window</text>
</g>
<line x1="213.5" y1="456" x2="213.5" y2="461" stroke="#3b414b"/>
<g transform="translate(213.5,474) rotate(35)">
<text x="0" y="0" font-size="10.5" fill="#8b949e">#4</text>
<text x="0" y="12" font-size="10.5" fill="#8b949e">binary_search…</text>
</g>
<line x1="241.9" y1="456" x2="241.9" y2="461" stroke="#3b414b"/>
<g transform="translate(241.9,474) rotate(35)">
<text x="0" y="0" font-size="10.5" fill="#8b949e">#5</text>
<text x="0" y="12" font-size="10.5" fill="#8b949e">expand_around…</text>
</g>
<line x1="270.3" y1="456" x2="270.3" y2="461" stroke="#3b414b"/>
<g transform="translate(270.3,474) rotate(35)">
<text x="0" y="0" font-size="10.5" fill="#8b949e">#6</text>
<text x="0" y="12" font-size="10.5" fill="#8b949e">row_buffers</text>
</g>
<line x1="298.8" y1="456" x2="298.8" y2="461" stroke="#3b414b"/>
<g transform="translate(298.8,474) rotate(35)">
<text x="0" y="0" font-size="10.5" fill="#8b949e">#7</text>
<text x="0" y="12" font-size="10.5" fill="#8b949e">reverse</text>
</g>
<line x1="327.2" y1="456" x2="327.2" y2="461" stroke="#3b414b"/>
<g transform="translate(327.2,474) rotate(35)">
<text x="0" y="0" font-size="10.5" fill="#8b949e">#8</text>
<text x="0" y="12" font-size="10.5" fill="#8b949e">atoi</text>
</g>
<line x1="355.7" y1="456" x2="355.7" y2="461" stroke="#3b414b"/>
<g transform="translate(355.7,474) rotate(35)">
<text x="0" y="0" font-size="10.5" fill="#8b949e">#9</text>
<text x="0" y="12" font-size="10.5" fill="#8b949e">palindrome</text>
</g>
<line x1="384.1" y1="456" x2="384.1" y2="461" stroke="#3b414b"/>
<g transform="translate(384.1,474) rotate(35)">
<text x="0" y="0" font-size="10.5" fill="#8b949e">#10</text>
<text x="0" y="12" font-size="10.5" fill="#8b949e">regex</text>
</g>
<line x1="412.6" y1="456" x2="412.6" y2="461" stroke="#3b414b"/>
<g transform="translate(412.6,474) rotate(35)">
<text x="0" y="0" font-size="10.5" fill="#8b949e">#11</text>
<text x="0" y="12" font-size="10.5" fill="#8b949e">container</text>
</g>
<line x1="441.0" y1="456" x2="441.0" y2="461" stroke="#3b414b"/>
<g transform="translate(441.0,474) rotate(35)">
<text x="0" y="0" font-size="10.5" fill="#8b949e">#12</text>
<text x="0" y="12" font-size="10.5" fill="#8b949e">greedy</text>
</g>
<line x1="469.4" y1="456" x2="469.4" y2="461" stroke="#3b414b"/>
<g transform="translate(469.4,474) rotate(35)">
<text x="0" y="0" font-size="10.5" fill="#8b949e">#13</text>
<text x="0" y="12" font-size="10.5" fill="#8b949e">greedy</text>
</g>
<line x1="497.9" y1="456" x2="497.9" y2="461" stroke="#3b414b"/>
<g transform="translate(497.9,474) rotate(35)">
<text x="0" y="0" font-size="10.5" fill="#8b949e">#14</text>
<text x="0" y="12" font-size="10.5" fill="#8b949e">vertical</text>
</g>
<line x1="526.3" y1="456" x2="526.3" y2="461" stroke="#3b414b"/>
<g transform="translate(526.3,474) rotate(35)">
<text x="0" y="0" font-size="10.5" fill="#8b949e">#15</text>
<text x="0" y="12" font-size="10.5" fill="#8b949e">three_sum</text>
</g>
<line x1="554.8" y1="456" x2="554.8" y2="461" stroke="#3b414b"/>
<g transform="translate(554.8,474) rotate(35)">
<text x="0" y="0" font-size="10.5" fill="#8b949e">#16</text>
<text x="0" y="12" font-size="10.5" fill="#8b949e">three_sum_clo…</text>
</g>
<line x1="583.2" y1="456" x2="583.2" y2="461" stroke="#3b414b"/>
<g transform="translate(583.2,474) rotate(35)">
<text x="0" y="0" font-size="10.5" fill="#8b949e">#17</text>
<text x="0" y="12" font-size="10.5" fill="#8b949e">letter_combin…</text>
</g>
<line x1="611.7" y1="456" x2="611.7" y2="461" stroke="#3b414b"/>
<g transform="translate(611.7,474) rotate(35)">
<text x="0" y="0" font-size="10.5" fill="#8b949e">#18</text>
<text x="0" y="12" font-size="10.5" fill="#8b949e">four_sum</text>
</g>
<line x1="640.1" y1="456" x2="640.1" y2="461" stroke="#3b414b"/>
<g transform="translate(640.1,474) rotate(35)">
<text x="0" y="0" font-size="10.5" fill="#8b949e">#19</text>
<text x="0" y="12" font-size="10.5" fill="#8b949e">remove_nth</text>
</g>
<line x1="668.5" y1="456" x2="668.5" y2="461" stroke="#3b414b"/>
<g transform="translate(668.5,474) rotate(35)">
<text x="0" y="0" font-size="10.5" fill="#8b949e">#20</text>
<text x="0" y="12" font-size="10.5" fill="#8b949e">valid_parenth…</text>
</g>
<line x1="697.0" y1="456" x2="697.0" y2="461" stroke="#3b414b"/>
<g transform="translate(697.0,474) rotate(35)">
<text x="0" y="0" font-size="10.5" fill="#8b949e">#21</text>
<text x="0" y="12" font-size="10.5" fill="#8b949e">iterative</text>
</g>
<line x1="725.4" y1="456" x2="725.4" y2="461" stroke="#3b414b"/>
<g transform="translate(725.4,474) rotate(35)">
<text x="0" y="0" font-size="10.5" fill="#8b949e">#56</text>
<text x="0" y="12" font-size="10.5" fill="#8b949e">merge_interva…</text>
</g>
<line x1="753.9" y1="456" x2="753.9" y2="461" stroke="#3b414b"/>
<g transform="translate(753.9,474) rotate(35)">
<text x="0" y="0" font-size="10.5" fill="#8b949e">#65</text>
<text x="0" y="12" font-size="10.5" fill="#8b949e">valid</text>
</g>
<line x1="782.3" y1="456" x2="782.3" y2="461" stroke="#3b414b"/>
<g transform="translate(782.3,474) rotate(35)">
<text x="0" y="0" font-size="10.5" fill="#8b949e">#204</text>
<text x="0" y="12" font-size="10.5" fill="#8b949e">count</text>
</g>
<circle cx="102.6" cy="312.9" r="4.0" fill="#3fb950" opacity="0.95"/>
<circle cx="131.0" cy="362.3" r="4.0" fill="#3fb950" opacity="0.95"/>
<circle cx="159.4" cy="349.7" r="4.0" fill="#3fb950" opacity="0.95"/>
<circle cx="187.9" cy="360.0" r="4.0" fill="#3fb950" opacity="0.95"/>
<circle cx="216.3" cy="333.9" r="4.0" fill="#3fb950" opacity="0.95"/>
<circle cx="244.8" cy="344.2" r="4.0" fill="#3fb950" opacity="0.95"/>
<circle cx="273.2" cy="356.2" r="4.0" fill="#3fb950" opacity="0.95"/>
<circle cx="301.7" cy="322.5" r="4.0" fill="#3fb950" opacity="0.95"/>
<circle cx="330.1" cy="320.0" r="4.0" fill="#3fb950" opacity="0.95"/>
<circle cx="358.5" cy="320.9" r="4.0" fill="#3fb950" opacity="0.95"/>
<circle cx="387.0" cy="330.9" r="4.0" fill="#3fb950" opacity="0.95"/>
<circle cx="415.4" cy="320.7" r="4.0" fill="#3fb950" opacity="0.95"/>
<circle cx="443.9" cy="320.4" r="4.0" fill="#3fb950" opacity="0.95"/>
<circle cx="472.3" cy="323.6" r="4.0" fill="#3fb950" opacity="0.95"/>
<circle cx="500.8" cy="341.5" r="4.0" fill="#3fb950" opacity="0.95"/>
<circle cx="529.2" cy="349.2" r="4.0" fill="#3fb950" opacity="0.95"/>
<circle cx="557.6" cy="353.7" r="4.0" fill="#3fb950" opacity="0.95"/>
<circle cx="586.1" cy="334.0" r="4.0" fill="#3fb950" opacity="0.95"/>
<circle cx="614.5" cy="347.9" r="4.0" fill="#3fb950" opacity="0.95"/>
<circle cx="643.0" cy="343.5" r="4.0" fill="#3fb950" opacity="0.95"/>
<circle cx="671.4" cy="307.2" r="4.0" fill="#3fb950" opacity="0.95"/>
<circle cx="699.9" cy="352.4" r="4.0" fill="#3fb950" opacity="0.95"/>
<circle cx="728.3" cy="354.7" r="4.0" fill="#3fb950" opacity="0.95"/>
<circle cx="756.8" cy="311.0" r="4.0" fill="#3fb950" opacity="0.95"/>
<circle cx="785.2" cy="322.5" r="4.0" fill="#3fb950" opacity="0.95"/>
<circle cx="96.8" cy="266.5" r="5.0" fill="#ff922b" opacity="1.0"/>
<circle cx="125.2" cy="312.9" r="5.0" fill="#ff922b" opacity="1.0"/>
<circle cx="153.7" cy="275.5" r="5.0" fill="#ff922b" opacity="1.0"/>
<circle cx="182.1" cy="315.4" r="5.0" fill="#ff922b" opacity="1.0"/>
<circle cx="210.6" cy="265.9" r="5.0" fill="#ff922b" opacity="1.0"/>
<circle cx="239.0" cy="285.9" r="5.0" fill="#ff922b" opacity="1.0"/>
<circle cx="267.5" cy="292.8" r="5.0" fill="#ff922b" opacity="1.0"/>
<circle cx="295.9" cy="250.0" r="5.0" fill="#ff922b" opacity="1.0"/>
<circle cx="324.4" cy="238.4" r="5.0" fill="#ff922b" opacity="1.0"/>
<circle cx="352.8" cy="251.8" r="5.0" fill="#ff922b" opacity="1.0"/>
<circle cx="381.2" cy="280.5" r="5.0" fill="#ff922b" opacity="1.0"/>
<circle cx="409.7" cy="256.0" r="5.0" fill="#ff922b" opacity="1.0"/>
<circle cx="438.1" cy="234.7" r="5.0" fill="#ff922b" opacity="1.0"/>
<circle cx="466.6" cy="236.2" r="5.0" fill="#ff922b" opacity="1.0"/>
<circle cx="495.0" cy="282.4" r="5.0" fill="#ff922b" opacity="1.0"/>
<circle cx="523.5" cy="292.9" r="5.0" fill="#ff922b" opacity="1.0"/>
<circle cx="551.9" cy="298.0" r="5.0" fill="#ff922b" opacity="1.0"/>
<circle cx="580.3" cy="254.2" r="5.0" fill="#ff922b" opacity="1.0"/>
<circle cx="608.8" cy="290.9" r="5.0" fill="#ff922b" opacity="1.0"/>
<circle cx="637.2" cy="263.8" r="5.0" fill="#ff922b" opacity="1.0"/>
<circle cx="665.7" cy="219.7" r="5.0" fill="#ff922b" opacity="1.0"/>
<circle cx="694.1" cy="260.8" r="5.0" fill="#ff922b" opacity="1.0"/>
<circle cx="722.6" cy="298.8" r="5.0" fill="#ff922b" opacity="1.0"/>
<circle cx="751.0" cy="215.4" r="5.0" fill="#ff922b" opacity="1.0"/>
<circle cx="779.4" cy="257.4" r="5.0" fill="#ff922b" opacity="1.0"/>
<circle cx="847" cy="84" r="5" fill="#ff922b"/>
<text x="866" y="88" font-size="13" fill="#c9d1d9" font-weight="700">Kāra</text>
<line x1="836" y1="108" x2="858" y2="108" stroke="#6e7681" stroke-width="1.6" stroke-dasharray="5 4"/>
<text x="866" y="112" font-size="13" fill="#c9d1d9" font-weight="400">Rust</text>
<circle cx="847" cy="132" r="4" fill="#3fb950"/>
<text x="866" y="136" font-size="13" fill="#c9d1d9" font-weight="400">C</text>
<text x="70" y="538" font-size="11.5" fill="#8b949e">Each dot is one benchmarked program (kata × approach); there is no connecting line because left-to-right order is not meaningful. Raw numbers: bench-results.json</text>
</svg>