<svg xmlns="http://www.w3.org/2000/svg" width="980" height="560" viewBox="0 0 980 560" font-family="-apple-system,Segoe UI,Helvetica,Arial,sans-serif">
<rect width="980" height="560" fill="#282c34"/>
<text x="70" y="34" font-size="21" font-weight="700" fill="#c9d1d9">Compile time (cold)</text>
<text x="70" y="56" font-size="13" fill="#8b949e">relative to Rust = 1.0 · lower = faster · 99 programs</text>
<line x1="70" y1="456.0" x2="812" y2="456.0" stroke="#3b414b" stroke-width="1"/>
<text x="60" y="460.0" font-size="12" text-anchor="end" fill="#8b949e">0.0×</text>
<line x1="70" y1="330.0" x2="812" y2="330.0" stroke="#3b414b" stroke-width="1"/>
<text x="60" y="334.0" font-size="12" text-anchor="end" fill="#8b949e">0.5×</text>
<line x1="70" y1="204.0" x2="812" y2="204.0" stroke="#a7b0bc" stroke-width="2" stroke-dasharray="5 4"/>
<text x="60" y="208.0" font-size="12" text-anchor="end" fill="#aeb6c0" font-weight="700">1.0×</text>
<line x1="70" y1="78.0" x2="812" y2="78.0" stroke="#3b414b" stroke-width="1"/>
<text x="60" y="82.0" font-size="12" text-anchor="end" fill="#8b949e">1.5×</text>
<text x="812" y="198.0" font-size="11" text-anchor="end" fill="#aeb6c0">Rust baseline</text>
<line x1="70" y1="456" x2="812" y2="456" stroke="#3b414b"/>
<text x="441.0" y="478" font-size="11" text-anchor="middle" fill="#8b949e">99 programs (kata × approach) — x-order carries no meaning</text>
<circle cx="100.6" cy="315.0" r="2.6" fill="#3fb950" opacity="0.7"/>
<circle cx="107.6" cy="356.9" r="2.6" fill="#3fb950" opacity="0.7"/>
<circle cx="114.6" cy="353.5" r="2.6" fill="#3fb950" opacity="0.7"/>
<circle cx="121.5" cy="361.9" r="2.6" fill="#3fb950" opacity="0.7"/>
<circle cx="128.5" cy="337.9" r="2.6" fill="#3fb950" opacity="0.7"/>
<circle cx="135.5" cy="349.8" r="2.6" fill="#3fb950" opacity="0.7"/>
<circle cx="142.4" cy="362.0" r="2.6" fill="#3fb950" opacity="0.7"/>
<circle cx="149.4" cy="331.0" r="2.6" fill="#3fb950" opacity="0.7"/>
<circle cx="156.4" cy="332.2" r="2.6" fill="#3fb950" opacity="0.7"/>
<circle cx="163.3" cy="329.4" r="2.6" fill="#3fb950" opacity="0.7"/>
<circle cx="170.3" cy="331.8" r="2.6" fill="#3fb950" opacity="0.7"/>
<circle cx="177.2" cy="332.6" r="2.6" fill="#3fb950" opacity="0.7"/>
<circle cx="184.2" cy="331.2" r="2.6" fill="#3fb950" opacity="0.7"/>
<circle cx="191.2" cy="333.4" r="2.6" fill="#3fb950" opacity="0.7"/>
<circle cx="198.1" cy="342.8" r="2.6" fill="#3fb950" opacity="0.7"/>
<circle cx="205.1" cy="354.9" r="2.6" fill="#3fb950" opacity="0.7"/>
<circle cx="212.1" cy="360.0" r="2.6" fill="#3fb950" opacity="0.7"/>
<circle cx="219.0" cy="346.4" r="2.6" fill="#3fb950" opacity="0.7"/>
<circle cx="226.0" cy="354.4" r="2.6" fill="#3fb950" opacity="0.7"/>
<circle cx="233.0" cy="352.3" r="2.6" fill="#3fb950" opacity="0.7"/>
<circle cx="239.9" cy="324.8" r="2.6" fill="#3fb950" opacity="0.7"/>
<circle cx="246.9" cy="357.2" r="2.6" fill="#3fb950" opacity="0.7"/>
<circle cx="253.9" cy="334.3" r="2.6" fill="#3fb950" opacity="0.7"/>
<circle cx="260.8" cy="361.8" r="2.6" fill="#3fb950" opacity="0.7"/>
<circle cx="267.8" cy="353.3" r="2.6" fill="#3fb950" opacity="0.7"/>
<circle cx="274.8" cy="361.3" r="2.6" fill="#3fb950" opacity="0.7"/>
<circle cx="281.7" cy="333.6" r="2.6" fill="#3fb950" opacity="0.7"/>
<circle cx="288.7" cy="333.5" r="2.6" fill="#3fb950" opacity="0.7"/>
<circle cx="295.7" cy="325.5" r="2.6" fill="#3fb950" opacity="0.7"/>
<circle cx="302.6" cy="334.1" r="2.6" fill="#3fb950" opacity="0.7"/>
<circle cx="309.6" cy="320.0" r="2.6" fill="#3fb950" opacity="0.7"/>
<circle cx="316.6" cy="383.0" r="2.6" fill="#3fb950" opacity="0.7"/>
<circle cx="323.5" cy="326.9" r="2.6" fill="#3fb950" opacity="0.7"/>
<circle cx="330.5" cy="333.2" r="2.6" fill="#3fb950" opacity="0.7"/>
<circle cx="337.5" cy="326.8" r="2.6" fill="#3fb950" opacity="0.7"/>
<circle cx="344.4" cy="330.4" r="2.6" fill="#3fb950" opacity="0.7"/>
<circle cx="351.4" cy="330.7" r="2.6" fill="#3fb950" opacity="0.7"/>
<circle cx="358.4" cy="320.5" r="2.6" fill="#3fb950" opacity="0.7"/>
<circle cx="365.3" cy="325.7" r="2.6" fill="#3fb950" opacity="0.7"/>
<circle cx="372.3" cy="328.6" r="2.6" fill="#3fb950" opacity="0.7"/>
<circle cx="379.3" cy="328.3" r="2.6" fill="#3fb950" opacity="0.7"/>
<circle cx="386.2" cy="344.1" r="2.6" fill="#3fb950" opacity="0.7"/>
<circle cx="393.2" cy="321.5" r="2.6" fill="#3fb950" opacity="0.7"/>
<circle cx="400.2" cy="325.8" r="2.6" fill="#3fb950" opacity="0.7"/>
<circle cx="407.1" cy="341.0" r="2.6" fill="#3fb950" opacity="0.7"/>
<circle cx="414.1" cy="344.0" r="2.6" fill="#3fb950" opacity="0.7"/>
<circle cx="421.0" cy="333.3" r="2.6" fill="#3fb950" opacity="0.7"/>
<circle cx="428.0" cy="337.2" r="2.6" fill="#3fb950" opacity="0.7"/>
<circle cx="435.0" cy="364.4" r="2.6" fill="#3fb950" opacity="0.7"/>
<circle cx="441.9" cy="281.1" r="2.6" fill="#3fb950" opacity="0.7"/>
<circle cx="448.9" cy="352.0" r="2.6" fill="#3fb950" opacity="0.7"/>
<circle cx="455.9" cy="317.7" r="2.6" fill="#3fb950" opacity="0.7"/>
<circle cx="462.8" cy="320.1" r="2.6" fill="#3fb950" opacity="0.7"/>
<circle cx="469.8" cy="319.5" r="2.6" fill="#3fb950" opacity="0.7"/>
<circle cx="476.8" cy="180.7" r="2.6" fill="#3fb950" opacity="0.7"/>
<circle cx="483.7" cy="316.2" r="2.6" fill="#3fb950" opacity="0.7"/>
<circle cx="490.7" cy="324.5" r="2.6" fill="#3fb950" opacity="0.7"/>
<circle cx="497.7" cy="360.4" r="2.6" fill="#3fb950" opacity="0.7"/>
<circle cx="504.6" cy="359.0" r="2.6" fill="#3fb950" opacity="0.7"/>
<circle cx="511.6" cy="338.5" r="2.6" fill="#3fb950" opacity="0.7"/>
<circle cx="518.6" cy="340.9" r="2.6" fill="#3fb950" opacity="0.7"/>
<circle cx="525.5" cy="365.5" r="2.6" fill="#3fb950" opacity="0.7"/>
<circle cx="532.5" cy="332.1" r="2.6" fill="#3fb950" opacity="0.7"/>
<circle cx="539.5" cy="327.4" r="2.6" fill="#3fb950" opacity="0.7"/>
<circle cx="546.4" cy="330.3" r="2.6" fill="#3fb950" opacity="0.7"/>
<circle cx="553.4" cy="330.5" r="2.6" fill="#3fb950" opacity="0.7"/>
<circle cx="560.4" cy="319.8" r="2.6" fill="#3fb950" opacity="0.7"/>
<circle cx="567.3" cy="318.2" r="2.6" fill="#3fb950" opacity="0.7"/>
<circle cx="574.3" cy="323.1" r="2.6" fill="#3fb950" opacity="0.7"/>
<circle cx="581.3" cy="329.5" r="2.6" fill="#3fb950" opacity="0.7"/>
<circle cx="588.2" cy="366.0" r="2.6" fill="#3fb950" opacity="0.7"/>
<circle cx="595.2" cy="330.9" r="2.6" fill="#3fb950" opacity="0.7"/>
<circle cx="602.2" cy="246.1" r="2.6" fill="#3fb950" opacity="0.7"/>
<circle cx="609.1" cy="326.3" r="2.6" fill="#3fb950" opacity="0.7"/>
<circle cx="616.1" cy="329.0" r="2.6" fill="#3fb950" opacity="0.7"/>
<circle cx="623.1" cy="330.4" r="2.6" fill="#3fb950" opacity="0.7"/>
<circle cx="630.0" cy="335.7" r="2.6" fill="#3fb950" opacity="0.7"/>
<circle cx="637.0" cy="347.1" r="2.6" fill="#3fb950" opacity="0.7"/>
<circle cx="644.0" cy="341.7" r="2.6" fill="#3fb950" opacity="0.7"/>
<circle cx="650.9" cy="331.0" r="2.6" fill="#3fb950" opacity="0.7"/>
<circle cx="657.9" cy="328.7" r="2.6" fill="#3fb950" opacity="0.7"/>
<circle cx="664.8" cy="335.3" r="2.6" fill="#3fb950" opacity="0.7"/>
<circle cx="671.8" cy="329.1" r="2.6" fill="#3fb950" opacity="0.7"/>
<circle cx="678.8" cy="321.1" r="2.6" fill="#3fb950" opacity="0.7"/>
<circle cx="685.7" cy="336.2" r="2.6" fill="#3fb950" opacity="0.7"/>
<circle cx="692.7" cy="332.2" r="2.6" fill="#3fb950" opacity="0.7"/>
<circle cx="699.7" cy="370.4" r="2.6" fill="#3fb950" opacity="0.7"/>
<circle cx="706.6" cy="329.1" r="2.6" fill="#3fb950" opacity="0.7"/>
<circle cx="713.6" cy="328.6" r="2.6" fill="#3fb950" opacity="0.7"/>
<circle cx="720.6" cy="350.8" r="2.6" fill="#3fb950" opacity="0.7"/>
<circle cx="727.5" cy="335.2" r="2.6" fill="#3fb950" opacity="0.7"/>
<circle cx="734.5" cy="365.5" r="2.6" fill="#3fb950" opacity="0.7"/>
<circle cx="741.5" cy="369.3" r="2.6" fill="#3fb950" opacity="0.7"/>
<circle cx="748.4" cy="346.0" r="2.6" fill="#3fb950" opacity="0.7"/>
<circle cx="755.4" cy="333.6" r="2.6" fill="#3fb950" opacity="0.7"/>
<circle cx="762.4" cy="336.0" r="2.6" fill="#3fb950" opacity="0.7"/>
<circle cx="769.3" cy="346.6" r="2.6" fill="#3fb950" opacity="0.7"/>
<circle cx="776.3" cy="366.3" r="2.6" fill="#3fb950" opacity="0.7"/>
<circle cx="783.3" cy="366.7" r="2.6" fill="#3fb950" opacity="0.7"/>
<circle cx="98.7" cy="221.7" r="3.2" fill="#ff922b" opacity="0.85"/>
<circle cx="105.7" cy="294.4" r="3.2" fill="#ff922b" opacity="0.85"/>
<circle cx="112.7" cy="289.1" r="3.2" fill="#ff922b" opacity="0.85"/>
<circle cx="119.6" cy="308.1" r="3.2" fill="#ff922b" opacity="0.85"/>
<circle cx="126.6" cy="258.4" r="3.2" fill="#ff922b" opacity="0.85"/>
<circle cx="133.6" cy="277.4" r="3.2" fill="#ff922b" opacity="0.85"/>
<circle cx="140.5" cy="293.8" r="3.2" fill="#ff922b" opacity="0.85"/>
<circle cx="147.5" cy="253.7" r="3.2" fill="#ff922b" opacity="0.85"/>
<circle cx="154.5" cy="239.7" r="3.2" fill="#ff922b" opacity="0.85"/>
<circle cx="161.4" cy="252.9" r="3.2" fill="#ff922b" opacity="0.85"/>
<circle cx="168.4" cy="235.2" r="3.2" fill="#ff922b" opacity="0.85"/>
<circle cx="175.4" cy="259.9" r="3.2" fill="#ff922b" opacity="0.85"/>
<circle cx="182.3" cy="252.1" r="3.2" fill="#ff922b" opacity="0.85"/>
<circle cx="189.3" cy="248.8" r="3.2" fill="#ff922b" opacity="0.85"/>
<circle cx="196.3" cy="276.3" r="3.2" fill="#ff922b" opacity="0.85"/>
<circle cx="203.2" cy="285.5" r="3.2" fill="#ff922b" opacity="0.85"/>
<circle cx="210.2" cy="296.9" r="3.2" fill="#ff922b" opacity="0.85"/>
<circle cx="217.2" cy="264.3" r="3.2" fill="#ff922b" opacity="0.85"/>
<circle cx="224.1" cy="271.4" r="3.2" fill="#ff922b" opacity="0.85"/>
<circle cx="231.1" cy="274.6" r="3.2" fill="#ff922b" opacity="0.85"/>
<circle cx="238.0" cy="249.4" r="3.2" fill="#ff922b" opacity="0.85"/>
<circle cx="245.0" cy="270.7" r="3.2" fill="#ff922b" opacity="0.85"/>
<circle cx="252.0" cy="258.2" r="3.2" fill="#ff922b" opacity="0.85"/>
<circle cx="258.9" cy="283.1" r="3.2" fill="#ff922b" opacity="0.85"/>
<circle cx="265.9" cy="273.2" r="3.2" fill="#ff922b" opacity="0.85"/>
<circle cx="272.9" cy="279.2" r="3.2" fill="#ff922b" opacity="0.85"/>
<circle cx="279.8" cy="272.8" r="3.2" fill="#ff922b" opacity="0.85"/>
<circle cx="286.8" cy="266.9" r="3.2" fill="#ff922b" opacity="0.85"/>
<circle cx="293.8" cy="235.8" r="3.2" fill="#ff922b" opacity="0.85"/>
<circle cx="300.7" cy="258.6" r="3.2" fill="#ff922b" opacity="0.85"/>
<circle cx="307.7" cy="231.2" r="3.2" fill="#ff922b" opacity="0.85"/>
<circle cx="314.7" cy="344.8" r="3.2" fill="#ff922b" opacity="0.85"/>
<circle cx="321.6" cy="245.1" r="3.2" fill="#ff922b" opacity="0.85"/>
<circle cx="328.6" cy="250.3" r="3.2" fill="#ff922b" opacity="0.85"/>
<circle cx="335.6" cy="250.7" r="3.2" fill="#ff922b" opacity="0.85"/>
<circle cx="342.5" cy="256.7" r="3.2" fill="#ff922b" opacity="0.85"/>
<circle cx="349.5" cy="254.8" r="3.2" fill="#ff922b" opacity="0.85"/>
<circle cx="356.5" cy="156.8" r="3.2" fill="#ff922b" opacity="0.85"/>
<circle cx="363.4" cy="212.9" r="3.2" fill="#ff922b" opacity="0.85"/>
<circle cx="370.4" cy="253.4" r="3.2" fill="#ff922b" opacity="0.85"/>
<circle cx="377.4" cy="248.6" r="3.2" fill="#ff922b" opacity="0.85"/>
<circle cx="384.3" cy="270.6" r="3.2" fill="#ff922b" opacity="0.85"/>
<circle cx="391.3" cy="240.8" r="3.2" fill="#ff922b" opacity="0.85"/>
<circle cx="398.3" cy="255.3" r="3.2" fill="#ff922b" opacity="0.85"/>
<circle cx="405.2" cy="265.7" r="3.2" fill="#ff922b" opacity="0.85"/>
<circle cx="412.2" cy="270.9" r="3.2" fill="#ff922b" opacity="0.85"/>
<circle cx="419.2" cy="235.5" r="3.2" fill="#ff922b" opacity="0.85"/>
<circle cx="426.1" cy="266.7" r="3.2" fill="#ff922b" opacity="0.85"/>
<circle cx="433.1" cy="298.2" r="3.2" fill="#ff922b" opacity="0.85"/>
<circle cx="440.1" cy="289.4" r="3.2" fill="#ff922b" opacity="0.85"/>
<circle cx="447.0" cy="318.7" r="3.2" fill="#ff922b" opacity="0.85"/>
<circle cx="454.0" cy="196.6" r="3.2" fill="#ff922b" opacity="0.85"/>
<circle cx="461.0" cy="192.8" r="3.2" fill="#ff922b" opacity="0.85"/>
<circle cx="467.9" cy="194.7" r="3.2" fill="#ff922b" opacity="0.85"/>
<circle cx="474.9" cy="203.1" r="3.2" fill="#ff922b" opacity="0.85"/>
<circle cx="481.8" cy="201.3" r="3.2" fill="#ff922b" opacity="0.85"/>
<circle cx="488.8" cy="223.1" r="3.2" fill="#ff922b" opacity="0.85"/>
<circle cx="495.8" cy="303.9" r="3.2" fill="#ff922b" opacity="0.85"/>
<circle cx="502.7" cy="267.5" r="3.2" fill="#ff922b" opacity="0.85"/>
<circle cx="509.7" cy="251.8" r="3.2" fill="#ff922b" opacity="0.85"/>
<circle cx="516.7" cy="231.3" r="3.2" fill="#ff922b" opacity="0.85"/>
<circle cx="523.6" cy="189.9" r="3.2" fill="#ff922b" opacity="0.85"/>
<circle cx="530.6" cy="210.5" r="3.2" fill="#ff922b" opacity="0.85"/>
<circle cx="537.6" cy="204.3" r="3.2" fill="#ff922b" opacity="0.85"/>
<circle cx="544.5" cy="211.0" r="3.2" fill="#ff922b" opacity="0.85"/>
<circle cx="551.5" cy="239.0" r="3.2" fill="#ff922b" opacity="0.85"/>
<circle cx="558.5" cy="168.4" r="3.2" fill="#ff922b" opacity="0.85"/>
<circle cx="565.4" cy="149.6" r="3.2" fill="#ff922b" opacity="0.85"/>
<circle cx="572.4" cy="172.8" r="3.2" fill="#ff922b" opacity="0.85"/>
<circle cx="579.4" cy="173.8" r="3.2" fill="#ff922b" opacity="0.85"/>
<circle cx="586.3" cy="283.0" r="3.2" fill="#ff922b" opacity="0.85"/>
<circle cx="593.3" cy="221.1" r="3.2" fill="#ff922b" opacity="0.85"/>
<circle cx="600.3" cy="242.6" r="3.2" fill="#ff922b" opacity="0.85"/>
<circle cx="607.2" cy="209.0" r="3.2" fill="#ff922b" opacity="0.85"/>
<circle cx="614.2" cy="193.9" r="3.2" fill="#ff922b" opacity="0.85"/>
<circle cx="621.2" cy="191.7" r="3.2" fill="#ff922b" opacity="0.85"/>
<circle cx="628.1" cy="197.4" r="3.2" fill="#ff922b" opacity="0.85"/>
<circle cx="635.1" cy="226.6" r="3.2" fill="#ff922b" opacity="0.85"/>
<circle cx="642.1" cy="219.4" r="3.2" fill="#ff922b" opacity="0.85"/>
<circle cx="649.0" cy="196.7" r="3.2" fill="#ff922b" opacity="0.85"/>
<circle cx="656.0" cy="207.8" r="3.2" fill="#ff922b" opacity="0.85"/>
<circle cx="663.0" cy="270.9" r="3.2" fill="#ff922b" opacity="0.85"/>
<circle cx="669.9" cy="244.3" r="3.2" fill="#ff922b" opacity="0.85"/>
<circle cx="676.9" cy="197.4" r="3.2" fill="#ff922b" opacity="0.85"/>
<circle cx="683.9" cy="267.1" r="3.2" fill="#ff922b" opacity="0.85"/>
<circle cx="690.8" cy="250.5" r="3.2" fill="#ff922b" opacity="0.85"/>
<circle cx="697.8" cy="325.9" r="3.2" fill="#ff922b" opacity="0.85"/>
<circle cx="704.8" cy="251.9" r="3.2" fill="#ff922b" opacity="0.85"/>
<circle cx="711.7" cy="263.9" r="3.2" fill="#ff922b" opacity="0.85"/>
<circle cx="718.7" cy="284.8" r="3.2" fill="#ff922b" opacity="0.85"/>
<circle cx="725.6" cy="260.3" r="3.2" fill="#ff922b" opacity="0.85"/>
<circle cx="732.6" cy="304.3" r="3.2" fill="#ff922b" opacity="0.85"/>
<circle cx="739.6" cy="303.9" r="3.2" fill="#ff922b" opacity="0.85"/>
<circle cx="746.5" cy="264.7" r="3.2" fill="#ff922b" opacity="0.85"/>
<circle cx="753.5" cy="269.4" r="3.2" fill="#ff922b" opacity="0.85"/>
<circle cx="760.5" cy="259.4" r="3.2" fill="#ff922b" opacity="0.85"/>
<circle cx="767.4" cy="256.4" r="3.2" fill="#ff922b" opacity="0.85"/>
<circle cx="774.4" cy="313.0" r="3.2" fill="#ff922b" opacity="0.85"/>
<circle cx="781.4" cy="311.6" r="3.2" fill="#ff922b" opacity="0.85"/>
<circle cx="847" cy="84" r="5" fill="#ff922b"/>
<text x="866" y="88" font-size="13" fill="#c9d1d9" font-weight="700">Kāra</text>
<line x1="836" y1="108" x2="858" y2="108" stroke="#a7b0bc" stroke-width="2" stroke-dasharray="5 4"/>
<text x="866" y="112" font-size="13" fill="#c9d1d9" font-weight="400">Rust = 1.0×</text>
<circle cx="847" cy="132" r="4" fill="#3fb950"/>
<text x="866" y="136" font-size="13" fill="#c9d1d9" font-weight="400">C</text>
<text x="70" y="538" font-size="11.5" fill="#8b949e">Each dot is one benchmarked program (kata × approach); there is no connecting line because left-to-right order is not meaningful. Raw numbers: bench-results.json</text>
</svg>