<svg xmlns="http://www.w3.org/2000/svg" width="980" height="560" viewBox="0 0 980 560" font-family="-apple-system,Segoe UI,Helvetica,Arial,sans-serif">
<rect width="980" height="560" fill="#282c34"/>
<text x="70" y="34" font-size="21" font-weight="700" fill="#c9d1d9">Compile peak memory (cold)</text>
<text x="70" y="56" font-size="13" fill="#8b949e">relative to Rust = 1.0 · lower = leaner · 34 programs</text>
<line x1="70" y1="456.0" x2="812" y2="456.0" stroke="#3b414b" stroke-width="1"/>
<text x="60" y="460.0" font-size="12" text-anchor="end" fill="#8b949e">0.0×</text>
<line x1="70" y1="330.0" x2="812" y2="330.0" stroke="#3b414b" stroke-width="1"/>
<text x="60" y="334.0" font-size="12" text-anchor="end" fill="#8b949e">0.5×</text>
<line x1="70" y1="204.0" x2="812" y2="204.0" stroke="#6e7681" stroke-width="1.4" stroke-dasharray="5 4"/>
<text x="60" y="208.0" font-size="12" text-anchor="end" fill="#aeb6c0" font-weight="700">1.0×</text>
<line x1="70" y1="78.0" x2="812" y2="78.0" stroke="#3b414b" stroke-width="1"/>
<text x="60" y="82.0" font-size="12" text-anchor="end" fill="#8b949e">1.5×</text>
<text x="812" y="198.0" font-size="11" text-anchor="end" fill="#aeb6c0">Rust baseline</text>
<line x1="70" y1="456" x2="812" y2="456" stroke="#3b414b"/>
<text x="441.0" y="478" font-size="11" text-anchor="middle" fill="#8b949e">34 programs (kata × approach) — x-order carries no meaning</text>
<circle cx="101.7" cy="431.6" r="2.6" fill="#3fb950" opacity="0.7"/>
<circle cx="122.3" cy="438.7" r="2.6" fill="#3fb950" opacity="0.7"/>
<circle cx="143.0" cy="435.5" r="2.6" fill="#3fb950" opacity="0.7"/>
<circle cx="163.7" cy="438.9" r="2.6" fill="#3fb950" opacity="0.7"/>
<circle cx="184.4" cy="433.7" r="2.6" fill="#3fb950" opacity="0.7"/>
<circle cx="205.1" cy="434.0" r="2.6" fill="#3fb950" opacity="0.7"/>
<circle cx="225.8" cy="435.4" r="2.6" fill="#3fb950" opacity="0.7"/>
<circle cx="246.5" cy="431.9" r="2.6" fill="#3fb950" opacity="0.7"/>
<circle cx="267.1" cy="431.3" r="2.6" fill="#3fb950" opacity="0.7"/>
<circle cx="287.8" cy="432.3" r="2.6" fill="#3fb950" opacity="0.7"/>
<circle cx="308.5" cy="432.1" r="2.6" fill="#3fb950" opacity="0.7"/>
<circle cx="329.2" cy="432.8" r="2.6" fill="#3fb950" opacity="0.7"/>
<circle cx="349.9" cy="433.1" r="2.6" fill="#3fb950" opacity="0.7"/>
<circle cx="370.6" cy="433.4" r="2.6" fill="#3fb950" opacity="0.7"/>
<circle cx="391.3" cy="434.2" r="2.6" fill="#3fb950" opacity="0.7"/>
<circle cx="411.9" cy="439.2" r="2.6" fill="#3fb950" opacity="0.7"/>
<circle cx="432.6" cy="438.7" r="2.6" fill="#3fb950" opacity="0.7"/>
<circle cx="453.3" cy="433.4" r="2.6" fill="#3fb950" opacity="0.7"/>
<circle cx="474.0" cy="439.6" r="2.6" fill="#3fb950" opacity="0.7"/>
<circle cx="494.7" cy="435.1" r="2.6" fill="#3fb950" opacity="0.7"/>
<circle cx="515.4" cy="432.1" r="2.6" fill="#3fb950" opacity="0.7"/>
<circle cx="536.1" cy="435.2" r="2.6" fill="#3fb950" opacity="0.7"/>
<circle cx="556.7" cy="440.0" r="2.6" fill="#3fb950" opacity="0.7"/>
<circle cx="577.4" cy="432.4" r="2.6" fill="#3fb950" opacity="0.7"/>
<circle cx="598.1" cy="436.2" r="2.6" fill="#3fb950" opacity="0.7"/>
<circle cx="618.8" cy="435.0" r="2.6" fill="#3fb950" opacity="0.7"/>
<circle cx="639.5" cy="432.4" r="2.6" fill="#3fb950" opacity="0.7"/>
<circle cx="660.2" cy="433.5" r="2.6" fill="#3fb950" opacity="0.7"/>
<circle cx="680.9" cy="441.5" r="2.6" fill="#3fb950" opacity="0.7"/>
<circle cx="701.6" cy="432.3" r="2.6" fill="#3fb950" opacity="0.7"/>
<circle cx="722.2" cy="433.7" r="2.6" fill="#3fb950" opacity="0.7"/>
<circle cx="742.9" cy="431.6" r="2.6" fill="#3fb950" opacity="0.7"/>
<circle cx="763.6" cy="437.3" r="2.6" fill="#3fb950" opacity="0.7"/>
<circle cx="784.3" cy="437.2" r="2.6" fill="#3fb950" opacity="0.7"/>
<circle cx="97.7" cy="366.0" r="3.2" fill="#ff922b" opacity="0.85"/>
<circle cx="118.4" cy="389.9" r="3.2" fill="#ff922b" opacity="0.85"/>
<circle cx="139.1" cy="368.7" r="3.2" fill="#ff922b" opacity="0.85"/>
<circle cx="159.8" cy="388.6" r="3.2" fill="#ff922b" opacity="0.85"/>
<circle cx="180.4" cy="368.1" r="3.2" fill="#ff922b" opacity="0.85"/>
<circle cx="201.1" cy="373.1" r="3.2" fill="#ff922b" opacity="0.85"/>
<circle cx="221.8" cy="371.3" r="3.2" fill="#ff922b" opacity="0.85"/>
<circle cx="242.5" cy="362.4" r="3.2" fill="#ff922b" opacity="0.85"/>
<circle cx="263.2" cy="358.1" r="3.2" fill="#ff922b" opacity="0.85"/>
<circle cx="283.9" cy="361.4" r="3.2" fill="#ff922b" opacity="0.85"/>
<circle cx="304.6" cy="358.7" r="3.2" fill="#ff922b" opacity="0.85"/>
<circle cx="325.3" cy="367.7" r="3.2" fill="#ff922b" opacity="0.85"/>
<circle cx="345.9" cy="351.0" r="3.2" fill="#ff922b" opacity="0.85"/>
<circle cx="366.6" cy="348.8" r="3.2" fill="#ff922b" opacity="0.85"/>
<circle cx="387.3" cy="360.8" r="3.2" fill="#ff922b" opacity="0.85"/>
<circle cx="408.0" cy="381.2" r="3.2" fill="#ff922b" opacity="0.85"/>
<circle cx="428.7" cy="384.5" r="3.2" fill="#ff922b" opacity="0.85"/>
<circle cx="449.4" cy="359.0" r="3.2" fill="#ff922b" opacity="0.85"/>
<circle cx="470.1" cy="378.4" r="3.2" fill="#ff922b" opacity="0.85"/>
<circle cx="490.7" cy="370.7" r="3.2" fill="#ff922b" opacity="0.85"/>
<circle cx="511.4" cy="358.2" r="3.2" fill="#ff922b" opacity="0.85"/>
<circle cx="532.1" cy="363.4" r="3.2" fill="#ff922b" opacity="0.85"/>
<circle cx="552.8" cy="387.4" r="3.2" fill="#ff922b" opacity="0.85"/>
<circle cx="573.5" cy="357.9" r="3.2" fill="#ff922b" opacity="0.85"/>
<circle cx="594.2" cy="368.7" r="3.2" fill="#ff922b" opacity="0.85"/>
<circle cx="614.9" cy="374.7" r="3.2" fill="#ff922b" opacity="0.85"/>
<circle cx="635.5" cy="365.4" r="3.2" fill="#ff922b" opacity="0.85"/>
<circle cx="656.2" cy="368.5" r="3.2" fill="#ff922b" opacity="0.85"/>
<circle cx="676.9" cy="393.3" r="3.2" fill="#ff922b" opacity="0.85"/>
<circle cx="697.6" cy="367.2" r="3.2" fill="#ff922b" opacity="0.85"/>
<circle cx="718.3" cy="361.1" r="3.2" fill="#ff922b" opacity="0.85"/>
<circle cx="739.0" cy="362.8" r="3.2" fill="#ff922b" opacity="0.85"/>
<circle cx="759.7" cy="377.6" r="3.2" fill="#ff922b" opacity="0.85"/>
<circle cx="780.3" cy="379.0" r="3.2" fill="#ff922b" opacity="0.85"/>
<circle cx="847" cy="84" r="5" fill="#ff922b"/>
<text x="866" y="88" font-size="13" fill="#c9d1d9" font-weight="700">Kāra</text>
<line x1="836" y1="108" x2="858" y2="108" stroke="#6e7681" stroke-width="1.6" stroke-dasharray="5 4"/>
<text x="866" y="112" font-size="13" fill="#c9d1d9" font-weight="400">Rust</text>
<circle cx="847" cy="132" r="4" fill="#3fb950"/>
<text x="866" y="136" font-size="13" fill="#c9d1d9" font-weight="400">C</text>
<text x="70" y="538" font-size="11.5" fill="#8b949e">Each dot is one benchmarked program (kata × approach); there is no connecting line because left-to-right order is not meaningful. Raw numbers: bench-results.json</text>
</svg>