<svg xmlns="http://www.w3.org/2000/svg" width="980" height="560" viewBox="0 0 980 560" font-family="-apple-system,Segoe UI,Helvetica,Arial,sans-serif">
<rect width="980" height="560" fill="#282c34"/>
<text x="70" y="34" font-size="21" font-weight="700" fill="#c9d1d9">Compile peak memory (cold)</text>
<text x="70" y="56" font-size="13" fill="#8b949e">relative to Rust = 1.0 · lower = leaner · 39 programs</text>
<line x1="70" y1="456.0" x2="812" y2="456.0" stroke="#3b414b" stroke-width="1"/>
<text x="60" y="460.0" font-size="12" text-anchor="end" fill="#8b949e">0.0×</text>
<line x1="70" y1="330.0" x2="812" y2="330.0" stroke="#3b414b" stroke-width="1"/>
<text x="60" y="334.0" font-size="12" text-anchor="end" fill="#8b949e">0.5×</text>
<line x1="70" y1="204.0" x2="812" y2="204.0" stroke="#a7b0bc" stroke-width="2" stroke-dasharray="5 4"/>
<text x="60" y="208.0" font-size="12" text-anchor="end" fill="#aeb6c0" font-weight="700">1.0×</text>
<line x1="70" y1="78.0" x2="812" y2="78.0" stroke="#3b414b" stroke-width="1"/>
<text x="60" y="82.0" font-size="12" text-anchor="end" fill="#8b949e">1.5×</text>
<text x="812" y="198.0" font-size="11" text-anchor="end" fill="#aeb6c0">Rust baseline</text>
<line x1="70" y1="456" x2="812" y2="456" stroke="#3b414b"/>
<text x="441.0" y="478" font-size="11" text-anchor="middle" fill="#8b949e">39 programs (kata × approach) — x-order carries no meaning</text>
<circle cx="101.7" cy="431.6" r="2.6" fill="#3fb950" opacity="0.7"/>
<circle cx="119.6" cy="438.7" r="2.6" fill="#3fb950" opacity="0.7"/>
<circle cx="137.6" cy="436.1" r="2.6" fill="#3fb950" opacity="0.7"/>
<circle cx="155.5" cy="438.9" r="2.6" fill="#3fb950" opacity="0.7"/>
<circle cx="173.5" cy="433.7" r="2.6" fill="#3fb950" opacity="0.7"/>
<circle cx="191.5" cy="434.6" r="2.6" fill="#3fb950" opacity="0.7"/>
<circle cx="209.4" cy="435.8" r="2.6" fill="#3fb950" opacity="0.7"/>
<circle cx="227.4" cy="431.9" r="2.6" fill="#3fb950" opacity="0.7"/>
<circle cx="245.4" cy="431.3" r="2.6" fill="#3fb950" opacity="0.7"/>
<circle cx="263.3" cy="432.3" r="2.6" fill="#3fb950" opacity="0.7"/>
<circle cx="281.3" cy="432.1" r="2.6" fill="#3fb950" opacity="0.7"/>
<circle cx="299.3" cy="432.8" r="2.6" fill="#3fb950" opacity="0.7"/>
<circle cx="317.2" cy="433.1" r="2.6" fill="#3fb950" opacity="0.7"/>
<circle cx="335.2" cy="433.4" r="2.6" fill="#3fb950" opacity="0.7"/>
<circle cx="353.2" cy="434.2" r="2.6" fill="#3fb950" opacity="0.7"/>
<circle cx="371.1" cy="439.2" r="2.6" fill="#3fb950" opacity="0.7"/>
<circle cx="389.1" cy="438.7" r="2.6" fill="#3fb950" opacity="0.7"/>
<circle cx="407.0" cy="433.4" r="2.6" fill="#3fb950" opacity="0.7"/>
<circle cx="425.0" cy="439.6" r="2.6" fill="#3fb950" opacity="0.7"/>
<circle cx="443.0" cy="435.1" r="2.6" fill="#3fb950" opacity="0.7"/>
<circle cx="460.9" cy="432.1" r="2.6" fill="#3fb950" opacity="0.7"/>
<circle cx="478.9" cy="435.3" r="2.6" fill="#3fb950" opacity="0.7"/>
<circle cx="496.9" cy="432.8" r="2.6" fill="#3fb950" opacity="0.7"/>
<circle cx="514.8" cy="436.7" r="2.6" fill="#3fb950" opacity="0.7"/>
<circle cx="532.8" cy="434.3" r="2.6" fill="#3fb950" opacity="0.7"/>
<circle cx="550.8" cy="440.0" r="2.6" fill="#3fb950" opacity="0.7"/>
<circle cx="568.7" cy="432.4" r="2.6" fill="#3fb950" opacity="0.7"/>
<circle cx="586.7" cy="436.2" r="2.6" fill="#3fb950" opacity="0.7"/>
<circle cx="604.7" cy="434.8" r="2.6" fill="#3fb950" opacity="0.7"/>
<circle cx="622.6" cy="432.4" r="2.6" fill="#3fb950" opacity="0.7"/>
<circle cx="640.6" cy="433.5" r="2.6" fill="#3fb950" opacity="0.7"/>
<circle cx="658.5" cy="441.5" r="2.6" fill="#3fb950" opacity="0.7"/>
<circle cx="676.5" cy="432.3" r="2.6" fill="#3fb950" opacity="0.7"/>
<circle cx="694.5" cy="433.7" r="2.6" fill="#3fb950" opacity="0.7"/>
<circle cx="712.4" cy="431.6" r="2.6" fill="#3fb950" opacity="0.7"/>
<circle cx="730.4" cy="437.3" r="2.6" fill="#3fb950" opacity="0.7"/>
<circle cx="748.4" cy="437.2" r="2.6" fill="#3fb950" opacity="0.7"/>
<circle cx="766.3" cy="439.3" r="2.6" fill="#3fb950" opacity="0.7"/>
<circle cx="784.3" cy="442.0" r="2.6" fill="#3fb950" opacity="0.7"/>
<circle cx="97.7" cy="366.0" r="3.2" fill="#ff922b" opacity="0.85"/>
<circle cx="115.7" cy="389.9" r="3.2" fill="#ff922b" opacity="0.85"/>
<circle cx="133.6" cy="360.5" r="3.2" fill="#ff922b" opacity="0.85"/>
<circle cx="151.6" cy="388.6" r="3.2" fill="#ff922b" opacity="0.85"/>
<circle cx="169.6" cy="368.1" r="3.2" fill="#ff922b" opacity="0.85"/>
<circle cx="187.5" cy="358.0" r="3.2" fill="#ff922b" opacity="0.85"/>
<circle cx="205.5" cy="358.8" r="3.2" fill="#ff922b" opacity="0.85"/>
<circle cx="223.5" cy="362.4" r="3.2" fill="#ff922b" opacity="0.85"/>
<circle cx="241.4" cy="358.1" r="3.2" fill="#ff922b" opacity="0.85"/>
<circle cx="259.4" cy="361.4" r="3.2" fill="#ff922b" opacity="0.85"/>
<circle cx="277.3" cy="358.7" r="3.2" fill="#ff922b" opacity="0.85"/>
<circle cx="295.3" cy="367.7" r="3.2" fill="#ff922b" opacity="0.85"/>
<circle cx="313.3" cy="351.0" r="3.2" fill="#ff922b" opacity="0.85"/>
<circle cx="331.2" cy="348.8" r="3.2" fill="#ff922b" opacity="0.85"/>
<circle cx="349.2" cy="360.8" r="3.2" fill="#ff922b" opacity="0.85"/>
<circle cx="367.2" cy="381.2" r="3.2" fill="#ff922b" opacity="0.85"/>
<circle cx="385.1" cy="384.5" r="3.2" fill="#ff922b" opacity="0.85"/>
<circle cx="403.1" cy="359.0" r="3.2" fill="#ff922b" opacity="0.85"/>
<circle cx="421.1" cy="378.4" r="3.2" fill="#ff922b" opacity="0.85"/>
<circle cx="439.0" cy="370.7" r="3.2" fill="#ff922b" opacity="0.85"/>
<circle cx="457.0" cy="358.2" r="3.2" fill="#ff922b" opacity="0.85"/>
<circle cx="475.0" cy="352.0" r="3.2" fill="#ff922b" opacity="0.85"/>
<circle cx="492.9" cy="344.2" r="3.2" fill="#ff922b" opacity="0.85"/>
<circle cx="510.9" cy="350.5" r="3.2" fill="#ff922b" opacity="0.85"/>
<circle cx="528.8" cy="347.7" r="3.2" fill="#ff922b" opacity="0.85"/>
<circle cx="546.8" cy="387.4" r="3.2" fill="#ff922b" opacity="0.85"/>
<circle cx="564.8" cy="357.9" r="3.2" fill="#ff922b" opacity="0.85"/>
<circle cx="582.7" cy="368.7" r="3.2" fill="#ff922b" opacity="0.85"/>
<circle cx="600.7" cy="358.0" r="3.2" fill="#ff922b" opacity="0.85"/>
<circle cx="618.7" cy="365.4" r="3.2" fill="#ff922b" opacity="0.85"/>
<circle cx="636.6" cy="368.5" r="3.2" fill="#ff922b" opacity="0.85"/>
<circle cx="654.6" cy="383.5" r="3.2" fill="#ff922b" opacity="0.85"/>
<circle cx="672.6" cy="367.2" r="3.2" fill="#ff922b" opacity="0.85"/>
<circle cx="690.5" cy="361.1" r="3.2" fill="#ff922b" opacity="0.85"/>
<circle cx="708.5" cy="362.8" r="3.2" fill="#ff922b" opacity="0.85"/>
<circle cx="726.5" cy="377.6" r="3.2" fill="#ff922b" opacity="0.85"/>
<circle cx="744.4" cy="379.0" r="3.2" fill="#ff922b" opacity="0.85"/>
<circle cx="762.4" cy="390.3" r="3.2" fill="#ff922b" opacity="0.85"/>
<circle cx="780.3" cy="391.2" r="3.2" fill="#ff922b" opacity="0.85"/>
<circle cx="847" cy="84" r="5" fill="#ff922b"/>
<text x="866" y="88" font-size="13" fill="#c9d1d9" font-weight="700">Kāra</text>
<line x1="836" y1="108" x2="858" y2="108" stroke="#a7b0bc" stroke-width="2" stroke-dasharray="5 4"/>
<text x="866" y="112" font-size="13" fill="#c9d1d9" font-weight="400">Rust = 1.0×</text>
<circle cx="847" cy="132" r="4" fill="#3fb950"/>
<text x="866" y="136" font-size="13" fill="#c9d1d9" font-weight="400">C</text>
<text x="70" y="538" font-size="11.5" fill="#8b949e">Each dot is one benchmarked program (kata × approach); there is no connecting line because left-to-right order is not meaningful. Raw numbers: bench-results.json</text>
</svg>