<svg xmlns="http://www.w3.org/2000/svg" width="980" height="560" viewBox="0 0 980 560" font-family="-apple-system,Segoe UI,Helvetica,Arial,sans-serif">
<rect width="980" height="560" fill="#282c34"/>
<text x="70" y="34" font-size="21" font-weight="700" fill="#c9d1d9">Compile time (cold)</text>
<text x="70" y="56" font-size="13" fill="#8b949e">relative to Rust = 1.0 · lower = faster · 49 programs</text>
<line x1="70" y1="456.0" x2="812" y2="456.0" stroke="#3b414b" stroke-width="1"/>
<text x="60" y="460.0" font-size="12" text-anchor="end" fill="#8b949e">0.0×</text>
<line x1="70" y1="444.2" x2="812" y2="444.2" stroke="#a7b0bc" stroke-width="2" stroke-dasharray="5 4"/>
<text x="60" y="448.2" font-size="12" text-anchor="end" fill="#aeb6c0" font-weight="700">1.0×</text>
<line x1="70" y1="380.4" x2="812" y2="380.4" stroke="#3b414b" stroke-width="1"/>
<text x="60" y="384.4" font-size="12" text-anchor="end" fill="#8b949e">6.4×</text>
<line x1="70" y1="304.8" x2="812" y2="304.8" stroke="#3b414b" stroke-width="1"/>
<text x="60" y="308.8" font-size="12" text-anchor="end" fill="#8b949e">12.8×</text>
<line x1="70" y1="229.2" x2="812" y2="229.2" stroke="#3b414b" stroke-width="1"/>
<text x="60" y="233.2" font-size="12" text-anchor="end" fill="#8b949e">19.2×</text>
<line x1="70" y1="153.6" x2="812" y2="153.6" stroke="#3b414b" stroke-width="1"/>
<text x="60" y="157.6" font-size="12" text-anchor="end" fill="#8b949e">25.6×</text>
<line x1="70" y1="78.0" x2="812" y2="78.0" stroke="#3b414b" stroke-width="1"/>
<text x="60" y="82.0" font-size="12" text-anchor="end" fill="#8b949e">32.0×</text>
<text x="812" y="438.2" font-size="11" text-anchor="end" fill="#aeb6c0">Rust baseline</text>
<line x1="70" y1="456" x2="812" y2="456" stroke="#3b414b"/>
<text x="441.0" y="478" font-size="11" text-anchor="middle" fill="#8b949e">49 programs (kata × approach) — x-order carries no meaning</text>
<circle cx="101.6" cy="449.4" r="2.6" fill="#3fb950" opacity="0.7"/>
<circle cx="115.8" cy="451.6" r="2.6" fill="#3fb950" opacity="0.7"/>
<circle cx="130.1" cy="450.8" r="2.6" fill="#3fb950" opacity="0.7"/>
<circle cx="144.3" cy="451.5" r="2.6" fill="#3fb950" opacity="0.7"/>
<circle cx="158.5" cy="450.3" r="2.6" fill="#3fb950" opacity="0.7"/>
<circle cx="172.7" cy="450.5" r="2.6" fill="#3fb950" opacity="0.7"/>
<circle cx="186.9" cy="451.1" r="2.6" fill="#3fb950" opacity="0.7"/>
<circle cx="201.2" cy="449.7" r="2.6" fill="#3fb950" opacity="0.7"/>
<circle cx="215.4" cy="449.6" r="2.6" fill="#3fb950" opacity="0.7"/>
<circle cx="229.6" cy="449.7" r="2.6" fill="#3fb950" opacity="0.7"/>
<circle cx="243.8" cy="450.1" r="2.6" fill="#3fb950" opacity="0.7"/>
<circle cx="258.1" cy="449.7" r="2.6" fill="#3fb950" opacity="0.7"/>
<circle cx="272.3" cy="449.6" r="2.6" fill="#3fb950" opacity="0.7"/>
<circle cx="286.5" cy="449.8" r="2.6" fill="#3fb950" opacity="0.7"/>
<circle cx="300.7" cy="450.6" r="2.6" fill="#3fb950" opacity="0.7"/>
<circle cx="314.9" cy="451.0" r="2.6" fill="#3fb950" opacity="0.7"/>
<circle cx="329.2" cy="451.2" r="2.6" fill="#3fb950" opacity="0.7"/>
<circle cx="343.4" cy="450.3" r="2.6" fill="#3fb950" opacity="0.7"/>
<circle cx="357.6" cy="450.9" r="2.6" fill="#3fb950" opacity="0.7"/>
<circle cx="371.8" cy="450.7" r="2.6" fill="#3fb950" opacity="0.7"/>
<circle cx="386.0" cy="449.0" r="2.6" fill="#3fb950" opacity="0.7"/>
<circle cx="400.3" cy="451.1" r="2.6" fill="#3fb950" opacity="0.7"/>
<circle cx="414.5" cy="449.7" r="2.6" fill="#3fb950" opacity="0.7"/>
<circle cx="428.7" cy="451.3" r="2.6" fill="#3fb950" opacity="0.7"/>
<circle cx="442.9" cy="451.0" r="2.6" fill="#3fb950" opacity="0.7"/>
<circle cx="457.2" cy="451.4" r="2.6" fill="#3fb950" opacity="0.7"/>
<circle cx="471.4" cy="449.4" r="2.6" fill="#3fb950" opacity="0.7"/>
<circle cx="485.6" cy="449.8" r="2.6" fill="#3fb950" opacity="0.7"/>
<circle cx="499.8" cy="449.4" r="2.6" fill="#3fb950" opacity="0.7"/>
<circle cx="514.0" cy="450.1" r="2.6" fill="#3fb950" opacity="0.7"/>
<circle cx="528.3" cy="449.5" r="2.6" fill="#3fb950" opacity="0.7"/>
<circle cx="542.5" cy="452.6" r="2.6" fill="#3fb950" opacity="0.7"/>
<circle cx="556.7" cy="451.3" r="2.6" fill="#3fb950" opacity="0.7"/>
<circle cx="570.9" cy="449.2" r="2.6" fill="#3fb950" opacity="0.7"/>
<circle cx="585.1" cy="451.6" r="2.6" fill="#3fb950" opacity="0.7"/>
<circle cx="599.4" cy="449.6" r="2.6" fill="#3fb950" opacity="0.7"/>
<circle cx="613.6" cy="449.4" r="2.6" fill="#3fb950" opacity="0.7"/>
<circle cx="627.8" cy="449.7" r="2.6" fill="#3fb950" opacity="0.7"/>
<circle cx="642.0" cy="449.8" r="2.6" fill="#3fb950" opacity="0.7"/>
<circle cx="656.3" cy="451.6" r="2.6" fill="#3fb950" opacity="0.7"/>
<circle cx="670.5" cy="449.3" r="2.6" fill="#3fb950" opacity="0.7"/>
<circle cx="684.7" cy="449.5" r="2.6" fill="#3fb950" opacity="0.7"/>
<circle cx="698.9" cy="450.3" r="2.6" fill="#3fb950" opacity="0.7"/>
<circle cx="713.1" cy="451.2" r="2.6" fill="#3fb950" opacity="0.7"/>
<circle cx="727.4" cy="451.8" r="2.6" fill="#3fb950" opacity="0.7"/>
<circle cx="741.6" cy="450.5" r="2.6" fill="#3fb950" opacity="0.7"/>
<circle cx="755.8" cy="450.7" r="2.6" fill="#3fb950" opacity="0.7"/>
<circle cx="770.0" cy="451.5" r="2.6" fill="#3fb950" opacity="0.7"/>
<circle cx="784.3" cy="451.6" r="2.6" fill="#3fb950" opacity="0.7"/>
<circle cx="97.7" cy="87.3" r="3.2" fill="#ff922b" opacity="0.85"/>
<circle cx="112.0" cy="448.6" r="3.2" fill="#ff922b" opacity="0.85"/>
<circle cx="126.2" cy="447.6" r="3.2" fill="#ff922b" opacity="0.85"/>
<circle cx="140.4" cy="449.4" r="3.2" fill="#ff922b" opacity="0.85"/>
<circle cx="154.6" cy="447.1" r="3.2" fill="#ff922b" opacity="0.85"/>
<circle cx="168.9" cy="446.9" r="3.2" fill="#ff922b" opacity="0.85"/>
<circle cx="183.1" cy="447.6" r="3.2" fill="#ff922b" opacity="0.85"/>
<circle cx="197.3" cy="446.3" r="3.2" fill="#ff922b" opacity="0.85"/>
<circle cx="211.5" cy="445.8" r="3.2" fill="#ff922b" opacity="0.85"/>
<circle cx="225.7" cy="446.4" r="3.2" fill="#ff922b" opacity="0.85"/>
<circle cx="240.0" cy="447.8" r="3.2" fill="#ff922b" opacity="0.85"/>
<circle cx="254.2" cy="446.6" r="3.2" fill="#ff922b" opacity="0.85"/>
<circle cx="268.4" cy="445.6" r="3.2" fill="#ff922b" opacity="0.85"/>
<circle cx="282.6" cy="445.7" r="3.2" fill="#ff922b" opacity="0.85"/>
<circle cx="296.9" cy="447.9" r="3.2" fill="#ff922b" opacity="0.85"/>
<circle cx="311.1" cy="448.4" r="3.2" fill="#ff922b" opacity="0.85"/>
<circle cx="325.3" cy="448.6" r="3.2" fill="#ff922b" opacity="0.85"/>
<circle cx="339.5" cy="446.5" r="3.2" fill="#ff922b" opacity="0.85"/>
<circle cx="353.7" cy="448.3" r="3.2" fill="#ff922b" opacity="0.85"/>
<circle cx="368.0" cy="447.0" r="3.2" fill="#ff922b" opacity="0.85"/>
<circle cx="382.2" cy="444.9" r="3.2" fill="#ff922b" opacity="0.85"/>
<circle cx="396.4" cy="446.7" r="3.2" fill="#ff922b" opacity="0.85"/>
<circle cx="410.6" cy="445.2" r="3.2" fill="#ff922b" opacity="0.85"/>
<circle cx="424.8" cy="447.6" r="3.2" fill="#ff922b" opacity="0.85"/>
<circle cx="439.1" cy="446.7" r="3.2" fill="#ff922b" opacity="0.85"/>
<circle cx="453.3" cy="447.2" r="3.2" fill="#ff922b" opacity="0.85"/>
<circle cx="467.5" cy="445.7" r="3.2" fill="#ff922b" opacity="0.85"/>
<circle cx="481.7" cy="446.2" r="3.2" fill="#ff922b" opacity="0.85"/>
<circle cx="496.0" cy="445.0" r="3.2" fill="#ff922b" opacity="0.85"/>
<circle cx="510.2" cy="445.7" r="3.2" fill="#ff922b" opacity="0.85"/>
<circle cx="524.4" cy="444.9" r="3.2" fill="#ff922b" opacity="0.85"/>
<circle cx="538.6" cy="450.7" r="3.2" fill="#ff922b" opacity="0.85"/>
<circle cx="552.8" cy="448.6" r="3.2" fill="#ff922b" opacity="0.85"/>
<circle cx="567.1" cy="444.7" r="3.2" fill="#ff922b" opacity="0.85"/>
<circle cx="581.3" cy="447.9" r="3.2" fill="#ff922b" opacity="0.85"/>
<circle cx="595.5" cy="446.4" r="3.2" fill="#ff922b" opacity="0.85"/>
<circle cx="609.7" cy="445.5" r="3.2" fill="#ff922b" opacity="0.85"/>
<circle cx="623.9" cy="446.1" r="3.2" fill="#ff922b" opacity="0.85"/>
<circle cx="638.2" cy="446.0" r="3.2" fill="#ff922b" opacity="0.85"/>
<circle cx="652.4" cy="449.7" r="3.2" fill="#ff922b" opacity="0.85"/>
<circle cx="666.6" cy="445.8" r="3.2" fill="#ff922b" opacity="0.85"/>
<circle cx="680.8" cy="446.4" r="3.2" fill="#ff922b" opacity="0.85"/>
<circle cx="695.1" cy="446.1" r="3.2" fill="#ff922b" opacity="0.85"/>
<circle cx="709.3" cy="449.1" r="3.2" fill="#ff922b" opacity="0.85"/>
<circle cx="723.5" cy="449.1" r="3.2" fill="#ff922b" opacity="0.85"/>
<circle cx="737.7" cy="446.1" r="3.2" fill="#ff922b" opacity="0.85"/>
<circle cx="751.9" cy="445.8" r="3.2" fill="#ff922b" opacity="0.85"/>
<circle cx="766.2" cy="448.9" r="3.2" fill="#ff922b" opacity="0.85"/>
<circle cx="780.4" cy="449.4" r="3.2" fill="#ff922b" opacity="0.85"/>
<circle cx="847" cy="84" r="5" fill="#ff922b"/>
<text x="866" y="88" font-size="13" fill="#c9d1d9" font-weight="700">Kāra</text>
<line x1="836" y1="108" x2="858" y2="108" stroke="#a7b0bc" stroke-width="2" stroke-dasharray="5 4"/>
<text x="866" y="112" font-size="13" fill="#c9d1d9" font-weight="400">Rust = 1.0×</text>
<circle cx="847" cy="132" r="4" fill="#3fb950"/>
<text x="866" y="136" font-size="13" fill="#c9d1d9" font-weight="400">C</text>
<text x="70" y="538" font-size="11.5" fill="#8b949e">Each dot is one benchmarked program (kata × approach); there is no connecting line because left-to-right order is not meaningful. Raw numbers: bench-results.json</text>
</svg>