<svg xmlns="http://www.w3.org/2000/svg" width="980" height="560" viewBox="0 0 980 560" font-family="-apple-system,Segoe UI,Helvetica,Arial,sans-serif">
<rect width="980" height="560" fill="#282c34"/>
<text x="70" y="34" font-size="21" font-weight="700" fill="#c9d1d9">Compile time (cold)</text>
<text x="70" y="56" font-size="13" fill="#8b949e">relative to Rust = 1.0 · lower = faster · 65 programs</text>
<line x1="70" y1="456.0" x2="812" y2="456.0" stroke="#3b414b" stroke-width="1"/>
<text x="60" y="460.0" font-size="12" text-anchor="end" fill="#8b949e">0.0×</text>
<line x1="70" y1="330.0" x2="812" y2="330.0" stroke="#3b414b" stroke-width="1"/>
<text x="60" y="334.0" font-size="12" text-anchor="end" fill="#8b949e">0.5×</text>
<line x1="70" y1="204.0" x2="812" y2="204.0" stroke="#a7b0bc" stroke-width="2" stroke-dasharray="5 4"/>
<text x="60" y="208.0" font-size="12" text-anchor="end" fill="#aeb6c0" font-weight="700">1.0×</text>
<line x1="70" y1="78.0" x2="812" y2="78.0" stroke="#3b414b" stroke-width="1"/>
<text x="60" y="82.0" font-size="12" text-anchor="end" fill="#8b949e">1.5×</text>
<text x="812" y="198.0" font-size="11" text-anchor="end" fill="#aeb6c0">Rust baseline</text>
<line x1="70" y1="456" x2="812" y2="456" stroke="#3b414b"/>
<text x="441.0" y="478" font-size="11" text-anchor="middle" fill="#8b949e">65 programs (kata × approach) — x-order carries no meaning</text>
<circle cx="101.1" cy="315.0" r="2.6" fill="#3fb950" opacity="0.7"/>
<circle cx="111.8" cy="356.9" r="2.6" fill="#3fb950" opacity="0.7"/>
<circle cx="122.5" cy="353.5" r="2.6" fill="#3fb950" opacity="0.7"/>
<circle cx="133.1" cy="361.9" r="2.6" fill="#3fb950" opacity="0.7"/>
<circle cx="143.8" cy="337.9" r="2.6" fill="#3fb950" opacity="0.7"/>
<circle cx="154.5" cy="349.8" r="2.6" fill="#3fb950" opacity="0.7"/>
<circle cx="165.1" cy="362.0" r="2.6" fill="#3fb950" opacity="0.7"/>
<circle cx="175.8" cy="331.0" r="2.6" fill="#3fb950" opacity="0.7"/>
<circle cx="186.5" cy="332.2" r="2.6" fill="#3fb950" opacity="0.7"/>
<circle cx="197.1" cy="329.4" r="2.6" fill="#3fb950" opacity="0.7"/>
<circle cx="207.8" cy="331.8" r="2.6" fill="#3fb950" opacity="0.7"/>
<circle cx="218.5" cy="332.6" r="2.6" fill="#3fb950" opacity="0.7"/>
<circle cx="229.1" cy="331.2" r="2.6" fill="#3fb950" opacity="0.7"/>
<circle cx="239.8" cy="333.4" r="2.6" fill="#3fb950" opacity="0.7"/>
<circle cx="250.5" cy="342.8" r="2.6" fill="#3fb950" opacity="0.7"/>
<circle cx="261.1" cy="354.9" r="2.6" fill="#3fb950" opacity="0.7"/>
<circle cx="271.8" cy="360.0" r="2.6" fill="#3fb950" opacity="0.7"/>
<circle cx="282.5" cy="346.4" r="2.6" fill="#3fb950" opacity="0.7"/>
<circle cx="293.1" cy="354.4" r="2.6" fill="#3fb950" opacity="0.7"/>
<circle cx="303.8" cy="352.3" r="2.6" fill="#3fb950" opacity="0.7"/>
<circle cx="314.5" cy="324.8" r="2.6" fill="#3fb950" opacity="0.7"/>
<circle cx="325.1" cy="357.2" r="2.6" fill="#3fb950" opacity="0.7"/>
<circle cx="335.8" cy="334.3" r="2.6" fill="#3fb950" opacity="0.7"/>
<circle cx="346.5" cy="361.8" r="2.6" fill="#3fb950" opacity="0.7"/>
<circle cx="357.1" cy="353.3" r="2.6" fill="#3fb950" opacity="0.7"/>
<circle cx="367.8" cy="361.3" r="2.6" fill="#3fb950" opacity="0.7"/>
<circle cx="378.5" cy="333.6" r="2.6" fill="#3fb950" opacity="0.7"/>
<circle cx="389.1" cy="333.5" r="2.6" fill="#3fb950" opacity="0.7"/>
<circle cx="399.8" cy="325.5" r="2.6" fill="#3fb950" opacity="0.7"/>
<circle cx="410.5" cy="334.1" r="2.6" fill="#3fb950" opacity="0.7"/>
<circle cx="421.1" cy="320.0" r="2.6" fill="#3fb950" opacity="0.7"/>
<circle cx="431.8" cy="383.0" r="2.6" fill="#3fb950" opacity="0.7"/>
<circle cx="442.4" cy="326.9" r="2.6" fill="#3fb950" opacity="0.7"/>
<circle cx="453.1" cy="333.2" r="2.6" fill="#3fb950" opacity="0.7"/>
<circle cx="463.8" cy="326.8" r="2.6" fill="#3fb950" opacity="0.7"/>
<circle cx="474.4" cy="330.4" r="2.6" fill="#3fb950" opacity="0.7"/>
<circle cx="485.1" cy="330.7" r="2.6" fill="#3fb950" opacity="0.7"/>
<circle cx="495.8" cy="320.5" r="2.6" fill="#3fb950" opacity="0.7"/>
<circle cx="506.4" cy="325.7" r="2.6" fill="#3fb950" opacity="0.7"/>
<circle cx="517.1" cy="328.6" r="2.6" fill="#3fb950" opacity="0.7"/>
<circle cx="527.8" cy="328.3" r="2.6" fill="#3fb950" opacity="0.7"/>
<circle cx="538.4" cy="344.1" r="2.6" fill="#3fb950" opacity="0.7"/>
<circle cx="549.1" cy="321.5" r="2.6" fill="#3fb950" opacity="0.7"/>
<circle cx="559.8" cy="325.8" r="2.6" fill="#3fb950" opacity="0.7"/>
<circle cx="570.4" cy="341.0" r="2.6" fill="#3fb950" opacity="0.7"/>
<circle cx="581.1" cy="360.4" r="2.6" fill="#3fb950" opacity="0.7"/>
<circle cx="591.8" cy="330.5" r="2.6" fill="#3fb950" opacity="0.7"/>
<circle cx="602.4" cy="366.0" r="2.6" fill="#3fb950" opacity="0.7"/>
<circle cx="613.1" cy="335.3" r="2.6" fill="#3fb950" opacity="0.7"/>
<circle cx="623.8" cy="329.1" r="2.6" fill="#3fb950" opacity="0.7"/>
<circle cx="634.4" cy="336.2" r="2.6" fill="#3fb950" opacity="0.7"/>
<circle cx="645.1" cy="332.2" r="2.6" fill="#3fb950" opacity="0.7"/>
<circle cx="655.8" cy="370.4" r="2.6" fill="#3fb950" opacity="0.7"/>
<circle cx="666.4" cy="329.1" r="2.6" fill="#3fb950" opacity="0.7"/>
<circle cx="677.1" cy="328.6" r="2.6" fill="#3fb950" opacity="0.7"/>
<circle cx="687.8" cy="350.8" r="2.6" fill="#3fb950" opacity="0.7"/>
<circle cx="698.4" cy="335.2" r="2.6" fill="#3fb950" opacity="0.7"/>
<circle cx="709.1" cy="365.5" r="2.6" fill="#3fb950" opacity="0.7"/>
<circle cx="719.8" cy="369.3" r="2.6" fill="#3fb950" opacity="0.7"/>
<circle cx="730.4" cy="346.0" r="2.6" fill="#3fb950" opacity="0.7"/>
<circle cx="741.1" cy="333.6" r="2.6" fill="#3fb950" opacity="0.7"/>
<circle cx="751.8" cy="336.0" r="2.6" fill="#3fb950" opacity="0.7"/>
<circle cx="762.4" cy="346.6" r="2.6" fill="#3fb950" opacity="0.7"/>
<circle cx="773.1" cy="366.3" r="2.6" fill="#3fb950" opacity="0.7"/>
<circle cx="783.8" cy="366.7" r="2.6" fill="#3fb950" opacity="0.7"/>
<circle cx="98.2" cy="221.7" r="3.2" fill="#ff922b" opacity="0.85"/>
<circle cx="108.9" cy="294.4" r="3.2" fill="#ff922b" opacity="0.85"/>
<circle cx="119.6" cy="289.1" r="3.2" fill="#ff922b" opacity="0.85"/>
<circle cx="130.2" cy="308.1" r="3.2" fill="#ff922b" opacity="0.85"/>
<circle cx="140.9" cy="258.4" r="3.2" fill="#ff922b" opacity="0.85"/>
<circle cx="151.6" cy="277.4" r="3.2" fill="#ff922b" opacity="0.85"/>
<circle cx="162.2" cy="293.8" r="3.2" fill="#ff922b" opacity="0.85"/>
<circle cx="172.9" cy="253.7" r="3.2" fill="#ff922b" opacity="0.85"/>
<circle cx="183.6" cy="239.7" r="3.2" fill="#ff922b" opacity="0.85"/>
<circle cx="194.2" cy="252.9" r="3.2" fill="#ff922b" opacity="0.85"/>
<circle cx="204.9" cy="235.2" r="3.2" fill="#ff922b" opacity="0.85"/>
<circle cx="215.6" cy="259.9" r="3.2" fill="#ff922b" opacity="0.85"/>
<circle cx="226.2" cy="252.1" r="3.2" fill="#ff922b" opacity="0.85"/>
<circle cx="236.9" cy="248.8" r="3.2" fill="#ff922b" opacity="0.85"/>
<circle cx="247.6" cy="276.3" r="3.2" fill="#ff922b" opacity="0.85"/>
<circle cx="258.2" cy="285.5" r="3.2" fill="#ff922b" opacity="0.85"/>
<circle cx="268.9" cy="296.9" r="3.2" fill="#ff922b" opacity="0.85"/>
<circle cx="279.6" cy="264.3" r="3.2" fill="#ff922b" opacity="0.85"/>
<circle cx="290.2" cy="271.4" r="3.2" fill="#ff922b" opacity="0.85"/>
<circle cx="300.9" cy="274.6" r="3.2" fill="#ff922b" opacity="0.85"/>
<circle cx="311.6" cy="249.4" r="3.2" fill="#ff922b" opacity="0.85"/>
<circle cx="322.2" cy="270.7" r="3.2" fill="#ff922b" opacity="0.85"/>
<circle cx="332.9" cy="258.2" r="3.2" fill="#ff922b" opacity="0.85"/>
<circle cx="343.6" cy="283.1" r="3.2" fill="#ff922b" opacity="0.85"/>
<circle cx="354.2" cy="273.2" r="3.2" fill="#ff922b" opacity="0.85"/>
<circle cx="364.9" cy="279.2" r="3.2" fill="#ff922b" opacity="0.85"/>
<circle cx="375.6" cy="272.8" r="3.2" fill="#ff922b" opacity="0.85"/>
<circle cx="386.2" cy="266.9" r="3.2" fill="#ff922b" opacity="0.85"/>
<circle cx="396.9" cy="235.8" r="3.2" fill="#ff922b" opacity="0.85"/>
<circle cx="407.6" cy="258.6" r="3.2" fill="#ff922b" opacity="0.85"/>
<circle cx="418.2" cy="231.2" r="3.2" fill="#ff922b" opacity="0.85"/>
<circle cx="428.9" cy="344.8" r="3.2" fill="#ff922b" opacity="0.85"/>
<circle cx="439.6" cy="245.1" r="3.2" fill="#ff922b" opacity="0.85"/>
<circle cx="450.2" cy="250.3" r="3.2" fill="#ff922b" opacity="0.85"/>
<circle cx="460.9" cy="250.7" r="3.2" fill="#ff922b" opacity="0.85"/>
<circle cx="471.5" cy="256.7" r="3.2" fill="#ff922b" opacity="0.85"/>
<circle cx="482.2" cy="254.8" r="3.2" fill="#ff922b" opacity="0.85"/>
<circle cx="492.9" cy="156.8" r="3.2" fill="#ff922b" opacity="0.85"/>
<circle cx="503.5" cy="212.9" r="3.2" fill="#ff922b" opacity="0.85"/>
<circle cx="514.2" cy="253.4" r="3.2" fill="#ff922b" opacity="0.85"/>
<circle cx="524.9" cy="248.6" r="3.2" fill="#ff922b" opacity="0.85"/>
<circle cx="535.5" cy="270.6" r="3.2" fill="#ff922b" opacity="0.85"/>
<circle cx="546.2" cy="240.8" r="3.2" fill="#ff922b" opacity="0.85"/>
<circle cx="556.9" cy="255.3" r="3.2" fill="#ff922b" opacity="0.85"/>
<circle cx="567.5" cy="265.7" r="3.2" fill="#ff922b" opacity="0.85"/>
<circle cx="578.2" cy="303.9" r="3.2" fill="#ff922b" opacity="0.85"/>
<circle cx="588.9" cy="239.0" r="3.2" fill="#ff922b" opacity="0.85"/>
<circle cx="599.5" cy="283.0" r="3.2" fill="#ff922b" opacity="0.85"/>
<circle cx="610.2" cy="270.9" r="3.2" fill="#ff922b" opacity="0.85"/>
<circle cx="620.9" cy="244.3" r="3.2" fill="#ff922b" opacity="0.85"/>
<circle cx="631.5" cy="267.1" r="3.2" fill="#ff922b" opacity="0.85"/>
<circle cx="642.2" cy="250.5" r="3.2" fill="#ff922b" opacity="0.85"/>
<circle cx="652.9" cy="325.9" r="3.2" fill="#ff922b" opacity="0.85"/>
<circle cx="663.5" cy="251.9" r="3.2" fill="#ff922b" opacity="0.85"/>
<circle cx="674.2" cy="263.9" r="3.2" fill="#ff922b" opacity="0.85"/>
<circle cx="684.9" cy="284.8" r="3.2" fill="#ff922b" opacity="0.85"/>
<circle cx="695.5" cy="260.3" r="3.2" fill="#ff922b" opacity="0.85"/>
<circle cx="706.2" cy="304.3" r="3.2" fill="#ff922b" opacity="0.85"/>
<circle cx="716.9" cy="303.9" r="3.2" fill="#ff922b" opacity="0.85"/>
<circle cx="727.5" cy="264.7" r="3.2" fill="#ff922b" opacity="0.85"/>
<circle cx="738.2" cy="269.4" r="3.2" fill="#ff922b" opacity="0.85"/>
<circle cx="748.9" cy="259.4" r="3.2" fill="#ff922b" opacity="0.85"/>
<circle cx="759.5" cy="256.4" r="3.2" fill="#ff922b" opacity="0.85"/>
<circle cx="770.2" cy="313.0" r="3.2" fill="#ff922b" opacity="0.85"/>
<circle cx="780.9" cy="311.6" r="3.2" fill="#ff922b" opacity="0.85"/>
<circle cx="847" cy="84" r="5" fill="#ff922b"/>
<text x="866" y="88" font-size="13" fill="#c9d1d9" font-weight="700">Kāra</text>
<line x1="836" y1="108" x2="858" y2="108" stroke="#a7b0bc" stroke-width="2" stroke-dasharray="5 4"/>
<text x="866" y="112" font-size="13" fill="#c9d1d9" font-weight="400">Rust = 1.0×</text>
<circle cx="847" cy="132" r="4" fill="#3fb950"/>
<text x="866" y="136" font-size="13" fill="#c9d1d9" font-weight="400">C</text>
<text x="70" y="538" font-size="11.5" fill="#8b949e">Each dot is one benchmarked program (kata × approach); there is no connecting line because left-to-right order is not meaningful. Raw numbers: bench-results.json</text>
</svg>