<svg xmlns="http://www.w3.org/2000/svg" width="980" height="560" viewBox="0 0 980 560" font-family="-apple-system,Segoe UI,Helvetica,Arial,sans-serif">
<rect width="980" height="560" fill="#282c34"/>
<text x="70" y="34" font-size="21" font-weight="700" fill="#c9d1d9">Compile peak memory (cold)</text>
<text x="70" y="56" font-size="13" fill="#8b949e">relative to Rust = 1.0 · lower = leaner · 19 programs</text>
<line x1="70" y1="456.0" x2="812" y2="456.0" stroke="#3b414b" stroke-width="1"/>
<text x="60" y="460.0" font-size="12" text-anchor="end" fill="#8b949e">0.0×</text>
<line x1="70" y1="330.0" x2="812" y2="330.0" stroke="#3b414b" stroke-width="1"/>
<text x="60" y="334.0" font-size="12" text-anchor="end" fill="#8b949e">0.5×</text>
<line x1="70" y1="204.0" x2="812" y2="204.0" stroke="#6e7681" stroke-width="1.4" stroke-dasharray="5 4"/>
<text x="60" y="208.0" font-size="12" text-anchor="end" fill="#aeb6c0" font-weight="700">1.0×</text>
<line x1="70" y1="78.0" x2="812" y2="78.0" stroke="#3b414b" stroke-width="1"/>
<text x="60" y="82.0" font-size="12" text-anchor="end" fill="#8b949e">1.5×</text>
<text x="812" y="198.0" font-size="11" text-anchor="end" fill="#aeb6c0">Rust baseline</text>
<line x1="99.7" y1="456" x2="99.7" y2="461" stroke="#3b414b"/>
<g transform="translate(99.7,474) rotate(35)">
<text x="0" y="0" font-size="10.5" fill="#8b949e">#1</text>
<text x="0" y="12" font-size="10.5" fill="#8b949e">brute_force</text>
</g>
<line x1="137.6" y1="456" x2="137.6" y2="461" stroke="#3b414b"/>
<g transform="translate(137.6,474) rotate(35)">
<text x="0" y="0" font-size="10.5" fill="#8b949e">#1</text>
<text x="0" y="12" font-size="10.5" fill="#8b949e">hash_map</text>
</g>
<line x1="175.5" y1="456" x2="175.5" y2="461" stroke="#3b414b"/>
<g transform="translate(175.5,474) rotate(35)">
<text x="0" y="0" font-size="10.5" fill="#8b949e">#2</text>
<text x="0" y="12" font-size="10.5" fill="#8b949e">iterative</text>
</g>
<line x1="213.5" y1="456" x2="213.5" y2="461" stroke="#3b414b"/>
<g transform="translate(213.5,474) rotate(35)">
<text x="0" y="0" font-size="10.5" fill="#8b949e">#3</text>
<text x="0" y="12" font-size="10.5" fill="#8b949e">sliding_window</text>
</g>
<line x1="251.4" y1="456" x2="251.4" y2="461" stroke="#3b414b"/>
<g transform="translate(251.4,474) rotate(35)">
<text x="0" y="0" font-size="10.5" fill="#8b949e">#4</text>
<text x="0" y="12" font-size="10.5" fill="#8b949e">binary_search…</text>
</g>
<line x1="289.3" y1="456" x2="289.3" y2="461" stroke="#3b414b"/>
<g transform="translate(289.3,474) rotate(35)">
<text x="0" y="0" font-size="10.5" fill="#8b949e">#5</text>
<text x="0" y="12" font-size="10.5" fill="#8b949e">expand_around…</text>
</g>
<line x1="327.2" y1="456" x2="327.2" y2="461" stroke="#3b414b"/>
<g transform="translate(327.2,474) rotate(35)">
<text x="0" y="0" font-size="10.5" fill="#8b949e">#6</text>
<text x="0" y="12" font-size="10.5" fill="#8b949e">row_buffers</text>
</g>
<line x1="365.2" y1="456" x2="365.2" y2="461" stroke="#3b414b"/>
<g transform="translate(365.2,474) rotate(35)">
<text x="0" y="0" font-size="10.5" fill="#8b949e">#7</text>
<text x="0" y="12" font-size="10.5" fill="#8b949e">reverse</text>
</g>
<line x1="403.1" y1="456" x2="403.1" y2="461" stroke="#3b414b"/>
<g transform="translate(403.1,474) rotate(35)">
<text x="0" y="0" font-size="10.5" fill="#8b949e">#8</text>
<text x="0" y="12" font-size="10.5" fill="#8b949e">atoi</text>
</g>
<line x1="441.0" y1="456" x2="441.0" y2="461" stroke="#3b414b"/>
<g transform="translate(441.0,474) rotate(35)">
<text x="0" y="0" font-size="10.5" fill="#8b949e">#9</text>
<text x="0" y="12" font-size="10.5" fill="#8b949e">palindrome</text>
</g>
<line x1="478.9" y1="456" x2="478.9" y2="461" stroke="#3b414b"/>
<g transform="translate(478.9,474) rotate(35)">
<text x="0" y="0" font-size="10.5" fill="#8b949e">#10</text>
<text x="0" y="12" font-size="10.5" fill="#8b949e">regex</text>
</g>
<line x1="516.8" y1="456" x2="516.8" y2="461" stroke="#3b414b"/>
<g transform="translate(516.8,474) rotate(35)">
<text x="0" y="0" font-size="10.5" fill="#8b949e">#11</text>
<text x="0" y="12" font-size="10.5" fill="#8b949e">container</text>
</g>
<line x1="554.8" y1="456" x2="554.8" y2="461" stroke="#3b414b"/>
<g transform="translate(554.8,474) rotate(35)">
<text x="0" y="0" font-size="10.5" fill="#8b949e">#12</text>
<text x="0" y="12" font-size="10.5" fill="#8b949e">greedy</text>
</g>
<line x1="592.7" y1="456" x2="592.7" y2="461" stroke="#3b414b"/>
<g transform="translate(592.7,474) rotate(35)">
<text x="0" y="0" font-size="10.5" fill="#8b949e">#13</text>
<text x="0" y="12" font-size="10.5" fill="#8b949e">greedy</text>
</g>
<line x1="630.6" y1="456" x2="630.6" y2="461" stroke="#3b414b"/>
<g transform="translate(630.6,474) rotate(35)">
<text x="0" y="0" font-size="10.5" fill="#8b949e">#14</text>
<text x="0" y="12" font-size="10.5" fill="#8b949e">vertical</text>
</g>
<line x1="668.5" y1="456" x2="668.5" y2="461" stroke="#3b414b"/>
<g transform="translate(668.5,474) rotate(35)">
<text x="0" y="0" font-size="10.5" fill="#8b949e">#15</text>
<text x="0" y="12" font-size="10.5" fill="#8b949e">three_sum</text>
</g>
<line x1="706.5" y1="456" x2="706.5" y2="461" stroke="#3b414b"/>
<g transform="translate(706.5,474) rotate(35)">
<text x="0" y="0" font-size="10.5" fill="#8b949e">#16</text>
<text x="0" y="12" font-size="10.5" fill="#8b949e">three_sum_clo…</text>
</g>
<line x1="744.4" y1="456" x2="744.4" y2="461" stroke="#3b414b"/>
<g transform="translate(744.4,474) rotate(35)">
<text x="0" y="0" font-size="10.5" fill="#8b949e">#17</text>
<text x="0" y="12" font-size="10.5" fill="#8b949e">letter_combin…</text>
</g>
<line x1="782.3" y1="456" x2="782.3" y2="461" stroke="#3b414b"/>
<g transform="translate(782.3,474) rotate(35)">
<text x="0" y="0" font-size="10.5" fill="#8b949e">#204</text>
<text x="0" y="12" font-size="10.5" fill="#8b949e">count</text>
</g>
<circle cx="102.6" cy="431.6" r="4.0" fill="#3fb950" opacity="0.95"/>
<circle cx="140.5" cy="438.7" r="4.0" fill="#3fb950" opacity="0.95"/>
<circle cx="178.4" cy="435.5" r="4.0" fill="#3fb950" opacity="0.95"/>
<circle cx="216.3" cy="438.9" r="4.0" fill="#3fb950" opacity="0.95"/>
<circle cx="254.3" cy="433.7" r="4.0" fill="#3fb950" opacity="0.95"/>
<circle cx="292.2" cy="434.0" r="4.0" fill="#3fb950" opacity="0.95"/>
<circle cx="330.1" cy="435.4" r="4.0" fill="#3fb950" opacity="0.95"/>
<circle cx="368.0" cy="431.9" r="4.0" fill="#3fb950" opacity="0.95"/>
<circle cx="406.0" cy="431.3" r="4.0" fill="#3fb950" opacity="0.95"/>
<circle cx="443.9" cy="432.3" r="4.0" fill="#3fb950" opacity="0.95"/>
<circle cx="481.8" cy="432.1" r="4.0" fill="#3fb950" opacity="0.95"/>
<circle cx="519.7" cy="432.8" r="4.0" fill="#3fb950" opacity="0.95"/>
<circle cx="557.6" cy="433.1" r="4.0" fill="#3fb950" opacity="0.95"/>
<circle cx="595.6" cy="433.4" r="4.0" fill="#3fb950" opacity="0.95"/>
<circle cx="633.5" cy="434.2" r="4.0" fill="#3fb950" opacity="0.95"/>
<circle cx="671.4" cy="439.2" r="4.0" fill="#3fb950" opacity="0.95"/>
<circle cx="709.3" cy="438.7" r="4.0" fill="#3fb950" opacity="0.95"/>
<circle cx="747.3" cy="433.4" r="4.0" fill="#3fb950" opacity="0.95"/>
<circle cx="785.2" cy="431.6" r="4.0" fill="#3fb950" opacity="0.95"/>
<circle cx="96.8" cy="366.0" r="5.0" fill="#ff922b" opacity="1.0"/>
<circle cx="134.7" cy="389.9" r="5.0" fill="#ff922b" opacity="1.0"/>
<circle cx="172.7" cy="368.7" r="5.0" fill="#ff922b" opacity="1.0"/>
<circle cx="210.6" cy="388.6" r="5.0" fill="#ff922b" opacity="1.0"/>
<circle cx="248.5" cy="368.1" r="5.0" fill="#ff922b" opacity="1.0"/>
<circle cx="286.4" cy="373.1" r="5.0" fill="#ff922b" opacity="1.0"/>
<circle cx="324.4" cy="371.3" r="5.0" fill="#ff922b" opacity="1.0"/>
<circle cx="362.3" cy="362.4" r="5.0" fill="#ff922b" opacity="1.0"/>
<circle cx="400.2" cy="358.1" r="5.0" fill="#ff922b" opacity="1.0"/>
<circle cx="438.1" cy="361.4" r="5.0" fill="#ff922b" opacity="1.0"/>
<circle cx="476.0" cy="358.7" r="5.0" fill="#ff922b" opacity="1.0"/>
<circle cx="514.0" cy="367.7" r="5.0" fill="#ff922b" opacity="1.0"/>
<circle cx="551.9" cy="351.0" r="5.0" fill="#ff922b" opacity="1.0"/>
<circle cx="589.8" cy="348.8" r="5.0" fill="#ff922b" opacity="1.0"/>
<circle cx="627.7" cy="360.8" r="5.0" fill="#ff922b" opacity="1.0"/>
<circle cx="665.7" cy="381.2" r="5.0" fill="#ff922b" opacity="1.0"/>
<circle cx="703.6" cy="384.5" r="5.0" fill="#ff922b" opacity="1.0"/>
<circle cx="741.5" cy="359.0" r="5.0" fill="#ff922b" opacity="1.0"/>
<circle cx="779.4" cy="362.8" r="5.0" fill="#ff922b" opacity="1.0"/>
<circle cx="847" cy="84" r="5" fill="#ff922b"/>
<text x="866" y="88" font-size="13" fill="#c9d1d9" font-weight="700">Kāra</text>
<line x1="836" y1="108" x2="858" y2="108" stroke="#6e7681" stroke-width="1.6" stroke-dasharray="5 4"/>
<text x="866" y="112" font-size="13" fill="#c9d1d9" font-weight="400">Rust</text>
<circle cx="847" cy="132" r="4" fill="#3fb950"/>
<text x="866" y="136" font-size="13" fill="#c9d1d9" font-weight="400">C</text>
<text x="70" y="538" font-size="11.5" fill="#8b949e">Each dot is one benchmarked program (kata × approach); there is no connecting line because left-to-right order is not meaningful. Raw numbers: bench-results.json</text>
</svg>