<svg xmlns="http://www.w3.org/2000/svg" width="980" height="560" viewBox="0 0 980 560" font-family="-apple-system,Segoe UI,Helvetica,Arial,sans-serif">
<rect width="980" height="560" fill="#282c34"/>
<text x="70" y="34" font-size="21" font-weight="700" fill="#c9d1d9">Compile peak memory (cold)</text>
<text x="70" y="56" font-size="13" fill="#8b949e">relative to Rust = 1.0 · lower = leaner · 94 programs</text>
<line x1="70" y1="456.0" x2="812" y2="456.0" stroke="#3b414b" stroke-width="1"/>
<text x="60" y="460.0" font-size="12" text-anchor="end" fill="#8b949e">0.0×</text>
<line x1="70" y1="330.0" x2="812" y2="330.0" stroke="#3b414b" stroke-width="1"/>
<text x="60" y="334.0" font-size="12" text-anchor="end" fill="#8b949e">0.5×</text>
<line x1="70" y1="204.0" x2="812" y2="204.0" stroke="#a7b0bc" stroke-width="2" stroke-dasharray="5 4"/>
<text x="60" y="208.0" font-size="12" text-anchor="end" fill="#aeb6c0" font-weight="700">1.0×</text>
<line x1="70" y1="78.0" x2="812" y2="78.0" stroke="#3b414b" stroke-width="1"/>
<text x="60" y="82.0" font-size="12" text-anchor="end" fill="#8b949e">1.5×</text>
<text x="812" y="198.0" font-size="11" text-anchor="end" fill="#aeb6c0">Rust baseline</text>
<line x1="70" y1="456" x2="812" y2="456" stroke="#3b414b"/>
<text x="441.0" y="478" font-size="11" text-anchor="middle" fill="#8b949e">94 programs (kata × approach) — x-order carries no meaning</text>
<circle cx="100.7" cy="431.6" r="2.6" fill="#3fb950" opacity="0.7"/>
<circle cx="108.0" cy="438.7" r="2.6" fill="#3fb950" opacity="0.7"/>
<circle cx="115.4" cy="435.8" r="2.6" fill="#3fb950" opacity="0.7"/>
<circle cx="122.7" cy="439.1" r="2.6" fill="#3fb950" opacity="0.7"/>
<circle cx="130.0" cy="434.2" r="2.6" fill="#3fb950" opacity="0.7"/>
<circle cx="137.4" cy="434.5" r="2.6" fill="#3fb950" opacity="0.7"/>
<circle cx="144.7" cy="435.8" r="2.6" fill="#3fb950" opacity="0.7"/>
<circle cx="152.1" cy="432.0" r="2.6" fill="#3fb950" opacity="0.7"/>
<circle cx="159.4" cy="431.7" r="2.6" fill="#3fb950" opacity="0.7"/>
<circle cx="166.7" cy="432.3" r="2.6" fill="#3fb950" opacity="0.7"/>
<circle cx="174.1" cy="432.1" r="2.6" fill="#3fb950" opacity="0.7"/>
<circle cx="181.4" cy="433.4" r="2.6" fill="#3fb950" opacity="0.7"/>
<circle cx="188.8" cy="433.0" r="2.6" fill="#3fb950" opacity="0.7"/>
<circle cx="196.1" cy="433.3" r="2.6" fill="#3fb950" opacity="0.7"/>
<circle cx="203.4" cy="434.3" r="2.6" fill="#3fb950" opacity="0.7"/>
<circle cx="210.8" cy="439.1" r="2.6" fill="#3fb950" opacity="0.7"/>
<circle cx="218.1" cy="438.8" r="2.6" fill="#3fb950" opacity="0.7"/>
<circle cx="225.5" cy="433.2" r="2.6" fill="#3fb950" opacity="0.7"/>
<circle cx="232.8" cy="439.4" r="2.6" fill="#3fb950" opacity="0.7"/>
<circle cx="240.1" cy="434.9" r="2.6" fill="#3fb950" opacity="0.7"/>
<circle cx="247.5" cy="432.1" r="2.6" fill="#3fb950" opacity="0.7"/>
<circle cx="254.8" cy="435.3" r="2.6" fill="#3fb950" opacity="0.7"/>
<circle cx="262.2" cy="432.8" r="2.6" fill="#3fb950" opacity="0.7"/>
<circle cx="269.5" cy="436.7" r="2.6" fill="#3fb950" opacity="0.7"/>
<circle cx="276.8" cy="434.7" r="2.6" fill="#3fb950" opacity="0.7"/>
<circle cx="284.2" cy="435.6" r="2.6" fill="#3fb950" opacity="0.7"/>
<circle cx="291.5" cy="433.8" r="2.6" fill="#3fb950" opacity="0.7"/>
<circle cx="298.9" cy="434.0" r="2.6" fill="#3fb950" opacity="0.7"/>
<circle cx="306.2" cy="431.9" r="2.6" fill="#3fb950" opacity="0.7"/>
<circle cx="313.5" cy="433.4" r="2.6" fill="#3fb950" opacity="0.7"/>
<circle cx="320.9" cy="430.6" r="2.6" fill="#3fb950" opacity="0.7"/>
<circle cx="328.2" cy="439.9" r="2.6" fill="#3fb950" opacity="0.7"/>
<circle cx="335.6" cy="431.0" r="2.6" fill="#3fb950" opacity="0.7"/>
<circle cx="342.9" cy="432.1" r="2.6" fill="#3fb950" opacity="0.7"/>
<circle cx="350.2" cy="431.8" r="2.6" fill="#3fb950" opacity="0.7"/>
<circle cx="357.6" cy="432.1" r="2.6" fill="#3fb950" opacity="0.7"/>
<circle cx="364.9" cy="431.8" r="2.6" fill="#3fb950" opacity="0.7"/>
<circle cx="372.3" cy="431.4" r="2.6" fill="#3fb950" opacity="0.7"/>
<circle cx="379.6" cy="431.9" r="2.6" fill="#3fb950" opacity="0.7"/>
<circle cx="386.9" cy="433.4" r="2.6" fill="#3fb950" opacity="0.7"/>
<circle cx="394.3" cy="434.1" r="2.6" fill="#3fb950" opacity="0.7"/>
<circle cx="401.6" cy="436.9" r="2.6" fill="#3fb950" opacity="0.7"/>
<circle cx="409.0" cy="433.4" r="2.6" fill="#3fb950" opacity="0.7"/>
<circle cx="416.3" cy="433.0" r="2.6" fill="#3fb950" opacity="0.7"/>
<circle cx="423.6" cy="435.6" r="2.6" fill="#3fb950" opacity="0.7"/>
<circle cx="431.0" cy="435.2" r="2.6" fill="#3fb950" opacity="0.7"/>
<circle cx="438.3" cy="433.8" r="2.6" fill="#3fb950" opacity="0.7"/>
<circle cx="445.7" cy="435.8" r="2.6" fill="#3fb950" opacity="0.7"/>
<circle cx="453.0" cy="439.5" r="2.6" fill="#3fb950" opacity="0.7"/>
<circle cx="460.3" cy="435.7" r="2.6" fill="#3fb950" opacity="0.7"/>
<circle cx="467.7" cy="443.0" r="2.6" fill="#3fb950" opacity="0.7"/>
<circle cx="475.0" cy="430.7" r="2.6" fill="#3fb950" opacity="0.7"/>
<circle cx="482.4" cy="431.2" r="2.6" fill="#3fb950" opacity="0.7"/>
<circle cx="489.7" cy="430.8" r="2.6" fill="#3fb950" opacity="0.7"/>
<circle cx="497.0" cy="429.6" r="2.6" fill="#3fb950" opacity="0.7"/>
<circle cx="504.4" cy="430.6" r="2.6" fill="#3fb950" opacity="0.7"/>
<circle cx="511.7" cy="431.8" r="2.6" fill="#3fb950" opacity="0.7"/>
<circle cx="519.1" cy="439.4" r="2.6" fill="#3fb950" opacity="0.7"/>
<circle cx="526.4" cy="435.4" r="2.6" fill="#3fb950" opacity="0.7"/>
<circle cx="533.8" cy="435.6" r="2.6" fill="#3fb950" opacity="0.7"/>
<circle cx="541.1" cy="435.9" r="2.6" fill="#3fb950" opacity="0.7"/>
<circle cx="548.4" cy="434.9" r="2.6" fill="#3fb950" opacity="0.7"/>
<circle cx="555.8" cy="433.4" r="2.6" fill="#3fb950" opacity="0.7"/>
<circle cx="563.1" cy="432.7" r="2.6" fill="#3fb950" opacity="0.7"/>
<circle cx="570.5" cy="433.1" r="2.6" fill="#3fb950" opacity="0.7"/>
<circle cx="577.8" cy="432.2" r="2.6" fill="#3fb950" opacity="0.7"/>
<circle cx="585.1" cy="430.5" r="2.6" fill="#3fb950" opacity="0.7"/>
<circle cx="592.5" cy="432.2" r="2.6" fill="#3fb950" opacity="0.7"/>
<circle cx="599.8" cy="429.8" r="2.6" fill="#3fb950" opacity="0.7"/>
<circle cx="607.2" cy="430.3" r="2.6" fill="#3fb950" opacity="0.7"/>
<circle cx="614.5" cy="436.2" r="2.6" fill="#3fb950" opacity="0.7"/>
<circle cx="621.8" cy="433.2" r="2.6" fill="#3fb950" opacity="0.7"/>
<circle cx="629.2" cy="434.8" r="2.6" fill="#3fb950" opacity="0.7"/>
<circle cx="636.5" cy="432.9" r="2.6" fill="#3fb950" opacity="0.7"/>
<circle cx="643.9" cy="431.7" r="2.6" fill="#3fb950" opacity="0.7"/>
<circle cx="651.2" cy="433.0" r="2.6" fill="#3fb950" opacity="0.7"/>
<circle cx="658.5" cy="434.8" r="2.6" fill="#3fb950" opacity="0.7"/>
<circle cx="665.9" cy="432.0" r="2.6" fill="#3fb950" opacity="0.7"/>
<circle cx="673.2" cy="432.5" r="2.6" fill="#3fb950" opacity="0.7"/>
<circle cx="680.6" cy="432.8" r="2.6" fill="#3fb950" opacity="0.7"/>
<circle cx="687.9" cy="432.8" r="2.6" fill="#3fb950" opacity="0.7"/>
<circle cx="695.2" cy="441.6" r="2.6" fill="#3fb950" opacity="0.7"/>
<circle cx="702.6" cy="432.2" r="2.6" fill="#3fb950" opacity="0.7"/>
<circle cx="709.9" cy="434.1" r="2.6" fill="#3fb950" opacity="0.7"/>
<circle cx="717.3" cy="435.5" r="2.6" fill="#3fb950" opacity="0.7"/>
<circle cx="724.6" cy="432.2" r="2.6" fill="#3fb950" opacity="0.7"/>
<circle cx="731.9" cy="437.2" r="2.6" fill="#3fb950" opacity="0.7"/>
<circle cx="739.3" cy="436.9" r="2.6" fill="#3fb950" opacity="0.7"/>
<circle cx="746.6" cy="434.6" r="2.6" fill="#3fb950" opacity="0.7"/>
<circle cx="754.0" cy="433.5" r="2.6" fill="#3fb950" opacity="0.7"/>
<circle cx="761.3" cy="434.4" r="2.6" fill="#3fb950" opacity="0.7"/>
<circle cx="768.6" cy="435.8" r="2.6" fill="#3fb950" opacity="0.7"/>
<circle cx="776.0" cy="438.9" r="2.6" fill="#3fb950" opacity="0.7"/>
<circle cx="783.3" cy="441.8" r="2.6" fill="#3fb950" opacity="0.7"/>
<circle cx="98.7" cy="330.2" r="3.2" fill="#ff922b" opacity="0.85"/>
<circle cx="106.0" cy="366.3" r="3.2" fill="#ff922b" opacity="0.85"/>
<circle cx="113.4" cy="348.3" r="3.2" fill="#ff922b" opacity="0.85"/>
<circle cx="120.7" cy="368.1" r="3.2" fill="#ff922b" opacity="0.85"/>
<circle cx="128.0" cy="338.7" r="3.2" fill="#ff922b" opacity="0.85"/>
<circle cx="135.4" cy="342.1" r="3.2" fill="#ff922b" opacity="0.85"/>
<circle cx="142.7" cy="344.6" r="3.2" fill="#ff922b" opacity="0.85"/>
<circle cx="150.1" cy="334.2" r="3.2" fill="#ff922b" opacity="0.85"/>
<circle cx="157.4" cy="327.6" r="3.2" fill="#ff922b" opacity="0.85"/>
<circle cx="164.7" cy="330.4" r="3.2" fill="#ff922b" opacity="0.85"/>
<circle cx="172.1" cy="325.6" r="3.2" fill="#ff922b" opacity="0.85"/>
<circle cx="179.4" cy="336.7" r="3.2" fill="#ff922b" opacity="0.85"/>
<circle cx="186.8" cy="325.6" r="3.2" fill="#ff922b" opacity="0.85"/>
<circle cx="194.1" cy="321.2" r="3.2" fill="#ff922b" opacity="0.85"/>
<circle cx="201.4" cy="336.9" r="3.2" fill="#ff922b" opacity="0.85"/>
<circle cx="208.8" cy="352.4" r="3.2" fill="#ff922b" opacity="0.85"/>
<circle cx="216.1" cy="354.1" r="3.2" fill="#ff922b" opacity="0.85"/>
<circle cx="223.5" cy="331.3" r="3.2" fill="#ff922b" opacity="0.85"/>
<circle cx="230.8" cy="340.2" r="3.2" fill="#ff922b" opacity="0.85"/>
<circle cx="238.1" cy="341.5" r="3.2" fill="#ff922b" opacity="0.85"/>
<circle cx="245.5" cy="330.6" r="3.2" fill="#ff922b" opacity="0.85"/>
<circle cx="252.8" cy="338.7" r="3.2" fill="#ff922b" opacity="0.85"/>
<circle cx="260.2" cy="336.2" r="3.2" fill="#ff922b" opacity="0.85"/>
<circle cx="267.5" cy="339.5" r="3.2" fill="#ff922b" opacity="0.85"/>
<circle cx="274.8" cy="341.0" r="3.2" fill="#ff922b" opacity="0.85"/>
<circle cx="282.2" cy="339.5" r="3.2" fill="#ff922b" opacity="0.85"/>
<circle cx="289.5" cy="340.1" r="3.2" fill="#ff922b" opacity="0.85"/>
<circle cx="296.9" cy="341.6" r="3.2" fill="#ff922b" opacity="0.85"/>
<circle cx="304.2" cy="331.3" r="3.2" fill="#ff922b" opacity="0.85"/>
<circle cx="311.5" cy="334.9" r="3.2" fill="#ff922b" opacity="0.85"/>
<circle cx="318.9" cy="328.8" r="3.2" fill="#ff922b" opacity="0.85"/>
<circle cx="326.2" cy="358.6" r="3.2" fill="#ff922b" opacity="0.85"/>
<circle cx="333.6" cy="325.4" r="3.2" fill="#ff922b" opacity="0.85"/>
<circle cx="340.9" cy="330.5" r="3.2" fill="#ff922b" opacity="0.85"/>
<circle cx="348.2" cy="332.9" r="3.2" fill="#ff922b" opacity="0.85"/>
<circle cx="355.6" cy="331.8" r="3.2" fill="#ff922b" opacity="0.85"/>
<circle cx="362.9" cy="332.5" r="3.2" fill="#ff922b" opacity="0.85"/>
<circle cx="370.3" cy="290.0" r="3.2" fill="#ff922b" opacity="0.85"/>
<circle cx="377.6" cy="308.0" r="3.2" fill="#ff922b" opacity="0.85"/>
<circle cx="385.0" cy="332.6" r="3.2" fill="#ff922b" opacity="0.85"/>
<circle cx="392.3" cy="336.9" r="3.2" fill="#ff922b" opacity="0.85"/>
<circle cx="399.6" cy="346.4" r="3.2" fill="#ff922b" opacity="0.85"/>
<circle cx="407.0" cy="337.1" r="3.2" fill="#ff922b" opacity="0.85"/>
<circle cx="414.3" cy="335.6" r="3.2" fill="#ff922b" opacity="0.85"/>
<circle cx="421.7" cy="334.7" r="3.2" fill="#ff922b" opacity="0.85"/>
<circle cx="429.0" cy="344.1" r="3.2" fill="#ff922b" opacity="0.85"/>
<circle cx="436.3" cy="339.7" r="3.2" fill="#ff922b" opacity="0.85"/>
<circle cx="443.7" cy="344.1" r="3.2" fill="#ff922b" opacity="0.85"/>
<circle cx="451.0" cy="361.9" r="3.2" fill="#ff922b" opacity="0.85"/>
<circle cx="458.4" cy="298.5" r="3.2" fill="#ff922b" opacity="0.85"/>
<circle cx="465.7" cy="360.2" r="3.2" fill="#ff922b" opacity="0.85"/>
<circle cx="473.0" cy="274.7" r="3.2" fill="#ff922b" opacity="0.85"/>
<circle cx="480.4" cy="269.5" r="3.2" fill="#ff922b" opacity="0.85"/>
<circle cx="487.7" cy="265.6" r="3.2" fill="#ff922b" opacity="0.85"/>
<circle cx="495.1" cy="261.5" r="3.2" fill="#ff922b" opacity="0.85"/>
<circle cx="502.4" cy="254.2" r="3.2" fill="#ff922b" opacity="0.85"/>
<circle cx="509.7" cy="281.4" r="3.2" fill="#ff922b" opacity="0.85"/>
<circle cx="517.1" cy="365.0" r="3.2" fill="#ff922b" opacity="0.85"/>
<circle cx="524.4" cy="291.7" r="3.2" fill="#ff922b" opacity="0.85"/>
<circle cx="531.8" cy="289.6" r="3.2" fill="#ff922b" opacity="0.85"/>
<circle cx="539.1" cy="290.8" r="3.2" fill="#ff922b" opacity="0.85"/>
<circle cx="546.4" cy="286.2" r="3.2" fill="#ff922b" opacity="0.85"/>
<circle cx="553.8" cy="292.3" r="3.2" fill="#ff922b" opacity="0.85"/>
<circle cx="561.1" cy="281.6" r="3.2" fill="#ff922b" opacity="0.85"/>
<circle cx="568.5" cy="280.7" r="3.2" fill="#ff922b" opacity="0.85"/>
<circle cx="575.8" cy="327.4" r="3.2" fill="#ff922b" opacity="0.85"/>
<circle cx="583.1" cy="265.6" r="3.2" fill="#ff922b" opacity="0.85"/>
<circle cx="590.5" cy="242.3" r="3.2" fill="#ff922b" opacity="0.85"/>
<circle cx="597.8" cy="263.3" r="3.2" fill="#ff922b" opacity="0.85"/>
<circle cx="605.2" cy="265.9" r="3.2" fill="#ff922b" opacity="0.85"/>
<circle cx="612.5" cy="344.1" r="3.2" fill="#ff922b" opacity="0.85"/>
<circle cx="619.8" cy="277.5" r="3.2" fill="#ff922b" opacity="0.85"/>
<circle cx="627.2" cy="278.4" r="3.2" fill="#ff922b" opacity="0.85"/>
<circle cx="634.5" cy="277.6" r="3.2" fill="#ff922b" opacity="0.85"/>
<circle cx="641.9" cy="274.3" r="3.2" fill="#ff922b" opacity="0.85"/>
<circle cx="649.2" cy="268.2" r="3.2" fill="#ff922b" opacity="0.85"/>
<circle cx="656.5" cy="345.4" r="3.2" fill="#ff922b" opacity="0.85"/>
<circle cx="663.9" cy="334.0" r="3.2" fill="#ff922b" opacity="0.85"/>
<circle cx="671.2" cy="269.7" r="3.2" fill="#ff922b" opacity="0.85"/>
<circle cx="678.6" cy="338.4" r="3.2" fill="#ff922b" opacity="0.85"/>
<circle cx="685.9" cy="333.2" r="3.2" fill="#ff922b" opacity="0.85"/>
<circle cx="693.2" cy="375.2" r="3.2" fill="#ff922b" opacity="0.85"/>
<circle cx="700.6" cy="334.3" r="3.2" fill="#ff922b" opacity="0.85"/>
<circle cx="707.9" cy="341.6" r="3.2" fill="#ff922b" opacity="0.85"/>
<circle cx="715.3" cy="346.9" r="3.2" fill="#ff922b" opacity="0.85"/>
<circle cx="722.6" cy="334.4" r="3.2" fill="#ff922b" opacity="0.85"/>
<circle cx="729.9" cy="349.7" r="3.2" fill="#ff922b" opacity="0.85"/>
<circle cx="737.3" cy="349.7" r="3.2" fill="#ff922b" opacity="0.85"/>
<circle cx="744.6" cy="338.7" r="3.2" fill="#ff922b" opacity="0.85"/>
<circle cx="752.0" cy="338.7" r="3.2" fill="#ff922b" opacity="0.85"/>
<circle cx="759.3" cy="332.4" r="3.2" fill="#ff922b" opacity="0.85"/>
<circle cx="766.6" cy="336.4" r="3.2" fill="#ff922b" opacity="0.85"/>
<circle cx="774.0" cy="367.4" r="3.2" fill="#ff922b" opacity="0.85"/>
<circle cx="781.3" cy="370.7" r="3.2" fill="#ff922b" opacity="0.85"/>
<circle cx="847" cy="84" r="5" fill="#ff922b"/>
<text x="866" y="88" font-size="13" fill="#c9d1d9" font-weight="700">Kāra</text>
<line x1="836" y1="108" x2="858" y2="108" stroke="#a7b0bc" stroke-width="2" stroke-dasharray="5 4"/>
<text x="866" y="112" font-size="13" fill="#c9d1d9" font-weight="400">Rust = 1.0×</text>
<circle cx="847" cy="132" r="4" fill="#3fb950"/>
<text x="866" y="136" font-size="13" fill="#c9d1d9" font-weight="400">C</text>
<text x="70" y="538" font-size="11.5" fill="#8b949e">Each dot is one benchmarked program (kata × approach); there is no connecting line because left-to-right order is not meaningful. Raw numbers: bench-results.json</text>
</svg>