<svg xmlns="http://www.w3.org/2000/svg" width="980" height="560" viewBox="0 0 980 560" font-family="-apple-system,Segoe UI,Helvetica,Arial,sans-serif">
<rect width="980" height="560" fill="#282c34"/>
<text x="70" y="34" font-size="21" font-weight="700" fill="#c9d1d9">Compile peak memory (cold)</text>
<text x="70" y="56" font-size="13" fill="#8b949e">relative to Rust = 1.0 · lower = leaner · 51 programs</text>
<line x1="70" y1="456.0" x2="812" y2="456.0" stroke="#3b414b" stroke-width="1"/>
<text x="60" y="460.0" font-size="12" text-anchor="end" fill="#8b949e">0.0×</text>
<line x1="70" y1="393.0" x2="812" y2="393.0" stroke="#a7b0bc" stroke-width="2" stroke-dasharray="5 4"/>
<text x="60" y="397.0" font-size="12" text-anchor="end" fill="#aeb6c0" font-weight="700">1.0×</text>
<line x1="70" y1="380.4" x2="812" y2="380.4" stroke="#3b414b" stroke-width="1"/>
<text x="60" y="384.4" font-size="12" text-anchor="end" fill="#8b949e">1.2×</text>
<line x1="70" y1="304.8" x2="812" y2="304.8" stroke="#3b414b" stroke-width="1"/>
<text x="60" y="308.8" font-size="12" text-anchor="end" fill="#8b949e">2.4×</text>
<line x1="70" y1="229.2" x2="812" y2="229.2" stroke="#3b414b" stroke-width="1"/>
<text x="60" y="233.2" font-size="12" text-anchor="end" fill="#8b949e">3.6×</text>
<line x1="70" y1="153.6" x2="812" y2="153.6" stroke="#3b414b" stroke-width="1"/>
<text x="60" y="157.6" font-size="12" text-anchor="end" fill="#8b949e">4.8×</text>
<line x1="70" y1="78.0" x2="812" y2="78.0" stroke="#3b414b" stroke-width="1"/>
<text x="60" y="82.0" font-size="12" text-anchor="end" fill="#8b949e">6.0×</text>
<text x="812" y="387.0" font-size="11" text-anchor="end" fill="#aeb6c0">Rust baseline</text>
<line x1="70" y1="456" x2="812" y2="456" stroke="#3b414b"/>
<text x="441.0" y="478" font-size="11" text-anchor="middle" fill="#8b949e">51 programs (kata × approach) — x-order carries no meaning</text>
<circle cx="101.5" cy="449.9" r="2.6" fill="#3fb950" opacity="0.7"/>
<circle cx="115.2" cy="451.7" r="2.6" fill="#3fb950" opacity="0.7"/>
<circle cx="128.8" cy="451.0" r="2.6" fill="#3fb950" opacity="0.7"/>
<circle cx="142.5" cy="451.7" r="2.6" fill="#3fb950" opacity="0.7"/>
<circle cx="156.1" cy="450.4" r="2.6" fill="#3fb950" opacity="0.7"/>
<circle cx="169.8" cy="450.6" r="2.6" fill="#3fb950" opacity="0.7"/>
<circle cx="183.5" cy="451.0" r="2.6" fill="#3fb950" opacity="0.7"/>
<circle cx="197.1" cy="450.0" r="2.6" fill="#3fb950" opacity="0.7"/>
<circle cx="210.8" cy="449.8" r="2.6" fill="#3fb950" opacity="0.7"/>
<circle cx="224.4" cy="450.1" r="2.6" fill="#3fb950" opacity="0.7"/>
<circle cx="238.1" cy="450.0" r="2.6" fill="#3fb950" opacity="0.7"/>
<circle cx="251.7" cy="450.2" r="2.6" fill="#3fb950" opacity="0.7"/>
<circle cx="265.4" cy="450.3" r="2.6" fill="#3fb950" opacity="0.7"/>
<circle cx="279.0" cy="450.3" r="2.6" fill="#3fb950" opacity="0.7"/>
<circle cx="292.7" cy="450.6" r="2.6" fill="#3fb950" opacity="0.7"/>
<circle cx="306.3" cy="451.8" r="2.6" fill="#3fb950" opacity="0.7"/>
<circle cx="320.0" cy="451.7" r="2.6" fill="#3fb950" opacity="0.7"/>
<circle cx="333.6" cy="450.4" r="2.6" fill="#3fb950" opacity="0.7"/>
<circle cx="347.3" cy="451.9" r="2.6" fill="#3fb950" opacity="0.7"/>
<circle cx="360.9" cy="450.8" r="2.6" fill="#3fb950" opacity="0.7"/>
<circle cx="374.6" cy="450.0" r="2.6" fill="#3fb950" opacity="0.7"/>
<circle cx="388.2" cy="450.8" r="2.6" fill="#3fb950" opacity="0.7"/>
<circle cx="401.9" cy="450.2" r="2.6" fill="#3fb950" opacity="0.7"/>
<circle cx="415.5" cy="451.2" r="2.6" fill="#3fb950" opacity="0.7"/>
<circle cx="429.2" cy="450.6" r="2.6" fill="#3fb950" opacity="0.7"/>
<circle cx="442.9" cy="451.0" r="2.6" fill="#3fb950" opacity="0.7"/>
<circle cx="456.5" cy="450.5" r="2.6" fill="#3fb950" opacity="0.7"/>
<circle cx="470.2" cy="450.5" r="2.6" fill="#3fb950" opacity="0.7"/>
<circle cx="483.8" cy="450.1" r="2.6" fill="#3fb950" opacity="0.7"/>
<circle cx="497.5" cy="450.4" r="2.6" fill="#3fb950" opacity="0.7"/>
<circle cx="511.1" cy="449.7" r="2.6" fill="#3fb950" opacity="0.7"/>
<circle cx="524.8" cy="452.0" r="2.6" fill="#3fb950" opacity="0.7"/>
<circle cx="538.4" cy="452.0" r="2.6" fill="#3fb950" opacity="0.7"/>
<circle cx="552.1" cy="450.1" r="2.6" fill="#3fb950" opacity="0.7"/>
<circle cx="565.7" cy="451.1" r="2.6" fill="#3fb950" opacity="0.7"/>
<circle cx="579.4" cy="450.7" r="2.6" fill="#3fb950" opacity="0.7"/>
<circle cx="593.0" cy="450.1" r="2.6" fill="#3fb950" opacity="0.7"/>
<circle cx="606.7" cy="450.4" r="2.6" fill="#3fb950" opacity="0.7"/>
<circle cx="620.3" cy="450.2" r="2.6" fill="#3fb950" opacity="0.7"/>
<circle cx="634.0" cy="452.4" r="2.6" fill="#3fb950" opacity="0.7"/>
<circle cx="647.6" cy="450.1" r="2.6" fill="#3fb950" opacity="0.7"/>
<circle cx="661.3" cy="450.4" r="2.6" fill="#3fb950" opacity="0.7"/>
<circle cx="675.0" cy="450.9" r="2.6" fill="#3fb950" opacity="0.7"/>
<circle cx="688.6" cy="450.1" r="2.6" fill="#3fb950" opacity="0.7"/>
<circle cx="702.3" cy="451.3" r="2.6" fill="#3fb950" opacity="0.7"/>
<circle cx="715.9" cy="451.3" r="2.6" fill="#3fb950" opacity="0.7"/>
<circle cx="729.6" cy="450.7" r="2.6" fill="#3fb950" opacity="0.7"/>
<circle cx="743.2" cy="450.4" r="2.6" fill="#3fb950" opacity="0.7"/>
<circle cx="756.9" cy="450.9" r="2.6" fill="#3fb950" opacity="0.7"/>
<circle cx="770.5" cy="451.8" r="2.6" fill="#3fb950" opacity="0.7"/>
<circle cx="784.2" cy="452.5" r="2.6" fill="#3fb950" opacity="0.7"/>
<circle cx="97.8" cy="116.4" r="3.2" fill="#ff922b" opacity="0.85"/>
<circle cx="111.5" cy="433.9" r="3.2" fill="#ff922b" opacity="0.85"/>
<circle cx="125.1" cy="432.1" r="3.2" fill="#ff922b" opacity="0.85"/>
<circle cx="138.8" cy="439.1" r="3.2" fill="#ff922b" opacity="0.85"/>
<circle cx="152.4" cy="434.0" r="3.2" fill="#ff922b" opacity="0.85"/>
<circle cx="166.1" cy="431.5" r="3.2" fill="#ff922b" opacity="0.85"/>
<circle cx="179.7" cy="431.7" r="3.2" fill="#ff922b" opacity="0.85"/>
<circle cx="193.4" cy="432.6" r="3.2" fill="#ff922b" opacity="0.85"/>
<circle cx="207.0" cy="431.5" r="3.2" fill="#ff922b" opacity="0.85"/>
<circle cx="220.7" cy="432.3" r="3.2" fill="#ff922b" opacity="0.85"/>
<circle cx="234.4" cy="431.7" r="3.2" fill="#ff922b" opacity="0.85"/>
<circle cx="248.0" cy="433.9" r="3.2" fill="#ff922b" opacity="0.85"/>
<circle cx="261.7" cy="429.8" r="3.2" fill="#ff922b" opacity="0.85"/>
<circle cx="275.3" cy="429.2" r="3.2" fill="#ff922b" opacity="0.85"/>
<circle cx="289.0" cy="432.2" r="3.2" fill="#ff922b" opacity="0.85"/>
<circle cx="302.6" cy="437.3" r="3.2" fill="#ff922b" opacity="0.85"/>
<circle cx="316.3" cy="438.1" r="3.2" fill="#ff922b" opacity="0.85"/>
<circle cx="329.9" cy="431.8" r="3.2" fill="#ff922b" opacity="0.85"/>
<circle cx="343.6" cy="436.6" r="3.2" fill="#ff922b" opacity="0.85"/>
<circle cx="357.2" cy="434.7" r="3.2" fill="#ff922b" opacity="0.85"/>
<circle cx="370.9" cy="431.5" r="3.2" fill="#ff922b" opacity="0.85"/>
<circle cx="384.5" cy="430.0" r="3.2" fill="#ff922b" opacity="0.85"/>
<circle cx="398.2" cy="428.1" r="3.2" fill="#ff922b" opacity="0.85"/>
<circle cx="411.8" cy="429.6" r="3.2" fill="#ff922b" opacity="0.85"/>
<circle cx="425.5" cy="428.9" r="3.2" fill="#ff922b" opacity="0.85"/>
<circle cx="439.1" cy="429.1" r="3.2" fill="#ff922b" opacity="0.85"/>
<circle cx="452.8" cy="429.5" r="3.2" fill="#ff922b" opacity="0.85"/>
<circle cx="466.5" cy="429.0" r="3.2" fill="#ff922b" opacity="0.85"/>
<circle cx="480.1" cy="427.4" r="3.2" fill="#ff922b" opacity="0.85"/>
<circle cx="493.8" cy="428.3" r="3.2" fill="#ff922b" opacity="0.85"/>
<circle cx="507.4" cy="425.6" r="3.2" fill="#ff922b" opacity="0.85"/>
<circle cx="521.1" cy="432.8" r="3.2" fill="#ff922b" opacity="0.85"/>
<circle cx="534.7" cy="438.9" r="3.2" fill="#ff922b" opacity="0.85"/>
<circle cx="548.4" cy="431.5" r="3.2" fill="#ff922b" opacity="0.85"/>
<circle cx="562.0" cy="434.2" r="3.2" fill="#ff922b" opacity="0.85"/>
<circle cx="575.7" cy="431.5" r="3.2" fill="#ff922b" opacity="0.85"/>
<circle cx="589.3" cy="433.4" r="3.2" fill="#ff922b" opacity="0.85"/>
<circle cx="603.0" cy="434.1" r="3.2" fill="#ff922b" opacity="0.85"/>
<circle cx="616.6" cy="425.0" r="3.2" fill="#ff922b" opacity="0.85"/>
<circle cx="630.3" cy="437.9" r="3.2" fill="#ff922b" opacity="0.85"/>
<circle cx="643.9" cy="433.8" r="3.2" fill="#ff922b" opacity="0.85"/>
<circle cx="657.6" cy="432.3" r="3.2" fill="#ff922b" opacity="0.85"/>
<circle cx="671.2" cy="428.3" r="3.2" fill="#ff922b" opacity="0.85"/>
<circle cx="684.9" cy="425.2" r="3.2" fill="#ff922b" opacity="0.85"/>
<circle cx="698.5" cy="436.4" r="3.2" fill="#ff922b" opacity="0.85"/>
<circle cx="712.2" cy="436.7" r="3.2" fill="#ff922b" opacity="0.85"/>
<circle cx="725.9" cy="427.0" r="3.2" fill="#ff922b" opacity="0.85"/>
<circle cx="739.5" cy="426.9" r="3.2" fill="#ff922b" opacity="0.85"/>
<circle cx="753.2" cy="426.4" r="3.2" fill="#ff922b" opacity="0.85"/>
<circle cx="766.8" cy="439.6" r="3.2" fill="#ff922b" opacity="0.85"/>
<circle cx="780.5" cy="439.8" r="3.2" fill="#ff922b" opacity="0.85"/>
<circle cx="847" cy="84" r="5" fill="#ff922b"/>
<text x="866" y="88" font-size="13" fill="#c9d1d9" font-weight="700">Kāra</text>
<line x1="836" y1="108" x2="858" y2="108" stroke="#a7b0bc" stroke-width="2" stroke-dasharray="5 4"/>
<text x="866" y="112" font-size="13" fill="#c9d1d9" font-weight="400">Rust = 1.0×</text>
<circle cx="847" cy="132" r="4" fill="#3fb950"/>
<text x="866" y="136" font-size="13" fill="#c9d1d9" font-weight="400">C</text>
<text x="70" y="538" font-size="11.5" fill="#8b949e">Each dot is one benchmarked program (kata × approach); there is no connecting line because left-to-right order is not meaningful. Raw numbers: bench-results.json</text>
</svg>