<svg xmlns="http://www.w3.org/2000/svg" width="980" height="560" viewBox="0 0 980 560" font-family="-apple-system,Segoe UI,Helvetica,Arial,sans-serif">
<rect width="980" height="560" fill="#282c34"/>
<text x="70" y="34" font-size="21" font-weight="700" fill="#c9d1d9">Compile time (cold)</text>
<text x="70" y="56" font-size="13" fill="#8b949e">relative to Rust = 1.0 · lower = faster · 94 programs</text>
<line x1="70" y1="456.0" x2="812" y2="456.0" stroke="#3b414b" stroke-width="1"/>
<text x="60" y="460.0" font-size="12" text-anchor="end" fill="#8b949e">0.0×</text>
<line x1="70" y1="330.0" x2="812" y2="330.0" stroke="#3b414b" stroke-width="1"/>
<text x="60" y="334.0" font-size="12" text-anchor="end" fill="#8b949e">0.5×</text>
<line x1="70" y1="204.0" x2="812" y2="204.0" stroke="#a7b0bc" stroke-width="2" stroke-dasharray="5 4"/>
<text x="60" y="208.0" font-size="12" text-anchor="end" fill="#aeb6c0" font-weight="700">1.0×</text>
<line x1="70" y1="78.0" x2="812" y2="78.0" stroke="#3b414b" stroke-width="1"/>
<text x="60" y="82.0" font-size="12" text-anchor="end" fill="#8b949e">1.5×</text>
<text x="812" y="198.0" font-size="11" text-anchor="end" fill="#aeb6c0">Rust baseline</text>
<line x1="70" y1="456" x2="812" y2="456" stroke="#3b414b"/>
<text x="441.0" y="478" font-size="11" text-anchor="middle" fill="#8b949e">94 programs (kata × approach) — x-order carries no meaning</text>
<circle cx="100.7" cy="315.0" r="2.6" fill="#3fb950" opacity="0.7"/>
<circle cx="108.0" cy="356.9" r="2.6" fill="#3fb950" opacity="0.7"/>
<circle cx="115.4" cy="353.5" r="2.6" fill="#3fb950" opacity="0.7"/>
<circle cx="122.7" cy="361.9" r="2.6" fill="#3fb950" opacity="0.7"/>
<circle cx="130.0" cy="337.9" r="2.6" fill="#3fb950" opacity="0.7"/>
<circle cx="137.4" cy="349.8" r="2.6" fill="#3fb950" opacity="0.7"/>
<circle cx="144.7" cy="362.0" r="2.6" fill="#3fb950" opacity="0.7"/>
<circle cx="152.1" cy="331.0" r="2.6" fill="#3fb950" opacity="0.7"/>
<circle cx="159.4" cy="332.2" r="2.6" fill="#3fb950" opacity="0.7"/>
<circle cx="166.7" cy="329.4" r="2.6" fill="#3fb950" opacity="0.7"/>
<circle cx="174.1" cy="331.8" r="2.6" fill="#3fb950" opacity="0.7"/>
<circle cx="181.4" cy="332.6" r="2.6" fill="#3fb950" opacity="0.7"/>
<circle cx="188.8" cy="331.2" r="2.6" fill="#3fb950" opacity="0.7"/>
<circle cx="196.1" cy="333.4" r="2.6" fill="#3fb950" opacity="0.7"/>
<circle cx="203.4" cy="342.8" r="2.6" fill="#3fb950" opacity="0.7"/>
<circle cx="210.8" cy="354.9" r="2.6" fill="#3fb950" opacity="0.7"/>
<circle cx="218.1" cy="360.0" r="2.6" fill="#3fb950" opacity="0.7"/>
<circle cx="225.5" cy="346.4" r="2.6" fill="#3fb950" opacity="0.7"/>
<circle cx="232.8" cy="354.4" r="2.6" fill="#3fb950" opacity="0.7"/>
<circle cx="240.1" cy="352.3" r="2.6" fill="#3fb950" opacity="0.7"/>
<circle cx="247.5" cy="324.8" r="2.6" fill="#3fb950" opacity="0.7"/>
<circle cx="254.8" cy="357.2" r="2.6" fill="#3fb950" opacity="0.7"/>
<circle cx="262.2" cy="334.3" r="2.6" fill="#3fb950" opacity="0.7"/>
<circle cx="269.5" cy="361.8" r="2.6" fill="#3fb950" opacity="0.7"/>
<circle cx="276.8" cy="353.3" r="2.6" fill="#3fb950" opacity="0.7"/>
<circle cx="284.2" cy="361.3" r="2.6" fill="#3fb950" opacity="0.7"/>
<circle cx="291.5" cy="333.6" r="2.6" fill="#3fb950" opacity="0.7"/>
<circle cx="298.9" cy="333.5" r="2.6" fill="#3fb950" opacity="0.7"/>
<circle cx="306.2" cy="325.5" r="2.6" fill="#3fb950" opacity="0.7"/>
<circle cx="313.5" cy="334.1" r="2.6" fill="#3fb950" opacity="0.7"/>
<circle cx="320.9" cy="320.0" r="2.6" fill="#3fb950" opacity="0.7"/>
<circle cx="328.2" cy="383.0" r="2.6" fill="#3fb950" opacity="0.7"/>
<circle cx="335.6" cy="326.9" r="2.6" fill="#3fb950" opacity="0.7"/>
<circle cx="342.9" cy="333.2" r="2.6" fill="#3fb950" opacity="0.7"/>
<circle cx="350.2" cy="326.8" r="2.6" fill="#3fb950" opacity="0.7"/>
<circle cx="357.6" cy="330.4" r="2.6" fill="#3fb950" opacity="0.7"/>
<circle cx="364.9" cy="330.7" r="2.6" fill="#3fb950" opacity="0.7"/>
<circle cx="372.3" cy="320.5" r="2.6" fill="#3fb950" opacity="0.7"/>
<circle cx="379.6" cy="325.7" r="2.6" fill="#3fb950" opacity="0.7"/>
<circle cx="386.9" cy="328.6" r="2.6" fill="#3fb950" opacity="0.7"/>
<circle cx="394.3" cy="328.3" r="2.6" fill="#3fb950" opacity="0.7"/>
<circle cx="401.6" cy="344.1" r="2.6" fill="#3fb950" opacity="0.7"/>
<circle cx="409.0" cy="321.5" r="2.6" fill="#3fb950" opacity="0.7"/>
<circle cx="416.3" cy="325.8" r="2.6" fill="#3fb950" opacity="0.7"/>
<circle cx="423.6" cy="341.0" r="2.6" fill="#3fb950" opacity="0.7"/>
<circle cx="431.0" cy="344.0" r="2.6" fill="#3fb950" opacity="0.7"/>
<circle cx="438.3" cy="333.3" r="2.6" fill="#3fb950" opacity="0.7"/>
<circle cx="445.7" cy="337.2" r="2.6" fill="#3fb950" opacity="0.7"/>
<circle cx="453.0" cy="364.4" r="2.6" fill="#3fb950" opacity="0.7"/>
<circle cx="460.3" cy="281.1" r="2.6" fill="#3fb950" opacity="0.7"/>
<circle cx="467.7" cy="352.0" r="2.6" fill="#3fb950" opacity="0.7"/>
<circle cx="475.0" cy="317.7" r="2.6" fill="#3fb950" opacity="0.7"/>
<circle cx="482.4" cy="320.1" r="2.6" fill="#3fb950" opacity="0.7"/>
<circle cx="489.7" cy="319.5" r="2.6" fill="#3fb950" opacity="0.7"/>
<circle cx="497.0" cy="180.7" r="2.6" fill="#3fb950" opacity="0.7"/>
<circle cx="504.4" cy="316.2" r="2.6" fill="#3fb950" opacity="0.7"/>
<circle cx="511.7" cy="324.5" r="2.6" fill="#3fb950" opacity="0.7"/>
<circle cx="519.1" cy="360.4" r="2.6" fill="#3fb950" opacity="0.7"/>
<circle cx="526.4" cy="359.0" r="2.6" fill="#3fb950" opacity="0.7"/>
<circle cx="533.8" cy="338.5" r="2.6" fill="#3fb950" opacity="0.7"/>
<circle cx="541.1" cy="340.9" r="2.6" fill="#3fb950" opacity="0.7"/>
<circle cx="548.4" cy="365.5" r="2.6" fill="#3fb950" opacity="0.7"/>
<circle cx="555.8" cy="332.1" r="2.6" fill="#3fb950" opacity="0.7"/>
<circle cx="563.1" cy="327.4" r="2.6" fill="#3fb950" opacity="0.7"/>
<circle cx="570.5" cy="330.3" r="2.6" fill="#3fb950" opacity="0.7"/>
<circle cx="577.8" cy="330.5" r="2.6" fill="#3fb950" opacity="0.7"/>
<circle cx="585.1" cy="319.8" r="2.6" fill="#3fb950" opacity="0.7"/>
<circle cx="592.5" cy="318.2" r="2.6" fill="#3fb950" opacity="0.7"/>
<circle cx="599.8" cy="323.1" r="2.6" fill="#3fb950" opacity="0.7"/>
<circle cx="607.2" cy="329.5" r="2.6" fill="#3fb950" opacity="0.7"/>
<circle cx="614.5" cy="366.0" r="2.6" fill="#3fb950" opacity="0.7"/>
<circle cx="621.8" cy="330.9" r="2.6" fill="#3fb950" opacity="0.7"/>
<circle cx="629.2" cy="246.1" r="2.6" fill="#3fb950" opacity="0.7"/>
<circle cx="636.5" cy="326.3" r="2.6" fill="#3fb950" opacity="0.7"/>
<circle cx="643.9" cy="329.0" r="2.6" fill="#3fb950" opacity="0.7"/>
<circle cx="651.2" cy="330.4" r="2.6" fill="#3fb950" opacity="0.7"/>
<circle cx="658.5" cy="335.3" r="2.6" fill="#3fb950" opacity="0.7"/>
<circle cx="665.9" cy="329.1" r="2.6" fill="#3fb950" opacity="0.7"/>
<circle cx="673.2" cy="321.1" r="2.6" fill="#3fb950" opacity="0.7"/>
<circle cx="680.6" cy="336.2" r="2.6" fill="#3fb950" opacity="0.7"/>
<circle cx="687.9" cy="332.2" r="2.6" fill="#3fb950" opacity="0.7"/>
<circle cx="695.2" cy="370.4" r="2.6" fill="#3fb950" opacity="0.7"/>
<circle cx="702.6" cy="329.1" r="2.6" fill="#3fb950" opacity="0.7"/>
<circle cx="709.9" cy="328.6" r="2.6" fill="#3fb950" opacity="0.7"/>
<circle cx="717.3" cy="350.8" r="2.6" fill="#3fb950" opacity="0.7"/>
<circle cx="724.6" cy="335.2" r="2.6" fill="#3fb950" opacity="0.7"/>
<circle cx="731.9" cy="365.5" r="2.6" fill="#3fb950" opacity="0.7"/>
<circle cx="739.3" cy="369.3" r="2.6" fill="#3fb950" opacity="0.7"/>
<circle cx="746.6" cy="346.0" r="2.6" fill="#3fb950" opacity="0.7"/>
<circle cx="754.0" cy="333.6" r="2.6" fill="#3fb950" opacity="0.7"/>
<circle cx="761.3" cy="336.0" r="2.6" fill="#3fb950" opacity="0.7"/>
<circle cx="768.6" cy="346.6" r="2.6" fill="#3fb950" opacity="0.7"/>
<circle cx="776.0" cy="366.3" r="2.6" fill="#3fb950" opacity="0.7"/>
<circle cx="783.3" cy="366.7" r="2.6" fill="#3fb950" opacity="0.7"/>
<circle cx="98.7" cy="221.7" r="3.2" fill="#ff922b" opacity="0.85"/>
<circle cx="106.0" cy="294.4" r="3.2" fill="#ff922b" opacity="0.85"/>
<circle cx="113.4" cy="289.1" r="3.2" fill="#ff922b" opacity="0.85"/>
<circle cx="120.7" cy="308.1" r="3.2" fill="#ff922b" opacity="0.85"/>
<circle cx="128.0" cy="258.4" r="3.2" fill="#ff922b" opacity="0.85"/>
<circle cx="135.4" cy="277.4" r="3.2" fill="#ff922b" opacity="0.85"/>
<circle cx="142.7" cy="293.8" r="3.2" fill="#ff922b" opacity="0.85"/>
<circle cx="150.1" cy="253.7" r="3.2" fill="#ff922b" opacity="0.85"/>
<circle cx="157.4" cy="239.7" r="3.2" fill="#ff922b" opacity="0.85"/>
<circle cx="164.7" cy="252.9" r="3.2" fill="#ff922b" opacity="0.85"/>
<circle cx="172.1" cy="235.2" r="3.2" fill="#ff922b" opacity="0.85"/>
<circle cx="179.4" cy="259.9" r="3.2" fill="#ff922b" opacity="0.85"/>
<circle cx="186.8" cy="252.1" r="3.2" fill="#ff922b" opacity="0.85"/>
<circle cx="194.1" cy="248.8" r="3.2" fill="#ff922b" opacity="0.85"/>
<circle cx="201.4" cy="276.3" r="3.2" fill="#ff922b" opacity="0.85"/>
<circle cx="208.8" cy="285.5" r="3.2" fill="#ff922b" opacity="0.85"/>
<circle cx="216.1" cy="296.9" r="3.2" fill="#ff922b" opacity="0.85"/>
<circle cx="223.5" cy="264.3" r="3.2" fill="#ff922b" opacity="0.85"/>
<circle cx="230.8" cy="271.4" r="3.2" fill="#ff922b" opacity="0.85"/>
<circle cx="238.1" cy="274.6" r="3.2" fill="#ff922b" opacity="0.85"/>
<circle cx="245.5" cy="249.4" r="3.2" fill="#ff922b" opacity="0.85"/>
<circle cx="252.8" cy="270.7" r="3.2" fill="#ff922b" opacity="0.85"/>
<circle cx="260.2" cy="258.2" r="3.2" fill="#ff922b" opacity="0.85"/>
<circle cx="267.5" cy="283.1" r="3.2" fill="#ff922b" opacity="0.85"/>
<circle cx="274.8" cy="273.2" r="3.2" fill="#ff922b" opacity="0.85"/>
<circle cx="282.2" cy="279.2" r="3.2" fill="#ff922b" opacity="0.85"/>
<circle cx="289.5" cy="272.8" r="3.2" fill="#ff922b" opacity="0.85"/>
<circle cx="296.9" cy="266.9" r="3.2" fill="#ff922b" opacity="0.85"/>
<circle cx="304.2" cy="235.8" r="3.2" fill="#ff922b" opacity="0.85"/>
<circle cx="311.5" cy="258.6" r="3.2" fill="#ff922b" opacity="0.85"/>
<circle cx="318.9" cy="231.2" r="3.2" fill="#ff922b" opacity="0.85"/>
<circle cx="326.2" cy="344.8" r="3.2" fill="#ff922b" opacity="0.85"/>
<circle cx="333.6" cy="245.1" r="3.2" fill="#ff922b" opacity="0.85"/>
<circle cx="340.9" cy="250.3" r="3.2" fill="#ff922b" opacity="0.85"/>
<circle cx="348.2" cy="250.7" r="3.2" fill="#ff922b" opacity="0.85"/>
<circle cx="355.6" cy="256.7" r="3.2" fill="#ff922b" opacity="0.85"/>
<circle cx="362.9" cy="254.8" r="3.2" fill="#ff922b" opacity="0.85"/>
<circle cx="370.3" cy="156.8" r="3.2" fill="#ff922b" opacity="0.85"/>
<circle cx="377.6" cy="212.9" r="3.2" fill="#ff922b" opacity="0.85"/>
<circle cx="385.0" cy="253.4" r="3.2" fill="#ff922b" opacity="0.85"/>
<circle cx="392.3" cy="248.6" r="3.2" fill="#ff922b" opacity="0.85"/>
<circle cx="399.6" cy="270.6" r="3.2" fill="#ff922b" opacity="0.85"/>
<circle cx="407.0" cy="240.8" r="3.2" fill="#ff922b" opacity="0.85"/>
<circle cx="414.3" cy="255.3" r="3.2" fill="#ff922b" opacity="0.85"/>
<circle cx="421.7" cy="265.7" r="3.2" fill="#ff922b" opacity="0.85"/>
<circle cx="429.0" cy="270.9" r="3.2" fill="#ff922b" opacity="0.85"/>
<circle cx="436.3" cy="235.5" r="3.2" fill="#ff922b" opacity="0.85"/>
<circle cx="443.7" cy="266.7" r="3.2" fill="#ff922b" opacity="0.85"/>
<circle cx="451.0" cy="298.2" r="3.2" fill="#ff922b" opacity="0.85"/>
<circle cx="458.4" cy="289.4" r="3.2" fill="#ff922b" opacity="0.85"/>
<circle cx="465.7" cy="318.7" r="3.2" fill="#ff922b" opacity="0.85"/>
<circle cx="473.0" cy="196.6" r="3.2" fill="#ff922b" opacity="0.85"/>
<circle cx="480.4" cy="192.8" r="3.2" fill="#ff922b" opacity="0.85"/>
<circle cx="487.7" cy="194.7" r="3.2" fill="#ff922b" opacity="0.85"/>
<circle cx="495.1" cy="203.1" r="3.2" fill="#ff922b" opacity="0.85"/>
<circle cx="502.4" cy="201.3" r="3.2" fill="#ff922b" opacity="0.85"/>
<circle cx="509.7" cy="223.1" r="3.2" fill="#ff922b" opacity="0.85"/>
<circle cx="517.1" cy="303.9" r="3.2" fill="#ff922b" opacity="0.85"/>
<circle cx="524.4" cy="267.5" r="3.2" fill="#ff922b" opacity="0.85"/>
<circle cx="531.8" cy="251.8" r="3.2" fill="#ff922b" opacity="0.85"/>
<circle cx="539.1" cy="231.3" r="3.2" fill="#ff922b" opacity="0.85"/>
<circle cx="546.4" cy="189.9" r="3.2" fill="#ff922b" opacity="0.85"/>
<circle cx="553.8" cy="210.5" r="3.2" fill="#ff922b" opacity="0.85"/>
<circle cx="561.1" cy="204.3" r="3.2" fill="#ff922b" opacity="0.85"/>
<circle cx="568.5" cy="211.0" r="3.2" fill="#ff922b" opacity="0.85"/>
<circle cx="575.8" cy="239.0" r="3.2" fill="#ff922b" opacity="0.85"/>
<circle cx="583.1" cy="168.4" r="3.2" fill="#ff922b" opacity="0.85"/>
<circle cx="590.5" cy="149.6" r="3.2" fill="#ff922b" opacity="0.85"/>
<circle cx="597.8" cy="172.8" r="3.2" fill="#ff922b" opacity="0.85"/>
<circle cx="605.2" cy="173.8" r="3.2" fill="#ff922b" opacity="0.85"/>
<circle cx="612.5" cy="283.0" r="3.2" fill="#ff922b" opacity="0.85"/>
<circle cx="619.8" cy="221.1" r="3.2" fill="#ff922b" opacity="0.85"/>
<circle cx="627.2" cy="242.6" r="3.2" fill="#ff922b" opacity="0.85"/>
<circle cx="634.5" cy="209.0" r="3.2" fill="#ff922b" opacity="0.85"/>
<circle cx="641.9" cy="193.9" r="3.2" fill="#ff922b" opacity="0.85"/>
<circle cx="649.2" cy="191.7" r="3.2" fill="#ff922b" opacity="0.85"/>
<circle cx="656.5" cy="270.9" r="3.2" fill="#ff922b" opacity="0.85"/>
<circle cx="663.9" cy="244.3" r="3.2" fill="#ff922b" opacity="0.85"/>
<circle cx="671.2" cy="197.4" r="3.2" fill="#ff922b" opacity="0.85"/>
<circle cx="678.6" cy="267.1" r="3.2" fill="#ff922b" opacity="0.85"/>
<circle cx="685.9" cy="250.5" r="3.2" fill="#ff922b" opacity="0.85"/>
<circle cx="693.2" cy="325.9" r="3.2" fill="#ff922b" opacity="0.85"/>
<circle cx="700.6" cy="251.9" r="3.2" fill="#ff922b" opacity="0.85"/>
<circle cx="707.9" cy="263.9" r="3.2" fill="#ff922b" opacity="0.85"/>
<circle cx="715.3" cy="284.8" r="3.2" fill="#ff922b" opacity="0.85"/>
<circle cx="722.6" cy="260.3" r="3.2" fill="#ff922b" opacity="0.85"/>
<circle cx="729.9" cy="304.3" r="3.2" fill="#ff922b" opacity="0.85"/>
<circle cx="737.3" cy="303.9" r="3.2" fill="#ff922b" opacity="0.85"/>
<circle cx="744.6" cy="264.7" r="3.2" fill="#ff922b" opacity="0.85"/>
<circle cx="752.0" cy="269.4" r="3.2" fill="#ff922b" opacity="0.85"/>
<circle cx="759.3" cy="259.4" r="3.2" fill="#ff922b" opacity="0.85"/>
<circle cx="766.6" cy="256.4" r="3.2" fill="#ff922b" opacity="0.85"/>
<circle cx="774.0" cy="313.0" r="3.2" fill="#ff922b" opacity="0.85"/>
<circle cx="781.3" cy="311.6" r="3.2" fill="#ff922b" opacity="0.85"/>
<circle cx="847" cy="84" r="5" fill="#ff922b"/>
<text x="866" y="88" font-size="13" fill="#c9d1d9" font-weight="700">Kāra</text>
<line x1="836" y1="108" x2="858" y2="108" stroke="#a7b0bc" stroke-width="2" stroke-dasharray="5 4"/>
<text x="866" y="112" font-size="13" fill="#c9d1d9" font-weight="400">Rust = 1.0×</text>
<circle cx="847" cy="132" r="4" fill="#3fb950"/>
<text x="866" y="136" font-size="13" fill="#c9d1d9" font-weight="400">C</text>
<text x="70" y="538" font-size="11.5" fill="#8b949e">Each dot is one benchmarked program (kata × approach); there is no connecting line because left-to-right order is not meaningful. Raw numbers: bench-results.json</text>
</svg>