<svg xmlns="http://www.w3.org/2000/svg" width="980" height="560" viewBox="0 0 980 560" font-family="-apple-system,Segoe UI,Helvetica,Arial,sans-serif">
<rect width="980" height="560" fill="#282c34"/>
<text x="70" y="34" font-size="21" font-weight="700" fill="#c9d1d9">Compile peak memory (cold)</text>
<text x="70" y="56" font-size="13" fill="#8b949e">relative to Rust = 1.0 · lower = leaner · 41 programs</text>
<line x1="70" y1="456.0" x2="812" y2="456.0" stroke="#3b414b" stroke-width="1"/>
<text x="60" y="460.0" font-size="12" text-anchor="end" fill="#8b949e">0.0×</text>
<line x1="70" y1="330.0" x2="812" y2="330.0" stroke="#3b414b" stroke-width="1"/>
<text x="60" y="334.0" font-size="12" text-anchor="end" fill="#8b949e">0.5×</text>
<line x1="70" y1="204.0" x2="812" y2="204.0" stroke="#a7b0bc" stroke-width="2" stroke-dasharray="5 4"/>
<text x="60" y="208.0" font-size="12" text-anchor="end" fill="#aeb6c0" font-weight="700">1.0×</text>
<line x1="70" y1="78.0" x2="812" y2="78.0" stroke="#3b414b" stroke-width="1"/>
<text x="60" y="82.0" font-size="12" text-anchor="end" fill="#8b949e">1.5×</text>
<text x="812" y="198.0" font-size="11" text-anchor="end" fill="#aeb6c0">Rust baseline</text>
<line x1="70" y1="456" x2="812" y2="456" stroke="#3b414b"/>
<text x="441.0" y="478" font-size="11" text-anchor="middle" fill="#8b949e">41 programs (kata × approach) — x-order carries no meaning</text>
<circle cx="101.7" cy="431.6" r="2.6" fill="#3fb950" opacity="0.7"/>
<circle cx="118.7" cy="438.7" r="2.6" fill="#3fb950" opacity="0.7"/>
<circle cx="135.8" cy="436.1" r="2.6" fill="#3fb950" opacity="0.7"/>
<circle cx="152.9" cy="438.9" r="2.6" fill="#3fb950" opacity="0.7"/>
<circle cx="169.9" cy="433.7" r="2.6" fill="#3fb950" opacity="0.7"/>
<circle cx="187.0" cy="434.6" r="2.6" fill="#3fb950" opacity="0.7"/>
<circle cx="204.1" cy="435.8" r="2.6" fill="#3fb950" opacity="0.7"/>
<circle cx="221.1" cy="431.9" r="2.6" fill="#3fb950" opacity="0.7"/>
<circle cx="238.2" cy="431.3" r="2.6" fill="#3fb950" opacity="0.7"/>
<circle cx="255.2" cy="432.3" r="2.6" fill="#3fb950" opacity="0.7"/>
<circle cx="272.3" cy="432.1" r="2.6" fill="#3fb950" opacity="0.7"/>
<circle cx="289.4" cy="432.8" r="2.6" fill="#3fb950" opacity="0.7"/>
<circle cx="306.4" cy="433.1" r="2.6" fill="#3fb950" opacity="0.7"/>
<circle cx="323.5" cy="433.4" r="2.6" fill="#3fb950" opacity="0.7"/>
<circle cx="340.6" cy="434.2" r="2.6" fill="#3fb950" opacity="0.7"/>
<circle cx="357.6" cy="439.2" r="2.6" fill="#3fb950" opacity="0.7"/>
<circle cx="374.7" cy="438.7" r="2.6" fill="#3fb950" opacity="0.7"/>
<circle cx="391.8" cy="433.4" r="2.6" fill="#3fb950" opacity="0.7"/>
<circle cx="408.8" cy="439.6" r="2.6" fill="#3fb950" opacity="0.7"/>
<circle cx="425.9" cy="435.1" r="2.6" fill="#3fb950" opacity="0.7"/>
<circle cx="443.0" cy="432.1" r="2.6" fill="#3fb950" opacity="0.7"/>
<circle cx="460.0" cy="435.3" r="2.6" fill="#3fb950" opacity="0.7"/>
<circle cx="477.1" cy="432.8" r="2.6" fill="#3fb950" opacity="0.7"/>
<circle cx="494.2" cy="436.7" r="2.6" fill="#3fb950" opacity="0.7"/>
<circle cx="511.2" cy="434.3" r="2.6" fill="#3fb950" opacity="0.7"/>
<circle cx="528.3" cy="435.9" r="2.6" fill="#3fb950" opacity="0.7"/>
<circle cx="545.4" cy="434.2" r="2.6" fill="#3fb950" opacity="0.7"/>
<circle cx="562.4" cy="440.0" r="2.6" fill="#3fb950" opacity="0.7"/>
<circle cx="579.5" cy="432.4" r="2.6" fill="#3fb950" opacity="0.7"/>
<circle cx="596.6" cy="436.2" r="2.6" fill="#3fb950" opacity="0.7"/>
<circle cx="613.6" cy="434.8" r="2.6" fill="#3fb950" opacity="0.7"/>
<circle cx="630.7" cy="432.4" r="2.6" fill="#3fb950" opacity="0.7"/>
<circle cx="647.8" cy="433.5" r="2.6" fill="#3fb950" opacity="0.7"/>
<circle cx="664.8" cy="441.5" r="2.6" fill="#3fb950" opacity="0.7"/>
<circle cx="681.9" cy="432.3" r="2.6" fill="#3fb950" opacity="0.7"/>
<circle cx="699.0" cy="433.7" r="2.6" fill="#3fb950" opacity="0.7"/>
<circle cx="716.0" cy="431.6" r="2.6" fill="#3fb950" opacity="0.7"/>
<circle cx="733.1" cy="437.3" r="2.6" fill="#3fb950" opacity="0.7"/>
<circle cx="750.2" cy="437.2" r="2.6" fill="#3fb950" opacity="0.7"/>
<circle cx="767.2" cy="439.3" r="2.6" fill="#3fb950" opacity="0.7"/>
<circle cx="784.3" cy="442.0" r="2.6" fill="#3fb950" opacity="0.7"/>
<circle cx="97.7" cy="366.0" r="3.2" fill="#ff922b" opacity="0.85"/>
<circle cx="114.8" cy="389.9" r="3.2" fill="#ff922b" opacity="0.85"/>
<circle cx="131.8" cy="360.5" r="3.2" fill="#ff922b" opacity="0.85"/>
<circle cx="148.9" cy="388.6" r="3.2" fill="#ff922b" opacity="0.85"/>
<circle cx="166.0" cy="368.1" r="3.2" fill="#ff922b" opacity="0.85"/>
<circle cx="183.0" cy="358.0" r="3.2" fill="#ff922b" opacity="0.85"/>
<circle cx="200.1" cy="358.8" r="3.2" fill="#ff922b" opacity="0.85"/>
<circle cx="217.2" cy="362.4" r="3.2" fill="#ff922b" opacity="0.85"/>
<circle cx="234.2" cy="358.1" r="3.2" fill="#ff922b" opacity="0.85"/>
<circle cx="251.3" cy="361.4" r="3.2" fill="#ff922b" opacity="0.85"/>
<circle cx="268.4" cy="358.7" r="3.2" fill="#ff922b" opacity="0.85"/>
<circle cx="285.4" cy="367.7" r="3.2" fill="#ff922b" opacity="0.85"/>
<circle cx="302.5" cy="351.0" r="3.2" fill="#ff922b" opacity="0.85"/>
<circle cx="319.6" cy="348.8" r="3.2" fill="#ff922b" opacity="0.85"/>
<circle cx="336.6" cy="360.8" r="3.2" fill="#ff922b" opacity="0.85"/>
<circle cx="353.7" cy="381.2" r="3.2" fill="#ff922b" opacity="0.85"/>
<circle cx="370.8" cy="384.5" r="3.2" fill="#ff922b" opacity="0.85"/>
<circle cx="387.8" cy="359.0" r="3.2" fill="#ff922b" opacity="0.85"/>
<circle cx="404.9" cy="378.4" r="3.2" fill="#ff922b" opacity="0.85"/>
<circle cx="422.0" cy="370.7" r="3.2" fill="#ff922b" opacity="0.85"/>
<circle cx="439.0" cy="358.2" r="3.2" fill="#ff922b" opacity="0.85"/>
<circle cx="456.1" cy="352.0" r="3.2" fill="#ff922b" opacity="0.85"/>
<circle cx="473.2" cy="344.2" r="3.2" fill="#ff922b" opacity="0.85"/>
<circle cx="490.2" cy="350.5" r="3.2" fill="#ff922b" opacity="0.85"/>
<circle cx="507.3" cy="347.7" r="3.2" fill="#ff922b" opacity="0.85"/>
<circle cx="524.4" cy="348.4" r="3.2" fill="#ff922b" opacity="0.85"/>
<circle cx="541.4" cy="349.9" r="3.2" fill="#ff922b" opacity="0.85"/>
<circle cx="558.5" cy="387.4" r="3.2" fill="#ff922b" opacity="0.85"/>
<circle cx="575.6" cy="357.9" r="3.2" fill="#ff922b" opacity="0.85"/>
<circle cx="592.6" cy="368.7" r="3.2" fill="#ff922b" opacity="0.85"/>
<circle cx="609.7" cy="358.0" r="3.2" fill="#ff922b" opacity="0.85"/>
<circle cx="626.8" cy="365.4" r="3.2" fill="#ff922b" opacity="0.85"/>
<circle cx="643.8" cy="368.5" r="3.2" fill="#ff922b" opacity="0.85"/>
<circle cx="660.9" cy="383.5" r="3.2" fill="#ff922b" opacity="0.85"/>
<circle cx="677.9" cy="367.2" r="3.2" fill="#ff922b" opacity="0.85"/>
<circle cx="695.0" cy="361.1" r="3.2" fill="#ff922b" opacity="0.85"/>
<circle cx="712.1" cy="362.8" r="3.2" fill="#ff922b" opacity="0.85"/>
<circle cx="729.1" cy="377.6" r="3.2" fill="#ff922b" opacity="0.85"/>
<circle cx="746.2" cy="379.0" r="3.2" fill="#ff922b" opacity="0.85"/>
<circle cx="763.3" cy="390.3" r="3.2" fill="#ff922b" opacity="0.85"/>
<circle cx="780.3" cy="391.2" r="3.2" fill="#ff922b" opacity="0.85"/>
<circle cx="847" cy="84" r="5" fill="#ff922b"/>
<text x="866" y="88" font-size="13" fill="#c9d1d9" font-weight="700">Kāra</text>
<line x1="836" y1="108" x2="858" y2="108" stroke="#a7b0bc" stroke-width="2" stroke-dasharray="5 4"/>
<text x="866" y="112" font-size="13" fill="#c9d1d9" font-weight="400">Rust = 1.0×</text>
<circle cx="847" cy="132" r="4" fill="#3fb950"/>
<text x="866" y="136" font-size="13" fill="#c9d1d9" font-weight="400">C</text>
<text x="70" y="538" font-size="11.5" fill="#8b949e">Each dot is one benchmarked program (kata × approach); there is no connecting line because left-to-right order is not meaningful. Raw numbers: bench-results.json</text>
</svg>