<svg xmlns="http://www.w3.org/2000/svg" width="980" height="560" viewBox="0 0 980 560" font-family="-apple-system,Segoe UI,Helvetica,Arial,sans-serif">
<rect width="980" height="560" fill="#282c34"/>
<text x="70" y="34" font-size="21" font-weight="700" fill="#c9d1d9">Compile time (cold)</text>
<text x="70" y="56" font-size="13" fill="#8b949e">relative to Rust = 1.0 · lower = faster · 41 programs</text>
<line x1="70" y1="456.0" x2="812" y2="456.0" stroke="#3b414b" stroke-width="1"/>
<text x="60" y="460.0" font-size="12" text-anchor="end" fill="#8b949e">0.0×</text>
<line x1="70" y1="330.0" x2="812" y2="330.0" stroke="#3b414b" stroke-width="1"/>
<text x="60" y="334.0" font-size="12" text-anchor="end" fill="#8b949e">0.5×</text>
<line x1="70" y1="204.0" x2="812" y2="204.0" stroke="#a7b0bc" stroke-width="2" stroke-dasharray="5 4"/>
<text x="60" y="208.0" font-size="12" text-anchor="end" fill="#aeb6c0" font-weight="700">1.0×</text>
<line x1="70" y1="78.0" x2="812" y2="78.0" stroke="#3b414b" stroke-width="1"/>
<text x="60" y="82.0" font-size="12" text-anchor="end" fill="#8b949e">1.5×</text>
<text x="812" y="198.0" font-size="11" text-anchor="end" fill="#aeb6c0">Rust baseline</text>
<line x1="70" y1="456" x2="812" y2="456" stroke="#3b414b"/>
<text x="441.0" y="478" font-size="11" text-anchor="middle" fill="#8b949e">41 programs (kata × approach) — x-order carries no meaning</text>
<circle cx="101.7" cy="312.9" r="2.6" fill="#3fb950" opacity="0.7"/>
<circle cx="118.7" cy="362.3" r="2.6" fill="#3fb950" opacity="0.7"/>
<circle cx="135.8" cy="344.1" r="2.6" fill="#3fb950" opacity="0.7"/>
<circle cx="152.9" cy="360.0" r="2.6" fill="#3fb950" opacity="0.7"/>
<circle cx="169.9" cy="333.9" r="2.6" fill="#3fb950" opacity="0.7"/>
<circle cx="187.0" cy="339.2" r="2.6" fill="#3fb950" opacity="0.7"/>
<circle cx="204.1" cy="350.6" r="2.6" fill="#3fb950" opacity="0.7"/>
<circle cx="221.1" cy="322.5" r="2.6" fill="#3fb950" opacity="0.7"/>
<circle cx="238.2" cy="320.0" r="2.6" fill="#3fb950" opacity="0.7"/>
<circle cx="255.2" cy="320.9" r="2.6" fill="#3fb950" opacity="0.7"/>
<circle cx="272.3" cy="330.9" r="2.6" fill="#3fb950" opacity="0.7"/>
<circle cx="289.4" cy="320.7" r="2.6" fill="#3fb950" opacity="0.7"/>
<circle cx="306.4" cy="320.4" r="2.6" fill="#3fb950" opacity="0.7"/>
<circle cx="323.5" cy="323.6" r="2.6" fill="#3fb950" opacity="0.7"/>
<circle cx="340.6" cy="341.5" r="2.6" fill="#3fb950" opacity="0.7"/>
<circle cx="357.6" cy="349.2" r="2.6" fill="#3fb950" opacity="0.7"/>
<circle cx="374.7" cy="353.7" r="2.6" fill="#3fb950" opacity="0.7"/>
<circle cx="391.8" cy="334.0" r="2.6" fill="#3fb950" opacity="0.7"/>
<circle cx="408.8" cy="347.9" r="2.6" fill="#3fb950" opacity="0.7"/>
<circle cx="425.9" cy="343.5" r="2.6" fill="#3fb950" opacity="0.7"/>
<circle cx="443.0" cy="307.2" r="2.6" fill="#3fb950" opacity="0.7"/>
<circle cx="460.0" cy="351.6" r="2.6" fill="#3fb950" opacity="0.7"/>
<circle cx="477.1" cy="320.9" r="2.6" fill="#3fb950" opacity="0.7"/>
<circle cx="494.2" cy="356.3" r="2.6" fill="#3fb950" opacity="0.7"/>
<circle cx="511.2" cy="348.3" r="2.6" fill="#3fb950" opacity="0.7"/>
<circle cx="528.3" cy="357.6" r="2.6" fill="#3fb950" opacity="0.7"/>
<circle cx="545.4" cy="314.6" r="2.6" fill="#3fb950" opacity="0.7"/>
<circle cx="562.4" cy="354.7" r="2.6" fill="#3fb950" opacity="0.7"/>
<circle cx="579.5" cy="311.0" r="2.6" fill="#3fb950" opacity="0.7"/>
<circle cx="596.6" cy="363.0" r="2.6" fill="#3fb950" opacity="0.7"/>
<circle cx="613.6" cy="319.7" r="2.6" fill="#3fb950" opacity="0.7"/>
<circle cx="630.7" cy="315.3" r="2.6" fill="#3fb950" opacity="0.7"/>
<circle cx="647.8" cy="320.6" r="2.6" fill="#3fb950" opacity="0.7"/>
<circle cx="664.8" cy="361.6" r="2.6" fill="#3fb950" opacity="0.7"/>
<circle cx="681.9" cy="312.4" r="2.6" fill="#3fb950" opacity="0.7"/>
<circle cx="699.0" cy="316.7" r="2.6" fill="#3fb950" opacity="0.7"/>
<circle cx="716.0" cy="322.5" r="2.6" fill="#3fb950" opacity="0.7"/>
<circle cx="733.1" cy="353.6" r="2.6" fill="#3fb950" opacity="0.7"/>
<circle cx="750.2" cy="367.1" r="2.6" fill="#3fb950" opacity="0.7"/>
<circle cx="767.2" cy="359.8" r="2.6" fill="#3fb950" opacity="0.7"/>
<circle cx="784.3" cy="362.4" r="2.6" fill="#3fb950" opacity="0.7"/>
<circle cx="97.7" cy="266.5" r="3.2" fill="#ff922b" opacity="0.85"/>
<circle cx="114.8" cy="312.9" r="3.2" fill="#ff922b" opacity="0.85"/>
<circle cx="131.8" cy="277.1" r="3.2" fill="#ff922b" opacity="0.85"/>
<circle cx="148.9" cy="315.4" r="3.2" fill="#ff922b" opacity="0.85"/>
<circle cx="166.0" cy="265.9" r="3.2" fill="#ff922b" opacity="0.85"/>
<circle cx="183.0" cy="261.8" r="3.2" fill="#ff922b" opacity="0.85"/>
<circle cx="200.1" cy="276.2" r="3.2" fill="#ff922b" opacity="0.85"/>
<circle cx="217.2" cy="250.0" r="3.2" fill="#ff922b" opacity="0.85"/>
<circle cx="234.2" cy="238.4" r="3.2" fill="#ff922b" opacity="0.85"/>
<circle cx="251.3" cy="251.8" r="3.2" fill="#ff922b" opacity="0.85"/>
<circle cx="268.4" cy="280.5" r="3.2" fill="#ff922b" opacity="0.85"/>
<circle cx="285.4" cy="256.0" r="3.2" fill="#ff922b" opacity="0.85"/>
<circle cx="302.5" cy="234.7" r="3.2" fill="#ff922b" opacity="0.85"/>
<circle cx="319.6" cy="236.2" r="3.2" fill="#ff922b" opacity="0.85"/>
<circle cx="336.6" cy="282.4" r="3.2" fill="#ff922b" opacity="0.85"/>
<circle cx="353.7" cy="292.9" r="3.2" fill="#ff922b" opacity="0.85"/>
<circle cx="370.8" cy="298.0" r="3.2" fill="#ff922b" opacity="0.85"/>
<circle cx="387.8" cy="254.2" r="3.2" fill="#ff922b" opacity="0.85"/>
<circle cx="404.9" cy="290.9" r="3.2" fill="#ff922b" opacity="0.85"/>
<circle cx="422.0" cy="263.8" r="3.2" fill="#ff922b" opacity="0.85"/>
<circle cx="439.0" cy="219.7" r="3.2" fill="#ff922b" opacity="0.85"/>
<circle cx="456.1" cy="257.8" r="3.2" fill="#ff922b" opacity="0.85"/>
<circle cx="473.2" cy="226.4" r="3.2" fill="#ff922b" opacity="0.85"/>
<circle cx="490.2" cy="276.8" r="3.2" fill="#ff922b" opacity="0.85"/>
<circle cx="507.3" cy="258.2" r="3.2" fill="#ff922b" opacity="0.85"/>
<circle cx="524.4" cy="267.9" r="3.2" fill="#ff922b" opacity="0.85"/>
<circle cx="541.4" cy="236.2" r="3.2" fill="#ff922b" opacity="0.85"/>
<circle cx="558.5" cy="298.8" r="3.2" fill="#ff922b" opacity="0.85"/>
<circle cx="575.6" cy="215.4" r="3.2" fill="#ff922b" opacity="0.85"/>
<circle cx="592.6" cy="284.0" r="3.2" fill="#ff922b" opacity="0.85"/>
<circle cx="609.7" cy="252.2" r="3.2" fill="#ff922b" opacity="0.85"/>
<circle cx="626.8" cy="232.6" r="3.2" fill="#ff922b" opacity="0.85"/>
<circle cx="643.8" cy="243.8" r="3.2" fill="#ff922b" opacity="0.85"/>
<circle cx="660.9" cy="322.4" r="3.2" fill="#ff922b" opacity="0.85"/>
<circle cx="677.9" cy="238.0" r="3.2" fill="#ff922b" opacity="0.85"/>
<circle cx="695.0" cy="250.8" r="3.2" fill="#ff922b" opacity="0.85"/>
<circle cx="712.1" cy="257.4" r="3.2" fill="#ff922b" opacity="0.85"/>
<circle cx="729.1" cy="308.7" r="3.2" fill="#ff922b" opacity="0.85"/>
<circle cx="746.2" cy="308.3" r="3.2" fill="#ff922b" opacity="0.85"/>
<circle cx="763.3" cy="304.2" r="3.2" fill="#ff922b" opacity="0.85"/>
<circle cx="780.3" cy="314.6" r="3.2" fill="#ff922b" opacity="0.85"/>
<circle cx="847" cy="84" r="5" fill="#ff922b"/>
<text x="866" y="88" font-size="13" fill="#c9d1d9" font-weight="700">Kāra</text>
<line x1="836" y1="108" x2="858" y2="108" stroke="#a7b0bc" stroke-width="2" stroke-dasharray="5 4"/>
<text x="866" y="112" font-size="13" fill="#c9d1d9" font-weight="400">Rust = 1.0×</text>
<circle cx="847" cy="132" r="4" fill="#3fb950"/>
<text x="866" y="136" font-size="13" fill="#c9d1d9" font-weight="400">C</text>
<text x="70" y="538" font-size="11.5" fill="#8b949e">Each dot is one benchmarked program (kata × approach); there is no connecting line because left-to-right order is not meaningful. Raw numbers: bench-results.json</text>
</svg>