<svg xmlns="http://www.w3.org/2000/svg" width="980" height="560" viewBox="0 0 980 560" font-family="-apple-system,Segoe UI,Helvetica,Arial,sans-serif">
<rect width="980" height="560" fill="#282c34"/>
<text x="70" y="34" font-size="21" font-weight="700" fill="#c9d1d9">Compile time (cold)</text>
<text x="70" y="56" font-size="13" fill="#8b949e">relative to Rust = 1.0 · lower = faster · 28 programs</text>
<line x1="70" y1="456.0" x2="812" y2="456.0" stroke="#3b414b" stroke-width="1"/>
<text x="60" y="460.0" font-size="12" text-anchor="end" fill="#8b949e">0.0×</text>
<line x1="70" y1="330.0" x2="812" y2="330.0" stroke="#3b414b" stroke-width="1"/>
<text x="60" y="334.0" font-size="12" text-anchor="end" fill="#8b949e">0.5×</text>
<line x1="70" y1="204.0" x2="812" y2="204.0" stroke="#6e7681" stroke-width="1.4" stroke-dasharray="5 4"/>
<text x="60" y="208.0" font-size="12" text-anchor="end" fill="#aeb6c0" font-weight="700">1.0×</text>
<line x1="70" y1="78.0" x2="812" y2="78.0" stroke="#3b414b" stroke-width="1"/>
<text x="60" y="82.0" font-size="12" text-anchor="end" fill="#8b949e">1.5×</text>
<text x="812" y="198.0" font-size="11" text-anchor="end" fill="#aeb6c0">Rust baseline</text>
<line x1="99.7" y1="456" x2="99.7" y2="461" stroke="#3b414b"/>
<g transform="translate(99.7,474) rotate(35)">
<text x="0" y="0" font-size="10.5" fill="#8b949e">#1</text>
<text x="0" y="12" font-size="10.5" fill="#8b949e">brute_force</text>
</g>
<line x1="125.0" y1="456" x2="125.0" y2="461" stroke="#3b414b"/>
<g transform="translate(125.0,474) rotate(35)">
<text x="0" y="0" font-size="10.5" fill="#8b949e">#1</text>
<text x="0" y="12" font-size="10.5" fill="#8b949e">hash_map</text>
</g>
<line x1="150.2" y1="456" x2="150.2" y2="461" stroke="#3b414b"/>
<g transform="translate(150.2,474) rotate(35)">
<text x="0" y="0" font-size="10.5" fill="#8b949e">#2</text>
<text x="0" y="12" font-size="10.5" fill="#8b949e">iterative</text>
</g>
<line x1="175.5" y1="456" x2="175.5" y2="461" stroke="#3b414b"/>
<g transform="translate(175.5,474) rotate(35)">
<text x="0" y="0" font-size="10.5" fill="#8b949e">#3</text>
<text x="0" y="12" font-size="10.5" fill="#8b949e">sliding_window</text>
</g>
<line x1="200.8" y1="456" x2="200.8" y2="461" stroke="#3b414b"/>
<g transform="translate(200.8,474) rotate(35)">
<text x="0" y="0" font-size="10.5" fill="#8b949e">#4</text>
<text x="0" y="12" font-size="10.5" fill="#8b949e">binary_search…</text>
</g>
<line x1="226.1" y1="456" x2="226.1" y2="461" stroke="#3b414b"/>
<g transform="translate(226.1,474) rotate(35)">
<text x="0" y="0" font-size="10.5" fill="#8b949e">#5</text>
<text x="0" y="12" font-size="10.5" fill="#8b949e">expand_around…</text>
</g>
<line x1="251.4" y1="456" x2="251.4" y2="461" stroke="#3b414b"/>
<g transform="translate(251.4,474) rotate(35)">
<text x="0" y="0" font-size="10.5" fill="#8b949e">#6</text>
<text x="0" y="12" font-size="10.5" fill="#8b949e">row_buffers</text>
</g>
<line x1="276.7" y1="456" x2="276.7" y2="461" stroke="#3b414b"/>
<g transform="translate(276.7,474) rotate(35)">
<text x="0" y="0" font-size="10.5" fill="#8b949e">#7</text>
<text x="0" y="12" font-size="10.5" fill="#8b949e">reverse</text>
</g>
<line x1="301.9" y1="456" x2="301.9" y2="461" stroke="#3b414b"/>
<g transform="translate(301.9,474) rotate(35)">
<text x="0" y="0" font-size="10.5" fill="#8b949e">#8</text>
<text x="0" y="12" font-size="10.5" fill="#8b949e">atoi</text>
</g>
<line x1="327.2" y1="456" x2="327.2" y2="461" stroke="#3b414b"/>
<g transform="translate(327.2,474) rotate(35)">
<text x="0" y="0" font-size="10.5" fill="#8b949e">#9</text>
<text x="0" y="12" font-size="10.5" fill="#8b949e">palindrome</text>
</g>
<line x1="352.5" y1="456" x2="352.5" y2="461" stroke="#3b414b"/>
<g transform="translate(352.5,474) rotate(35)">
<text x="0" y="0" font-size="10.5" fill="#8b949e">#10</text>
<text x="0" y="12" font-size="10.5" fill="#8b949e">regex</text>
</g>
<line x1="377.8" y1="456" x2="377.8" y2="461" stroke="#3b414b"/>
<g transform="translate(377.8,474) rotate(35)">
<text x="0" y="0" font-size="10.5" fill="#8b949e">#11</text>
<text x="0" y="12" font-size="10.5" fill="#8b949e">container</text>
</g>
<line x1="403.1" y1="456" x2="403.1" y2="461" stroke="#3b414b"/>
<g transform="translate(403.1,474) rotate(35)">
<text x="0" y="0" font-size="10.5" fill="#8b949e">#12</text>
<text x="0" y="12" font-size="10.5" fill="#8b949e">greedy</text>
</g>
<line x1="428.4" y1="456" x2="428.4" y2="461" stroke="#3b414b"/>
<g transform="translate(428.4,474) rotate(35)">
<text x="0" y="0" font-size="10.5" fill="#8b949e">#13</text>
<text x="0" y="12" font-size="10.5" fill="#8b949e">greedy</text>
</g>
<line x1="453.6" y1="456" x2="453.6" y2="461" stroke="#3b414b"/>
<g transform="translate(453.6,474) rotate(35)">
<text x="0" y="0" font-size="10.5" fill="#8b949e">#14</text>
<text x="0" y="12" font-size="10.5" fill="#8b949e">vertical</text>
</g>
<line x1="478.9" y1="456" x2="478.9" y2="461" stroke="#3b414b"/>
<g transform="translate(478.9,474) rotate(35)">
<text x="0" y="0" font-size="10.5" fill="#8b949e">#15</text>
<text x="0" y="12" font-size="10.5" fill="#8b949e">three_sum</text>
</g>
<line x1="504.2" y1="456" x2="504.2" y2="461" stroke="#3b414b"/>
<g transform="translate(504.2,474) rotate(35)">
<text x="0" y="0" font-size="10.5" fill="#8b949e">#16</text>
<text x="0" y="12" font-size="10.5" fill="#8b949e">three_sum_clo…</text>
</g>
<line x1="529.5" y1="456" x2="529.5" y2="461" stroke="#3b414b"/>
<g transform="translate(529.5,474) rotate(35)">
<text x="0" y="0" font-size="10.5" fill="#8b949e">#17</text>
<text x="0" y="12" font-size="10.5" fill="#8b949e">letter_combin…</text>
</g>
<line x1="554.8" y1="456" x2="554.8" y2="461" stroke="#3b414b"/>
<g transform="translate(554.8,474) rotate(35)">
<text x="0" y="0" font-size="10.5" fill="#8b949e">#18</text>
<text x="0" y="12" font-size="10.5" fill="#8b949e">four_sum</text>
</g>
<line x1="580.1" y1="456" x2="580.1" y2="461" stroke="#3b414b"/>
<g transform="translate(580.1,474) rotate(35)">
<text x="0" y="0" font-size="10.5" fill="#8b949e">#19</text>
<text x="0" y="12" font-size="10.5" fill="#8b949e">remove_nth</text>
</g>
<line x1="605.3" y1="456" x2="605.3" y2="461" stroke="#3b414b"/>
<g transform="translate(605.3,474) rotate(35)">
<text x="0" y="0" font-size="10.5" fill="#8b949e">#20</text>
<text x="0" y="12" font-size="10.5" fill="#8b949e">valid_parenth…</text>
</g>
<line x1="630.6" y1="456" x2="630.6" y2="461" stroke="#3b414b"/>
<g transform="translate(630.6,474) rotate(35)">
<text x="0" y="0" font-size="10.5" fill="#8b949e">#21</text>
<text x="0" y="12" font-size="10.5" fill="#8b949e">iterative</text>
</g>
<line x1="655.9" y1="456" x2="655.9" y2="461" stroke="#3b414b"/>
<g transform="translate(655.9,474) rotate(35)">
<text x="0" y="0" font-size="10.5" fill="#8b949e">#56</text>
<text x="0" y="12" font-size="10.5" fill="#8b949e">merge_interva…</text>
</g>
<line x1="681.2" y1="456" x2="681.2" y2="461" stroke="#3b414b"/>
<g transform="translate(681.2,474) rotate(35)">
<text x="0" y="0" font-size="10.5" fill="#8b949e">#65</text>
<text x="0" y="12" font-size="10.5" fill="#8b949e">valid</text>
</g>
<line x1="706.5" y1="456" x2="706.5" y2="461" stroke="#3b414b"/>
<g transform="translate(706.5,474) rotate(35)">
<text x="0" y="0" font-size="10.5" fill="#8b949e">#71</text>
<text x="0" y="12" font-size="10.5" fill="#8b949e">simplify</text>
</g>
<line x1="731.8" y1="456" x2="731.8" y2="461" stroke="#3b414b"/>
<g transform="translate(731.8,474) rotate(35)">
<text x="0" y="0" font-size="10.5" fill="#8b949e">#88</text>
<text x="0" y="12" font-size="10.5" fill="#8b949e">two_pointer</text>
</g>
<line x1="757.0" y1="456" x2="757.0" y2="461" stroke="#3b414b"/>
<g transform="translate(757.0,474) rotate(35)">
<text x="0" y="0" font-size="10.5" fill="#8b949e">#91</text>
<text x="0" y="12" font-size="10.5" fill="#8b949e">decode_ways</text>
</g>
<line x1="782.3" y1="456" x2="782.3" y2="461" stroke="#3b414b"/>
<g transform="translate(782.3,474) rotate(35)">
<text x="0" y="0" font-size="10.5" fill="#8b949e">#204</text>
<text x="0" y="12" font-size="10.5" fill="#8b949e">count</text>
</g>
<circle cx="102.6" cy="312.9" r="4.0" fill="#3fb950" opacity="0.95"/>
<circle cx="127.8" cy="362.3" r="4.0" fill="#3fb950" opacity="0.95"/>
<circle cx="153.1" cy="349.7" r="4.0" fill="#3fb950" opacity="0.95"/>
<circle cx="178.4" cy="360.0" r="4.0" fill="#3fb950" opacity="0.95"/>
<circle cx="203.7" cy="333.9" r="4.0" fill="#3fb950" opacity="0.95"/>
<circle cx="229.0" cy="344.2" r="4.0" fill="#3fb950" opacity="0.95"/>
<circle cx="254.3" cy="356.2" r="4.0" fill="#3fb950" opacity="0.95"/>
<circle cx="279.5" cy="322.5" r="4.0" fill="#3fb950" opacity="0.95"/>
<circle cx="304.8" cy="320.0" r="4.0" fill="#3fb950" opacity="0.95"/>
<circle cx="330.1" cy="320.9" r="4.0" fill="#3fb950" opacity="0.95"/>
<circle cx="355.4" cy="330.9" r="4.0" fill="#3fb950" opacity="0.95"/>
<circle cx="380.7" cy="320.7" r="4.0" fill="#3fb950" opacity="0.95"/>
<circle cx="406.0" cy="320.4" r="4.0" fill="#3fb950" opacity="0.95"/>
<circle cx="431.2" cy="323.6" r="4.0" fill="#3fb950" opacity="0.95"/>
<circle cx="456.5" cy="341.5" r="4.0" fill="#3fb950" opacity="0.95"/>
<circle cx="481.8" cy="349.2" r="4.0" fill="#3fb950" opacity="0.95"/>
<circle cx="507.1" cy="353.7" r="4.0" fill="#3fb950" opacity="0.95"/>
<circle cx="532.4" cy="334.0" r="4.0" fill="#3fb950" opacity="0.95"/>
<circle cx="557.6" cy="347.9" r="4.0" fill="#3fb950" opacity="0.95"/>
<circle cx="582.9" cy="343.5" r="4.0" fill="#3fb950" opacity="0.95"/>
<circle cx="608.2" cy="307.2" r="4.0" fill="#3fb950" opacity="0.95"/>
<circle cx="633.5" cy="352.4" r="4.0" fill="#3fb950" opacity="0.95"/>
<circle cx="658.8" cy="354.7" r="4.0" fill="#3fb950" opacity="0.95"/>
<circle cx="684.1" cy="311.0" r="4.0" fill="#3fb950" opacity="0.95"/>
<circle cx="709.3" cy="363.0" r="4.0" fill="#3fb950" opacity="0.95"/>
<circle cx="734.6" cy="321.8" r="4.0" fill="#3fb950" opacity="0.95"/>
<circle cx="759.9" cy="315.3" r="4.0" fill="#3fb950" opacity="0.95"/>
<circle cx="785.2" cy="322.5" r="4.0" fill="#3fb950" opacity="0.95"/>
<circle cx="96.8" cy="266.5" r="5.0" fill="#ff922b" opacity="1.0"/>
<circle cx="122.1" cy="312.9" r="5.0" fill="#ff922b" opacity="1.0"/>
<circle cx="147.4" cy="275.5" r="5.0" fill="#ff922b" opacity="1.0"/>
<circle cx="172.7" cy="315.4" r="5.0" fill="#ff922b" opacity="1.0"/>
<circle cx="197.9" cy="265.9" r="5.0" fill="#ff922b" opacity="1.0"/>
<circle cx="223.2" cy="285.9" r="5.0" fill="#ff922b" opacity="1.0"/>
<circle cx="248.5" cy="292.8" r="5.0" fill="#ff922b" opacity="1.0"/>
<circle cx="273.8" cy="250.0" r="5.0" fill="#ff922b" opacity="1.0"/>
<circle cx="299.1" cy="238.4" r="5.0" fill="#ff922b" opacity="1.0"/>
<circle cx="324.4" cy="251.8" r="5.0" fill="#ff922b" opacity="1.0"/>
<circle cx="349.6" cy="280.5" r="5.0" fill="#ff922b" opacity="1.0"/>
<circle cx="374.9" cy="256.0" r="5.0" fill="#ff922b" opacity="1.0"/>
<circle cx="400.2" cy="234.7" r="5.0" fill="#ff922b" opacity="1.0"/>
<circle cx="425.5" cy="236.2" r="5.0" fill="#ff922b" opacity="1.0"/>
<circle cx="450.8" cy="282.4" r="5.0" fill="#ff922b" opacity="1.0"/>
<circle cx="476.0" cy="292.9" r="5.0" fill="#ff922b" opacity="1.0"/>
<circle cx="501.3" cy="298.0" r="5.0" fill="#ff922b" opacity="1.0"/>
<circle cx="526.6" cy="254.2" r="5.0" fill="#ff922b" opacity="1.0"/>
<circle cx="551.9" cy="290.9" r="5.0" fill="#ff922b" opacity="1.0"/>
<circle cx="577.2" cy="263.8" r="5.0" fill="#ff922b" opacity="1.0"/>
<circle cx="602.5" cy="219.7" r="5.0" fill="#ff922b" opacity="1.0"/>
<circle cx="627.7" cy="260.8" r="5.0" fill="#ff922b" opacity="1.0"/>
<circle cx="653.0" cy="298.8" r="5.0" fill="#ff922b" opacity="1.0"/>
<circle cx="678.3" cy="215.4" r="5.0" fill="#ff922b" opacity="1.0"/>
<circle cx="703.6" cy="284.0" r="5.0" fill="#ff922b" opacity="1.0"/>
<circle cx="728.9" cy="260.5" r="5.0" fill="#ff922b" opacity="1.0"/>
<circle cx="754.2" cy="232.6" r="5.0" fill="#ff922b" opacity="1.0"/>
<circle cx="779.4" cy="257.4" r="5.0" fill="#ff922b" opacity="1.0"/>
<circle cx="847" cy="84" r="5" fill="#ff922b"/>
<text x="866" y="88" font-size="13" fill="#c9d1d9" font-weight="700">Kāra</text>
<line x1="836" y1="108" x2="858" y2="108" stroke="#6e7681" stroke-width="1.6" stroke-dasharray="5 4"/>
<text x="866" y="112" font-size="13" fill="#c9d1d9" font-weight="400">Rust</text>
<circle cx="847" cy="132" r="4" fill="#3fb950"/>
<text x="866" y="136" font-size="13" fill="#c9d1d9" font-weight="400">C</text>
<text x="70" y="538" font-size="11.5" fill="#8b949e">Each dot is one benchmarked program (kata × approach); there is no connecting line because left-to-right order is not meaningful. Raw numbers: bench-results.json</text>
</svg>