<svg xmlns="http://www.w3.org/2000/svg" width="980" height="560" viewBox="0 0 980 560" font-family="-apple-system,Segoe UI,Helvetica,Arial,sans-serif">
<rect width="980" height="560" fill="#282c34"/>
<text x="70" y="34" font-size="21" font-weight="700" fill="#c9d1d9">Compile time (cold)</text>
<text x="70" y="56" font-size="13" fill="#8b949e">relative to Rust = 1.0 · lower = faster · 107 programs</text>
<line x1="70" y1="456.0" x2="812" y2="456.0" stroke="#3b414b" stroke-width="1"/>
<text x="60" y="460.0" font-size="12" text-anchor="end" fill="#8b949e">0.0×</text>
<line x1="70" y1="330.0" x2="812" y2="330.0" stroke="#3b414b" stroke-width="1"/>
<text x="60" y="334.0" font-size="12" text-anchor="end" fill="#8b949e">0.5×</text>
<line x1="70" y1="204.0" x2="812" y2="204.0" stroke="#a7b0bc" stroke-width="2" stroke-dasharray="5 4"/>
<text x="60" y="208.0" font-size="12" text-anchor="end" fill="#aeb6c0" font-weight="700">1.0×</text>
<line x1="70" y1="78.0" x2="812" y2="78.0" stroke="#3b414b" stroke-width="1"/>
<text x="60" y="82.0" font-size="12" text-anchor="end" fill="#8b949e">1.5×</text>
<text x="812" y="198.0" font-size="11" text-anchor="end" fill="#aeb6c0">Rust baseline</text>
<line x1="70" y1="456" x2="812" y2="456" stroke="#3b414b"/>
<text x="441.0" y="478" font-size="11" text-anchor="middle" fill="#8b949e">107 programs (kata × approach) — x-order carries no meaning</text>
<circle cx="100.6" cy="315.0" r="2.6" fill="#3fb950" opacity="0.7"/>
<circle cx="107.0" cy="356.9" r="2.6" fill="#3fb950" opacity="0.7"/>
<circle cx="113.4" cy="353.5" r="2.6" fill="#3fb950" opacity="0.7"/>
<circle cx="119.9" cy="361.9" r="2.6" fill="#3fb950" opacity="0.7"/>
<circle cx="126.3" cy="337.9" r="2.6" fill="#3fb950" opacity="0.7"/>
<circle cx="132.8" cy="349.8" r="2.6" fill="#3fb950" opacity="0.7"/>
<circle cx="139.2" cy="362.0" r="2.6" fill="#3fb950" opacity="0.7"/>
<circle cx="145.6" cy="331.0" r="2.6" fill="#3fb950" opacity="0.7"/>
<circle cx="152.1" cy="332.2" r="2.6" fill="#3fb950" opacity="0.7"/>
<circle cx="158.5" cy="329.4" r="2.6" fill="#3fb950" opacity="0.7"/>
<circle cx="165.0" cy="331.8" r="2.6" fill="#3fb950" opacity="0.7"/>
<circle cx="171.4" cy="332.6" r="2.6" fill="#3fb950" opacity="0.7"/>
<circle cx="177.8" cy="331.2" r="2.6" fill="#3fb950" opacity="0.7"/>
<circle cx="184.3" cy="333.4" r="2.6" fill="#3fb950" opacity="0.7"/>
<circle cx="190.7" cy="342.8" r="2.6" fill="#3fb950" opacity="0.7"/>
<circle cx="197.2" cy="354.9" r="2.6" fill="#3fb950" opacity="0.7"/>
<circle cx="203.6" cy="360.0" r="2.6" fill="#3fb950" opacity="0.7"/>
<circle cx="210.0" cy="346.4" r="2.6" fill="#3fb950" opacity="0.7"/>
<circle cx="216.5" cy="354.4" r="2.6" fill="#3fb950" opacity="0.7"/>
<circle cx="222.9" cy="352.3" r="2.6" fill="#3fb950" opacity="0.7"/>
<circle cx="229.4" cy="324.8" r="2.6" fill="#3fb950" opacity="0.7"/>
<circle cx="235.8" cy="357.2" r="2.6" fill="#3fb950" opacity="0.7"/>
<circle cx="242.2" cy="334.3" r="2.6" fill="#3fb950" opacity="0.7"/>
<circle cx="248.7" cy="361.8" r="2.6" fill="#3fb950" opacity="0.7"/>
<circle cx="255.1" cy="353.3" r="2.6" fill="#3fb950" opacity="0.7"/>
<circle cx="261.6" cy="361.3" r="2.6" fill="#3fb950" opacity="0.7"/>
<circle cx="268.0" cy="333.6" r="2.6" fill="#3fb950" opacity="0.7"/>
<circle cx="274.4" cy="333.5" r="2.6" fill="#3fb950" opacity="0.7"/>
<circle cx="280.9" cy="325.5" r="2.6" fill="#3fb950" opacity="0.7"/>
<circle cx="287.3" cy="334.1" r="2.6" fill="#3fb950" opacity="0.7"/>
<circle cx="293.8" cy="320.0" r="2.6" fill="#3fb950" opacity="0.7"/>
<circle cx="300.2" cy="383.0" r="2.6" fill="#3fb950" opacity="0.7"/>
<circle cx="306.6" cy="326.9" r="2.6" fill="#3fb950" opacity="0.7"/>
<circle cx="313.1" cy="333.2" r="2.6" fill="#3fb950" opacity="0.7"/>
<circle cx="319.5" cy="326.8" r="2.6" fill="#3fb950" opacity="0.7"/>
<circle cx="326.0" cy="330.4" r="2.6" fill="#3fb950" opacity="0.7"/>
<circle cx="332.4" cy="330.7" r="2.6" fill="#3fb950" opacity="0.7"/>
<circle cx="338.8" cy="320.5" r="2.6" fill="#3fb950" opacity="0.7"/>
<circle cx="345.3" cy="325.7" r="2.6" fill="#3fb950" opacity="0.7"/>
<circle cx="351.7" cy="328.6" r="2.6" fill="#3fb950" opacity="0.7"/>
<circle cx="358.2" cy="328.3" r="2.6" fill="#3fb950" opacity="0.7"/>
<circle cx="364.6" cy="344.1" r="2.6" fill="#3fb950" opacity="0.7"/>
<circle cx="371.0" cy="321.5" r="2.6" fill="#3fb950" opacity="0.7"/>
<circle cx="377.5" cy="325.8" r="2.6" fill="#3fb950" opacity="0.7"/>
<circle cx="383.9" cy="341.0" r="2.6" fill="#3fb950" opacity="0.7"/>
<circle cx="390.4" cy="344.0" r="2.6" fill="#3fb950" opacity="0.7"/>
<circle cx="396.8" cy="333.3" r="2.6" fill="#3fb950" opacity="0.7"/>
<circle cx="403.2" cy="337.2" r="2.6" fill="#3fb950" opacity="0.7"/>
<circle cx="409.7" cy="364.4" r="2.6" fill="#3fb950" opacity="0.7"/>
<circle cx="416.1" cy="281.1" r="2.6" fill="#3fb950" opacity="0.7"/>
<circle cx="422.6" cy="352.0" r="2.6" fill="#3fb950" opacity="0.7"/>
<circle cx="429.0" cy="317.7" r="2.6" fill="#3fb950" opacity="0.7"/>
<circle cx="435.4" cy="320.1" r="2.6" fill="#3fb950" opacity="0.7"/>
<circle cx="441.9" cy="319.5" r="2.6" fill="#3fb950" opacity="0.7"/>
<circle cx="448.3" cy="180.7" r="2.6" fill="#3fb950" opacity="0.7"/>
<circle cx="454.8" cy="316.2" r="2.6" fill="#3fb950" opacity="0.7"/>
<circle cx="461.2" cy="324.5" r="2.6" fill="#3fb950" opacity="0.7"/>
<circle cx="467.6" cy="360.4" r="2.6" fill="#3fb950" opacity="0.7"/>
<circle cx="474.1" cy="359.0" r="2.6" fill="#3fb950" opacity="0.7"/>
<circle cx="480.5" cy="338.5" r="2.6" fill="#3fb950" opacity="0.7"/>
<circle cx="487.0" cy="340.9" r="2.6" fill="#3fb950" opacity="0.7"/>
<circle cx="493.4" cy="365.5" r="2.6" fill="#3fb950" opacity="0.7"/>
<circle cx="499.8" cy="332.1" r="2.6" fill="#3fb950" opacity="0.7"/>
<circle cx="506.3" cy="327.4" r="2.6" fill="#3fb950" opacity="0.7"/>
<circle cx="512.7" cy="330.3" r="2.6" fill="#3fb950" opacity="0.7"/>
<circle cx="519.2" cy="330.5" r="2.6" fill="#3fb950" opacity="0.7"/>
<circle cx="525.6" cy="319.8" r="2.6" fill="#3fb950" opacity="0.7"/>
<circle cx="532.0" cy="318.2" r="2.6" fill="#3fb950" opacity="0.7"/>
<circle cx="538.5" cy="323.1" r="2.6" fill="#3fb950" opacity="0.7"/>
<circle cx="544.9" cy="329.5" r="2.6" fill="#3fb950" opacity="0.7"/>
<circle cx="551.4" cy="366.0" r="2.6" fill="#3fb950" opacity="0.7"/>
<circle cx="557.8" cy="330.9" r="2.6" fill="#3fb950" opacity="0.7"/>
<circle cx="564.2" cy="246.1" r="2.6" fill="#3fb950" opacity="0.7"/>
<circle cx="570.7" cy="326.3" r="2.6" fill="#3fb950" opacity="0.7"/>
<circle cx="577.1" cy="329.0" r="2.6" fill="#3fb950" opacity="0.7"/>
<circle cx="583.6" cy="330.4" r="2.6" fill="#3fb950" opacity="0.7"/>
<circle cx="590.0" cy="335.7" r="2.6" fill="#3fb950" opacity="0.7"/>
<circle cx="596.4" cy="347.1" r="2.6" fill="#3fb950" opacity="0.7"/>
<circle cx="602.9" cy="341.7" r="2.6" fill="#3fb950" opacity="0.7"/>
<circle cx="609.3" cy="331.0" r="2.6" fill="#3fb950" opacity="0.7"/>
<circle cx="615.8" cy="328.7" r="2.6" fill="#3fb950" opacity="0.7"/>
<circle cx="622.2" cy="360.5" r="2.6" fill="#3fb950" opacity="0.7"/>
<circle cx="628.6" cy="352.5" r="2.6" fill="#3fb950" opacity="0.7"/>
<circle cx="635.1" cy="330.2" r="2.6" fill="#3fb950" opacity="0.7"/>
<circle cx="641.5" cy="357.3" r="2.6" fill="#3fb950" opacity="0.7"/>
<circle cx="648.0" cy="334.3" r="2.6" fill="#3fb950" opacity="0.7"/>
<circle cx="654.4" cy="335.3" r="2.6" fill="#3fb950" opacity="0.7"/>
<circle cx="660.8" cy="321.7" r="2.6" fill="#3fb950" opacity="0.7"/>
<circle cx="667.3" cy="338.8" r="2.6" fill="#3fb950" opacity="0.7"/>
<circle cx="673.7" cy="329.1" r="2.6" fill="#3fb950" opacity="0.7"/>
<circle cx="680.2" cy="356.5" r="2.6" fill="#3fb950" opacity="0.7"/>
<circle cx="686.6" cy="321.1" r="2.6" fill="#3fb950" opacity="0.7"/>
<circle cx="693.0" cy="336.2" r="2.6" fill="#3fb950" opacity="0.7"/>
<circle cx="699.5" cy="332.2" r="2.6" fill="#3fb950" opacity="0.7"/>
<circle cx="705.9" cy="370.4" r="2.6" fill="#3fb950" opacity="0.7"/>
<circle cx="712.4" cy="329.1" r="2.6" fill="#3fb950" opacity="0.7"/>
<circle cx="718.8" cy="328.6" r="2.6" fill="#3fb950" opacity="0.7"/>
<circle cx="725.2" cy="350.8" r="2.6" fill="#3fb950" opacity="0.7"/>
<circle cx="731.7" cy="335.2" r="2.6" fill="#3fb950" opacity="0.7"/>
<circle cx="738.1" cy="365.5" r="2.6" fill="#3fb950" opacity="0.7"/>
<circle cx="744.6" cy="369.3" r="2.6" fill="#3fb950" opacity="0.7"/>
<circle cx="751.0" cy="346.0" r="2.6" fill="#3fb950" opacity="0.7"/>
<circle cx="757.4" cy="333.6" r="2.6" fill="#3fb950" opacity="0.7"/>
<circle cx="763.9" cy="336.0" r="2.6" fill="#3fb950" opacity="0.7"/>
<circle cx="770.3" cy="346.6" r="2.6" fill="#3fb950" opacity="0.7"/>
<circle cx="776.8" cy="366.3" r="2.6" fill="#3fb950" opacity="0.7"/>
<circle cx="783.2" cy="366.7" r="2.6" fill="#3fb950" opacity="0.7"/>
<circle cx="98.8" cy="221.7" r="3.2" fill="#ff922b" opacity="0.85"/>
<circle cx="105.2" cy="294.4" r="3.2" fill="#ff922b" opacity="0.85"/>
<circle cx="111.7" cy="289.1" r="3.2" fill="#ff922b" opacity="0.85"/>
<circle cx="118.1" cy="308.1" r="3.2" fill="#ff922b" opacity="0.85"/>
<circle cx="124.6" cy="258.4" r="3.2" fill="#ff922b" opacity="0.85"/>
<circle cx="131.0" cy="277.4" r="3.2" fill="#ff922b" opacity="0.85"/>
<circle cx="137.4" cy="293.8" r="3.2" fill="#ff922b" opacity="0.85"/>
<circle cx="143.9" cy="253.7" r="3.2" fill="#ff922b" opacity="0.85"/>
<circle cx="150.3" cy="239.7" r="3.2" fill="#ff922b" opacity="0.85"/>
<circle cx="156.8" cy="252.9" r="3.2" fill="#ff922b" opacity="0.85"/>
<circle cx="163.2" cy="235.2" r="3.2" fill="#ff922b" opacity="0.85"/>
<circle cx="169.6" cy="259.9" r="3.2" fill="#ff922b" opacity="0.85"/>
<circle cx="176.1" cy="252.1" r="3.2" fill="#ff922b" opacity="0.85"/>
<circle cx="182.5" cy="248.8" r="3.2" fill="#ff922b" opacity="0.85"/>
<circle cx="189.0" cy="276.3" r="3.2" fill="#ff922b" opacity="0.85"/>
<circle cx="195.4" cy="285.5" r="3.2" fill="#ff922b" opacity="0.85"/>
<circle cx="201.8" cy="296.9" r="3.2" fill="#ff922b" opacity="0.85"/>
<circle cx="208.3" cy="264.3" r="3.2" fill="#ff922b" opacity="0.85"/>
<circle cx="214.7" cy="271.4" r="3.2" fill="#ff922b" opacity="0.85"/>
<circle cx="221.2" cy="274.6" r="3.2" fill="#ff922b" opacity="0.85"/>
<circle cx="227.6" cy="249.4" r="3.2" fill="#ff922b" opacity="0.85"/>
<circle cx="234.0" cy="270.7" r="3.2" fill="#ff922b" opacity="0.85"/>
<circle cx="240.5" cy="258.2" r="3.2" fill="#ff922b" opacity="0.85"/>
<circle cx="246.9" cy="283.1" r="3.2" fill="#ff922b" opacity="0.85"/>
<circle cx="253.4" cy="273.2" r="3.2" fill="#ff922b" opacity="0.85"/>
<circle cx="259.8" cy="279.2" r="3.2" fill="#ff922b" opacity="0.85"/>
<circle cx="266.2" cy="272.8" r="3.2" fill="#ff922b" opacity="0.85"/>
<circle cx="272.7" cy="266.9" r="3.2" fill="#ff922b" opacity="0.85"/>
<circle cx="279.1" cy="235.8" r="3.2" fill="#ff922b" opacity="0.85"/>
<circle cx="285.6" cy="258.6" r="3.2" fill="#ff922b" opacity="0.85"/>
<circle cx="292.0" cy="231.2" r="3.2" fill="#ff922b" opacity="0.85"/>
<circle cx="298.4" cy="344.8" r="3.2" fill="#ff922b" opacity="0.85"/>
<circle cx="304.9" cy="245.1" r="3.2" fill="#ff922b" opacity="0.85"/>
<circle cx="311.3" cy="250.3" r="3.2" fill="#ff922b" opacity="0.85"/>
<circle cx="317.8" cy="250.7" r="3.2" fill="#ff922b" opacity="0.85"/>
<circle cx="324.2" cy="256.7" r="3.2" fill="#ff922b" opacity="0.85"/>
<circle cx="330.6" cy="254.8" r="3.2" fill="#ff922b" opacity="0.85"/>
<circle cx="337.1" cy="156.8" r="3.2" fill="#ff922b" opacity="0.85"/>
<circle cx="343.5" cy="212.9" r="3.2" fill="#ff922b" opacity="0.85"/>
<circle cx="350.0" cy="253.4" r="3.2" fill="#ff922b" opacity="0.85"/>
<circle cx="356.4" cy="248.6" r="3.2" fill="#ff922b" opacity="0.85"/>
<circle cx="362.8" cy="270.6" r="3.2" fill="#ff922b" opacity="0.85"/>
<circle cx="369.3" cy="240.8" r="3.2" fill="#ff922b" opacity="0.85"/>
<circle cx="375.7" cy="255.3" r="3.2" fill="#ff922b" opacity="0.85"/>
<circle cx="382.2" cy="265.7" r="3.2" fill="#ff922b" opacity="0.85"/>
<circle cx="388.6" cy="270.9" r="3.2" fill="#ff922b" opacity="0.85"/>
<circle cx="395.0" cy="235.5" r="3.2" fill="#ff922b" opacity="0.85"/>
<circle cx="401.5" cy="266.7" r="3.2" fill="#ff922b" opacity="0.85"/>
<circle cx="407.9" cy="298.2" r="3.2" fill="#ff922b" opacity="0.85"/>
<circle cx="414.4" cy="289.4" r="3.2" fill="#ff922b" opacity="0.85"/>
<circle cx="420.8" cy="318.7" r="3.2" fill="#ff922b" opacity="0.85"/>
<circle cx="427.2" cy="196.6" r="3.2" fill="#ff922b" opacity="0.85"/>
<circle cx="433.7" cy="192.8" r="3.2" fill="#ff922b" opacity="0.85"/>
<circle cx="440.1" cy="194.7" r="3.2" fill="#ff922b" opacity="0.85"/>
<circle cx="446.6" cy="203.1" r="3.2" fill="#ff922b" opacity="0.85"/>
<circle cx="453.0" cy="201.3" r="3.2" fill="#ff922b" opacity="0.85"/>
<circle cx="459.4" cy="223.1" r="3.2" fill="#ff922b" opacity="0.85"/>
<circle cx="465.9" cy="303.9" r="3.2" fill="#ff922b" opacity="0.85"/>
<circle cx="472.3" cy="267.5" r="3.2" fill="#ff922b" opacity="0.85"/>
<circle cx="478.8" cy="251.8" r="3.2" fill="#ff922b" opacity="0.85"/>
<circle cx="485.2" cy="231.3" r="3.2" fill="#ff922b" opacity="0.85"/>
<circle cx="491.6" cy="189.9" r="3.2" fill="#ff922b" opacity="0.85"/>
<circle cx="498.1" cy="210.5" r="3.2" fill="#ff922b" opacity="0.85"/>
<circle cx="504.5" cy="204.3" r="3.2" fill="#ff922b" opacity="0.85"/>
<circle cx="511.0" cy="211.0" r="3.2" fill="#ff922b" opacity="0.85"/>
<circle cx="517.4" cy="239.0" r="3.2" fill="#ff922b" opacity="0.85"/>
<circle cx="523.8" cy="168.4" r="3.2" fill="#ff922b" opacity="0.85"/>
<circle cx="530.3" cy="149.6" r="3.2" fill="#ff922b" opacity="0.85"/>
<circle cx="536.7" cy="172.8" r="3.2" fill="#ff922b" opacity="0.85"/>
<circle cx="543.2" cy="173.8" r="3.2" fill="#ff922b" opacity="0.85"/>
<circle cx="549.6" cy="283.0" r="3.2" fill="#ff922b" opacity="0.85"/>
<circle cx="556.0" cy="221.1" r="3.2" fill="#ff922b" opacity="0.85"/>
<circle cx="562.5" cy="242.6" r="3.2" fill="#ff922b" opacity="0.85"/>
<circle cx="568.9" cy="209.0" r="3.2" fill="#ff922b" opacity="0.85"/>
<circle cx="575.4" cy="193.9" r="3.2" fill="#ff922b" opacity="0.85"/>
<circle cx="581.8" cy="191.7" r="3.2" fill="#ff922b" opacity="0.85"/>
<circle cx="588.2" cy="197.4" r="3.2" fill="#ff922b" opacity="0.85"/>
<circle cx="594.7" cy="226.6" r="3.2" fill="#ff922b" opacity="0.85"/>
<circle cx="601.1" cy="219.4" r="3.2" fill="#ff922b" opacity="0.85"/>
<circle cx="607.6" cy="196.7" r="3.2" fill="#ff922b" opacity="0.85"/>
<circle cx="614.0" cy="207.8" r="3.2" fill="#ff922b" opacity="0.85"/>
<circle cx="620.4" cy="235.3" r="3.2" fill="#ff922b" opacity="0.85"/>
<circle cx="626.9" cy="237.3" r="3.2" fill="#ff922b" opacity="0.85"/>
<circle cx="633.3" cy="197.3" r="3.2" fill="#ff922b" opacity="0.85"/>
<circle cx="639.8" cy="233.2" r="3.2" fill="#ff922b" opacity="0.85"/>
<circle cx="646.2" cy="208.5" r="3.2" fill="#ff922b" opacity="0.85"/>
<circle cx="652.6" cy="270.9" r="3.2" fill="#ff922b" opacity="0.85"/>
<circle cx="659.1" cy="175.4" r="3.2" fill="#ff922b" opacity="0.85"/>
<circle cx="665.5" cy="212.3" r="3.2" fill="#ff922b" opacity="0.85"/>
<circle cx="672.0" cy="244.3" r="3.2" fill="#ff922b" opacity="0.85"/>
<circle cx="678.4" cy="240.4" r="3.2" fill="#ff922b" opacity="0.85"/>
<circle cx="684.8" cy="197.4" r="3.2" fill="#ff922b" opacity="0.85"/>
<circle cx="691.3" cy="267.1" r="3.2" fill="#ff922b" opacity="0.85"/>
<circle cx="697.7" cy="250.5" r="3.2" fill="#ff922b" opacity="0.85"/>
<circle cx="704.2" cy="325.9" r="3.2" fill="#ff922b" opacity="0.85"/>
<circle cx="710.6" cy="251.9" r="3.2" fill="#ff922b" opacity="0.85"/>
<circle cx="717.0" cy="263.9" r="3.2" fill="#ff922b" opacity="0.85"/>
<circle cx="723.5" cy="284.8" r="3.2" fill="#ff922b" opacity="0.85"/>
<circle cx="729.9" cy="260.3" r="3.2" fill="#ff922b" opacity="0.85"/>
<circle cx="736.4" cy="304.3" r="3.2" fill="#ff922b" opacity="0.85"/>
<circle cx="742.8" cy="303.9" r="3.2" fill="#ff922b" opacity="0.85"/>
<circle cx="749.2" cy="264.7" r="3.2" fill="#ff922b" opacity="0.85"/>
<circle cx="755.7" cy="269.4" r="3.2" fill="#ff922b" opacity="0.85"/>
<circle cx="762.1" cy="259.4" r="3.2" fill="#ff922b" opacity="0.85"/>
<circle cx="768.6" cy="256.4" r="3.2" fill="#ff922b" opacity="0.85"/>
<circle cx="775.0" cy="313.0" r="3.2" fill="#ff922b" opacity="0.85"/>
<circle cx="781.4" cy="311.6" r="3.2" fill="#ff922b" opacity="0.85"/>
<circle cx="847" cy="84" r="5" fill="#ff922b"/>
<text x="866" y="88" font-size="13" fill="#c9d1d9" font-weight="700">Kāra</text>
<line x1="836" y1="108" x2="858" y2="108" stroke="#a7b0bc" stroke-width="2" stroke-dasharray="5 4"/>
<text x="866" y="112" font-size="13" fill="#c9d1d9" font-weight="400">Rust = 1.0×</text>
<circle cx="847" cy="132" r="4" fill="#3fb950"/>
<text x="866" y="136" font-size="13" fill="#c9d1d9" font-weight="400">C</text>
<text x="70" y="538" font-size="11.5" fill="#8b949e">Each dot is one benchmarked program (kata × approach); there is no connecting line because left-to-right order is not meaningful. Raw numbers: bench-results.json</text>
</svg>