<svg xmlns="http://www.w3.org/2000/svg" width="980" height="560" viewBox="0 0 980 560" font-family="-apple-system,Segoe UI,Helvetica,Arial,sans-serif">
<rect width="980" height="560" fill="#282c34"/>
<text x="70" y="34" font-size="21" font-weight="700" fill="#c9d1d9">Compile time (cold)</text>
<text x="70" y="56" font-size="13" fill="#8b949e">relative to Rust = 1.0 · lower = faster · 18 programs</text>
<line x1="70" y1="456.0" x2="812" y2="456.0" stroke="#3b414b" stroke-width="1"/>
<text x="60" y="460.0" font-size="12" text-anchor="end" fill="#8b949e">0.0×</text>
<line x1="70" y1="330.0" x2="812" y2="330.0" stroke="#3b414b" stroke-width="1"/>
<text x="60" y="334.0" font-size="12" text-anchor="end" fill="#8b949e">0.5×</text>
<line x1="70" y1="204.0" x2="812" y2="204.0" stroke="#6e7681" stroke-width="1.4" stroke-dasharray="5 4"/>
<text x="60" y="208.0" font-size="12" text-anchor="end" fill="#aeb6c0" font-weight="700">1.0×</text>
<line x1="70" y1="78.0" x2="812" y2="78.0" stroke="#3b414b" stroke-width="1"/>
<text x="60" y="82.0" font-size="12" text-anchor="end" fill="#8b949e">1.5×</text>
<text x="812" y="198.0" font-size="11" text-anchor="end" fill="#aeb6c0">Rust baseline</text>
<line x1="99.7" y1="456" x2="99.7" y2="461" stroke="#3b414b"/>
<g transform="translate(99.7,474) rotate(35)">
<text x="0" y="0" font-size="10.5" fill="#8b949e">#1</text>
<text x="0" y="12" font-size="10.5" fill="#8b949e">brute_force</text>
</g>
<line x1="139.8" y1="456" x2="139.8" y2="461" stroke="#3b414b"/>
<g transform="translate(139.8,474) rotate(35)">
<text x="0" y="0" font-size="10.5" fill="#8b949e">#1</text>
<text x="0" y="12" font-size="10.5" fill="#8b949e">hash_map</text>
</g>
<line x1="180.0" y1="456" x2="180.0" y2="461" stroke="#3b414b"/>
<g transform="translate(180.0,474) rotate(35)">
<text x="0" y="0" font-size="10.5" fill="#8b949e">#2</text>
<text x="0" y="12" font-size="10.5" fill="#8b949e">iterative</text>
</g>
<line x1="220.1" y1="456" x2="220.1" y2="461" stroke="#3b414b"/>
<g transform="translate(220.1,474) rotate(35)">
<text x="0" y="0" font-size="10.5" fill="#8b949e">#3</text>
<text x="0" y="12" font-size="10.5" fill="#8b949e">sliding_window</text>
</g>
<line x1="260.3" y1="456" x2="260.3" y2="461" stroke="#3b414b"/>
<g transform="translate(260.3,474) rotate(35)">
<text x="0" y="0" font-size="10.5" fill="#8b949e">#4</text>
<text x="0" y="12" font-size="10.5" fill="#8b949e">binary_search…</text>
</g>
<line x1="300.5" y1="456" x2="300.5" y2="461" stroke="#3b414b"/>
<g transform="translate(300.5,474) rotate(35)">
<text x="0" y="0" font-size="10.5" fill="#8b949e">#5</text>
<text x="0" y="12" font-size="10.5" fill="#8b949e">expand_around…</text>
</g>
<line x1="340.6" y1="456" x2="340.6" y2="461" stroke="#3b414b"/>
<g transform="translate(340.6,474) rotate(35)">
<text x="0" y="0" font-size="10.5" fill="#8b949e">#6</text>
<text x="0" y="12" font-size="10.5" fill="#8b949e">row_buffers</text>
</g>
<line x1="380.8" y1="456" x2="380.8" y2="461" stroke="#3b414b"/>
<g transform="translate(380.8,474) rotate(35)">
<text x="0" y="0" font-size="10.5" fill="#8b949e">#7</text>
<text x="0" y="12" font-size="10.5" fill="#8b949e">reverse</text>
</g>
<line x1="420.9" y1="456" x2="420.9" y2="461" stroke="#3b414b"/>
<g transform="translate(420.9,474) rotate(35)">
<text x="0" y="0" font-size="10.5" fill="#8b949e">#8</text>
<text x="0" y="12" font-size="10.5" fill="#8b949e">atoi</text>
</g>
<line x1="461.1" y1="456" x2="461.1" y2="461" stroke="#3b414b"/>
<g transform="translate(461.1,474) rotate(35)">
<text x="0" y="0" font-size="10.5" fill="#8b949e">#9</text>
<text x="0" y="12" font-size="10.5" fill="#8b949e">palindrome</text>
</g>
<line x1="501.2" y1="456" x2="501.2" y2="461" stroke="#3b414b"/>
<g transform="translate(501.2,474) rotate(35)">
<text x="0" y="0" font-size="10.5" fill="#8b949e">#10</text>
<text x="0" y="12" font-size="10.5" fill="#8b949e">regex</text>
</g>
<line x1="541.4" y1="456" x2="541.4" y2="461" stroke="#3b414b"/>
<g transform="translate(541.4,474) rotate(35)">
<text x="0" y="0" font-size="10.5" fill="#8b949e">#11</text>
<text x="0" y="12" font-size="10.5" fill="#8b949e">container</text>
</g>
<line x1="581.5" y1="456" x2="581.5" y2="461" stroke="#3b414b"/>
<g transform="translate(581.5,474) rotate(35)">
<text x="0" y="0" font-size="10.5" fill="#8b949e">#12</text>
<text x="0" y="12" font-size="10.5" fill="#8b949e">greedy</text>
</g>
<line x1="621.7" y1="456" x2="621.7" y2="461" stroke="#3b414b"/>
<g transform="translate(621.7,474) rotate(35)">
<text x="0" y="0" font-size="10.5" fill="#8b949e">#13</text>
<text x="0" y="12" font-size="10.5" fill="#8b949e">greedy</text>
</g>
<line x1="661.9" y1="456" x2="661.9" y2="461" stroke="#3b414b"/>
<g transform="translate(661.9,474) rotate(35)">
<text x="0" y="0" font-size="10.5" fill="#8b949e">#14</text>
<text x="0" y="12" font-size="10.5" fill="#8b949e">vertical</text>
</g>
<line x1="702.0" y1="456" x2="702.0" y2="461" stroke="#3b414b"/>
<g transform="translate(702.0,474) rotate(35)">
<text x="0" y="0" font-size="10.5" fill="#8b949e">#15</text>
<text x="0" y="12" font-size="10.5" fill="#8b949e">three_sum</text>
</g>
<line x1="742.2" y1="456" x2="742.2" y2="461" stroke="#3b414b"/>
<g transform="translate(742.2,474) rotate(35)">
<text x="0" y="0" font-size="10.5" fill="#8b949e">#16</text>
<text x="0" y="12" font-size="10.5" fill="#8b949e">three_sum_clo…</text>
</g>
<line x1="782.3" y1="456" x2="782.3" y2="461" stroke="#3b414b"/>
<g transform="translate(782.3,474) rotate(35)">
<text x="0" y="0" font-size="10.5" fill="#8b949e">#204</text>
<text x="0" y="12" font-size="10.5" fill="#8b949e">count</text>
</g>
<circle cx="102.6" cy="312.9" r="4.0" fill="#3fb950" opacity="0.95"/>
<circle cx="142.7" cy="362.3" r="4.0" fill="#3fb950" opacity="0.95"/>
<circle cx="182.9" cy="349.7" r="4.0" fill="#3fb950" opacity="0.95"/>
<circle cx="223.0" cy="360.0" r="4.0" fill="#3fb950" opacity="0.95"/>
<circle cx="263.2" cy="333.9" r="4.0" fill="#3fb950" opacity="0.95"/>
<circle cx="303.3" cy="344.2" r="4.0" fill="#3fb950" opacity="0.95"/>
<circle cx="343.5" cy="356.2" r="4.0" fill="#3fb950" opacity="0.95"/>
<circle cx="383.6" cy="322.5" r="4.0" fill="#3fb950" opacity="0.95"/>
<circle cx="423.8" cy="320.0" r="4.0" fill="#3fb950" opacity="0.95"/>
<circle cx="464.0" cy="320.9" r="4.0" fill="#3fb950" opacity="0.95"/>
<circle cx="504.1" cy="330.9" r="4.0" fill="#3fb950" opacity="0.95"/>
<circle cx="544.3" cy="320.7" r="4.0" fill="#3fb950" opacity="0.95"/>
<circle cx="584.4" cy="320.4" r="4.0" fill="#3fb950" opacity="0.95"/>
<circle cx="624.6" cy="323.6" r="4.0" fill="#3fb950" opacity="0.95"/>
<circle cx="664.7" cy="341.5" r="4.0" fill="#3fb950" opacity="0.95"/>
<circle cx="704.9" cy="349.2" r="4.0" fill="#3fb950" opacity="0.95"/>
<circle cx="745.0" cy="353.7" r="4.0" fill="#3fb950" opacity="0.95"/>
<circle cx="785.2" cy="322.5" r="4.0" fill="#3fb950" opacity="0.95"/>
<circle cx="96.8" cy="266.5" r="5.0" fill="#ff922b" opacity="1.0"/>
<circle cx="137.0" cy="312.9" r="5.0" fill="#ff922b" opacity="1.0"/>
<circle cx="177.1" cy="275.5" r="5.0" fill="#ff922b" opacity="1.0"/>
<circle cx="217.3" cy="315.4" r="5.0" fill="#ff922b" opacity="1.0"/>
<circle cx="257.4" cy="265.9" r="5.0" fill="#ff922b" opacity="1.0"/>
<circle cx="297.6" cy="285.9" r="5.0" fill="#ff922b" opacity="1.0"/>
<circle cx="337.7" cy="292.8" r="5.0" fill="#ff922b" opacity="1.0"/>
<circle cx="377.9" cy="250.0" r="5.0" fill="#ff922b" opacity="1.0"/>
<circle cx="418.0" cy="238.4" r="5.0" fill="#ff922b" opacity="1.0"/>
<circle cx="458.2" cy="251.8" r="5.0" fill="#ff922b" opacity="1.0"/>
<circle cx="498.4" cy="280.5" r="5.0" fill="#ff922b" opacity="1.0"/>
<circle cx="538.5" cy="256.0" r="5.0" fill="#ff922b" opacity="1.0"/>
<circle cx="578.7" cy="234.7" r="5.0" fill="#ff922b" opacity="1.0"/>
<circle cx="618.8" cy="236.2" r="5.0" fill="#ff922b" opacity="1.0"/>
<circle cx="659.0" cy="282.4" r="5.0" fill="#ff922b" opacity="1.0"/>
<circle cx="699.1" cy="292.9" r="5.0" fill="#ff922b" opacity="1.0"/>
<circle cx="739.3" cy="298.0" r="5.0" fill="#ff922b" opacity="1.0"/>
<circle cx="779.4" cy="257.4" r="5.0" fill="#ff922b" opacity="1.0"/>
<circle cx="847" cy="84" r="5" fill="#ff922b"/>
<text x="866" y="88" font-size="13" fill="#c9d1d9" font-weight="700">Kāra</text>
<line x1="836" y1="108" x2="858" y2="108" stroke="#6e7681" stroke-width="1.6" stroke-dasharray="5 4"/>
<text x="866" y="112" font-size="13" fill="#c9d1d9" font-weight="400">Rust</text>
<circle cx="847" cy="132" r="4" fill="#3fb950"/>
<text x="866" y="136" font-size="13" fill="#c9d1d9" font-weight="400">C</text>
<text x="70" y="538" font-size="11.5" fill="#8b949e">Each dot is one benchmarked program (kata × approach); there is no connecting line because left-to-right order is not meaningful. Raw numbers: bench-results.json</text>
</svg>