<svg xmlns="http://www.w3.org/2000/svg" width="980" height="560" viewBox="0 0 980 560" font-family="-apple-system,Segoe UI,Helvetica,Arial,sans-serif">
<rect width="980" height="560" fill="#282c34"/>
<text x="70" y="34" font-size="21" font-weight="700" fill="#c9d1d9">Compile peak memory (cold)</text>
<text x="70" y="56" font-size="13" fill="#8b949e">relative to Rust = 1.0 · lower = leaner · 36 programs</text>
<line x1="70" y1="456.0" x2="812" y2="456.0" stroke="#3b414b" stroke-width="1"/>
<text x="60" y="460.0" font-size="12" text-anchor="end" fill="#8b949e">0.0×</text>
<line x1="70" y1="330.0" x2="812" y2="330.0" stroke="#3b414b" stroke-width="1"/>
<text x="60" y="334.0" font-size="12" text-anchor="end" fill="#8b949e">0.5×</text>
<line x1="70" y1="204.0" x2="812" y2="204.0" stroke="#6e7681" stroke-width="1.4" stroke-dasharray="5 4"/>
<text x="60" y="208.0" font-size="12" text-anchor="end" fill="#aeb6c0" font-weight="700">1.0×</text>
<line x1="70" y1="78.0" x2="812" y2="78.0" stroke="#3b414b" stroke-width="1"/>
<text x="60" y="82.0" font-size="12" text-anchor="end" fill="#8b949e">1.5×</text>
<text x="812" y="198.0" font-size="11" text-anchor="end" fill="#aeb6c0">Rust baseline</text>
<line x1="70" y1="456" x2="812" y2="456" stroke="#3b414b"/>
<text x="441.0" y="478" font-size="11" text-anchor="middle" fill="#8b949e">36 programs (kata × approach) — x-order carries no meaning</text>
<circle cx="101.7" cy="431.6" r="2.6" fill="#3fb950" opacity="0.7"/>
<circle cx="121.2" cy="438.7" r="2.6" fill="#3fb950" opacity="0.7"/>
<circle cx="140.7" cy="435.5" r="2.6" fill="#3fb950" opacity="0.7"/>
<circle cx="160.2" cy="438.9" r="2.6" fill="#3fb950" opacity="0.7"/>
<circle cx="179.7" cy="433.7" r="2.6" fill="#3fb950" opacity="0.7"/>
<circle cx="199.2" cy="434.0" r="2.6" fill="#3fb950" opacity="0.7"/>
<circle cx="218.7" cy="435.4" r="2.6" fill="#3fb950" opacity="0.7"/>
<circle cx="238.2" cy="431.9" r="2.6" fill="#3fb950" opacity="0.7"/>
<circle cx="257.7" cy="431.3" r="2.6" fill="#3fb950" opacity="0.7"/>
<circle cx="277.2" cy="432.3" r="2.6" fill="#3fb950" opacity="0.7"/>
<circle cx="296.7" cy="432.1" r="2.6" fill="#3fb950" opacity="0.7"/>
<circle cx="316.2" cy="432.8" r="2.6" fill="#3fb950" opacity="0.7"/>
<circle cx="335.7" cy="433.1" r="2.6" fill="#3fb950" opacity="0.7"/>
<circle cx="355.2" cy="433.4" r="2.6" fill="#3fb950" opacity="0.7"/>
<circle cx="374.7" cy="434.2" r="2.6" fill="#3fb950" opacity="0.7"/>
<circle cx="394.2" cy="439.2" r="2.6" fill="#3fb950" opacity="0.7"/>
<circle cx="413.7" cy="438.7" r="2.6" fill="#3fb950" opacity="0.7"/>
<circle cx="433.2" cy="433.4" r="2.6" fill="#3fb950" opacity="0.7"/>
<circle cx="452.7" cy="439.6" r="2.6" fill="#3fb950" opacity="0.7"/>
<circle cx="472.2" cy="435.1" r="2.6" fill="#3fb950" opacity="0.7"/>
<circle cx="491.7" cy="432.1" r="2.6" fill="#3fb950" opacity="0.7"/>
<circle cx="511.2" cy="435.2" r="2.6" fill="#3fb950" opacity="0.7"/>
<circle cx="530.7" cy="440.0" r="2.6" fill="#3fb950" opacity="0.7"/>
<circle cx="550.2" cy="432.4" r="2.6" fill="#3fb950" opacity="0.7"/>
<circle cx="569.8" cy="436.2" r="2.6" fill="#3fb950" opacity="0.7"/>
<circle cx="589.3" cy="435.0" r="2.6" fill="#3fb950" opacity="0.7"/>
<circle cx="608.8" cy="432.4" r="2.6" fill="#3fb950" opacity="0.7"/>
<circle cx="628.3" cy="433.5" r="2.6" fill="#3fb950" opacity="0.7"/>
<circle cx="647.8" cy="441.5" r="2.6" fill="#3fb950" opacity="0.7"/>
<circle cx="667.3" cy="432.3" r="2.6" fill="#3fb950" opacity="0.7"/>
<circle cx="686.8" cy="433.7" r="2.6" fill="#3fb950" opacity="0.7"/>
<circle cx="706.3" cy="431.6" r="2.6" fill="#3fb950" opacity="0.7"/>
<circle cx="725.8" cy="437.3" r="2.6" fill="#3fb950" opacity="0.7"/>
<circle cx="745.3" cy="437.2" r="2.6" fill="#3fb950" opacity="0.7"/>
<circle cx="764.8" cy="439.3" r="2.6" fill="#3fb950" opacity="0.7"/>
<circle cx="784.3" cy="442.0" r="2.6" fill="#3fb950" opacity="0.7"/>
<circle cx="97.7" cy="366.0" r="3.2" fill="#ff922b" opacity="0.85"/>
<circle cx="117.2" cy="389.9" r="3.2" fill="#ff922b" opacity="0.85"/>
<circle cx="136.7" cy="368.7" r="3.2" fill="#ff922b" opacity="0.85"/>
<circle cx="156.2" cy="388.6" r="3.2" fill="#ff922b" opacity="0.85"/>
<circle cx="175.7" cy="368.1" r="3.2" fill="#ff922b" opacity="0.85"/>
<circle cx="195.2" cy="373.1" r="3.2" fill="#ff922b" opacity="0.85"/>
<circle cx="214.7" cy="371.3" r="3.2" fill="#ff922b" opacity="0.85"/>
<circle cx="234.2" cy="362.4" r="3.2" fill="#ff922b" opacity="0.85"/>
<circle cx="253.7" cy="358.1" r="3.2" fill="#ff922b" opacity="0.85"/>
<circle cx="273.2" cy="361.4" r="3.2" fill="#ff922b" opacity="0.85"/>
<circle cx="292.7" cy="358.7" r="3.2" fill="#ff922b" opacity="0.85"/>
<circle cx="312.2" cy="367.7" r="3.2" fill="#ff922b" opacity="0.85"/>
<circle cx="331.8" cy="351.0" r="3.2" fill="#ff922b" opacity="0.85"/>
<circle cx="351.3" cy="348.8" r="3.2" fill="#ff922b" opacity="0.85"/>
<circle cx="370.8" cy="360.8" r="3.2" fill="#ff922b" opacity="0.85"/>
<circle cx="390.3" cy="381.2" r="3.2" fill="#ff922b" opacity="0.85"/>
<circle cx="409.8" cy="384.5" r="3.2" fill="#ff922b" opacity="0.85"/>
<circle cx="429.3" cy="359.0" r="3.2" fill="#ff922b" opacity="0.85"/>
<circle cx="448.8" cy="378.4" r="3.2" fill="#ff922b" opacity="0.85"/>
<circle cx="468.3" cy="370.7" r="3.2" fill="#ff922b" opacity="0.85"/>
<circle cx="487.8" cy="358.2" r="3.2" fill="#ff922b" opacity="0.85"/>
<circle cx="507.3" cy="363.4" r="3.2" fill="#ff922b" opacity="0.85"/>
<circle cx="526.8" cy="387.4" r="3.2" fill="#ff922b" opacity="0.85"/>
<circle cx="546.3" cy="357.9" r="3.2" fill="#ff922b" opacity="0.85"/>
<circle cx="565.8" cy="368.7" r="3.2" fill="#ff922b" opacity="0.85"/>
<circle cx="585.3" cy="374.7" r="3.2" fill="#ff922b" opacity="0.85"/>
<circle cx="604.8" cy="365.4" r="3.2" fill="#ff922b" opacity="0.85"/>
<circle cx="624.3" cy="368.5" r="3.2" fill="#ff922b" opacity="0.85"/>
<circle cx="643.8" cy="393.3" r="3.2" fill="#ff922b" opacity="0.85"/>
<circle cx="663.3" cy="367.2" r="3.2" fill="#ff922b" opacity="0.85"/>
<circle cx="682.8" cy="361.1" r="3.2" fill="#ff922b" opacity="0.85"/>
<circle cx="702.3" cy="362.8" r="3.2" fill="#ff922b" opacity="0.85"/>
<circle cx="721.8" cy="377.6" r="3.2" fill="#ff922b" opacity="0.85"/>
<circle cx="741.3" cy="379.0" r="3.2" fill="#ff922b" opacity="0.85"/>
<circle cx="760.8" cy="390.3" r="3.2" fill="#ff922b" opacity="0.85"/>
<circle cx="780.3" cy="391.2" r="3.2" fill="#ff922b" opacity="0.85"/>
<circle cx="847" cy="84" r="5" fill="#ff922b"/>
<text x="866" y="88" font-size="13" fill="#c9d1d9" font-weight="700">Kāra</text>
<line x1="836" y1="108" x2="858" y2="108" stroke="#6e7681" stroke-width="1.6" stroke-dasharray="5 4"/>
<text x="866" y="112" font-size="13" fill="#c9d1d9" font-weight="400">Rust</text>
<circle cx="847" cy="132" r="4" fill="#3fb950"/>
<text x="866" y="136" font-size="13" fill="#c9d1d9" font-weight="400">C</text>
<text x="70" y="538" font-size="11.5" fill="#8b949e">Each dot is one benchmarked program (kata × approach); there is no connecting line because left-to-right order is not meaningful. Raw numbers: bench-results.json</text>
</svg>