<svg xmlns="http://www.w3.org/2000/svg" width="980" height="560" viewBox="0 0 980 560" font-family="-apple-system,Segoe UI,Helvetica,Arial,sans-serif">
<rect width="980" height="560" fill="#282c34"/>
<text x="70" y="34" font-size="21" font-weight="700" fill="#c9d1d9">Compile time (cold)</text>
<text x="70" y="56" font-size="13" fill="#8b949e">relative to Rust = 1.0 · lower = faster · 32 programs</text>
<line x1="70" y1="456.0" x2="812" y2="456.0" stroke="#3b414b" stroke-width="1"/>
<text x="60" y="460.0" font-size="12" text-anchor="end" fill="#8b949e">0.0×</text>
<line x1="70" y1="330.0" x2="812" y2="330.0" stroke="#3b414b" stroke-width="1"/>
<text x="60" y="334.0" font-size="12" text-anchor="end" fill="#8b949e">0.5×</text>
<line x1="70" y1="204.0" x2="812" y2="204.0" stroke="#6e7681" stroke-width="1.4" stroke-dasharray="5 4"/>
<text x="60" y="208.0" font-size="12" text-anchor="end" fill="#aeb6c0" font-weight="700">1.0×</text>
<line x1="70" y1="78.0" x2="812" y2="78.0" stroke="#3b414b" stroke-width="1"/>
<text x="60" y="82.0" font-size="12" text-anchor="end" fill="#8b949e">1.5×</text>
<text x="812" y="198.0" font-size="11" text-anchor="end" fill="#aeb6c0">Rust baseline</text>
<line x1="70" y1="456" x2="812" y2="456" stroke="#3b414b"/>
<text x="441.0" y="478" font-size="11" text-anchor="middle" fill="#8b949e">32 programs (kata × approach) — x-order carries no meaning</text>
<circle cx="101.7" cy="312.9" r="2.6" fill="#3fb950" opacity="0.7"/>
<circle cx="123.7" cy="362.3" r="2.6" fill="#3fb950" opacity="0.7"/>
<circle cx="145.7" cy="349.7" r="2.6" fill="#3fb950" opacity="0.7"/>
<circle cx="167.7" cy="360.0" r="2.6" fill="#3fb950" opacity="0.7"/>
<circle cx="189.7" cy="333.9" r="2.6" fill="#3fb950" opacity="0.7"/>
<circle cx="211.8" cy="344.2" r="2.6" fill="#3fb950" opacity="0.7"/>
<circle cx="233.8" cy="356.2" r="2.6" fill="#3fb950" opacity="0.7"/>
<circle cx="255.8" cy="322.5" r="2.6" fill="#3fb950" opacity="0.7"/>
<circle cx="277.8" cy="320.0" r="2.6" fill="#3fb950" opacity="0.7"/>
<circle cx="299.8" cy="320.9" r="2.6" fill="#3fb950" opacity="0.7"/>
<circle cx="321.9" cy="330.9" r="2.6" fill="#3fb950" opacity="0.7"/>
<circle cx="343.9" cy="320.7" r="2.6" fill="#3fb950" opacity="0.7"/>
<circle cx="365.9" cy="320.4" r="2.6" fill="#3fb950" opacity="0.7"/>
<circle cx="387.9" cy="323.6" r="2.6" fill="#3fb950" opacity="0.7"/>
<circle cx="409.9" cy="341.5" r="2.6" fill="#3fb950" opacity="0.7"/>
<circle cx="432.0" cy="349.2" r="2.6" fill="#3fb950" opacity="0.7"/>
<circle cx="454.0" cy="353.7" r="2.6" fill="#3fb950" opacity="0.7"/>
<circle cx="476.0" cy="334.0" r="2.6" fill="#3fb950" opacity="0.7"/>
<circle cx="498.0" cy="347.9" r="2.6" fill="#3fb950" opacity="0.7"/>
<circle cx="520.0" cy="343.5" r="2.6" fill="#3fb950" opacity="0.7"/>
<circle cx="542.1" cy="307.2" r="2.6" fill="#3fb950" opacity="0.7"/>
<circle cx="564.1" cy="352.4" r="2.6" fill="#3fb950" opacity="0.7"/>
<circle cx="586.1" cy="354.7" r="2.6" fill="#3fb950" opacity="0.7"/>
<circle cx="608.1" cy="311.0" r="2.6" fill="#3fb950" opacity="0.7"/>
<circle cx="630.2" cy="363.0" r="2.6" fill="#3fb950" opacity="0.7"/>
<circle cx="652.2" cy="321.8" r="2.6" fill="#3fb950" opacity="0.7"/>
<circle cx="674.2" cy="315.3" r="2.6" fill="#3fb950" opacity="0.7"/>
<circle cx="696.2" cy="320.6" r="2.6" fill="#3fb950" opacity="0.7"/>
<circle cx="718.2" cy="367.0" r="2.6" fill="#3fb950" opacity="0.7"/>
<circle cx="740.3" cy="312.4" r="2.6" fill="#3fb950" opacity="0.7"/>
<circle cx="762.3" cy="316.7" r="2.6" fill="#3fb950" opacity="0.7"/>
<circle cx="784.3" cy="322.5" r="2.6" fill="#3fb950" opacity="0.7"/>
<circle cx="97.7" cy="266.5" r="3.2" fill="#ff922b" opacity="0.85"/>
<circle cx="119.7" cy="312.9" r="3.2" fill="#ff922b" opacity="0.85"/>
<circle cx="141.7" cy="275.5" r="3.2" fill="#ff922b" opacity="0.85"/>
<circle cx="163.8" cy="315.4" r="3.2" fill="#ff922b" opacity="0.85"/>
<circle cx="185.8" cy="265.9" r="3.2" fill="#ff922b" opacity="0.85"/>
<circle cx="207.8" cy="285.9" r="3.2" fill="#ff922b" opacity="0.85"/>
<circle cx="229.8" cy="292.8" r="3.2" fill="#ff922b" opacity="0.85"/>
<circle cx="251.8" cy="250.0" r="3.2" fill="#ff922b" opacity="0.85"/>
<circle cx="273.9" cy="238.4" r="3.2" fill="#ff922b" opacity="0.85"/>
<circle cx="295.9" cy="251.8" r="3.2" fill="#ff922b" opacity="0.85"/>
<circle cx="317.9" cy="280.5" r="3.2" fill="#ff922b" opacity="0.85"/>
<circle cx="339.9" cy="256.0" r="3.2" fill="#ff922b" opacity="0.85"/>
<circle cx="362.0" cy="234.7" r="3.2" fill="#ff922b" opacity="0.85"/>
<circle cx="384.0" cy="236.2" r="3.2" fill="#ff922b" opacity="0.85"/>
<circle cx="406.0" cy="282.4" r="3.2" fill="#ff922b" opacity="0.85"/>
<circle cx="428.0" cy="292.9" r="3.2" fill="#ff922b" opacity="0.85"/>
<circle cx="450.0" cy="298.0" r="3.2" fill="#ff922b" opacity="0.85"/>
<circle cx="472.1" cy="254.2" r="3.2" fill="#ff922b" opacity="0.85"/>
<circle cx="494.1" cy="290.9" r="3.2" fill="#ff922b" opacity="0.85"/>
<circle cx="516.1" cy="263.8" r="3.2" fill="#ff922b" opacity="0.85"/>
<circle cx="538.1" cy="219.7" r="3.2" fill="#ff922b" opacity="0.85"/>
<circle cx="560.1" cy="260.8" r="3.2" fill="#ff922b" opacity="0.85"/>
<circle cx="582.2" cy="298.8" r="3.2" fill="#ff922b" opacity="0.85"/>
<circle cx="604.2" cy="215.4" r="3.2" fill="#ff922b" opacity="0.85"/>
<circle cx="626.2" cy="284.0" r="3.2" fill="#ff922b" opacity="0.85"/>
<circle cx="648.2" cy="260.5" r="3.2" fill="#ff922b" opacity="0.85"/>
<circle cx="670.2" cy="232.6" r="3.2" fill="#ff922b" opacity="0.85"/>
<circle cx="692.3" cy="243.8" r="3.2" fill="#ff922b" opacity="0.85"/>
<circle cx="714.3" cy="325.0" r="3.2" fill="#ff922b" opacity="0.85"/>
<circle cx="736.3" cy="238.0" r="3.2" fill="#ff922b" opacity="0.85"/>
<circle cx="758.3" cy="250.8" r="3.2" fill="#ff922b" opacity="0.85"/>
<circle cx="780.3" cy="257.4" r="3.2" fill="#ff922b" opacity="0.85"/>
<circle cx="847" cy="84" r="5" fill="#ff922b"/>
<text x="866" y="88" font-size="13" fill="#c9d1d9" font-weight="700">Kāra</text>
<line x1="836" y1="108" x2="858" y2="108" stroke="#6e7681" stroke-width="1.6" stroke-dasharray="5 4"/>
<text x="866" y="112" font-size="13" fill="#c9d1d9" font-weight="400">Rust</text>
<circle cx="847" cy="132" r="4" fill="#3fb950"/>
<text x="866" y="136" font-size="13" fill="#c9d1d9" font-weight="400">C</text>
<text x="70" y="538" font-size="11.5" fill="#8b949e">Each dot is one benchmarked program (kata × approach); there is no connecting line because left-to-right order is not meaningful. Raw numbers: bench-results.json</text>
</svg>