<svg xmlns="http://www.w3.org/2000/svg" width="980" height="560" viewBox="0 0 980 560" font-family="-apple-system,Segoe UI,Helvetica,Arial,sans-serif">
<rect width="980" height="560" fill="#282c34"/>
<text x="70" y="34" font-size="21" font-weight="700" fill="#c9d1d9">Compile time (cold)</text>
<text x="70" y="56" font-size="13" fill="#8b949e">relative to Rust = 1.0 · lower = faster · 30 programs</text>
<line x1="70" y1="456.0" x2="812" y2="456.0" stroke="#3b414b" stroke-width="1"/>
<text x="60" y="460.0" font-size="12" text-anchor="end" fill="#8b949e">0.0×</text>
<line x1="70" y1="330.0" x2="812" y2="330.0" stroke="#3b414b" stroke-width="1"/>
<text x="60" y="334.0" font-size="12" text-anchor="end" fill="#8b949e">0.5×</text>
<line x1="70" y1="204.0" x2="812" y2="204.0" stroke="#6e7681" stroke-width="1.4" stroke-dasharray="5 4"/>
<text x="60" y="208.0" font-size="12" text-anchor="end" fill="#aeb6c0" font-weight="700">1.0×</text>
<line x1="70" y1="78.0" x2="812" y2="78.0" stroke="#3b414b" stroke-width="1"/>
<text x="60" y="82.0" font-size="12" text-anchor="end" fill="#8b949e">1.5×</text>
<text x="812" y="198.0" font-size="11" text-anchor="end" fill="#aeb6c0">Rust baseline</text>
<line x1="99.7" y1="456" x2="99.7" y2="461" stroke="#3b414b"/>
<g transform="translate(99.7,474) rotate(35)">
<text x="0" y="0" font-size="10.5" fill="#8b949e">#1</text>
<text x="0" y="12" font-size="10.5" fill="#8b949e">brute_force</text>
</g>
<line x1="123.2" y1="456" x2="123.2" y2="461" stroke="#3b414b"/>
<g transform="translate(123.2,474) rotate(35)">
<text x="0" y="0" font-size="10.5" fill="#8b949e">#1</text>
<text x="0" y="12" font-size="10.5" fill="#8b949e">hash_map</text>
</g>
<line x1="146.8" y1="456" x2="146.8" y2="461" stroke="#3b414b"/>
<g transform="translate(146.8,474) rotate(35)">
<text x="0" y="0" font-size="10.5" fill="#8b949e">#2</text>
<text x="0" y="12" font-size="10.5" fill="#8b949e">iterative</text>
</g>
<line x1="170.3" y1="456" x2="170.3" y2="461" stroke="#3b414b"/>
<g transform="translate(170.3,474) rotate(35)">
<text x="0" y="0" font-size="10.5" fill="#8b949e">#3</text>
<text x="0" y="12" font-size="10.5" fill="#8b949e">sliding_window</text>
</g>
<line x1="193.8" y1="456" x2="193.8" y2="461" stroke="#3b414b"/>
<g transform="translate(193.8,474) rotate(35)">
<text x="0" y="0" font-size="10.5" fill="#8b949e">#4</text>
<text x="0" y="12" font-size="10.5" fill="#8b949e">binary_search…</text>
</g>
<line x1="217.4" y1="456" x2="217.4" y2="461" stroke="#3b414b"/>
<g transform="translate(217.4,474) rotate(35)">
<text x="0" y="0" font-size="10.5" fill="#8b949e">#5</text>
<text x="0" y="12" font-size="10.5" fill="#8b949e">expand_around…</text>
</g>
<line x1="240.9" y1="456" x2="240.9" y2="461" stroke="#3b414b"/>
<g transform="translate(240.9,474) rotate(35)">
<text x="0" y="0" font-size="10.5" fill="#8b949e">#6</text>
<text x="0" y="12" font-size="10.5" fill="#8b949e">row_buffers</text>
</g>
<line x1="264.5" y1="456" x2="264.5" y2="461" stroke="#3b414b"/>
<g transform="translate(264.5,474) rotate(35)">
<text x="0" y="0" font-size="10.5" fill="#8b949e">#7</text>
<text x="0" y="12" font-size="10.5" fill="#8b949e">reverse</text>
</g>
<line x1="288.0" y1="456" x2="288.0" y2="461" stroke="#3b414b"/>
<g transform="translate(288.0,474) rotate(35)">
<text x="0" y="0" font-size="10.5" fill="#8b949e">#8</text>
<text x="0" y="12" font-size="10.5" fill="#8b949e">atoi</text>
</g>
<line x1="311.5" y1="456" x2="311.5" y2="461" stroke="#3b414b"/>
<g transform="translate(311.5,474) rotate(35)">
<text x="0" y="0" font-size="10.5" fill="#8b949e">#9</text>
<text x="0" y="12" font-size="10.5" fill="#8b949e">palindrome</text>
</g>
<line x1="335.1" y1="456" x2="335.1" y2="461" stroke="#3b414b"/>
<g transform="translate(335.1,474) rotate(35)">
<text x="0" y="0" font-size="10.5" fill="#8b949e">#10</text>
<text x="0" y="12" font-size="10.5" fill="#8b949e">regex</text>
</g>
<line x1="358.6" y1="456" x2="358.6" y2="461" stroke="#3b414b"/>
<g transform="translate(358.6,474) rotate(35)">
<text x="0" y="0" font-size="10.5" fill="#8b949e">#11</text>
<text x="0" y="12" font-size="10.5" fill="#8b949e">container</text>
</g>
<line x1="382.2" y1="456" x2="382.2" y2="461" stroke="#3b414b"/>
<g transform="translate(382.2,474) rotate(35)">
<text x="0" y="0" font-size="10.5" fill="#8b949e">#12</text>
<text x="0" y="12" font-size="10.5" fill="#8b949e">greedy</text>
</g>
<line x1="405.7" y1="456" x2="405.7" y2="461" stroke="#3b414b"/>
<g transform="translate(405.7,474) rotate(35)">
<text x="0" y="0" font-size="10.5" fill="#8b949e">#13</text>
<text x="0" y="12" font-size="10.5" fill="#8b949e">greedy</text>
</g>
<line x1="429.2" y1="456" x2="429.2" y2="461" stroke="#3b414b"/>
<g transform="translate(429.2,474) rotate(35)">
<text x="0" y="0" font-size="10.5" fill="#8b949e">#14</text>
<text x="0" y="12" font-size="10.5" fill="#8b949e">vertical</text>
</g>
<line x1="452.8" y1="456" x2="452.8" y2="461" stroke="#3b414b"/>
<g transform="translate(452.8,474) rotate(35)">
<text x="0" y="0" font-size="10.5" fill="#8b949e">#15</text>
<text x="0" y="12" font-size="10.5" fill="#8b949e">three_sum</text>
</g>
<line x1="476.3" y1="456" x2="476.3" y2="461" stroke="#3b414b"/>
<g transform="translate(476.3,474) rotate(35)">
<text x="0" y="0" font-size="10.5" fill="#8b949e">#16</text>
<text x="0" y="12" font-size="10.5" fill="#8b949e">three_sum_clo…</text>
</g>
<line x1="499.8" y1="456" x2="499.8" y2="461" stroke="#3b414b"/>
<g transform="translate(499.8,474) rotate(35)">
<text x="0" y="0" font-size="10.5" fill="#8b949e">#17</text>
<text x="0" y="12" font-size="10.5" fill="#8b949e">letter_combin…</text>
</g>
<line x1="523.4" y1="456" x2="523.4" y2="461" stroke="#3b414b"/>
<g transform="translate(523.4,474) rotate(35)">
<text x="0" y="0" font-size="10.5" fill="#8b949e">#18</text>
<text x="0" y="12" font-size="10.5" fill="#8b949e">four_sum</text>
</g>
<line x1="546.9" y1="456" x2="546.9" y2="461" stroke="#3b414b"/>
<g transform="translate(546.9,474) rotate(35)">
<text x="0" y="0" font-size="10.5" fill="#8b949e">#19</text>
<text x="0" y="12" font-size="10.5" fill="#8b949e">remove_nth</text>
</g>
<line x1="570.5" y1="456" x2="570.5" y2="461" stroke="#3b414b"/>
<g transform="translate(570.5,474) rotate(35)">
<text x="0" y="0" font-size="10.5" fill="#8b949e">#20</text>
<text x="0" y="12" font-size="10.5" fill="#8b949e">valid_parenth…</text>
</g>
<line x1="594.0" y1="456" x2="594.0" y2="461" stroke="#3b414b"/>
<g transform="translate(594.0,474) rotate(35)">
<text x="0" y="0" font-size="10.5" fill="#8b949e">#21</text>
<text x="0" y="12" font-size="10.5" fill="#8b949e">iterative</text>
</g>
<line x1="617.5" y1="456" x2="617.5" y2="461" stroke="#3b414b"/>
<g transform="translate(617.5,474) rotate(35)">
<text x="0" y="0" font-size="10.5" fill="#8b949e">#56</text>
<text x="0" y="12" font-size="10.5" fill="#8b949e">merge_interva…</text>
</g>
<line x1="641.1" y1="456" x2="641.1" y2="461" stroke="#3b414b"/>
<g transform="translate(641.1,474) rotate(35)">
<text x="0" y="0" font-size="10.5" fill="#8b949e">#65</text>
<text x="0" y="12" font-size="10.5" fill="#8b949e">valid</text>
</g>
<line x1="664.6" y1="456" x2="664.6" y2="461" stroke="#3b414b"/>
<g transform="translate(664.6,474) rotate(35)">
<text x="0" y="0" font-size="10.5" fill="#8b949e">#71</text>
<text x="0" y="12" font-size="10.5" fill="#8b949e">simplify</text>
</g>
<line x1="688.2" y1="456" x2="688.2" y2="461" stroke="#3b414b"/>
<g transform="translate(688.2,474) rotate(35)">
<text x="0" y="0" font-size="10.5" fill="#8b949e">#88</text>
<text x="0" y="12" font-size="10.5" fill="#8b949e">two_pointer</text>
</g>
<line x1="711.7" y1="456" x2="711.7" y2="461" stroke="#3b414b"/>
<g transform="translate(711.7,474) rotate(35)">
<text x="0" y="0" font-size="10.5" fill="#8b949e">#91</text>
<text x="0" y="12" font-size="10.5" fill="#8b949e">decode_ways</text>
</g>
<line x1="735.2" y1="456" x2="735.2" y2="461" stroke="#3b414b"/>
<g transform="translate(735.2,474) rotate(35)">
<text x="0" y="0" font-size="10.5" fill="#8b949e">#121</text>
<text x="0" y="12" font-size="10.5" fill="#8b949e">one_pass</text>
</g>
<line x1="758.8" y1="456" x2="758.8" y2="461" stroke="#3b414b"/>
<g transform="translate(758.8,474) rotate(35)">
<text x="0" y="0" font-size="10.5" fill="#8b949e">#133</text>
<text x="0" y="12" font-size="10.5" fill="#8b949e">clone_bfs</text>
</g>
<line x1="782.3" y1="456" x2="782.3" y2="461" stroke="#3b414b"/>
<g transform="translate(782.3,474) rotate(35)">
<text x="0" y="0" font-size="10.5" fill="#8b949e">#204</text>
<text x="0" y="12" font-size="10.5" fill="#8b949e">count</text>
</g>
<circle cx="102.6" cy="312.9" r="4.0" fill="#3fb950" opacity="0.95"/>
<circle cx="126.1" cy="362.3" r="4.0" fill="#3fb950" opacity="0.95"/>
<circle cx="149.6" cy="349.7" r="4.0" fill="#3fb950" opacity="0.95"/>
<circle cx="173.2" cy="360.0" r="4.0" fill="#3fb950" opacity="0.95"/>
<circle cx="196.7" cy="333.9" r="4.0" fill="#3fb950" opacity="0.95"/>
<circle cx="220.3" cy="344.2" r="4.0" fill="#3fb950" opacity="0.95"/>
<circle cx="243.8" cy="356.2" r="4.0" fill="#3fb950" opacity="0.95"/>
<circle cx="267.3" cy="322.5" r="4.0" fill="#3fb950" opacity="0.95"/>
<circle cx="290.9" cy="320.0" r="4.0" fill="#3fb950" opacity="0.95"/>
<circle cx="314.4" cy="320.9" r="4.0" fill="#3fb950" opacity="0.95"/>
<circle cx="337.9" cy="330.9" r="4.0" fill="#3fb950" opacity="0.95"/>
<circle cx="361.5" cy="320.7" r="4.0" fill="#3fb950" opacity="0.95"/>
<circle cx="385.0" cy="320.4" r="4.0" fill="#3fb950" opacity="0.95"/>
<circle cx="408.6" cy="323.6" r="4.0" fill="#3fb950" opacity="0.95"/>
<circle cx="432.1" cy="341.5" r="4.0" fill="#3fb950" opacity="0.95"/>
<circle cx="455.6" cy="349.2" r="4.0" fill="#3fb950" opacity="0.95"/>
<circle cx="479.2" cy="353.7" r="4.0" fill="#3fb950" opacity="0.95"/>
<circle cx="502.7" cy="334.0" r="4.0" fill="#3fb950" opacity="0.95"/>
<circle cx="526.3" cy="347.9" r="4.0" fill="#3fb950" opacity="0.95"/>
<circle cx="549.8" cy="343.5" r="4.0" fill="#3fb950" opacity="0.95"/>
<circle cx="573.3" cy="307.2" r="4.0" fill="#3fb950" opacity="0.95"/>
<circle cx="596.9" cy="352.4" r="4.0" fill="#3fb950" opacity="0.95"/>
<circle cx="620.4" cy="354.7" r="4.0" fill="#3fb950" opacity="0.95"/>
<circle cx="644.0" cy="311.0" r="4.0" fill="#3fb950" opacity="0.95"/>
<circle cx="667.5" cy="363.0" r="4.0" fill="#3fb950" opacity="0.95"/>
<circle cx="691.0" cy="321.8" r="4.0" fill="#3fb950" opacity="0.95"/>
<circle cx="714.6" cy="315.3" r="4.0" fill="#3fb950" opacity="0.95"/>
<circle cx="738.1" cy="320.6" r="4.0" fill="#3fb950" opacity="0.95"/>
<circle cx="761.7" cy="367.0" r="4.0" fill="#3fb950" opacity="0.95"/>
<circle cx="785.2" cy="322.5" r="4.0" fill="#3fb950" opacity="0.95"/>
<circle cx="96.8" cy="266.5" r="5.0" fill="#ff922b" opacity="1.0"/>
<circle cx="120.3" cy="312.9" r="5.0" fill="#ff922b" opacity="1.0"/>
<circle cx="143.9" cy="275.5" r="5.0" fill="#ff922b" opacity="1.0"/>
<circle cx="167.4" cy="315.4" r="5.0" fill="#ff922b" opacity="1.0"/>
<circle cx="191.0" cy="265.9" r="5.0" fill="#ff922b" opacity="1.0"/>
<circle cx="214.5" cy="285.9" r="5.0" fill="#ff922b" opacity="1.0"/>
<circle cx="238.0" cy="292.8" r="5.0" fill="#ff922b" opacity="1.0"/>
<circle cx="261.6" cy="250.0" r="5.0" fill="#ff922b" opacity="1.0"/>
<circle cx="285.1" cy="238.4" r="5.0" fill="#ff922b" opacity="1.0"/>
<circle cx="308.7" cy="251.8" r="5.0" fill="#ff922b" opacity="1.0"/>
<circle cx="332.2" cy="280.5" r="5.0" fill="#ff922b" opacity="1.0"/>
<circle cx="355.7" cy="256.0" r="5.0" fill="#ff922b" opacity="1.0"/>
<circle cx="379.3" cy="234.7" r="5.0" fill="#ff922b" opacity="1.0"/>
<circle cx="402.8" cy="236.2" r="5.0" fill="#ff922b" opacity="1.0"/>
<circle cx="426.4" cy="282.4" r="5.0" fill="#ff922b" opacity="1.0"/>
<circle cx="449.9" cy="292.9" r="5.0" fill="#ff922b" opacity="1.0"/>
<circle cx="473.4" cy="298.0" r="5.0" fill="#ff922b" opacity="1.0"/>
<circle cx="497.0" cy="254.2" r="5.0" fill="#ff922b" opacity="1.0"/>
<circle cx="520.5" cy="290.9" r="5.0" fill="#ff922b" opacity="1.0"/>
<circle cx="544.1" cy="263.8" r="5.0" fill="#ff922b" opacity="1.0"/>
<circle cx="567.6" cy="219.7" r="5.0" fill="#ff922b" opacity="1.0"/>
<circle cx="591.1" cy="260.8" r="5.0" fill="#ff922b" opacity="1.0"/>
<circle cx="614.7" cy="298.8" r="5.0" fill="#ff922b" opacity="1.0"/>
<circle cx="638.2" cy="215.4" r="5.0" fill="#ff922b" opacity="1.0"/>
<circle cx="661.7" cy="284.0" r="5.0" fill="#ff922b" opacity="1.0"/>
<circle cx="685.3" cy="260.5" r="5.0" fill="#ff922b" opacity="1.0"/>
<circle cx="708.8" cy="232.6" r="5.0" fill="#ff922b" opacity="1.0"/>
<circle cx="732.4" cy="243.8" r="5.0" fill="#ff922b" opacity="1.0"/>
<circle cx="755.9" cy="325.0" r="5.0" fill="#ff922b" opacity="1.0"/>
<circle cx="779.4" cy="257.4" r="5.0" fill="#ff922b" opacity="1.0"/>
<circle cx="847" cy="84" r="5" fill="#ff922b"/>
<text x="866" y="88" font-size="13" fill="#c9d1d9" font-weight="700">Kāra</text>
<line x1="836" y1="108" x2="858" y2="108" stroke="#6e7681" stroke-width="1.6" stroke-dasharray="5 4"/>
<text x="866" y="112" font-size="13" fill="#c9d1d9" font-weight="400">Rust</text>
<circle cx="847" cy="132" r="4" fill="#3fb950"/>
<text x="866" y="136" font-size="13" fill="#c9d1d9" font-weight="400">C</text>
<text x="70" y="538" font-size="11.5" fill="#8b949e">Each dot is one benchmarked program (kata × approach); there is no connecting line because left-to-right order is not meaningful. Raw numbers: bench-results.json</text>
</svg>