<svg xmlns="http://www.w3.org/2000/svg" width="980" height="560" viewBox="0 0 980 560" font-family="-apple-system,Segoe UI,Helvetica,Arial,sans-serif">
<rect width="980" height="560" fill="#282c34"/>
<text x="70" y="34" font-size="21" font-weight="700" fill="#c9d1d9">Compile peak memory (cold)</text>
<text x="70" y="56" font-size="13" fill="#8b949e">relative to Rust = 1.0 · lower = leaner · 42 programs</text>
<line x1="70" y1="456.0" x2="812" y2="456.0" stroke="#3b414b" stroke-width="1"/>
<text x="60" y="460.0" font-size="12" text-anchor="end" fill="#8b949e">0.0×</text>
<line x1="70" y1="330.0" x2="812" y2="330.0" stroke="#3b414b" stroke-width="1"/>
<text x="60" y="334.0" font-size="12" text-anchor="end" fill="#8b949e">0.5×</text>
<line x1="70" y1="204.0" x2="812" y2="204.0" stroke="#a7b0bc" stroke-width="2" stroke-dasharray="5 4"/>
<text x="60" y="208.0" font-size="12" text-anchor="end" fill="#aeb6c0" font-weight="700">1.0×</text>
<line x1="70" y1="78.0" x2="812" y2="78.0" stroke="#3b414b" stroke-width="1"/>
<text x="60" y="82.0" font-size="12" text-anchor="end" fill="#8b949e">1.5×</text>
<text x="812" y="198.0" font-size="11" text-anchor="end" fill="#aeb6c0">Rust baseline</text>
<line x1="70" y1="456" x2="812" y2="456" stroke="#3b414b"/>
<text x="441.0" y="478" font-size="11" text-anchor="middle" fill="#8b949e">42 programs (kata × approach) — x-order carries no meaning</text>
<circle cx="101.7" cy="431.6" r="2.6" fill="#3fb950" opacity="0.7"/>
<circle cx="118.3" cy="438.7" r="2.6" fill="#3fb950" opacity="0.7"/>
<circle cx="135.0" cy="436.1" r="2.6" fill="#3fb950" opacity="0.7"/>
<circle cx="151.6" cy="438.9" r="2.6" fill="#3fb950" opacity="0.7"/>
<circle cx="168.3" cy="433.7" r="2.6" fill="#3fb950" opacity="0.7"/>
<circle cx="184.9" cy="434.6" r="2.6" fill="#3fb950" opacity="0.7"/>
<circle cx="201.6" cy="435.8" r="2.6" fill="#3fb950" opacity="0.7"/>
<circle cx="218.2" cy="431.9" r="2.6" fill="#3fb950" opacity="0.7"/>
<circle cx="234.9" cy="431.3" r="2.6" fill="#3fb950" opacity="0.7"/>
<circle cx="251.5" cy="432.3" r="2.6" fill="#3fb950" opacity="0.7"/>
<circle cx="268.2" cy="432.1" r="2.6" fill="#3fb950" opacity="0.7"/>
<circle cx="284.8" cy="432.8" r="2.6" fill="#3fb950" opacity="0.7"/>
<circle cx="301.5" cy="433.1" r="2.6" fill="#3fb950" opacity="0.7"/>
<circle cx="318.1" cy="433.4" r="2.6" fill="#3fb950" opacity="0.7"/>
<circle cx="334.8" cy="434.2" r="2.6" fill="#3fb950" opacity="0.7"/>
<circle cx="351.4" cy="439.2" r="2.6" fill="#3fb950" opacity="0.7"/>
<circle cx="368.1" cy="438.7" r="2.6" fill="#3fb950" opacity="0.7"/>
<circle cx="384.7" cy="433.4" r="2.6" fill="#3fb950" opacity="0.7"/>
<circle cx="401.4" cy="439.6" r="2.6" fill="#3fb950" opacity="0.7"/>
<circle cx="418.0" cy="435.1" r="2.6" fill="#3fb950" opacity="0.7"/>
<circle cx="434.7" cy="432.1" r="2.6" fill="#3fb950" opacity="0.7"/>
<circle cx="451.3" cy="435.3" r="2.6" fill="#3fb950" opacity="0.7"/>
<circle cx="467.9" cy="432.8" r="2.6" fill="#3fb950" opacity="0.7"/>
<circle cx="484.6" cy="436.7" r="2.6" fill="#3fb950" opacity="0.7"/>
<circle cx="501.2" cy="434.3" r="2.6" fill="#3fb950" opacity="0.7"/>
<circle cx="517.9" cy="435.9" r="2.6" fill="#3fb950" opacity="0.7"/>
<circle cx="534.5" cy="434.2" r="2.6" fill="#3fb950" opacity="0.7"/>
<circle cx="551.2" cy="434.1" r="2.6" fill="#3fb950" opacity="0.7"/>
<circle cx="567.8" cy="440.0" r="2.6" fill="#3fb950" opacity="0.7"/>
<circle cx="584.5" cy="432.4" r="2.6" fill="#3fb950" opacity="0.7"/>
<circle cx="601.1" cy="436.2" r="2.6" fill="#3fb950" opacity="0.7"/>
<circle cx="617.8" cy="434.8" r="2.6" fill="#3fb950" opacity="0.7"/>
<circle cx="634.4" cy="432.4" r="2.6" fill="#3fb950" opacity="0.7"/>
<circle cx="651.1" cy="433.5" r="2.6" fill="#3fb950" opacity="0.7"/>
<circle cx="667.7" cy="441.5" r="2.6" fill="#3fb950" opacity="0.7"/>
<circle cx="684.4" cy="432.3" r="2.6" fill="#3fb950" opacity="0.7"/>
<circle cx="701.0" cy="433.7" r="2.6" fill="#3fb950" opacity="0.7"/>
<circle cx="717.7" cy="431.6" r="2.6" fill="#3fb950" opacity="0.7"/>
<circle cx="734.3" cy="437.3" r="2.6" fill="#3fb950" opacity="0.7"/>
<circle cx="751.0" cy="437.2" r="2.6" fill="#3fb950" opacity="0.7"/>
<circle cx="767.6" cy="439.3" r="2.6" fill="#3fb950" opacity="0.7"/>
<circle cx="784.3" cy="442.0" r="2.6" fill="#3fb950" opacity="0.7"/>
<circle cx="97.7" cy="366.0" r="3.2" fill="#ff922b" opacity="0.85"/>
<circle cx="114.4" cy="389.9" r="3.2" fill="#ff922b" opacity="0.85"/>
<circle cx="131.0" cy="360.5" r="3.2" fill="#ff922b" opacity="0.85"/>
<circle cx="147.7" cy="388.6" r="3.2" fill="#ff922b" opacity="0.85"/>
<circle cx="164.3" cy="368.1" r="3.2" fill="#ff922b" opacity="0.85"/>
<circle cx="181.0" cy="358.0" r="3.2" fill="#ff922b" opacity="0.85"/>
<circle cx="197.6" cy="358.8" r="3.2" fill="#ff922b" opacity="0.85"/>
<circle cx="214.3" cy="362.4" r="3.2" fill="#ff922b" opacity="0.85"/>
<circle cx="230.9" cy="358.1" r="3.2" fill="#ff922b" opacity="0.85"/>
<circle cx="247.6" cy="361.4" r="3.2" fill="#ff922b" opacity="0.85"/>
<circle cx="264.2" cy="358.7" r="3.2" fill="#ff922b" opacity="0.85"/>
<circle cx="280.9" cy="367.7" r="3.2" fill="#ff922b" opacity="0.85"/>
<circle cx="297.5" cy="351.0" r="3.2" fill="#ff922b" opacity="0.85"/>
<circle cx="314.2" cy="348.8" r="3.2" fill="#ff922b" opacity="0.85"/>
<circle cx="330.8" cy="360.8" r="3.2" fill="#ff922b" opacity="0.85"/>
<circle cx="347.5" cy="381.2" r="3.2" fill="#ff922b" opacity="0.85"/>
<circle cx="364.1" cy="384.5" r="3.2" fill="#ff922b" opacity="0.85"/>
<circle cx="380.8" cy="359.0" r="3.2" fill="#ff922b" opacity="0.85"/>
<circle cx="397.4" cy="378.4" r="3.2" fill="#ff922b" opacity="0.85"/>
<circle cx="414.1" cy="370.7" r="3.2" fill="#ff922b" opacity="0.85"/>
<circle cx="430.7" cy="358.2" r="3.2" fill="#ff922b" opacity="0.85"/>
<circle cx="447.3" cy="352.0" r="3.2" fill="#ff922b" opacity="0.85"/>
<circle cx="464.0" cy="344.2" r="3.2" fill="#ff922b" opacity="0.85"/>
<circle cx="480.6" cy="350.5" r="3.2" fill="#ff922b" opacity="0.85"/>
<circle cx="497.3" cy="347.7" r="3.2" fill="#ff922b" opacity="0.85"/>
<circle cx="513.9" cy="348.4" r="3.2" fill="#ff922b" opacity="0.85"/>
<circle cx="530.6" cy="349.9" r="3.2" fill="#ff922b" opacity="0.85"/>
<circle cx="547.2" cy="347.8" r="3.2" fill="#ff922b" opacity="0.85"/>
<circle cx="563.9" cy="387.4" r="3.2" fill="#ff922b" opacity="0.85"/>
<circle cx="580.5" cy="357.9" r="3.2" fill="#ff922b" opacity="0.85"/>
<circle cx="597.2" cy="368.7" r="3.2" fill="#ff922b" opacity="0.85"/>
<circle cx="613.8" cy="358.0" r="3.2" fill="#ff922b" opacity="0.85"/>
<circle cx="630.5" cy="365.4" r="3.2" fill="#ff922b" opacity="0.85"/>
<circle cx="647.1" cy="368.5" r="3.2" fill="#ff922b" opacity="0.85"/>
<circle cx="663.8" cy="383.5" r="3.2" fill="#ff922b" opacity="0.85"/>
<circle cx="680.4" cy="367.2" r="3.2" fill="#ff922b" opacity="0.85"/>
<circle cx="697.1" cy="361.1" r="3.2" fill="#ff922b" opacity="0.85"/>
<circle cx="713.7" cy="362.8" r="3.2" fill="#ff922b" opacity="0.85"/>
<circle cx="730.4" cy="377.6" r="3.2" fill="#ff922b" opacity="0.85"/>
<circle cx="747.0" cy="379.0" r="3.2" fill="#ff922b" opacity="0.85"/>
<circle cx="763.7" cy="390.3" r="3.2" fill="#ff922b" opacity="0.85"/>
<circle cx="780.3" cy="391.2" r="3.2" fill="#ff922b" opacity="0.85"/>
<circle cx="847" cy="84" r="5" fill="#ff922b"/>
<text x="866" y="88" font-size="13" fill="#c9d1d9" font-weight="700">Kāra</text>
<line x1="836" y1="108" x2="858" y2="108" stroke="#a7b0bc" stroke-width="2" stroke-dasharray="5 4"/>
<text x="866" y="112" font-size="13" fill="#c9d1d9" font-weight="400">Rust = 1.0×</text>
<circle cx="847" cy="132" r="4" fill="#3fb950"/>
<text x="866" y="136" font-size="13" fill="#c9d1d9" font-weight="400">C</text>
<text x="70" y="538" font-size="11.5" fill="#8b949e">Each dot is one benchmarked program (kata × approach); there is no connecting line because left-to-right order is not meaningful. Raw numbers: bench-results.json</text>
</svg>