<svg xmlns="http://www.w3.org/2000/svg" width="980" height="560" viewBox="0 0 980 560" font-family="-apple-system,Segoe UI,Helvetica,Arial,sans-serif">
<rect width="980" height="560" fill="#282c34"/>
<text x="70" y="34" font-size="21" font-weight="700" fill="#c9d1d9">Compile peak memory (cold)</text>
<text x="70" y="56" font-size="13" fill="#8b949e">relative to Rust = 1.0 · lower = leaner · 98 programs</text>
<line x1="70" y1="456.0" x2="812" y2="456.0" stroke="#3b414b" stroke-width="1"/>
<text x="60" y="460.0" font-size="12" text-anchor="end" fill="#8b949e">0.0×</text>
<line x1="70" y1="330.0" x2="812" y2="330.0" stroke="#3b414b" stroke-width="1"/>
<text x="60" y="334.0" font-size="12" text-anchor="end" fill="#8b949e">0.5×</text>
<line x1="70" y1="204.0" x2="812" y2="204.0" stroke="#a7b0bc" stroke-width="2" stroke-dasharray="5 4"/>
<text x="60" y="208.0" font-size="12" text-anchor="end" fill="#aeb6c0" font-weight="700">1.0×</text>
<line x1="70" y1="78.0" x2="812" y2="78.0" stroke="#3b414b" stroke-width="1"/>
<text x="60" y="82.0" font-size="12" text-anchor="end" fill="#8b949e">1.5×</text>
<text x="812" y="198.0" font-size="11" text-anchor="end" fill="#aeb6c0">Rust baseline</text>
<line x1="70" y1="456" x2="812" y2="456" stroke="#3b414b"/>
<text x="441.0" y="478" font-size="11" text-anchor="middle" fill="#8b949e">98 programs (kata × approach) — x-order carries no meaning</text>
<circle cx="100.6" cy="431.6" r="2.6" fill="#3fb950" opacity="0.7"/>
<circle cx="107.7" cy="438.7" r="2.6" fill="#3fb950" opacity="0.7"/>
<circle cx="114.7" cy="435.8" r="2.6" fill="#3fb950" opacity="0.7"/>
<circle cx="121.7" cy="439.1" r="2.6" fill="#3fb950" opacity="0.7"/>
<circle cx="128.8" cy="434.2" r="2.6" fill="#3fb950" opacity="0.7"/>
<circle cx="135.8" cy="434.5" r="2.6" fill="#3fb950" opacity="0.7"/>
<circle cx="142.9" cy="435.8" r="2.6" fill="#3fb950" opacity="0.7"/>
<circle cx="149.9" cy="432.0" r="2.6" fill="#3fb950" opacity="0.7"/>
<circle cx="156.9" cy="431.7" r="2.6" fill="#3fb950" opacity="0.7"/>
<circle cx="164.0" cy="432.3" r="2.6" fill="#3fb950" opacity="0.7"/>
<circle cx="171.0" cy="432.1" r="2.6" fill="#3fb950" opacity="0.7"/>
<circle cx="178.0" cy="433.4" r="2.6" fill="#3fb950" opacity="0.7"/>
<circle cx="185.1" cy="433.0" r="2.6" fill="#3fb950" opacity="0.7"/>
<circle cx="192.1" cy="433.3" r="2.6" fill="#3fb950" opacity="0.7"/>
<circle cx="199.2" cy="434.3" r="2.6" fill="#3fb950" opacity="0.7"/>
<circle cx="206.2" cy="439.1" r="2.6" fill="#3fb950" opacity="0.7"/>
<circle cx="213.2" cy="438.8" r="2.6" fill="#3fb950" opacity="0.7"/>
<circle cx="220.3" cy="433.2" r="2.6" fill="#3fb950" opacity="0.7"/>
<circle cx="227.3" cy="439.4" r="2.6" fill="#3fb950" opacity="0.7"/>
<circle cx="234.3" cy="434.9" r="2.6" fill="#3fb950" opacity="0.7"/>
<circle cx="241.4" cy="432.1" r="2.6" fill="#3fb950" opacity="0.7"/>
<circle cx="248.4" cy="435.3" r="2.6" fill="#3fb950" opacity="0.7"/>
<circle cx="255.5" cy="432.8" r="2.6" fill="#3fb950" opacity="0.7"/>
<circle cx="262.5" cy="436.7" r="2.6" fill="#3fb950" opacity="0.7"/>
<circle cx="269.5" cy="434.7" r="2.6" fill="#3fb950" opacity="0.7"/>
<circle cx="276.6" cy="435.6" r="2.6" fill="#3fb950" opacity="0.7"/>
<circle cx="283.6" cy="433.8" r="2.6" fill="#3fb950" opacity="0.7"/>
<circle cx="290.6" cy="434.0" r="2.6" fill="#3fb950" opacity="0.7"/>
<circle cx="297.7" cy="431.9" r="2.6" fill="#3fb950" opacity="0.7"/>
<circle cx="304.7" cy="433.4" r="2.6" fill="#3fb950" opacity="0.7"/>
<circle cx="311.8" cy="430.6" r="2.6" fill="#3fb950" opacity="0.7"/>
<circle cx="318.8" cy="439.9" r="2.6" fill="#3fb950" opacity="0.7"/>
<circle cx="325.8" cy="431.0" r="2.6" fill="#3fb950" opacity="0.7"/>
<circle cx="332.9" cy="432.1" r="2.6" fill="#3fb950" opacity="0.7"/>
<circle cx="339.9" cy="431.8" r="2.6" fill="#3fb950" opacity="0.7"/>
<circle cx="346.9" cy="432.1" r="2.6" fill="#3fb950" opacity="0.7"/>
<circle cx="354.0" cy="431.8" r="2.6" fill="#3fb950" opacity="0.7"/>
<circle cx="361.0" cy="431.4" r="2.6" fill="#3fb950" opacity="0.7"/>
<circle cx="368.1" cy="431.9" r="2.6" fill="#3fb950" opacity="0.7"/>
<circle cx="375.1" cy="433.4" r="2.6" fill="#3fb950" opacity="0.7"/>
<circle cx="382.1" cy="434.1" r="2.6" fill="#3fb950" opacity="0.7"/>
<circle cx="389.2" cy="436.9" r="2.6" fill="#3fb950" opacity="0.7"/>
<circle cx="396.2" cy="433.4" r="2.6" fill="#3fb950" opacity="0.7"/>
<circle cx="403.2" cy="433.0" r="2.6" fill="#3fb950" opacity="0.7"/>
<circle cx="410.3" cy="435.6" r="2.6" fill="#3fb950" opacity="0.7"/>
<circle cx="417.3" cy="435.2" r="2.6" fill="#3fb950" opacity="0.7"/>
<circle cx="424.4" cy="433.8" r="2.6" fill="#3fb950" opacity="0.7"/>
<circle cx="431.4" cy="435.8" r="2.6" fill="#3fb950" opacity="0.7"/>
<circle cx="438.4" cy="439.5" r="2.6" fill="#3fb950" opacity="0.7"/>
<circle cx="445.5" cy="435.7" r="2.6" fill="#3fb950" opacity="0.7"/>
<circle cx="452.5" cy="443.0" r="2.6" fill="#3fb950" opacity="0.7"/>
<circle cx="459.6" cy="430.7" r="2.6" fill="#3fb950" opacity="0.7"/>
<circle cx="466.6" cy="431.2" r="2.6" fill="#3fb950" opacity="0.7"/>
<circle cx="473.6" cy="430.8" r="2.6" fill="#3fb950" opacity="0.7"/>
<circle cx="480.7" cy="429.6" r="2.6" fill="#3fb950" opacity="0.7"/>
<circle cx="487.7" cy="430.6" r="2.6" fill="#3fb950" opacity="0.7"/>
<circle cx="494.7" cy="431.8" r="2.6" fill="#3fb950" opacity="0.7"/>
<circle cx="501.8" cy="439.4" r="2.6" fill="#3fb950" opacity="0.7"/>
<circle cx="508.8" cy="435.4" r="2.6" fill="#3fb950" opacity="0.7"/>
<circle cx="515.9" cy="435.6" r="2.6" fill="#3fb950" opacity="0.7"/>
<circle cx="522.9" cy="435.9" r="2.6" fill="#3fb950" opacity="0.7"/>
<circle cx="529.9" cy="434.9" r="2.6" fill="#3fb950" opacity="0.7"/>
<circle cx="537.0" cy="433.4" r="2.6" fill="#3fb950" opacity="0.7"/>
<circle cx="544.0" cy="432.7" r="2.6" fill="#3fb950" opacity="0.7"/>
<circle cx="551.0" cy="433.1" r="2.6" fill="#3fb950" opacity="0.7"/>
<circle cx="558.1" cy="432.2" r="2.6" fill="#3fb950" opacity="0.7"/>
<circle cx="565.1" cy="430.5" r="2.6" fill="#3fb950" opacity="0.7"/>
<circle cx="572.2" cy="432.2" r="2.6" fill="#3fb950" opacity="0.7"/>
<circle cx="579.2" cy="429.8" r="2.6" fill="#3fb950" opacity="0.7"/>
<circle cx="586.2" cy="430.3" r="2.6" fill="#3fb950" opacity="0.7"/>
<circle cx="593.3" cy="436.2" r="2.6" fill="#3fb950" opacity="0.7"/>
<circle cx="600.3" cy="433.2" r="2.6" fill="#3fb950" opacity="0.7"/>
<circle cx="607.3" cy="434.8" r="2.6" fill="#3fb950" opacity="0.7"/>
<circle cx="614.4" cy="432.9" r="2.6" fill="#3fb950" opacity="0.7"/>
<circle cx="621.4" cy="431.7" r="2.6" fill="#3fb950" opacity="0.7"/>
<circle cx="628.5" cy="433.0" r="2.6" fill="#3fb950" opacity="0.7"/>
<circle cx="635.5" cy="432.4" r="2.6" fill="#3fb950" opacity="0.7"/>
<circle cx="642.5" cy="435.1" r="2.6" fill="#3fb950" opacity="0.7"/>
<circle cx="649.6" cy="433.7" r="2.6" fill="#3fb950" opacity="0.7"/>
<circle cx="656.6" cy="432.3" r="2.6" fill="#3fb950" opacity="0.7"/>
<circle cx="663.6" cy="434.8" r="2.6" fill="#3fb950" opacity="0.7"/>
<circle cx="670.7" cy="432.0" r="2.6" fill="#3fb950" opacity="0.7"/>
<circle cx="677.7" cy="432.5" r="2.6" fill="#3fb950" opacity="0.7"/>
<circle cx="684.8" cy="432.8" r="2.6" fill="#3fb950" opacity="0.7"/>
<circle cx="691.8" cy="432.8" r="2.6" fill="#3fb950" opacity="0.7"/>
<circle cx="698.8" cy="441.6" r="2.6" fill="#3fb950" opacity="0.7"/>
<circle cx="705.9" cy="432.2" r="2.6" fill="#3fb950" opacity="0.7"/>
<circle cx="712.9" cy="434.1" r="2.6" fill="#3fb950" opacity="0.7"/>
<circle cx="719.9" cy="435.5" r="2.6" fill="#3fb950" opacity="0.7"/>
<circle cx="727.0" cy="432.2" r="2.6" fill="#3fb950" opacity="0.7"/>
<circle cx="734.0" cy="437.2" r="2.6" fill="#3fb950" opacity="0.7"/>
<circle cx="741.1" cy="436.9" r="2.6" fill="#3fb950" opacity="0.7"/>
<circle cx="748.1" cy="434.6" r="2.6" fill="#3fb950" opacity="0.7"/>
<circle cx="755.1" cy="433.5" r="2.6" fill="#3fb950" opacity="0.7"/>
<circle cx="762.2" cy="434.4" r="2.6" fill="#3fb950" opacity="0.7"/>
<circle cx="769.2" cy="435.8" r="2.6" fill="#3fb950" opacity="0.7"/>
<circle cx="776.2" cy="438.9" r="2.6" fill="#3fb950" opacity="0.7"/>
<circle cx="783.3" cy="441.8" r="2.6" fill="#3fb950" opacity="0.7"/>
<circle cx="98.7" cy="330.2" r="3.2" fill="#ff922b" opacity="0.85"/>
<circle cx="105.8" cy="366.3" r="3.2" fill="#ff922b" opacity="0.85"/>
<circle cx="112.8" cy="348.3" r="3.2" fill="#ff922b" opacity="0.85"/>
<circle cx="119.8" cy="368.1" r="3.2" fill="#ff922b" opacity="0.85"/>
<circle cx="126.9" cy="338.7" r="3.2" fill="#ff922b" opacity="0.85"/>
<circle cx="133.9" cy="342.1" r="3.2" fill="#ff922b" opacity="0.85"/>
<circle cx="140.9" cy="344.6" r="3.2" fill="#ff922b" opacity="0.85"/>
<circle cx="148.0" cy="334.2" r="3.2" fill="#ff922b" opacity="0.85"/>
<circle cx="155.0" cy="327.6" r="3.2" fill="#ff922b" opacity="0.85"/>
<circle cx="162.1" cy="330.4" r="3.2" fill="#ff922b" opacity="0.85"/>
<circle cx="169.1" cy="325.6" r="3.2" fill="#ff922b" opacity="0.85"/>
<circle cx="176.1" cy="336.7" r="3.2" fill="#ff922b" opacity="0.85"/>
<circle cx="183.2" cy="325.6" r="3.2" fill="#ff922b" opacity="0.85"/>
<circle cx="190.2" cy="321.2" r="3.2" fill="#ff922b" opacity="0.85"/>
<circle cx="197.2" cy="336.9" r="3.2" fill="#ff922b" opacity="0.85"/>
<circle cx="204.3" cy="352.4" r="3.2" fill="#ff922b" opacity="0.85"/>
<circle cx="211.3" cy="354.1" r="3.2" fill="#ff922b" opacity="0.85"/>
<circle cx="218.4" cy="331.3" r="3.2" fill="#ff922b" opacity="0.85"/>
<circle cx="225.4" cy="340.2" r="3.2" fill="#ff922b" opacity="0.85"/>
<circle cx="232.4" cy="341.5" r="3.2" fill="#ff922b" opacity="0.85"/>
<circle cx="239.5" cy="330.6" r="3.2" fill="#ff922b" opacity="0.85"/>
<circle cx="246.5" cy="338.7" r="3.2" fill="#ff922b" opacity="0.85"/>
<circle cx="253.5" cy="336.2" r="3.2" fill="#ff922b" opacity="0.85"/>
<circle cx="260.6" cy="339.5" r="3.2" fill="#ff922b" opacity="0.85"/>
<circle cx="267.6" cy="341.0" r="3.2" fill="#ff922b" opacity="0.85"/>
<circle cx="274.7" cy="339.5" r="3.2" fill="#ff922b" opacity="0.85"/>
<circle cx="281.7" cy="340.1" r="3.2" fill="#ff922b" opacity="0.85"/>
<circle cx="288.7" cy="341.6" r="3.2" fill="#ff922b" opacity="0.85"/>
<circle cx="295.8" cy="331.3" r="3.2" fill="#ff922b" opacity="0.85"/>
<circle cx="302.8" cy="334.9" r="3.2" fill="#ff922b" opacity="0.85"/>
<circle cx="309.8" cy="328.8" r="3.2" fill="#ff922b" opacity="0.85"/>
<circle cx="316.9" cy="358.6" r="3.2" fill="#ff922b" opacity="0.85"/>
<circle cx="323.9" cy="325.4" r="3.2" fill="#ff922b" opacity="0.85"/>
<circle cx="331.0" cy="330.5" r="3.2" fill="#ff922b" opacity="0.85"/>
<circle cx="338.0" cy="332.9" r="3.2" fill="#ff922b" opacity="0.85"/>
<circle cx="345.0" cy="331.8" r="3.2" fill="#ff922b" opacity="0.85"/>
<circle cx="352.1" cy="332.5" r="3.2" fill="#ff922b" opacity="0.85"/>
<circle cx="359.1" cy="290.0" r="3.2" fill="#ff922b" opacity="0.85"/>
<circle cx="366.1" cy="308.0" r="3.2" fill="#ff922b" opacity="0.85"/>
<circle cx="373.2" cy="332.6" r="3.2" fill="#ff922b" opacity="0.85"/>
<circle cx="380.2" cy="336.9" r="3.2" fill="#ff922b" opacity="0.85"/>
<circle cx="387.3" cy="346.4" r="3.2" fill="#ff922b" opacity="0.85"/>
<circle cx="394.3" cy="337.1" r="3.2" fill="#ff922b" opacity="0.85"/>
<circle cx="401.3" cy="335.6" r="3.2" fill="#ff922b" opacity="0.85"/>
<circle cx="408.4" cy="334.7" r="3.2" fill="#ff922b" opacity="0.85"/>
<circle cx="415.4" cy="344.1" r="3.2" fill="#ff922b" opacity="0.85"/>
<circle cx="422.4" cy="339.7" r="3.2" fill="#ff922b" opacity="0.85"/>
<circle cx="429.5" cy="344.1" r="3.2" fill="#ff922b" opacity="0.85"/>
<circle cx="436.5" cy="361.9" r="3.2" fill="#ff922b" opacity="0.85"/>
<circle cx="443.6" cy="298.5" r="3.2" fill="#ff922b" opacity="0.85"/>
<circle cx="450.6" cy="360.2" r="3.2" fill="#ff922b" opacity="0.85"/>
<circle cx="457.6" cy="274.7" r="3.2" fill="#ff922b" opacity="0.85"/>
<circle cx="464.7" cy="269.5" r="3.2" fill="#ff922b" opacity="0.85"/>
<circle cx="471.7" cy="265.6" r="3.2" fill="#ff922b" opacity="0.85"/>
<circle cx="478.8" cy="261.5" r="3.2" fill="#ff922b" opacity="0.85"/>
<circle cx="485.8" cy="254.2" r="3.2" fill="#ff922b" opacity="0.85"/>
<circle cx="492.8" cy="281.4" r="3.2" fill="#ff922b" opacity="0.85"/>
<circle cx="499.9" cy="365.0" r="3.2" fill="#ff922b" opacity="0.85"/>
<circle cx="506.9" cy="291.7" r="3.2" fill="#ff922b" opacity="0.85"/>
<circle cx="513.9" cy="289.6" r="3.2" fill="#ff922b" opacity="0.85"/>
<circle cx="521.0" cy="290.8" r="3.2" fill="#ff922b" opacity="0.85"/>
<circle cx="528.0" cy="286.2" r="3.2" fill="#ff922b" opacity="0.85"/>
<circle cx="535.1" cy="292.3" r="3.2" fill="#ff922b" opacity="0.85"/>
<circle cx="542.1" cy="281.6" r="3.2" fill="#ff922b" opacity="0.85"/>
<circle cx="549.1" cy="280.7" r="3.2" fill="#ff922b" opacity="0.85"/>
<circle cx="556.2" cy="327.4" r="3.2" fill="#ff922b" opacity="0.85"/>
<circle cx="563.2" cy="265.6" r="3.2" fill="#ff922b" opacity="0.85"/>
<circle cx="570.2" cy="242.3" r="3.2" fill="#ff922b" opacity="0.85"/>
<circle cx="577.3" cy="263.3" r="3.2" fill="#ff922b" opacity="0.85"/>
<circle cx="584.3" cy="265.9" r="3.2" fill="#ff922b" opacity="0.85"/>
<circle cx="591.4" cy="344.1" r="3.2" fill="#ff922b" opacity="0.85"/>
<circle cx="598.4" cy="277.5" r="3.2" fill="#ff922b" opacity="0.85"/>
<circle cx="605.4" cy="278.4" r="3.2" fill="#ff922b" opacity="0.85"/>
<circle cx="612.5" cy="277.6" r="3.2" fill="#ff922b" opacity="0.85"/>
<circle cx="619.5" cy="274.3" r="3.2" fill="#ff922b" opacity="0.85"/>
<circle cx="626.5" cy="268.2" r="3.2" fill="#ff922b" opacity="0.85"/>
<circle cx="633.6" cy="276.1" r="3.2" fill="#ff922b" opacity="0.85"/>
<circle cx="640.6" cy="293.5" r="3.2" fill="#ff922b" opacity="0.85"/>
<circle cx="647.7" cy="284.3" r="3.2" fill="#ff922b" opacity="0.85"/>
<circle cx="654.7" cy="277.2" r="3.2" fill="#ff922b" opacity="0.85"/>
<circle cx="661.7" cy="345.4" r="3.2" fill="#ff922b" opacity="0.85"/>
<circle cx="668.8" cy="334.0" r="3.2" fill="#ff922b" opacity="0.85"/>
<circle cx="675.8" cy="269.7" r="3.2" fill="#ff922b" opacity="0.85"/>
<circle cx="682.8" cy="338.4" r="3.2" fill="#ff922b" opacity="0.85"/>
<circle cx="689.9" cy="333.2" r="3.2" fill="#ff922b" opacity="0.85"/>
<circle cx="696.9" cy="375.2" r="3.2" fill="#ff922b" opacity="0.85"/>
<circle cx="704.0" cy="334.3" r="3.2" fill="#ff922b" opacity="0.85"/>
<circle cx="711.0" cy="341.6" r="3.2" fill="#ff922b" opacity="0.85"/>
<circle cx="718.0" cy="346.9" r="3.2" fill="#ff922b" opacity="0.85"/>
<circle cx="725.1" cy="334.4" r="3.2" fill="#ff922b" opacity="0.85"/>
<circle cx="732.1" cy="349.7" r="3.2" fill="#ff922b" opacity="0.85"/>
<circle cx="739.1" cy="349.7" r="3.2" fill="#ff922b" opacity="0.85"/>
<circle cx="746.2" cy="338.7" r="3.2" fill="#ff922b" opacity="0.85"/>
<circle cx="753.2" cy="338.7" r="3.2" fill="#ff922b" opacity="0.85"/>
<circle cx="760.3" cy="332.4" r="3.2" fill="#ff922b" opacity="0.85"/>
<circle cx="767.3" cy="336.4" r="3.2" fill="#ff922b" opacity="0.85"/>
<circle cx="774.3" cy="367.4" r="3.2" fill="#ff922b" opacity="0.85"/>
<circle cx="781.4" cy="370.7" r="3.2" fill="#ff922b" opacity="0.85"/>
<circle cx="847" cy="84" r="5" fill="#ff922b"/>
<text x="866" y="88" font-size="13" fill="#c9d1d9" font-weight="700">Kāra</text>
<line x1="836" y1="108" x2="858" y2="108" stroke="#a7b0bc" stroke-width="2" stroke-dasharray="5 4"/>
<text x="866" y="112" font-size="13" fill="#c9d1d9" font-weight="400">Rust = 1.0×</text>
<circle cx="847" cy="132" r="4" fill="#3fb950"/>
<text x="866" y="136" font-size="13" fill="#c9d1d9" font-weight="400">C</text>
<text x="70" y="538" font-size="11.5" fill="#8b949e">Each dot is one benchmarked program (kata × approach); there is no connecting line because left-to-right order is not meaningful. Raw numbers: bench-results.json</text>
</svg>