<svg xmlns="http://www.w3.org/2000/svg" width="980" height="560" viewBox="0 0 980 560" font-family="-apple-system,Segoe UI,Helvetica,Arial,sans-serif">
<rect width="980" height="560" fill="#282c34"/>
<text x="70" y="34" font-size="21" font-weight="700" fill="#c9d1d9">Compile peak memory (cold)</text>
<text x="70" y="56" font-size="13" fill="#8b949e">relative to Rust = 1.0 · lower = leaner · 47 programs</text>
<line x1="70" y1="456.0" x2="812" y2="456.0" stroke="#3b414b" stroke-width="1"/>
<text x="60" y="460.0" font-size="12" text-anchor="end" fill="#8b949e">0.0×</text>
<line x1="70" y1="330.0" x2="812" y2="330.0" stroke="#3b414b" stroke-width="1"/>
<text x="60" y="334.0" font-size="12" text-anchor="end" fill="#8b949e">0.5×</text>
<line x1="70" y1="204.0" x2="812" y2="204.0" stroke="#a7b0bc" stroke-width="2" stroke-dasharray="5 4"/>
<text x="60" y="208.0" font-size="12" text-anchor="end" fill="#aeb6c0" font-weight="700">1.0×</text>
<line x1="70" y1="78.0" x2="812" y2="78.0" stroke="#3b414b" stroke-width="1"/>
<text x="60" y="82.0" font-size="12" text-anchor="end" fill="#8b949e">1.5×</text>
<text x="812" y="198.0" font-size="11" text-anchor="end" fill="#aeb6c0">Rust baseline</text>
<line x1="70" y1="456" x2="812" y2="456" stroke="#3b414b"/>
<text x="441.0" y="478" font-size="11" text-anchor="middle" fill="#8b949e">47 programs (kata × approach) — x-order carries no meaning</text>
<circle cx="101.7" cy="431.6" r="2.6" fill="#3fb950" opacity="0.7"/>
<circle cx="116.5" cy="438.7" r="2.6" fill="#3fb950" opacity="0.7"/>
<circle cx="131.3" cy="436.1" r="2.6" fill="#3fb950" opacity="0.7"/>
<circle cx="146.2" cy="438.9" r="2.6" fill="#3fb950" opacity="0.7"/>
<circle cx="161.0" cy="433.7" r="2.6" fill="#3fb950" opacity="0.7"/>
<circle cx="175.9" cy="434.6" r="2.6" fill="#3fb950" opacity="0.7"/>
<circle cx="190.7" cy="435.8" r="2.6" fill="#3fb950" opacity="0.7"/>
<circle cx="205.5" cy="431.9" r="2.6" fill="#3fb950" opacity="0.7"/>
<circle cx="220.4" cy="431.3" r="2.6" fill="#3fb950" opacity="0.7"/>
<circle cx="235.2" cy="432.3" r="2.6" fill="#3fb950" opacity="0.7"/>
<circle cx="250.1" cy="432.1" r="2.6" fill="#3fb950" opacity="0.7"/>
<circle cx="264.9" cy="432.8" r="2.6" fill="#3fb950" opacity="0.7"/>
<circle cx="279.7" cy="433.1" r="2.6" fill="#3fb950" opacity="0.7"/>
<circle cx="294.6" cy="433.4" r="2.6" fill="#3fb950" opacity="0.7"/>
<circle cx="309.4" cy="434.2" r="2.6" fill="#3fb950" opacity="0.7"/>
<circle cx="324.3" cy="439.2" r="2.6" fill="#3fb950" opacity="0.7"/>
<circle cx="339.1" cy="438.7" r="2.6" fill="#3fb950" opacity="0.7"/>
<circle cx="353.9" cy="433.4" r="2.6" fill="#3fb950" opacity="0.7"/>
<circle cx="368.8" cy="439.6" r="2.6" fill="#3fb950" opacity="0.7"/>
<circle cx="383.6" cy="435.1" r="2.6" fill="#3fb950" opacity="0.7"/>
<circle cx="398.5" cy="432.1" r="2.6" fill="#3fb950" opacity="0.7"/>
<circle cx="413.3" cy="435.3" r="2.6" fill="#3fb950" opacity="0.7"/>
<circle cx="428.1" cy="432.8" r="2.6" fill="#3fb950" opacity="0.7"/>
<circle cx="443.0" cy="436.7" r="2.6" fill="#3fb950" opacity="0.7"/>
<circle cx="457.8" cy="434.3" r="2.6" fill="#3fb950" opacity="0.7"/>
<circle cx="472.7" cy="435.9" r="2.6" fill="#3fb950" opacity="0.7"/>
<circle cx="487.5" cy="434.2" r="2.6" fill="#3fb950" opacity="0.7"/>
<circle cx="502.3" cy="434.1" r="2.6" fill="#3fb950" opacity="0.7"/>
<circle cx="517.2" cy="432.3" r="2.6" fill="#3fb950" opacity="0.7"/>
<circle cx="532.0" cy="433.7" r="2.6" fill="#3fb950" opacity="0.7"/>
<circle cx="546.9" cy="430.7" r="2.6" fill="#3fb950" opacity="0.7"/>
<circle cx="561.7" cy="440.2" r="2.6" fill="#3fb950" opacity="0.7"/>
<circle cx="576.5" cy="440.0" r="2.6" fill="#3fb950" opacity="0.7"/>
<circle cx="591.4" cy="432.4" r="2.6" fill="#3fb950" opacity="0.7"/>
<circle cx="606.2" cy="436.2" r="2.6" fill="#3fb950" opacity="0.7"/>
<circle cx="621.1" cy="434.8" r="2.6" fill="#3fb950" opacity="0.7"/>
<circle cx="635.9" cy="432.4" r="2.6" fill="#3fb950" opacity="0.7"/>
<circle cx="650.7" cy="433.5" r="2.6" fill="#3fb950" opacity="0.7"/>
<circle cx="665.6" cy="441.5" r="2.6" fill="#3fb950" opacity="0.7"/>
<circle cx="680.4" cy="432.3" r="2.6" fill="#3fb950" opacity="0.7"/>
<circle cx="695.3" cy="433.7" r="2.6" fill="#3fb950" opacity="0.7"/>
<circle cx="710.1" cy="431.6" r="2.6" fill="#3fb950" opacity="0.7"/>
<circle cx="724.9" cy="437.3" r="2.6" fill="#3fb950" opacity="0.7"/>
<circle cx="739.8" cy="437.2" r="2.6" fill="#3fb950" opacity="0.7"/>
<circle cx="754.6" cy="436.0" r="2.6" fill="#3fb950" opacity="0.7"/>
<circle cx="769.5" cy="439.3" r="2.6" fill="#3fb950" opacity="0.7"/>
<circle cx="784.3" cy="442.0" r="2.6" fill="#3fb950" opacity="0.7"/>
<circle cx="97.7" cy="366.0" r="3.2" fill="#ff922b" opacity="0.85"/>
<circle cx="112.5" cy="389.9" r="3.2" fill="#ff922b" opacity="0.85"/>
<circle cx="127.4" cy="360.5" r="3.2" fill="#ff922b" opacity="0.85"/>
<circle cx="142.2" cy="388.6" r="3.2" fill="#ff922b" opacity="0.85"/>
<circle cx="157.1" cy="368.1" r="3.2" fill="#ff922b" opacity="0.85"/>
<circle cx="171.9" cy="358.0" r="3.2" fill="#ff922b" opacity="0.85"/>
<circle cx="186.7" cy="358.8" r="3.2" fill="#ff922b" opacity="0.85"/>
<circle cx="201.6" cy="362.4" r="3.2" fill="#ff922b" opacity="0.85"/>
<circle cx="216.4" cy="358.1" r="3.2" fill="#ff922b" opacity="0.85"/>
<circle cx="231.3" cy="361.4" r="3.2" fill="#ff922b" opacity="0.85"/>
<circle cx="246.1" cy="358.7" r="3.2" fill="#ff922b" opacity="0.85"/>
<circle cx="260.9" cy="367.7" r="3.2" fill="#ff922b" opacity="0.85"/>
<circle cx="275.8" cy="351.0" r="3.2" fill="#ff922b" opacity="0.85"/>
<circle cx="290.6" cy="348.8" r="3.2" fill="#ff922b" opacity="0.85"/>
<circle cx="305.5" cy="360.8" r="3.2" fill="#ff922b" opacity="0.85"/>
<circle cx="320.3" cy="381.2" r="3.2" fill="#ff922b" opacity="0.85"/>
<circle cx="335.1" cy="384.5" r="3.2" fill="#ff922b" opacity="0.85"/>
<circle cx="350.0" cy="359.0" r="3.2" fill="#ff922b" opacity="0.85"/>
<circle cx="364.8" cy="378.4" r="3.2" fill="#ff922b" opacity="0.85"/>
<circle cx="379.7" cy="370.7" r="3.2" fill="#ff922b" opacity="0.85"/>
<circle cx="394.5" cy="358.2" r="3.2" fill="#ff922b" opacity="0.85"/>
<circle cx="409.3" cy="352.0" r="3.2" fill="#ff922b" opacity="0.85"/>
<circle cx="424.2" cy="344.2" r="3.2" fill="#ff922b" opacity="0.85"/>
<circle cx="439.0" cy="350.5" r="3.2" fill="#ff922b" opacity="0.85"/>
<circle cx="453.9" cy="347.7" r="3.2" fill="#ff922b" opacity="0.85"/>
<circle cx="468.7" cy="348.4" r="3.2" fill="#ff922b" opacity="0.85"/>
<circle cx="483.5" cy="349.9" r="3.2" fill="#ff922b" opacity="0.85"/>
<circle cx="498.4" cy="347.8" r="3.2" fill="#ff922b" opacity="0.85"/>
<circle cx="513.2" cy="341.8" r="3.2" fill="#ff922b" opacity="0.85"/>
<circle cx="528.1" cy="345.3" r="3.2" fill="#ff922b" opacity="0.85"/>
<circle cx="542.9" cy="334.2" r="3.2" fill="#ff922b" opacity="0.85"/>
<circle cx="557.7" cy="363.1" r="3.2" fill="#ff922b" opacity="0.85"/>
<circle cx="572.6" cy="387.4" r="3.2" fill="#ff922b" opacity="0.85"/>
<circle cx="587.4" cy="357.9" r="3.2" fill="#ff922b" opacity="0.85"/>
<circle cx="602.3" cy="368.7" r="3.2" fill="#ff922b" opacity="0.85"/>
<circle cx="617.1" cy="358.0" r="3.2" fill="#ff922b" opacity="0.85"/>
<circle cx="631.9" cy="365.4" r="3.2" fill="#ff922b" opacity="0.85"/>
<circle cx="646.8" cy="368.5" r="3.2" fill="#ff922b" opacity="0.85"/>
<circle cx="661.6" cy="383.5" r="3.2" fill="#ff922b" opacity="0.85"/>
<circle cx="676.5" cy="367.2" r="3.2" fill="#ff922b" opacity="0.85"/>
<circle cx="691.3" cy="361.1" r="3.2" fill="#ff922b" opacity="0.85"/>
<circle cx="706.1" cy="362.8" r="3.2" fill="#ff922b" opacity="0.85"/>
<circle cx="721.0" cy="377.6" r="3.2" fill="#ff922b" opacity="0.85"/>
<circle cx="735.8" cy="379.0" r="3.2" fill="#ff922b" opacity="0.85"/>
<circle cx="750.7" cy="336.8" r="3.2" fill="#ff922b" opacity="0.85"/>
<circle cx="765.5" cy="390.3" r="3.2" fill="#ff922b" opacity="0.85"/>
<circle cx="780.3" cy="391.2" r="3.2" fill="#ff922b" opacity="0.85"/>
<circle cx="847" cy="84" r="5" fill="#ff922b"/>
<text x="866" y="88" font-size="13" fill="#c9d1d9" font-weight="700">Kāra</text>
<line x1="836" y1="108" x2="858" y2="108" stroke="#a7b0bc" stroke-width="2" stroke-dasharray="5 4"/>
<text x="866" y="112" font-size="13" fill="#c9d1d9" font-weight="400">Rust = 1.0×</text>
<circle cx="847" cy="132" r="4" fill="#3fb950"/>
<text x="866" y="136" font-size="13" fill="#c9d1d9" font-weight="400">C</text>
<text x="70" y="538" font-size="11.5" fill="#8b949e">Each dot is one benchmarked program (kata × approach); there is no connecting line because left-to-right order is not meaningful. Raw numbers: bench-results.json</text>
</svg>