<svg xmlns="http://www.w3.org/2000/svg" width="980" height="560" viewBox="0 0 980 560" font-family="-apple-system,Segoe UI,Helvetica,Arial,sans-serif">
<rect width="980" height="560" fill="#282c34"/>
<text x="70" y="34" font-size="21" font-weight="700" fill="#c9d1d9">Compile peak memory (cold)</text>
<text x="70" y="56" font-size="13" fill="#8b949e">relative to Rust = 1.0 · lower = leaner · 106 programs</text>
<line x1="70" y1="456.0" x2="812" y2="456.0" stroke="#3b414b" stroke-width="1"/>
<text x="60" y="460.0" font-size="12" text-anchor="end" fill="#8b949e">0.0×</text>
<line x1="70" y1="330.0" x2="812" y2="330.0" stroke="#3b414b" stroke-width="1"/>
<text x="60" y="334.0" font-size="12" text-anchor="end" fill="#8b949e">0.5×</text>
<line x1="70" y1="204.0" x2="812" y2="204.0" stroke="#a7b0bc" stroke-width="2" stroke-dasharray="5 4"/>
<text x="60" y="208.0" font-size="12" text-anchor="end" fill="#aeb6c0" font-weight="700">1.0×</text>
<line x1="70" y1="78.0" x2="812" y2="78.0" stroke="#3b414b" stroke-width="1"/>
<text x="60" y="82.0" font-size="12" text-anchor="end" fill="#8b949e">1.5×</text>
<text x="812" y="198.0" font-size="11" text-anchor="end" fill="#aeb6c0">Rust baseline</text>
<line x1="70" y1="456" x2="812" y2="456" stroke="#3b414b"/>
<text x="441.0" y="478" font-size="11" text-anchor="middle" fill="#8b949e">106 programs (kata × approach) — x-order carries no meaning</text>
<circle cx="100.6" cy="431.6" r="2.6" fill="#3fb950" opacity="0.7"/>
<circle cx="107.1" cy="438.7" r="2.6" fill="#3fb950" opacity="0.7"/>
<circle cx="113.6" cy="435.8" r="2.6" fill="#3fb950" opacity="0.7"/>
<circle cx="120.1" cy="439.1" r="2.6" fill="#3fb950" opacity="0.7"/>
<circle cx="126.6" cy="434.2" r="2.6" fill="#3fb950" opacity="0.7"/>
<circle cx="133.1" cy="434.5" r="2.6" fill="#3fb950" opacity="0.7"/>
<circle cx="139.6" cy="435.8" r="2.6" fill="#3fb950" opacity="0.7"/>
<circle cx="146.1" cy="432.0" r="2.6" fill="#3fb950" opacity="0.7"/>
<circle cx="152.6" cy="431.7" r="2.6" fill="#3fb950" opacity="0.7"/>
<circle cx="159.1" cy="432.3" r="2.6" fill="#3fb950" opacity="0.7"/>
<circle cx="165.6" cy="432.1" r="2.6" fill="#3fb950" opacity="0.7"/>
<circle cx="172.1" cy="433.4" r="2.6" fill="#3fb950" opacity="0.7"/>
<circle cx="178.6" cy="433.0" r="2.6" fill="#3fb950" opacity="0.7"/>
<circle cx="185.1" cy="433.3" r="2.6" fill="#3fb950" opacity="0.7"/>
<circle cx="191.6" cy="434.3" r="2.6" fill="#3fb950" opacity="0.7"/>
<circle cx="198.1" cy="439.1" r="2.6" fill="#3fb950" opacity="0.7"/>
<circle cx="204.6" cy="438.8" r="2.6" fill="#3fb950" opacity="0.7"/>
<circle cx="211.1" cy="433.2" r="2.6" fill="#3fb950" opacity="0.7"/>
<circle cx="217.6" cy="439.4" r="2.6" fill="#3fb950" opacity="0.7"/>
<circle cx="224.1" cy="434.9" r="2.6" fill="#3fb950" opacity="0.7"/>
<circle cx="230.6" cy="432.1" r="2.6" fill="#3fb950" opacity="0.7"/>
<circle cx="237.1" cy="435.3" r="2.6" fill="#3fb950" opacity="0.7"/>
<circle cx="243.6" cy="432.8" r="2.6" fill="#3fb950" opacity="0.7"/>
<circle cx="250.1" cy="436.7" r="2.6" fill="#3fb950" opacity="0.7"/>
<circle cx="256.6" cy="434.7" r="2.6" fill="#3fb950" opacity="0.7"/>
<circle cx="263.1" cy="435.6" r="2.6" fill="#3fb950" opacity="0.7"/>
<circle cx="269.6" cy="433.8" r="2.6" fill="#3fb950" opacity="0.7"/>
<circle cx="276.1" cy="434.0" r="2.6" fill="#3fb950" opacity="0.7"/>
<circle cx="282.6" cy="431.9" r="2.6" fill="#3fb950" opacity="0.7"/>
<circle cx="289.1" cy="433.4" r="2.6" fill="#3fb950" opacity="0.7"/>
<circle cx="295.6" cy="430.6" r="2.6" fill="#3fb950" opacity="0.7"/>
<circle cx="302.1" cy="439.9" r="2.6" fill="#3fb950" opacity="0.7"/>
<circle cx="308.6" cy="431.0" r="2.6" fill="#3fb950" opacity="0.7"/>
<circle cx="315.1" cy="432.1" r="2.6" fill="#3fb950" opacity="0.7"/>
<circle cx="321.6" cy="431.8" r="2.6" fill="#3fb950" opacity="0.7"/>
<circle cx="328.1" cy="432.1" r="2.6" fill="#3fb950" opacity="0.7"/>
<circle cx="334.6" cy="431.8" r="2.6" fill="#3fb950" opacity="0.7"/>
<circle cx="341.1" cy="431.4" r="2.6" fill="#3fb950" opacity="0.7"/>
<circle cx="347.6" cy="431.9" r="2.6" fill="#3fb950" opacity="0.7"/>
<circle cx="354.1" cy="433.4" r="2.6" fill="#3fb950" opacity="0.7"/>
<circle cx="360.6" cy="434.1" r="2.6" fill="#3fb950" opacity="0.7"/>
<circle cx="367.1" cy="436.9" r="2.6" fill="#3fb950" opacity="0.7"/>
<circle cx="373.6" cy="433.4" r="2.6" fill="#3fb950" opacity="0.7"/>
<circle cx="380.1" cy="433.0" r="2.6" fill="#3fb950" opacity="0.7"/>
<circle cx="386.6" cy="435.6" r="2.6" fill="#3fb950" opacity="0.7"/>
<circle cx="393.1" cy="435.2" r="2.6" fill="#3fb950" opacity="0.7"/>
<circle cx="399.6" cy="433.8" r="2.6" fill="#3fb950" opacity="0.7"/>
<circle cx="406.1" cy="435.8" r="2.6" fill="#3fb950" opacity="0.7"/>
<circle cx="412.6" cy="439.5" r="2.6" fill="#3fb950" opacity="0.7"/>
<circle cx="419.1" cy="435.7" r="2.6" fill="#3fb950" opacity="0.7"/>
<circle cx="425.6" cy="443.0" r="2.6" fill="#3fb950" opacity="0.7"/>
<circle cx="432.1" cy="430.7" r="2.6" fill="#3fb950" opacity="0.7"/>
<circle cx="438.6" cy="431.2" r="2.6" fill="#3fb950" opacity="0.7"/>
<circle cx="445.1" cy="430.8" r="2.6" fill="#3fb950" opacity="0.7"/>
<circle cx="451.6" cy="429.6" r="2.6" fill="#3fb950" opacity="0.7"/>
<circle cx="458.1" cy="430.6" r="2.6" fill="#3fb950" opacity="0.7"/>
<circle cx="464.6" cy="431.8" r="2.6" fill="#3fb950" opacity="0.7"/>
<circle cx="471.1" cy="439.4" r="2.6" fill="#3fb950" opacity="0.7"/>
<circle cx="477.6" cy="435.4" r="2.6" fill="#3fb950" opacity="0.7"/>
<circle cx="484.1" cy="435.6" r="2.6" fill="#3fb950" opacity="0.7"/>
<circle cx="490.6" cy="435.9" r="2.6" fill="#3fb950" opacity="0.7"/>
<circle cx="497.1" cy="434.9" r="2.6" fill="#3fb950" opacity="0.7"/>
<circle cx="503.6" cy="433.4" r="2.6" fill="#3fb950" opacity="0.7"/>
<circle cx="510.1" cy="432.7" r="2.6" fill="#3fb950" opacity="0.7"/>
<circle cx="516.6" cy="433.1" r="2.6" fill="#3fb950" opacity="0.7"/>
<circle cx="523.1" cy="432.2" r="2.6" fill="#3fb950" opacity="0.7"/>
<circle cx="529.7" cy="430.5" r="2.6" fill="#3fb950" opacity="0.7"/>
<circle cx="536.2" cy="432.2" r="2.6" fill="#3fb950" opacity="0.7"/>
<circle cx="542.7" cy="429.8" r="2.6" fill="#3fb950" opacity="0.7"/>
<circle cx="549.2" cy="430.3" r="2.6" fill="#3fb950" opacity="0.7"/>
<circle cx="555.7" cy="436.2" r="2.6" fill="#3fb950" opacity="0.7"/>
<circle cx="562.2" cy="433.2" r="2.6" fill="#3fb950" opacity="0.7"/>
<circle cx="568.7" cy="434.8" r="2.6" fill="#3fb950" opacity="0.7"/>
<circle cx="575.2" cy="432.9" r="2.6" fill="#3fb950" opacity="0.7"/>
<circle cx="581.7" cy="431.7" r="2.6" fill="#3fb950" opacity="0.7"/>
<circle cx="588.2" cy="433.0" r="2.6" fill="#3fb950" opacity="0.7"/>
<circle cx="594.7" cy="432.4" r="2.6" fill="#3fb950" opacity="0.7"/>
<circle cx="601.2" cy="435.1" r="2.6" fill="#3fb950" opacity="0.7"/>
<circle cx="607.7" cy="433.7" r="2.6" fill="#3fb950" opacity="0.7"/>
<circle cx="614.2" cy="432.3" r="2.6" fill="#3fb950" opacity="0.7"/>
<circle cx="620.7" cy="432.5" r="2.6" fill="#3fb950" opacity="0.7"/>
<circle cx="627.2" cy="435.6" r="2.6" fill="#3fb950" opacity="0.7"/>
<circle cx="633.7" cy="434.9" r="2.6" fill="#3fb950" opacity="0.7"/>
<circle cx="640.2" cy="432.9" r="2.6" fill="#3fb950" opacity="0.7"/>
<circle cx="646.7" cy="434.7" r="2.6" fill="#3fb950" opacity="0.7"/>
<circle cx="653.2" cy="434.9" r="2.6" fill="#3fb950" opacity="0.7"/>
<circle cx="659.7" cy="434.8" r="2.6" fill="#3fb950" opacity="0.7"/>
<circle cx="666.2" cy="430.1" r="2.6" fill="#3fb950" opacity="0.7"/>
<circle cx="672.7" cy="433.4" r="2.6" fill="#3fb950" opacity="0.7"/>
<circle cx="679.2" cy="432.0" r="2.6" fill="#3fb950" opacity="0.7"/>
<circle cx="685.7" cy="432.5" r="2.6" fill="#3fb950" opacity="0.7"/>
<circle cx="692.2" cy="432.8" r="2.6" fill="#3fb950" opacity="0.7"/>
<circle cx="698.7" cy="432.8" r="2.6" fill="#3fb950" opacity="0.7"/>
<circle cx="705.2" cy="441.6" r="2.6" fill="#3fb950" opacity="0.7"/>
<circle cx="711.7" cy="432.2" r="2.6" fill="#3fb950" opacity="0.7"/>
<circle cx="718.2" cy="434.1" r="2.6" fill="#3fb950" opacity="0.7"/>
<circle cx="724.7" cy="435.5" r="2.6" fill="#3fb950" opacity="0.7"/>
<circle cx="731.2" cy="432.2" r="2.6" fill="#3fb950" opacity="0.7"/>
<circle cx="737.7" cy="437.2" r="2.6" fill="#3fb950" opacity="0.7"/>
<circle cx="744.2" cy="436.9" r="2.6" fill="#3fb950" opacity="0.7"/>
<circle cx="750.7" cy="434.6" r="2.6" fill="#3fb950" opacity="0.7"/>
<circle cx="757.2" cy="433.5" r="2.6" fill="#3fb950" opacity="0.7"/>
<circle cx="763.7" cy="434.4" r="2.6" fill="#3fb950" opacity="0.7"/>
<circle cx="770.2" cy="435.8" r="2.6" fill="#3fb950" opacity="0.7"/>
<circle cx="776.7" cy="438.9" r="2.6" fill="#3fb950" opacity="0.7"/>
<circle cx="783.2" cy="441.8" r="2.6" fill="#3fb950" opacity="0.7"/>
<circle cx="98.8" cy="330.2" r="3.2" fill="#ff922b" opacity="0.85"/>
<circle cx="105.3" cy="366.3" r="3.2" fill="#ff922b" opacity="0.85"/>
<circle cx="111.8" cy="348.3" r="3.2" fill="#ff922b" opacity="0.85"/>
<circle cx="118.3" cy="368.1" r="3.2" fill="#ff922b" opacity="0.85"/>
<circle cx="124.8" cy="338.7" r="3.2" fill="#ff922b" opacity="0.85"/>
<circle cx="131.3" cy="342.1" r="3.2" fill="#ff922b" opacity="0.85"/>
<circle cx="137.8" cy="344.6" r="3.2" fill="#ff922b" opacity="0.85"/>
<circle cx="144.3" cy="334.2" r="3.2" fill="#ff922b" opacity="0.85"/>
<circle cx="150.8" cy="327.6" r="3.2" fill="#ff922b" opacity="0.85"/>
<circle cx="157.3" cy="330.4" r="3.2" fill="#ff922b" opacity="0.85"/>
<circle cx="163.8" cy="325.6" r="3.2" fill="#ff922b" opacity="0.85"/>
<circle cx="170.3" cy="336.7" r="3.2" fill="#ff922b" opacity="0.85"/>
<circle cx="176.8" cy="325.6" r="3.2" fill="#ff922b" opacity="0.85"/>
<circle cx="183.3" cy="321.2" r="3.2" fill="#ff922b" opacity="0.85"/>
<circle cx="189.8" cy="336.9" r="3.2" fill="#ff922b" opacity="0.85"/>
<circle cx="196.3" cy="352.4" r="3.2" fill="#ff922b" opacity="0.85"/>
<circle cx="202.8" cy="354.1" r="3.2" fill="#ff922b" opacity="0.85"/>
<circle cx="209.3" cy="331.3" r="3.2" fill="#ff922b" opacity="0.85"/>
<circle cx="215.8" cy="340.2" r="3.2" fill="#ff922b" opacity="0.85"/>
<circle cx="222.3" cy="341.5" r="3.2" fill="#ff922b" opacity="0.85"/>
<circle cx="228.8" cy="330.6" r="3.2" fill="#ff922b" opacity="0.85"/>
<circle cx="235.3" cy="338.7" r="3.2" fill="#ff922b" opacity="0.85"/>
<circle cx="241.8" cy="336.2" r="3.2" fill="#ff922b" opacity="0.85"/>
<circle cx="248.3" cy="339.5" r="3.2" fill="#ff922b" opacity="0.85"/>
<circle cx="254.8" cy="341.0" r="3.2" fill="#ff922b" opacity="0.85"/>
<circle cx="261.3" cy="339.5" r="3.2" fill="#ff922b" opacity="0.85"/>
<circle cx="267.8" cy="340.1" r="3.2" fill="#ff922b" opacity="0.85"/>
<circle cx="274.3" cy="341.6" r="3.2" fill="#ff922b" opacity="0.85"/>
<circle cx="280.8" cy="331.3" r="3.2" fill="#ff922b" opacity="0.85"/>
<circle cx="287.3" cy="334.9" r="3.2" fill="#ff922b" opacity="0.85"/>
<circle cx="293.8" cy="328.8" r="3.2" fill="#ff922b" opacity="0.85"/>
<circle cx="300.3" cy="358.6" r="3.2" fill="#ff922b" opacity="0.85"/>
<circle cx="306.8" cy="325.4" r="3.2" fill="#ff922b" opacity="0.85"/>
<circle cx="313.3" cy="330.5" r="3.2" fill="#ff922b" opacity="0.85"/>
<circle cx="319.8" cy="332.9" r="3.2" fill="#ff922b" opacity="0.85"/>
<circle cx="326.3" cy="331.8" r="3.2" fill="#ff922b" opacity="0.85"/>
<circle cx="332.8" cy="332.5" r="3.2" fill="#ff922b" opacity="0.85"/>
<circle cx="339.3" cy="290.0" r="3.2" fill="#ff922b" opacity="0.85"/>
<circle cx="345.8" cy="308.0" r="3.2" fill="#ff922b" opacity="0.85"/>
<circle cx="352.3" cy="332.6" r="3.2" fill="#ff922b" opacity="0.85"/>
<circle cx="358.9" cy="336.9" r="3.2" fill="#ff922b" opacity="0.85"/>
<circle cx="365.4" cy="346.4" r="3.2" fill="#ff922b" opacity="0.85"/>
<circle cx="371.9" cy="337.1" r="3.2" fill="#ff922b" opacity="0.85"/>
<circle cx="378.4" cy="335.6" r="3.2" fill="#ff922b" opacity="0.85"/>
<circle cx="384.9" cy="334.7" r="3.2" fill="#ff922b" opacity="0.85"/>
<circle cx="391.4" cy="344.1" r="3.2" fill="#ff922b" opacity="0.85"/>
<circle cx="397.9" cy="339.7" r="3.2" fill="#ff922b" opacity="0.85"/>
<circle cx="404.4" cy="344.1" r="3.2" fill="#ff922b" opacity="0.85"/>
<circle cx="410.9" cy="361.9" r="3.2" fill="#ff922b" opacity="0.85"/>
<circle cx="417.4" cy="298.5" r="3.2" fill="#ff922b" opacity="0.85"/>
<circle cx="423.9" cy="360.2" r="3.2" fill="#ff922b" opacity="0.85"/>
<circle cx="430.4" cy="274.7" r="3.2" fill="#ff922b" opacity="0.85"/>
<circle cx="436.9" cy="269.5" r="3.2" fill="#ff922b" opacity="0.85"/>
<circle cx="443.4" cy="265.6" r="3.2" fill="#ff922b" opacity="0.85"/>
<circle cx="449.9" cy="261.5" r="3.2" fill="#ff922b" opacity="0.85"/>
<circle cx="456.4" cy="254.2" r="3.2" fill="#ff922b" opacity="0.85"/>
<circle cx="462.9" cy="281.4" r="3.2" fill="#ff922b" opacity="0.85"/>
<circle cx="469.4" cy="365.0" r="3.2" fill="#ff922b" opacity="0.85"/>
<circle cx="475.9" cy="291.7" r="3.2" fill="#ff922b" opacity="0.85"/>
<circle cx="482.4" cy="289.6" r="3.2" fill="#ff922b" opacity="0.85"/>
<circle cx="488.9" cy="290.8" r="3.2" fill="#ff922b" opacity="0.85"/>
<circle cx="495.4" cy="286.2" r="3.2" fill="#ff922b" opacity="0.85"/>
<circle cx="501.9" cy="292.3" r="3.2" fill="#ff922b" opacity="0.85"/>
<circle cx="508.4" cy="281.6" r="3.2" fill="#ff922b" opacity="0.85"/>
<circle cx="514.9" cy="280.7" r="3.2" fill="#ff922b" opacity="0.85"/>
<circle cx="521.4" cy="327.4" r="3.2" fill="#ff922b" opacity="0.85"/>
<circle cx="527.9" cy="265.6" r="3.2" fill="#ff922b" opacity="0.85"/>
<circle cx="534.4" cy="242.3" r="3.2" fill="#ff922b" opacity="0.85"/>
<circle cx="540.9" cy="263.3" r="3.2" fill="#ff922b" opacity="0.85"/>
<circle cx="547.4" cy="265.9" r="3.2" fill="#ff922b" opacity="0.85"/>
<circle cx="553.9" cy="344.1" r="3.2" fill="#ff922b" opacity="0.85"/>
<circle cx="560.4" cy="277.5" r="3.2" fill="#ff922b" opacity="0.85"/>
<circle cx="566.9" cy="278.4" r="3.2" fill="#ff922b" opacity="0.85"/>
<circle cx="573.4" cy="277.6" r="3.2" fill="#ff922b" opacity="0.85"/>
<circle cx="579.9" cy="274.3" r="3.2" fill="#ff922b" opacity="0.85"/>
<circle cx="586.4" cy="268.2" r="3.2" fill="#ff922b" opacity="0.85"/>
<circle cx="592.9" cy="276.1" r="3.2" fill="#ff922b" opacity="0.85"/>
<circle cx="599.4" cy="293.5" r="3.2" fill="#ff922b" opacity="0.85"/>
<circle cx="605.9" cy="284.3" r="3.2" fill="#ff922b" opacity="0.85"/>
<circle cx="612.4" cy="277.2" r="3.2" fill="#ff922b" opacity="0.85"/>
<circle cx="618.9" cy="274.6" r="3.2" fill="#ff922b" opacity="0.85"/>
<circle cx="625.4" cy="284.4" r="3.2" fill="#ff922b" opacity="0.85"/>
<circle cx="631.9" cy="289.3" r="3.2" fill="#ff922b" opacity="0.85"/>
<circle cx="638.4" cy="278.7" r="3.2" fill="#ff922b" opacity="0.85"/>
<circle cx="644.9" cy="285.4" r="3.2" fill="#ff922b" opacity="0.85"/>
<circle cx="651.4" cy="272.4" r="3.2" fill="#ff922b" opacity="0.85"/>
<circle cx="657.9" cy="345.4" r="3.2" fill="#ff922b" opacity="0.85"/>
<circle cx="664.4" cy="263.4" r="3.2" fill="#ff922b" opacity="0.85"/>
<circle cx="670.9" cy="280.2" r="3.2" fill="#ff922b" opacity="0.85"/>
<circle cx="677.4" cy="334.0" r="3.2" fill="#ff922b" opacity="0.85"/>
<circle cx="683.9" cy="269.7" r="3.2" fill="#ff922b" opacity="0.85"/>
<circle cx="690.4" cy="338.4" r="3.2" fill="#ff922b" opacity="0.85"/>
<circle cx="696.9" cy="333.2" r="3.2" fill="#ff922b" opacity="0.85"/>
<circle cx="703.4" cy="375.2" r="3.2" fill="#ff922b" opacity="0.85"/>
<circle cx="709.9" cy="334.3" r="3.2" fill="#ff922b" opacity="0.85"/>
<circle cx="716.4" cy="341.6" r="3.2" fill="#ff922b" opacity="0.85"/>
<circle cx="722.9" cy="346.9" r="3.2" fill="#ff922b" opacity="0.85"/>
<circle cx="729.4" cy="334.4" r="3.2" fill="#ff922b" opacity="0.85"/>
<circle cx="735.9" cy="349.7" r="3.2" fill="#ff922b" opacity="0.85"/>
<circle cx="742.4" cy="349.7" r="3.2" fill="#ff922b" opacity="0.85"/>
<circle cx="748.9" cy="338.7" r="3.2" fill="#ff922b" opacity="0.85"/>
<circle cx="755.4" cy="338.7" r="3.2" fill="#ff922b" opacity="0.85"/>
<circle cx="761.9" cy="332.4" r="3.2" fill="#ff922b" opacity="0.85"/>
<circle cx="768.4" cy="336.4" r="3.2" fill="#ff922b" opacity="0.85"/>
<circle cx="774.9" cy="367.4" r="3.2" fill="#ff922b" opacity="0.85"/>
<circle cx="781.4" cy="370.7" r="3.2" fill="#ff922b" opacity="0.85"/>
<circle cx="847" cy="84" r="5" fill="#ff922b"/>
<text x="866" y="88" font-size="13" fill="#c9d1d9" font-weight="700">Kāra</text>
<line x1="836" y1="108" x2="858" y2="108" stroke="#a7b0bc" stroke-width="2" stroke-dasharray="5 4"/>
<text x="866" y="112" font-size="13" fill="#c9d1d9" font-weight="400">Rust = 1.0×</text>
<circle cx="847" cy="132" r="4" fill="#3fb950"/>
<text x="866" y="136" font-size="13" fill="#c9d1d9" font-weight="400">C</text>
<text x="70" y="538" font-size="11.5" fill="#8b949e">Each dot is one benchmarked program (kata × approach); there is no connecting line because left-to-right order is not meaningful. Raw numbers: bench-results.json</text>
</svg>