<svg xmlns="http://www.w3.org/2000/svg" width="980" height="560" viewBox="0 0 980 560" font-family="-apple-system,Segoe UI,Helvetica,Arial,sans-serif">
<rect width="980" height="560" fill="#282c34"/>
<text x="70" y="34" font-size="21" font-weight="700" fill="#c9d1d9">Compile time (cold)</text>
<text x="70" y="56" font-size="13" fill="#8b949e">relative to Rust = 1.0 · lower = faster · 42 programs</text>
<line x1="70" y1="456.0" x2="812" y2="456.0" stroke="#3b414b" stroke-width="1"/>
<text x="60" y="460.0" font-size="12" text-anchor="end" fill="#8b949e">0.0×</text>
<line x1="70" y1="330.0" x2="812" y2="330.0" stroke="#3b414b" stroke-width="1"/>
<text x="60" y="334.0" font-size="12" text-anchor="end" fill="#8b949e">0.5×</text>
<line x1="70" y1="204.0" x2="812" y2="204.0" stroke="#a7b0bc" stroke-width="2" stroke-dasharray="5 4"/>
<text x="60" y="208.0" font-size="12" text-anchor="end" fill="#aeb6c0" font-weight="700">1.0×</text>
<line x1="70" y1="78.0" x2="812" y2="78.0" stroke="#3b414b" stroke-width="1"/>
<text x="60" y="82.0" font-size="12" text-anchor="end" fill="#8b949e">1.5×</text>
<text x="812" y="198.0" font-size="11" text-anchor="end" fill="#aeb6c0">Rust baseline</text>
<line x1="70" y1="456" x2="812" y2="456" stroke="#3b414b"/>
<text x="441.0" y="478" font-size="11" text-anchor="middle" fill="#8b949e">42 programs (kata × approach) — x-order carries no meaning</text>
<circle cx="101.7" cy="312.9" r="2.6" fill="#3fb950" opacity="0.7"/>
<circle cx="118.3" cy="362.3" r="2.6" fill="#3fb950" opacity="0.7"/>
<circle cx="135.0" cy="344.1" r="2.6" fill="#3fb950" opacity="0.7"/>
<circle cx="151.6" cy="360.0" r="2.6" fill="#3fb950" opacity="0.7"/>
<circle cx="168.3" cy="333.9" r="2.6" fill="#3fb950" opacity="0.7"/>
<circle cx="184.9" cy="339.2" r="2.6" fill="#3fb950" opacity="0.7"/>
<circle cx="201.6" cy="350.6" r="2.6" fill="#3fb950" opacity="0.7"/>
<circle cx="218.2" cy="322.5" r="2.6" fill="#3fb950" opacity="0.7"/>
<circle cx="234.9" cy="320.0" r="2.6" fill="#3fb950" opacity="0.7"/>
<circle cx="251.5" cy="320.9" r="2.6" fill="#3fb950" opacity="0.7"/>
<circle cx="268.2" cy="330.9" r="2.6" fill="#3fb950" opacity="0.7"/>
<circle cx="284.8" cy="320.7" r="2.6" fill="#3fb950" opacity="0.7"/>
<circle cx="301.5" cy="320.4" r="2.6" fill="#3fb950" opacity="0.7"/>
<circle cx="318.1" cy="323.6" r="2.6" fill="#3fb950" opacity="0.7"/>
<circle cx="334.8" cy="341.5" r="2.6" fill="#3fb950" opacity="0.7"/>
<circle cx="351.4" cy="349.2" r="2.6" fill="#3fb950" opacity="0.7"/>
<circle cx="368.1" cy="353.7" r="2.6" fill="#3fb950" opacity="0.7"/>
<circle cx="384.7" cy="334.0" r="2.6" fill="#3fb950" opacity="0.7"/>
<circle cx="401.4" cy="347.9" r="2.6" fill="#3fb950" opacity="0.7"/>
<circle cx="418.0" cy="343.5" r="2.6" fill="#3fb950" opacity="0.7"/>
<circle cx="434.7" cy="307.2" r="2.6" fill="#3fb950" opacity="0.7"/>
<circle cx="451.3" cy="351.6" r="2.6" fill="#3fb950" opacity="0.7"/>
<circle cx="467.9" cy="320.9" r="2.6" fill="#3fb950" opacity="0.7"/>
<circle cx="484.6" cy="356.3" r="2.6" fill="#3fb950" opacity="0.7"/>
<circle cx="501.2" cy="348.3" r="2.6" fill="#3fb950" opacity="0.7"/>
<circle cx="517.9" cy="357.6" r="2.6" fill="#3fb950" opacity="0.7"/>
<circle cx="534.5" cy="314.6" r="2.6" fill="#3fb950" opacity="0.7"/>
<circle cx="551.2" cy="323.4" r="2.6" fill="#3fb950" opacity="0.7"/>
<circle cx="567.8" cy="354.7" r="2.6" fill="#3fb950" opacity="0.7"/>
<circle cx="584.5" cy="311.0" r="2.6" fill="#3fb950" opacity="0.7"/>
<circle cx="601.1" cy="363.0" r="2.6" fill="#3fb950" opacity="0.7"/>
<circle cx="617.8" cy="319.7" r="2.6" fill="#3fb950" opacity="0.7"/>
<circle cx="634.4" cy="315.3" r="2.6" fill="#3fb950" opacity="0.7"/>
<circle cx="651.1" cy="320.6" r="2.6" fill="#3fb950" opacity="0.7"/>
<circle cx="667.7" cy="361.6" r="2.6" fill="#3fb950" opacity="0.7"/>
<circle cx="684.4" cy="312.4" r="2.6" fill="#3fb950" opacity="0.7"/>
<circle cx="701.0" cy="316.7" r="2.6" fill="#3fb950" opacity="0.7"/>
<circle cx="717.7" cy="322.5" r="2.6" fill="#3fb950" opacity="0.7"/>
<circle cx="734.3" cy="353.6" r="2.6" fill="#3fb950" opacity="0.7"/>
<circle cx="751.0" cy="367.1" r="2.6" fill="#3fb950" opacity="0.7"/>
<circle cx="767.6" cy="359.8" r="2.6" fill="#3fb950" opacity="0.7"/>
<circle cx="784.3" cy="362.4" r="2.6" fill="#3fb950" opacity="0.7"/>
<circle cx="97.7" cy="266.5" r="3.2" fill="#ff922b" opacity="0.85"/>
<circle cx="114.4" cy="312.9" r="3.2" fill="#ff922b" opacity="0.85"/>
<circle cx="131.0" cy="277.1" r="3.2" fill="#ff922b" opacity="0.85"/>
<circle cx="147.7" cy="315.4" r="3.2" fill="#ff922b" opacity="0.85"/>
<circle cx="164.3" cy="265.9" r="3.2" fill="#ff922b" opacity="0.85"/>
<circle cx="181.0" cy="261.8" r="3.2" fill="#ff922b" opacity="0.85"/>
<circle cx="197.6" cy="276.2" r="3.2" fill="#ff922b" opacity="0.85"/>
<circle cx="214.3" cy="250.0" r="3.2" fill="#ff922b" opacity="0.85"/>
<circle cx="230.9" cy="238.4" r="3.2" fill="#ff922b" opacity="0.85"/>
<circle cx="247.6" cy="251.8" r="3.2" fill="#ff922b" opacity="0.85"/>
<circle cx="264.2" cy="280.5" r="3.2" fill="#ff922b" opacity="0.85"/>
<circle cx="280.9" cy="256.0" r="3.2" fill="#ff922b" opacity="0.85"/>
<circle cx="297.5" cy="234.7" r="3.2" fill="#ff922b" opacity="0.85"/>
<circle cx="314.2" cy="236.2" r="3.2" fill="#ff922b" opacity="0.85"/>
<circle cx="330.8" cy="282.4" r="3.2" fill="#ff922b" opacity="0.85"/>
<circle cx="347.5" cy="292.9" r="3.2" fill="#ff922b" opacity="0.85"/>
<circle cx="364.1" cy="298.0" r="3.2" fill="#ff922b" opacity="0.85"/>
<circle cx="380.8" cy="254.2" r="3.2" fill="#ff922b" opacity="0.85"/>
<circle cx="397.4" cy="290.9" r="3.2" fill="#ff922b" opacity="0.85"/>
<circle cx="414.1" cy="263.8" r="3.2" fill="#ff922b" opacity="0.85"/>
<circle cx="430.7" cy="219.7" r="3.2" fill="#ff922b" opacity="0.85"/>
<circle cx="447.3" cy="257.8" r="3.2" fill="#ff922b" opacity="0.85"/>
<circle cx="464.0" cy="226.4" r="3.2" fill="#ff922b" opacity="0.85"/>
<circle cx="480.6" cy="276.8" r="3.2" fill="#ff922b" opacity="0.85"/>
<circle cx="497.3" cy="258.2" r="3.2" fill="#ff922b" opacity="0.85"/>
<circle cx="513.9" cy="267.9" r="3.2" fill="#ff922b" opacity="0.85"/>
<circle cx="530.6" cy="236.2" r="3.2" fill="#ff922b" opacity="0.85"/>
<circle cx="547.2" cy="246.1" r="3.2" fill="#ff922b" opacity="0.85"/>
<circle cx="563.9" cy="298.8" r="3.2" fill="#ff922b" opacity="0.85"/>
<circle cx="580.5" cy="215.4" r="3.2" fill="#ff922b" opacity="0.85"/>
<circle cx="597.2" cy="284.0" r="3.2" fill="#ff922b" opacity="0.85"/>
<circle cx="613.8" cy="252.2" r="3.2" fill="#ff922b" opacity="0.85"/>
<circle cx="630.5" cy="232.6" r="3.2" fill="#ff922b" opacity="0.85"/>
<circle cx="647.1" cy="243.8" r="3.2" fill="#ff922b" opacity="0.85"/>
<circle cx="663.8" cy="322.4" r="3.2" fill="#ff922b" opacity="0.85"/>
<circle cx="680.4" cy="238.0" r="3.2" fill="#ff922b" opacity="0.85"/>
<circle cx="697.1" cy="250.8" r="3.2" fill="#ff922b" opacity="0.85"/>
<circle cx="713.7" cy="257.4" r="3.2" fill="#ff922b" opacity="0.85"/>
<circle cx="730.4" cy="308.7" r="3.2" fill="#ff922b" opacity="0.85"/>
<circle cx="747.0" cy="308.3" r="3.2" fill="#ff922b" opacity="0.85"/>
<circle cx="763.7" cy="304.2" r="3.2" fill="#ff922b" opacity="0.85"/>
<circle cx="780.3" cy="314.6" r="3.2" fill="#ff922b" opacity="0.85"/>
<circle cx="847" cy="84" r="5" fill="#ff922b"/>
<text x="866" y="88" font-size="13" fill="#c9d1d9" font-weight="700">Kāra</text>
<line x1="836" y1="108" x2="858" y2="108" stroke="#a7b0bc" stroke-width="2" stroke-dasharray="5 4"/>
<text x="866" y="112" font-size="13" fill="#c9d1d9" font-weight="400">Rust = 1.0×</text>
<circle cx="847" cy="132" r="4" fill="#3fb950"/>
<text x="866" y="136" font-size="13" fill="#c9d1d9" font-weight="400">C</text>
<text x="70" y="538" font-size="11.5" fill="#8b949e">Each dot is one benchmarked program (kata × approach); there is no connecting line because left-to-right order is not meaningful. Raw numbers: bench-results.json</text>
</svg>