<svg xmlns="http://www.w3.org/2000/svg" width="980" height="560" viewBox="0 0 980 560" font-family="-apple-system,Segoe UI,Helvetica,Arial,sans-serif">
<rect width="980" height="560" fill="#282c34"/>
<text x="70" y="34" font-size="21" font-weight="700" fill="#c9d1d9">Compile time (cold)</text>
<text x="70" y="56" font-size="13" fill="#8b949e">relative to Rust = 1.0 · lower = faster · 35 programs</text>
<line x1="70" y1="456.0" x2="812" y2="456.0" stroke="#3b414b" stroke-width="1"/>
<text x="60" y="460.0" font-size="12" text-anchor="end" fill="#8b949e">0.0×</text>
<line x1="70" y1="330.0" x2="812" y2="330.0" stroke="#3b414b" stroke-width="1"/>
<text x="60" y="334.0" font-size="12" text-anchor="end" fill="#8b949e">0.5×</text>
<line x1="70" y1="204.0" x2="812" y2="204.0" stroke="#6e7681" stroke-width="1.4" stroke-dasharray="5 4"/>
<text x="60" y="208.0" font-size="12" text-anchor="end" fill="#aeb6c0" font-weight="700">1.0×</text>
<line x1="70" y1="78.0" x2="812" y2="78.0" stroke="#3b414b" stroke-width="1"/>
<text x="60" y="82.0" font-size="12" text-anchor="end" fill="#8b949e">1.5×</text>
<text x="812" y="198.0" font-size="11" text-anchor="end" fill="#aeb6c0">Rust baseline</text>
<line x1="70" y1="456" x2="812" y2="456" stroke="#3b414b"/>
<text x="441.0" y="478" font-size="11" text-anchor="middle" fill="#8b949e">35 programs (kata × approach) — x-order carries no meaning</text>
<circle cx="101.7" cy="312.9" r="2.6" fill="#3fb950" opacity="0.7"/>
<circle cx="121.7" cy="362.3" r="2.6" fill="#3fb950" opacity="0.7"/>
<circle cx="141.8" cy="349.7" r="2.6" fill="#3fb950" opacity="0.7"/>
<circle cx="161.9" cy="360.0" r="2.6" fill="#3fb950" opacity="0.7"/>
<circle cx="182.0" cy="333.9" r="2.6" fill="#3fb950" opacity="0.7"/>
<circle cx="202.0" cy="344.2" r="2.6" fill="#3fb950" opacity="0.7"/>
<circle cx="222.1" cy="356.2" r="2.6" fill="#3fb950" opacity="0.7"/>
<circle cx="242.2" cy="322.5" r="2.6" fill="#3fb950" opacity="0.7"/>
<circle cx="262.3" cy="320.0" r="2.6" fill="#3fb950" opacity="0.7"/>
<circle cx="282.4" cy="320.9" r="2.6" fill="#3fb950" opacity="0.7"/>
<circle cx="302.4" cy="330.9" r="2.6" fill="#3fb950" opacity="0.7"/>
<circle cx="322.5" cy="320.7" r="2.6" fill="#3fb950" opacity="0.7"/>
<circle cx="342.6" cy="320.4" r="2.6" fill="#3fb950" opacity="0.7"/>
<circle cx="362.7" cy="323.6" r="2.6" fill="#3fb950" opacity="0.7"/>
<circle cx="382.7" cy="341.5" r="2.6" fill="#3fb950" opacity="0.7"/>
<circle cx="402.8" cy="349.2" r="2.6" fill="#3fb950" opacity="0.7"/>
<circle cx="422.9" cy="353.7" r="2.6" fill="#3fb950" opacity="0.7"/>
<circle cx="443.0" cy="334.0" r="2.6" fill="#3fb950" opacity="0.7"/>
<circle cx="463.1" cy="347.9" r="2.6" fill="#3fb950" opacity="0.7"/>
<circle cx="483.1" cy="343.5" r="2.6" fill="#3fb950" opacity="0.7"/>
<circle cx="503.2" cy="307.2" r="2.6" fill="#3fb950" opacity="0.7"/>
<circle cx="523.3" cy="352.4" r="2.6" fill="#3fb950" opacity="0.7"/>
<circle cx="543.4" cy="354.7" r="2.6" fill="#3fb950" opacity="0.7"/>
<circle cx="563.4" cy="311.0" r="2.6" fill="#3fb950" opacity="0.7"/>
<circle cx="583.5" cy="363.0" r="2.6" fill="#3fb950" opacity="0.7"/>
<circle cx="603.6" cy="321.8" r="2.6" fill="#3fb950" opacity="0.7"/>
<circle cx="623.7" cy="315.3" r="2.6" fill="#3fb950" opacity="0.7"/>
<circle cx="643.8" cy="320.6" r="2.6" fill="#3fb950" opacity="0.7"/>
<circle cx="663.8" cy="367.0" r="2.6" fill="#3fb950" opacity="0.7"/>
<circle cx="683.9" cy="312.4" r="2.6" fill="#3fb950" opacity="0.7"/>
<circle cx="704.0" cy="316.7" r="2.6" fill="#3fb950" opacity="0.7"/>
<circle cx="724.1" cy="322.5" r="2.6" fill="#3fb950" opacity="0.7"/>
<circle cx="744.1" cy="353.6" r="2.6" fill="#3fb950" opacity="0.7"/>
<circle cx="764.2" cy="367.1" r="2.6" fill="#3fb950" opacity="0.7"/>
<circle cx="784.3" cy="359.8" r="2.6" fill="#3fb950" opacity="0.7"/>
<circle cx="97.7" cy="266.5" r="3.2" fill="#ff922b" opacity="0.85"/>
<circle cx="117.8" cy="312.9" r="3.2" fill="#ff922b" opacity="0.85"/>
<circle cx="137.9" cy="275.5" r="3.2" fill="#ff922b" opacity="0.85"/>
<circle cx="157.9" cy="315.4" r="3.2" fill="#ff922b" opacity="0.85"/>
<circle cx="178.0" cy="265.9" r="3.2" fill="#ff922b" opacity="0.85"/>
<circle cx="198.1" cy="285.9" r="3.2" fill="#ff922b" opacity="0.85"/>
<circle cx="218.2" cy="292.8" r="3.2" fill="#ff922b" opacity="0.85"/>
<circle cx="238.2" cy="250.0" r="3.2" fill="#ff922b" opacity="0.85"/>
<circle cx="258.3" cy="238.4" r="3.2" fill="#ff922b" opacity="0.85"/>
<circle cx="278.4" cy="251.8" r="3.2" fill="#ff922b" opacity="0.85"/>
<circle cx="298.5" cy="280.5" r="3.2" fill="#ff922b" opacity="0.85"/>
<circle cx="318.6" cy="256.0" r="3.2" fill="#ff922b" opacity="0.85"/>
<circle cx="338.6" cy="234.7" r="3.2" fill="#ff922b" opacity="0.85"/>
<circle cx="358.7" cy="236.2" r="3.2" fill="#ff922b" opacity="0.85"/>
<circle cx="378.8" cy="282.4" r="3.2" fill="#ff922b" opacity="0.85"/>
<circle cx="398.9" cy="292.9" r="3.2" fill="#ff922b" opacity="0.85"/>
<circle cx="418.9" cy="298.0" r="3.2" fill="#ff922b" opacity="0.85"/>
<circle cx="439.0" cy="254.2" r="3.2" fill="#ff922b" opacity="0.85"/>
<circle cx="459.1" cy="290.9" r="3.2" fill="#ff922b" opacity="0.85"/>
<circle cx="479.2" cy="263.8" r="3.2" fill="#ff922b" opacity="0.85"/>
<circle cx="499.3" cy="219.7" r="3.2" fill="#ff922b" opacity="0.85"/>
<circle cx="519.3" cy="260.8" r="3.2" fill="#ff922b" opacity="0.85"/>
<circle cx="539.4" cy="298.8" r="3.2" fill="#ff922b" opacity="0.85"/>
<circle cx="559.5" cy="215.4" r="3.2" fill="#ff922b" opacity="0.85"/>
<circle cx="579.6" cy="284.0" r="3.2" fill="#ff922b" opacity="0.85"/>
<circle cx="599.6" cy="260.5" r="3.2" fill="#ff922b" opacity="0.85"/>
<circle cx="619.7" cy="232.6" r="3.2" fill="#ff922b" opacity="0.85"/>
<circle cx="639.8" cy="243.8" r="3.2" fill="#ff922b" opacity="0.85"/>
<circle cx="659.9" cy="325.0" r="3.2" fill="#ff922b" opacity="0.85"/>
<circle cx="680.0" cy="238.0" r="3.2" fill="#ff922b" opacity="0.85"/>
<circle cx="700.0" cy="250.8" r="3.2" fill="#ff922b" opacity="0.85"/>
<circle cx="720.1" cy="257.4" r="3.2" fill="#ff922b" opacity="0.85"/>
<circle cx="740.2" cy="308.7" r="3.2" fill="#ff922b" opacity="0.85"/>
<circle cx="760.3" cy="308.3" r="3.2" fill="#ff922b" opacity="0.85"/>
<circle cx="780.3" cy="304.2" r="3.2" fill="#ff922b" opacity="0.85"/>
<circle cx="847" cy="84" r="5" fill="#ff922b"/>
<text x="866" y="88" font-size="13" fill="#c9d1d9" font-weight="700">Kāra</text>
<line x1="836" y1="108" x2="858" y2="108" stroke="#6e7681" stroke-width="1.6" stroke-dasharray="5 4"/>
<text x="866" y="112" font-size="13" fill="#c9d1d9" font-weight="400">Rust</text>
<circle cx="847" cy="132" r="4" fill="#3fb950"/>
<text x="866" y="136" font-size="13" fill="#c9d1d9" font-weight="400">C</text>
<text x="70" y="538" font-size="11.5" fill="#8b949e">Each dot is one benchmarked program (kata × approach); there is no connecting line because left-to-right order is not meaningful. Raw numbers: bench-results.json</text>
</svg>