<svg xmlns="http://www.w3.org/2000/svg" width="980" height="560" viewBox="0 0 980 560" font-family="-apple-system,Segoe UI,Helvetica,Arial,sans-serif">
<rect width="980" height="560" fill="#282c34"/>
<text x="70" y="34" font-size="21" font-weight="700" fill="#c9d1d9">Compile peak memory (cold)</text>
<text x="70" y="56" font-size="13" fill="#8b949e">relative to Rust = 1.0 · lower = leaner · 45 programs</text>
<line x1="70" y1="456.0" x2="812" y2="456.0" stroke="#3b414b" stroke-width="1"/>
<text x="60" y="460.0" font-size="12" text-anchor="end" fill="#8b949e">0.0×</text>
<line x1="70" y1="330.0" x2="812" y2="330.0" stroke="#3b414b" stroke-width="1"/>
<text x="60" y="334.0" font-size="12" text-anchor="end" fill="#8b949e">0.5×</text>
<line x1="70" y1="204.0" x2="812" y2="204.0" stroke="#a7b0bc" stroke-width="2" stroke-dasharray="5 4"/>
<text x="60" y="208.0" font-size="12" text-anchor="end" fill="#aeb6c0" font-weight="700">1.0×</text>
<line x1="70" y1="78.0" x2="812" y2="78.0" stroke="#3b414b" stroke-width="1"/>
<text x="60" y="82.0" font-size="12" text-anchor="end" fill="#8b949e">1.5×</text>
<text x="812" y="198.0" font-size="11" text-anchor="end" fill="#aeb6c0">Rust baseline</text>
<line x1="70" y1="456" x2="812" y2="456" stroke="#3b414b"/>
<text x="441.0" y="478" font-size="11" text-anchor="middle" fill="#8b949e">45 programs (kata × approach) — x-order carries no meaning</text>
<circle cx="101.7" cy="431.6" r="2.6" fill="#3fb950" opacity="0.7"/>
<circle cx="117.2" cy="438.7" r="2.6" fill="#3fb950" opacity="0.7"/>
<circle cx="132.7" cy="436.1" r="2.6" fill="#3fb950" opacity="0.7"/>
<circle cx="148.2" cy="438.9" r="2.6" fill="#3fb950" opacity="0.7"/>
<circle cx="163.7" cy="433.7" r="2.6" fill="#3fb950" opacity="0.7"/>
<circle cx="179.2" cy="434.6" r="2.6" fill="#3fb950" opacity="0.7"/>
<circle cx="194.7" cy="435.8" r="2.6" fill="#3fb950" opacity="0.7"/>
<circle cx="210.3" cy="431.9" r="2.6" fill="#3fb950" opacity="0.7"/>
<circle cx="225.8" cy="431.3" r="2.6" fill="#3fb950" opacity="0.7"/>
<circle cx="241.3" cy="432.3" r="2.6" fill="#3fb950" opacity="0.7"/>
<circle cx="256.8" cy="432.1" r="2.6" fill="#3fb950" opacity="0.7"/>
<circle cx="272.3" cy="432.8" r="2.6" fill="#3fb950" opacity="0.7"/>
<circle cx="287.8" cy="433.1" r="2.6" fill="#3fb950" opacity="0.7"/>
<circle cx="303.3" cy="433.4" r="2.6" fill="#3fb950" opacity="0.7"/>
<circle cx="318.9" cy="434.2" r="2.6" fill="#3fb950" opacity="0.7"/>
<circle cx="334.4" cy="439.2" r="2.6" fill="#3fb950" opacity="0.7"/>
<circle cx="349.9" cy="438.7" r="2.6" fill="#3fb950" opacity="0.7"/>
<circle cx="365.4" cy="433.4" r="2.6" fill="#3fb950" opacity="0.7"/>
<circle cx="380.9" cy="439.6" r="2.6" fill="#3fb950" opacity="0.7"/>
<circle cx="396.4" cy="435.1" r="2.6" fill="#3fb950" opacity="0.7"/>
<circle cx="411.9" cy="432.1" r="2.6" fill="#3fb950" opacity="0.7"/>
<circle cx="427.5" cy="435.3" r="2.6" fill="#3fb950" opacity="0.7"/>
<circle cx="443.0" cy="432.8" r="2.6" fill="#3fb950" opacity="0.7"/>
<circle cx="458.5" cy="436.7" r="2.6" fill="#3fb950" opacity="0.7"/>
<circle cx="474.0" cy="434.3" r="2.6" fill="#3fb950" opacity="0.7"/>
<circle cx="489.5" cy="435.9" r="2.6" fill="#3fb950" opacity="0.7"/>
<circle cx="505.0" cy="434.2" r="2.6" fill="#3fb950" opacity="0.7"/>
<circle cx="520.5" cy="434.1" r="2.6" fill="#3fb950" opacity="0.7"/>
<circle cx="536.1" cy="432.3" r="2.6" fill="#3fb950" opacity="0.7"/>
<circle cx="551.6" cy="433.7" r="2.6" fill="#3fb950" opacity="0.7"/>
<circle cx="567.1" cy="430.7" r="2.6" fill="#3fb950" opacity="0.7"/>
<circle cx="582.6" cy="440.0" r="2.6" fill="#3fb950" opacity="0.7"/>
<circle cx="598.1" cy="432.4" r="2.6" fill="#3fb950" opacity="0.7"/>
<circle cx="613.6" cy="436.2" r="2.6" fill="#3fb950" opacity="0.7"/>
<circle cx="629.1" cy="434.8" r="2.6" fill="#3fb950" opacity="0.7"/>
<circle cx="644.7" cy="432.4" r="2.6" fill="#3fb950" opacity="0.7"/>
<circle cx="660.2" cy="433.5" r="2.6" fill="#3fb950" opacity="0.7"/>
<circle cx="675.7" cy="441.5" r="2.6" fill="#3fb950" opacity="0.7"/>
<circle cx="691.2" cy="432.3" r="2.6" fill="#3fb950" opacity="0.7"/>
<circle cx="706.7" cy="433.7" r="2.6" fill="#3fb950" opacity="0.7"/>
<circle cx="722.2" cy="431.6" r="2.6" fill="#3fb950" opacity="0.7"/>
<circle cx="737.8" cy="437.3" r="2.6" fill="#3fb950" opacity="0.7"/>
<circle cx="753.3" cy="437.2" r="2.6" fill="#3fb950" opacity="0.7"/>
<circle cx="768.8" cy="439.3" r="2.6" fill="#3fb950" opacity="0.7"/>
<circle cx="784.3" cy="442.0" r="2.6" fill="#3fb950" opacity="0.7"/>
<circle cx="97.7" cy="366.0" r="3.2" fill="#ff922b" opacity="0.85"/>
<circle cx="113.2" cy="389.9" r="3.2" fill="#ff922b" opacity="0.85"/>
<circle cx="128.7" cy="360.5" r="3.2" fill="#ff922b" opacity="0.85"/>
<circle cx="144.2" cy="388.6" r="3.2" fill="#ff922b" opacity="0.85"/>
<circle cx="159.8" cy="368.1" r="3.2" fill="#ff922b" opacity="0.85"/>
<circle cx="175.3" cy="358.0" r="3.2" fill="#ff922b" opacity="0.85"/>
<circle cx="190.8" cy="358.8" r="3.2" fill="#ff922b" opacity="0.85"/>
<circle cx="206.3" cy="362.4" r="3.2" fill="#ff922b" opacity="0.85"/>
<circle cx="221.8" cy="358.1" r="3.2" fill="#ff922b" opacity="0.85"/>
<circle cx="237.3" cy="361.4" r="3.2" fill="#ff922b" opacity="0.85"/>
<circle cx="252.9" cy="358.7" r="3.2" fill="#ff922b" opacity="0.85"/>
<circle cx="268.4" cy="367.7" r="3.2" fill="#ff922b" opacity="0.85"/>
<circle cx="283.9" cy="351.0" r="3.2" fill="#ff922b" opacity="0.85"/>
<circle cx="299.4" cy="348.8" r="3.2" fill="#ff922b" opacity="0.85"/>
<circle cx="314.9" cy="360.8" r="3.2" fill="#ff922b" opacity="0.85"/>
<circle cx="330.4" cy="381.2" r="3.2" fill="#ff922b" opacity="0.85"/>
<circle cx="345.9" cy="384.5" r="3.2" fill="#ff922b" opacity="0.85"/>
<circle cx="361.5" cy="359.0" r="3.2" fill="#ff922b" opacity="0.85"/>
<circle cx="377.0" cy="378.4" r="3.2" fill="#ff922b" opacity="0.85"/>
<circle cx="392.5" cy="370.7" r="3.2" fill="#ff922b" opacity="0.85"/>
<circle cx="408.0" cy="358.2" r="3.2" fill="#ff922b" opacity="0.85"/>
<circle cx="423.5" cy="352.0" r="3.2" fill="#ff922b" opacity="0.85"/>
<circle cx="439.0" cy="344.2" r="3.2" fill="#ff922b" opacity="0.85"/>
<circle cx="454.5" cy="350.5" r="3.2" fill="#ff922b" opacity="0.85"/>
<circle cx="470.1" cy="347.7" r="3.2" fill="#ff922b" opacity="0.85"/>
<circle cx="485.6" cy="348.4" r="3.2" fill="#ff922b" opacity="0.85"/>
<circle cx="501.1" cy="349.9" r="3.2" fill="#ff922b" opacity="0.85"/>
<circle cx="516.6" cy="347.8" r="3.2" fill="#ff922b" opacity="0.85"/>
<circle cx="532.1" cy="341.8" r="3.2" fill="#ff922b" opacity="0.85"/>
<circle cx="547.6" cy="345.3" r="3.2" fill="#ff922b" opacity="0.85"/>
<circle cx="563.1" cy="334.2" r="3.2" fill="#ff922b" opacity="0.85"/>
<circle cx="578.7" cy="387.4" r="3.2" fill="#ff922b" opacity="0.85"/>
<circle cx="594.2" cy="357.9" r="3.2" fill="#ff922b" opacity="0.85"/>
<circle cx="609.7" cy="368.7" r="3.2" fill="#ff922b" opacity="0.85"/>
<circle cx="625.2" cy="358.0" r="3.2" fill="#ff922b" opacity="0.85"/>
<circle cx="640.7" cy="365.4" r="3.2" fill="#ff922b" opacity="0.85"/>
<circle cx="656.2" cy="368.5" r="3.2" fill="#ff922b" opacity="0.85"/>
<circle cx="671.7" cy="383.5" r="3.2" fill="#ff922b" opacity="0.85"/>
<circle cx="687.3" cy="367.2" r="3.2" fill="#ff922b" opacity="0.85"/>
<circle cx="702.8" cy="361.1" r="3.2" fill="#ff922b" opacity="0.85"/>
<circle cx="718.3" cy="362.8" r="3.2" fill="#ff922b" opacity="0.85"/>
<circle cx="733.8" cy="377.6" r="3.2" fill="#ff922b" opacity="0.85"/>
<circle cx="749.3" cy="379.0" r="3.2" fill="#ff922b" opacity="0.85"/>
<circle cx="764.8" cy="390.3" r="3.2" fill="#ff922b" opacity="0.85"/>
<circle cx="780.3" cy="391.2" r="3.2" fill="#ff922b" opacity="0.85"/>
<circle cx="847" cy="84" r="5" fill="#ff922b"/>
<text x="866" y="88" font-size="13" fill="#c9d1d9" font-weight="700">Kāra</text>
<line x1="836" y1="108" x2="858" y2="108" stroke="#a7b0bc" stroke-width="2" stroke-dasharray="5 4"/>
<text x="866" y="112" font-size="13" fill="#c9d1d9" font-weight="400">Rust = 1.0×</text>
<circle cx="847" cy="132" r="4" fill="#3fb950"/>
<text x="866" y="136" font-size="13" fill="#c9d1d9" font-weight="400">C</text>
<text x="70" y="538" font-size="11.5" fill="#8b949e">Each dot is one benchmarked program (kata × approach); there is no connecting line because left-to-right order is not meaningful. Raw numbers: bench-results.json</text>
</svg>