<svg xmlns="http://www.w3.org/2000/svg" width="980" height="560" viewBox="0 0 980 560" font-family="-apple-system,Segoe UI,Helvetica,Arial,sans-serif">
<rect width="980" height="560" fill="#282c34"/>
<text x="70" y="34" font-size="21" font-weight="700" fill="#c9d1d9">Compile time (cold)</text>
<text x="70" y="56" font-size="13" fill="#8b949e">relative to Rust = 1.0 · lower = faster · 37 programs</text>
<line x1="70" y1="456.0" x2="812" y2="456.0" stroke="#3b414b" stroke-width="1"/>
<text x="60" y="460.0" font-size="12" text-anchor="end" fill="#8b949e">0.0×</text>
<line x1="70" y1="330.0" x2="812" y2="330.0" stroke="#3b414b" stroke-width="1"/>
<text x="60" y="334.0" font-size="12" text-anchor="end" fill="#8b949e">0.5×</text>
<line x1="70" y1="204.0" x2="812" y2="204.0" stroke="#a7b0bc" stroke-width="2" stroke-dasharray="5 4"/>
<text x="60" y="208.0" font-size="12" text-anchor="end" fill="#aeb6c0" font-weight="700">1.0×</text>
<line x1="70" y1="78.0" x2="812" y2="78.0" stroke="#3b414b" stroke-width="1"/>
<text x="60" y="82.0" font-size="12" text-anchor="end" fill="#8b949e">1.5×</text>
<text x="812" y="198.0" font-size="11" text-anchor="end" fill="#aeb6c0">Rust baseline</text>
<line x1="70" y1="456" x2="812" y2="456" stroke="#3b414b"/>
<text x="441.0" y="478" font-size="11" text-anchor="middle" fill="#8b949e">37 programs (kata × approach) — x-order carries no meaning</text>
<circle cx="101.7" cy="312.9" r="2.6" fill="#3fb950" opacity="0.7"/>
<circle cx="120.6" cy="362.3" r="2.6" fill="#3fb950" opacity="0.7"/>
<circle cx="139.6" cy="344.1" r="2.6" fill="#3fb950" opacity="0.7"/>
<circle cx="158.5" cy="360.0" r="2.6" fill="#3fb950" opacity="0.7"/>
<circle cx="177.5" cy="333.9" r="2.6" fill="#3fb950" opacity="0.7"/>
<circle cx="196.5" cy="339.2" r="2.6" fill="#3fb950" opacity="0.7"/>
<circle cx="215.4" cy="350.6" r="2.6" fill="#3fb950" opacity="0.7"/>
<circle cx="234.4" cy="322.5" r="2.6" fill="#3fb950" opacity="0.7"/>
<circle cx="253.4" cy="320.0" r="2.6" fill="#3fb950" opacity="0.7"/>
<circle cx="272.3" cy="320.9" r="2.6" fill="#3fb950" opacity="0.7"/>
<circle cx="291.3" cy="330.9" r="2.6" fill="#3fb950" opacity="0.7"/>
<circle cx="310.2" cy="320.7" r="2.6" fill="#3fb950" opacity="0.7"/>
<circle cx="329.2" cy="320.4" r="2.6" fill="#3fb950" opacity="0.7"/>
<circle cx="348.2" cy="323.6" r="2.6" fill="#3fb950" opacity="0.7"/>
<circle cx="367.1" cy="341.5" r="2.6" fill="#3fb950" opacity="0.7"/>
<circle cx="386.1" cy="349.2" r="2.6" fill="#3fb950" opacity="0.7"/>
<circle cx="405.1" cy="353.7" r="2.6" fill="#3fb950" opacity="0.7"/>
<circle cx="424.0" cy="334.0" r="2.6" fill="#3fb950" opacity="0.7"/>
<circle cx="443.0" cy="347.9" r="2.6" fill="#3fb950" opacity="0.7"/>
<circle cx="461.9" cy="343.5" r="2.6" fill="#3fb950" opacity="0.7"/>
<circle cx="480.9" cy="307.2" r="2.6" fill="#3fb950" opacity="0.7"/>
<circle cx="499.9" cy="351.6" r="2.6" fill="#3fb950" opacity="0.7"/>
<circle cx="518.8" cy="320.9" r="2.6" fill="#3fb950" opacity="0.7"/>
<circle cx="537.8" cy="354.7" r="2.6" fill="#3fb950" opacity="0.7"/>
<circle cx="556.7" cy="311.0" r="2.6" fill="#3fb950" opacity="0.7"/>
<circle cx="575.7" cy="363.0" r="2.6" fill="#3fb950" opacity="0.7"/>
<circle cx="594.7" cy="319.7" r="2.6" fill="#3fb950" opacity="0.7"/>
<circle cx="613.6" cy="315.3" r="2.6" fill="#3fb950" opacity="0.7"/>
<circle cx="632.6" cy="320.6" r="2.6" fill="#3fb950" opacity="0.7"/>
<circle cx="651.6" cy="361.6" r="2.6" fill="#3fb950" opacity="0.7"/>
<circle cx="670.5" cy="312.4" r="2.6" fill="#3fb950" opacity="0.7"/>
<circle cx="689.5" cy="316.7" r="2.6" fill="#3fb950" opacity="0.7"/>
<circle cx="708.4" cy="322.5" r="2.6" fill="#3fb950" opacity="0.7"/>
<circle cx="727.4" cy="353.6" r="2.6" fill="#3fb950" opacity="0.7"/>
<circle cx="746.4" cy="367.1" r="2.6" fill="#3fb950" opacity="0.7"/>
<circle cx="765.3" cy="359.8" r="2.6" fill="#3fb950" opacity="0.7"/>
<circle cx="784.3" cy="362.4" r="2.6" fill="#3fb950" opacity="0.7"/>
<circle cx="97.7" cy="266.5" r="3.2" fill="#ff922b" opacity="0.85"/>
<circle cx="116.7" cy="312.9" r="3.2" fill="#ff922b" opacity="0.85"/>
<circle cx="135.6" cy="277.1" r="3.2" fill="#ff922b" opacity="0.85"/>
<circle cx="154.6" cy="315.4" r="3.2" fill="#ff922b" opacity="0.85"/>
<circle cx="173.6" cy="265.9" r="3.2" fill="#ff922b" opacity="0.85"/>
<circle cx="192.5" cy="261.8" r="3.2" fill="#ff922b" opacity="0.85"/>
<circle cx="211.5" cy="276.2" r="3.2" fill="#ff922b" opacity="0.85"/>
<circle cx="230.4" cy="250.0" r="3.2" fill="#ff922b" opacity="0.85"/>
<circle cx="249.4" cy="238.4" r="3.2" fill="#ff922b" opacity="0.85"/>
<circle cx="268.4" cy="251.8" r="3.2" fill="#ff922b" opacity="0.85"/>
<circle cx="287.3" cy="280.5" r="3.2" fill="#ff922b" opacity="0.85"/>
<circle cx="306.3" cy="256.0" r="3.2" fill="#ff922b" opacity="0.85"/>
<circle cx="325.3" cy="234.7" r="3.2" fill="#ff922b" opacity="0.85"/>
<circle cx="344.2" cy="236.2" r="3.2" fill="#ff922b" opacity="0.85"/>
<circle cx="363.2" cy="282.4" r="3.2" fill="#ff922b" opacity="0.85"/>
<circle cx="382.1" cy="292.9" r="3.2" fill="#ff922b" opacity="0.85"/>
<circle cx="401.1" cy="298.0" r="3.2" fill="#ff922b" opacity="0.85"/>
<circle cx="420.1" cy="254.2" r="3.2" fill="#ff922b" opacity="0.85"/>
<circle cx="439.0" cy="290.9" r="3.2" fill="#ff922b" opacity="0.85"/>
<circle cx="458.0" cy="263.8" r="3.2" fill="#ff922b" opacity="0.85"/>
<circle cx="476.9" cy="219.7" r="3.2" fill="#ff922b" opacity="0.85"/>
<circle cx="495.9" cy="257.8" r="3.2" fill="#ff922b" opacity="0.85"/>
<circle cx="514.9" cy="226.4" r="3.2" fill="#ff922b" opacity="0.85"/>
<circle cx="533.8" cy="298.8" r="3.2" fill="#ff922b" opacity="0.85"/>
<circle cx="552.8" cy="215.4" r="3.2" fill="#ff922b" opacity="0.85"/>
<circle cx="571.8" cy="284.0" r="3.2" fill="#ff922b" opacity="0.85"/>
<circle cx="590.7" cy="252.2" r="3.2" fill="#ff922b" opacity="0.85"/>
<circle cx="609.7" cy="232.6" r="3.2" fill="#ff922b" opacity="0.85"/>
<circle cx="628.6" cy="243.8" r="3.2" fill="#ff922b" opacity="0.85"/>
<circle cx="647.6" cy="322.4" r="3.2" fill="#ff922b" opacity="0.85"/>
<circle cx="666.6" cy="238.0" r="3.2" fill="#ff922b" opacity="0.85"/>
<circle cx="685.5" cy="250.8" r="3.2" fill="#ff922b" opacity="0.85"/>
<circle cx="704.5" cy="257.4" r="3.2" fill="#ff922b" opacity="0.85"/>
<circle cx="723.5" cy="308.7" r="3.2" fill="#ff922b" opacity="0.85"/>
<circle cx="742.4" cy="308.3" r="3.2" fill="#ff922b" opacity="0.85"/>
<circle cx="761.4" cy="304.2" r="3.2" fill="#ff922b" opacity="0.85"/>
<circle cx="780.3" cy="314.6" r="3.2" fill="#ff922b" opacity="0.85"/>
<circle cx="847" cy="84" r="5" fill="#ff922b"/>
<text x="866" y="88" font-size="13" fill="#c9d1d9" font-weight="700">Kāra</text>
<line x1="836" y1="108" x2="858" y2="108" stroke="#a7b0bc" stroke-width="2" stroke-dasharray="5 4"/>
<text x="866" y="112" font-size="13" fill="#c9d1d9" font-weight="400">Rust = 1.0×</text>
<circle cx="847" cy="132" r="4" fill="#3fb950"/>
<text x="866" y="136" font-size="13" fill="#c9d1d9" font-weight="400">C</text>
<text x="70" y="538" font-size="11.5" fill="#8b949e">Each dot is one benchmarked program (kata × approach); there is no connecting line because left-to-right order is not meaningful. Raw numbers: bench-results.json</text>
</svg>