<svg xmlns="http://www.w3.org/2000/svg" width="980" height="560" viewBox="0 0 980 560" font-family="-apple-system,Segoe UI,Helvetica,Arial,sans-serif">
<rect width="980" height="560" fill="#282c34"/>
<text x="70" y="34" font-size="21" font-weight="700" fill="#c9d1d9">Compile peak memory (cold)</text>
<text x="70" y="56" font-size="13" fill="#8b949e">relative to Rust = 1.0 · lower = leaner · 90 programs</text>
<line x1="70" y1="456.0" x2="812" y2="456.0" stroke="#3b414b" stroke-width="1"/>
<text x="60" y="460.0" font-size="12" text-anchor="end" fill="#8b949e">0.0×</text>
<line x1="70" y1="330.0" x2="812" y2="330.0" stroke="#3b414b" stroke-width="1"/>
<text x="60" y="334.0" font-size="12" text-anchor="end" fill="#8b949e">0.5×</text>
<line x1="70" y1="204.0" x2="812" y2="204.0" stroke="#a7b0bc" stroke-width="2" stroke-dasharray="5 4"/>
<text x="60" y="208.0" font-size="12" text-anchor="end" fill="#aeb6c0" font-weight="700">1.0×</text>
<line x1="70" y1="78.0" x2="812" y2="78.0" stroke="#3b414b" stroke-width="1"/>
<text x="60" y="82.0" font-size="12" text-anchor="end" fill="#8b949e">1.5×</text>
<text x="812" y="198.0" font-size="11" text-anchor="end" fill="#aeb6c0">Rust baseline</text>
<line x1="70" y1="456" x2="812" y2="456" stroke="#3b414b"/>
<text x="441.0" y="478" font-size="11" text-anchor="middle" fill="#8b949e">90 programs (kata × approach) — x-order carries no meaning</text>
<circle cx="100.7" cy="431.6" r="2.6" fill="#3fb950" opacity="0.7"/>
<circle cx="108.4" cy="438.7" r="2.6" fill="#3fb950" opacity="0.7"/>
<circle cx="116.1" cy="435.8" r="2.6" fill="#3fb950" opacity="0.7"/>
<circle cx="123.7" cy="439.1" r="2.6" fill="#3fb950" opacity="0.7"/>
<circle cx="131.4" cy="434.2" r="2.6" fill="#3fb950" opacity="0.7"/>
<circle cx="139.1" cy="434.5" r="2.6" fill="#3fb950" opacity="0.7"/>
<circle cx="146.7" cy="435.8" r="2.6" fill="#3fb950" opacity="0.7"/>
<circle cx="154.4" cy="432.0" r="2.6" fill="#3fb950" opacity="0.7"/>
<circle cx="162.1" cy="431.7" r="2.6" fill="#3fb950" opacity="0.7"/>
<circle cx="169.8" cy="432.3" r="2.6" fill="#3fb950" opacity="0.7"/>
<circle cx="177.4" cy="432.1" r="2.6" fill="#3fb950" opacity="0.7"/>
<circle cx="185.1" cy="433.4" r="2.6" fill="#3fb950" opacity="0.7"/>
<circle cx="192.8" cy="433.0" r="2.6" fill="#3fb950" opacity="0.7"/>
<circle cx="200.4" cy="433.3" r="2.6" fill="#3fb950" opacity="0.7"/>
<circle cx="208.1" cy="434.3" r="2.6" fill="#3fb950" opacity="0.7"/>
<circle cx="215.8" cy="439.1" r="2.6" fill="#3fb950" opacity="0.7"/>
<circle cx="223.4" cy="438.8" r="2.6" fill="#3fb950" opacity="0.7"/>
<circle cx="231.1" cy="433.2" r="2.6" fill="#3fb950" opacity="0.7"/>
<circle cx="238.8" cy="439.4" r="2.6" fill="#3fb950" opacity="0.7"/>
<circle cx="246.5" cy="434.9" r="2.6" fill="#3fb950" opacity="0.7"/>
<circle cx="254.1" cy="432.1" r="2.6" fill="#3fb950" opacity="0.7"/>
<circle cx="261.8" cy="435.3" r="2.6" fill="#3fb950" opacity="0.7"/>
<circle cx="269.5" cy="432.8" r="2.6" fill="#3fb950" opacity="0.7"/>
<circle cx="277.1" cy="436.7" r="2.6" fill="#3fb950" opacity="0.7"/>
<circle cx="284.8" cy="434.7" r="2.6" fill="#3fb950" opacity="0.7"/>
<circle cx="292.5" cy="435.6" r="2.6" fill="#3fb950" opacity="0.7"/>
<circle cx="300.1" cy="433.8" r="2.6" fill="#3fb950" opacity="0.7"/>
<circle cx="307.8" cy="434.0" r="2.6" fill="#3fb950" opacity="0.7"/>
<circle cx="315.5" cy="431.9" r="2.6" fill="#3fb950" opacity="0.7"/>
<circle cx="323.2" cy="433.4" r="2.6" fill="#3fb950" opacity="0.7"/>
<circle cx="330.8" cy="430.6" r="2.6" fill="#3fb950" opacity="0.7"/>
<circle cx="338.5" cy="439.9" r="2.6" fill="#3fb950" opacity="0.7"/>
<circle cx="346.2" cy="431.0" r="2.6" fill="#3fb950" opacity="0.7"/>
<circle cx="353.8" cy="432.1" r="2.6" fill="#3fb950" opacity="0.7"/>
<circle cx="361.5" cy="431.8" r="2.6" fill="#3fb950" opacity="0.7"/>
<circle cx="369.2" cy="432.1" r="2.6" fill="#3fb950" opacity="0.7"/>
<circle cx="376.8" cy="431.8" r="2.6" fill="#3fb950" opacity="0.7"/>
<circle cx="384.5" cy="431.4" r="2.6" fill="#3fb950" opacity="0.7"/>
<circle cx="392.2" cy="431.9" r="2.6" fill="#3fb950" opacity="0.7"/>
<circle cx="399.9" cy="433.4" r="2.6" fill="#3fb950" opacity="0.7"/>
<circle cx="407.5" cy="434.1" r="2.6" fill="#3fb950" opacity="0.7"/>
<circle cx="415.2" cy="436.9" r="2.6" fill="#3fb950" opacity="0.7"/>
<circle cx="422.9" cy="433.4" r="2.6" fill="#3fb950" opacity="0.7"/>
<circle cx="430.5" cy="433.0" r="2.6" fill="#3fb950" opacity="0.7"/>
<circle cx="438.2" cy="435.6" r="2.6" fill="#3fb950" opacity="0.7"/>
<circle cx="445.9" cy="435.2" r="2.6" fill="#3fb950" opacity="0.7"/>
<circle cx="453.5" cy="433.8" r="2.6" fill="#3fb950" opacity="0.7"/>
<circle cx="461.2" cy="435.8" r="2.6" fill="#3fb950" opacity="0.7"/>
<circle cx="468.9" cy="439.5" r="2.6" fill="#3fb950" opacity="0.7"/>
<circle cx="476.6" cy="435.7" r="2.6" fill="#3fb950" opacity="0.7"/>
<circle cx="484.2" cy="443.0" r="2.6" fill="#3fb950" opacity="0.7"/>
<circle cx="491.9" cy="430.7" r="2.6" fill="#3fb950" opacity="0.7"/>
<circle cx="499.6" cy="431.2" r="2.6" fill="#3fb950" opacity="0.7"/>
<circle cx="507.2" cy="430.8" r="2.6" fill="#3fb950" opacity="0.7"/>
<circle cx="514.9" cy="429.6" r="2.6" fill="#3fb950" opacity="0.7"/>
<circle cx="522.6" cy="430.6" r="2.6" fill="#3fb950" opacity="0.7"/>
<circle cx="530.2" cy="431.8" r="2.6" fill="#3fb950" opacity="0.7"/>
<circle cx="537.9" cy="439.4" r="2.6" fill="#3fb950" opacity="0.7"/>
<circle cx="545.6" cy="435.4" r="2.6" fill="#3fb950" opacity="0.7"/>
<circle cx="553.3" cy="435.6" r="2.6" fill="#3fb950" opacity="0.7"/>
<circle cx="560.9" cy="435.9" r="2.6" fill="#3fb950" opacity="0.7"/>
<circle cx="568.6" cy="434.9" r="2.6" fill="#3fb950" opacity="0.7"/>
<circle cx="576.3" cy="433.4" r="2.6" fill="#3fb950" opacity="0.7"/>
<circle cx="583.9" cy="432.7" r="2.6" fill="#3fb950" opacity="0.7"/>
<circle cx="591.6" cy="433.1" r="2.6" fill="#3fb950" opacity="0.7"/>
<circle cx="599.3" cy="432.2" r="2.6" fill="#3fb950" opacity="0.7"/>
<circle cx="606.9" cy="430.5" r="2.6" fill="#3fb950" opacity="0.7"/>
<circle cx="614.6" cy="432.2" r="2.6" fill="#3fb950" opacity="0.7"/>
<circle cx="622.3" cy="429.8" r="2.6" fill="#3fb950" opacity="0.7"/>
<circle cx="630.0" cy="430.3" r="2.6" fill="#3fb950" opacity="0.7"/>
<circle cx="637.6" cy="436.2" r="2.6" fill="#3fb950" opacity="0.7"/>
<circle cx="645.3" cy="433.2" r="2.6" fill="#3fb950" opacity="0.7"/>
<circle cx="653.0" cy="434.8" r="2.6" fill="#3fb950" opacity="0.7"/>
<circle cx="660.6" cy="432.0" r="2.6" fill="#3fb950" opacity="0.7"/>
<circle cx="668.3" cy="432.5" r="2.6" fill="#3fb950" opacity="0.7"/>
<circle cx="676.0" cy="432.8" r="2.6" fill="#3fb950" opacity="0.7"/>
<circle cx="683.7" cy="432.8" r="2.6" fill="#3fb950" opacity="0.7"/>
<circle cx="691.3" cy="441.6" r="2.6" fill="#3fb950" opacity="0.7"/>
<circle cx="699.0" cy="432.2" r="2.6" fill="#3fb950" opacity="0.7"/>
<circle cx="706.7" cy="434.1" r="2.6" fill="#3fb950" opacity="0.7"/>
<circle cx="714.3" cy="435.5" r="2.6" fill="#3fb950" opacity="0.7"/>
<circle cx="722.0" cy="432.2" r="2.6" fill="#3fb950" opacity="0.7"/>
<circle cx="729.7" cy="437.2" r="2.6" fill="#3fb950" opacity="0.7"/>
<circle cx="737.3" cy="436.9" r="2.6" fill="#3fb950" opacity="0.7"/>
<circle cx="745.0" cy="434.6" r="2.6" fill="#3fb950" opacity="0.7"/>
<circle cx="752.7" cy="433.5" r="2.6" fill="#3fb950" opacity="0.7"/>
<circle cx="760.4" cy="434.4" r="2.6" fill="#3fb950" opacity="0.7"/>
<circle cx="768.0" cy="435.8" r="2.6" fill="#3fb950" opacity="0.7"/>
<circle cx="775.7" cy="438.9" r="2.6" fill="#3fb950" opacity="0.7"/>
<circle cx="783.4" cy="441.8" r="2.6" fill="#3fb950" opacity="0.7"/>
<circle cx="98.6" cy="330.2" r="3.2" fill="#ff922b" opacity="0.85"/>
<circle cx="106.3" cy="366.3" r="3.2" fill="#ff922b" opacity="0.85"/>
<circle cx="114.0" cy="348.3" r="3.2" fill="#ff922b" opacity="0.85"/>
<circle cx="121.6" cy="368.1" r="3.2" fill="#ff922b" opacity="0.85"/>
<circle cx="129.3" cy="338.7" r="3.2" fill="#ff922b" opacity="0.85"/>
<circle cx="137.0" cy="342.1" r="3.2" fill="#ff922b" opacity="0.85"/>
<circle cx="144.7" cy="344.6" r="3.2" fill="#ff922b" opacity="0.85"/>
<circle cx="152.3" cy="334.2" r="3.2" fill="#ff922b" opacity="0.85"/>
<circle cx="160.0" cy="327.6" r="3.2" fill="#ff922b" opacity="0.85"/>
<circle cx="167.7" cy="330.4" r="3.2" fill="#ff922b" opacity="0.85"/>
<circle cx="175.3" cy="325.6" r="3.2" fill="#ff922b" opacity="0.85"/>
<circle cx="183.0" cy="336.7" r="3.2" fill="#ff922b" opacity="0.85"/>
<circle cx="190.7" cy="325.6" r="3.2" fill="#ff922b" opacity="0.85"/>
<circle cx="198.3" cy="321.2" r="3.2" fill="#ff922b" opacity="0.85"/>
<circle cx="206.0" cy="336.9" r="3.2" fill="#ff922b" opacity="0.85"/>
<circle cx="213.7" cy="352.4" r="3.2" fill="#ff922b" opacity="0.85"/>
<circle cx="221.4" cy="354.1" r="3.2" fill="#ff922b" opacity="0.85"/>
<circle cx="229.0" cy="331.3" r="3.2" fill="#ff922b" opacity="0.85"/>
<circle cx="236.7" cy="340.2" r="3.2" fill="#ff922b" opacity="0.85"/>
<circle cx="244.4" cy="341.5" r="3.2" fill="#ff922b" opacity="0.85"/>
<circle cx="252.0" cy="330.6" r="3.2" fill="#ff922b" opacity="0.85"/>
<circle cx="259.7" cy="338.7" r="3.2" fill="#ff922b" opacity="0.85"/>
<circle cx="267.4" cy="336.2" r="3.2" fill="#ff922b" opacity="0.85"/>
<circle cx="275.1" cy="339.5" r="3.2" fill="#ff922b" opacity="0.85"/>
<circle cx="282.7" cy="341.0" r="3.2" fill="#ff922b" opacity="0.85"/>
<circle cx="290.4" cy="339.5" r="3.2" fill="#ff922b" opacity="0.85"/>
<circle cx="298.1" cy="340.1" r="3.2" fill="#ff922b" opacity="0.85"/>
<circle cx="305.7" cy="341.6" r="3.2" fill="#ff922b" opacity="0.85"/>
<circle cx="313.4" cy="331.3" r="3.2" fill="#ff922b" opacity="0.85"/>
<circle cx="321.1" cy="334.9" r="3.2" fill="#ff922b" opacity="0.85"/>
<circle cx="328.7" cy="328.8" r="3.2" fill="#ff922b" opacity="0.85"/>
<circle cx="336.4" cy="358.6" r="3.2" fill="#ff922b" opacity="0.85"/>
<circle cx="344.1" cy="325.4" r="3.2" fill="#ff922b" opacity="0.85"/>
<circle cx="351.8" cy="330.5" r="3.2" fill="#ff922b" opacity="0.85"/>
<circle cx="359.4" cy="332.9" r="3.2" fill="#ff922b" opacity="0.85"/>
<circle cx="367.1" cy="331.8" r="3.2" fill="#ff922b" opacity="0.85"/>
<circle cx="374.8" cy="332.5" r="3.2" fill="#ff922b" opacity="0.85"/>
<circle cx="382.4" cy="290.0" r="3.2" fill="#ff922b" opacity="0.85"/>
<circle cx="390.1" cy="308.0" r="3.2" fill="#ff922b" opacity="0.85"/>
<circle cx="397.8" cy="332.6" r="3.2" fill="#ff922b" opacity="0.85"/>
<circle cx="405.4" cy="336.9" r="3.2" fill="#ff922b" opacity="0.85"/>
<circle cx="413.1" cy="346.4" r="3.2" fill="#ff922b" opacity="0.85"/>
<circle cx="420.8" cy="337.1" r="3.2" fill="#ff922b" opacity="0.85"/>
<circle cx="428.5" cy="335.6" r="3.2" fill="#ff922b" opacity="0.85"/>
<circle cx="436.1" cy="334.7" r="3.2" fill="#ff922b" opacity="0.85"/>
<circle cx="443.8" cy="344.1" r="3.2" fill="#ff922b" opacity="0.85"/>
<circle cx="451.5" cy="339.7" r="3.2" fill="#ff922b" opacity="0.85"/>
<circle cx="459.1" cy="344.1" r="3.2" fill="#ff922b" opacity="0.85"/>
<circle cx="466.8" cy="361.9" r="3.2" fill="#ff922b" opacity="0.85"/>
<circle cx="474.5" cy="298.5" r="3.2" fill="#ff922b" opacity="0.85"/>
<circle cx="482.1" cy="360.2" r="3.2" fill="#ff922b" opacity="0.85"/>
<circle cx="489.8" cy="274.7" r="3.2" fill="#ff922b" opacity="0.85"/>
<circle cx="497.5" cy="269.5" r="3.2" fill="#ff922b" opacity="0.85"/>
<circle cx="505.2" cy="265.6" r="3.2" fill="#ff922b" opacity="0.85"/>
<circle cx="512.8" cy="261.5" r="3.2" fill="#ff922b" opacity="0.85"/>
<circle cx="520.5" cy="254.2" r="3.2" fill="#ff922b" opacity="0.85"/>
<circle cx="528.2" cy="281.4" r="3.2" fill="#ff922b" opacity="0.85"/>
<circle cx="535.8" cy="365.0" r="3.2" fill="#ff922b" opacity="0.85"/>
<circle cx="543.5" cy="291.7" r="3.2" fill="#ff922b" opacity="0.85"/>
<circle cx="551.2" cy="289.6" r="3.2" fill="#ff922b" opacity="0.85"/>
<circle cx="558.8" cy="290.8" r="3.2" fill="#ff922b" opacity="0.85"/>
<circle cx="566.5" cy="286.2" r="3.2" fill="#ff922b" opacity="0.85"/>
<circle cx="574.2" cy="292.3" r="3.2" fill="#ff922b" opacity="0.85"/>
<circle cx="581.9" cy="281.6" r="3.2" fill="#ff922b" opacity="0.85"/>
<circle cx="589.5" cy="280.7" r="3.2" fill="#ff922b" opacity="0.85"/>
<circle cx="597.2" cy="327.4" r="3.2" fill="#ff922b" opacity="0.85"/>
<circle cx="604.9" cy="265.6" r="3.2" fill="#ff922b" opacity="0.85"/>
<circle cx="612.5" cy="242.3" r="3.2" fill="#ff922b" opacity="0.85"/>
<circle cx="620.2" cy="263.3" r="3.2" fill="#ff922b" opacity="0.85"/>
<circle cx="627.9" cy="265.9" r="3.2" fill="#ff922b" opacity="0.85"/>
<circle cx="635.5" cy="344.1" r="3.2" fill="#ff922b" opacity="0.85"/>
<circle cx="643.2" cy="277.5" r="3.2" fill="#ff922b" opacity="0.85"/>
<circle cx="650.9" cy="345.4" r="3.2" fill="#ff922b" opacity="0.85"/>
<circle cx="658.6" cy="334.0" r="3.2" fill="#ff922b" opacity="0.85"/>
<circle cx="666.2" cy="269.7" r="3.2" fill="#ff922b" opacity="0.85"/>
<circle cx="673.9" cy="338.4" r="3.2" fill="#ff922b" opacity="0.85"/>
<circle cx="681.6" cy="333.2" r="3.2" fill="#ff922b" opacity="0.85"/>
<circle cx="689.2" cy="375.2" r="3.2" fill="#ff922b" opacity="0.85"/>
<circle cx="696.9" cy="334.3" r="3.2" fill="#ff922b" opacity="0.85"/>
<circle cx="704.6" cy="341.6" r="3.2" fill="#ff922b" opacity="0.85"/>
<circle cx="712.2" cy="346.9" r="3.2" fill="#ff922b" opacity="0.85"/>
<circle cx="719.9" cy="334.4" r="3.2" fill="#ff922b" opacity="0.85"/>
<circle cx="727.6" cy="349.7" r="3.2" fill="#ff922b" opacity="0.85"/>
<circle cx="735.3" cy="349.7" r="3.2" fill="#ff922b" opacity="0.85"/>
<circle cx="742.9" cy="338.7" r="3.2" fill="#ff922b" opacity="0.85"/>
<circle cx="750.6" cy="338.7" r="3.2" fill="#ff922b" opacity="0.85"/>
<circle cx="758.3" cy="332.4" r="3.2" fill="#ff922b" opacity="0.85"/>
<circle cx="765.9" cy="336.4" r="3.2" fill="#ff922b" opacity="0.85"/>
<circle cx="773.6" cy="367.4" r="3.2" fill="#ff922b" opacity="0.85"/>
<circle cx="781.3" cy="370.7" r="3.2" fill="#ff922b" opacity="0.85"/>
<circle cx="847" cy="84" r="5" fill="#ff922b"/>
<text x="866" y="88" font-size="13" fill="#c9d1d9" font-weight="700">Kāra</text>
<line x1="836" y1="108" x2="858" y2="108" stroke="#a7b0bc" stroke-width="2" stroke-dasharray="5 4"/>
<text x="866" y="112" font-size="13" fill="#c9d1d9" font-weight="400">Rust = 1.0×</text>
<circle cx="847" cy="132" r="4" fill="#3fb950"/>
<text x="866" y="136" font-size="13" fill="#c9d1d9" font-weight="400">C</text>
<text x="70" y="538" font-size="11.5" fill="#8b949e">Each dot is one benchmarked program (kata × approach); there is no connecting line because left-to-right order is not meaningful. Raw numbers: bench-results.json</text>
</svg>