<svg xmlns="http://www.w3.org/2000/svg" width="980" height="560" viewBox="0 0 980 560" font-family="-apple-system,Segoe UI,Helvetica,Arial,sans-serif">
<rect width="980" height="560" fill="#282c34"/>
<text x="70" y="34" font-size="21" font-weight="700" fill="#c9d1d9">Compile peak memory (cold)</text>
<text x="70" y="56" font-size="13" fill="#8b949e">relative to Rust = 1.0 · lower = leaner · 56 programs</text>
<line x1="70" y1="456.0" x2="812" y2="456.0" stroke="#3b414b" stroke-width="1"/>
<text x="60" y="460.0" font-size="12" text-anchor="end" fill="#8b949e">0.0×</text>
<line x1="70" y1="330.0" x2="812" y2="330.0" stroke="#3b414b" stroke-width="1"/>
<text x="60" y="334.0" font-size="12" text-anchor="end" fill="#8b949e">0.5×</text>
<line x1="70" y1="204.0" x2="812" y2="204.0" stroke="#a7b0bc" stroke-width="2" stroke-dasharray="5 4"/>
<text x="60" y="208.0" font-size="12" text-anchor="end" fill="#aeb6c0" font-weight="700">1.0×</text>
<line x1="70" y1="78.0" x2="812" y2="78.0" stroke="#3b414b" stroke-width="1"/>
<text x="60" y="82.0" font-size="12" text-anchor="end" fill="#8b949e">1.5×</text>
<text x="812" y="198.0" font-size="11" text-anchor="end" fill="#aeb6c0">Rust baseline</text>
<line x1="70" y1="456" x2="812" y2="456" stroke="#3b414b"/>
<text x="441.0" y="478" font-size="11" text-anchor="middle" fill="#8b949e">56 programs (kata × approach) — x-order carries no meaning</text>
<circle cx="101.4" cy="431.6" r="2.6" fill="#3fb950" opacity="0.7"/>
<circle cx="113.8" cy="438.7" r="2.6" fill="#3fb950" opacity="0.7"/>
<circle cx="126.2" cy="435.8" r="2.6" fill="#3fb950" opacity="0.7"/>
<circle cx="138.6" cy="439.1" r="2.6" fill="#3fb950" opacity="0.7"/>
<circle cx="151.0" cy="434.2" r="2.6" fill="#3fb950" opacity="0.7"/>
<circle cx="163.4" cy="434.5" r="2.6" fill="#3fb950" opacity="0.7"/>
<circle cx="175.8" cy="435.8" r="2.6" fill="#3fb950" opacity="0.7"/>
<circle cx="188.2" cy="432.0" r="2.6" fill="#3fb950" opacity="0.7"/>
<circle cx="200.7" cy="431.7" r="2.6" fill="#3fb950" opacity="0.7"/>
<circle cx="213.1" cy="432.3" r="2.6" fill="#3fb950" opacity="0.7"/>
<circle cx="225.5" cy="432.1" r="2.6" fill="#3fb950" opacity="0.7"/>
<circle cx="237.9" cy="433.4" r="2.6" fill="#3fb950" opacity="0.7"/>
<circle cx="250.3" cy="433.0" r="2.6" fill="#3fb950" opacity="0.7"/>
<circle cx="262.7" cy="433.3" r="2.6" fill="#3fb950" opacity="0.7"/>
<circle cx="275.1" cy="434.3" r="2.6" fill="#3fb950" opacity="0.7"/>
<circle cx="287.5" cy="439.1" r="2.6" fill="#3fb950" opacity="0.7"/>
<circle cx="300.0" cy="438.8" r="2.6" fill="#3fb950" opacity="0.7"/>
<circle cx="312.4" cy="433.2" r="2.6" fill="#3fb950" opacity="0.7"/>
<circle cx="324.8" cy="439.4" r="2.6" fill="#3fb950" opacity="0.7"/>
<circle cx="337.2" cy="434.9" r="2.6" fill="#3fb950" opacity="0.7"/>
<circle cx="349.6" cy="432.1" r="2.6" fill="#3fb950" opacity="0.7"/>
<circle cx="362.0" cy="435.3" r="2.6" fill="#3fb950" opacity="0.7"/>
<circle cx="374.4" cy="432.8" r="2.6" fill="#3fb950" opacity="0.7"/>
<circle cx="386.8" cy="436.7" r="2.6" fill="#3fb950" opacity="0.7"/>
<circle cx="399.2" cy="434.7" r="2.6" fill="#3fb950" opacity="0.7"/>
<circle cx="411.7" cy="435.6" r="2.6" fill="#3fb950" opacity="0.7"/>
<circle cx="424.1" cy="433.8" r="2.6" fill="#3fb950" opacity="0.7"/>
<circle cx="436.5" cy="434.0" r="2.6" fill="#3fb950" opacity="0.7"/>
<circle cx="448.9" cy="431.9" r="2.6" fill="#3fb950" opacity="0.7"/>
<circle cx="461.3" cy="433.4" r="2.6" fill="#3fb950" opacity="0.7"/>
<circle cx="473.7" cy="430.6" r="2.6" fill="#3fb950" opacity="0.7"/>
<circle cx="486.1" cy="439.9" r="2.6" fill="#3fb950" opacity="0.7"/>
<circle cx="498.5" cy="431.0" r="2.6" fill="#3fb950" opacity="0.7"/>
<circle cx="511.0" cy="432.1" r="2.6" fill="#3fb950" opacity="0.7"/>
<circle cx="523.4" cy="431.8" r="2.6" fill="#3fb950" opacity="0.7"/>
<circle cx="535.8" cy="435.6" r="2.6" fill="#3fb950" opacity="0.7"/>
<circle cx="548.2" cy="439.4" r="2.6" fill="#3fb950" opacity="0.7"/>
<circle cx="560.6" cy="432.2" r="2.6" fill="#3fb950" opacity="0.7"/>
<circle cx="573.0" cy="436.2" r="2.6" fill="#3fb950" opacity="0.7"/>
<circle cx="585.4" cy="434.8" r="2.6" fill="#3fb950" opacity="0.7"/>
<circle cx="597.8" cy="432.0" r="2.6" fill="#3fb950" opacity="0.7"/>
<circle cx="610.2" cy="432.8" r="2.6" fill="#3fb950" opacity="0.7"/>
<circle cx="622.7" cy="432.8" r="2.6" fill="#3fb950" opacity="0.7"/>
<circle cx="635.1" cy="441.6" r="2.6" fill="#3fb950" opacity="0.7"/>
<circle cx="647.5" cy="432.2" r="2.6" fill="#3fb950" opacity="0.7"/>
<circle cx="659.9" cy="434.1" r="2.6" fill="#3fb950" opacity="0.7"/>
<circle cx="672.3" cy="435.5" r="2.6" fill="#3fb950" opacity="0.7"/>
<circle cx="684.7" cy="432.2" r="2.6" fill="#3fb950" opacity="0.7"/>
<circle cx="697.1" cy="437.2" r="2.6" fill="#3fb950" opacity="0.7"/>
<circle cx="709.5" cy="436.9" r="2.6" fill="#3fb950" opacity="0.7"/>
<circle cx="721.9" cy="434.6" r="2.6" fill="#3fb950" opacity="0.7"/>
<circle cx="734.4" cy="433.5" r="2.6" fill="#3fb950" opacity="0.7"/>
<circle cx="746.8" cy="434.4" r="2.6" fill="#3fb950" opacity="0.7"/>
<circle cx="759.2" cy="435.8" r="2.6" fill="#3fb950" opacity="0.7"/>
<circle cx="771.6" cy="438.9" r="2.6" fill="#3fb950" opacity="0.7"/>
<circle cx="784.0" cy="441.8" r="2.6" fill="#3fb950" opacity="0.7"/>
<circle cx="98.0" cy="330.2" r="3.2" fill="#ff922b" opacity="0.85"/>
<circle cx="110.4" cy="366.3" r="3.2" fill="#ff922b" opacity="0.85"/>
<circle cx="122.8" cy="348.3" r="3.2" fill="#ff922b" opacity="0.85"/>
<circle cx="135.2" cy="368.1" r="3.2" fill="#ff922b" opacity="0.85"/>
<circle cx="147.6" cy="338.7" r="3.2" fill="#ff922b" opacity="0.85"/>
<circle cx="160.1" cy="342.1" r="3.2" fill="#ff922b" opacity="0.85"/>
<circle cx="172.5" cy="344.6" r="3.2" fill="#ff922b" opacity="0.85"/>
<circle cx="184.9" cy="334.2" r="3.2" fill="#ff922b" opacity="0.85"/>
<circle cx="197.3" cy="327.6" r="3.2" fill="#ff922b" opacity="0.85"/>
<circle cx="209.7" cy="330.4" r="3.2" fill="#ff922b" opacity="0.85"/>
<circle cx="222.1" cy="325.6" r="3.2" fill="#ff922b" opacity="0.85"/>
<circle cx="234.5" cy="336.7" r="3.2" fill="#ff922b" opacity="0.85"/>
<circle cx="246.9" cy="325.6" r="3.2" fill="#ff922b" opacity="0.85"/>
<circle cx="259.3" cy="321.2" r="3.2" fill="#ff922b" opacity="0.85"/>
<circle cx="271.8" cy="336.9" r="3.2" fill="#ff922b" opacity="0.85"/>
<circle cx="284.2" cy="352.4" r="3.2" fill="#ff922b" opacity="0.85"/>
<circle cx="296.6" cy="354.1" r="3.2" fill="#ff922b" opacity="0.85"/>
<circle cx="309.0" cy="331.3" r="3.2" fill="#ff922b" opacity="0.85"/>
<circle cx="321.4" cy="340.2" r="3.2" fill="#ff922b" opacity="0.85"/>
<circle cx="333.8" cy="341.5" r="3.2" fill="#ff922b" opacity="0.85"/>
<circle cx="346.2" cy="330.6" r="3.2" fill="#ff922b" opacity="0.85"/>
<circle cx="358.6" cy="338.7" r="3.2" fill="#ff922b" opacity="0.85"/>
<circle cx="371.0" cy="336.2" r="3.2" fill="#ff922b" opacity="0.85"/>
<circle cx="383.5" cy="339.5" r="3.2" fill="#ff922b" opacity="0.85"/>
<circle cx="395.9" cy="341.0" r="3.2" fill="#ff922b" opacity="0.85"/>
<circle cx="408.3" cy="339.5" r="3.2" fill="#ff922b" opacity="0.85"/>
<circle cx="420.7" cy="340.1" r="3.2" fill="#ff922b" opacity="0.85"/>
<circle cx="433.1" cy="341.6" r="3.2" fill="#ff922b" opacity="0.85"/>
<circle cx="445.5" cy="331.3" r="3.2" fill="#ff922b" opacity="0.85"/>
<circle cx="457.9" cy="334.9" r="3.2" fill="#ff922b" opacity="0.85"/>
<circle cx="470.3" cy="328.8" r="3.2" fill="#ff922b" opacity="0.85"/>
<circle cx="482.8" cy="358.6" r="3.2" fill="#ff922b" opacity="0.85"/>
<circle cx="495.2" cy="325.4" r="3.2" fill="#ff922b" opacity="0.85"/>
<circle cx="507.6" cy="330.5" r="3.2" fill="#ff922b" opacity="0.85"/>
<circle cx="520.0" cy="332.9" r="3.2" fill="#ff922b" opacity="0.85"/>
<circle cx="532.4" cy="334.7" r="3.2" fill="#ff922b" opacity="0.85"/>
<circle cx="544.8" cy="365.0" r="3.2" fill="#ff922b" opacity="0.85"/>
<circle cx="557.2" cy="327.4" r="3.2" fill="#ff922b" opacity="0.85"/>
<circle cx="569.6" cy="344.1" r="3.2" fill="#ff922b" opacity="0.85"/>
<circle cx="582.0" cy="345.4" r="3.2" fill="#ff922b" opacity="0.85"/>
<circle cx="594.5" cy="334.0" r="3.2" fill="#ff922b" opacity="0.85"/>
<circle cx="606.9" cy="338.4" r="3.2" fill="#ff922b" opacity="0.85"/>
<circle cx="619.3" cy="333.2" r="3.2" fill="#ff922b" opacity="0.85"/>
<circle cx="631.7" cy="375.2" r="3.2" fill="#ff922b" opacity="0.85"/>
<circle cx="644.1" cy="333.7" r="3.2" fill="#ff922b" opacity="0.85"/>
<circle cx="656.5" cy="339.3" r="3.2" fill="#ff922b" opacity="0.85"/>
<circle cx="668.9" cy="346.9" r="3.2" fill="#ff922b" opacity="0.85"/>
<circle cx="681.3" cy="334.4" r="3.2" fill="#ff922b" opacity="0.85"/>
<circle cx="693.8" cy="349.7" r="3.2" fill="#ff922b" opacity="0.85"/>
<circle cx="706.2" cy="349.7" r="3.2" fill="#ff922b" opacity="0.85"/>
<circle cx="718.6" cy="338.7" r="3.2" fill="#ff922b" opacity="0.85"/>
<circle cx="731.0" cy="338.7" r="3.2" fill="#ff922b" opacity="0.85"/>
<circle cx="743.4" cy="332.4" r="3.2" fill="#ff922b" opacity="0.85"/>
<circle cx="755.8" cy="336.4" r="3.2" fill="#ff922b" opacity="0.85"/>
<circle cx="768.2" cy="367.4" r="3.2" fill="#ff922b" opacity="0.85"/>
<circle cx="780.6" cy="370.7" r="3.2" fill="#ff922b" opacity="0.85"/>
<circle cx="847" cy="84" r="5" fill="#ff922b"/>
<text x="866" y="88" font-size="13" fill="#c9d1d9" font-weight="700">Kāra</text>
<line x1="836" y1="108" x2="858" y2="108" stroke="#a7b0bc" stroke-width="2" stroke-dasharray="5 4"/>
<text x="866" y="112" font-size="13" fill="#c9d1d9" font-weight="400">Rust = 1.0×</text>
<circle cx="847" cy="132" r="4" fill="#3fb950"/>
<text x="866" y="136" font-size="13" fill="#c9d1d9" font-weight="400">C</text>
<text x="70" y="538" font-size="11.5" fill="#8b949e">Each dot is one benchmarked program (kata × approach); there is no connecting line because left-to-right order is not meaningful. Raw numbers: bench-results.json</text>
</svg>