<svg xmlns="http://www.w3.org/2000/svg" width="980" height="560" viewBox="0 0 980 560" font-family="-apple-system,Segoe UI,Helvetica,Arial,sans-serif">
<rect width="980" height="560" fill="#282c34"/>
<text x="70" y="34" font-size="21" font-weight="700" fill="#c9d1d9">Compile peak memory (cold)</text>
<text x="70" y="56" font-size="13" fill="#8b949e">relative to Rust = 1.0 · lower = leaner · 96 programs</text>
<line x1="70" y1="456.0" x2="812" y2="456.0" stroke="#3b414b" stroke-width="1"/>
<text x="60" y="460.0" font-size="12" text-anchor="end" fill="#8b949e">0.0×</text>
<line x1="70" y1="330.0" x2="812" y2="330.0" stroke="#3b414b" stroke-width="1"/>
<text x="60" y="334.0" font-size="12" text-anchor="end" fill="#8b949e">0.5×</text>
<line x1="70" y1="204.0" x2="812" y2="204.0" stroke="#a7b0bc" stroke-width="2" stroke-dasharray="5 4"/>
<text x="60" y="208.0" font-size="12" text-anchor="end" fill="#aeb6c0" font-weight="700">1.0×</text>
<line x1="70" y1="78.0" x2="812" y2="78.0" stroke="#3b414b" stroke-width="1"/>
<text x="60" y="82.0" font-size="12" text-anchor="end" fill="#8b949e">1.5×</text>
<text x="812" y="198.0" font-size="11" text-anchor="end" fill="#aeb6c0">Rust baseline</text>
<line x1="70" y1="456" x2="812" y2="456" stroke="#3b414b"/>
<text x="441.0" y="478" font-size="11" text-anchor="middle" fill="#8b949e">96 programs (kata × approach) — x-order carries no meaning</text>
<circle cx="100.7" cy="431.6" r="2.6" fill="#3fb950" opacity="0.7"/>
<circle cx="107.8" cy="438.7" r="2.6" fill="#3fb950" opacity="0.7"/>
<circle cx="115.0" cy="435.8" r="2.6" fill="#3fb950" opacity="0.7"/>
<circle cx="122.2" cy="439.1" r="2.6" fill="#3fb950" opacity="0.7"/>
<circle cx="129.4" cy="434.2" r="2.6" fill="#3fb950" opacity="0.7"/>
<circle cx="136.6" cy="434.5" r="2.6" fill="#3fb950" opacity="0.7"/>
<circle cx="143.8" cy="435.8" r="2.6" fill="#3fb950" opacity="0.7"/>
<circle cx="151.0" cy="432.0" r="2.6" fill="#3fb950" opacity="0.7"/>
<circle cx="158.1" cy="431.7" r="2.6" fill="#3fb950" opacity="0.7"/>
<circle cx="165.3" cy="432.3" r="2.6" fill="#3fb950" opacity="0.7"/>
<circle cx="172.5" cy="432.1" r="2.6" fill="#3fb950" opacity="0.7"/>
<circle cx="179.7" cy="433.4" r="2.6" fill="#3fb950" opacity="0.7"/>
<circle cx="186.9" cy="433.0" r="2.6" fill="#3fb950" opacity="0.7"/>
<circle cx="194.1" cy="433.3" r="2.6" fill="#3fb950" opacity="0.7"/>
<circle cx="201.3" cy="434.3" r="2.6" fill="#3fb950" opacity="0.7"/>
<circle cx="208.4" cy="439.1" r="2.6" fill="#3fb950" opacity="0.7"/>
<circle cx="215.6" cy="438.8" r="2.6" fill="#3fb950" opacity="0.7"/>
<circle cx="222.8" cy="433.2" r="2.6" fill="#3fb950" opacity="0.7"/>
<circle cx="230.0" cy="439.4" r="2.6" fill="#3fb950" opacity="0.7"/>
<circle cx="237.2" cy="434.9" r="2.6" fill="#3fb950" opacity="0.7"/>
<circle cx="244.4" cy="432.1" r="2.6" fill="#3fb950" opacity="0.7"/>
<circle cx="251.6" cy="435.3" r="2.6" fill="#3fb950" opacity="0.7"/>
<circle cx="258.7" cy="432.8" r="2.6" fill="#3fb950" opacity="0.7"/>
<circle cx="265.9" cy="436.7" r="2.6" fill="#3fb950" opacity="0.7"/>
<circle cx="273.1" cy="434.7" r="2.6" fill="#3fb950" opacity="0.7"/>
<circle cx="280.3" cy="435.6" r="2.6" fill="#3fb950" opacity="0.7"/>
<circle cx="287.5" cy="433.8" r="2.6" fill="#3fb950" opacity="0.7"/>
<circle cx="294.7" cy="434.0" r="2.6" fill="#3fb950" opacity="0.7"/>
<circle cx="301.9" cy="431.9" r="2.6" fill="#3fb950" opacity="0.7"/>
<circle cx="309.0" cy="433.4" r="2.6" fill="#3fb950" opacity="0.7"/>
<circle cx="316.2" cy="430.6" r="2.6" fill="#3fb950" opacity="0.7"/>
<circle cx="323.4" cy="439.9" r="2.6" fill="#3fb950" opacity="0.7"/>
<circle cx="330.6" cy="431.0" r="2.6" fill="#3fb950" opacity="0.7"/>
<circle cx="337.8" cy="432.1" r="2.6" fill="#3fb950" opacity="0.7"/>
<circle cx="345.0" cy="431.8" r="2.6" fill="#3fb950" opacity="0.7"/>
<circle cx="352.2" cy="432.1" r="2.6" fill="#3fb950" opacity="0.7"/>
<circle cx="359.3" cy="431.8" r="2.6" fill="#3fb950" opacity="0.7"/>
<circle cx="366.5" cy="431.4" r="2.6" fill="#3fb950" opacity="0.7"/>
<circle cx="373.7" cy="431.9" r="2.6" fill="#3fb950" opacity="0.7"/>
<circle cx="380.9" cy="433.4" r="2.6" fill="#3fb950" opacity="0.7"/>
<circle cx="388.1" cy="434.1" r="2.6" fill="#3fb950" opacity="0.7"/>
<circle cx="395.3" cy="436.9" r="2.6" fill="#3fb950" opacity="0.7"/>
<circle cx="402.5" cy="433.4" r="2.6" fill="#3fb950" opacity="0.7"/>
<circle cx="409.6" cy="433.0" r="2.6" fill="#3fb950" opacity="0.7"/>
<circle cx="416.8" cy="435.6" r="2.6" fill="#3fb950" opacity="0.7"/>
<circle cx="424.0" cy="435.2" r="2.6" fill="#3fb950" opacity="0.7"/>
<circle cx="431.2" cy="433.8" r="2.6" fill="#3fb950" opacity="0.7"/>
<circle cx="438.4" cy="435.8" r="2.6" fill="#3fb950" opacity="0.7"/>
<circle cx="445.6" cy="439.5" r="2.6" fill="#3fb950" opacity="0.7"/>
<circle cx="452.8" cy="435.7" r="2.6" fill="#3fb950" opacity="0.7"/>
<circle cx="459.9" cy="443.0" r="2.6" fill="#3fb950" opacity="0.7"/>
<circle cx="467.1" cy="430.7" r="2.6" fill="#3fb950" opacity="0.7"/>
<circle cx="474.3" cy="431.2" r="2.6" fill="#3fb950" opacity="0.7"/>
<circle cx="481.5" cy="430.8" r="2.6" fill="#3fb950" opacity="0.7"/>
<circle cx="488.7" cy="429.6" r="2.6" fill="#3fb950" opacity="0.7"/>
<circle cx="495.9" cy="430.6" r="2.6" fill="#3fb950" opacity="0.7"/>
<circle cx="503.1" cy="431.8" r="2.6" fill="#3fb950" opacity="0.7"/>
<circle cx="510.2" cy="439.4" r="2.6" fill="#3fb950" opacity="0.7"/>
<circle cx="517.4" cy="435.4" r="2.6" fill="#3fb950" opacity="0.7"/>
<circle cx="524.6" cy="435.6" r="2.6" fill="#3fb950" opacity="0.7"/>
<circle cx="531.8" cy="435.9" r="2.6" fill="#3fb950" opacity="0.7"/>
<circle cx="539.0" cy="434.9" r="2.6" fill="#3fb950" opacity="0.7"/>
<circle cx="546.2" cy="433.4" r="2.6" fill="#3fb950" opacity="0.7"/>
<circle cx="553.4" cy="432.7" r="2.6" fill="#3fb950" opacity="0.7"/>
<circle cx="560.5" cy="433.1" r="2.6" fill="#3fb950" opacity="0.7"/>
<circle cx="567.7" cy="432.2" r="2.6" fill="#3fb950" opacity="0.7"/>
<circle cx="574.9" cy="430.5" r="2.6" fill="#3fb950" opacity="0.7"/>
<circle cx="582.1" cy="432.2" r="2.6" fill="#3fb950" opacity="0.7"/>
<circle cx="589.3" cy="429.8" r="2.6" fill="#3fb950" opacity="0.7"/>
<circle cx="596.5" cy="430.3" r="2.6" fill="#3fb950" opacity="0.7"/>
<circle cx="603.7" cy="436.2" r="2.6" fill="#3fb950" opacity="0.7"/>
<circle cx="610.8" cy="433.2" r="2.6" fill="#3fb950" opacity="0.7"/>
<circle cx="618.0" cy="434.8" r="2.6" fill="#3fb950" opacity="0.7"/>
<circle cx="625.2" cy="432.9" r="2.6" fill="#3fb950" opacity="0.7"/>
<circle cx="632.4" cy="431.7" r="2.6" fill="#3fb950" opacity="0.7"/>
<circle cx="639.6" cy="433.0" r="2.6" fill="#3fb950" opacity="0.7"/>
<circle cx="646.8" cy="432.4" r="2.6" fill="#3fb950" opacity="0.7"/>
<circle cx="654.0" cy="435.1" r="2.6" fill="#3fb950" opacity="0.7"/>
<circle cx="661.1" cy="434.8" r="2.6" fill="#3fb950" opacity="0.7"/>
<circle cx="668.3" cy="432.0" r="2.6" fill="#3fb950" opacity="0.7"/>
<circle cx="675.5" cy="432.5" r="2.6" fill="#3fb950" opacity="0.7"/>
<circle cx="682.7" cy="432.8" r="2.6" fill="#3fb950" opacity="0.7"/>
<circle cx="689.9" cy="432.8" r="2.6" fill="#3fb950" opacity="0.7"/>
<circle cx="697.1" cy="441.6" r="2.6" fill="#3fb950" opacity="0.7"/>
<circle cx="704.3" cy="432.2" r="2.6" fill="#3fb950" opacity="0.7"/>
<circle cx="711.4" cy="434.1" r="2.6" fill="#3fb950" opacity="0.7"/>
<circle cx="718.6" cy="435.5" r="2.6" fill="#3fb950" opacity="0.7"/>
<circle cx="725.8" cy="432.2" r="2.6" fill="#3fb950" opacity="0.7"/>
<circle cx="733.0" cy="437.2" r="2.6" fill="#3fb950" opacity="0.7"/>
<circle cx="740.2" cy="436.9" r="2.6" fill="#3fb950" opacity="0.7"/>
<circle cx="747.4" cy="434.6" r="2.6" fill="#3fb950" opacity="0.7"/>
<circle cx="754.6" cy="433.5" r="2.6" fill="#3fb950" opacity="0.7"/>
<circle cx="761.7" cy="434.4" r="2.6" fill="#3fb950" opacity="0.7"/>
<circle cx="768.9" cy="435.8" r="2.6" fill="#3fb950" opacity="0.7"/>
<circle cx="776.1" cy="438.9" r="2.6" fill="#3fb950" opacity="0.7"/>
<circle cx="783.3" cy="441.8" r="2.6" fill="#3fb950" opacity="0.7"/>
<circle cx="98.7" cy="330.2" r="3.2" fill="#ff922b" opacity="0.85"/>
<circle cx="105.9" cy="366.3" r="3.2" fill="#ff922b" opacity="0.85"/>
<circle cx="113.1" cy="348.3" r="3.2" fill="#ff922b" opacity="0.85"/>
<circle cx="120.3" cy="368.1" r="3.2" fill="#ff922b" opacity="0.85"/>
<circle cx="127.4" cy="338.7" r="3.2" fill="#ff922b" opacity="0.85"/>
<circle cx="134.6" cy="342.1" r="3.2" fill="#ff922b" opacity="0.85"/>
<circle cx="141.8" cy="344.6" r="3.2" fill="#ff922b" opacity="0.85"/>
<circle cx="149.0" cy="334.2" r="3.2" fill="#ff922b" opacity="0.85"/>
<circle cx="156.2" cy="327.6" r="3.2" fill="#ff922b" opacity="0.85"/>
<circle cx="163.4" cy="330.4" r="3.2" fill="#ff922b" opacity="0.85"/>
<circle cx="170.6" cy="325.6" r="3.2" fill="#ff922b" opacity="0.85"/>
<circle cx="177.7" cy="336.7" r="3.2" fill="#ff922b" opacity="0.85"/>
<circle cx="184.9" cy="325.6" r="3.2" fill="#ff922b" opacity="0.85"/>
<circle cx="192.1" cy="321.2" r="3.2" fill="#ff922b" opacity="0.85"/>
<circle cx="199.3" cy="336.9" r="3.2" fill="#ff922b" opacity="0.85"/>
<circle cx="206.5" cy="352.4" r="3.2" fill="#ff922b" opacity="0.85"/>
<circle cx="213.7" cy="354.1" r="3.2" fill="#ff922b" opacity="0.85"/>
<circle cx="220.9" cy="331.3" r="3.2" fill="#ff922b" opacity="0.85"/>
<circle cx="228.0" cy="340.2" r="3.2" fill="#ff922b" opacity="0.85"/>
<circle cx="235.2" cy="341.5" r="3.2" fill="#ff922b" opacity="0.85"/>
<circle cx="242.4" cy="330.6" r="3.2" fill="#ff922b" opacity="0.85"/>
<circle cx="249.6" cy="338.7" r="3.2" fill="#ff922b" opacity="0.85"/>
<circle cx="256.8" cy="336.2" r="3.2" fill="#ff922b" opacity="0.85"/>
<circle cx="264.0" cy="339.5" r="3.2" fill="#ff922b" opacity="0.85"/>
<circle cx="271.2" cy="341.0" r="3.2" fill="#ff922b" opacity="0.85"/>
<circle cx="278.3" cy="339.5" r="3.2" fill="#ff922b" opacity="0.85"/>
<circle cx="285.5" cy="340.1" r="3.2" fill="#ff922b" opacity="0.85"/>
<circle cx="292.7" cy="341.6" r="3.2" fill="#ff922b" opacity="0.85"/>
<circle cx="299.9" cy="331.3" r="3.2" fill="#ff922b" opacity="0.85"/>
<circle cx="307.1" cy="334.9" r="3.2" fill="#ff922b" opacity="0.85"/>
<circle cx="314.3" cy="328.8" r="3.2" fill="#ff922b" opacity="0.85"/>
<circle cx="321.5" cy="358.6" r="3.2" fill="#ff922b" opacity="0.85"/>
<circle cx="328.6" cy="325.4" r="3.2" fill="#ff922b" opacity="0.85"/>
<circle cx="335.8" cy="330.5" r="3.2" fill="#ff922b" opacity="0.85"/>
<circle cx="343.0" cy="332.9" r="3.2" fill="#ff922b" opacity="0.85"/>
<circle cx="350.2" cy="331.8" r="3.2" fill="#ff922b" opacity="0.85"/>
<circle cx="357.4" cy="332.5" r="3.2" fill="#ff922b" opacity="0.85"/>
<circle cx="364.6" cy="290.0" r="3.2" fill="#ff922b" opacity="0.85"/>
<circle cx="371.8" cy="308.0" r="3.2" fill="#ff922b" opacity="0.85"/>
<circle cx="378.9" cy="332.6" r="3.2" fill="#ff922b" opacity="0.85"/>
<circle cx="386.1" cy="336.9" r="3.2" fill="#ff922b" opacity="0.85"/>
<circle cx="393.3" cy="346.4" r="3.2" fill="#ff922b" opacity="0.85"/>
<circle cx="400.5" cy="337.1" r="3.2" fill="#ff922b" opacity="0.85"/>
<circle cx="407.7" cy="335.6" r="3.2" fill="#ff922b" opacity="0.85"/>
<circle cx="414.9" cy="334.7" r="3.2" fill="#ff922b" opacity="0.85"/>
<circle cx="422.1" cy="344.1" r="3.2" fill="#ff922b" opacity="0.85"/>
<circle cx="429.2" cy="339.7" r="3.2" fill="#ff922b" opacity="0.85"/>
<circle cx="436.4" cy="344.1" r="3.2" fill="#ff922b" opacity="0.85"/>
<circle cx="443.6" cy="361.9" r="3.2" fill="#ff922b" opacity="0.85"/>
<circle cx="450.8" cy="298.5" r="3.2" fill="#ff922b" opacity="0.85"/>
<circle cx="458.0" cy="360.2" r="3.2" fill="#ff922b" opacity="0.85"/>
<circle cx="465.2" cy="274.7" r="3.2" fill="#ff922b" opacity="0.85"/>
<circle cx="472.4" cy="269.5" r="3.2" fill="#ff922b" opacity="0.85"/>
<circle cx="479.5" cy="265.6" r="3.2" fill="#ff922b" opacity="0.85"/>
<circle cx="486.7" cy="261.5" r="3.2" fill="#ff922b" opacity="0.85"/>
<circle cx="493.9" cy="254.2" r="3.2" fill="#ff922b" opacity="0.85"/>
<circle cx="501.1" cy="281.4" r="3.2" fill="#ff922b" opacity="0.85"/>
<circle cx="508.3" cy="365.0" r="3.2" fill="#ff922b" opacity="0.85"/>
<circle cx="515.5" cy="291.7" r="3.2" fill="#ff922b" opacity="0.85"/>
<circle cx="522.7" cy="289.6" r="3.2" fill="#ff922b" opacity="0.85"/>
<circle cx="529.8" cy="290.8" r="3.2" fill="#ff922b" opacity="0.85"/>
<circle cx="537.0" cy="286.2" r="3.2" fill="#ff922b" opacity="0.85"/>
<circle cx="544.2" cy="292.3" r="3.2" fill="#ff922b" opacity="0.85"/>
<circle cx="551.4" cy="281.6" r="3.2" fill="#ff922b" opacity="0.85"/>
<circle cx="558.6" cy="280.7" r="3.2" fill="#ff922b" opacity="0.85"/>
<circle cx="565.8" cy="327.4" r="3.2" fill="#ff922b" opacity="0.85"/>
<circle cx="573.0" cy="265.6" r="3.2" fill="#ff922b" opacity="0.85"/>
<circle cx="580.1" cy="242.3" r="3.2" fill="#ff922b" opacity="0.85"/>
<circle cx="587.3" cy="263.3" r="3.2" fill="#ff922b" opacity="0.85"/>
<circle cx="594.5" cy="265.9" r="3.2" fill="#ff922b" opacity="0.85"/>
<circle cx="601.7" cy="344.1" r="3.2" fill="#ff922b" opacity="0.85"/>
<circle cx="608.9" cy="277.5" r="3.2" fill="#ff922b" opacity="0.85"/>
<circle cx="616.1" cy="278.4" r="3.2" fill="#ff922b" opacity="0.85"/>
<circle cx="623.3" cy="277.6" r="3.2" fill="#ff922b" opacity="0.85"/>
<circle cx="630.4" cy="274.3" r="3.2" fill="#ff922b" opacity="0.85"/>
<circle cx="637.6" cy="268.2" r="3.2" fill="#ff922b" opacity="0.85"/>
<circle cx="644.8" cy="276.1" r="3.2" fill="#ff922b" opacity="0.85"/>
<circle cx="652.0" cy="293.5" r="3.2" fill="#ff922b" opacity="0.85"/>
<circle cx="659.2" cy="345.4" r="3.2" fill="#ff922b" opacity="0.85"/>
<circle cx="666.4" cy="334.0" r="3.2" fill="#ff922b" opacity="0.85"/>
<circle cx="673.6" cy="269.7" r="3.2" fill="#ff922b" opacity="0.85"/>
<circle cx="680.7" cy="338.4" r="3.2" fill="#ff922b" opacity="0.85"/>
<circle cx="687.9" cy="333.2" r="3.2" fill="#ff922b" opacity="0.85"/>
<circle cx="695.1" cy="375.2" r="3.2" fill="#ff922b" opacity="0.85"/>
<circle cx="702.3" cy="334.3" r="3.2" fill="#ff922b" opacity="0.85"/>
<circle cx="709.5" cy="341.6" r="3.2" fill="#ff922b" opacity="0.85"/>
<circle cx="716.7" cy="346.9" r="3.2" fill="#ff922b" opacity="0.85"/>
<circle cx="723.9" cy="334.4" r="3.2" fill="#ff922b" opacity="0.85"/>
<circle cx="731.0" cy="349.7" r="3.2" fill="#ff922b" opacity="0.85"/>
<circle cx="738.2" cy="349.7" r="3.2" fill="#ff922b" opacity="0.85"/>
<circle cx="745.4" cy="338.7" r="3.2" fill="#ff922b" opacity="0.85"/>
<circle cx="752.6" cy="338.7" r="3.2" fill="#ff922b" opacity="0.85"/>
<circle cx="759.8" cy="332.4" r="3.2" fill="#ff922b" opacity="0.85"/>
<circle cx="767.0" cy="336.4" r="3.2" fill="#ff922b" opacity="0.85"/>
<circle cx="774.2" cy="367.4" r="3.2" fill="#ff922b" opacity="0.85"/>
<circle cx="781.3" cy="370.7" r="3.2" fill="#ff922b" opacity="0.85"/>
<circle cx="847" cy="84" r="5" fill="#ff922b"/>
<text x="866" y="88" font-size="13" fill="#c9d1d9" font-weight="700">Kāra</text>
<line x1="836" y1="108" x2="858" y2="108" stroke="#a7b0bc" stroke-width="2" stroke-dasharray="5 4"/>
<text x="866" y="112" font-size="13" fill="#c9d1d9" font-weight="400">Rust = 1.0×</text>
<circle cx="847" cy="132" r="4" fill="#3fb950"/>
<text x="866" y="136" font-size="13" fill="#c9d1d9" font-weight="400">C</text>
<text x="70" y="538" font-size="11.5" fill="#8b949e">Each dot is one benchmarked program (kata × approach); there is no connecting line because left-to-right order is not meaningful. Raw numbers: bench-results.json</text>
</svg>