<svg xmlns="http://www.w3.org/2000/svg" width="980" height="560" viewBox="0 0 980 560" font-family="-apple-system,Segoe UI,Helvetica,Arial,sans-serif">
<rect width="980" height="560" fill="#282c34"/>
<text x="70" y="34" font-size="21" font-weight="700" fill="#c9d1d9">Compile peak memory (cold)</text>
<text x="70" y="56" font-size="13" fill="#8b949e">relative to Rust = 1.0 · lower = leaner · 38 programs</text>
<line x1="70" y1="456.0" x2="812" y2="456.0" stroke="#3b414b" stroke-width="1"/>
<text x="60" y="460.0" font-size="12" text-anchor="end" fill="#8b949e">0.0×</text>
<line x1="70" y1="330.0" x2="812" y2="330.0" stroke="#3b414b" stroke-width="1"/>
<text x="60" y="334.0" font-size="12" text-anchor="end" fill="#8b949e">0.5×</text>
<line x1="70" y1="204.0" x2="812" y2="204.0" stroke="#a7b0bc" stroke-width="2" stroke-dasharray="5 4"/>
<text x="60" y="208.0" font-size="12" text-anchor="end" fill="#aeb6c0" font-weight="700">1.0×</text>
<line x1="70" y1="78.0" x2="812" y2="78.0" stroke="#3b414b" stroke-width="1"/>
<text x="60" y="82.0" font-size="12" text-anchor="end" fill="#8b949e">1.5×</text>
<text x="812" y="198.0" font-size="11" text-anchor="end" fill="#aeb6c0">Rust baseline</text>
<line x1="70" y1="456" x2="812" y2="456" stroke="#3b414b"/>
<text x="441.0" y="478" font-size="11" text-anchor="middle" fill="#8b949e">38 programs (kata × approach) — x-order carries no meaning</text>
<circle cx="101.7" cy="431.6" r="2.6" fill="#3fb950" opacity="0.7"/>
<circle cx="120.1" cy="438.7" r="2.6" fill="#3fb950" opacity="0.7"/>
<circle cx="138.6" cy="436.1" r="2.6" fill="#3fb950" opacity="0.7"/>
<circle cx="157.0" cy="438.9" r="2.6" fill="#3fb950" opacity="0.7"/>
<circle cx="175.5" cy="433.7" r="2.6" fill="#3fb950" opacity="0.7"/>
<circle cx="193.9" cy="434.6" r="2.6" fill="#3fb950" opacity="0.7"/>
<circle cx="212.4" cy="435.8" r="2.6" fill="#3fb950" opacity="0.7"/>
<circle cx="230.8" cy="431.9" r="2.6" fill="#3fb950" opacity="0.7"/>
<circle cx="249.3" cy="431.3" r="2.6" fill="#3fb950" opacity="0.7"/>
<circle cx="267.7" cy="432.3" r="2.6" fill="#3fb950" opacity="0.7"/>
<circle cx="286.2" cy="432.1" r="2.6" fill="#3fb950" opacity="0.7"/>
<circle cx="304.6" cy="432.8" r="2.6" fill="#3fb950" opacity="0.7"/>
<circle cx="323.1" cy="433.1" r="2.6" fill="#3fb950" opacity="0.7"/>
<circle cx="341.5" cy="433.4" r="2.6" fill="#3fb950" opacity="0.7"/>
<circle cx="360.0" cy="434.2" r="2.6" fill="#3fb950" opacity="0.7"/>
<circle cx="378.4" cy="439.2" r="2.6" fill="#3fb950" opacity="0.7"/>
<circle cx="396.9" cy="438.7" r="2.6" fill="#3fb950" opacity="0.7"/>
<circle cx="415.3" cy="433.4" r="2.6" fill="#3fb950" opacity="0.7"/>
<circle cx="433.8" cy="439.6" r="2.6" fill="#3fb950" opacity="0.7"/>
<circle cx="452.2" cy="435.1" r="2.6" fill="#3fb950" opacity="0.7"/>
<circle cx="470.6" cy="432.1" r="2.6" fill="#3fb950" opacity="0.7"/>
<circle cx="489.1" cy="435.3" r="2.6" fill="#3fb950" opacity="0.7"/>
<circle cx="507.5" cy="432.8" r="2.6" fill="#3fb950" opacity="0.7"/>
<circle cx="526.0" cy="436.7" r="2.6" fill="#3fb950" opacity="0.7"/>
<circle cx="544.4" cy="440.0" r="2.6" fill="#3fb950" opacity="0.7"/>
<circle cx="562.9" cy="432.4" r="2.6" fill="#3fb950" opacity="0.7"/>
<circle cx="581.3" cy="436.2" r="2.6" fill="#3fb950" opacity="0.7"/>
<circle cx="599.8" cy="434.8" r="2.6" fill="#3fb950" opacity="0.7"/>
<circle cx="618.2" cy="432.4" r="2.6" fill="#3fb950" opacity="0.7"/>
<circle cx="636.7" cy="433.5" r="2.6" fill="#3fb950" opacity="0.7"/>
<circle cx="655.1" cy="441.5" r="2.6" fill="#3fb950" opacity="0.7"/>
<circle cx="673.6" cy="432.3" r="2.6" fill="#3fb950" opacity="0.7"/>
<circle cx="692.0" cy="433.7" r="2.6" fill="#3fb950" opacity="0.7"/>
<circle cx="710.5" cy="431.6" r="2.6" fill="#3fb950" opacity="0.7"/>
<circle cx="728.9" cy="437.3" r="2.6" fill="#3fb950" opacity="0.7"/>
<circle cx="747.4" cy="437.2" r="2.6" fill="#3fb950" opacity="0.7"/>
<circle cx="765.8" cy="439.3" r="2.6" fill="#3fb950" opacity="0.7"/>
<circle cx="784.3" cy="442.0" r="2.6" fill="#3fb950" opacity="0.7"/>
<circle cx="97.7" cy="366.0" r="3.2" fill="#ff922b" opacity="0.85"/>
<circle cx="116.2" cy="389.9" r="3.2" fill="#ff922b" opacity="0.85"/>
<circle cx="134.6" cy="360.5" r="3.2" fill="#ff922b" opacity="0.85"/>
<circle cx="153.1" cy="388.6" r="3.2" fill="#ff922b" opacity="0.85"/>
<circle cx="171.5" cy="368.1" r="3.2" fill="#ff922b" opacity="0.85"/>
<circle cx="190.0" cy="358.0" r="3.2" fill="#ff922b" opacity="0.85"/>
<circle cx="208.4" cy="358.8" r="3.2" fill="#ff922b" opacity="0.85"/>
<circle cx="226.9" cy="362.4" r="3.2" fill="#ff922b" opacity="0.85"/>
<circle cx="245.3" cy="358.1" r="3.2" fill="#ff922b" opacity="0.85"/>
<circle cx="263.8" cy="361.4" r="3.2" fill="#ff922b" opacity="0.85"/>
<circle cx="282.2" cy="358.7" r="3.2" fill="#ff922b" opacity="0.85"/>
<circle cx="300.7" cy="367.7" r="3.2" fill="#ff922b" opacity="0.85"/>
<circle cx="319.1" cy="351.0" r="3.2" fill="#ff922b" opacity="0.85"/>
<circle cx="337.6" cy="348.8" r="3.2" fill="#ff922b" opacity="0.85"/>
<circle cx="356.0" cy="360.8" r="3.2" fill="#ff922b" opacity="0.85"/>
<circle cx="374.5" cy="381.2" r="3.2" fill="#ff922b" opacity="0.85"/>
<circle cx="392.9" cy="384.5" r="3.2" fill="#ff922b" opacity="0.85"/>
<circle cx="411.4" cy="359.0" r="3.2" fill="#ff922b" opacity="0.85"/>
<circle cx="429.8" cy="378.4" r="3.2" fill="#ff922b" opacity="0.85"/>
<circle cx="448.2" cy="370.7" r="3.2" fill="#ff922b" opacity="0.85"/>
<circle cx="466.7" cy="358.2" r="3.2" fill="#ff922b" opacity="0.85"/>
<circle cx="485.1" cy="352.0" r="3.2" fill="#ff922b" opacity="0.85"/>
<circle cx="503.6" cy="344.2" r="3.2" fill="#ff922b" opacity="0.85"/>
<circle cx="522.0" cy="350.5" r="3.2" fill="#ff922b" opacity="0.85"/>
<circle cx="540.5" cy="387.4" r="3.2" fill="#ff922b" opacity="0.85"/>
<circle cx="558.9" cy="357.9" r="3.2" fill="#ff922b" opacity="0.85"/>
<circle cx="577.4" cy="368.7" r="3.2" fill="#ff922b" opacity="0.85"/>
<circle cx="595.8" cy="358.0" r="3.2" fill="#ff922b" opacity="0.85"/>
<circle cx="614.3" cy="365.4" r="3.2" fill="#ff922b" opacity="0.85"/>
<circle cx="632.7" cy="368.5" r="3.2" fill="#ff922b" opacity="0.85"/>
<circle cx="651.2" cy="383.5" r="3.2" fill="#ff922b" opacity="0.85"/>
<circle cx="669.6" cy="367.2" r="3.2" fill="#ff922b" opacity="0.85"/>
<circle cx="688.1" cy="361.1" r="3.2" fill="#ff922b" opacity="0.85"/>
<circle cx="706.5" cy="362.8" r="3.2" fill="#ff922b" opacity="0.85"/>
<circle cx="725.0" cy="377.6" r="3.2" fill="#ff922b" opacity="0.85"/>
<circle cx="743.4" cy="379.0" r="3.2" fill="#ff922b" opacity="0.85"/>
<circle cx="761.9" cy="390.3" r="3.2" fill="#ff922b" opacity="0.85"/>
<circle cx="780.3" cy="391.2" r="3.2" fill="#ff922b" opacity="0.85"/>
<circle cx="847" cy="84" r="5" fill="#ff922b"/>
<text x="866" y="88" font-size="13" fill="#c9d1d9" font-weight="700">Kāra</text>
<line x1="836" y1="108" x2="858" y2="108" stroke="#a7b0bc" stroke-width="2" stroke-dasharray="5 4"/>
<text x="866" y="112" font-size="13" fill="#c9d1d9" font-weight="400">Rust = 1.0×</text>
<circle cx="847" cy="132" r="4" fill="#3fb950"/>
<text x="866" y="136" font-size="13" fill="#c9d1d9" font-weight="400">C</text>
<text x="70" y="538" font-size="11.5" fill="#8b949e">Each dot is one benchmarked program (kata × approach); there is no connecting line because left-to-right order is not meaningful. Raw numbers: bench-results.json</text>
</svg>