<svg xmlns="http://www.w3.org/2000/svg" width="980" height="560" viewBox="0 0 980 560" font-family="-apple-system,Segoe UI,Helvetica,Arial,sans-serif">
<rect width="980" height="560" fill="#282c34"/>
<text x="70" y="34" font-size="21" font-weight="700" fill="#c9d1d9">Compile time (cold)</text>
<text x="70" y="56" font-size="13" fill="#8b949e">relative to Rust = 1.0 · lower = faster · 56 programs</text>
<line x1="70" y1="456.0" x2="812" y2="456.0" stroke="#3b414b" stroke-width="1"/>
<text x="60" y="460.0" font-size="12" text-anchor="end" fill="#8b949e">0.0×</text>
<line x1="70" y1="330.0" x2="812" y2="330.0" stroke="#3b414b" stroke-width="1"/>
<text x="60" y="334.0" font-size="12" text-anchor="end" fill="#8b949e">0.5×</text>
<line x1="70" y1="204.0" x2="812" y2="204.0" stroke="#a7b0bc" stroke-width="2" stroke-dasharray="5 4"/>
<text x="60" y="208.0" font-size="12" text-anchor="end" fill="#aeb6c0" font-weight="700">1.0×</text>
<line x1="70" y1="78.0" x2="812" y2="78.0" stroke="#3b414b" stroke-width="1"/>
<text x="60" y="82.0" font-size="12" text-anchor="end" fill="#8b949e">1.5×</text>
<text x="812" y="198.0" font-size="11" text-anchor="end" fill="#aeb6c0">Rust baseline</text>
<line x1="70" y1="456" x2="812" y2="456" stroke="#3b414b"/>
<text x="441.0" y="478" font-size="11" text-anchor="middle" fill="#8b949e">56 programs (kata × approach) — x-order carries no meaning</text>
<circle cx="101.4" cy="315.0" r="2.6" fill="#3fb950" opacity="0.7"/>
<circle cx="113.8" cy="356.9" r="2.6" fill="#3fb950" opacity="0.7"/>
<circle cx="126.2" cy="353.5" r="2.6" fill="#3fb950" opacity="0.7"/>
<circle cx="138.6" cy="361.9" r="2.6" fill="#3fb950" opacity="0.7"/>
<circle cx="151.0" cy="337.9" r="2.6" fill="#3fb950" opacity="0.7"/>
<circle cx="163.4" cy="349.8" r="2.6" fill="#3fb950" opacity="0.7"/>
<circle cx="175.8" cy="362.0" r="2.6" fill="#3fb950" opacity="0.7"/>
<circle cx="188.2" cy="331.0" r="2.6" fill="#3fb950" opacity="0.7"/>
<circle cx="200.7" cy="332.2" r="2.6" fill="#3fb950" opacity="0.7"/>
<circle cx="213.1" cy="329.4" r="2.6" fill="#3fb950" opacity="0.7"/>
<circle cx="225.5" cy="331.8" r="2.6" fill="#3fb950" opacity="0.7"/>
<circle cx="237.9" cy="332.6" r="2.6" fill="#3fb950" opacity="0.7"/>
<circle cx="250.3" cy="331.2" r="2.6" fill="#3fb950" opacity="0.7"/>
<circle cx="262.7" cy="333.4" r="2.6" fill="#3fb950" opacity="0.7"/>
<circle cx="275.1" cy="342.8" r="2.6" fill="#3fb950" opacity="0.7"/>
<circle cx="287.5" cy="354.9" r="2.6" fill="#3fb950" opacity="0.7"/>
<circle cx="300.0" cy="360.0" r="2.6" fill="#3fb950" opacity="0.7"/>
<circle cx="312.4" cy="346.4" r="2.6" fill="#3fb950" opacity="0.7"/>
<circle cx="324.8" cy="354.4" r="2.6" fill="#3fb950" opacity="0.7"/>
<circle cx="337.2" cy="352.3" r="2.6" fill="#3fb950" opacity="0.7"/>
<circle cx="349.6" cy="324.8" r="2.6" fill="#3fb950" opacity="0.7"/>
<circle cx="362.0" cy="357.2" r="2.6" fill="#3fb950" opacity="0.7"/>
<circle cx="374.4" cy="334.3" r="2.6" fill="#3fb950" opacity="0.7"/>
<circle cx="386.8" cy="361.8" r="2.6" fill="#3fb950" opacity="0.7"/>
<circle cx="399.2" cy="353.3" r="2.6" fill="#3fb950" opacity="0.7"/>
<circle cx="411.7" cy="361.3" r="2.6" fill="#3fb950" opacity="0.7"/>
<circle cx="424.1" cy="333.6" r="2.6" fill="#3fb950" opacity="0.7"/>
<circle cx="436.5" cy="333.5" r="2.6" fill="#3fb950" opacity="0.7"/>
<circle cx="448.9" cy="325.5" r="2.6" fill="#3fb950" opacity="0.7"/>
<circle cx="461.3" cy="334.1" r="2.6" fill="#3fb950" opacity="0.7"/>
<circle cx="473.7" cy="320.0" r="2.6" fill="#3fb950" opacity="0.7"/>
<circle cx="486.1" cy="383.0" r="2.6" fill="#3fb950" opacity="0.7"/>
<circle cx="498.5" cy="326.9" r="2.6" fill="#3fb950" opacity="0.7"/>
<circle cx="511.0" cy="333.2" r="2.6" fill="#3fb950" opacity="0.7"/>
<circle cx="523.4" cy="326.8" r="2.6" fill="#3fb950" opacity="0.7"/>
<circle cx="535.8" cy="341.0" r="2.6" fill="#3fb950" opacity="0.7"/>
<circle cx="548.2" cy="360.4" r="2.6" fill="#3fb950" opacity="0.7"/>
<circle cx="560.6" cy="330.5" r="2.6" fill="#3fb950" opacity="0.7"/>
<circle cx="573.0" cy="366.0" r="2.6" fill="#3fb950" opacity="0.7"/>
<circle cx="585.4" cy="335.3" r="2.6" fill="#3fb950" opacity="0.7"/>
<circle cx="597.8" cy="329.1" r="2.6" fill="#3fb950" opacity="0.7"/>
<circle cx="610.2" cy="336.2" r="2.6" fill="#3fb950" opacity="0.7"/>
<circle cx="622.7" cy="332.2" r="2.6" fill="#3fb950" opacity="0.7"/>
<circle cx="635.1" cy="370.4" r="2.6" fill="#3fb950" opacity="0.7"/>
<circle cx="647.5" cy="327.9" r="2.6" fill="#3fb950" opacity="0.7"/>
<circle cx="659.9" cy="330.6" r="2.6" fill="#3fb950" opacity="0.7"/>
<circle cx="672.3" cy="350.8" r="2.6" fill="#3fb950" opacity="0.7"/>
<circle cx="684.7" cy="335.2" r="2.6" fill="#3fb950" opacity="0.7"/>
<circle cx="697.1" cy="365.5" r="2.6" fill="#3fb950" opacity="0.7"/>
<circle cx="709.5" cy="369.3" r="2.6" fill="#3fb950" opacity="0.7"/>
<circle cx="721.9" cy="346.0" r="2.6" fill="#3fb950" opacity="0.7"/>
<circle cx="734.4" cy="333.6" r="2.6" fill="#3fb950" opacity="0.7"/>
<circle cx="746.8" cy="336.0" r="2.6" fill="#3fb950" opacity="0.7"/>
<circle cx="759.2" cy="346.6" r="2.6" fill="#3fb950" opacity="0.7"/>
<circle cx="771.6" cy="366.3" r="2.6" fill="#3fb950" opacity="0.7"/>
<circle cx="784.0" cy="366.7" r="2.6" fill="#3fb950" opacity="0.7"/>
<circle cx="98.0" cy="221.7" r="3.2" fill="#ff922b" opacity="0.85"/>
<circle cx="110.4" cy="294.4" r="3.2" fill="#ff922b" opacity="0.85"/>
<circle cx="122.8" cy="289.1" r="3.2" fill="#ff922b" opacity="0.85"/>
<circle cx="135.2" cy="308.1" r="3.2" fill="#ff922b" opacity="0.85"/>
<circle cx="147.6" cy="258.4" r="3.2" fill="#ff922b" opacity="0.85"/>
<circle cx="160.1" cy="277.4" r="3.2" fill="#ff922b" opacity="0.85"/>
<circle cx="172.5" cy="293.8" r="3.2" fill="#ff922b" opacity="0.85"/>
<circle cx="184.9" cy="253.7" r="3.2" fill="#ff922b" opacity="0.85"/>
<circle cx="197.3" cy="239.7" r="3.2" fill="#ff922b" opacity="0.85"/>
<circle cx="209.7" cy="252.9" r="3.2" fill="#ff922b" opacity="0.85"/>
<circle cx="222.1" cy="235.2" r="3.2" fill="#ff922b" opacity="0.85"/>
<circle cx="234.5" cy="259.9" r="3.2" fill="#ff922b" opacity="0.85"/>
<circle cx="246.9" cy="252.1" r="3.2" fill="#ff922b" opacity="0.85"/>
<circle cx="259.3" cy="248.8" r="3.2" fill="#ff922b" opacity="0.85"/>
<circle cx="271.8" cy="276.3" r="3.2" fill="#ff922b" opacity="0.85"/>
<circle cx="284.2" cy="285.5" r="3.2" fill="#ff922b" opacity="0.85"/>
<circle cx="296.6" cy="296.9" r="3.2" fill="#ff922b" opacity="0.85"/>
<circle cx="309.0" cy="264.3" r="3.2" fill="#ff922b" opacity="0.85"/>
<circle cx="321.4" cy="271.4" r="3.2" fill="#ff922b" opacity="0.85"/>
<circle cx="333.8" cy="274.6" r="3.2" fill="#ff922b" opacity="0.85"/>
<circle cx="346.2" cy="249.4" r="3.2" fill="#ff922b" opacity="0.85"/>
<circle cx="358.6" cy="270.7" r="3.2" fill="#ff922b" opacity="0.85"/>
<circle cx="371.0" cy="258.2" r="3.2" fill="#ff922b" opacity="0.85"/>
<circle cx="383.5" cy="283.1" r="3.2" fill="#ff922b" opacity="0.85"/>
<circle cx="395.9" cy="273.2" r="3.2" fill="#ff922b" opacity="0.85"/>
<circle cx="408.3" cy="279.2" r="3.2" fill="#ff922b" opacity="0.85"/>
<circle cx="420.7" cy="272.8" r="3.2" fill="#ff922b" opacity="0.85"/>
<circle cx="433.1" cy="266.9" r="3.2" fill="#ff922b" opacity="0.85"/>
<circle cx="445.5" cy="235.8" r="3.2" fill="#ff922b" opacity="0.85"/>
<circle cx="457.9" cy="258.6" r="3.2" fill="#ff922b" opacity="0.85"/>
<circle cx="470.3" cy="231.2" r="3.2" fill="#ff922b" opacity="0.85"/>
<circle cx="482.8" cy="344.8" r="3.2" fill="#ff922b" opacity="0.85"/>
<circle cx="495.2" cy="245.1" r="3.2" fill="#ff922b" opacity="0.85"/>
<circle cx="507.6" cy="250.3" r="3.2" fill="#ff922b" opacity="0.85"/>
<circle cx="520.0" cy="250.7" r="3.2" fill="#ff922b" opacity="0.85"/>
<circle cx="532.4" cy="265.7" r="3.2" fill="#ff922b" opacity="0.85"/>
<circle cx="544.8" cy="303.9" r="3.2" fill="#ff922b" opacity="0.85"/>
<circle cx="557.2" cy="239.0" r="3.2" fill="#ff922b" opacity="0.85"/>
<circle cx="569.6" cy="283.0" r="3.2" fill="#ff922b" opacity="0.85"/>
<circle cx="582.0" cy="270.9" r="3.2" fill="#ff922b" opacity="0.85"/>
<circle cx="594.5" cy="244.3" r="3.2" fill="#ff922b" opacity="0.85"/>
<circle cx="606.9" cy="267.1" r="3.2" fill="#ff922b" opacity="0.85"/>
<circle cx="619.3" cy="250.5" r="3.2" fill="#ff922b" opacity="0.85"/>
<circle cx="631.7" cy="325.9" r="3.2" fill="#ff922b" opacity="0.85"/>
<circle cx="644.1" cy="247.9" r="3.2" fill="#ff922b" opacity="0.85"/>
<circle cx="656.5" cy="266.7" r="3.2" fill="#ff922b" opacity="0.85"/>
<circle cx="668.9" cy="284.8" r="3.2" fill="#ff922b" opacity="0.85"/>
<circle cx="681.3" cy="260.3" r="3.2" fill="#ff922b" opacity="0.85"/>
<circle cx="693.8" cy="304.3" r="3.2" fill="#ff922b" opacity="0.85"/>
<circle cx="706.2" cy="303.9" r="3.2" fill="#ff922b" opacity="0.85"/>
<circle cx="718.6" cy="264.7" r="3.2" fill="#ff922b" opacity="0.85"/>
<circle cx="731.0" cy="269.4" r="3.2" fill="#ff922b" opacity="0.85"/>
<circle cx="743.4" cy="259.4" r="3.2" fill="#ff922b" opacity="0.85"/>
<circle cx="755.8" cy="256.4" r="3.2" fill="#ff922b" opacity="0.85"/>
<circle cx="768.2" cy="313.0" r="3.2" fill="#ff922b" opacity="0.85"/>
<circle cx="780.6" cy="311.6" r="3.2" fill="#ff922b" opacity="0.85"/>
<circle cx="847" cy="84" r="5" fill="#ff922b"/>
<text x="866" y="88" font-size="13" fill="#c9d1d9" font-weight="700">Kāra</text>
<line x1="836" y1="108" x2="858" y2="108" stroke="#a7b0bc" stroke-width="2" stroke-dasharray="5 4"/>
<text x="866" y="112" font-size="13" fill="#c9d1d9" font-weight="400">Rust = 1.0×</text>
<circle cx="847" cy="132" r="4" fill="#3fb950"/>
<text x="866" y="136" font-size="13" fill="#c9d1d9" font-weight="400">C</text>
<text x="70" y="538" font-size="11.5" fill="#8b949e">Each dot is one benchmarked program (kata × approach); there is no connecting line because left-to-right order is not meaningful. Raw numbers: bench-results.json</text>
</svg>