<svg xmlns="http://www.w3.org/2000/svg" width="980" height="560" viewBox="0 0 980 560" font-family="-apple-system,Segoe UI,Helvetica,Arial,sans-serif">
<rect width="980" height="560" fill="#282c34"/>
<text x="70" y="34" font-size="21" font-weight="700" fill="#c9d1d9">Compile time (cold)</text>
<text x="70" y="56" font-size="13" fill="#8b949e">relative to Rust = 1.0 · lower = faster · 91 programs</text>
<line x1="70" y1="456.0" x2="812" y2="456.0" stroke="#3b414b" stroke-width="1"/>
<text x="60" y="460.0" font-size="12" text-anchor="end" fill="#8b949e">0.0×</text>
<line x1="70" y1="330.0" x2="812" y2="330.0" stroke="#3b414b" stroke-width="1"/>
<text x="60" y="334.0" font-size="12" text-anchor="end" fill="#8b949e">0.5×</text>
<line x1="70" y1="204.0" x2="812" y2="204.0" stroke="#a7b0bc" stroke-width="2" stroke-dasharray="5 4"/>
<text x="60" y="208.0" font-size="12" text-anchor="end" fill="#aeb6c0" font-weight="700">1.0×</text>
<line x1="70" y1="78.0" x2="812" y2="78.0" stroke="#3b414b" stroke-width="1"/>
<text x="60" y="82.0" font-size="12" text-anchor="end" fill="#8b949e">1.5×</text>
<text x="812" y="198.0" font-size="11" text-anchor="end" fill="#aeb6c0">Rust baseline</text>
<line x1="70" y1="456" x2="812" y2="456" stroke="#3b414b"/>
<text x="441.0" y="478" font-size="11" text-anchor="middle" fill="#8b949e">91 programs (kata × approach) — x-order carries no meaning</text>
<circle cx="100.7" cy="315.0" r="2.6" fill="#3fb950" opacity="0.7"/>
<circle cx="108.3" cy="356.9" r="2.6" fill="#3fb950" opacity="0.7"/>
<circle cx="115.9" cy="353.5" r="2.6" fill="#3fb950" opacity="0.7"/>
<circle cx="123.5" cy="361.9" r="2.6" fill="#3fb950" opacity="0.7"/>
<circle cx="131.1" cy="337.9" r="2.6" fill="#3fb950" opacity="0.7"/>
<circle cx="138.6" cy="349.8" r="2.6" fill="#3fb950" opacity="0.7"/>
<circle cx="146.2" cy="362.0" r="2.6" fill="#3fb950" opacity="0.7"/>
<circle cx="153.8" cy="331.0" r="2.6" fill="#3fb950" opacity="0.7"/>
<circle cx="161.4" cy="332.2" r="2.6" fill="#3fb950" opacity="0.7"/>
<circle cx="169.0" cy="329.4" r="2.6" fill="#3fb950" opacity="0.7"/>
<circle cx="176.6" cy="331.8" r="2.6" fill="#3fb950" opacity="0.7"/>
<circle cx="184.1" cy="332.6" r="2.6" fill="#3fb950" opacity="0.7"/>
<circle cx="191.7" cy="331.2" r="2.6" fill="#3fb950" opacity="0.7"/>
<circle cx="199.3" cy="333.4" r="2.6" fill="#3fb950" opacity="0.7"/>
<circle cx="206.9" cy="342.8" r="2.6" fill="#3fb950" opacity="0.7"/>
<circle cx="214.5" cy="354.9" r="2.6" fill="#3fb950" opacity="0.7"/>
<circle cx="222.1" cy="360.0" r="2.6" fill="#3fb950" opacity="0.7"/>
<circle cx="229.7" cy="346.4" r="2.6" fill="#3fb950" opacity="0.7"/>
<circle cx="237.2" cy="354.4" r="2.6" fill="#3fb950" opacity="0.7"/>
<circle cx="244.8" cy="352.3" r="2.6" fill="#3fb950" opacity="0.7"/>
<circle cx="252.4" cy="324.8" r="2.6" fill="#3fb950" opacity="0.7"/>
<circle cx="260.0" cy="357.2" r="2.6" fill="#3fb950" opacity="0.7"/>
<circle cx="267.6" cy="334.3" r="2.6" fill="#3fb950" opacity="0.7"/>
<circle cx="275.2" cy="361.8" r="2.6" fill="#3fb950" opacity="0.7"/>
<circle cx="282.7" cy="353.3" r="2.6" fill="#3fb950" opacity="0.7"/>
<circle cx="290.3" cy="361.3" r="2.6" fill="#3fb950" opacity="0.7"/>
<circle cx="297.9" cy="333.6" r="2.6" fill="#3fb950" opacity="0.7"/>
<circle cx="305.5" cy="333.5" r="2.6" fill="#3fb950" opacity="0.7"/>
<circle cx="313.1" cy="325.5" r="2.6" fill="#3fb950" opacity="0.7"/>
<circle cx="320.7" cy="334.1" r="2.6" fill="#3fb950" opacity="0.7"/>
<circle cx="328.3" cy="320.0" r="2.6" fill="#3fb950" opacity="0.7"/>
<circle cx="335.8" cy="383.0" r="2.6" fill="#3fb950" opacity="0.7"/>
<circle cx="343.4" cy="326.9" r="2.6" fill="#3fb950" opacity="0.7"/>
<circle cx="351.0" cy="333.2" r="2.6" fill="#3fb950" opacity="0.7"/>
<circle cx="358.6" cy="326.8" r="2.6" fill="#3fb950" opacity="0.7"/>
<circle cx="366.2" cy="330.4" r="2.6" fill="#3fb950" opacity="0.7"/>
<circle cx="373.8" cy="330.7" r="2.6" fill="#3fb950" opacity="0.7"/>
<circle cx="381.4" cy="320.5" r="2.6" fill="#3fb950" opacity="0.7"/>
<circle cx="388.9" cy="325.7" r="2.6" fill="#3fb950" opacity="0.7"/>
<circle cx="396.5" cy="328.6" r="2.6" fill="#3fb950" opacity="0.7"/>
<circle cx="404.1" cy="328.3" r="2.6" fill="#3fb950" opacity="0.7"/>
<circle cx="411.7" cy="344.1" r="2.6" fill="#3fb950" opacity="0.7"/>
<circle cx="419.3" cy="321.5" r="2.6" fill="#3fb950" opacity="0.7"/>
<circle cx="426.9" cy="325.8" r="2.6" fill="#3fb950" opacity="0.7"/>
<circle cx="434.4" cy="341.0" r="2.6" fill="#3fb950" opacity="0.7"/>
<circle cx="442.0" cy="344.0" r="2.6" fill="#3fb950" opacity="0.7"/>
<circle cx="449.6" cy="333.3" r="2.6" fill="#3fb950" opacity="0.7"/>
<circle cx="457.2" cy="337.2" r="2.6" fill="#3fb950" opacity="0.7"/>
<circle cx="464.8" cy="364.4" r="2.6" fill="#3fb950" opacity="0.7"/>
<circle cx="472.4" cy="281.1" r="2.6" fill="#3fb950" opacity="0.7"/>
<circle cx="480.0" cy="352.0" r="2.6" fill="#3fb950" opacity="0.7"/>
<circle cx="487.5" cy="317.7" r="2.6" fill="#3fb950" opacity="0.7"/>
<circle cx="495.1" cy="320.1" r="2.6" fill="#3fb950" opacity="0.7"/>
<circle cx="502.7" cy="319.5" r="2.6" fill="#3fb950" opacity="0.7"/>
<circle cx="510.3" cy="180.7" r="2.6" fill="#3fb950" opacity="0.7"/>
<circle cx="517.9" cy="316.2" r="2.6" fill="#3fb950" opacity="0.7"/>
<circle cx="525.5" cy="324.5" r="2.6" fill="#3fb950" opacity="0.7"/>
<circle cx="533.0" cy="360.4" r="2.6" fill="#3fb950" opacity="0.7"/>
<circle cx="540.6" cy="359.0" r="2.6" fill="#3fb950" opacity="0.7"/>
<circle cx="548.2" cy="338.5" r="2.6" fill="#3fb950" opacity="0.7"/>
<circle cx="555.8" cy="340.9" r="2.6" fill="#3fb950" opacity="0.7"/>
<circle cx="563.4" cy="365.5" r="2.6" fill="#3fb950" opacity="0.7"/>
<circle cx="571.0" cy="332.1" r="2.6" fill="#3fb950" opacity="0.7"/>
<circle cx="578.6" cy="327.4" r="2.6" fill="#3fb950" opacity="0.7"/>
<circle cx="586.1" cy="330.3" r="2.6" fill="#3fb950" opacity="0.7"/>
<circle cx="593.7" cy="330.5" r="2.6" fill="#3fb950" opacity="0.7"/>
<circle cx="601.3" cy="319.8" r="2.6" fill="#3fb950" opacity="0.7"/>
<circle cx="608.9" cy="318.2" r="2.6" fill="#3fb950" opacity="0.7"/>
<circle cx="616.5" cy="323.1" r="2.6" fill="#3fb950" opacity="0.7"/>
<circle cx="624.1" cy="329.5" r="2.6" fill="#3fb950" opacity="0.7"/>
<circle cx="631.7" cy="366.0" r="2.6" fill="#3fb950" opacity="0.7"/>
<circle cx="639.2" cy="330.9" r="2.6" fill="#3fb950" opacity="0.7"/>
<circle cx="646.8" cy="246.1" r="2.6" fill="#3fb950" opacity="0.7"/>
<circle cx="654.4" cy="335.3" r="2.6" fill="#3fb950" opacity="0.7"/>
<circle cx="662.0" cy="329.1" r="2.6" fill="#3fb950" opacity="0.7"/>
<circle cx="669.6" cy="321.1" r="2.6" fill="#3fb950" opacity="0.7"/>
<circle cx="677.2" cy="336.2" r="2.6" fill="#3fb950" opacity="0.7"/>
<circle cx="684.7" cy="332.2" r="2.6" fill="#3fb950" opacity="0.7"/>
<circle cx="692.3" cy="370.4" r="2.6" fill="#3fb950" opacity="0.7"/>
<circle cx="699.9" cy="329.1" r="2.6" fill="#3fb950" opacity="0.7"/>
<circle cx="707.5" cy="328.6" r="2.6" fill="#3fb950" opacity="0.7"/>
<circle cx="715.1" cy="350.8" r="2.6" fill="#3fb950" opacity="0.7"/>
<circle cx="722.7" cy="335.2" r="2.6" fill="#3fb950" opacity="0.7"/>
<circle cx="730.3" cy="365.5" r="2.6" fill="#3fb950" opacity="0.7"/>
<circle cx="737.8" cy="369.3" r="2.6" fill="#3fb950" opacity="0.7"/>
<circle cx="745.4" cy="346.0" r="2.6" fill="#3fb950" opacity="0.7"/>
<circle cx="753.0" cy="333.6" r="2.6" fill="#3fb950" opacity="0.7"/>
<circle cx="760.6" cy="336.0" r="2.6" fill="#3fb950" opacity="0.7"/>
<circle cx="768.2" cy="346.6" r="2.6" fill="#3fb950" opacity="0.7"/>
<circle cx="775.8" cy="366.3" r="2.6" fill="#3fb950" opacity="0.7"/>
<circle cx="783.4" cy="366.7" r="2.6" fill="#3fb950" opacity="0.7"/>
<circle cx="98.6" cy="221.7" r="3.2" fill="#ff922b" opacity="0.85"/>
<circle cx="106.2" cy="294.4" r="3.2" fill="#ff922b" opacity="0.85"/>
<circle cx="113.8" cy="289.1" r="3.2" fill="#ff922b" opacity="0.85"/>
<circle cx="121.4" cy="308.1" r="3.2" fill="#ff922b" opacity="0.85"/>
<circle cx="129.0" cy="258.4" r="3.2" fill="#ff922b" opacity="0.85"/>
<circle cx="136.6" cy="277.4" r="3.2" fill="#ff922b" opacity="0.85"/>
<circle cx="144.2" cy="293.8" r="3.2" fill="#ff922b" opacity="0.85"/>
<circle cx="151.7" cy="253.7" r="3.2" fill="#ff922b" opacity="0.85"/>
<circle cx="159.3" cy="239.7" r="3.2" fill="#ff922b" opacity="0.85"/>
<circle cx="166.9" cy="252.9" r="3.2" fill="#ff922b" opacity="0.85"/>
<circle cx="174.5" cy="235.2" r="3.2" fill="#ff922b" opacity="0.85"/>
<circle cx="182.1" cy="259.9" r="3.2" fill="#ff922b" opacity="0.85"/>
<circle cx="189.7" cy="252.1" r="3.2" fill="#ff922b" opacity="0.85"/>
<circle cx="197.3" cy="248.8" r="3.2" fill="#ff922b" opacity="0.85"/>
<circle cx="204.8" cy="276.3" r="3.2" fill="#ff922b" opacity="0.85"/>
<circle cx="212.4" cy="285.5" r="3.2" fill="#ff922b" opacity="0.85"/>
<circle cx="220.0" cy="296.9" r="3.2" fill="#ff922b" opacity="0.85"/>
<circle cx="227.6" cy="264.3" r="3.2" fill="#ff922b" opacity="0.85"/>
<circle cx="235.2" cy="271.4" r="3.2" fill="#ff922b" opacity="0.85"/>
<circle cx="242.8" cy="274.6" r="3.2" fill="#ff922b" opacity="0.85"/>
<circle cx="250.3" cy="249.4" r="3.2" fill="#ff922b" opacity="0.85"/>
<circle cx="257.9" cy="270.7" r="3.2" fill="#ff922b" opacity="0.85"/>
<circle cx="265.5" cy="258.2" r="3.2" fill="#ff922b" opacity="0.85"/>
<circle cx="273.1" cy="283.1" r="3.2" fill="#ff922b" opacity="0.85"/>
<circle cx="280.7" cy="273.2" r="3.2" fill="#ff922b" opacity="0.85"/>
<circle cx="288.3" cy="279.2" r="3.2" fill="#ff922b" opacity="0.85"/>
<circle cx="295.9" cy="272.8" r="3.2" fill="#ff922b" opacity="0.85"/>
<circle cx="303.4" cy="266.9" r="3.2" fill="#ff922b" opacity="0.85"/>
<circle cx="311.0" cy="235.8" r="3.2" fill="#ff922b" opacity="0.85"/>
<circle cx="318.6" cy="258.6" r="3.2" fill="#ff922b" opacity="0.85"/>
<circle cx="326.2" cy="231.2" r="3.2" fill="#ff922b" opacity="0.85"/>
<circle cx="333.8" cy="344.8" r="3.2" fill="#ff922b" opacity="0.85"/>
<circle cx="341.4" cy="245.1" r="3.2" fill="#ff922b" opacity="0.85"/>
<circle cx="349.0" cy="250.3" r="3.2" fill="#ff922b" opacity="0.85"/>
<circle cx="356.5" cy="250.7" r="3.2" fill="#ff922b" opacity="0.85"/>
<circle cx="364.1" cy="256.7" r="3.2" fill="#ff922b" opacity="0.85"/>
<circle cx="371.7" cy="254.8" r="3.2" fill="#ff922b" opacity="0.85"/>
<circle cx="379.3" cy="156.8" r="3.2" fill="#ff922b" opacity="0.85"/>
<circle cx="386.9" cy="212.9" r="3.2" fill="#ff922b" opacity="0.85"/>
<circle cx="394.5" cy="253.4" r="3.2" fill="#ff922b" opacity="0.85"/>
<circle cx="402.0" cy="248.6" r="3.2" fill="#ff922b" opacity="0.85"/>
<circle cx="409.6" cy="270.6" r="3.2" fill="#ff922b" opacity="0.85"/>
<circle cx="417.2" cy="240.8" r="3.2" fill="#ff922b" opacity="0.85"/>
<circle cx="424.8" cy="255.3" r="3.2" fill="#ff922b" opacity="0.85"/>
<circle cx="432.4" cy="265.7" r="3.2" fill="#ff922b" opacity="0.85"/>
<circle cx="440.0" cy="270.9" r="3.2" fill="#ff922b" opacity="0.85"/>
<circle cx="447.6" cy="235.5" r="3.2" fill="#ff922b" opacity="0.85"/>
<circle cx="455.1" cy="266.7" r="3.2" fill="#ff922b" opacity="0.85"/>
<circle cx="462.7" cy="298.2" r="3.2" fill="#ff922b" opacity="0.85"/>
<circle cx="470.3" cy="289.4" r="3.2" fill="#ff922b" opacity="0.85"/>
<circle cx="477.9" cy="318.7" r="3.2" fill="#ff922b" opacity="0.85"/>
<circle cx="485.5" cy="196.6" r="3.2" fill="#ff922b" opacity="0.85"/>
<circle cx="493.1" cy="192.8" r="3.2" fill="#ff922b" opacity="0.85"/>
<circle cx="500.6" cy="194.7" r="3.2" fill="#ff922b" opacity="0.85"/>
<circle cx="508.2" cy="203.1" r="3.2" fill="#ff922b" opacity="0.85"/>
<circle cx="515.8" cy="201.3" r="3.2" fill="#ff922b" opacity="0.85"/>
<circle cx="523.4" cy="223.1" r="3.2" fill="#ff922b" opacity="0.85"/>
<circle cx="531.0" cy="303.9" r="3.2" fill="#ff922b" opacity="0.85"/>
<circle cx="538.6" cy="267.5" r="3.2" fill="#ff922b" opacity="0.85"/>
<circle cx="546.2" cy="251.8" r="3.2" fill="#ff922b" opacity="0.85"/>
<circle cx="553.7" cy="231.3" r="3.2" fill="#ff922b" opacity="0.85"/>
<circle cx="561.3" cy="189.9" r="3.2" fill="#ff922b" opacity="0.85"/>
<circle cx="568.9" cy="210.5" r="3.2" fill="#ff922b" opacity="0.85"/>
<circle cx="576.5" cy="204.3" r="3.2" fill="#ff922b" opacity="0.85"/>
<circle cx="584.1" cy="211.0" r="3.2" fill="#ff922b" opacity="0.85"/>
<circle cx="591.7" cy="239.0" r="3.2" fill="#ff922b" opacity="0.85"/>
<circle cx="599.3" cy="168.4" r="3.2" fill="#ff922b" opacity="0.85"/>
<circle cx="606.8" cy="149.6" r="3.2" fill="#ff922b" opacity="0.85"/>
<circle cx="614.4" cy="172.8" r="3.2" fill="#ff922b" opacity="0.85"/>
<circle cx="622.0" cy="173.8" r="3.2" fill="#ff922b" opacity="0.85"/>
<circle cx="629.6" cy="283.0" r="3.2" fill="#ff922b" opacity="0.85"/>
<circle cx="637.2" cy="221.1" r="3.2" fill="#ff922b" opacity="0.85"/>
<circle cx="644.8" cy="242.6" r="3.2" fill="#ff922b" opacity="0.85"/>
<circle cx="652.3" cy="270.9" r="3.2" fill="#ff922b" opacity="0.85"/>
<circle cx="659.9" cy="244.3" r="3.2" fill="#ff922b" opacity="0.85"/>
<circle cx="667.5" cy="197.4" r="3.2" fill="#ff922b" opacity="0.85"/>
<circle cx="675.1" cy="267.1" r="3.2" fill="#ff922b" opacity="0.85"/>
<circle cx="682.7" cy="250.5" r="3.2" fill="#ff922b" opacity="0.85"/>
<circle cx="690.3" cy="325.9" r="3.2" fill="#ff922b" opacity="0.85"/>
<circle cx="697.9" cy="251.9" r="3.2" fill="#ff922b" opacity="0.85"/>
<circle cx="705.4" cy="263.9" r="3.2" fill="#ff922b" opacity="0.85"/>
<circle cx="713.0" cy="284.8" r="3.2" fill="#ff922b" opacity="0.85"/>
<circle cx="720.6" cy="260.3" r="3.2" fill="#ff922b" opacity="0.85"/>
<circle cx="728.2" cy="304.3" r="3.2" fill="#ff922b" opacity="0.85"/>
<circle cx="735.8" cy="303.9" r="3.2" fill="#ff922b" opacity="0.85"/>
<circle cx="743.4" cy="264.7" r="3.2" fill="#ff922b" opacity="0.85"/>
<circle cx="750.9" cy="269.4" r="3.2" fill="#ff922b" opacity="0.85"/>
<circle cx="758.5" cy="259.4" r="3.2" fill="#ff922b" opacity="0.85"/>
<circle cx="766.1" cy="256.4" r="3.2" fill="#ff922b" opacity="0.85"/>
<circle cx="773.7" cy="313.0" r="3.2" fill="#ff922b" opacity="0.85"/>
<circle cx="781.3" cy="311.6" r="3.2" fill="#ff922b" opacity="0.85"/>
<circle cx="847" cy="84" r="5" fill="#ff922b"/>
<text x="866" y="88" font-size="13" fill="#c9d1d9" font-weight="700">Kāra</text>
<line x1="836" y1="108" x2="858" y2="108" stroke="#a7b0bc" stroke-width="2" stroke-dasharray="5 4"/>
<text x="866" y="112" font-size="13" fill="#c9d1d9" font-weight="400">Rust = 1.0×</text>
<circle cx="847" cy="132" r="4" fill="#3fb950"/>
<text x="866" y="136" font-size="13" fill="#c9d1d9" font-weight="400">C</text>
<text x="70" y="538" font-size="11.5" fill="#8b949e">Each dot is one benchmarked program (kata × approach); there is no connecting line because left-to-right order is not meaningful. Raw numbers: bench-results.json</text>
</svg>