<svg xmlns="http://www.w3.org/2000/svg" width="980" height="560" viewBox="0 0 980 560" font-family="-apple-system,Segoe UI,Helvetica,Arial,sans-serif">
<rect width="980" height="560" fill="#282c34"/>
<text x="70" y="34" font-size="21" font-weight="700" fill="#c9d1d9">Compile time (cold)</text>
<text x="70" y="56" font-size="13" fill="#8b949e">relative to Rust = 1.0 · lower = faster · 47 programs</text>
<line x1="70" y1="456.0" x2="812" y2="456.0" stroke="#3b414b" stroke-width="1"/>
<text x="60" y="460.0" font-size="12" text-anchor="end" fill="#8b949e">0.0×</text>
<line x1="70" y1="330.0" x2="812" y2="330.0" stroke="#3b414b" stroke-width="1"/>
<text x="60" y="334.0" font-size="12" text-anchor="end" fill="#8b949e">0.5×</text>
<line x1="70" y1="204.0" x2="812" y2="204.0" stroke="#a7b0bc" stroke-width="2" stroke-dasharray="5 4"/>
<text x="60" y="208.0" font-size="12" text-anchor="end" fill="#aeb6c0" font-weight="700">1.0×</text>
<line x1="70" y1="78.0" x2="812" y2="78.0" stroke="#3b414b" stroke-width="1"/>
<text x="60" y="82.0" font-size="12" text-anchor="end" fill="#8b949e">1.5×</text>
<text x="812" y="198.0" font-size="11" text-anchor="end" fill="#aeb6c0">Rust baseline</text>
<line x1="70" y1="456" x2="812" y2="456" stroke="#3b414b"/>
<text x="441.0" y="478" font-size="11" text-anchor="middle" fill="#8b949e">47 programs (kata × approach) — x-order carries no meaning</text>
<circle cx="101.7" cy="312.9" r="2.6" fill="#3fb950" opacity="0.7"/>
<circle cx="116.5" cy="362.3" r="2.6" fill="#3fb950" opacity="0.7"/>
<circle cx="131.3" cy="344.1" r="2.6" fill="#3fb950" opacity="0.7"/>
<circle cx="146.2" cy="360.0" r="2.6" fill="#3fb950" opacity="0.7"/>
<circle cx="161.0" cy="333.9" r="2.6" fill="#3fb950" opacity="0.7"/>
<circle cx="175.9" cy="339.2" r="2.6" fill="#3fb950" opacity="0.7"/>
<circle cx="190.7" cy="350.6" r="2.6" fill="#3fb950" opacity="0.7"/>
<circle cx="205.5" cy="322.5" r="2.6" fill="#3fb950" opacity="0.7"/>
<circle cx="220.4" cy="320.0" r="2.6" fill="#3fb950" opacity="0.7"/>
<circle cx="235.2" cy="320.9" r="2.6" fill="#3fb950" opacity="0.7"/>
<circle cx="250.1" cy="330.9" r="2.6" fill="#3fb950" opacity="0.7"/>
<circle cx="264.9" cy="320.7" r="2.6" fill="#3fb950" opacity="0.7"/>
<circle cx="279.7" cy="320.4" r="2.6" fill="#3fb950" opacity="0.7"/>
<circle cx="294.6" cy="323.6" r="2.6" fill="#3fb950" opacity="0.7"/>
<circle cx="309.4" cy="341.5" r="2.6" fill="#3fb950" opacity="0.7"/>
<circle cx="324.3" cy="349.2" r="2.6" fill="#3fb950" opacity="0.7"/>
<circle cx="339.1" cy="353.7" r="2.6" fill="#3fb950" opacity="0.7"/>
<circle cx="353.9" cy="334.0" r="2.6" fill="#3fb950" opacity="0.7"/>
<circle cx="368.8" cy="347.9" r="2.6" fill="#3fb950" opacity="0.7"/>
<circle cx="383.6" cy="343.5" r="2.6" fill="#3fb950" opacity="0.7"/>
<circle cx="398.5" cy="307.2" r="2.6" fill="#3fb950" opacity="0.7"/>
<circle cx="413.3" cy="351.6" r="2.6" fill="#3fb950" opacity="0.7"/>
<circle cx="428.1" cy="320.9" r="2.6" fill="#3fb950" opacity="0.7"/>
<circle cx="443.0" cy="356.3" r="2.6" fill="#3fb950" opacity="0.7"/>
<circle cx="457.8" cy="348.3" r="2.6" fill="#3fb950" opacity="0.7"/>
<circle cx="472.7" cy="357.6" r="2.6" fill="#3fb950" opacity="0.7"/>
<circle cx="487.5" cy="314.6" r="2.6" fill="#3fb950" opacity="0.7"/>
<circle cx="502.3" cy="323.4" r="2.6" fill="#3fb950" opacity="0.7"/>
<circle cx="517.2" cy="315.6" r="2.6" fill="#3fb950" opacity="0.7"/>
<circle cx="532.0" cy="329.1" r="2.6" fill="#3fb950" opacity="0.7"/>
<circle cx="546.9" cy="316.4" r="2.6" fill="#3fb950" opacity="0.7"/>
<circle cx="561.7" cy="384.2" r="2.6" fill="#3fb950" opacity="0.7"/>
<circle cx="576.5" cy="354.7" r="2.6" fill="#3fb950" opacity="0.7"/>
<circle cx="591.4" cy="311.0" r="2.6" fill="#3fb950" opacity="0.7"/>
<circle cx="606.2" cy="363.0" r="2.6" fill="#3fb950" opacity="0.7"/>
<circle cx="621.1" cy="319.7" r="2.6" fill="#3fb950" opacity="0.7"/>
<circle cx="635.9" cy="315.3" r="2.6" fill="#3fb950" opacity="0.7"/>
<circle cx="650.7" cy="320.6" r="2.6" fill="#3fb950" opacity="0.7"/>
<circle cx="665.6" cy="361.6" r="2.6" fill="#3fb950" opacity="0.7"/>
<circle cx="680.4" cy="312.4" r="2.6" fill="#3fb950" opacity="0.7"/>
<circle cx="695.3" cy="316.7" r="2.6" fill="#3fb950" opacity="0.7"/>
<circle cx="710.1" cy="322.5" r="2.6" fill="#3fb950" opacity="0.7"/>
<circle cx="724.9" cy="353.6" r="2.6" fill="#3fb950" opacity="0.7"/>
<circle cx="739.8" cy="367.1" r="2.6" fill="#3fb950" opacity="0.7"/>
<circle cx="754.6" cy="341.5" r="2.6" fill="#3fb950" opacity="0.7"/>
<circle cx="769.5" cy="359.8" r="2.6" fill="#3fb950" opacity="0.7"/>
<circle cx="784.3" cy="362.4" r="2.6" fill="#3fb950" opacity="0.7"/>
<circle cx="97.7" cy="266.5" r="3.2" fill="#ff922b" opacity="0.85"/>
<circle cx="112.5" cy="312.9" r="3.2" fill="#ff922b" opacity="0.85"/>
<circle cx="127.4" cy="277.1" r="3.2" fill="#ff922b" opacity="0.85"/>
<circle cx="142.2" cy="315.4" r="3.2" fill="#ff922b" opacity="0.85"/>
<circle cx="157.1" cy="265.9" r="3.2" fill="#ff922b" opacity="0.85"/>
<circle cx="171.9" cy="261.8" r="3.2" fill="#ff922b" opacity="0.85"/>
<circle cx="186.7" cy="276.2" r="3.2" fill="#ff922b" opacity="0.85"/>
<circle cx="201.6" cy="250.0" r="3.2" fill="#ff922b" opacity="0.85"/>
<circle cx="216.4" cy="238.4" r="3.2" fill="#ff922b" opacity="0.85"/>
<circle cx="231.3" cy="251.8" r="3.2" fill="#ff922b" opacity="0.85"/>
<circle cx="246.1" cy="280.5" r="3.2" fill="#ff922b" opacity="0.85"/>
<circle cx="260.9" cy="256.0" r="3.2" fill="#ff922b" opacity="0.85"/>
<circle cx="275.8" cy="234.7" r="3.2" fill="#ff922b" opacity="0.85"/>
<circle cx="290.6" cy="236.2" r="3.2" fill="#ff922b" opacity="0.85"/>
<circle cx="305.5" cy="282.4" r="3.2" fill="#ff922b" opacity="0.85"/>
<circle cx="320.3" cy="292.9" r="3.2" fill="#ff922b" opacity="0.85"/>
<circle cx="335.1" cy="298.0" r="3.2" fill="#ff922b" opacity="0.85"/>
<circle cx="350.0" cy="254.2" r="3.2" fill="#ff922b" opacity="0.85"/>
<circle cx="364.8" cy="290.9" r="3.2" fill="#ff922b" opacity="0.85"/>
<circle cx="379.7" cy="263.8" r="3.2" fill="#ff922b" opacity="0.85"/>
<circle cx="394.5" cy="219.7" r="3.2" fill="#ff922b" opacity="0.85"/>
<circle cx="409.3" cy="257.8" r="3.2" fill="#ff922b" opacity="0.85"/>
<circle cx="424.2" cy="226.4" r="3.2" fill="#ff922b" opacity="0.85"/>
<circle cx="439.0" cy="276.8" r="3.2" fill="#ff922b" opacity="0.85"/>
<circle cx="453.9" cy="258.2" r="3.2" fill="#ff922b" opacity="0.85"/>
<circle cx="468.7" cy="267.9" r="3.2" fill="#ff922b" opacity="0.85"/>
<circle cx="483.5" cy="236.2" r="3.2" fill="#ff922b" opacity="0.85"/>
<circle cx="498.4" cy="246.1" r="3.2" fill="#ff922b" opacity="0.85"/>
<circle cx="513.2" cy="221.6" r="3.2" fill="#ff922b" opacity="0.85"/>
<circle cx="528.1" cy="236.4" r="3.2" fill="#ff922b" opacity="0.85"/>
<circle cx="542.9" cy="218.6" r="3.2" fill="#ff922b" opacity="0.85"/>
<circle cx="557.7" cy="343.2" r="3.2" fill="#ff922b" opacity="0.85"/>
<circle cx="572.6" cy="298.8" r="3.2" fill="#ff922b" opacity="0.85"/>
<circle cx="587.4" cy="215.4" r="3.2" fill="#ff922b" opacity="0.85"/>
<circle cx="602.3" cy="284.0" r="3.2" fill="#ff922b" opacity="0.85"/>
<circle cx="617.1" cy="252.2" r="3.2" fill="#ff922b" opacity="0.85"/>
<circle cx="631.9" cy="232.6" r="3.2" fill="#ff922b" opacity="0.85"/>
<circle cx="646.8" cy="243.8" r="3.2" fill="#ff922b" opacity="0.85"/>
<circle cx="661.6" cy="322.4" r="3.2" fill="#ff922b" opacity="0.85"/>
<circle cx="676.5" cy="238.0" r="3.2" fill="#ff922b" opacity="0.85"/>
<circle cx="691.3" cy="250.8" r="3.2" fill="#ff922b" opacity="0.85"/>
<circle cx="706.1" cy="257.4" r="3.2" fill="#ff922b" opacity="0.85"/>
<circle cx="721.0" cy="308.7" r="3.2" fill="#ff922b" opacity="0.85"/>
<circle cx="735.8" cy="308.3" r="3.2" fill="#ff922b" opacity="0.85"/>
<circle cx="750.7" cy="235.8" r="3.2" fill="#ff922b" opacity="0.85"/>
<circle cx="765.5" cy="304.2" r="3.2" fill="#ff922b" opacity="0.85"/>
<circle cx="780.3" cy="314.6" r="3.2" fill="#ff922b" opacity="0.85"/>
<circle cx="847" cy="84" r="5" fill="#ff922b"/>
<text x="866" y="88" font-size="13" fill="#c9d1d9" font-weight="700">Kāra</text>
<line x1="836" y1="108" x2="858" y2="108" stroke="#a7b0bc" stroke-width="2" stroke-dasharray="5 4"/>
<text x="866" y="112" font-size="13" fill="#c9d1d9" font-weight="400">Rust = 1.0×</text>
<circle cx="847" cy="132" r="4" fill="#3fb950"/>
<text x="866" y="136" font-size="13" fill="#c9d1d9" font-weight="400">C</text>
<text x="70" y="538" font-size="11.5" fill="#8b949e">Each dot is one benchmarked program (kata × approach); there is no connecting line because left-to-right order is not meaningful. Raw numbers: bench-results.json</text>
</svg>