<svg xmlns="http://www.w3.org/2000/svg" width="980" height="560" viewBox="0 0 980 560" font-family="-apple-system,Segoe UI,Helvetica,Arial,sans-serif">
<rect width="980" height="560" fill="#282c34"/>
<text x="70" y="34" font-size="21" font-weight="700" fill="#c9d1d9">Compile peak memory (cold)</text>
<text x="70" y="56" font-size="13" fill="#8b949e">relative to Rust = 1.0 · lower = leaner · 27 programs</text>
<line x1="70" y1="456.0" x2="812" y2="456.0" stroke="#3b414b" stroke-width="1"/>
<text x="60" y="460.0" font-size="12" text-anchor="end" fill="#8b949e">0.0×</text>
<line x1="70" y1="330.0" x2="812" y2="330.0" stroke="#3b414b" stroke-width="1"/>
<text x="60" y="334.0" font-size="12" text-anchor="end" fill="#8b949e">0.5×</text>
<line x1="70" y1="204.0" x2="812" y2="204.0" stroke="#6e7681" stroke-width="1.4" stroke-dasharray="5 4"/>
<text x="60" y="208.0" font-size="12" text-anchor="end" fill="#aeb6c0" font-weight="700">1.0×</text>
<line x1="70" y1="78.0" x2="812" y2="78.0" stroke="#3b414b" stroke-width="1"/>
<text x="60" y="82.0" font-size="12" text-anchor="end" fill="#8b949e">1.5×</text>
<text x="812" y="198.0" font-size="11" text-anchor="end" fill="#aeb6c0">Rust baseline</text>
<line x1="99.7" y1="456" x2="99.7" y2="461" stroke="#3b414b"/>
<g transform="translate(99.7,474) rotate(35)">
<text x="0" y="0" font-size="10.5" fill="#8b949e">#1</text>
<text x="0" y="12" font-size="10.5" fill="#8b949e">brute_force</text>
</g>
<line x1="125.9" y1="456" x2="125.9" y2="461" stroke="#3b414b"/>
<g transform="translate(125.9,474) rotate(35)">
<text x="0" y="0" font-size="10.5" fill="#8b949e">#1</text>
<text x="0" y="12" font-size="10.5" fill="#8b949e">hash_map</text>
</g>
<line x1="152.2" y1="456" x2="152.2" y2="461" stroke="#3b414b"/>
<g transform="translate(152.2,474) rotate(35)">
<text x="0" y="0" font-size="10.5" fill="#8b949e">#2</text>
<text x="0" y="12" font-size="10.5" fill="#8b949e">iterative</text>
</g>
<line x1="178.4" y1="456" x2="178.4" y2="461" stroke="#3b414b"/>
<g transform="translate(178.4,474) rotate(35)">
<text x="0" y="0" font-size="10.5" fill="#8b949e">#3</text>
<text x="0" y="12" font-size="10.5" fill="#8b949e">sliding_window</text>
</g>
<line x1="204.7" y1="456" x2="204.7" y2="461" stroke="#3b414b"/>
<g transform="translate(204.7,474) rotate(35)">
<text x="0" y="0" font-size="10.5" fill="#8b949e">#4</text>
<text x="0" y="12" font-size="10.5" fill="#8b949e">binary_search…</text>
</g>
<line x1="231.0" y1="456" x2="231.0" y2="461" stroke="#3b414b"/>
<g transform="translate(231.0,474) rotate(35)">
<text x="0" y="0" font-size="10.5" fill="#8b949e">#5</text>
<text x="0" y="12" font-size="10.5" fill="#8b949e">expand_around…</text>
</g>
<line x1="257.2" y1="456" x2="257.2" y2="461" stroke="#3b414b"/>
<g transform="translate(257.2,474) rotate(35)">
<text x="0" y="0" font-size="10.5" fill="#8b949e">#6</text>
<text x="0" y="12" font-size="10.5" fill="#8b949e">row_buffers</text>
</g>
<line x1="283.5" y1="456" x2="283.5" y2="461" stroke="#3b414b"/>
<g transform="translate(283.5,474) rotate(35)">
<text x="0" y="0" font-size="10.5" fill="#8b949e">#7</text>
<text x="0" y="12" font-size="10.5" fill="#8b949e">reverse</text>
</g>
<line x1="309.7" y1="456" x2="309.7" y2="461" stroke="#3b414b"/>
<g transform="translate(309.7,474) rotate(35)">
<text x="0" y="0" font-size="10.5" fill="#8b949e">#8</text>
<text x="0" y="12" font-size="10.5" fill="#8b949e">atoi</text>
</g>
<line x1="336.0" y1="456" x2="336.0" y2="461" stroke="#3b414b"/>
<g transform="translate(336.0,474) rotate(35)">
<text x="0" y="0" font-size="10.5" fill="#8b949e">#9</text>
<text x="0" y="12" font-size="10.5" fill="#8b949e">palindrome</text>
</g>
<line x1="362.2" y1="456" x2="362.2" y2="461" stroke="#3b414b"/>
<g transform="translate(362.2,474) rotate(35)">
<text x="0" y="0" font-size="10.5" fill="#8b949e">#10</text>
<text x="0" y="12" font-size="10.5" fill="#8b949e">regex</text>
</g>
<line x1="388.5" y1="456" x2="388.5" y2="461" stroke="#3b414b"/>
<g transform="translate(388.5,474) rotate(35)">
<text x="0" y="0" font-size="10.5" fill="#8b949e">#11</text>
<text x="0" y="12" font-size="10.5" fill="#8b949e">container</text>
</g>
<line x1="414.7" y1="456" x2="414.7" y2="461" stroke="#3b414b"/>
<g transform="translate(414.7,474) rotate(35)">
<text x="0" y="0" font-size="10.5" fill="#8b949e">#12</text>
<text x="0" y="12" font-size="10.5" fill="#8b949e">greedy</text>
</g>
<line x1="441.0" y1="456" x2="441.0" y2="461" stroke="#3b414b"/>
<g transform="translate(441.0,474) rotate(35)">
<text x="0" y="0" font-size="10.5" fill="#8b949e">#13</text>
<text x="0" y="12" font-size="10.5" fill="#8b949e">greedy</text>
</g>
<line x1="467.3" y1="456" x2="467.3" y2="461" stroke="#3b414b"/>
<g transform="translate(467.3,474) rotate(35)">
<text x="0" y="0" font-size="10.5" fill="#8b949e">#14</text>
<text x="0" y="12" font-size="10.5" fill="#8b949e">vertical</text>
</g>
<line x1="493.5" y1="456" x2="493.5" y2="461" stroke="#3b414b"/>
<g transform="translate(493.5,474) rotate(35)">
<text x="0" y="0" font-size="10.5" fill="#8b949e">#15</text>
<text x="0" y="12" font-size="10.5" fill="#8b949e">three_sum</text>
</g>
<line x1="519.8" y1="456" x2="519.8" y2="461" stroke="#3b414b"/>
<g transform="translate(519.8,474) rotate(35)">
<text x="0" y="0" font-size="10.5" fill="#8b949e">#16</text>
<text x="0" y="12" font-size="10.5" fill="#8b949e">three_sum_clo…</text>
</g>
<line x1="546.0" y1="456" x2="546.0" y2="461" stroke="#3b414b"/>
<g transform="translate(546.0,474) rotate(35)">
<text x="0" y="0" font-size="10.5" fill="#8b949e">#17</text>
<text x="0" y="12" font-size="10.5" fill="#8b949e">letter_combin…</text>
</g>
<line x1="572.3" y1="456" x2="572.3" y2="461" stroke="#3b414b"/>
<g transform="translate(572.3,474) rotate(35)">
<text x="0" y="0" font-size="10.5" fill="#8b949e">#18</text>
<text x="0" y="12" font-size="10.5" fill="#8b949e">four_sum</text>
</g>
<line x1="598.5" y1="456" x2="598.5" y2="461" stroke="#3b414b"/>
<g transform="translate(598.5,474) rotate(35)">
<text x="0" y="0" font-size="10.5" fill="#8b949e">#19</text>
<text x="0" y="12" font-size="10.5" fill="#8b949e">remove_nth</text>
</g>
<line x1="624.8" y1="456" x2="624.8" y2="461" stroke="#3b414b"/>
<g transform="translate(624.8,474) rotate(35)">
<text x="0" y="0" font-size="10.5" fill="#8b949e">#20</text>
<text x="0" y="12" font-size="10.5" fill="#8b949e">valid_parenth…</text>
</g>
<line x1="651.0" y1="456" x2="651.0" y2="461" stroke="#3b414b"/>
<g transform="translate(651.0,474) rotate(35)">
<text x="0" y="0" font-size="10.5" fill="#8b949e">#21</text>
<text x="0" y="12" font-size="10.5" fill="#8b949e">iterative</text>
</g>
<line x1="677.3" y1="456" x2="677.3" y2="461" stroke="#3b414b"/>
<g transform="translate(677.3,474) rotate(35)">
<text x="0" y="0" font-size="10.5" fill="#8b949e">#56</text>
<text x="0" y="12" font-size="10.5" fill="#8b949e">merge_interva…</text>
</g>
<line x1="703.6" y1="456" x2="703.6" y2="461" stroke="#3b414b"/>
<g transform="translate(703.6,474) rotate(35)">
<text x="0" y="0" font-size="10.5" fill="#8b949e">#65</text>
<text x="0" y="12" font-size="10.5" fill="#8b949e">valid</text>
</g>
<line x1="729.8" y1="456" x2="729.8" y2="461" stroke="#3b414b"/>
<g transform="translate(729.8,474) rotate(35)">
<text x="0" y="0" font-size="10.5" fill="#8b949e">#71</text>
<text x="0" y="12" font-size="10.5" fill="#8b949e">simplify</text>
</g>
<line x1="756.1" y1="456" x2="756.1" y2="461" stroke="#3b414b"/>
<g transform="translate(756.1,474) rotate(35)">
<text x="0" y="0" font-size="10.5" fill="#8b949e">#88</text>
<text x="0" y="12" font-size="10.5" fill="#8b949e">two_pointer</text>
</g>
<line x1="782.3" y1="456" x2="782.3" y2="461" stroke="#3b414b"/>
<g transform="translate(782.3,474) rotate(35)">
<text x="0" y="0" font-size="10.5" fill="#8b949e">#204</text>
<text x="0" y="12" font-size="10.5" fill="#8b949e">count</text>
</g>
<circle cx="102.6" cy="431.6" r="4.0" fill="#3fb950" opacity="0.95"/>
<circle cx="128.8" cy="438.7" r="4.0" fill="#3fb950" opacity="0.95"/>
<circle cx="155.1" cy="435.5" r="4.0" fill="#3fb950" opacity="0.95"/>
<circle cx="181.3" cy="438.9" r="4.0" fill="#3fb950" opacity="0.95"/>
<circle cx="207.6" cy="433.7" r="4.0" fill="#3fb950" opacity="0.95"/>
<circle cx="233.8" cy="434.0" r="4.0" fill="#3fb950" opacity="0.95"/>
<circle cx="260.1" cy="435.4" r="4.0" fill="#3fb950" opacity="0.95"/>
<circle cx="286.3" cy="431.9" r="4.0" fill="#3fb950" opacity="0.95"/>
<circle cx="312.6" cy="431.3" r="4.0" fill="#3fb950" opacity="0.95"/>
<circle cx="338.9" cy="432.3" r="4.0" fill="#3fb950" opacity="0.95"/>
<circle cx="365.1" cy="432.1" r="4.0" fill="#3fb950" opacity="0.95"/>
<circle cx="391.4" cy="432.8" r="4.0" fill="#3fb950" opacity="0.95"/>
<circle cx="417.6" cy="433.1" r="4.0" fill="#3fb950" opacity="0.95"/>
<circle cx="443.9" cy="433.4" r="4.0" fill="#3fb950" opacity="0.95"/>
<circle cx="470.1" cy="434.2" r="4.0" fill="#3fb950" opacity="0.95"/>
<circle cx="496.4" cy="439.2" r="4.0" fill="#3fb950" opacity="0.95"/>
<circle cx="522.6" cy="438.7" r="4.0" fill="#3fb950" opacity="0.95"/>
<circle cx="548.9" cy="433.4" r="4.0" fill="#3fb950" opacity="0.95"/>
<circle cx="575.2" cy="439.6" r="4.0" fill="#3fb950" opacity="0.95"/>
<circle cx="601.4" cy="435.1" r="4.0" fill="#3fb950" opacity="0.95"/>
<circle cx="627.7" cy="432.1" r="4.0" fill="#3fb950" opacity="0.95"/>
<circle cx="653.9" cy="435.2" r="4.0" fill="#3fb950" opacity="0.95"/>
<circle cx="680.2" cy="440.0" r="4.0" fill="#3fb950" opacity="0.95"/>
<circle cx="706.4" cy="432.4" r="4.0" fill="#3fb950" opacity="0.95"/>
<circle cx="732.7" cy="436.2" r="4.0" fill="#3fb950" opacity="0.95"/>
<circle cx="758.9" cy="435.0" r="4.0" fill="#3fb950" opacity="0.95"/>
<circle cx="785.2" cy="431.6" r="4.0" fill="#3fb950" opacity="0.95"/>
<circle cx="96.8" cy="366.0" r="5.0" fill="#ff922b" opacity="1.0"/>
<circle cx="123.1" cy="389.9" r="5.0" fill="#ff922b" opacity="1.0"/>
<circle cx="149.3" cy="368.7" r="5.0" fill="#ff922b" opacity="1.0"/>
<circle cx="175.6" cy="388.6" r="5.0" fill="#ff922b" opacity="1.0"/>
<circle cx="201.8" cy="368.1" r="5.0" fill="#ff922b" opacity="1.0"/>
<circle cx="228.1" cy="373.1" r="5.0" fill="#ff922b" opacity="1.0"/>
<circle cx="254.3" cy="371.3" r="5.0" fill="#ff922b" opacity="1.0"/>
<circle cx="280.6" cy="362.4" r="5.0" fill="#ff922b" opacity="1.0"/>
<circle cx="306.8" cy="358.1" r="5.0" fill="#ff922b" opacity="1.0"/>
<circle cx="333.1" cy="361.4" r="5.0" fill="#ff922b" opacity="1.0"/>
<circle cx="359.4" cy="358.7" r="5.0" fill="#ff922b" opacity="1.0"/>
<circle cx="385.6" cy="367.7" r="5.0" fill="#ff922b" opacity="1.0"/>
<circle cx="411.9" cy="351.0" r="5.0" fill="#ff922b" opacity="1.0"/>
<circle cx="438.1" cy="348.8" r="5.0" fill="#ff922b" opacity="1.0"/>
<circle cx="464.4" cy="360.8" r="5.0" fill="#ff922b" opacity="1.0"/>
<circle cx="490.6" cy="381.2" r="5.0" fill="#ff922b" opacity="1.0"/>
<circle cx="516.9" cy="384.5" r="5.0" fill="#ff922b" opacity="1.0"/>
<circle cx="543.1" cy="359.0" r="5.0" fill="#ff922b" opacity="1.0"/>
<circle cx="569.4" cy="378.4" r="5.0" fill="#ff922b" opacity="1.0"/>
<circle cx="595.7" cy="370.7" r="5.0" fill="#ff922b" opacity="1.0"/>
<circle cx="621.9" cy="358.2" r="5.0" fill="#ff922b" opacity="1.0"/>
<circle cx="648.2" cy="363.4" r="5.0" fill="#ff922b" opacity="1.0"/>
<circle cx="674.4" cy="387.4" r="5.0" fill="#ff922b" opacity="1.0"/>
<circle cx="700.7" cy="357.9" r="5.0" fill="#ff922b" opacity="1.0"/>
<circle cx="726.9" cy="368.7" r="5.0" fill="#ff922b" opacity="1.0"/>
<circle cx="753.2" cy="374.7" r="5.0" fill="#ff922b" opacity="1.0"/>
<circle cx="779.4" cy="362.8" r="5.0" fill="#ff922b" opacity="1.0"/>
<circle cx="847" cy="84" r="5" fill="#ff922b"/>
<text x="866" y="88" font-size="13" fill="#c9d1d9" font-weight="700">Kāra</text>
<line x1="836" y1="108" x2="858" y2="108" stroke="#6e7681" stroke-width="1.6" stroke-dasharray="5 4"/>
<text x="866" y="112" font-size="13" fill="#c9d1d9" font-weight="400">Rust</text>
<circle cx="847" cy="132" r="4" fill="#3fb950"/>
<text x="866" y="136" font-size="13" fill="#c9d1d9" font-weight="400">C</text>
<text x="70" y="538" font-size="11.5" fill="#8b949e">Each dot is one benchmarked program (kata × approach); there is no connecting line because left-to-right order is not meaningful. Raw numbers: bench-results.json</text>
</svg>