<svg xmlns="http://www.w3.org/2000/svg" width="980" height="560" viewBox="0 0 980 560" font-family="-apple-system,Segoe UI,Helvetica,Arial,sans-serif">
<rect width="980" height="560" fill="#282c34"/>
<text x="70" y="34" font-size="21" font-weight="700" fill="#c9d1d9">Compile time (cold)</text>
<text x="70" y="56" font-size="13" fill="#8b949e">relative to Rust = 1.0 · lower = faster · 95 programs</text>
<line x1="70" y1="456.0" x2="812" y2="456.0" stroke="#3b414b" stroke-width="1"/>
<text x="60" y="460.0" font-size="12" text-anchor="end" fill="#8b949e">0.0×</text>
<line x1="70" y1="330.0" x2="812" y2="330.0" stroke="#3b414b" stroke-width="1"/>
<text x="60" y="334.0" font-size="12" text-anchor="end" fill="#8b949e">0.5×</text>
<line x1="70" y1="204.0" x2="812" y2="204.0" stroke="#a7b0bc" stroke-width="2" stroke-dasharray="5 4"/>
<text x="60" y="208.0" font-size="12" text-anchor="end" fill="#aeb6c0" font-weight="700">1.0×</text>
<line x1="70" y1="78.0" x2="812" y2="78.0" stroke="#3b414b" stroke-width="1"/>
<text x="60" y="82.0" font-size="12" text-anchor="end" fill="#8b949e">1.5×</text>
<text x="812" y="198.0" font-size="11" text-anchor="end" fill="#aeb6c0">Rust baseline</text>
<line x1="70" y1="456" x2="812" y2="456" stroke="#3b414b"/>
<text x="441.0" y="478" font-size="11" text-anchor="middle" fill="#8b949e">95 programs (kata × approach) — x-order carries no meaning</text>
<circle cx="100.7" cy="315.0" r="2.6" fill="#3fb950" opacity="0.7"/>
<circle cx="107.9" cy="356.9" r="2.6" fill="#3fb950" opacity="0.7"/>
<circle cx="115.2" cy="353.5" r="2.6" fill="#3fb950" opacity="0.7"/>
<circle cx="122.5" cy="361.9" r="2.6" fill="#3fb950" opacity="0.7"/>
<circle cx="129.7" cy="337.9" r="2.6" fill="#3fb950" opacity="0.7"/>
<circle cx="137.0" cy="349.8" r="2.6" fill="#3fb950" opacity="0.7"/>
<circle cx="144.2" cy="362.0" r="2.6" fill="#3fb950" opacity="0.7"/>
<circle cx="151.5" cy="331.0" r="2.6" fill="#3fb950" opacity="0.7"/>
<circle cx="158.8" cy="332.2" r="2.6" fill="#3fb950" opacity="0.7"/>
<circle cx="166.0" cy="329.4" r="2.6" fill="#3fb950" opacity="0.7"/>
<circle cx="173.3" cy="331.8" r="2.6" fill="#3fb950" opacity="0.7"/>
<circle cx="180.6" cy="332.6" r="2.6" fill="#3fb950" opacity="0.7"/>
<circle cx="187.8" cy="331.2" r="2.6" fill="#3fb950" opacity="0.7"/>
<circle cx="195.1" cy="333.4" r="2.6" fill="#3fb950" opacity="0.7"/>
<circle cx="202.3" cy="342.8" r="2.6" fill="#3fb950" opacity="0.7"/>
<circle cx="209.6" cy="354.9" r="2.6" fill="#3fb950" opacity="0.7"/>
<circle cx="216.9" cy="360.0" r="2.6" fill="#3fb950" opacity="0.7"/>
<circle cx="224.1" cy="346.4" r="2.6" fill="#3fb950" opacity="0.7"/>
<circle cx="231.4" cy="354.4" r="2.6" fill="#3fb950" opacity="0.7"/>
<circle cx="238.6" cy="352.3" r="2.6" fill="#3fb950" opacity="0.7"/>
<circle cx="245.9" cy="324.8" r="2.6" fill="#3fb950" opacity="0.7"/>
<circle cx="253.2" cy="357.2" r="2.6" fill="#3fb950" opacity="0.7"/>
<circle cx="260.4" cy="334.3" r="2.6" fill="#3fb950" opacity="0.7"/>
<circle cx="267.7" cy="361.8" r="2.6" fill="#3fb950" opacity="0.7"/>
<circle cx="275.0" cy="353.3" r="2.6" fill="#3fb950" opacity="0.7"/>
<circle cx="282.2" cy="361.3" r="2.6" fill="#3fb950" opacity="0.7"/>
<circle cx="289.5" cy="333.6" r="2.6" fill="#3fb950" opacity="0.7"/>
<circle cx="296.7" cy="333.5" r="2.6" fill="#3fb950" opacity="0.7"/>
<circle cx="304.0" cy="325.5" r="2.6" fill="#3fb950" opacity="0.7"/>
<circle cx="311.3" cy="334.1" r="2.6" fill="#3fb950" opacity="0.7"/>
<circle cx="318.5" cy="320.0" r="2.6" fill="#3fb950" opacity="0.7"/>
<circle cx="325.8" cy="383.0" r="2.6" fill="#3fb950" opacity="0.7"/>
<circle cx="333.1" cy="326.9" r="2.6" fill="#3fb950" opacity="0.7"/>
<circle cx="340.3" cy="333.2" r="2.6" fill="#3fb950" opacity="0.7"/>
<circle cx="347.6" cy="326.8" r="2.6" fill="#3fb950" opacity="0.7"/>
<circle cx="354.8" cy="330.4" r="2.6" fill="#3fb950" opacity="0.7"/>
<circle cx="362.1" cy="330.7" r="2.6" fill="#3fb950" opacity="0.7"/>
<circle cx="369.4" cy="320.5" r="2.6" fill="#3fb950" opacity="0.7"/>
<circle cx="376.6" cy="325.7" r="2.6" fill="#3fb950" opacity="0.7"/>
<circle cx="383.9" cy="328.6" r="2.6" fill="#3fb950" opacity="0.7"/>
<circle cx="391.2" cy="328.3" r="2.6" fill="#3fb950" opacity="0.7"/>
<circle cx="398.4" cy="344.1" r="2.6" fill="#3fb950" opacity="0.7"/>
<circle cx="405.7" cy="321.5" r="2.6" fill="#3fb950" opacity="0.7"/>
<circle cx="412.9" cy="325.8" r="2.6" fill="#3fb950" opacity="0.7"/>
<circle cx="420.2" cy="341.0" r="2.6" fill="#3fb950" opacity="0.7"/>
<circle cx="427.5" cy="344.0" r="2.6" fill="#3fb950" opacity="0.7"/>
<circle cx="434.7" cy="333.3" r="2.6" fill="#3fb950" opacity="0.7"/>
<circle cx="442.0" cy="337.2" r="2.6" fill="#3fb950" opacity="0.7"/>
<circle cx="449.2" cy="364.4" r="2.6" fill="#3fb950" opacity="0.7"/>
<circle cx="456.5" cy="281.1" r="2.6" fill="#3fb950" opacity="0.7"/>
<circle cx="463.8" cy="352.0" r="2.6" fill="#3fb950" opacity="0.7"/>
<circle cx="471.0" cy="317.7" r="2.6" fill="#3fb950" opacity="0.7"/>
<circle cx="478.3" cy="320.1" r="2.6" fill="#3fb950" opacity="0.7"/>
<circle cx="485.6" cy="319.5" r="2.6" fill="#3fb950" opacity="0.7"/>
<circle cx="492.8" cy="180.7" r="2.6" fill="#3fb950" opacity="0.7"/>
<circle cx="500.1" cy="316.2" r="2.6" fill="#3fb950" opacity="0.7"/>
<circle cx="507.3" cy="324.5" r="2.6" fill="#3fb950" opacity="0.7"/>
<circle cx="514.6" cy="360.4" r="2.6" fill="#3fb950" opacity="0.7"/>
<circle cx="521.9" cy="359.0" r="2.6" fill="#3fb950" opacity="0.7"/>
<circle cx="529.1" cy="338.5" r="2.6" fill="#3fb950" opacity="0.7"/>
<circle cx="536.4" cy="340.9" r="2.6" fill="#3fb950" opacity="0.7"/>
<circle cx="543.7" cy="365.5" r="2.6" fill="#3fb950" opacity="0.7"/>
<circle cx="550.9" cy="332.1" r="2.6" fill="#3fb950" opacity="0.7"/>
<circle cx="558.2" cy="327.4" r="2.6" fill="#3fb950" opacity="0.7"/>
<circle cx="565.4" cy="330.3" r="2.6" fill="#3fb950" opacity="0.7"/>
<circle cx="572.7" cy="330.5" r="2.6" fill="#3fb950" opacity="0.7"/>
<circle cx="580.0" cy="319.8" r="2.6" fill="#3fb950" opacity="0.7"/>
<circle cx="587.2" cy="318.2" r="2.6" fill="#3fb950" opacity="0.7"/>
<circle cx="594.5" cy="323.1" r="2.6" fill="#3fb950" opacity="0.7"/>
<circle cx="601.8" cy="329.5" r="2.6" fill="#3fb950" opacity="0.7"/>
<circle cx="609.0" cy="366.0" r="2.6" fill="#3fb950" opacity="0.7"/>
<circle cx="616.3" cy="330.9" r="2.6" fill="#3fb950" opacity="0.7"/>
<circle cx="623.5" cy="246.1" r="2.6" fill="#3fb950" opacity="0.7"/>
<circle cx="630.8" cy="326.3" r="2.6" fill="#3fb950" opacity="0.7"/>
<circle cx="638.1" cy="329.0" r="2.6" fill="#3fb950" opacity="0.7"/>
<circle cx="645.3" cy="330.4" r="2.6" fill="#3fb950" opacity="0.7"/>
<circle cx="652.6" cy="335.7" r="2.6" fill="#3fb950" opacity="0.7"/>
<circle cx="659.9" cy="335.3" r="2.6" fill="#3fb950" opacity="0.7"/>
<circle cx="667.1" cy="329.1" r="2.6" fill="#3fb950" opacity="0.7"/>
<circle cx="674.4" cy="321.1" r="2.6" fill="#3fb950" opacity="0.7"/>
<circle cx="681.6" cy="336.2" r="2.6" fill="#3fb950" opacity="0.7"/>
<circle cx="688.9" cy="332.2" r="2.6" fill="#3fb950" opacity="0.7"/>
<circle cx="696.2" cy="370.4" r="2.6" fill="#3fb950" opacity="0.7"/>
<circle cx="703.4" cy="329.1" r="2.6" fill="#3fb950" opacity="0.7"/>
<circle cx="710.7" cy="328.6" r="2.6" fill="#3fb950" opacity="0.7"/>
<circle cx="717.9" cy="350.8" r="2.6" fill="#3fb950" opacity="0.7"/>
<circle cx="725.2" cy="335.2" r="2.6" fill="#3fb950" opacity="0.7"/>
<circle cx="732.5" cy="365.5" r="2.6" fill="#3fb950" opacity="0.7"/>
<circle cx="739.7" cy="369.3" r="2.6" fill="#3fb950" opacity="0.7"/>
<circle cx="747.0" cy="346.0" r="2.6" fill="#3fb950" opacity="0.7"/>
<circle cx="754.3" cy="333.6" r="2.6" fill="#3fb950" opacity="0.7"/>
<circle cx="761.5" cy="336.0" r="2.6" fill="#3fb950" opacity="0.7"/>
<circle cx="768.8" cy="346.6" r="2.6" fill="#3fb950" opacity="0.7"/>
<circle cx="776.0" cy="366.3" r="2.6" fill="#3fb950" opacity="0.7"/>
<circle cx="783.3" cy="366.7" r="2.6" fill="#3fb950" opacity="0.7"/>
<circle cx="98.7" cy="221.7" r="3.2" fill="#ff922b" opacity="0.85"/>
<circle cx="106.0" cy="294.4" r="3.2" fill="#ff922b" opacity="0.85"/>
<circle cx="113.2" cy="289.1" r="3.2" fill="#ff922b" opacity="0.85"/>
<circle cx="120.5" cy="308.1" r="3.2" fill="#ff922b" opacity="0.85"/>
<circle cx="127.7" cy="258.4" r="3.2" fill="#ff922b" opacity="0.85"/>
<circle cx="135.0" cy="277.4" r="3.2" fill="#ff922b" opacity="0.85"/>
<circle cx="142.3" cy="293.8" r="3.2" fill="#ff922b" opacity="0.85"/>
<circle cx="149.5" cy="253.7" r="3.2" fill="#ff922b" opacity="0.85"/>
<circle cx="156.8" cy="239.7" r="3.2" fill="#ff922b" opacity="0.85"/>
<circle cx="164.1" cy="252.9" r="3.2" fill="#ff922b" opacity="0.85"/>
<circle cx="171.3" cy="235.2" r="3.2" fill="#ff922b" opacity="0.85"/>
<circle cx="178.6" cy="259.9" r="3.2" fill="#ff922b" opacity="0.85"/>
<circle cx="185.8" cy="252.1" r="3.2" fill="#ff922b" opacity="0.85"/>
<circle cx="193.1" cy="248.8" r="3.2" fill="#ff922b" opacity="0.85"/>
<circle cx="200.4" cy="276.3" r="3.2" fill="#ff922b" opacity="0.85"/>
<circle cx="207.6" cy="285.5" r="3.2" fill="#ff922b" opacity="0.85"/>
<circle cx="214.9" cy="296.9" r="3.2" fill="#ff922b" opacity="0.85"/>
<circle cx="222.1" cy="264.3" r="3.2" fill="#ff922b" opacity="0.85"/>
<circle cx="229.4" cy="271.4" r="3.2" fill="#ff922b" opacity="0.85"/>
<circle cx="236.7" cy="274.6" r="3.2" fill="#ff922b" opacity="0.85"/>
<circle cx="243.9" cy="249.4" r="3.2" fill="#ff922b" opacity="0.85"/>
<circle cx="251.2" cy="270.7" r="3.2" fill="#ff922b" opacity="0.85"/>
<circle cx="258.5" cy="258.2" r="3.2" fill="#ff922b" opacity="0.85"/>
<circle cx="265.7" cy="283.1" r="3.2" fill="#ff922b" opacity="0.85"/>
<circle cx="273.0" cy="273.2" r="3.2" fill="#ff922b" opacity="0.85"/>
<circle cx="280.2" cy="279.2" r="3.2" fill="#ff922b" opacity="0.85"/>
<circle cx="287.5" cy="272.8" r="3.2" fill="#ff922b" opacity="0.85"/>
<circle cx="294.8" cy="266.9" r="3.2" fill="#ff922b" opacity="0.85"/>
<circle cx="302.0" cy="235.8" r="3.2" fill="#ff922b" opacity="0.85"/>
<circle cx="309.3" cy="258.6" r="3.2" fill="#ff922b" opacity="0.85"/>
<circle cx="316.6" cy="231.2" r="3.2" fill="#ff922b" opacity="0.85"/>
<circle cx="323.8" cy="344.8" r="3.2" fill="#ff922b" opacity="0.85"/>
<circle cx="331.1" cy="245.1" r="3.2" fill="#ff922b" opacity="0.85"/>
<circle cx="338.3" cy="250.3" r="3.2" fill="#ff922b" opacity="0.85"/>
<circle cx="345.6" cy="250.7" r="3.2" fill="#ff922b" opacity="0.85"/>
<circle cx="352.9" cy="256.7" r="3.2" fill="#ff922b" opacity="0.85"/>
<circle cx="360.1" cy="254.8" r="3.2" fill="#ff922b" opacity="0.85"/>
<circle cx="367.4" cy="156.8" r="3.2" fill="#ff922b" opacity="0.85"/>
<circle cx="374.7" cy="212.9" r="3.2" fill="#ff922b" opacity="0.85"/>
<circle cx="381.9" cy="253.4" r="3.2" fill="#ff922b" opacity="0.85"/>
<circle cx="389.2" cy="248.6" r="3.2" fill="#ff922b" opacity="0.85"/>
<circle cx="396.4" cy="270.6" r="3.2" fill="#ff922b" opacity="0.85"/>
<circle cx="403.7" cy="240.8" r="3.2" fill="#ff922b" opacity="0.85"/>
<circle cx="411.0" cy="255.3" r="3.2" fill="#ff922b" opacity="0.85"/>
<circle cx="418.2" cy="265.7" r="3.2" fill="#ff922b" opacity="0.85"/>
<circle cx="425.5" cy="270.9" r="3.2" fill="#ff922b" opacity="0.85"/>
<circle cx="432.8" cy="235.5" r="3.2" fill="#ff922b" opacity="0.85"/>
<circle cx="440.0" cy="266.7" r="3.2" fill="#ff922b" opacity="0.85"/>
<circle cx="447.3" cy="298.2" r="3.2" fill="#ff922b" opacity="0.85"/>
<circle cx="454.5" cy="289.4" r="3.2" fill="#ff922b" opacity="0.85"/>
<circle cx="461.8" cy="318.7" r="3.2" fill="#ff922b" opacity="0.85"/>
<circle cx="469.1" cy="196.6" r="3.2" fill="#ff922b" opacity="0.85"/>
<circle cx="476.3" cy="192.8" r="3.2" fill="#ff922b" opacity="0.85"/>
<circle cx="483.6" cy="194.7" r="3.2" fill="#ff922b" opacity="0.85"/>
<circle cx="490.8" cy="203.1" r="3.2" fill="#ff922b" opacity="0.85"/>
<circle cx="498.1" cy="201.3" r="3.2" fill="#ff922b" opacity="0.85"/>
<circle cx="505.4" cy="223.1" r="3.2" fill="#ff922b" opacity="0.85"/>
<circle cx="512.6" cy="303.9" r="3.2" fill="#ff922b" opacity="0.85"/>
<circle cx="519.9" cy="267.5" r="3.2" fill="#ff922b" opacity="0.85"/>
<circle cx="527.2" cy="251.8" r="3.2" fill="#ff922b" opacity="0.85"/>
<circle cx="534.4" cy="231.3" r="3.2" fill="#ff922b" opacity="0.85"/>
<circle cx="541.7" cy="189.9" r="3.2" fill="#ff922b" opacity="0.85"/>
<circle cx="548.9" cy="210.5" r="3.2" fill="#ff922b" opacity="0.85"/>
<circle cx="556.2" cy="204.3" r="3.2" fill="#ff922b" opacity="0.85"/>
<circle cx="563.5" cy="211.0" r="3.2" fill="#ff922b" opacity="0.85"/>
<circle cx="570.7" cy="239.0" r="3.2" fill="#ff922b" opacity="0.85"/>
<circle cx="578.0" cy="168.4" r="3.2" fill="#ff922b" opacity="0.85"/>
<circle cx="585.3" cy="149.6" r="3.2" fill="#ff922b" opacity="0.85"/>
<circle cx="592.5" cy="172.8" r="3.2" fill="#ff922b" opacity="0.85"/>
<circle cx="599.8" cy="173.8" r="3.2" fill="#ff922b" opacity="0.85"/>
<circle cx="607.0" cy="283.0" r="3.2" fill="#ff922b" opacity="0.85"/>
<circle cx="614.3" cy="221.1" r="3.2" fill="#ff922b" opacity="0.85"/>
<circle cx="621.6" cy="242.6" r="3.2" fill="#ff922b" opacity="0.85"/>
<circle cx="628.8" cy="209.0" r="3.2" fill="#ff922b" opacity="0.85"/>
<circle cx="636.1" cy="193.9" r="3.2" fill="#ff922b" opacity="0.85"/>
<circle cx="643.4" cy="191.7" r="3.2" fill="#ff922b" opacity="0.85"/>
<circle cx="650.6" cy="197.4" r="3.2" fill="#ff922b" opacity="0.85"/>
<circle cx="657.9" cy="270.9" r="3.2" fill="#ff922b" opacity="0.85"/>
<circle cx="665.1" cy="244.3" r="3.2" fill="#ff922b" opacity="0.85"/>
<circle cx="672.4" cy="197.4" r="3.2" fill="#ff922b" opacity="0.85"/>
<circle cx="679.7" cy="267.1" r="3.2" fill="#ff922b" opacity="0.85"/>
<circle cx="686.9" cy="250.5" r="3.2" fill="#ff922b" opacity="0.85"/>
<circle cx="694.2" cy="325.9" r="3.2" fill="#ff922b" opacity="0.85"/>
<circle cx="701.4" cy="251.9" r="3.2" fill="#ff922b" opacity="0.85"/>
<circle cx="708.7" cy="263.9" r="3.2" fill="#ff922b" opacity="0.85"/>
<circle cx="716.0" cy="284.8" r="3.2" fill="#ff922b" opacity="0.85"/>
<circle cx="723.2" cy="260.3" r="3.2" fill="#ff922b" opacity="0.85"/>
<circle cx="730.5" cy="304.3" r="3.2" fill="#ff922b" opacity="0.85"/>
<circle cx="737.8" cy="303.9" r="3.2" fill="#ff922b" opacity="0.85"/>
<circle cx="745.0" cy="264.7" r="3.2" fill="#ff922b" opacity="0.85"/>
<circle cx="752.3" cy="269.4" r="3.2" fill="#ff922b" opacity="0.85"/>
<circle cx="759.5" cy="259.4" r="3.2" fill="#ff922b" opacity="0.85"/>
<circle cx="766.8" cy="256.4" r="3.2" fill="#ff922b" opacity="0.85"/>
<circle cx="774.1" cy="313.0" r="3.2" fill="#ff922b" opacity="0.85"/>
<circle cx="781.3" cy="311.6" r="3.2" fill="#ff922b" opacity="0.85"/>
<circle cx="847" cy="84" r="5" fill="#ff922b"/>
<text x="866" y="88" font-size="13" fill="#c9d1d9" font-weight="700">Kāra</text>
<line x1="836" y1="108" x2="858" y2="108" stroke="#a7b0bc" stroke-width="2" stroke-dasharray="5 4"/>
<text x="866" y="112" font-size="13" fill="#c9d1d9" font-weight="400">Rust = 1.0×</text>
<circle cx="847" cy="132" r="4" fill="#3fb950"/>
<text x="866" y="136" font-size="13" fill="#c9d1d9" font-weight="400">C</text>
<text x="70" y="538" font-size="11.5" fill="#8b949e">Each dot is one benchmarked program (kata × approach); there is no connecting line because left-to-right order is not meaningful. Raw numbers: bench-results.json</text>
</svg>