<svg xmlns="http://www.w3.org/2000/svg" width="980" height="560" viewBox="0 0 980 560" font-family="-apple-system,Segoe UI,Helvetica,Arial,sans-serif">
<rect width="980" height="560" fill="#282c34"/>
<text x="70" y="34" font-size="21" font-weight="700" fill="#c9d1d9">Compile peak memory (cold)</text>
<text x="70" y="56" font-size="13" fill="#8b949e">relative to Rust = 1.0 · lower = leaner · 24 programs</text>
<line x1="70" y1="456.0" x2="812" y2="456.0" stroke="#3b414b" stroke-width="1"/>
<text x="60" y="460.0" font-size="12" text-anchor="end" fill="#8b949e">0.0×</text>
<line x1="70" y1="330.0" x2="812" y2="330.0" stroke="#3b414b" stroke-width="1"/>
<text x="60" y="334.0" font-size="12" text-anchor="end" fill="#8b949e">0.5×</text>
<line x1="70" y1="204.0" x2="812" y2="204.0" stroke="#6e7681" stroke-width="1.4" stroke-dasharray="5 4"/>
<text x="60" y="208.0" font-size="12" text-anchor="end" fill="#aeb6c0" font-weight="700">1.0×</text>
<line x1="70" y1="78.0" x2="812" y2="78.0" stroke="#3b414b" stroke-width="1"/>
<text x="60" y="82.0" font-size="12" text-anchor="end" fill="#8b949e">1.5×</text>
<text x="812" y="198.0" font-size="11" text-anchor="end" fill="#aeb6c0">Rust baseline</text>
<line x1="99.7" y1="456" x2="99.7" y2="461" stroke="#3b414b"/>
<g transform="translate(99.7,474) rotate(35)">
<text x="0" y="0" font-size="10.5" fill="#8b949e">#1</text>
<text x="0" y="12" font-size="10.5" fill="#8b949e">brute_force</text>
</g>
<line x1="129.4" y1="456" x2="129.4" y2="461" stroke="#3b414b"/>
<g transform="translate(129.4,474) rotate(35)">
<text x="0" y="0" font-size="10.5" fill="#8b949e">#1</text>
<text x="0" y="12" font-size="10.5" fill="#8b949e">hash_map</text>
</g>
<line x1="159.0" y1="456" x2="159.0" y2="461" stroke="#3b414b"/>
<g transform="translate(159.0,474) rotate(35)">
<text x="0" y="0" font-size="10.5" fill="#8b949e">#2</text>
<text x="0" y="12" font-size="10.5" fill="#8b949e">iterative</text>
</g>
<line x1="188.7" y1="456" x2="188.7" y2="461" stroke="#3b414b"/>
<g transform="translate(188.7,474) rotate(35)">
<text x="0" y="0" font-size="10.5" fill="#8b949e">#3</text>
<text x="0" y="12" font-size="10.5" fill="#8b949e">sliding_window</text>
</g>
<line x1="218.4" y1="456" x2="218.4" y2="461" stroke="#3b414b"/>
<g transform="translate(218.4,474) rotate(35)">
<text x="0" y="0" font-size="10.5" fill="#8b949e">#4</text>
<text x="0" y="12" font-size="10.5" fill="#8b949e">binary_search…</text>
</g>
<line x1="248.1" y1="456" x2="248.1" y2="461" stroke="#3b414b"/>
<g transform="translate(248.1,474) rotate(35)">
<text x="0" y="0" font-size="10.5" fill="#8b949e">#5</text>
<text x="0" y="12" font-size="10.5" fill="#8b949e">expand_around…</text>
</g>
<line x1="277.8" y1="456" x2="277.8" y2="461" stroke="#3b414b"/>
<g transform="translate(277.8,474) rotate(35)">
<text x="0" y="0" font-size="10.5" fill="#8b949e">#6</text>
<text x="0" y="12" font-size="10.5" fill="#8b949e">row_buffers</text>
</g>
<line x1="307.4" y1="456" x2="307.4" y2="461" stroke="#3b414b"/>
<g transform="translate(307.4,474) rotate(35)">
<text x="0" y="0" font-size="10.5" fill="#8b949e">#7</text>
<text x="0" y="12" font-size="10.5" fill="#8b949e">reverse</text>
</g>
<line x1="337.1" y1="456" x2="337.1" y2="461" stroke="#3b414b"/>
<g transform="translate(337.1,474) rotate(35)">
<text x="0" y="0" font-size="10.5" fill="#8b949e">#8</text>
<text x="0" y="12" font-size="10.5" fill="#8b949e">atoi</text>
</g>
<line x1="366.8" y1="456" x2="366.8" y2="461" stroke="#3b414b"/>
<g transform="translate(366.8,474) rotate(35)">
<text x="0" y="0" font-size="10.5" fill="#8b949e">#9</text>
<text x="0" y="12" font-size="10.5" fill="#8b949e">palindrome</text>
</g>
<line x1="396.5" y1="456" x2="396.5" y2="461" stroke="#3b414b"/>
<g transform="translate(396.5,474) rotate(35)">
<text x="0" y="0" font-size="10.5" fill="#8b949e">#10</text>
<text x="0" y="12" font-size="10.5" fill="#8b949e">regex</text>
</g>
<line x1="426.2" y1="456" x2="426.2" y2="461" stroke="#3b414b"/>
<g transform="translate(426.2,474) rotate(35)">
<text x="0" y="0" font-size="10.5" fill="#8b949e">#11</text>
<text x="0" y="12" font-size="10.5" fill="#8b949e">container</text>
</g>
<line x1="455.8" y1="456" x2="455.8" y2="461" stroke="#3b414b"/>
<g transform="translate(455.8,474) rotate(35)">
<text x="0" y="0" font-size="10.5" fill="#8b949e">#12</text>
<text x="0" y="12" font-size="10.5" fill="#8b949e">greedy</text>
</g>
<line x1="485.5" y1="456" x2="485.5" y2="461" stroke="#3b414b"/>
<g transform="translate(485.5,474) rotate(35)">
<text x="0" y="0" font-size="10.5" fill="#8b949e">#13</text>
<text x="0" y="12" font-size="10.5" fill="#8b949e">greedy</text>
</g>
<line x1="515.2" y1="456" x2="515.2" y2="461" stroke="#3b414b"/>
<g transform="translate(515.2,474) rotate(35)">
<text x="0" y="0" font-size="10.5" fill="#8b949e">#14</text>
<text x="0" y="12" font-size="10.5" fill="#8b949e">vertical</text>
</g>
<line x1="544.9" y1="456" x2="544.9" y2="461" stroke="#3b414b"/>
<g transform="translate(544.9,474) rotate(35)">
<text x="0" y="0" font-size="10.5" fill="#8b949e">#15</text>
<text x="0" y="12" font-size="10.5" fill="#8b949e">three_sum</text>
</g>
<line x1="574.6" y1="456" x2="574.6" y2="461" stroke="#3b414b"/>
<g transform="translate(574.6,474) rotate(35)">
<text x="0" y="0" font-size="10.5" fill="#8b949e">#16</text>
<text x="0" y="12" font-size="10.5" fill="#8b949e">three_sum_clo…</text>
</g>
<line x1="604.2" y1="456" x2="604.2" y2="461" stroke="#3b414b"/>
<g transform="translate(604.2,474) rotate(35)">
<text x="0" y="0" font-size="10.5" fill="#8b949e">#17</text>
<text x="0" y="12" font-size="10.5" fill="#8b949e">letter_combin…</text>
</g>
<line x1="633.9" y1="456" x2="633.9" y2="461" stroke="#3b414b"/>
<g transform="translate(633.9,474) rotate(35)">
<text x="0" y="0" font-size="10.5" fill="#8b949e">#18</text>
<text x="0" y="12" font-size="10.5" fill="#8b949e">four_sum</text>
</g>
<line x1="663.6" y1="456" x2="663.6" y2="461" stroke="#3b414b"/>
<g transform="translate(663.6,474) rotate(35)">
<text x="0" y="0" font-size="10.5" fill="#8b949e">#19</text>
<text x="0" y="12" font-size="10.5" fill="#8b949e">remove_nth</text>
</g>
<line x1="693.3" y1="456" x2="693.3" y2="461" stroke="#3b414b"/>
<g transform="translate(693.3,474) rotate(35)">
<text x="0" y="0" font-size="10.5" fill="#8b949e">#20</text>
<text x="0" y="12" font-size="10.5" fill="#8b949e">valid_parenth…</text>
</g>
<line x1="723.0" y1="456" x2="723.0" y2="461" stroke="#3b414b"/>
<g transform="translate(723.0,474) rotate(35)">
<text x="0" y="0" font-size="10.5" fill="#8b949e">#21</text>
<text x="0" y="12" font-size="10.5" fill="#8b949e">iterative</text>
</g>
<line x1="752.6" y1="456" x2="752.6" y2="461" stroke="#3b414b"/>
<g transform="translate(752.6,474) rotate(35)">
<text x="0" y="0" font-size="10.5" fill="#8b949e">#56</text>
<text x="0" y="12" font-size="10.5" fill="#8b949e">merge_interva…</text>
</g>
<line x1="782.3" y1="456" x2="782.3" y2="461" stroke="#3b414b"/>
<g transform="translate(782.3,474) rotate(35)">
<text x="0" y="0" font-size="10.5" fill="#8b949e">#204</text>
<text x="0" y="12" font-size="10.5" fill="#8b949e">count</text>
</g>
<circle cx="102.6" cy="431.6" r="4.0" fill="#3fb950" opacity="0.95"/>
<circle cx="132.2" cy="438.7" r="4.0" fill="#3fb950" opacity="0.95"/>
<circle cx="161.9" cy="435.5" r="4.0" fill="#3fb950" opacity="0.95"/>
<circle cx="191.6" cy="438.9" r="4.0" fill="#3fb950" opacity="0.95"/>
<circle cx="221.3" cy="433.7" r="4.0" fill="#3fb950" opacity="0.95"/>
<circle cx="251.0" cy="434.0" r="4.0" fill="#3fb950" opacity="0.95"/>
<circle cx="280.6" cy="435.4" r="4.0" fill="#3fb950" opacity="0.95"/>
<circle cx="310.3" cy="431.9" r="4.0" fill="#3fb950" opacity="0.95"/>
<circle cx="340.0" cy="431.3" r="4.0" fill="#3fb950" opacity="0.95"/>
<circle cx="369.7" cy="432.3" r="4.0" fill="#3fb950" opacity="0.95"/>
<circle cx="399.4" cy="432.1" r="4.0" fill="#3fb950" opacity="0.95"/>
<circle cx="429.0" cy="432.8" r="4.0" fill="#3fb950" opacity="0.95"/>
<circle cx="458.7" cy="433.1" r="4.0" fill="#3fb950" opacity="0.95"/>
<circle cx="488.4" cy="433.4" r="4.0" fill="#3fb950" opacity="0.95"/>
<circle cx="518.1" cy="434.2" r="4.0" fill="#3fb950" opacity="0.95"/>
<circle cx="547.8" cy="439.2" r="4.0" fill="#3fb950" opacity="0.95"/>
<circle cx="577.4" cy="438.7" r="4.0" fill="#3fb950" opacity="0.95"/>
<circle cx="607.1" cy="433.4" r="4.0" fill="#3fb950" opacity="0.95"/>
<circle cx="636.8" cy="439.6" r="4.0" fill="#3fb950" opacity="0.95"/>
<circle cx="666.5" cy="435.1" r="4.0" fill="#3fb950" opacity="0.95"/>
<circle cx="696.2" cy="432.1" r="4.0" fill="#3fb950" opacity="0.95"/>
<circle cx="725.8" cy="435.2" r="4.0" fill="#3fb950" opacity="0.95"/>
<circle cx="755.5" cy="440.0" r="4.0" fill="#3fb950" opacity="0.95"/>
<circle cx="785.2" cy="431.6" r="4.0" fill="#3fb950" opacity="0.95"/>
<circle cx="96.8" cy="366.0" r="5.0" fill="#ff922b" opacity="1.0"/>
<circle cx="126.5" cy="389.9" r="5.0" fill="#ff922b" opacity="1.0"/>
<circle cx="156.2" cy="368.7" r="5.0" fill="#ff922b" opacity="1.0"/>
<circle cx="185.8" cy="388.6" r="5.0" fill="#ff922b" opacity="1.0"/>
<circle cx="215.5" cy="368.1" r="5.0" fill="#ff922b" opacity="1.0"/>
<circle cx="245.2" cy="373.1" r="5.0" fill="#ff922b" opacity="1.0"/>
<circle cx="274.9" cy="371.3" r="5.0" fill="#ff922b" opacity="1.0"/>
<circle cx="304.6" cy="362.4" r="5.0" fill="#ff922b" opacity="1.0"/>
<circle cx="334.2" cy="358.1" r="5.0" fill="#ff922b" opacity="1.0"/>
<circle cx="363.9" cy="361.4" r="5.0" fill="#ff922b" opacity="1.0"/>
<circle cx="393.6" cy="358.7" r="5.0" fill="#ff922b" opacity="1.0"/>
<circle cx="423.3" cy="367.7" r="5.0" fill="#ff922b" opacity="1.0"/>
<circle cx="453.0" cy="351.0" r="5.0" fill="#ff922b" opacity="1.0"/>
<circle cx="482.6" cy="348.8" r="5.0" fill="#ff922b" opacity="1.0"/>
<circle cx="512.3" cy="360.8" r="5.0" fill="#ff922b" opacity="1.0"/>
<circle cx="542.0" cy="381.2" r="5.0" fill="#ff922b" opacity="1.0"/>
<circle cx="571.7" cy="384.5" r="5.0" fill="#ff922b" opacity="1.0"/>
<circle cx="601.4" cy="359.0" r="5.0" fill="#ff922b" opacity="1.0"/>
<circle cx="631.0" cy="378.4" r="5.0" fill="#ff922b" opacity="1.0"/>
<circle cx="660.7" cy="370.7" r="5.0" fill="#ff922b" opacity="1.0"/>
<circle cx="690.4" cy="358.2" r="5.0" fill="#ff922b" opacity="1.0"/>
<circle cx="720.1" cy="363.4" r="5.0" fill="#ff922b" opacity="1.0"/>
<circle cx="749.8" cy="387.4" r="5.0" fill="#ff922b" opacity="1.0"/>
<circle cx="779.4" cy="362.8" r="5.0" fill="#ff922b" opacity="1.0"/>
<circle cx="847" cy="84" r="5" fill="#ff922b"/>
<text x="866" y="88" font-size="13" fill="#c9d1d9" font-weight="700">Kāra</text>
<line x1="836" y1="108" x2="858" y2="108" stroke="#6e7681" stroke-width="1.6" stroke-dasharray="5 4"/>
<text x="866" y="112" font-size="13" fill="#c9d1d9" font-weight="400">Rust</text>
<circle cx="847" cy="132" r="4" fill="#3fb950"/>
<text x="866" y="136" font-size="13" fill="#c9d1d9" font-weight="400">C</text>
<text x="70" y="538" font-size="11.5" fill="#8b949e">Each dot is one benchmarked program (kata × approach); there is no connecting line because left-to-right order is not meaningful. Raw numbers: bench-results.json</text>
</svg>