<svg xmlns="http://www.w3.org/2000/svg" width="980" height="560" viewBox="0 0 980 560" font-family="-apple-system,Segoe UI,Helvetica,Arial,sans-serif">
<rect width="980" height="560" fill="#282c34"/>
<text x="70" y="34" font-size="21" font-weight="700" fill="#c9d1d9">Compile time (cold)</text>
<text x="70" y="56" font-size="13" fill="#8b949e">relative to Rust = 1.0 · lower = faster · 48 programs</text>
<line x1="70" y1="456.0" x2="812" y2="456.0" stroke="#3b414b" stroke-width="1"/>
<text x="60" y="460.0" font-size="12" text-anchor="end" fill="#8b949e">0.0×</text>
<line x1="70" y1="444.2" x2="812" y2="444.2" stroke="#a7b0bc" stroke-width="2" stroke-dasharray="5 4"/>
<text x="60" y="448.2" font-size="12" text-anchor="end" fill="#aeb6c0" font-weight="700">1.0×</text>
<line x1="70" y1="380.4" x2="812" y2="380.4" stroke="#3b414b" stroke-width="1"/>
<text x="60" y="384.4" font-size="12" text-anchor="end" fill="#8b949e">6.4×</text>
<line x1="70" y1="304.8" x2="812" y2="304.8" stroke="#3b414b" stroke-width="1"/>
<text x="60" y="308.8" font-size="12" text-anchor="end" fill="#8b949e">12.8×</text>
<line x1="70" y1="229.2" x2="812" y2="229.2" stroke="#3b414b" stroke-width="1"/>
<text x="60" y="233.2" font-size="12" text-anchor="end" fill="#8b949e">19.2×</text>
<line x1="70" y1="153.6" x2="812" y2="153.6" stroke="#3b414b" stroke-width="1"/>
<text x="60" y="157.6" font-size="12" text-anchor="end" fill="#8b949e">25.6×</text>
<line x1="70" y1="78.0" x2="812" y2="78.0" stroke="#3b414b" stroke-width="1"/>
<text x="60" y="82.0" font-size="12" text-anchor="end" fill="#8b949e">32.0×</text>
<text x="812" y="438.2" font-size="11" text-anchor="end" fill="#aeb6c0">Rust baseline</text>
<line x1="70" y1="456" x2="812" y2="456" stroke="#3b414b"/>
<text x="441.0" y="478" font-size="11" text-anchor="middle" fill="#8b949e">48 programs (kata × approach) — x-order carries no meaning</text>
<circle cx="101.7" cy="449.4" r="2.6" fill="#3fb950" opacity="0.7"/>
<circle cx="116.2" cy="451.6" r="2.6" fill="#3fb950" opacity="0.7"/>
<circle cx="130.7" cy="450.8" r="2.6" fill="#3fb950" opacity="0.7"/>
<circle cx="145.2" cy="451.5" r="2.6" fill="#3fb950" opacity="0.7"/>
<circle cx="159.8" cy="450.3" r="2.6" fill="#3fb950" opacity="0.7"/>
<circle cx="174.3" cy="450.5" r="2.6" fill="#3fb950" opacity="0.7"/>
<circle cx="188.8" cy="451.1" r="2.6" fill="#3fb950" opacity="0.7"/>
<circle cx="203.3" cy="449.7" r="2.6" fill="#3fb950" opacity="0.7"/>
<circle cx="217.8" cy="449.6" r="2.6" fill="#3fb950" opacity="0.7"/>
<circle cx="232.4" cy="449.7" r="2.6" fill="#3fb950" opacity="0.7"/>
<circle cx="246.9" cy="450.1" r="2.6" fill="#3fb950" opacity="0.7"/>
<circle cx="261.4" cy="449.7" r="2.6" fill="#3fb950" opacity="0.7"/>
<circle cx="275.9" cy="449.6" r="2.6" fill="#3fb950" opacity="0.7"/>
<circle cx="290.5" cy="449.8" r="2.6" fill="#3fb950" opacity="0.7"/>
<circle cx="305.0" cy="450.6" r="2.6" fill="#3fb950" opacity="0.7"/>
<circle cx="319.5" cy="451.0" r="2.6" fill="#3fb950" opacity="0.7"/>
<circle cx="334.0" cy="451.2" r="2.6" fill="#3fb950" opacity="0.7"/>
<circle cx="348.6" cy="450.3" r="2.6" fill="#3fb950" opacity="0.7"/>
<circle cx="363.1" cy="450.9" r="2.6" fill="#3fb950" opacity="0.7"/>
<circle cx="377.6" cy="450.7" r="2.6" fill="#3fb950" opacity="0.7"/>
<circle cx="392.1" cy="449.0" r="2.6" fill="#3fb950" opacity="0.7"/>
<circle cx="406.7" cy="451.1" r="2.6" fill="#3fb950" opacity="0.7"/>
<circle cx="421.2" cy="449.7" r="2.6" fill="#3fb950" opacity="0.7"/>
<circle cx="435.7" cy="451.3" r="2.6" fill="#3fb950" opacity="0.7"/>
<circle cx="450.2" cy="451.0" r="2.6" fill="#3fb950" opacity="0.7"/>
<circle cx="464.8" cy="451.4" r="2.6" fill="#3fb950" opacity="0.7"/>
<circle cx="479.3" cy="449.4" r="2.6" fill="#3fb950" opacity="0.7"/>
<circle cx="493.8" cy="449.8" r="2.6" fill="#3fb950" opacity="0.7"/>
<circle cx="508.3" cy="449.4" r="2.6" fill="#3fb950" opacity="0.7"/>
<circle cx="522.9" cy="450.1" r="2.6" fill="#3fb950" opacity="0.7"/>
<circle cx="537.4" cy="449.5" r="2.6" fill="#3fb950" opacity="0.7"/>
<circle cx="551.9" cy="452.6" r="2.6" fill="#3fb950" opacity="0.7"/>
<circle cx="566.4" cy="451.3" r="2.6" fill="#3fb950" opacity="0.7"/>
<circle cx="581.0" cy="449.2" r="2.6" fill="#3fb950" opacity="0.7"/>
<circle cx="595.5" cy="451.6" r="2.6" fill="#3fb950" opacity="0.7"/>
<circle cx="610.0" cy="449.6" r="2.6" fill="#3fb950" opacity="0.7"/>
<circle cx="624.5" cy="449.4" r="2.6" fill="#3fb950" opacity="0.7"/>
<circle cx="639.1" cy="449.7" r="2.6" fill="#3fb950" opacity="0.7"/>
<circle cx="653.6" cy="451.6" r="2.6" fill="#3fb950" opacity="0.7"/>
<circle cx="668.1" cy="449.3" r="2.6" fill="#3fb950" opacity="0.7"/>
<circle cx="682.6" cy="449.5" r="2.6" fill="#3fb950" opacity="0.7"/>
<circle cx="697.1" cy="449.7" r="2.6" fill="#3fb950" opacity="0.7"/>
<circle cx="711.7" cy="451.2" r="2.6" fill="#3fb950" opacity="0.7"/>
<circle cx="726.2" cy="451.8" r="2.6" fill="#3fb950" opacity="0.7"/>
<circle cx="740.7" cy="450.5" r="2.6" fill="#3fb950" opacity="0.7"/>
<circle cx="755.2" cy="450.7" r="2.6" fill="#3fb950" opacity="0.7"/>
<circle cx="769.8" cy="451.5" r="2.6" fill="#3fb950" opacity="0.7"/>
<circle cx="784.3" cy="451.6" r="2.6" fill="#3fb950" opacity="0.7"/>
<circle cx="97.7" cy="87.3" r="3.2" fill="#ff922b" opacity="0.85"/>
<circle cx="112.2" cy="448.6" r="3.2" fill="#ff922b" opacity="0.85"/>
<circle cx="126.8" cy="447.6" r="3.2" fill="#ff922b" opacity="0.85"/>
<circle cx="141.3" cy="449.4" r="3.2" fill="#ff922b" opacity="0.85"/>
<circle cx="155.8" cy="447.1" r="3.2" fill="#ff922b" opacity="0.85"/>
<circle cx="170.3" cy="446.9" r="3.2" fill="#ff922b" opacity="0.85"/>
<circle cx="184.9" cy="447.6" r="3.2" fill="#ff922b" opacity="0.85"/>
<circle cx="199.4" cy="446.3" r="3.2" fill="#ff922b" opacity="0.85"/>
<circle cx="213.9" cy="445.8" r="3.2" fill="#ff922b" opacity="0.85"/>
<circle cx="228.4" cy="446.4" r="3.2" fill="#ff922b" opacity="0.85"/>
<circle cx="242.9" cy="447.8" r="3.2" fill="#ff922b" opacity="0.85"/>
<circle cx="257.5" cy="446.6" r="3.2" fill="#ff922b" opacity="0.85"/>
<circle cx="272.0" cy="445.6" r="3.2" fill="#ff922b" opacity="0.85"/>
<circle cx="286.5" cy="445.7" r="3.2" fill="#ff922b" opacity="0.85"/>
<circle cx="301.0" cy="447.9" r="3.2" fill="#ff922b" opacity="0.85"/>
<circle cx="315.6" cy="448.4" r="3.2" fill="#ff922b" opacity="0.85"/>
<circle cx="330.1" cy="448.6" r="3.2" fill="#ff922b" opacity="0.85"/>
<circle cx="344.6" cy="446.5" r="3.2" fill="#ff922b" opacity="0.85"/>
<circle cx="359.1" cy="448.3" r="3.2" fill="#ff922b" opacity="0.85"/>
<circle cx="373.7" cy="447.0" r="3.2" fill="#ff922b" opacity="0.85"/>
<circle cx="388.2" cy="444.9" r="3.2" fill="#ff922b" opacity="0.85"/>
<circle cx="402.7" cy="446.7" r="3.2" fill="#ff922b" opacity="0.85"/>
<circle cx="417.2" cy="445.2" r="3.2" fill="#ff922b" opacity="0.85"/>
<circle cx="431.8" cy="447.6" r="3.2" fill="#ff922b" opacity="0.85"/>
<circle cx="446.3" cy="446.7" r="3.2" fill="#ff922b" opacity="0.85"/>
<circle cx="460.8" cy="447.2" r="3.2" fill="#ff922b" opacity="0.85"/>
<circle cx="475.3" cy="445.7" r="3.2" fill="#ff922b" opacity="0.85"/>
<circle cx="489.9" cy="446.2" r="3.2" fill="#ff922b" opacity="0.85"/>
<circle cx="504.4" cy="445.0" r="3.2" fill="#ff922b" opacity="0.85"/>
<circle cx="518.9" cy="445.7" r="3.2" fill="#ff922b" opacity="0.85"/>
<circle cx="533.4" cy="444.9" r="3.2" fill="#ff922b" opacity="0.85"/>
<circle cx="548.0" cy="450.7" r="3.2" fill="#ff922b" opacity="0.85"/>
<circle cx="562.5" cy="448.6" r="3.2" fill="#ff922b" opacity="0.85"/>
<circle cx="577.0" cy="444.7" r="3.2" fill="#ff922b" opacity="0.85"/>
<circle cx="591.5" cy="447.9" r="3.2" fill="#ff922b" opacity="0.85"/>
<circle cx="606.1" cy="446.4" r="3.2" fill="#ff922b" opacity="0.85"/>
<circle cx="620.6" cy="445.5" r="3.2" fill="#ff922b" opacity="0.85"/>
<circle cx="635.1" cy="446.1" r="3.2" fill="#ff922b" opacity="0.85"/>
<circle cx="649.6" cy="449.7" r="3.2" fill="#ff922b" opacity="0.85"/>
<circle cx="664.2" cy="445.8" r="3.2" fill="#ff922b" opacity="0.85"/>
<circle cx="678.7" cy="446.4" r="3.2" fill="#ff922b" opacity="0.85"/>
<circle cx="693.2" cy="446.7" r="3.2" fill="#ff922b" opacity="0.85"/>
<circle cx="707.7" cy="449.1" r="3.2" fill="#ff922b" opacity="0.85"/>
<circle cx="722.2" cy="449.1" r="3.2" fill="#ff922b" opacity="0.85"/>
<circle cx="736.8" cy="446.1" r="3.2" fill="#ff922b" opacity="0.85"/>
<circle cx="751.3" cy="445.8" r="3.2" fill="#ff922b" opacity="0.85"/>
<circle cx="765.8" cy="448.9" r="3.2" fill="#ff922b" opacity="0.85"/>
<circle cx="780.3" cy="449.4" r="3.2" fill="#ff922b" opacity="0.85"/>
<circle cx="847" cy="84" r="5" fill="#ff922b"/>
<text x="866" y="88" font-size="13" fill="#c9d1d9" font-weight="700">Kāra</text>
<line x1="836" y1="108" x2="858" y2="108" stroke="#a7b0bc" stroke-width="2" stroke-dasharray="5 4"/>
<text x="866" y="112" font-size="13" fill="#c9d1d9" font-weight="400">Rust = 1.0×</text>
<circle cx="847" cy="132" r="4" fill="#3fb950"/>
<text x="866" y="136" font-size="13" fill="#c9d1d9" font-weight="400">C</text>
<text x="70" y="538" font-size="11.5" fill="#8b949e">Each dot is one benchmarked program (kata × approach); there is no connecting line because left-to-right order is not meaningful. Raw numbers: bench-results.json</text>
</svg>