<svg xmlns="http://www.w3.org/2000/svg" width="980" height="560" viewBox="0 0 980 560" font-family="-apple-system,Segoe UI,Helvetica,Arial,sans-serif">
<rect width="980" height="560" fill="#282c34"/>
<text x="70" y="34" font-size="21" font-weight="700" fill="#c9d1d9">Compile peak memory (cold)</text>
<text x="70" y="56" font-size="13" fill="#8b949e">relative to Rust = 1.0 · lower = leaner · 26 programs</text>
<line x1="70" y1="456.0" x2="812" y2="456.0" stroke="#3b414b" stroke-width="1"/>
<text x="60" y="460.0" font-size="12" text-anchor="end" fill="#8b949e">0.0×</text>
<line x1="70" y1="330.0" x2="812" y2="330.0" stroke="#3b414b" stroke-width="1"/>
<text x="60" y="334.0" font-size="12" text-anchor="end" fill="#8b949e">0.5×</text>
<line x1="70" y1="204.0" x2="812" y2="204.0" stroke="#6e7681" stroke-width="1.4" stroke-dasharray="5 4"/>
<text x="60" y="208.0" font-size="12" text-anchor="end" fill="#aeb6c0" font-weight="700">1.0×</text>
<line x1="70" y1="78.0" x2="812" y2="78.0" stroke="#3b414b" stroke-width="1"/>
<text x="60" y="82.0" font-size="12" text-anchor="end" fill="#8b949e">1.5×</text>
<text x="812" y="198.0" font-size="11" text-anchor="end" fill="#aeb6c0">Rust baseline</text>
<line x1="99.7" y1="456" x2="99.7" y2="461" stroke="#3b414b"/>
<g transform="translate(99.7,474) rotate(35)">
<text x="0" y="0" font-size="10.5" fill="#8b949e">#1</text>
<text x="0" y="12" font-size="10.5" fill="#8b949e">brute_force</text>
</g>
<line x1="127.0" y1="456" x2="127.0" y2="461" stroke="#3b414b"/>
<g transform="translate(127.0,474) rotate(35)">
<text x="0" y="0" font-size="10.5" fill="#8b949e">#1</text>
<text x="0" y="12" font-size="10.5" fill="#8b949e">hash_map</text>
</g>
<line x1="154.3" y1="456" x2="154.3" y2="461" stroke="#3b414b"/>
<g transform="translate(154.3,474) rotate(35)">
<text x="0" y="0" font-size="10.5" fill="#8b949e">#2</text>
<text x="0" y="12" font-size="10.5" fill="#8b949e">iterative</text>
</g>
<line x1="181.6" y1="456" x2="181.6" y2="461" stroke="#3b414b"/>
<g transform="translate(181.6,474) rotate(35)">
<text x="0" y="0" font-size="10.5" fill="#8b949e">#3</text>
<text x="0" y="12" font-size="10.5" fill="#8b949e">sliding_window</text>
</g>
<line x1="208.9" y1="456" x2="208.9" y2="461" stroke="#3b414b"/>
<g transform="translate(208.9,474) rotate(35)">
<text x="0" y="0" font-size="10.5" fill="#8b949e">#4</text>
<text x="0" y="12" font-size="10.5" fill="#8b949e">binary_search…</text>
</g>
<line x1="236.2" y1="456" x2="236.2" y2="461" stroke="#3b414b"/>
<g transform="translate(236.2,474) rotate(35)">
<text x="0" y="0" font-size="10.5" fill="#8b949e">#5</text>
<text x="0" y="12" font-size="10.5" fill="#8b949e">expand_around…</text>
</g>
<line x1="263.5" y1="456" x2="263.5" y2="461" stroke="#3b414b"/>
<g transform="translate(263.5,474) rotate(35)">
<text x="0" y="0" font-size="10.5" fill="#8b949e">#6</text>
<text x="0" y="12" font-size="10.5" fill="#8b949e">row_buffers</text>
</g>
<line x1="290.8" y1="456" x2="290.8" y2="461" stroke="#3b414b"/>
<g transform="translate(290.8,474) rotate(35)">
<text x="0" y="0" font-size="10.5" fill="#8b949e">#7</text>
<text x="0" y="12" font-size="10.5" fill="#8b949e">reverse</text>
</g>
<line x1="318.1" y1="456" x2="318.1" y2="461" stroke="#3b414b"/>
<g transform="translate(318.1,474) rotate(35)">
<text x="0" y="0" font-size="10.5" fill="#8b949e">#8</text>
<text x="0" y="12" font-size="10.5" fill="#8b949e">atoi</text>
</g>
<line x1="345.4" y1="456" x2="345.4" y2="461" stroke="#3b414b"/>
<g transform="translate(345.4,474) rotate(35)">
<text x="0" y="0" font-size="10.5" fill="#8b949e">#9</text>
<text x="0" y="12" font-size="10.5" fill="#8b949e">palindrome</text>
</g>
<line x1="372.7" y1="456" x2="372.7" y2="461" stroke="#3b414b"/>
<g transform="translate(372.7,474) rotate(35)">
<text x="0" y="0" font-size="10.5" fill="#8b949e">#10</text>
<text x="0" y="12" font-size="10.5" fill="#8b949e">regex</text>
</g>
<line x1="400.0" y1="456" x2="400.0" y2="461" stroke="#3b414b"/>
<g transform="translate(400.0,474) rotate(35)">
<text x="0" y="0" font-size="10.5" fill="#8b949e">#11</text>
<text x="0" y="12" font-size="10.5" fill="#8b949e">container</text>
</g>
<line x1="427.3" y1="456" x2="427.3" y2="461" stroke="#3b414b"/>
<g transform="translate(427.3,474) rotate(35)">
<text x="0" y="0" font-size="10.5" fill="#8b949e">#12</text>
<text x="0" y="12" font-size="10.5" fill="#8b949e">greedy</text>
</g>
<line x1="454.7" y1="456" x2="454.7" y2="461" stroke="#3b414b"/>
<g transform="translate(454.7,474) rotate(35)">
<text x="0" y="0" font-size="10.5" fill="#8b949e">#13</text>
<text x="0" y="12" font-size="10.5" fill="#8b949e">greedy</text>
</g>
<line x1="482.0" y1="456" x2="482.0" y2="461" stroke="#3b414b"/>
<g transform="translate(482.0,474) rotate(35)">
<text x="0" y="0" font-size="10.5" fill="#8b949e">#14</text>
<text x="0" y="12" font-size="10.5" fill="#8b949e">vertical</text>
</g>
<line x1="509.3" y1="456" x2="509.3" y2="461" stroke="#3b414b"/>
<g transform="translate(509.3,474) rotate(35)">
<text x="0" y="0" font-size="10.5" fill="#8b949e">#15</text>
<text x="0" y="12" font-size="10.5" fill="#8b949e">three_sum</text>
</g>
<line x1="536.6" y1="456" x2="536.6" y2="461" stroke="#3b414b"/>
<g transform="translate(536.6,474) rotate(35)">
<text x="0" y="0" font-size="10.5" fill="#8b949e">#16</text>
<text x="0" y="12" font-size="10.5" fill="#8b949e">three_sum_clo…</text>
</g>
<line x1="563.9" y1="456" x2="563.9" y2="461" stroke="#3b414b"/>
<g transform="translate(563.9,474) rotate(35)">
<text x="0" y="0" font-size="10.5" fill="#8b949e">#17</text>
<text x="0" y="12" font-size="10.5" fill="#8b949e">letter_combin…</text>
</g>
<line x1="591.2" y1="456" x2="591.2" y2="461" stroke="#3b414b"/>
<g transform="translate(591.2,474) rotate(35)">
<text x="0" y="0" font-size="10.5" fill="#8b949e">#18</text>
<text x="0" y="12" font-size="10.5" fill="#8b949e">four_sum</text>
</g>
<line x1="618.5" y1="456" x2="618.5" y2="461" stroke="#3b414b"/>
<g transform="translate(618.5,474) rotate(35)">
<text x="0" y="0" font-size="10.5" fill="#8b949e">#19</text>
<text x="0" y="12" font-size="10.5" fill="#8b949e">remove_nth</text>
</g>
<line x1="645.8" y1="456" x2="645.8" y2="461" stroke="#3b414b"/>
<g transform="translate(645.8,474) rotate(35)">
<text x="0" y="0" font-size="10.5" fill="#8b949e">#20</text>
<text x="0" y="12" font-size="10.5" fill="#8b949e">valid_parenth…</text>
</g>
<line x1="673.1" y1="456" x2="673.1" y2="461" stroke="#3b414b"/>
<g transform="translate(673.1,474) rotate(35)">
<text x="0" y="0" font-size="10.5" fill="#8b949e">#21</text>
<text x="0" y="12" font-size="10.5" fill="#8b949e">iterative</text>
</g>
<line x1="700.4" y1="456" x2="700.4" y2="461" stroke="#3b414b"/>
<g transform="translate(700.4,474) rotate(35)">
<text x="0" y="0" font-size="10.5" fill="#8b949e">#56</text>
<text x="0" y="12" font-size="10.5" fill="#8b949e">merge_interva…</text>
</g>
<line x1="727.7" y1="456" x2="727.7" y2="461" stroke="#3b414b"/>
<g transform="translate(727.7,474) rotate(35)">
<text x="0" y="0" font-size="10.5" fill="#8b949e">#65</text>
<text x="0" y="12" font-size="10.5" fill="#8b949e">valid</text>
</g>
<line x1="755.0" y1="456" x2="755.0" y2="461" stroke="#3b414b"/>
<g transform="translate(755.0,474) rotate(35)">
<text x="0" y="0" font-size="10.5" fill="#8b949e">#71</text>
<text x="0" y="12" font-size="10.5" fill="#8b949e">simplify</text>
</g>
<line x1="782.3" y1="456" x2="782.3" y2="461" stroke="#3b414b"/>
<g transform="translate(782.3,474) rotate(35)">
<text x="0" y="0" font-size="10.5" fill="#8b949e">#204</text>
<text x="0" y="12" font-size="10.5" fill="#8b949e">count</text>
</g>
<circle cx="102.6" cy="431.6" r="4.0" fill="#3fb950" opacity="0.95"/>
<circle cx="129.9" cy="438.7" r="4.0" fill="#3fb950" opacity="0.95"/>
<circle cx="157.2" cy="435.5" r="4.0" fill="#3fb950" opacity="0.95"/>
<circle cx="184.5" cy="438.9" r="4.0" fill="#3fb950" opacity="0.95"/>
<circle cx="211.8" cy="433.7" r="4.0" fill="#3fb950" opacity="0.95"/>
<circle cx="239.1" cy="434.0" r="4.0" fill="#3fb950" opacity="0.95"/>
<circle cx="266.4" cy="435.4" r="4.0" fill="#3fb950" opacity="0.95"/>
<circle cx="293.7" cy="431.9" r="4.0" fill="#3fb950" opacity="0.95"/>
<circle cx="321.0" cy="431.3" r="4.0" fill="#3fb950" opacity="0.95"/>
<circle cx="348.3" cy="432.3" r="4.0" fill="#3fb950" opacity="0.95"/>
<circle cx="375.6" cy="432.1" r="4.0" fill="#3fb950" opacity="0.95"/>
<circle cx="402.9" cy="432.8" r="4.0" fill="#3fb950" opacity="0.95"/>
<circle cx="430.2" cy="433.1" r="4.0" fill="#3fb950" opacity="0.95"/>
<circle cx="457.5" cy="433.4" r="4.0" fill="#3fb950" opacity="0.95"/>
<circle cx="484.8" cy="434.2" r="4.0" fill="#3fb950" opacity="0.95"/>
<circle cx="512.1" cy="439.2" r="4.0" fill="#3fb950" opacity="0.95"/>
<circle cx="539.4" cy="438.7" r="4.0" fill="#3fb950" opacity="0.95"/>
<circle cx="566.8" cy="433.4" r="4.0" fill="#3fb950" opacity="0.95"/>
<circle cx="594.1" cy="439.6" r="4.0" fill="#3fb950" opacity="0.95"/>
<circle cx="621.4" cy="435.1" r="4.0" fill="#3fb950" opacity="0.95"/>
<circle cx="648.7" cy="432.1" r="4.0" fill="#3fb950" opacity="0.95"/>
<circle cx="676.0" cy="435.2" r="4.0" fill="#3fb950" opacity="0.95"/>
<circle cx="703.3" cy="440.0" r="4.0" fill="#3fb950" opacity="0.95"/>
<circle cx="730.6" cy="432.4" r="4.0" fill="#3fb950" opacity="0.95"/>
<circle cx="757.9" cy="436.2" r="4.0" fill="#3fb950" opacity="0.95"/>
<circle cx="785.2" cy="431.6" r="4.0" fill="#3fb950" opacity="0.95"/>
<circle cx="96.8" cy="366.0" r="5.0" fill="#ff922b" opacity="1.0"/>
<circle cx="124.1" cy="389.9" r="5.0" fill="#ff922b" opacity="1.0"/>
<circle cx="151.4" cy="368.7" r="5.0" fill="#ff922b" opacity="1.0"/>
<circle cx="178.7" cy="388.6" r="5.0" fill="#ff922b" opacity="1.0"/>
<circle cx="206.0" cy="368.1" r="5.0" fill="#ff922b" opacity="1.0"/>
<circle cx="233.3" cy="373.1" r="5.0" fill="#ff922b" opacity="1.0"/>
<circle cx="260.6" cy="371.3" r="5.0" fill="#ff922b" opacity="1.0"/>
<circle cx="287.9" cy="362.4" r="5.0" fill="#ff922b" opacity="1.0"/>
<circle cx="315.2" cy="358.1" r="5.0" fill="#ff922b" opacity="1.0"/>
<circle cx="342.6" cy="361.4" r="5.0" fill="#ff922b" opacity="1.0"/>
<circle cx="369.9" cy="358.7" r="5.0" fill="#ff922b" opacity="1.0"/>
<circle cx="397.2" cy="367.7" r="5.0" fill="#ff922b" opacity="1.0"/>
<circle cx="424.5" cy="351.0" r="5.0" fill="#ff922b" opacity="1.0"/>
<circle cx="451.8" cy="348.8" r="5.0" fill="#ff922b" opacity="1.0"/>
<circle cx="479.1" cy="360.8" r="5.0" fill="#ff922b" opacity="1.0"/>
<circle cx="506.4" cy="381.2" r="5.0" fill="#ff922b" opacity="1.0"/>
<circle cx="533.7" cy="384.5" r="5.0" fill="#ff922b" opacity="1.0"/>
<circle cx="561.0" cy="359.0" r="5.0" fill="#ff922b" opacity="1.0"/>
<circle cx="588.3" cy="378.4" r="5.0" fill="#ff922b" opacity="1.0"/>
<circle cx="615.6" cy="370.7" r="5.0" fill="#ff922b" opacity="1.0"/>
<circle cx="642.9" cy="358.2" r="5.0" fill="#ff922b" opacity="1.0"/>
<circle cx="670.2" cy="363.4" r="5.0" fill="#ff922b" opacity="1.0"/>
<circle cx="697.5" cy="387.4" r="5.0" fill="#ff922b" opacity="1.0"/>
<circle cx="724.8" cy="357.9" r="5.0" fill="#ff922b" opacity="1.0"/>
<circle cx="752.1" cy="368.7" r="5.0" fill="#ff922b" opacity="1.0"/>
<circle cx="779.4" cy="362.8" r="5.0" fill="#ff922b" opacity="1.0"/>
<circle cx="847" cy="84" r="5" fill="#ff922b"/>
<text x="866" y="88" font-size="13" fill="#c9d1d9" font-weight="700">Kāra</text>
<line x1="836" y1="108" x2="858" y2="108" stroke="#6e7681" stroke-width="1.6" stroke-dasharray="5 4"/>
<text x="866" y="112" font-size="13" fill="#c9d1d9" font-weight="400">Rust</text>
<circle cx="847" cy="132" r="4" fill="#3fb950"/>
<text x="866" y="136" font-size="13" fill="#c9d1d9" font-weight="400">C</text>
<text x="70" y="538" font-size="11.5" fill="#8b949e">Each dot is one benchmarked program (kata × approach); there is no connecting line because left-to-right order is not meaningful. Raw numbers: bench-results.json</text>
</svg>