<svg xmlns="http://www.w3.org/2000/svg" width="980" height="560" viewBox="0 0 980 560" font-family="-apple-system,Segoe UI,Helvetica,Arial,sans-serif">
<rect width="980" height="560" fill="#282c34"/>
<text x="70" y="34" font-size="21" font-weight="700" fill="#c9d1d9">Compile peak memory (cold)</text>
<text x="70" y="56" font-size="13" fill="#8b949e">relative to Rust = 1.0 · lower = leaner · 57 programs</text>
<line x1="70" y1="456.0" x2="812" y2="456.0" stroke="#3b414b" stroke-width="1"/>
<text x="60" y="460.0" font-size="12" text-anchor="end" fill="#8b949e">0.0×</text>
<line x1="70" y1="330.0" x2="812" y2="330.0" stroke="#3b414b" stroke-width="1"/>
<text x="60" y="334.0" font-size="12" text-anchor="end" fill="#8b949e">0.5×</text>
<line x1="70" y1="204.0" x2="812" y2="204.0" stroke="#a7b0bc" stroke-width="2" stroke-dasharray="5 4"/>
<text x="60" y="208.0" font-size="12" text-anchor="end" fill="#aeb6c0" font-weight="700">1.0×</text>
<line x1="70" y1="78.0" x2="812" y2="78.0" stroke="#3b414b" stroke-width="1"/>
<text x="60" y="82.0" font-size="12" text-anchor="end" fill="#8b949e">1.5×</text>
<text x="812" y="198.0" font-size="11" text-anchor="end" fill="#aeb6c0">Rust baseline</text>
<line x1="70" y1="456" x2="812" y2="456" stroke="#3b414b"/>
<text x="441.0" y="478" font-size="11" text-anchor="middle" fill="#8b949e">57 programs (kata × approach) — x-order carries no meaning</text>
<circle cx="101.3" cy="431.6" r="2.6" fill="#3fb950" opacity="0.7"/>
<circle cx="113.5" cy="438.7" r="2.6" fill="#3fb950" opacity="0.7"/>
<circle cx="125.7" cy="435.8" r="2.6" fill="#3fb950" opacity="0.7"/>
<circle cx="137.9" cy="439.1" r="2.6" fill="#3fb950" opacity="0.7"/>
<circle cx="150.1" cy="434.2" r="2.6" fill="#3fb950" opacity="0.7"/>
<circle cx="162.3" cy="434.5" r="2.6" fill="#3fb950" opacity="0.7"/>
<circle cx="174.5" cy="435.8" r="2.6" fill="#3fb950" opacity="0.7"/>
<circle cx="186.7" cy="432.0" r="2.6" fill="#3fb950" opacity="0.7"/>
<circle cx="198.9" cy="431.7" r="2.6" fill="#3fb950" opacity="0.7"/>
<circle cx="211.0" cy="432.3" r="2.6" fill="#3fb950" opacity="0.7"/>
<circle cx="223.2" cy="432.1" r="2.6" fill="#3fb950" opacity="0.7"/>
<circle cx="235.4" cy="433.4" r="2.6" fill="#3fb950" opacity="0.7"/>
<circle cx="247.6" cy="433.0" r="2.6" fill="#3fb950" opacity="0.7"/>
<circle cx="259.8" cy="433.3" r="2.6" fill="#3fb950" opacity="0.7"/>
<circle cx="272.0" cy="434.3" r="2.6" fill="#3fb950" opacity="0.7"/>
<circle cx="284.2" cy="439.1" r="2.6" fill="#3fb950" opacity="0.7"/>
<circle cx="296.4" cy="438.8" r="2.6" fill="#3fb950" opacity="0.7"/>
<circle cx="308.6" cy="433.2" r="2.6" fill="#3fb950" opacity="0.7"/>
<circle cx="320.8" cy="439.4" r="2.6" fill="#3fb950" opacity="0.7"/>
<circle cx="332.9" cy="434.9" r="2.6" fill="#3fb950" opacity="0.7"/>
<circle cx="345.1" cy="432.1" r="2.6" fill="#3fb950" opacity="0.7"/>
<circle cx="357.3" cy="435.3" r="2.6" fill="#3fb950" opacity="0.7"/>
<circle cx="369.5" cy="432.8" r="2.6" fill="#3fb950" opacity="0.7"/>
<circle cx="381.7" cy="436.7" r="2.6" fill="#3fb950" opacity="0.7"/>
<circle cx="393.9" cy="434.7" r="2.6" fill="#3fb950" opacity="0.7"/>
<circle cx="406.1" cy="435.6" r="2.6" fill="#3fb950" opacity="0.7"/>
<circle cx="418.3" cy="433.8" r="2.6" fill="#3fb950" opacity="0.7"/>
<circle cx="430.5" cy="434.0" r="2.6" fill="#3fb950" opacity="0.7"/>
<circle cx="442.7" cy="431.9" r="2.6" fill="#3fb950" opacity="0.7"/>
<circle cx="454.8" cy="433.4" r="2.6" fill="#3fb950" opacity="0.7"/>
<circle cx="467.0" cy="430.6" r="2.6" fill="#3fb950" opacity="0.7"/>
<circle cx="479.2" cy="439.9" r="2.6" fill="#3fb950" opacity="0.7"/>
<circle cx="491.4" cy="431.0" r="2.6" fill="#3fb950" opacity="0.7"/>
<circle cx="503.6" cy="432.1" r="2.6" fill="#3fb950" opacity="0.7"/>
<circle cx="515.8" cy="431.8" r="2.6" fill="#3fb950" opacity="0.7"/>
<circle cx="528.0" cy="432.1" r="2.6" fill="#3fb950" opacity="0.7"/>
<circle cx="540.2" cy="435.6" r="2.6" fill="#3fb950" opacity="0.7"/>
<circle cx="552.4" cy="439.4" r="2.6" fill="#3fb950" opacity="0.7"/>
<circle cx="564.6" cy="432.2" r="2.6" fill="#3fb950" opacity="0.7"/>
<circle cx="576.7" cy="436.2" r="2.6" fill="#3fb950" opacity="0.7"/>
<circle cx="588.9" cy="434.8" r="2.6" fill="#3fb950" opacity="0.7"/>
<circle cx="601.1" cy="432.0" r="2.6" fill="#3fb950" opacity="0.7"/>
<circle cx="613.3" cy="432.8" r="2.6" fill="#3fb950" opacity="0.7"/>
<circle cx="625.5" cy="432.8" r="2.6" fill="#3fb950" opacity="0.7"/>
<circle cx="637.7" cy="441.6" r="2.6" fill="#3fb950" opacity="0.7"/>
<circle cx="649.9" cy="432.2" r="2.6" fill="#3fb950" opacity="0.7"/>
<circle cx="662.1" cy="434.1" r="2.6" fill="#3fb950" opacity="0.7"/>
<circle cx="674.3" cy="435.5" r="2.6" fill="#3fb950" opacity="0.7"/>
<circle cx="686.5" cy="432.2" r="2.6" fill="#3fb950" opacity="0.7"/>
<circle cx="698.6" cy="437.2" r="2.6" fill="#3fb950" opacity="0.7"/>
<circle cx="710.8" cy="436.9" r="2.6" fill="#3fb950" opacity="0.7"/>
<circle cx="723.0" cy="434.6" r="2.6" fill="#3fb950" opacity="0.7"/>
<circle cx="735.2" cy="433.5" r="2.6" fill="#3fb950" opacity="0.7"/>
<circle cx="747.4" cy="434.4" r="2.6" fill="#3fb950" opacity="0.7"/>
<circle cx="759.6" cy="435.8" r="2.6" fill="#3fb950" opacity="0.7"/>
<circle cx="771.8" cy="438.9" r="2.6" fill="#3fb950" opacity="0.7"/>
<circle cx="784.0" cy="441.8" r="2.6" fill="#3fb950" opacity="0.7"/>
<circle cx="98.0" cy="330.2" r="3.2" fill="#ff922b" opacity="0.85"/>
<circle cx="110.2" cy="366.3" r="3.2" fill="#ff922b" opacity="0.85"/>
<circle cx="122.4" cy="348.3" r="3.2" fill="#ff922b" opacity="0.85"/>
<circle cx="134.6" cy="368.1" r="3.2" fill="#ff922b" opacity="0.85"/>
<circle cx="146.8" cy="338.7" r="3.2" fill="#ff922b" opacity="0.85"/>
<circle cx="159.0" cy="342.1" r="3.2" fill="#ff922b" opacity="0.85"/>
<circle cx="171.2" cy="344.6" r="3.2" fill="#ff922b" opacity="0.85"/>
<circle cx="183.4" cy="334.2" r="3.2" fill="#ff922b" opacity="0.85"/>
<circle cx="195.5" cy="327.6" r="3.2" fill="#ff922b" opacity="0.85"/>
<circle cx="207.7" cy="330.4" r="3.2" fill="#ff922b" opacity="0.85"/>
<circle cx="219.9" cy="325.6" r="3.2" fill="#ff922b" opacity="0.85"/>
<circle cx="232.1" cy="336.7" r="3.2" fill="#ff922b" opacity="0.85"/>
<circle cx="244.3" cy="325.6" r="3.2" fill="#ff922b" opacity="0.85"/>
<circle cx="256.5" cy="321.2" r="3.2" fill="#ff922b" opacity="0.85"/>
<circle cx="268.7" cy="336.9" r="3.2" fill="#ff922b" opacity="0.85"/>
<circle cx="280.9" cy="352.4" r="3.2" fill="#ff922b" opacity="0.85"/>
<circle cx="293.1" cy="354.1" r="3.2" fill="#ff922b" opacity="0.85"/>
<circle cx="305.3" cy="331.3" r="3.2" fill="#ff922b" opacity="0.85"/>
<circle cx="317.4" cy="340.2" r="3.2" fill="#ff922b" opacity="0.85"/>
<circle cx="329.6" cy="341.5" r="3.2" fill="#ff922b" opacity="0.85"/>
<circle cx="341.8" cy="330.6" r="3.2" fill="#ff922b" opacity="0.85"/>
<circle cx="354.0" cy="338.7" r="3.2" fill="#ff922b" opacity="0.85"/>
<circle cx="366.2" cy="336.2" r="3.2" fill="#ff922b" opacity="0.85"/>
<circle cx="378.4" cy="339.5" r="3.2" fill="#ff922b" opacity="0.85"/>
<circle cx="390.6" cy="341.0" r="3.2" fill="#ff922b" opacity="0.85"/>
<circle cx="402.8" cy="339.5" r="3.2" fill="#ff922b" opacity="0.85"/>
<circle cx="415.0" cy="340.1" r="3.2" fill="#ff922b" opacity="0.85"/>
<circle cx="427.2" cy="341.6" r="3.2" fill="#ff922b" opacity="0.85"/>
<circle cx="439.3" cy="331.3" r="3.2" fill="#ff922b" opacity="0.85"/>
<circle cx="451.5" cy="334.9" r="3.2" fill="#ff922b" opacity="0.85"/>
<circle cx="463.7" cy="328.8" r="3.2" fill="#ff922b" opacity="0.85"/>
<circle cx="475.9" cy="358.6" r="3.2" fill="#ff922b" opacity="0.85"/>
<circle cx="488.1" cy="325.4" r="3.2" fill="#ff922b" opacity="0.85"/>
<circle cx="500.3" cy="330.5" r="3.2" fill="#ff922b" opacity="0.85"/>
<circle cx="512.5" cy="332.9" r="3.2" fill="#ff922b" opacity="0.85"/>
<circle cx="524.7" cy="331.8" r="3.2" fill="#ff922b" opacity="0.85"/>
<circle cx="536.9" cy="334.7" r="3.2" fill="#ff922b" opacity="0.85"/>
<circle cx="549.1" cy="365.0" r="3.2" fill="#ff922b" opacity="0.85"/>
<circle cx="561.2" cy="327.4" r="3.2" fill="#ff922b" opacity="0.85"/>
<circle cx="573.4" cy="344.1" r="3.2" fill="#ff922b" opacity="0.85"/>
<circle cx="585.6" cy="345.4" r="3.2" fill="#ff922b" opacity="0.85"/>
<circle cx="597.8" cy="334.0" r="3.2" fill="#ff922b" opacity="0.85"/>
<circle cx="610.0" cy="338.4" r="3.2" fill="#ff922b" opacity="0.85"/>
<circle cx="622.2" cy="333.2" r="3.2" fill="#ff922b" opacity="0.85"/>
<circle cx="634.4" cy="375.2" r="3.2" fill="#ff922b" opacity="0.85"/>
<circle cx="646.6" cy="334.3" r="3.2" fill="#ff922b" opacity="0.85"/>
<circle cx="658.8" cy="341.6" r="3.2" fill="#ff922b" opacity="0.85"/>
<circle cx="671.0" cy="346.9" r="3.2" fill="#ff922b" opacity="0.85"/>
<circle cx="683.1" cy="334.4" r="3.2" fill="#ff922b" opacity="0.85"/>
<circle cx="695.3" cy="349.7" r="3.2" fill="#ff922b" opacity="0.85"/>
<circle cx="707.5" cy="349.7" r="3.2" fill="#ff922b" opacity="0.85"/>
<circle cx="719.7" cy="338.7" r="3.2" fill="#ff922b" opacity="0.85"/>
<circle cx="731.9" cy="338.7" r="3.2" fill="#ff922b" opacity="0.85"/>
<circle cx="744.1" cy="332.4" r="3.2" fill="#ff922b" opacity="0.85"/>
<circle cx="756.3" cy="336.4" r="3.2" fill="#ff922b" opacity="0.85"/>
<circle cx="768.5" cy="367.4" r="3.2" fill="#ff922b" opacity="0.85"/>
<circle cx="780.7" cy="370.7" r="3.2" fill="#ff922b" opacity="0.85"/>
<circle cx="847" cy="84" r="5" fill="#ff922b"/>
<text x="866" y="88" font-size="13" fill="#c9d1d9" font-weight="700">Kāra</text>
<line x1="836" y1="108" x2="858" y2="108" stroke="#a7b0bc" stroke-width="2" stroke-dasharray="5 4"/>
<text x="866" y="112" font-size="13" fill="#c9d1d9" font-weight="400">Rust = 1.0×</text>
<circle cx="847" cy="132" r="4" fill="#3fb950"/>
<text x="866" y="136" font-size="13" fill="#c9d1d9" font-weight="400">C</text>
<text x="70" y="538" font-size="11.5" fill="#8b949e">Each dot is one benchmarked program (kata × approach); there is no connecting line because left-to-right order is not meaningful. Raw numbers: bench-results.json</text>
</svg>