<svg xmlns="http://www.w3.org/2000/svg" width="980" height="560" viewBox="0 0 980 560" font-family="-apple-system,Segoe UI,Helvetica,Arial,sans-serif">
<rect width="980" height="560" fill="#282c34"/>
<text x="70" y="34" font-size="21" font-weight="700" fill="#c9d1d9">Compile peak memory (cold)</text>
<text x="70" y="56" font-size="13" fill="#8b949e">relative to Rust = 1.0 · lower = leaner · 93 programs</text>
<line x1="70" y1="456.0" x2="812" y2="456.0" stroke="#3b414b" stroke-width="1"/>
<text x="60" y="460.0" font-size="12" text-anchor="end" fill="#8b949e">0.0×</text>
<line x1="70" y1="330.0" x2="812" y2="330.0" stroke="#3b414b" stroke-width="1"/>
<text x="60" y="334.0" font-size="12" text-anchor="end" fill="#8b949e">0.5×</text>
<line x1="70" y1="204.0" x2="812" y2="204.0" stroke="#a7b0bc" stroke-width="2" stroke-dasharray="5 4"/>
<text x="60" y="208.0" font-size="12" text-anchor="end" fill="#aeb6c0" font-weight="700">1.0×</text>
<line x1="70" y1="78.0" x2="812" y2="78.0" stroke="#3b414b" stroke-width="1"/>
<text x="60" y="82.0" font-size="12" text-anchor="end" fill="#8b949e">1.5×</text>
<text x="812" y="198.0" font-size="11" text-anchor="end" fill="#aeb6c0">Rust baseline</text>
<line x1="70" y1="456" x2="812" y2="456" stroke="#3b414b"/>
<text x="441.0" y="478" font-size="11" text-anchor="middle" fill="#8b949e">93 programs (kata × approach) — x-order carries no meaning</text>
<circle cx="100.7" cy="431.6" r="2.6" fill="#3fb950" opacity="0.7"/>
<circle cx="108.1" cy="438.7" r="2.6" fill="#3fb950" opacity="0.7"/>
<circle cx="115.5" cy="435.8" r="2.6" fill="#3fb950" opacity="0.7"/>
<circle cx="122.9" cy="439.1" r="2.6" fill="#3fb950" opacity="0.7"/>
<circle cx="130.4" cy="434.2" r="2.6" fill="#3fb950" opacity="0.7"/>
<circle cx="137.8" cy="434.5" r="2.6" fill="#3fb950" opacity="0.7"/>
<circle cx="145.2" cy="435.8" r="2.6" fill="#3fb950" opacity="0.7"/>
<circle cx="152.6" cy="432.0" r="2.6" fill="#3fb950" opacity="0.7"/>
<circle cx="160.0" cy="431.7" r="2.6" fill="#3fb950" opacity="0.7"/>
<circle cx="167.5" cy="432.3" r="2.6" fill="#3fb950" opacity="0.7"/>
<circle cx="174.9" cy="432.1" r="2.6" fill="#3fb950" opacity="0.7"/>
<circle cx="182.3" cy="433.4" r="2.6" fill="#3fb950" opacity="0.7"/>
<circle cx="189.7" cy="433.0" r="2.6" fill="#3fb950" opacity="0.7"/>
<circle cx="197.1" cy="433.3" r="2.6" fill="#3fb950" opacity="0.7"/>
<circle cx="204.6" cy="434.3" r="2.6" fill="#3fb950" opacity="0.7"/>
<circle cx="212.0" cy="439.1" r="2.6" fill="#3fb950" opacity="0.7"/>
<circle cx="219.4" cy="438.8" r="2.6" fill="#3fb950" opacity="0.7"/>
<circle cx="226.8" cy="433.2" r="2.6" fill="#3fb950" opacity="0.7"/>
<circle cx="234.2" cy="439.4" r="2.6" fill="#3fb950" opacity="0.7"/>
<circle cx="241.7" cy="434.9" r="2.6" fill="#3fb950" opacity="0.7"/>
<circle cx="249.1" cy="432.1" r="2.6" fill="#3fb950" opacity="0.7"/>
<circle cx="256.5" cy="435.3" r="2.6" fill="#3fb950" opacity="0.7"/>
<circle cx="263.9" cy="432.8" r="2.6" fill="#3fb950" opacity="0.7"/>
<circle cx="271.3" cy="436.7" r="2.6" fill="#3fb950" opacity="0.7"/>
<circle cx="278.8" cy="434.7" r="2.6" fill="#3fb950" opacity="0.7"/>
<circle cx="286.2" cy="435.6" r="2.6" fill="#3fb950" opacity="0.7"/>
<circle cx="293.6" cy="433.8" r="2.6" fill="#3fb950" opacity="0.7"/>
<circle cx="301.0" cy="434.0" r="2.6" fill="#3fb950" opacity="0.7"/>
<circle cx="308.4" cy="431.9" r="2.6" fill="#3fb950" opacity="0.7"/>
<circle cx="315.9" cy="433.4" r="2.6" fill="#3fb950" opacity="0.7"/>
<circle cx="323.3" cy="430.6" r="2.6" fill="#3fb950" opacity="0.7"/>
<circle cx="330.7" cy="439.9" r="2.6" fill="#3fb950" opacity="0.7"/>
<circle cx="338.1" cy="431.0" r="2.6" fill="#3fb950" opacity="0.7"/>
<circle cx="345.5" cy="432.1" r="2.6" fill="#3fb950" opacity="0.7"/>
<circle cx="353.0" cy="431.8" r="2.6" fill="#3fb950" opacity="0.7"/>
<circle cx="360.4" cy="432.1" r="2.6" fill="#3fb950" opacity="0.7"/>
<circle cx="367.8" cy="431.8" r="2.6" fill="#3fb950" opacity="0.7"/>
<circle cx="375.2" cy="431.4" r="2.6" fill="#3fb950" opacity="0.7"/>
<circle cx="382.6" cy="431.9" r="2.6" fill="#3fb950" opacity="0.7"/>
<circle cx="390.1" cy="433.4" r="2.6" fill="#3fb950" opacity="0.7"/>
<circle cx="397.5" cy="434.1" r="2.6" fill="#3fb950" opacity="0.7"/>
<circle cx="404.9" cy="436.9" r="2.6" fill="#3fb950" opacity="0.7"/>
<circle cx="412.3" cy="433.4" r="2.6" fill="#3fb950" opacity="0.7"/>
<circle cx="419.7" cy="433.0" r="2.6" fill="#3fb950" opacity="0.7"/>
<circle cx="427.2" cy="435.6" r="2.6" fill="#3fb950" opacity="0.7"/>
<circle cx="434.6" cy="435.2" r="2.6" fill="#3fb950" opacity="0.7"/>
<circle cx="442.0" cy="433.8" r="2.6" fill="#3fb950" opacity="0.7"/>
<circle cx="449.4" cy="435.8" r="2.6" fill="#3fb950" opacity="0.7"/>
<circle cx="456.8" cy="439.5" r="2.6" fill="#3fb950" opacity="0.7"/>
<circle cx="464.3" cy="435.7" r="2.6" fill="#3fb950" opacity="0.7"/>
<circle cx="471.7" cy="443.0" r="2.6" fill="#3fb950" opacity="0.7"/>
<circle cx="479.1" cy="430.7" r="2.6" fill="#3fb950" opacity="0.7"/>
<circle cx="486.5" cy="431.2" r="2.6" fill="#3fb950" opacity="0.7"/>
<circle cx="493.9" cy="430.8" r="2.6" fill="#3fb950" opacity="0.7"/>
<circle cx="501.4" cy="429.6" r="2.6" fill="#3fb950" opacity="0.7"/>
<circle cx="508.8" cy="430.6" r="2.6" fill="#3fb950" opacity="0.7"/>
<circle cx="516.2" cy="431.8" r="2.6" fill="#3fb950" opacity="0.7"/>
<circle cx="523.6" cy="439.4" r="2.6" fill="#3fb950" opacity="0.7"/>
<circle cx="531.0" cy="435.4" r="2.6" fill="#3fb950" opacity="0.7"/>
<circle cx="538.5" cy="435.6" r="2.6" fill="#3fb950" opacity="0.7"/>
<circle cx="545.9" cy="435.9" r="2.6" fill="#3fb950" opacity="0.7"/>
<circle cx="553.3" cy="434.9" r="2.6" fill="#3fb950" opacity="0.7"/>
<circle cx="560.7" cy="433.4" r="2.6" fill="#3fb950" opacity="0.7"/>
<circle cx="568.1" cy="432.7" r="2.6" fill="#3fb950" opacity="0.7"/>
<circle cx="575.6" cy="433.1" r="2.6" fill="#3fb950" opacity="0.7"/>
<circle cx="583.0" cy="432.2" r="2.6" fill="#3fb950" opacity="0.7"/>
<circle cx="590.4" cy="430.5" r="2.6" fill="#3fb950" opacity="0.7"/>
<circle cx="597.8" cy="432.2" r="2.6" fill="#3fb950" opacity="0.7"/>
<circle cx="605.2" cy="429.8" r="2.6" fill="#3fb950" opacity="0.7"/>
<circle cx="612.7" cy="430.3" r="2.6" fill="#3fb950" opacity="0.7"/>
<circle cx="620.1" cy="436.2" r="2.6" fill="#3fb950" opacity="0.7"/>
<circle cx="627.5" cy="433.2" r="2.6" fill="#3fb950" opacity="0.7"/>
<circle cx="634.9" cy="434.8" r="2.6" fill="#3fb950" opacity="0.7"/>
<circle cx="642.3" cy="432.9" r="2.6" fill="#3fb950" opacity="0.7"/>
<circle cx="649.8" cy="433.7" r="2.6" fill="#3fb950" opacity="0.7"/>
<circle cx="657.2" cy="434.8" r="2.6" fill="#3fb950" opacity="0.7"/>
<circle cx="664.6" cy="432.0" r="2.6" fill="#3fb950" opacity="0.7"/>
<circle cx="672.0" cy="432.5" r="2.6" fill="#3fb950" opacity="0.7"/>
<circle cx="679.4" cy="432.8" r="2.6" fill="#3fb950" opacity="0.7"/>
<circle cx="686.9" cy="432.8" r="2.6" fill="#3fb950" opacity="0.7"/>
<circle cx="694.3" cy="441.6" r="2.6" fill="#3fb950" opacity="0.7"/>
<circle cx="701.7" cy="432.2" r="2.6" fill="#3fb950" opacity="0.7"/>
<circle cx="709.1" cy="434.1" r="2.6" fill="#3fb950" opacity="0.7"/>
<circle cx="716.5" cy="435.5" r="2.6" fill="#3fb950" opacity="0.7"/>
<circle cx="724.0" cy="432.2" r="2.6" fill="#3fb950" opacity="0.7"/>
<circle cx="731.4" cy="437.2" r="2.6" fill="#3fb950" opacity="0.7"/>
<circle cx="738.8" cy="436.9" r="2.6" fill="#3fb950" opacity="0.7"/>
<circle cx="746.2" cy="434.6" r="2.6" fill="#3fb950" opacity="0.7"/>
<circle cx="753.6" cy="433.5" r="2.6" fill="#3fb950" opacity="0.7"/>
<circle cx="761.1" cy="434.4" r="2.6" fill="#3fb950" opacity="0.7"/>
<circle cx="768.5" cy="435.8" r="2.6" fill="#3fb950" opacity="0.7"/>
<circle cx="775.9" cy="438.9" r="2.6" fill="#3fb950" opacity="0.7"/>
<circle cx="783.3" cy="441.8" r="2.6" fill="#3fb950" opacity="0.7"/>
<circle cx="98.7" cy="330.2" r="3.2" fill="#ff922b" opacity="0.85"/>
<circle cx="106.1" cy="366.3" r="3.2" fill="#ff922b" opacity="0.85"/>
<circle cx="113.5" cy="348.3" r="3.2" fill="#ff922b" opacity="0.85"/>
<circle cx="120.9" cy="368.1" r="3.2" fill="#ff922b" opacity="0.85"/>
<circle cx="128.4" cy="338.7" r="3.2" fill="#ff922b" opacity="0.85"/>
<circle cx="135.8" cy="342.1" r="3.2" fill="#ff922b" opacity="0.85"/>
<circle cx="143.2" cy="344.6" r="3.2" fill="#ff922b" opacity="0.85"/>
<circle cx="150.6" cy="334.2" r="3.2" fill="#ff922b" opacity="0.85"/>
<circle cx="158.0" cy="327.6" r="3.2" fill="#ff922b" opacity="0.85"/>
<circle cx="165.5" cy="330.4" r="3.2" fill="#ff922b" opacity="0.85"/>
<circle cx="172.9" cy="325.6" r="3.2" fill="#ff922b" opacity="0.85"/>
<circle cx="180.3" cy="336.7" r="3.2" fill="#ff922b" opacity="0.85"/>
<circle cx="187.7" cy="325.6" r="3.2" fill="#ff922b" opacity="0.85"/>
<circle cx="195.1" cy="321.2" r="3.2" fill="#ff922b" opacity="0.85"/>
<circle cx="202.6" cy="336.9" r="3.2" fill="#ff922b" opacity="0.85"/>
<circle cx="210.0" cy="352.4" r="3.2" fill="#ff922b" opacity="0.85"/>
<circle cx="217.4" cy="354.1" r="3.2" fill="#ff922b" opacity="0.85"/>
<circle cx="224.8" cy="331.3" r="3.2" fill="#ff922b" opacity="0.85"/>
<circle cx="232.2" cy="340.2" r="3.2" fill="#ff922b" opacity="0.85"/>
<circle cx="239.7" cy="341.5" r="3.2" fill="#ff922b" opacity="0.85"/>
<circle cx="247.1" cy="330.6" r="3.2" fill="#ff922b" opacity="0.85"/>
<circle cx="254.5" cy="338.7" r="3.2" fill="#ff922b" opacity="0.85"/>
<circle cx="261.9" cy="336.2" r="3.2" fill="#ff922b" opacity="0.85"/>
<circle cx="269.3" cy="339.5" r="3.2" fill="#ff922b" opacity="0.85"/>
<circle cx="276.8" cy="341.0" r="3.2" fill="#ff922b" opacity="0.85"/>
<circle cx="284.2" cy="339.5" r="3.2" fill="#ff922b" opacity="0.85"/>
<circle cx="291.6" cy="340.1" r="3.2" fill="#ff922b" opacity="0.85"/>
<circle cx="299.0" cy="341.6" r="3.2" fill="#ff922b" opacity="0.85"/>
<circle cx="306.4" cy="331.3" r="3.2" fill="#ff922b" opacity="0.85"/>
<circle cx="313.9" cy="334.9" r="3.2" fill="#ff922b" opacity="0.85"/>
<circle cx="321.3" cy="328.8" r="3.2" fill="#ff922b" opacity="0.85"/>
<circle cx="328.7" cy="358.6" r="3.2" fill="#ff922b" opacity="0.85"/>
<circle cx="336.1" cy="325.4" r="3.2" fill="#ff922b" opacity="0.85"/>
<circle cx="343.5" cy="330.5" r="3.2" fill="#ff922b" opacity="0.85"/>
<circle cx="351.0" cy="332.9" r="3.2" fill="#ff922b" opacity="0.85"/>
<circle cx="358.4" cy="331.8" r="3.2" fill="#ff922b" opacity="0.85"/>
<circle cx="365.8" cy="332.5" r="3.2" fill="#ff922b" opacity="0.85"/>
<circle cx="373.2" cy="290.0" r="3.2" fill="#ff922b" opacity="0.85"/>
<circle cx="380.6" cy="308.0" r="3.2" fill="#ff922b" opacity="0.85"/>
<circle cx="388.1" cy="332.6" r="3.2" fill="#ff922b" opacity="0.85"/>
<circle cx="395.5" cy="336.9" r="3.2" fill="#ff922b" opacity="0.85"/>
<circle cx="402.9" cy="346.4" r="3.2" fill="#ff922b" opacity="0.85"/>
<circle cx="410.3" cy="337.1" r="3.2" fill="#ff922b" opacity="0.85"/>
<circle cx="417.7" cy="335.6" r="3.2" fill="#ff922b" opacity="0.85"/>
<circle cx="425.2" cy="334.7" r="3.2" fill="#ff922b" opacity="0.85"/>
<circle cx="432.6" cy="344.1" r="3.2" fill="#ff922b" opacity="0.85"/>
<circle cx="440.0" cy="339.7" r="3.2" fill="#ff922b" opacity="0.85"/>
<circle cx="447.4" cy="344.1" r="3.2" fill="#ff922b" opacity="0.85"/>
<circle cx="454.8" cy="361.9" r="3.2" fill="#ff922b" opacity="0.85"/>
<circle cx="462.3" cy="298.5" r="3.2" fill="#ff922b" opacity="0.85"/>
<circle cx="469.7" cy="360.2" r="3.2" fill="#ff922b" opacity="0.85"/>
<circle cx="477.1" cy="274.7" r="3.2" fill="#ff922b" opacity="0.85"/>
<circle cx="484.5" cy="269.5" r="3.2" fill="#ff922b" opacity="0.85"/>
<circle cx="491.9" cy="265.6" r="3.2" fill="#ff922b" opacity="0.85"/>
<circle cx="499.4" cy="261.5" r="3.2" fill="#ff922b" opacity="0.85"/>
<circle cx="506.8" cy="254.2" r="3.2" fill="#ff922b" opacity="0.85"/>
<circle cx="514.2" cy="281.4" r="3.2" fill="#ff922b" opacity="0.85"/>
<circle cx="521.6" cy="365.0" r="3.2" fill="#ff922b" opacity="0.85"/>
<circle cx="529.0" cy="291.7" r="3.2" fill="#ff922b" opacity="0.85"/>
<circle cx="536.5" cy="289.6" r="3.2" fill="#ff922b" opacity="0.85"/>
<circle cx="543.9" cy="290.8" r="3.2" fill="#ff922b" opacity="0.85"/>
<circle cx="551.3" cy="286.2" r="3.2" fill="#ff922b" opacity="0.85"/>
<circle cx="558.7" cy="292.3" r="3.2" fill="#ff922b" opacity="0.85"/>
<circle cx="566.1" cy="281.6" r="3.2" fill="#ff922b" opacity="0.85"/>
<circle cx="573.6" cy="280.7" r="3.2" fill="#ff922b" opacity="0.85"/>
<circle cx="581.0" cy="327.4" r="3.2" fill="#ff922b" opacity="0.85"/>
<circle cx="588.4" cy="265.6" r="3.2" fill="#ff922b" opacity="0.85"/>
<circle cx="595.8" cy="242.3" r="3.2" fill="#ff922b" opacity="0.85"/>
<circle cx="603.2" cy="263.3" r="3.2" fill="#ff922b" opacity="0.85"/>
<circle cx="610.7" cy="265.9" r="3.2" fill="#ff922b" opacity="0.85"/>
<circle cx="618.1" cy="344.1" r="3.2" fill="#ff922b" opacity="0.85"/>
<circle cx="625.5" cy="277.5" r="3.2" fill="#ff922b" opacity="0.85"/>
<circle cx="632.9" cy="278.4" r="3.2" fill="#ff922b" opacity="0.85"/>
<circle cx="640.3" cy="277.6" r="3.2" fill="#ff922b" opacity="0.85"/>
<circle cx="647.8" cy="284.8" r="3.2" fill="#ff922b" opacity="0.85"/>
<circle cx="655.2" cy="345.4" r="3.2" fill="#ff922b" opacity="0.85"/>
<circle cx="662.6" cy="334.0" r="3.2" fill="#ff922b" opacity="0.85"/>
<circle cx="670.0" cy="269.7" r="3.2" fill="#ff922b" opacity="0.85"/>
<circle cx="677.4" cy="338.4" r="3.2" fill="#ff922b" opacity="0.85"/>
<circle cx="684.9" cy="333.2" r="3.2" fill="#ff922b" opacity="0.85"/>
<circle cx="692.3" cy="375.2" r="3.2" fill="#ff922b" opacity="0.85"/>
<circle cx="699.7" cy="334.3" r="3.2" fill="#ff922b" opacity="0.85"/>
<circle cx="707.1" cy="341.6" r="3.2" fill="#ff922b" opacity="0.85"/>
<circle cx="714.5" cy="346.9" r="3.2" fill="#ff922b" opacity="0.85"/>
<circle cx="722.0" cy="334.4" r="3.2" fill="#ff922b" opacity="0.85"/>
<circle cx="729.4" cy="349.7" r="3.2" fill="#ff922b" opacity="0.85"/>
<circle cx="736.8" cy="349.7" r="3.2" fill="#ff922b" opacity="0.85"/>
<circle cx="744.2" cy="338.7" r="3.2" fill="#ff922b" opacity="0.85"/>
<circle cx="751.6" cy="338.7" r="3.2" fill="#ff922b" opacity="0.85"/>
<circle cx="759.1" cy="332.4" r="3.2" fill="#ff922b" opacity="0.85"/>
<circle cx="766.5" cy="336.4" r="3.2" fill="#ff922b" opacity="0.85"/>
<circle cx="773.9" cy="367.4" r="3.2" fill="#ff922b" opacity="0.85"/>
<circle cx="781.3" cy="370.7" r="3.2" fill="#ff922b" opacity="0.85"/>
<circle cx="847" cy="84" r="5" fill="#ff922b"/>
<text x="866" y="88" font-size="13" fill="#c9d1d9" font-weight="700">Kāra</text>
<line x1="836" y1="108" x2="858" y2="108" stroke="#a7b0bc" stroke-width="2" stroke-dasharray="5 4"/>
<text x="866" y="112" font-size="13" fill="#c9d1d9" font-weight="400">Rust = 1.0×</text>
<circle cx="847" cy="132" r="4" fill="#3fb950"/>
<text x="866" y="136" font-size="13" fill="#c9d1d9" font-weight="400">C</text>
<text x="70" y="538" font-size="11.5" fill="#8b949e">Each dot is one benchmarked program (kata × approach); there is no connecting line because left-to-right order is not meaningful. Raw numbers: bench-results.json</text>
</svg>