<svg xmlns="http://www.w3.org/2000/svg" width="980" height="560" viewBox="0 0 980 560" font-family="-apple-system,Segoe UI,Helvetica,Arial,sans-serif">
<rect width="980" height="560" fill="#282c34"/>
<text x="70" y="34" font-size="21" font-weight="700" fill="#c9d1d9">Runtime peak memory — sequential lane</text>
<text x="70" y="56" font-size="13" fill="#8b949e">relative to Rust = 1.0 · lower = leaner · 40 programs</text>
<line x1="70" y1="456.0" x2="812" y2="456.0" stroke="#3b414b" stroke-width="1"/>
<text x="60" y="460.0" font-size="12" text-anchor="end" fill="#8b949e">0.0×</text>
<line x1="70" y1="418.2" x2="812" y2="418.2" stroke="#a7b0bc" stroke-width="2" stroke-dasharray="5 4"/>
<text x="60" y="422.2" font-size="12" text-anchor="end" fill="#aeb6c0" font-weight="700">1.0×</text>
<line x1="70" y1="380.4" x2="812" y2="380.4" stroke="#3b414b" stroke-width="1"/>
<text x="60" y="384.4" font-size="12" text-anchor="end" fill="#8b949e">2.0×</text>
<line x1="70" y1="304.8" x2="812" y2="304.8" stroke="#3b414b" stroke-width="1"/>
<text x="60" y="308.8" font-size="12" text-anchor="end" fill="#8b949e">4.0×</text>
<line x1="70" y1="229.2" x2="812" y2="229.2" stroke="#3b414b" stroke-width="1"/>
<text x="60" y="233.2" font-size="12" text-anchor="end" fill="#8b949e">6.0×</text>
<line x1="70" y1="153.6" x2="812" y2="153.6" stroke="#3b414b" stroke-width="1"/>
<text x="60" y="157.6" font-size="12" text-anchor="end" fill="#8b949e">8.0×</text>
<line x1="70" y1="78.0" x2="812" y2="78.0" stroke="#3b414b" stroke-width="1"/>
<text x="60" y="82.0" font-size="12" text-anchor="end" fill="#8b949e">10.0×</text>
<text x="812" y="412.2" font-size="11" text-anchor="end" fill="#aeb6c0">Rust baseline</text>
<line x1="70" y1="456" x2="812" y2="456" stroke="#3b414b"/>
<text x="441.0" y="478" font-size="11" text-anchor="middle" fill="#8b949e">40 programs (kata × approach) — x-order carries no meaning</text>
<circle cx="99.7" cy="420.3" r="2.6" fill="#3fb950" opacity="0.7"/>
<circle cx="117.2" cy="418.2" r="2.6" fill="#3fb950" opacity="0.7"/>
<circle cx="134.7" cy="419.8" r="2.6" fill="#3fb950" opacity="0.7"/>
<circle cx="152.2" cy="420.1" r="2.6" fill="#3fb950" opacity="0.7"/>
<circle cx="169.7" cy="418.3" r="2.6" fill="#3fb950" opacity="0.7"/>
<circle cx="187.2" cy="420.9" r="2.6" fill="#3fb950" opacity="0.7"/>
<circle cx="204.7" cy="423.8" r="2.6" fill="#3fb950" opacity="0.7"/>
<circle cx="222.2" cy="419.3" r="2.6" fill="#3fb950" opacity="0.7"/>
<circle cx="239.7" cy="420.3" r="2.6" fill="#3fb950" opacity="0.7"/>
<circle cx="257.2" cy="419.3" r="2.6" fill="#3fb950" opacity="0.7"/>
<circle cx="274.7" cy="419.3" r="2.6" fill="#3fb950" opacity="0.7"/>
<circle cx="292.2" cy="420.3" r="2.6" fill="#3fb950" opacity="0.7"/>
<circle cx="309.7" cy="418.8" r="2.6" fill="#3fb950" opacity="0.7"/>
<circle cx="327.2" cy="419.9" r="2.6" fill="#3fb950" opacity="0.7"/>
<circle cx="344.7" cy="418.7" r="2.6" fill="#3fb950" opacity="0.7"/>
<circle cx="362.2" cy="417.7" r="2.6" fill="#3fb950" opacity="0.7"/>
<circle cx="379.7" cy="418.8" r="2.6" fill="#3fb950" opacity="0.7"/>
<circle cx="397.2" cy="416.7" r="2.6" fill="#3fb950" opacity="0.7"/>
<circle cx="414.7" cy="417.7" r="2.6" fill="#3fb950" opacity="0.7"/>
<circle cx="432.2" cy="419.8" r="2.6" fill="#3fb950" opacity="0.7"/>
<circle cx="449.8" cy="417.7" r="2.6" fill="#3fb950" opacity="0.7"/>
<circle cx="467.3" cy="418.7" r="2.6" fill="#3fb950" opacity="0.7"/>
<circle cx="484.8" cy="426.4" r="2.6" fill="#3fb950" opacity="0.7"/>
<circle cx="502.3" cy="419.7" r="2.6" fill="#3fb950" opacity="0.7"/>
<circle cx="519.8" cy="419.8" r="2.6" fill="#3fb950" opacity="0.7"/>
<circle cx="537.3" cy="418.8" r="2.6" fill="#3fb950" opacity="0.7"/>
<circle cx="554.8" cy="419.8" r="2.6" fill="#3fb950" opacity="0.7"/>
<circle cx="572.3" cy="420.4" r="2.6" fill="#3fb950" opacity="0.7"/>
<circle cx="589.8" cy="427.8" r="2.6" fill="#3fb950" opacity="0.7"/>
<circle cx="607.3" cy="418.2" r="2.6" fill="#3fb950" opacity="0.7"/>
<circle cx="624.8" cy="419.3" r="2.6" fill="#3fb950" opacity="0.7"/>
<circle cx="642.3" cy="418.2" r="2.6" fill="#3fb950" opacity="0.7"/>
<circle cx="659.8" cy="424.5" r="2.6" fill="#3fb950" opacity="0.7"/>
<circle cx="677.3" cy="418.2" r="2.6" fill="#3fb950" opacity="0.7"/>
<circle cx="694.8" cy="418.3" r="2.6" fill="#3fb950" opacity="0.7"/>
<circle cx="712.3" cy="427.8" r="2.6" fill="#3fb950" opacity="0.7"/>
<circle cx="729.8" cy="418.7" r="2.6" fill="#3fb950" opacity="0.7"/>
<circle cx="747.3" cy="420.6" r="2.6" fill="#3fb950" opacity="0.7"/>
<circle cx="764.8" cy="436.1" r="2.6" fill="#3fb950" opacity="0.7"/>
<circle cx="782.3" cy="404.2" r="2.6" fill="#3fb950" opacity="0.7"/>
<circle cx="102.3" cy="360.2" r="2.6" fill="#bc8cff" opacity="0.7"/>
<circle cx="119.8" cy="332.5" r="2.6" fill="#bc8cff" opacity="0.7"/>
<circle cx="137.3" cy="125.0" r="2.6" fill="#bc8cff" opacity="0.7"/>
<circle cx="154.8" cy="365.3" r="2.6" fill="#bc8cff" opacity="0.7"/>
<circle cx="172.3" cy="412.2" r="2.6" fill="#bc8cff" opacity="0.7"/>
<circle cx="189.8" cy="351.2" r="2.6" fill="#bc8cff" opacity="0.7"/>
<circle cx="207.3" cy="191.4" r="2.6" fill="#bc8cff" opacity="0.7"/>
<circle cx="224.8" cy="350.7" r="2.6" fill="#bc8cff" opacity="0.7"/>
<circle cx="242.3" cy="357.0" r="2.6" fill="#bc8cff" opacity="0.7"/>
<circle cx="259.8" cy="353.4" r="2.6" fill="#bc8cff" opacity="0.7"/>
<circle cx="277.3" cy="357.7" r="2.6" fill="#bc8cff" opacity="0.7"/>
<circle cx="294.9" cy="359.1" r="2.6" fill="#bc8cff" opacity="0.7"/>
<circle cx="312.4" cy="99.2" r="2.6" fill="#bc8cff" opacity="0.7"/>
<circle cx="329.9" cy="115.9" r="2.6" fill="#bc8cff" opacity="0.7"/>
<circle cx="347.4" cy="170.6" r="2.6" fill="#bc8cff" opacity="0.7"/>
<circle cx="364.9" cy="141.7" r="2.6" fill="#bc8cff" opacity="0.7"/>
<circle cx="382.4" cy="135.3" r="2.6" fill="#bc8cff" opacity="0.7"/>
<circle cx="399.9" cy="158.5" r="2.6" fill="#bc8cff" opacity="0.7"/>
<circle cx="417.4" cy="155.6" r="2.6" fill="#bc8cff" opacity="0.7"/>
<circle cx="434.9" cy="126.1" r="2.6" fill="#bc8cff" opacity="0.7"/>
<circle cx="452.4" cy="134.5" r="2.6" fill="#bc8cff" opacity="0.7"/>
<circle cx="469.9" cy="132.6" r="2.6" fill="#bc8cff" opacity="0.7"/>
<circle cx="487.4" cy="310.6" r="2.6" fill="#bc8cff" opacity="0.7"/>
<circle cx="504.9" cy="155.6" r="2.6" fill="#bc8cff" opacity="0.7"/>
<circle cx="522.4" cy="117.0" r="2.6" fill="#bc8cff" opacity="0.7"/>
<circle cx="539.9" cy="126.0" r="2.6" fill="#bc8cff" opacity="0.7"/>
<circle cx="557.4" cy="115.9" r="2.6" fill="#bc8cff" opacity="0.7"/>
<circle cx="574.9" cy="357.6" r="2.6" fill="#bc8cff" opacity="0.7"/>
<circle cx="592.4" cy="220.5" r="2.6" fill="#bc8cff" opacity="0.7"/>
<circle cx="609.9" cy="414.8" r="2.6" fill="#bc8cff" opacity="0.7"/>
<circle cx="627.4" cy="352.8" r="2.6" fill="#bc8cff" opacity="0.7"/>
<circle cx="644.9" cy="412.3" r="2.6" fill="#bc8cff" opacity="0.7"/>
<circle cx="662.4" cy="454.1" r="2.6" fill="#bc8cff" opacity="0.7"/>
<circle cx="679.9" cy="412.2" r="2.6" fill="#bc8cff" opacity="0.7"/>
<circle cx="697.4" cy="412.2" r="2.6" fill="#bc8cff" opacity="0.7"/>
<circle cx="714.9" cy="359.6" r="2.6" fill="#bc8cff" opacity="0.7"/>
<circle cx="732.4" cy="351.3" r="2.6" fill="#bc8cff" opacity="0.7"/>
<circle cx="749.9" cy="362.2" r="2.6" fill="#bc8cff" opacity="0.7"/>
<circle cx="767.4" cy="371.3" r="2.6" fill="#bc8cff" opacity="0.7"/>
<circle cx="785.0" cy="390.1" r="2.6" fill="#bc8cff" opacity="0.7"/>
<circle cx="97.0" cy="420.8" r="3.2" fill="#ff922b" opacity="0.85"/>
<circle cx="114.6" cy="420.4" r="3.2" fill="#ff922b" opacity="0.85"/>
<circle cx="132.1" cy="418.7" r="3.2" fill="#ff922b" opacity="0.85"/>
<circle cx="149.6" cy="414.4" r="3.2" fill="#ff922b" opacity="0.85"/>
<circle cx="167.1" cy="418.3" r="3.2" fill="#ff922b" opacity="0.85"/>
<circle cx="184.6" cy="415.0" r="3.2" fill="#ff922b" opacity="0.85"/>
<circle cx="202.1" cy="419.0" r="3.2" fill="#ff922b" opacity="0.85"/>
<circle cx="219.6" cy="419.3" r="3.2" fill="#ff922b" opacity="0.85"/>
<circle cx="237.1" cy="420.3" r="3.2" fill="#ff922b" opacity="0.85"/>
<circle cx="254.6" cy="419.8" r="3.2" fill="#ff922b" opacity="0.85"/>
<circle cx="272.1" cy="419.3" r="3.2" fill="#ff922b" opacity="0.85"/>
<circle cx="289.6" cy="420.3" r="3.2" fill="#ff922b" opacity="0.85"/>
<circle cx="307.1" cy="419.9" r="3.2" fill="#ff922b" opacity="0.85"/>
<circle cx="324.6" cy="419.3" r="3.2" fill="#ff922b" opacity="0.85"/>
<circle cx="342.1" cy="417.7" r="3.2" fill="#ff922b" opacity="0.85"/>
<circle cx="359.6" cy="417.7" r="3.2" fill="#ff922b" opacity="0.85"/>
<circle cx="377.1" cy="418.2" r="3.2" fill="#ff922b" opacity="0.85"/>
<circle cx="394.6" cy="416.7" r="3.2" fill="#ff922b" opacity="0.85"/>
<circle cx="412.1" cy="418.2" r="3.2" fill="#ff922b" opacity="0.85"/>
<circle cx="429.6" cy="418.7" r="3.2" fill="#ff922b" opacity="0.85"/>
<circle cx="447.1" cy="412.3" r="3.2" fill="#ff922b" opacity="0.85"/>
<circle cx="464.6" cy="418.7" r="3.2" fill="#ff922b" opacity="0.85"/>
<circle cx="482.1" cy="412.1" r="3.2" fill="#ff922b" opacity="0.85"/>
<circle cx="499.6" cy="418.2" r="3.2" fill="#ff922b" opacity="0.85"/>
<circle cx="517.1" cy="419.8" r="3.2" fill="#ff922b" opacity="0.85"/>
<circle cx="534.6" cy="419.3" r="3.2" fill="#ff922b" opacity="0.85"/>
<circle cx="552.1" cy="417.7" r="3.2" fill="#ff922b" opacity="0.85"/>
<circle cx="569.6" cy="419.9" r="3.2" fill="#ff922b" opacity="0.85"/>
<circle cx="587.1" cy="421.7" r="3.2" fill="#ff922b" opacity="0.85"/>
<circle cx="604.7" cy="418.2" r="3.2" fill="#ff922b" opacity="0.85"/>
<circle cx="622.2" cy="419.3" r="3.2" fill="#ff922b" opacity="0.85"/>
<circle cx="639.7" cy="418.2" r="3.2" fill="#ff922b" opacity="0.85"/>
<circle cx="657.2" cy="421.3" r="3.2" fill="#ff922b" opacity="0.85"/>
<circle cx="674.7" cy="418.2" r="3.2" fill="#ff922b" opacity="0.85"/>
<circle cx="692.2" cy="418.2" r="3.2" fill="#ff922b" opacity="0.85"/>
<circle cx="709.7" cy="391.1" r="3.2" fill="#ff922b" opacity="0.85"/>
<circle cx="727.2" cy="419.2" r="3.2" fill="#ff922b" opacity="0.85"/>
<circle cx="744.7" cy="420.6" r="3.2" fill="#ff922b" opacity="0.85"/>
<circle cx="762.2" cy="415.7" r="3.2" fill="#ff922b" opacity="0.85"/>
<circle cx="779.7" cy="418.3" r="3.2" fill="#ff922b" opacity="0.85"/>
<circle cx="847" cy="84" r="5" fill="#ff922b"/>
<text x="866" y="88" font-size="13" fill="#c9d1d9" font-weight="700">Kāra</text>
<line x1="836" y1="108" x2="858" y2="108" stroke="#a7b0bc" stroke-width="2" stroke-dasharray="5 4"/>
<text x="866" y="112" font-size="13" fill="#c9d1d9" font-weight="400">Rust = 1.0×</text>
<circle cx="847" cy="132" r="4" fill="#3fb950"/>
<text x="866" y="136" font-size="13" fill="#c9d1d9" font-weight="400">C</text>
<circle cx="847" cy="156" r="4" fill="#bc8cff"/>
<text x="866" y="160" font-size="13" fill="#c9d1d9" font-weight="400">Go</text>
<text x="70" y="538" font-size="11.5" fill="#8b949e">Each dot is one benchmarked program (kata × approach); there is no connecting line because left-to-right order is not meaningful. Raw numbers: bench-results.json</text>
</svg>