<svg xmlns="http://www.w3.org/2000/svg" width="980" height="560" viewBox="0 0 980 560" font-family="-apple-system,Segoe UI,Helvetica,Arial,sans-serif">
<rect width="980" height="560" fill="#282c34"/>
<text x="70" y="34" font-size="21" font-weight="700" fill="#c9d1d9">Runtime peak memory — sequential lane</text>
<text x="70" y="56" font-size="13" fill="#8b949e">relative to Rust = 1.0 · lower = leaner · 47 programs</text>
<line x1="70" y1="456.0" x2="812" y2="456.0" stroke="#3b414b" stroke-width="1"/>
<text x="60" y="460.0" font-size="12" text-anchor="end" fill="#8b949e">0.0×</text>
<line x1="70" y1="418.2" x2="812" y2="418.2" stroke="#a7b0bc" stroke-width="2" stroke-dasharray="5 4"/>
<text x="60" y="422.2" font-size="12" text-anchor="end" fill="#aeb6c0" font-weight="700">1.0×</text>
<line x1="70" y1="380.4" x2="812" y2="380.4" stroke="#3b414b" stroke-width="1"/>
<text x="60" y="384.4" font-size="12" text-anchor="end" fill="#8b949e">2.0×</text>
<line x1="70" y1="304.8" x2="812" y2="304.8" stroke="#3b414b" stroke-width="1"/>
<text x="60" y="308.8" font-size="12" text-anchor="end" fill="#8b949e">4.0×</text>
<line x1="70" y1="229.2" x2="812" y2="229.2" stroke="#3b414b" stroke-width="1"/>
<text x="60" y="233.2" font-size="12" text-anchor="end" fill="#8b949e">6.0×</text>
<line x1="70" y1="153.6" x2="812" y2="153.6" stroke="#3b414b" stroke-width="1"/>
<text x="60" y="157.6" font-size="12" text-anchor="end" fill="#8b949e">8.0×</text>
<line x1="70" y1="78.0" x2="812" y2="78.0" stroke="#3b414b" stroke-width="1"/>
<text x="60" y="82.0" font-size="12" text-anchor="end" fill="#8b949e">10.0×</text>
<text x="812" y="412.2" font-size="11" text-anchor="end" fill="#aeb6c0">Rust baseline</text>
<line x1="70" y1="456" x2="812" y2="456" stroke="#3b414b"/>
<text x="441.0" y="478" font-size="11" text-anchor="middle" fill="#8b949e">47 programs (kata × approach) — x-order carries no meaning</text>
<circle cx="99.7" cy="420.3" r="2.6" fill="#3fb950" opacity="0.7"/>
<circle cx="114.5" cy="418.2" r="2.6" fill="#3fb950" opacity="0.7"/>
<circle cx="129.4" cy="419.8" r="2.6" fill="#3fb950" opacity="0.7"/>
<circle cx="144.2" cy="420.1" r="2.6" fill="#3fb950" opacity="0.7"/>
<circle cx="159.0" cy="418.3" r="2.6" fill="#3fb950" opacity="0.7"/>
<circle cx="173.9" cy="420.9" r="2.6" fill="#3fb950" opacity="0.7"/>
<circle cx="188.7" cy="423.8" r="2.6" fill="#3fb950" opacity="0.7"/>
<circle cx="203.6" cy="419.3" r="2.6" fill="#3fb950" opacity="0.7"/>
<circle cx="218.4" cy="420.3" r="2.6" fill="#3fb950" opacity="0.7"/>
<circle cx="233.2" cy="419.3" r="2.6" fill="#3fb950" opacity="0.7"/>
<circle cx="248.1" cy="419.3" r="2.6" fill="#3fb950" opacity="0.7"/>
<circle cx="262.9" cy="420.3" r="2.6" fill="#3fb950" opacity="0.7"/>
<circle cx="277.8" cy="418.8" r="2.6" fill="#3fb950" opacity="0.7"/>
<circle cx="292.6" cy="419.9" r="2.6" fill="#3fb950" opacity="0.7"/>
<circle cx="307.4" cy="418.7" r="2.6" fill="#3fb950" opacity="0.7"/>
<circle cx="322.3" cy="417.7" r="2.6" fill="#3fb950" opacity="0.7"/>
<circle cx="337.1" cy="418.8" r="2.6" fill="#3fb950" opacity="0.7"/>
<circle cx="352.0" cy="416.7" r="2.6" fill="#3fb950" opacity="0.7"/>
<circle cx="366.8" cy="417.7" r="2.6" fill="#3fb950" opacity="0.7"/>
<circle cx="381.6" cy="419.8" r="2.6" fill="#3fb950" opacity="0.7"/>
<circle cx="396.5" cy="417.7" r="2.6" fill="#3fb950" opacity="0.7"/>
<circle cx="411.3" cy="418.7" r="2.6" fill="#3fb950" opacity="0.7"/>
<circle cx="426.2" cy="426.4" r="2.6" fill="#3fb950" opacity="0.7"/>
<circle cx="441.0" cy="419.7" r="2.6" fill="#3fb950" opacity="0.7"/>
<circle cx="455.8" cy="419.8" r="2.6" fill="#3fb950" opacity="0.7"/>
<circle cx="470.7" cy="418.8" r="2.6" fill="#3fb950" opacity="0.7"/>
<circle cx="485.5" cy="418.2" r="2.6" fill="#3fb950" opacity="0.7"/>
<circle cx="500.4" cy="418.2" r="2.6" fill="#3fb950" opacity="0.7"/>
<circle cx="515.2" cy="419.0" r="2.6" fill="#3fb950" opacity="0.7"/>
<circle cx="530.0" cy="418.8" r="2.6" fill="#3fb950" opacity="0.7"/>
<circle cx="544.9" cy="420.5" r="2.6" fill="#3fb950" opacity="0.7"/>
<circle cx="559.7" cy="424.1" r="2.6" fill="#3fb950" opacity="0.7"/>
<circle cx="574.6" cy="419.8" r="2.6" fill="#3fb950" opacity="0.7"/>
<circle cx="589.4" cy="420.4" r="2.6" fill="#3fb950" opacity="0.7"/>
<circle cx="604.2" cy="427.8" r="2.6" fill="#3fb950" opacity="0.7"/>
<circle cx="619.1" cy="418.2" r="2.6" fill="#3fb950" opacity="0.7"/>
<circle cx="633.9" cy="419.3" r="2.6" fill="#3fb950" opacity="0.7"/>
<circle cx="648.8" cy="418.2" r="2.6" fill="#3fb950" opacity="0.7"/>
<circle cx="663.6" cy="424.5" r="2.6" fill="#3fb950" opacity="0.7"/>
<circle cx="678.4" cy="418.2" r="2.6" fill="#3fb950" opacity="0.7"/>
<circle cx="693.3" cy="418.3" r="2.6" fill="#3fb950" opacity="0.7"/>
<circle cx="708.1" cy="427.8" r="2.6" fill="#3fb950" opacity="0.7"/>
<circle cx="723.0" cy="418.7" r="2.6" fill="#3fb950" opacity="0.7"/>
<circle cx="737.8" cy="420.6" r="2.6" fill="#3fb950" opacity="0.7"/>
<circle cx="752.6" cy="421.5" r="2.6" fill="#3fb950" opacity="0.7"/>
<circle cx="767.5" cy="436.1" r="2.6" fill="#3fb950" opacity="0.7"/>
<circle cx="782.3" cy="404.2" r="2.6" fill="#3fb950" opacity="0.7"/>
<circle cx="102.3" cy="360.2" r="2.6" fill="#bc8cff" opacity="0.7"/>
<circle cx="117.2" cy="332.5" r="2.6" fill="#bc8cff" opacity="0.7"/>
<circle cx="132.0" cy="125.0" r="2.6" fill="#bc8cff" opacity="0.7"/>
<circle cx="146.8" cy="365.3" r="2.6" fill="#bc8cff" opacity="0.7"/>
<circle cx="161.7" cy="412.2" r="2.6" fill="#bc8cff" opacity="0.7"/>
<circle cx="176.5" cy="351.2" r="2.6" fill="#bc8cff" opacity="0.7"/>
<circle cx="191.4" cy="191.4" r="2.6" fill="#bc8cff" opacity="0.7"/>
<circle cx="206.2" cy="350.7" r="2.6" fill="#bc8cff" opacity="0.7"/>
<circle cx="221.0" cy="357.0" r="2.6" fill="#bc8cff" opacity="0.7"/>
<circle cx="235.9" cy="353.4" r="2.6" fill="#bc8cff" opacity="0.7"/>
<circle cx="250.7" cy="357.7" r="2.6" fill="#bc8cff" opacity="0.7"/>
<circle cx="265.6" cy="359.1" r="2.6" fill="#bc8cff" opacity="0.7"/>
<circle cx="280.4" cy="99.2" r="2.6" fill="#bc8cff" opacity="0.7"/>
<circle cx="295.2" cy="115.9" r="2.6" fill="#bc8cff" opacity="0.7"/>
<circle cx="310.1" cy="170.6" r="2.6" fill="#bc8cff" opacity="0.7"/>
<circle cx="324.9" cy="141.7" r="2.6" fill="#bc8cff" opacity="0.7"/>
<circle cx="339.8" cy="135.3" r="2.6" fill="#bc8cff" opacity="0.7"/>
<circle cx="354.6" cy="158.5" r="2.6" fill="#bc8cff" opacity="0.7"/>
<circle cx="369.4" cy="155.6" r="2.6" fill="#bc8cff" opacity="0.7"/>
<circle cx="384.3" cy="126.1" r="2.6" fill="#bc8cff" opacity="0.7"/>
<circle cx="399.1" cy="134.5" r="2.6" fill="#bc8cff" opacity="0.7"/>
<circle cx="414.0" cy="132.6" r="2.6" fill="#bc8cff" opacity="0.7"/>
<circle cx="428.8" cy="310.6" r="2.6" fill="#bc8cff" opacity="0.7"/>
<circle cx="443.6" cy="155.6" r="2.6" fill="#bc8cff" opacity="0.7"/>
<circle cx="458.5" cy="117.0" r="2.6" fill="#bc8cff" opacity="0.7"/>
<circle cx="473.3" cy="126.0" r="2.6" fill="#bc8cff" opacity="0.7"/>
<circle cx="488.2" cy="415.1" r="2.6" fill="#bc8cff" opacity="0.7"/>
<circle cx="503.0" cy="415.0" r="2.6" fill="#bc8cff" opacity="0.7"/>
<circle cx="517.8" cy="396.9" r="2.6" fill="#bc8cff" opacity="0.7"/>
<circle cx="532.7" cy="395.5" r="2.6" fill="#bc8cff" opacity="0.7"/>
<circle cx="547.5" cy="360.7" r="2.6" fill="#bc8cff" opacity="0.7"/>
<circle cx="562.4" cy="204.0" r="2.6" fill="#bc8cff" opacity="0.7"/>
<circle cx="577.2" cy="115.9" r="2.6" fill="#bc8cff" opacity="0.7"/>
<circle cx="592.0" cy="357.6" r="2.6" fill="#bc8cff" opacity="0.7"/>
<circle cx="606.9" cy="220.5" r="2.6" fill="#bc8cff" opacity="0.7"/>
<circle cx="621.7" cy="414.8" r="2.6" fill="#bc8cff" opacity="0.7"/>
<circle cx="636.6" cy="352.8" r="2.6" fill="#bc8cff" opacity="0.7"/>
<circle cx="651.4" cy="412.3" r="2.6" fill="#bc8cff" opacity="0.7"/>
<circle cx="666.2" cy="454.1" r="2.6" fill="#bc8cff" opacity="0.7"/>
<circle cx="681.1" cy="412.2" r="2.6" fill="#bc8cff" opacity="0.7"/>
<circle cx="695.9" cy="412.2" r="2.6" fill="#bc8cff" opacity="0.7"/>
<circle cx="710.8" cy="359.6" r="2.6" fill="#bc8cff" opacity="0.7"/>
<circle cx="725.6" cy="351.3" r="2.6" fill="#bc8cff" opacity="0.7"/>
<circle cx="740.4" cy="362.2" r="2.6" fill="#bc8cff" opacity="0.7"/>
<circle cx="755.3" cy="201.8" r="2.6" fill="#bc8cff" opacity="0.7"/>
<circle cx="770.1" cy="371.3" r="2.6" fill="#bc8cff" opacity="0.7"/>
<circle cx="785.0" cy="390.1" r="2.6" fill="#bc8cff" opacity="0.7"/>
<circle cx="97.0" cy="420.8" r="3.2" fill="#ff922b" opacity="0.85"/>
<circle cx="111.9" cy="420.4" r="3.2" fill="#ff922b" opacity="0.85"/>
<circle cx="126.7" cy="418.7" r="3.2" fill="#ff922b" opacity="0.85"/>
<circle cx="141.6" cy="414.4" r="3.2" fill="#ff922b" opacity="0.85"/>
<circle cx="156.4" cy="418.3" r="3.2" fill="#ff922b" opacity="0.85"/>
<circle cx="171.2" cy="415.0" r="3.2" fill="#ff922b" opacity="0.85"/>
<circle cx="186.1" cy="419.0" r="3.2" fill="#ff922b" opacity="0.85"/>
<circle cx="200.9" cy="419.3" r="3.2" fill="#ff922b" opacity="0.85"/>
<circle cx="215.8" cy="420.3" r="3.2" fill="#ff922b" opacity="0.85"/>
<circle cx="230.6" cy="419.8" r="3.2" fill="#ff922b" opacity="0.85"/>
<circle cx="245.4" cy="419.3" r="3.2" fill="#ff922b" opacity="0.85"/>
<circle cx="260.3" cy="420.3" r="3.2" fill="#ff922b" opacity="0.85"/>
<circle cx="275.1" cy="419.9" r="3.2" fill="#ff922b" opacity="0.85"/>
<circle cx="290.0" cy="419.3" r="3.2" fill="#ff922b" opacity="0.85"/>
<circle cx="304.8" cy="417.7" r="3.2" fill="#ff922b" opacity="0.85"/>
<circle cx="319.6" cy="417.7" r="3.2" fill="#ff922b" opacity="0.85"/>
<circle cx="334.5" cy="418.2" r="3.2" fill="#ff922b" opacity="0.85"/>
<circle cx="349.3" cy="416.7" r="3.2" fill="#ff922b" opacity="0.85"/>
<circle cx="364.2" cy="418.2" r="3.2" fill="#ff922b" opacity="0.85"/>
<circle cx="379.0" cy="418.7" r="3.2" fill="#ff922b" opacity="0.85"/>
<circle cx="393.8" cy="412.3" r="3.2" fill="#ff922b" opacity="0.85"/>
<circle cx="408.7" cy="418.7" r="3.2" fill="#ff922b" opacity="0.85"/>
<circle cx="423.5" cy="412.1" r="3.2" fill="#ff922b" opacity="0.85"/>
<circle cx="438.4" cy="418.2" r="3.2" fill="#ff922b" opacity="0.85"/>
<circle cx="453.2" cy="419.8" r="3.2" fill="#ff922b" opacity="0.85"/>
<circle cx="468.0" cy="419.3" r="3.2" fill="#ff922b" opacity="0.85"/>
<circle cx="482.9" cy="418.2" r="3.2" fill="#ff922b" opacity="0.85"/>
<circle cx="497.7" cy="418.2" r="3.2" fill="#ff922b" opacity="0.85"/>
<circle cx="512.6" cy="418.8" r="3.2" fill="#ff922b" opacity="0.85"/>
<circle cx="527.4" cy="419.0" r="3.2" fill="#ff922b" opacity="0.85"/>
<circle cx="542.2" cy="420.5" r="3.2" fill="#ff922b" opacity="0.85"/>
<circle cx="557.1" cy="413.2" r="3.2" fill="#ff922b" opacity="0.85"/>
<circle cx="571.9" cy="417.7" r="3.2" fill="#ff922b" opacity="0.85"/>
<circle cx="586.8" cy="419.9" r="3.2" fill="#ff922b" opacity="0.85"/>
<circle cx="601.6" cy="421.7" r="3.2" fill="#ff922b" opacity="0.85"/>
<circle cx="616.4" cy="418.2" r="3.2" fill="#ff922b" opacity="0.85"/>
<circle cx="631.3" cy="419.3" r="3.2" fill="#ff922b" opacity="0.85"/>
<circle cx="646.1" cy="418.2" r="3.2" fill="#ff922b" opacity="0.85"/>
<circle cx="661.0" cy="421.3" r="3.2" fill="#ff922b" opacity="0.85"/>
<circle cx="675.8" cy="418.2" r="3.2" fill="#ff922b" opacity="0.85"/>
<circle cx="690.6" cy="418.2" r="3.2" fill="#ff922b" opacity="0.85"/>
<circle cx="705.5" cy="391.1" r="3.2" fill="#ff922b" opacity="0.85"/>
<circle cx="720.3" cy="419.2" r="3.2" fill="#ff922b" opacity="0.85"/>
<circle cx="735.2" cy="420.6" r="3.2" fill="#ff922b" opacity="0.85"/>
<circle cx="750.0" cy="419.6" r="3.2" fill="#ff922b" opacity="0.85"/>
<circle cx="764.8" cy="415.7" r="3.2" fill="#ff922b" opacity="0.85"/>
<circle cx="779.7" cy="418.3" r="3.2" fill="#ff922b" opacity="0.85"/>
<circle cx="847" cy="84" r="5" fill="#ff922b"/>
<text x="866" y="88" font-size="13" fill="#c9d1d9" font-weight="700">Kāra</text>
<line x1="836" y1="108" x2="858" y2="108" stroke="#a7b0bc" stroke-width="2" stroke-dasharray="5 4"/>
<text x="866" y="112" font-size="13" fill="#c9d1d9" font-weight="400">Rust = 1.0×</text>
<circle cx="847" cy="132" r="4" fill="#3fb950"/>
<text x="866" y="136" font-size="13" fill="#c9d1d9" font-weight="400">C</text>
<circle cx="847" cy="156" r="4" fill="#bc8cff"/>
<text x="866" y="160" font-size="13" fill="#c9d1d9" font-weight="400">Go</text>
<text x="70" y="538" font-size="11.5" fill="#8b949e">Each dot is one benchmarked program (kata × approach); there is no connecting line because left-to-right order is not meaningful. Raw numbers: bench-results.json</text>
</svg>