<svg xmlns="http://www.w3.org/2000/svg" width="980" height="560" viewBox="0 0 980 560" font-family="-apple-system,Segoe UI,Helvetica,Arial,sans-serif">
<rect width="980" height="560" fill="#282c34"/>
<text x="70" y="34" font-size="21" font-weight="700" fill="#c9d1d9">Runtime peak memory — sequential lane</text>
<text x="70" y="56" font-size="13" fill="#8b949e">relative to Rust = 1.0 · lower = leaner · 92 programs</text>
<line x1="70" y1="456.0" x2="812" y2="456.0" stroke="#3b414b" stroke-width="1"/>
<text x="60" y="460.0" font-size="12" text-anchor="end" fill="#8b949e">0.0×</text>
<line x1="70" y1="429.0" x2="812" y2="429.0" stroke="#a7b0bc" stroke-width="2" stroke-dasharray="5 4"/>
<text x="60" y="433.0" font-size="12" text-anchor="end" fill="#aeb6c0" font-weight="700">1.0×</text>
<line x1="70" y1="380.4" x2="812" y2="380.4" stroke="#3b414b" stroke-width="1"/>
<text x="60" y="384.4" font-size="12" text-anchor="end" fill="#8b949e">2.8×</text>
<line x1="70" y1="304.8" x2="812" y2="304.8" stroke="#3b414b" stroke-width="1"/>
<text x="60" y="308.8" font-size="12" text-anchor="end" fill="#8b949e">5.6×</text>
<line x1="70" y1="229.2" x2="812" y2="229.2" stroke="#3b414b" stroke-width="1"/>
<text x="60" y="233.2" font-size="12" text-anchor="end" fill="#8b949e">8.4×</text>
<line x1="70" y1="153.6" x2="812" y2="153.6" stroke="#3b414b" stroke-width="1"/>
<text x="60" y="157.6" font-size="12" text-anchor="end" fill="#8b949e">11.2×</text>
<line x1="70" y1="78.0" x2="812" y2="78.0" stroke="#3b414b" stroke-width="1"/>
<text x="60" y="82.0" font-size="12" text-anchor="end" fill="#8b949e">14.0×</text>
<text x="812" y="423.0" font-size="11" text-anchor="end" fill="#aeb6c0">Rust baseline</text>
<line x1="70" y1="456" x2="812" y2="456" stroke="#3b414b"/>
<text x="441.0" y="478" font-size="11" text-anchor="middle" fill="#8b949e">92 programs (kata × approach) — x-order carries no meaning</text>
<circle cx="99.7" cy="430.2" r="2.6" fill="#3fb950" opacity="0.7"/>
<circle cx="107.2" cy="429.0" r="2.6" fill="#3fb950" opacity="0.7"/>
<circle cx="114.7" cy="430.1" r="2.6" fill="#3fb950" opacity="0.7"/>
<circle cx="122.2" cy="431.1" r="2.6" fill="#3fb950" opacity="0.7"/>
<circle cx="129.7" cy="429.1" r="2.6" fill="#3fb950" opacity="0.7"/>
<circle cx="137.2" cy="431.2" r="2.6" fill="#3fb950" opacity="0.7"/>
<circle cx="144.7" cy="432.7" r="2.6" fill="#3fb950" opacity="0.7"/>
<circle cx="152.2" cy="430.6" r="2.6" fill="#3fb950" opacity="0.7"/>
<circle cx="159.7" cy="431.0" r="2.6" fill="#3fb950" opacity="0.7"/>
<circle cx="167.2" cy="430.2" r="2.6" fill="#3fb950" opacity="0.7"/>
<circle cx="174.7" cy="430.6" r="2.6" fill="#3fb950" opacity="0.7"/>
<circle cx="182.2" cy="430.2" r="2.6" fill="#3fb950" opacity="0.7"/>
<circle cx="189.7" cy="430.2" r="2.6" fill="#3fb950" opacity="0.7"/>
<circle cx="197.2" cy="429.4" r="2.6" fill="#3fb950" opacity="0.7"/>
<circle cx="204.7" cy="430.1" r="2.6" fill="#3fb950" opacity="0.7"/>
<circle cx="212.2" cy="430.4" r="2.6" fill="#3fb950" opacity="0.7"/>
<circle cx="219.7" cy="429.8" r="2.6" fill="#3fb950" opacity="0.7"/>
<circle cx="227.2" cy="429.0" r="2.6" fill="#3fb950" opacity="0.7"/>
<circle cx="234.7" cy="429.0" r="2.6" fill="#3fb950" opacity="0.7"/>
<circle cx="242.2" cy="431.6" r="2.6" fill="#3fb950" opacity="0.7"/>
<circle cx="249.7" cy="425.7" r="2.6" fill="#3fb950" opacity="0.7"/>
<circle cx="257.2" cy="429.7" r="2.6" fill="#3fb950" opacity="0.7"/>
<circle cx="264.7" cy="435.0" r="2.6" fill="#3fb950" opacity="0.7"/>
<circle cx="272.2" cy="430.7" r="2.6" fill="#3fb950" opacity="0.7"/>
<circle cx="279.7" cy="429.8" r="2.6" fill="#3fb950" opacity="0.7"/>
<circle cx="287.2" cy="430.5" r="2.6" fill="#3fb950" opacity="0.7"/>
<circle cx="294.7" cy="429.0" r="2.6" fill="#3fb950" opacity="0.7"/>
<circle cx="302.2" cy="429.0" r="2.6" fill="#3fb950" opacity="0.7"/>
<circle cx="309.7" cy="429.3" r="2.6" fill="#3fb950" opacity="0.7"/>
<circle cx="317.2" cy="429.3" r="2.6" fill="#3fb950" opacity="0.7"/>
<circle cx="324.7" cy="430.6" r="2.6" fill="#3fb950" opacity="0.7"/>
<circle cx="332.2" cy="433.1" r="2.6" fill="#3fb950" opacity="0.7"/>
<circle cx="339.7" cy="431.0" r="2.6" fill="#3fb950" opacity="0.7"/>
<circle cx="347.2" cy="430.9" r="2.6" fill="#3fb950" opacity="0.7"/>
<circle cx="354.7" cy="430.5" r="2.6" fill="#3fb950" opacity="0.7"/>
<circle cx="362.2" cy="430.5" r="2.6" fill="#3fb950" opacity="0.7"/>
<circle cx="369.7" cy="430.5" r="2.6" fill="#3fb950" opacity="0.7"/>
<circle cx="377.2" cy="430.6" r="2.6" fill="#3fb950" opacity="0.7"/>
<circle cx="384.7" cy="429.8" r="2.6" fill="#3fb950" opacity="0.7"/>
<circle cx="392.2" cy="427.9" r="2.6" fill="#3fb950" opacity="0.7"/>
<circle cx="399.7" cy="429.3" r="2.6" fill="#3fb950" opacity="0.7"/>
<circle cx="407.2" cy="429.4" r="2.6" fill="#3fb950" opacity="0.7"/>
<circle cx="414.7" cy="430.2" r="2.6" fill="#3fb950" opacity="0.7"/>
<circle cx="422.2" cy="430.2" r="2.6" fill="#3fb950" opacity="0.7"/>
<circle cx="429.7" cy="454.3" r="2.6" fill="#3fb950" opacity="0.7"/>
<circle cx="437.2" cy="430.2" r="2.6" fill="#3fb950" opacity="0.7"/>
<circle cx="444.8" cy="430.2" r="2.6" fill="#3fb950" opacity="0.7"/>
<circle cx="452.3" cy="430.2" r="2.6" fill="#3fb950" opacity="0.7"/>
<circle cx="459.8" cy="430.9" r="2.6" fill="#3fb950" opacity="0.7"/>
<circle cx="467.3" cy="430.6" r="2.6" fill="#3fb950" opacity="0.7"/>
<circle cx="474.8" cy="439.5" r="2.6" fill="#3fb950" opacity="0.7"/>
<circle cx="482.3" cy="430.2" r="2.6" fill="#3fb950" opacity="0.7"/>
<circle cx="489.8" cy="429.8" r="2.6" fill="#3fb950" opacity="0.7"/>
<circle cx="497.3" cy="430.2" r="2.6" fill="#3fb950" opacity="0.7"/>
<circle cx="504.8" cy="430.2" r="2.6" fill="#3fb950" opacity="0.7"/>
<circle cx="512.3" cy="430.6" r="2.6" fill="#3fb950" opacity="0.7"/>
<circle cx="519.8" cy="429.8" r="2.6" fill="#3fb950" opacity="0.7"/>
<circle cx="527.3" cy="430.2" r="2.6" fill="#3fb950" opacity="0.7"/>
<circle cx="534.8" cy="429.8" r="2.6" fill="#3fb950" opacity="0.7"/>
<circle cx="542.3" cy="429.4" r="2.6" fill="#3fb950" opacity="0.7"/>
<circle cx="549.8" cy="429.4" r="2.6" fill="#3fb950" opacity="0.7"/>
<circle cx="557.3" cy="429.4" r="2.6" fill="#3fb950" opacity="0.7"/>
<circle cx="564.8" cy="429.0" r="2.6" fill="#3fb950" opacity="0.7"/>
<circle cx="572.3" cy="429.7" r="2.6" fill="#3fb950" opacity="0.7"/>
<circle cx="579.8" cy="429.0" r="2.6" fill="#3fb950" opacity="0.7"/>
<circle cx="587.3" cy="430.2" r="2.6" fill="#3fb950" opacity="0.7"/>
<circle cx="594.8" cy="430.6" r="2.6" fill="#3fb950" opacity="0.7"/>
<circle cx="602.3" cy="430.6" r="2.6" fill="#3fb950" opacity="0.7"/>
<circle cx="609.8" cy="430.2" r="2.6" fill="#3fb950" opacity="0.7"/>
<circle cx="617.3" cy="429.8" r="2.6" fill="#3fb950" opacity="0.7"/>
<circle cx="624.8" cy="434.9" r="2.6" fill="#3fb950" opacity="0.7"/>
<circle cx="632.3" cy="427.9" r="2.6" fill="#3fb950" opacity="0.7"/>
<circle cx="639.8" cy="428.3" r="2.6" fill="#3fb950" opacity="0.7"/>
<circle cx="647.3" cy="430.8" r="2.6" fill="#3fb950" opacity="0.7"/>
<circle cx="654.8" cy="429.0" r="2.6" fill="#3fb950" opacity="0.7"/>
<circle cx="662.3" cy="430.2" r="2.6" fill="#3fb950" opacity="0.7"/>
<circle cx="669.8" cy="429.8" r="2.6" fill="#3fb950" opacity="0.7"/>
<circle cx="677.3" cy="429.1" r="2.6" fill="#3fb950" opacity="0.7"/>
<circle cx="684.8" cy="432.2" r="2.6" fill="#3fb950" opacity="0.7"/>
<circle cx="692.3" cy="433.5" r="2.6" fill="#3fb950" opacity="0.7"/>
<circle cx="699.8" cy="429.1" r="2.6" fill="#3fb950" opacity="0.7"/>
<circle cx="707.3" cy="429.1" r="2.6" fill="#3fb950" opacity="0.7"/>
<circle cx="714.8" cy="436.2" r="2.6" fill="#3fb950" opacity="0.7"/>
<circle cx="722.3" cy="436.0" r="2.6" fill="#3fb950" opacity="0.7"/>
<circle cx="729.8" cy="430.1" r="2.6" fill="#3fb950" opacity="0.7"/>
<circle cx="737.3" cy="430.7" r="2.6" fill="#3fb950" opacity="0.7"/>
<circle cx="744.8" cy="428.7" r="2.6" fill="#3fb950" opacity="0.7"/>
<circle cx="752.3" cy="429.1" r="2.6" fill="#3fb950" opacity="0.7"/>
<circle cx="759.8" cy="454.7" r="2.6" fill="#3fb950" opacity="0.7"/>
<circle cx="767.3" cy="430.9" r="2.6" fill="#3fb950" opacity="0.7"/>
<circle cx="774.8" cy="441.9" r="2.6" fill="#3fb950" opacity="0.7"/>
<circle cx="782.3" cy="419.1" r="2.6" fill="#3fb950" opacity="0.7"/>
<circle cx="101.0" cy="386.0" r="2.6" fill="#bc8cff" opacity="0.7"/>
<circle cx="108.5" cy="364.9" r="2.6" fill="#bc8cff" opacity="0.7"/>
<circle cx="116.0" cy="223.3" r="2.6" fill="#bc8cff" opacity="0.7"/>
<circle cx="123.5" cy="386.3" r="2.6" fill="#bc8cff" opacity="0.7"/>
<circle cx="131.0" cy="424.9" r="2.6" fill="#bc8cff" opacity="0.7"/>
<circle cx="138.5" cy="339.0" r="2.6" fill="#bc8cff" opacity="0.7"/>
<circle cx="146.0" cy="260.4" r="2.6" fill="#bc8cff" opacity="0.7"/>
<circle cx="153.5" cy="382.6" r="2.6" fill="#bc8cff" opacity="0.7"/>
<circle cx="161.1" cy="383.2" r="2.6" fill="#bc8cff" opacity="0.7"/>
<circle cx="168.6" cy="383.3" r="2.6" fill="#bc8cff" opacity="0.7"/>
<circle cx="176.1" cy="386.0" r="2.6" fill="#bc8cff" opacity="0.7"/>
<circle cx="183.6" cy="381.8" r="2.6" fill="#bc8cff" opacity="0.7"/>
<circle cx="191.1" cy="209.1" r="2.6" fill="#bc8cff" opacity="0.7"/>
<circle cx="198.6" cy="213.4" r="2.6" fill="#bc8cff" opacity="0.7"/>
<circle cx="206.1" cy="267.0" r="2.6" fill="#bc8cff" opacity="0.7"/>
<circle cx="213.6" cy="236.8" r="2.6" fill="#bc8cff" opacity="0.7"/>
<circle cx="221.1" cy="225.6" r="2.6" fill="#bc8cff" opacity="0.7"/>
<circle cx="228.6" cy="261.0" r="2.6" fill="#bc8cff" opacity="0.7"/>
<circle cx="236.1" cy="238.6" r="2.6" fill="#bc8cff" opacity="0.7"/>
<circle cx="243.6" cy="222.7" r="2.6" fill="#bc8cff" opacity="0.7"/>
<circle cx="251.1" cy="246.7" r="2.6" fill="#bc8cff" opacity="0.7"/>
<circle cx="258.6" cy="228.2" r="2.6" fill="#bc8cff" opacity="0.7"/>
<circle cx="266.1" cy="360.5" r="2.6" fill="#bc8cff" opacity="0.7"/>
<circle cx="273.6" cy="245.5" r="2.6" fill="#bc8cff" opacity="0.7"/>
<circle cx="281.1" cy="232.8" r="2.6" fill="#bc8cff" opacity="0.7"/>
<circle cx="288.6" cy="229.7" r="2.6" fill="#bc8cff" opacity="0.7"/>
<circle cx="296.1" cy="426.5" r="2.6" fill="#bc8cff" opacity="0.7"/>
<circle cx="303.6" cy="426.6" r="2.6" fill="#bc8cff" opacity="0.7"/>
<circle cx="311.1" cy="410.8" r="2.6" fill="#bc8cff" opacity="0.7"/>
<circle cx="318.6" cy="412.3" r="2.6" fill="#bc8cff" opacity="0.7"/>
<circle cx="326.1" cy="383.3" r="2.6" fill="#bc8cff" opacity="0.7"/>
<circle cx="333.6" cy="279.2" r="2.6" fill="#bc8cff" opacity="0.7"/>
<circle cx="341.1" cy="384.4" r="2.6" fill="#bc8cff" opacity="0.7"/>
<circle cx="348.6" cy="216.5" r="2.6" fill="#bc8cff" opacity="0.7"/>
<circle cx="356.1" cy="384.1" r="2.6" fill="#bc8cff" opacity="0.7"/>
<circle cx="363.6" cy="381.9" r="2.6" fill="#bc8cff" opacity="0.7"/>
<circle cx="371.1" cy="383.8" r="2.6" fill="#bc8cff" opacity="0.7"/>
<circle cx="378.6" cy="387.7" r="2.6" fill="#bc8cff" opacity="0.7"/>
<circle cx="386.1" cy="384.3" r="2.6" fill="#bc8cff" opacity="0.7"/>
<circle cx="393.6" cy="247.2" r="2.6" fill="#bc8cff" opacity="0.7"/>
<circle cx="401.1" cy="242.1" r="2.6" fill="#bc8cff" opacity="0.7"/>
<circle cx="408.6" cy="253.2" r="2.6" fill="#bc8cff" opacity="0.7"/>
<circle cx="416.1" cy="387.1" r="2.6" fill="#bc8cff" opacity="0.7"/>
<circle cx="423.6" cy="388.5" r="2.6" fill="#bc8cff" opacity="0.7"/>
<circle cx="431.1" cy="373.4" r="2.6" fill="#bc8cff" opacity="0.7"/>
<circle cx="438.6" cy="387.9" r="2.6" fill="#bc8cff" opacity="0.7"/>
<circle cx="446.1" cy="390.9" r="2.6" fill="#bc8cff" opacity="0.7"/>
<circle cx="453.6" cy="312.9" r="2.6" fill="#bc8cff" opacity="0.7"/>
<circle cx="461.1" cy="281.8" r="2.6" fill="#bc8cff" opacity="0.7"/>
<circle cx="468.6" cy="388.9" r="2.6" fill="#bc8cff" opacity="0.7"/>
<circle cx="476.1" cy="331.7" r="2.6" fill="#bc8cff" opacity="0.7"/>
<circle cx="483.6" cy="387.5" r="2.6" fill="#bc8cff" opacity="0.7"/>
<circle cx="491.1" cy="388.3" r="2.6" fill="#bc8cff" opacity="0.7"/>
<circle cx="498.6" cy="387.5" r="2.6" fill="#bc8cff" opacity="0.7"/>
<circle cx="506.1" cy="389.5" r="2.6" fill="#bc8cff" opacity="0.7"/>
<circle cx="513.6" cy="385.3" r="2.6" fill="#bc8cff" opacity="0.7"/>
<circle cx="521.1" cy="387.1" r="2.6" fill="#bc8cff" opacity="0.7"/>
<circle cx="528.6" cy="215.7" r="2.6" fill="#bc8cff" opacity="0.7"/>
<circle cx="536.1" cy="215.0" r="2.6" fill="#bc8cff" opacity="0.7"/>
<circle cx="543.6" cy="237.5" r="2.6" fill="#bc8cff" opacity="0.7"/>
<circle cx="551.1" cy="243.8" r="2.6" fill="#bc8cff" opacity="0.7"/>
<circle cx="558.6" cy="219.0" r="2.6" fill="#bc8cff" opacity="0.7"/>
<circle cx="566.1" cy="264.6" r="2.6" fill="#bc8cff" opacity="0.7"/>
<circle cx="573.6" cy="266.4" r="2.6" fill="#bc8cff" opacity="0.7"/>
<circle cx="581.1" cy="256.7" r="2.6" fill="#bc8cff" opacity="0.7"/>
<circle cx="588.6" cy="384.5" r="2.6" fill="#bc8cff" opacity="0.7"/>
<circle cx="596.1" cy="388.5" r="2.6" fill="#bc8cff" opacity="0.7"/>
<circle cx="603.6" cy="388.1" r="2.6" fill="#bc8cff" opacity="0.7"/>
<circle cx="611.1" cy="388.9" r="2.6" fill="#bc8cff" opacity="0.7"/>
<circle cx="618.6" cy="390.3" r="2.6" fill="#bc8cff" opacity="0.7"/>
<circle cx="626.1" cy="278.1" r="2.6" fill="#bc8cff" opacity="0.7"/>
<circle cx="633.6" cy="231.0" r="2.6" fill="#bc8cff" opacity="0.7"/>
<circle cx="641.1" cy="233.5" r="2.6" fill="#bc8cff" opacity="0.7"/>
<circle cx="648.7" cy="392.5" r="2.6" fill="#bc8cff" opacity="0.7"/>
<circle cx="656.2" cy="426.7" r="2.6" fill="#bc8cff" opacity="0.7"/>
<circle cx="663.7" cy="386.4" r="2.6" fill="#bc8cff" opacity="0.7"/>
<circle cx="671.2" cy="215.9" r="2.6" fill="#bc8cff" opacity="0.7"/>
<circle cx="678.7" cy="424.8" r="2.6" fill="#bc8cff" opacity="0.7"/>
<circle cx="686.2" cy="242.9" r="2.6" fill="#bc8cff" opacity="0.7"/>
<circle cx="693.7" cy="454.6" r="2.6" fill="#bc8cff" opacity="0.7"/>
<circle cx="701.2" cy="424.8" r="2.6" fill="#bc8cff" opacity="0.7"/>
<circle cx="708.7" cy="424.6" r="2.6" fill="#bc8cff" opacity="0.7"/>
<circle cx="716.2" cy="420.5" r="2.6" fill="#bc8cff" opacity="0.7"/>
<circle cx="723.7" cy="381.0" r="2.6" fill="#bc8cff" opacity="0.7"/>
<circle cx="731.2" cy="379.3" r="2.6" fill="#bc8cff" opacity="0.7"/>
<circle cx="738.7" cy="387.0" r="2.6" fill="#bc8cff" opacity="0.7"/>
<circle cx="746.2" cy="253.9" r="2.6" fill="#bc8cff" opacity="0.7"/>
<circle cx="753.7" cy="396.9" r="2.6" fill="#bc8cff" opacity="0.7"/>
<circle cx="761.2" cy="375.5" r="2.6" fill="#bc8cff" opacity="0.7"/>
<circle cx="768.7" cy="283.4" r="2.6" fill="#bc8cff" opacity="0.7"/>
<circle cx="776.2" cy="396.0" r="2.6" fill="#bc8cff" opacity="0.7"/>
<circle cx="783.7" cy="400.0" r="2.6" fill="#bc8cff" opacity="0.7"/>
<circle cx="98.3" cy="430.6" r="3.2" fill="#ff922b" opacity="0.85"/>
<circle cx="105.8" cy="429.7" r="3.2" fill="#ff922b" opacity="0.85"/>
<circle cx="113.3" cy="429.8" r="3.2" fill="#ff922b" opacity="0.85"/>
<circle cx="120.8" cy="428.3" r="3.2" fill="#ff922b" opacity="0.85"/>
<circle cx="128.3" cy="429.0" r="3.2" fill="#ff922b" opacity="0.85"/>
<circle cx="135.8" cy="426.8" r="3.2" fill="#ff922b" opacity="0.85"/>
<circle cx="143.3" cy="429.3" r="3.2" fill="#ff922b" opacity="0.85"/>
<circle cx="150.8" cy="430.6" r="3.2" fill="#ff922b" opacity="0.85"/>
<circle cx="158.3" cy="431.0" r="3.2" fill="#ff922b" opacity="0.85"/>
<circle cx="165.8" cy="430.6" r="3.2" fill="#ff922b" opacity="0.85"/>
<circle cx="173.3" cy="430.6" r="3.2" fill="#ff922b" opacity="0.85"/>
<circle cx="180.8" cy="430.2" r="3.2" fill="#ff922b" opacity="0.85"/>
<circle cx="188.3" cy="429.8" r="3.2" fill="#ff922b" opacity="0.85"/>
<circle cx="195.8" cy="429.8" r="3.2" fill="#ff922b" opacity="0.85"/>
<circle cx="203.3" cy="430.1" r="3.2" fill="#ff922b" opacity="0.85"/>
<circle cx="210.8" cy="429.7" r="3.2" fill="#ff922b" opacity="0.85"/>
<circle cx="218.3" cy="430.2" r="3.2" fill="#ff922b" opacity="0.85"/>
<circle cx="225.8" cy="127.7" r="3.2" fill="#ff922b" opacity="0.85"/>
<circle cx="233.3" cy="429.7" r="3.2" fill="#ff922b" opacity="0.85"/>
<circle cx="240.9" cy="430.1" r="3.2" fill="#ff922b" opacity="0.85"/>
<circle cx="248.4" cy="430.0" r="3.2" fill="#ff922b" opacity="0.85"/>
<circle cx="255.9" cy="430.1" r="3.2" fill="#ff922b" opacity="0.85"/>
<circle cx="263.4" cy="432.0" r="3.2" fill="#ff922b" opacity="0.85"/>
<circle cx="270.9" cy="430.0" r="3.2" fill="#ff922b" opacity="0.85"/>
<circle cx="278.4" cy="430.1" r="3.2" fill="#ff922b" opacity="0.85"/>
<circle cx="285.9" cy="428.6" r="3.2" fill="#ff922b" opacity="0.85"/>
<circle cx="293.4" cy="429.0" r="3.2" fill="#ff922b" opacity="0.85"/>
<circle cx="300.9" cy="429.0" r="3.2" fill="#ff922b" opacity="0.85"/>
<circle cx="308.4" cy="429.1" r="3.2" fill="#ff922b" opacity="0.85"/>
<circle cx="315.9" cy="429.3" r="3.2" fill="#ff922b" opacity="0.85"/>
<circle cx="323.4" cy="430.2" r="3.2" fill="#ff922b" opacity="0.85"/>
<circle cx="330.9" cy="429.9" r="3.2" fill="#ff922b" opacity="0.85"/>
<circle cx="338.4" cy="430.6" r="3.2" fill="#ff922b" opacity="0.85"/>
<circle cx="345.9" cy="430.5" r="3.2" fill="#ff922b" opacity="0.85"/>
<circle cx="353.4" cy="430.1" r="3.2" fill="#ff922b" opacity="0.85"/>
<circle cx="360.9" cy="430.1" r="3.2" fill="#ff922b" opacity="0.85"/>
<circle cx="368.4" cy="430.1" r="3.2" fill="#ff922b" opacity="0.85"/>
<circle cx="375.9" cy="430.6" r="3.2" fill="#ff922b" opacity="0.85"/>
<circle cx="383.4" cy="430.2" r="3.2" fill="#ff922b" opacity="0.85"/>
<circle cx="390.9" cy="429.0" r="3.2" fill="#ff922b" opacity="0.85"/>
<circle cx="398.4" cy="430.7" r="3.2" fill="#ff922b" opacity="0.85"/>
<circle cx="405.9" cy="429.7" r="3.2" fill="#ff922b" opacity="0.85"/>
<circle cx="413.4" cy="430.2" r="3.2" fill="#ff922b" opacity="0.85"/>
<circle cx="420.9" cy="430.2" r="3.2" fill="#ff922b" opacity="0.85"/>
<circle cx="428.4" cy="429.7" r="3.2" fill="#ff922b" opacity="0.85"/>
<circle cx="435.9" cy="430.2" r="3.2" fill="#ff922b" opacity="0.85"/>
<circle cx="443.4" cy="430.2" r="3.2" fill="#ff922b" opacity="0.85"/>
<circle cx="450.9" cy="429.7" r="3.2" fill="#ff922b" opacity="0.85"/>
<circle cx="458.4" cy="428.4" r="3.2" fill="#ff922b" opacity="0.85"/>
<circle cx="465.9" cy="430.2" r="3.2" fill="#ff922b" opacity="0.85"/>
<circle cx="473.4" cy="428.3" r="3.2" fill="#ff922b" opacity="0.85"/>
<circle cx="480.9" cy="429.8" r="3.2" fill="#ff922b" opacity="0.85"/>
<circle cx="488.4" cy="430.2" r="3.2" fill="#ff922b" opacity="0.85"/>
<circle cx="495.9" cy="430.2" r="3.2" fill="#ff922b" opacity="0.85"/>
<circle cx="503.4" cy="429.8" r="3.2" fill="#ff922b" opacity="0.85"/>
<circle cx="510.9" cy="430.6" r="3.2" fill="#ff922b" opacity="0.85"/>
<circle cx="518.4" cy="429.4" r="3.2" fill="#ff922b" opacity="0.85"/>
<circle cx="525.9" cy="429.4" r="3.2" fill="#ff922b" opacity="0.85"/>
<circle cx="533.4" cy="429.0" r="3.2" fill="#ff922b" opacity="0.85"/>
<circle cx="540.9" cy="429.4" r="3.2" fill="#ff922b" opacity="0.85"/>
<circle cx="548.4" cy="430.5" r="3.2" fill="#ff922b" opacity="0.85"/>
<circle cx="555.9" cy="429.8" r="3.2" fill="#ff922b" opacity="0.85"/>
<circle cx="563.4" cy="429.3" r="3.2" fill="#ff922b" opacity="0.85"/>
<circle cx="570.9" cy="429.0" r="3.2" fill="#ff922b" opacity="0.85"/>
<circle cx="578.4" cy="431.8" r="3.2" fill="#ff922b" opacity="0.85"/>
<circle cx="585.9" cy="430.2" r="3.2" fill="#ff922b" opacity="0.85"/>
<circle cx="593.4" cy="430.2" r="3.2" fill="#ff922b" opacity="0.85"/>
<circle cx="600.9" cy="430.6" r="3.2" fill="#ff922b" opacity="0.85"/>
<circle cx="608.4" cy="430.6" r="3.2" fill="#ff922b" opacity="0.85"/>
<circle cx="615.9" cy="429.8" r="3.2" fill="#ff922b" opacity="0.85"/>
<circle cx="623.4" cy="431.9" r="3.2" fill="#ff922b" opacity="0.85"/>
<circle cx="630.9" cy="429.4" r="3.2" fill="#ff922b" opacity="0.85"/>
<circle cx="638.4" cy="430.5" r="3.2" fill="#ff922b" opacity="0.85"/>
<circle cx="645.9" cy="431.1" r="3.2" fill="#ff922b" opacity="0.85"/>
<circle cx="653.4" cy="429.0" r="3.2" fill="#ff922b" opacity="0.85"/>
<circle cx="660.9" cy="430.6" r="3.2" fill="#ff922b" opacity="0.85"/>
<circle cx="668.4" cy="429.4" r="3.2" fill="#ff922b" opacity="0.85"/>
<circle cx="675.9" cy="429.0" r="3.2" fill="#ff922b" opacity="0.85"/>
<circle cx="683.4" cy="429.4" r="3.2" fill="#ff922b" opacity="0.85"/>
<circle cx="690.9" cy="430.8" r="3.2" fill="#ff922b" opacity="0.85"/>
<circle cx="698.4" cy="429.1" r="3.2" fill="#ff922b" opacity="0.85"/>
<circle cx="705.9" cy="429.1" r="3.2" fill="#ff922b" opacity="0.85"/>
<circle cx="713.4" cy="428.2" r="3.2" fill="#ff922b" opacity="0.85"/>
<circle cx="720.9" cy="429.1" r="3.2" fill="#ff922b" opacity="0.85"/>
<circle cx="728.5" cy="429.7" r="3.2" fill="#ff922b" opacity="0.85"/>
<circle cx="736.0" cy="430.7" r="3.2" fill="#ff922b" opacity="0.85"/>
<circle cx="743.5" cy="430.3" r="3.2" fill="#ff922b" opacity="0.85"/>
<circle cx="751.0" cy="430.7" r="3.2" fill="#ff922b" opacity="0.85"/>
<circle cx="758.5" cy="428.2" r="3.2" fill="#ff922b" opacity="0.85"/>
<circle cx="766.0" cy="430.3" r="3.2" fill="#ff922b" opacity="0.85"/>
<circle cx="773.5" cy="428.8" r="3.2" fill="#ff922b" opacity="0.85"/>
<circle cx="781.0" cy="429.1" r="3.2" fill="#ff922b" opacity="0.85"/>
<circle cx="847" cy="84" r="5" fill="#ff922b"/>
<text x="866" y="88" font-size="13" fill="#c9d1d9" font-weight="700">Kāra</text>
<line x1="836" y1="108" x2="858" y2="108" stroke="#a7b0bc" stroke-width="2" stroke-dasharray="5 4"/>
<text x="866" y="112" font-size="13" fill="#c9d1d9" font-weight="400">Rust = 1.0×</text>
<circle cx="847" cy="132" r="4" fill="#3fb950"/>
<text x="866" y="136" font-size="13" fill="#c9d1d9" font-weight="400">C</text>
<circle cx="847" cy="156" r="4" fill="#bc8cff"/>
<text x="866" y="160" font-size="13" fill="#c9d1d9" font-weight="400">Go</text>
<text x="70" y="538" font-size="11.5" fill="#8b949e">Each dot is one benchmarked program (kata × approach); there is no connecting line because left-to-right order is not meaningful. Raw numbers: bench-results.json</text>
</svg>