<svg xmlns="http://www.w3.org/2000/svg" width="980" height="560" viewBox="0 0 980 560" font-family="-apple-system,Segoe UI,Helvetica,Arial,sans-serif">
<rect width="980" height="560" fill="#282c34"/>
<text x="70" y="34" font-size="21" font-weight="700" fill="#c9d1d9">Runtime peak memory — sequential lane</text>
<text x="70" y="56" font-size="13" fill="#8b949e">relative to Rust = 1.0 · lower = leaner · 56 programs</text>
<line x1="70" y1="456.0" x2="812" y2="456.0" stroke="#3b414b" stroke-width="1"/>
<text x="60" y="460.0" font-size="12" text-anchor="end" fill="#8b949e">0.0×</text>
<line x1="70" y1="429.0" x2="812" y2="429.0" stroke="#a7b0bc" stroke-width="2" stroke-dasharray="5 4"/>
<text x="60" y="433.0" font-size="12" text-anchor="end" fill="#aeb6c0" font-weight="700">1.0×</text>
<line x1="70" y1="380.4" x2="812" y2="380.4" stroke="#3b414b" stroke-width="1"/>
<text x="60" y="384.4" font-size="12" text-anchor="end" fill="#8b949e">2.8×</text>
<line x1="70" y1="304.8" x2="812" y2="304.8" stroke="#3b414b" stroke-width="1"/>
<text x="60" y="308.8" font-size="12" text-anchor="end" fill="#8b949e">5.6×</text>
<line x1="70" y1="229.2" x2="812" y2="229.2" stroke="#3b414b" stroke-width="1"/>
<text x="60" y="233.2" font-size="12" text-anchor="end" fill="#8b949e">8.4×</text>
<line x1="70" y1="153.6" x2="812" y2="153.6" stroke="#3b414b" stroke-width="1"/>
<text x="60" y="157.6" font-size="12" text-anchor="end" fill="#8b949e">11.2×</text>
<line x1="70" y1="78.0" x2="812" y2="78.0" stroke="#3b414b" stroke-width="1"/>
<text x="60" y="82.0" font-size="12" text-anchor="end" fill="#8b949e">14.0×</text>
<text x="812" y="423.0" font-size="11" text-anchor="end" fill="#aeb6c0">Rust baseline</text>
<line x1="70" y1="456" x2="812" y2="456" stroke="#3b414b"/>
<text x="441.0" y="478" font-size="11" text-anchor="middle" fill="#8b949e">56 programs (kata × approach) — x-order carries no meaning</text>
<circle cx="99.7" cy="430.2" r="2.6" fill="#3fb950" opacity="0.7"/>
<circle cx="112.1" cy="429.0" r="2.6" fill="#3fb950" opacity="0.7"/>
<circle cx="124.5" cy="430.1" r="2.6" fill="#3fb950" opacity="0.7"/>
<circle cx="136.9" cy="431.1" r="2.6" fill="#3fb950" opacity="0.7"/>
<circle cx="149.3" cy="429.1" r="2.6" fill="#3fb950" opacity="0.7"/>
<circle cx="161.7" cy="431.2" r="2.6" fill="#3fb950" opacity="0.7"/>
<circle cx="174.1" cy="432.7" r="2.6" fill="#3fb950" opacity="0.7"/>
<circle cx="186.6" cy="430.6" r="2.6" fill="#3fb950" opacity="0.7"/>
<circle cx="199.0" cy="431.0" r="2.6" fill="#3fb950" opacity="0.7"/>
<circle cx="211.4" cy="430.2" r="2.6" fill="#3fb950" opacity="0.7"/>
<circle cx="223.8" cy="430.6" r="2.6" fill="#3fb950" opacity="0.7"/>
<circle cx="236.2" cy="430.2" r="2.6" fill="#3fb950" opacity="0.7"/>
<circle cx="248.6" cy="430.2" r="2.6" fill="#3fb950" opacity="0.7"/>
<circle cx="261.0" cy="429.4" r="2.6" fill="#3fb950" opacity="0.7"/>
<circle cx="273.4" cy="430.1" r="2.6" fill="#3fb950" opacity="0.7"/>
<circle cx="285.9" cy="430.4" r="2.6" fill="#3fb950" opacity="0.7"/>
<circle cx="298.3" cy="429.8" r="2.6" fill="#3fb950" opacity="0.7"/>
<circle cx="310.7" cy="429.0" r="2.6" fill="#3fb950" opacity="0.7"/>
<circle cx="323.1" cy="429.0" r="2.6" fill="#3fb950" opacity="0.7"/>
<circle cx="335.5" cy="431.6" r="2.6" fill="#3fb950" opacity="0.7"/>
<circle cx="347.9" cy="425.7" r="2.6" fill="#3fb950" opacity="0.7"/>
<circle cx="360.3" cy="429.7" r="2.6" fill="#3fb950" opacity="0.7"/>
<circle cx="372.7" cy="435.0" r="2.6" fill="#3fb950" opacity="0.7"/>
<circle cx="385.1" cy="430.7" r="2.6" fill="#3fb950" opacity="0.7"/>
<circle cx="397.6" cy="429.8" r="2.6" fill="#3fb950" opacity="0.7"/>
<circle cx="410.0" cy="430.5" r="2.6" fill="#3fb950" opacity="0.7"/>
<circle cx="422.4" cy="429.0" r="2.6" fill="#3fb950" opacity="0.7"/>
<circle cx="434.8" cy="429.0" r="2.6" fill="#3fb950" opacity="0.7"/>
<circle cx="447.2" cy="429.3" r="2.6" fill="#3fb950" opacity="0.7"/>
<circle cx="459.6" cy="429.3" r="2.6" fill="#3fb950" opacity="0.7"/>
<circle cx="472.0" cy="430.6" r="2.6" fill="#3fb950" opacity="0.7"/>
<circle cx="484.4" cy="433.1" r="2.6" fill="#3fb950" opacity="0.7"/>
<circle cx="496.9" cy="431.0" r="2.6" fill="#3fb950" opacity="0.7"/>
<circle cx="509.3" cy="430.9" r="2.6" fill="#3fb950" opacity="0.7"/>
<circle cx="521.7" cy="430.5" r="2.6" fill="#3fb950" opacity="0.7"/>
<circle cx="534.1" cy="454.3" r="2.6" fill="#3fb950" opacity="0.7"/>
<circle cx="546.5" cy="430.2" r="2.6" fill="#3fb950" opacity="0.7"/>
<circle cx="558.9" cy="430.2" r="2.6" fill="#3fb950" opacity="0.7"/>
<circle cx="571.3" cy="434.9" r="2.6" fill="#3fb950" opacity="0.7"/>
<circle cx="583.7" cy="429.0" r="2.6" fill="#3fb950" opacity="0.7"/>
<circle cx="596.1" cy="430.2" r="2.6" fill="#3fb950" opacity="0.7"/>
<circle cx="608.6" cy="429.1" r="2.6" fill="#3fb950" opacity="0.7"/>
<circle cx="621.0" cy="432.2" r="2.6" fill="#3fb950" opacity="0.7"/>
<circle cx="633.4" cy="433.5" r="2.6" fill="#3fb950" opacity="0.7"/>
<circle cx="645.8" cy="429.1" r="2.6" fill="#3fb950" opacity="0.7"/>
<circle cx="658.2" cy="429.0" r="2.6" fill="#3fb950" opacity="0.7"/>
<circle cx="670.6" cy="436.3" r="2.6" fill="#3fb950" opacity="0.7"/>
<circle cx="683.0" cy="436.0" r="2.6" fill="#3fb950" opacity="0.7"/>
<circle cx="695.4" cy="430.1" r="2.6" fill="#3fb950" opacity="0.7"/>
<circle cx="707.9" cy="430.7" r="2.6" fill="#3fb950" opacity="0.7"/>
<circle cx="720.3" cy="428.7" r="2.6" fill="#3fb950" opacity="0.7"/>
<circle cx="732.7" cy="429.1" r="2.6" fill="#3fb950" opacity="0.7"/>
<circle cx="745.1" cy="454.7" r="2.6" fill="#3fb950" opacity="0.7"/>
<circle cx="757.5" cy="430.9" r="2.6" fill="#3fb950" opacity="0.7"/>
<circle cx="769.9" cy="441.9" r="2.6" fill="#3fb950" opacity="0.7"/>
<circle cx="782.3" cy="419.1" r="2.6" fill="#3fb950" opacity="0.7"/>
<circle cx="101.9" cy="386.0" r="2.6" fill="#bc8cff" opacity="0.7"/>
<circle cx="114.3" cy="364.9" r="2.6" fill="#bc8cff" opacity="0.7"/>
<circle cx="126.8" cy="223.3" r="2.6" fill="#bc8cff" opacity="0.7"/>
<circle cx="139.2" cy="389.7" r="2.6" fill="#bc8cff" opacity="0.7"/>
<circle cx="151.6" cy="424.8" r="2.6" fill="#bc8cff" opacity="0.7"/>
<circle cx="164.0" cy="339.0" r="2.6" fill="#bc8cff" opacity="0.7"/>
<circle cx="176.4" cy="260.4" r="2.6" fill="#bc8cff" opacity="0.7"/>
<circle cx="188.8" cy="381.0" r="2.6" fill="#bc8cff" opacity="0.7"/>
<circle cx="201.2" cy="386.0" r="2.6" fill="#bc8cff" opacity="0.7"/>
<circle cx="213.6" cy="382.2" r="2.6" fill="#bc8cff" opacity="0.7"/>
<circle cx="226.0" cy="386.0" r="2.6" fill="#bc8cff" opacity="0.7"/>
<circle cx="238.5" cy="384.9" r="2.6" fill="#bc8cff" opacity="0.7"/>
<circle cx="250.9" cy="209.1" r="2.6" fill="#bc8cff" opacity="0.7"/>
<circle cx="263.3" cy="213.4" r="2.6" fill="#bc8cff" opacity="0.7"/>
<circle cx="275.7" cy="267.0" r="2.6" fill="#bc8cff" opacity="0.7"/>
<circle cx="288.1" cy="236.8" r="2.6" fill="#bc8cff" opacity="0.7"/>
<circle cx="300.5" cy="235.0" r="2.6" fill="#bc8cff" opacity="0.7"/>
<circle cx="312.9" cy="261.0" r="2.6" fill="#bc8cff" opacity="0.7"/>
<circle cx="325.3" cy="238.6" r="2.6" fill="#bc8cff" opacity="0.7"/>
<circle cx="337.7" cy="222.7" r="2.6" fill="#bc8cff" opacity="0.7"/>
<circle cx="350.2" cy="246.7" r="2.6" fill="#bc8cff" opacity="0.7"/>
<circle cx="362.6" cy="228.2" r="2.6" fill="#bc8cff" opacity="0.7"/>
<circle cx="375.0" cy="360.5" r="2.6" fill="#bc8cff" opacity="0.7"/>
<circle cx="387.4" cy="245.5" r="2.6" fill="#bc8cff" opacity="0.7"/>
<circle cx="399.8" cy="232.8" r="2.6" fill="#bc8cff" opacity="0.7"/>
<circle cx="412.2" cy="229.7" r="2.6" fill="#bc8cff" opacity="0.7"/>
<circle cx="424.6" cy="426.5" r="2.6" fill="#bc8cff" opacity="0.7"/>
<circle cx="437.0" cy="426.6" r="2.6" fill="#bc8cff" opacity="0.7"/>
<circle cx="449.5" cy="410.8" r="2.6" fill="#bc8cff" opacity="0.7"/>
<circle cx="461.9" cy="412.3" r="2.6" fill="#bc8cff" opacity="0.7"/>
<circle cx="474.3" cy="383.3" r="2.6" fill="#bc8cff" opacity="0.7"/>
<circle cx="486.7" cy="279.2" r="2.6" fill="#bc8cff" opacity="0.7"/>
<circle cx="499.1" cy="384.4" r="2.6" fill="#bc8cff" opacity="0.7"/>
<circle cx="511.5" cy="216.5" r="2.6" fill="#bc8cff" opacity="0.7"/>
<circle cx="523.9" cy="384.1" r="2.6" fill="#bc8cff" opacity="0.7"/>
<circle cx="536.3" cy="376.1" r="2.6" fill="#bc8cff" opacity="0.7"/>
<circle cx="548.7" cy="215.7" r="2.6" fill="#bc8cff" opacity="0.7"/>
<circle cx="561.2" cy="384.5" r="2.6" fill="#bc8cff" opacity="0.7"/>
<circle cx="573.6" cy="278.1" r="2.6" fill="#bc8cff" opacity="0.7"/>
<circle cx="586.0" cy="426.7" r="2.6" fill="#bc8cff" opacity="0.7"/>
<circle cx="598.4" cy="386.4" r="2.6" fill="#bc8cff" opacity="0.7"/>
<circle cx="610.8" cy="424.7" r="2.6" fill="#bc8cff" opacity="0.7"/>
<circle cx="623.2" cy="242.9" r="2.6" fill="#bc8cff" opacity="0.7"/>
<circle cx="635.6" cy="454.6" r="2.6" fill="#bc8cff" opacity="0.7"/>
<circle cx="648.0" cy="424.7" r="2.6" fill="#bc8cff" opacity="0.7"/>
<circle cx="660.5" cy="424.7" r="2.6" fill="#bc8cff" opacity="0.7"/>
<circle cx="672.9" cy="420.4" r="2.6" fill="#bc8cff" opacity="0.7"/>
<circle cx="685.3" cy="381.2" r="2.6" fill="#bc8cff" opacity="0.7"/>
<circle cx="697.7" cy="379.3" r="2.6" fill="#bc8cff" opacity="0.7"/>
<circle cx="710.1" cy="387.0" r="2.6" fill="#bc8cff" opacity="0.7"/>
<circle cx="722.5" cy="253.9" r="2.6" fill="#bc8cff" opacity="0.7"/>
<circle cx="734.9" cy="396.9" r="2.6" fill="#bc8cff" opacity="0.7"/>
<circle cx="747.3" cy="375.5" r="2.6" fill="#bc8cff" opacity="0.7"/>
<circle cx="759.7" cy="283.4" r="2.6" fill="#bc8cff" opacity="0.7"/>
<circle cx="772.2" cy="395.8" r="2.6" fill="#bc8cff" opacity="0.7"/>
<circle cx="784.6" cy="400.0" r="2.6" fill="#bc8cff" opacity="0.7"/>
<circle cx="97.4" cy="430.6" r="3.2" fill="#ff922b" opacity="0.85"/>
<circle cx="109.8" cy="429.7" r="3.2" fill="#ff922b" opacity="0.85"/>
<circle cx="122.3" cy="429.8" r="3.2" fill="#ff922b" opacity="0.85"/>
<circle cx="134.7" cy="428.3" r="3.2" fill="#ff922b" opacity="0.85"/>
<circle cx="147.1" cy="429.0" r="3.2" fill="#ff922b" opacity="0.85"/>
<circle cx="159.5" cy="426.8" r="3.2" fill="#ff922b" opacity="0.85"/>
<circle cx="171.9" cy="429.3" r="3.2" fill="#ff922b" opacity="0.85"/>
<circle cx="184.3" cy="430.6" r="3.2" fill="#ff922b" opacity="0.85"/>
<circle cx="196.7" cy="431.0" r="3.2" fill="#ff922b" opacity="0.85"/>
<circle cx="209.1" cy="430.6" r="3.2" fill="#ff922b" opacity="0.85"/>
<circle cx="221.5" cy="430.6" r="3.2" fill="#ff922b" opacity="0.85"/>
<circle cx="234.0" cy="430.2" r="3.2" fill="#ff922b" opacity="0.85"/>
<circle cx="246.4" cy="429.8" r="3.2" fill="#ff922b" opacity="0.85"/>
<circle cx="258.8" cy="429.8" r="3.2" fill="#ff922b" opacity="0.85"/>
<circle cx="271.2" cy="430.1" r="3.2" fill="#ff922b" opacity="0.85"/>
<circle cx="283.6" cy="429.7" r="3.2" fill="#ff922b" opacity="0.85"/>
<circle cx="296.0" cy="429.8" r="3.2" fill="#ff922b" opacity="0.85"/>
<circle cx="308.4" cy="127.7" r="3.2" fill="#ff922b" opacity="0.85"/>
<circle cx="320.8" cy="429.7" r="3.2" fill="#ff922b" opacity="0.85"/>
<circle cx="333.3" cy="430.1" r="3.2" fill="#ff922b" opacity="0.85"/>
<circle cx="345.7" cy="430.0" r="3.2" fill="#ff922b" opacity="0.85"/>
<circle cx="358.1" cy="430.1" r="3.2" fill="#ff922b" opacity="0.85"/>
<circle cx="370.5" cy="432.0" r="3.2" fill="#ff922b" opacity="0.85"/>
<circle cx="382.9" cy="430.0" r="3.2" fill="#ff922b" opacity="0.85"/>
<circle cx="395.3" cy="430.1" r="3.2" fill="#ff922b" opacity="0.85"/>
<circle cx="407.7" cy="428.6" r="3.2" fill="#ff922b" opacity="0.85"/>
<circle cx="420.1" cy="429.0" r="3.2" fill="#ff922b" opacity="0.85"/>
<circle cx="432.5" cy="429.0" r="3.2" fill="#ff922b" opacity="0.85"/>
<circle cx="445.0" cy="429.1" r="3.2" fill="#ff922b" opacity="0.85"/>
<circle cx="457.4" cy="429.3" r="3.2" fill="#ff922b" opacity="0.85"/>
<circle cx="469.8" cy="430.2" r="3.2" fill="#ff922b" opacity="0.85"/>
<circle cx="482.2" cy="429.9" r="3.2" fill="#ff922b" opacity="0.85"/>
<circle cx="494.6" cy="430.2" r="3.2" fill="#ff922b" opacity="0.85"/>
<circle cx="507.0" cy="430.5" r="3.2" fill="#ff922b" opacity="0.85"/>
<circle cx="519.4" cy="430.1" r="3.2" fill="#ff922b" opacity="0.85"/>
<circle cx="531.8" cy="429.6" r="3.2" fill="#ff922b" opacity="0.85"/>
<circle cx="544.3" cy="429.4" r="3.2" fill="#ff922b" opacity="0.85"/>
<circle cx="556.7" cy="430.2" r="3.2" fill="#ff922b" opacity="0.85"/>
<circle cx="569.1" cy="431.9" r="3.2" fill="#ff922b" opacity="0.85"/>
<circle cx="581.5" cy="429.0" r="3.2" fill="#ff922b" opacity="0.85"/>
<circle cx="593.9" cy="430.6" r="3.2" fill="#ff922b" opacity="0.85"/>
<circle cx="606.3" cy="429.0" r="3.2" fill="#ff922b" opacity="0.85"/>
<circle cx="618.7" cy="429.4" r="3.2" fill="#ff922b" opacity="0.85"/>
<circle cx="631.1" cy="430.8" r="3.2" fill="#ff922b" opacity="0.85"/>
<circle cx="643.5" cy="429.0" r="3.2" fill="#ff922b" opacity="0.85"/>
<circle cx="656.0" cy="429.0" r="3.2" fill="#ff922b" opacity="0.85"/>
<circle cx="668.4" cy="428.4" r="3.2" fill="#ff922b" opacity="0.85"/>
<circle cx="680.8" cy="429.1" r="3.2" fill="#ff922b" opacity="0.85"/>
<circle cx="693.2" cy="429.7" r="3.2" fill="#ff922b" opacity="0.85"/>
<circle cx="705.6" cy="430.7" r="3.2" fill="#ff922b" opacity="0.85"/>
<circle cx="718.0" cy="430.3" r="3.2" fill="#ff922b" opacity="0.85"/>
<circle cx="730.4" cy="430.7" r="3.2" fill="#ff922b" opacity="0.85"/>
<circle cx="742.8" cy="428.2" r="3.2" fill="#ff922b" opacity="0.85"/>
<circle cx="755.2" cy="430.3" r="3.2" fill="#ff922b" opacity="0.85"/>
<circle cx="767.7" cy="428.8" r="3.2" fill="#ff922b" opacity="0.85"/>
<circle cx="780.1" cy="429.1" r="3.2" fill="#ff922b" opacity="0.85"/>
<circle cx="847" cy="84" r="5" fill="#ff922b"/>
<text x="866" y="88" font-size="13" fill="#c9d1d9" font-weight="700">Kāra</text>
<line x1="836" y1="108" x2="858" y2="108" stroke="#a7b0bc" stroke-width="2" stroke-dasharray="5 4"/>
<text x="866" y="112" font-size="13" fill="#c9d1d9" font-weight="400">Rust = 1.0×</text>
<circle cx="847" cy="132" r="4" fill="#3fb950"/>
<text x="866" y="136" font-size="13" fill="#c9d1d9" font-weight="400">C</text>
<circle cx="847" cy="156" r="4" fill="#bc8cff"/>
<text x="866" y="160" font-size="13" fill="#c9d1d9" font-weight="400">Go</text>
<text x="70" y="538" font-size="11.5" fill="#8b949e">Each dot is one benchmarked program (kata × approach); there is no connecting line because left-to-right order is not meaningful. Raw numbers: bench-results.json</text>
</svg>