<svg xmlns="http://www.w3.org/2000/svg" width="980" height="560" viewBox="0 0 980 560" font-family="-apple-system,Segoe UI,Helvetica,Arial,sans-serif">
<rect width="980" height="560" fill="#282c34"/>
<text x="70" y="34" font-size="21" font-weight="700" fill="#c9d1d9">Runtime peak memory — sequential lane</text>
<text x="70" y="56" font-size="13" fill="#8b949e">relative to Rust = 1.0 · lower = leaner · 38 programs</text>
<line x1="70" y1="456.0" x2="812" y2="456.0" stroke="#3b414b" stroke-width="1"/>
<text x="60" y="460.0" font-size="12" text-anchor="end" fill="#8b949e">0.0×</text>
<line x1="70" y1="418.2" x2="812" y2="418.2" stroke="#a7b0bc" stroke-width="2" stroke-dasharray="5 4"/>
<text x="60" y="422.2" font-size="12" text-anchor="end" fill="#aeb6c0" font-weight="700">1.0×</text>
<line x1="70" y1="380.4" x2="812" y2="380.4" stroke="#3b414b" stroke-width="1"/>
<text x="60" y="384.4" font-size="12" text-anchor="end" fill="#8b949e">2.0×</text>
<line x1="70" y1="304.8" x2="812" y2="304.8" stroke="#3b414b" stroke-width="1"/>
<text x="60" y="308.8" font-size="12" text-anchor="end" fill="#8b949e">4.0×</text>
<line x1="70" y1="229.2" x2="812" y2="229.2" stroke="#3b414b" stroke-width="1"/>
<text x="60" y="233.2" font-size="12" text-anchor="end" fill="#8b949e">6.0×</text>
<line x1="70" y1="153.6" x2="812" y2="153.6" stroke="#3b414b" stroke-width="1"/>
<text x="60" y="157.6" font-size="12" text-anchor="end" fill="#8b949e">8.0×</text>
<line x1="70" y1="78.0" x2="812" y2="78.0" stroke="#3b414b" stroke-width="1"/>
<text x="60" y="82.0" font-size="12" text-anchor="end" fill="#8b949e">10.0×</text>
<text x="812" y="412.2" font-size="11" text-anchor="end" fill="#aeb6c0">Rust baseline</text>
<line x1="70" y1="456" x2="812" y2="456" stroke="#3b414b"/>
<text x="441.0" y="478" font-size="11" text-anchor="middle" fill="#8b949e">38 programs (kata × approach) — x-order carries no meaning</text>
<circle cx="99.7" cy="420.3" r="2.6" fill="#3fb950" opacity="0.7"/>
<circle cx="118.1" cy="418.2" r="2.6" fill="#3fb950" opacity="0.7"/>
<circle cx="136.6" cy="419.8" r="2.6" fill="#3fb950" opacity="0.7"/>
<circle cx="155.0" cy="420.1" r="2.6" fill="#3fb950" opacity="0.7"/>
<circle cx="173.5" cy="418.3" r="2.6" fill="#3fb950" opacity="0.7"/>
<circle cx="191.9" cy="420.9" r="2.6" fill="#3fb950" opacity="0.7"/>
<circle cx="210.4" cy="423.8" r="2.6" fill="#3fb950" opacity="0.7"/>
<circle cx="228.8" cy="419.3" r="2.6" fill="#3fb950" opacity="0.7"/>
<circle cx="247.3" cy="420.3" r="2.6" fill="#3fb950" opacity="0.7"/>
<circle cx="265.7" cy="419.3" r="2.6" fill="#3fb950" opacity="0.7"/>
<circle cx="284.2" cy="419.3" r="2.6" fill="#3fb950" opacity="0.7"/>
<circle cx="302.6" cy="420.3" r="2.6" fill="#3fb950" opacity="0.7"/>
<circle cx="321.1" cy="418.8" r="2.6" fill="#3fb950" opacity="0.7"/>
<circle cx="339.5" cy="419.9" r="2.6" fill="#3fb950" opacity="0.7"/>
<circle cx="358.0" cy="418.7" r="2.6" fill="#3fb950" opacity="0.7"/>
<circle cx="376.4" cy="417.7" r="2.6" fill="#3fb950" opacity="0.7"/>
<circle cx="394.9" cy="418.8" r="2.6" fill="#3fb950" opacity="0.7"/>
<circle cx="413.3" cy="416.7" r="2.6" fill="#3fb950" opacity="0.7"/>
<circle cx="431.8" cy="417.7" r="2.6" fill="#3fb950" opacity="0.7"/>
<circle cx="450.2" cy="419.8" r="2.6" fill="#3fb950" opacity="0.7"/>
<circle cx="468.7" cy="417.7" r="2.6" fill="#3fb950" opacity="0.7"/>
<circle cx="487.1" cy="418.7" r="2.6" fill="#3fb950" opacity="0.7"/>
<circle cx="505.6" cy="426.4" r="2.6" fill="#3fb950" opacity="0.7"/>
<circle cx="524.0" cy="419.7" r="2.6" fill="#3fb950" opacity="0.7"/>
<circle cx="542.5" cy="419.8" r="2.6" fill="#3fb950" opacity="0.7"/>
<circle cx="560.9" cy="420.4" r="2.6" fill="#3fb950" opacity="0.7"/>
<circle cx="579.4" cy="427.8" r="2.6" fill="#3fb950" opacity="0.7"/>
<circle cx="597.8" cy="418.2" r="2.6" fill="#3fb950" opacity="0.7"/>
<circle cx="616.3" cy="419.3" r="2.6" fill="#3fb950" opacity="0.7"/>
<circle cx="634.7" cy="418.2" r="2.6" fill="#3fb950" opacity="0.7"/>
<circle cx="653.2" cy="424.5" r="2.6" fill="#3fb950" opacity="0.7"/>
<circle cx="671.6" cy="418.2" r="2.6" fill="#3fb950" opacity="0.7"/>
<circle cx="690.1" cy="418.3" r="2.6" fill="#3fb950" opacity="0.7"/>
<circle cx="708.5" cy="427.8" r="2.6" fill="#3fb950" opacity="0.7"/>
<circle cx="727.0" cy="418.7" r="2.6" fill="#3fb950" opacity="0.7"/>
<circle cx="745.4" cy="420.6" r="2.6" fill="#3fb950" opacity="0.7"/>
<circle cx="763.9" cy="436.1" r="2.6" fill="#3fb950" opacity="0.7"/>
<circle cx="782.3" cy="404.2" r="2.6" fill="#3fb950" opacity="0.7"/>
<circle cx="102.3" cy="360.2" r="2.6" fill="#bc8cff" opacity="0.7"/>
<circle cx="120.8" cy="332.5" r="2.6" fill="#bc8cff" opacity="0.7"/>
<circle cx="139.2" cy="125.0" r="2.6" fill="#bc8cff" opacity="0.7"/>
<circle cx="157.7" cy="365.3" r="2.6" fill="#bc8cff" opacity="0.7"/>
<circle cx="176.1" cy="412.2" r="2.6" fill="#bc8cff" opacity="0.7"/>
<circle cx="194.6" cy="351.2" r="2.6" fill="#bc8cff" opacity="0.7"/>
<circle cx="213.0" cy="191.4" r="2.6" fill="#bc8cff" opacity="0.7"/>
<circle cx="231.5" cy="350.7" r="2.6" fill="#bc8cff" opacity="0.7"/>
<circle cx="249.9" cy="357.0" r="2.6" fill="#bc8cff" opacity="0.7"/>
<circle cx="268.4" cy="353.4" r="2.6" fill="#bc8cff" opacity="0.7"/>
<circle cx="286.8" cy="357.7" r="2.6" fill="#bc8cff" opacity="0.7"/>
<circle cx="305.3" cy="359.1" r="2.6" fill="#bc8cff" opacity="0.7"/>
<circle cx="323.7" cy="99.2" r="2.6" fill="#bc8cff" opacity="0.7"/>
<circle cx="342.2" cy="115.9" r="2.6" fill="#bc8cff" opacity="0.7"/>
<circle cx="360.6" cy="170.6" r="2.6" fill="#bc8cff" opacity="0.7"/>
<circle cx="379.1" cy="141.7" r="2.6" fill="#bc8cff" opacity="0.7"/>
<circle cx="397.5" cy="135.3" r="2.6" fill="#bc8cff" opacity="0.7"/>
<circle cx="416.0" cy="158.5" r="2.6" fill="#bc8cff" opacity="0.7"/>
<circle cx="434.4" cy="155.6" r="2.6" fill="#bc8cff" opacity="0.7"/>
<circle cx="452.9" cy="126.1" r="2.6" fill="#bc8cff" opacity="0.7"/>
<circle cx="471.3" cy="134.5" r="2.6" fill="#bc8cff" opacity="0.7"/>
<circle cx="489.8" cy="132.6" r="2.6" fill="#bc8cff" opacity="0.7"/>
<circle cx="508.2" cy="310.6" r="2.6" fill="#bc8cff" opacity="0.7"/>
<circle cx="526.7" cy="155.6" r="2.6" fill="#bc8cff" opacity="0.7"/>
<circle cx="545.1" cy="115.9" r="2.6" fill="#bc8cff" opacity="0.7"/>
<circle cx="563.6" cy="357.6" r="2.6" fill="#bc8cff" opacity="0.7"/>
<circle cx="582.0" cy="220.5" r="2.6" fill="#bc8cff" opacity="0.7"/>
<circle cx="600.5" cy="414.8" r="2.6" fill="#bc8cff" opacity="0.7"/>
<circle cx="618.9" cy="352.8" r="2.6" fill="#bc8cff" opacity="0.7"/>
<circle cx="637.4" cy="412.3" r="2.6" fill="#bc8cff" opacity="0.7"/>
<circle cx="655.8" cy="454.1" r="2.6" fill="#bc8cff" opacity="0.7"/>
<circle cx="674.3" cy="412.2" r="2.6" fill="#bc8cff" opacity="0.7"/>
<circle cx="692.7" cy="412.2" r="2.6" fill="#bc8cff" opacity="0.7"/>
<circle cx="711.2" cy="359.6" r="2.6" fill="#bc8cff" opacity="0.7"/>
<circle cx="729.6" cy="351.3" r="2.6" fill="#bc8cff" opacity="0.7"/>
<circle cx="748.1" cy="362.2" r="2.6" fill="#bc8cff" opacity="0.7"/>
<circle cx="766.5" cy="371.3" r="2.6" fill="#bc8cff" opacity="0.7"/>
<circle cx="785.0" cy="390.1" r="2.6" fill="#bc8cff" opacity="0.7"/>
<circle cx="97.0" cy="420.8" r="3.2" fill="#ff922b" opacity="0.85"/>
<circle cx="115.5" cy="420.4" r="3.2" fill="#ff922b" opacity="0.85"/>
<circle cx="133.9" cy="418.7" r="3.2" fill="#ff922b" opacity="0.85"/>
<circle cx="152.4" cy="414.4" r="3.2" fill="#ff922b" opacity="0.85"/>
<circle cx="170.8" cy="418.3" r="3.2" fill="#ff922b" opacity="0.85"/>
<circle cx="189.3" cy="415.0" r="3.2" fill="#ff922b" opacity="0.85"/>
<circle cx="207.7" cy="419.0" r="3.2" fill="#ff922b" opacity="0.85"/>
<circle cx="226.2" cy="419.3" r="3.2" fill="#ff922b" opacity="0.85"/>
<circle cx="244.6" cy="420.3" r="3.2" fill="#ff922b" opacity="0.85"/>
<circle cx="263.1" cy="419.8" r="3.2" fill="#ff922b" opacity="0.85"/>
<circle cx="281.5" cy="419.3" r="3.2" fill="#ff922b" opacity="0.85"/>
<circle cx="300.0" cy="420.3" r="3.2" fill="#ff922b" opacity="0.85"/>
<circle cx="318.4" cy="419.9" r="3.2" fill="#ff922b" opacity="0.85"/>
<circle cx="336.9" cy="419.3" r="3.2" fill="#ff922b" opacity="0.85"/>
<circle cx="355.3" cy="417.7" r="3.2" fill="#ff922b" opacity="0.85"/>
<circle cx="373.8" cy="417.7" r="3.2" fill="#ff922b" opacity="0.85"/>
<circle cx="392.2" cy="418.2" r="3.2" fill="#ff922b" opacity="0.85"/>
<circle cx="410.7" cy="416.7" r="3.2" fill="#ff922b" opacity="0.85"/>
<circle cx="429.1" cy="418.2" r="3.2" fill="#ff922b" opacity="0.85"/>
<circle cx="447.6" cy="418.7" r="3.2" fill="#ff922b" opacity="0.85"/>
<circle cx="466.0" cy="412.3" r="3.2" fill="#ff922b" opacity="0.85"/>
<circle cx="484.5" cy="418.7" r="3.2" fill="#ff922b" opacity="0.85"/>
<circle cx="502.9" cy="412.1" r="3.2" fill="#ff922b" opacity="0.85"/>
<circle cx="521.4" cy="418.2" r="3.2" fill="#ff922b" opacity="0.85"/>
<circle cx="539.8" cy="417.7" r="3.2" fill="#ff922b" opacity="0.85"/>
<circle cx="558.3" cy="419.9" r="3.2" fill="#ff922b" opacity="0.85"/>
<circle cx="576.7" cy="421.7" r="3.2" fill="#ff922b" opacity="0.85"/>
<circle cx="595.2" cy="418.2" r="3.2" fill="#ff922b" opacity="0.85"/>
<circle cx="613.6" cy="419.3" r="3.2" fill="#ff922b" opacity="0.85"/>
<circle cx="632.1" cy="418.2" r="3.2" fill="#ff922b" opacity="0.85"/>
<circle cx="650.5" cy="421.3" r="3.2" fill="#ff922b" opacity="0.85"/>
<circle cx="669.0" cy="418.2" r="3.2" fill="#ff922b" opacity="0.85"/>
<circle cx="687.4" cy="418.2" r="3.2" fill="#ff922b" opacity="0.85"/>
<circle cx="705.9" cy="391.1" r="3.2" fill="#ff922b" opacity="0.85"/>
<circle cx="724.3" cy="419.2" r="3.2" fill="#ff922b" opacity="0.85"/>
<circle cx="742.8" cy="420.6" r="3.2" fill="#ff922b" opacity="0.85"/>
<circle cx="761.2" cy="415.7" r="3.2" fill="#ff922b" opacity="0.85"/>
<circle cx="779.7" cy="418.3" r="3.2" fill="#ff922b" opacity="0.85"/>
<circle cx="847" cy="84" r="5" fill="#ff922b"/>
<text x="866" y="88" font-size="13" fill="#c9d1d9" font-weight="700">Kāra</text>
<line x1="836" y1="108" x2="858" y2="108" stroke="#a7b0bc" stroke-width="2" stroke-dasharray="5 4"/>
<text x="866" y="112" font-size="13" fill="#c9d1d9" font-weight="400">Rust = 1.0×</text>
<circle cx="847" cy="132" r="4" fill="#3fb950"/>
<text x="866" y="136" font-size="13" fill="#c9d1d9" font-weight="400">C</text>
<circle cx="847" cy="156" r="4" fill="#bc8cff"/>
<text x="866" y="160" font-size="13" fill="#c9d1d9" font-weight="400">Go</text>
<text x="70" y="538" font-size="11.5" fill="#8b949e">Each dot is one benchmarked program (kata × approach); there is no connecting line because left-to-right order is not meaningful. Raw numbers: bench-results.json</text>
</svg>