<svg xmlns="http://www.w3.org/2000/svg" width="980" height="560" viewBox="0 0 980 560" font-family="-apple-system,Segoe UI,Helvetica,Arial,sans-serif">
<rect width="980" height="560" fill="#282c34"/>
<text x="70" y="34" font-size="21" font-weight="700" fill="#c9d1d9">Runtime peak memory — sequential lane</text>
<text x="70" y="56" font-size="13" fill="#8b949e">relative to Rust = 1.0 · lower = leaner · 30 programs</text>
<line x1="70" y1="456.0" x2="812" y2="456.0" stroke="#3b414b" stroke-width="1"/>
<text x="60" y="460.0" font-size="12" text-anchor="end" fill="#8b949e">0.0×</text>
<line x1="70" y1="380.4" x2="812" y2="380.4" stroke="#3b414b" stroke-width="1"/>
<text x="60" y="384.4" font-size="12" text-anchor="end" fill="#8b949e">2.0×</text>
<line x1="70" y1="304.8" x2="812" y2="304.8" stroke="#3b414b" stroke-width="1"/>
<text x="60" y="308.8" font-size="12" text-anchor="end" fill="#8b949e">4.0×</text>
<line x1="70" y1="229.2" x2="812" y2="229.2" stroke="#3b414b" stroke-width="1"/>
<text x="60" y="233.2" font-size="12" text-anchor="end" fill="#8b949e">6.0×</text>
<line x1="70" y1="153.6" x2="812" y2="153.6" stroke="#3b414b" stroke-width="1"/>
<text x="60" y="157.6" font-size="12" text-anchor="end" fill="#8b949e">8.0×</text>
<line x1="70" y1="78.0" x2="812" y2="78.0" stroke="#3b414b" stroke-width="1"/>
<text x="60" y="82.0" font-size="12" text-anchor="end" fill="#8b949e">10.0×</text>
<text x="812" y="412.2" font-size="11" text-anchor="end" fill="#aeb6c0">Rust baseline</text>
<line x1="99.7" y1="456" x2="99.7" y2="461" stroke="#3b414b"/>
<g transform="translate(99.7,474) rotate(35)">
<text x="0" y="0" font-size="10.5" fill="#8b949e">#1</text>
<text x="0" y="12" font-size="10.5" fill="#8b949e">brute_force</text>
</g>
<line x1="123.2" y1="456" x2="123.2" y2="461" stroke="#3b414b"/>
<g transform="translate(123.2,474) rotate(35)">
<text x="0" y="0" font-size="10.5" fill="#8b949e">#1</text>
<text x="0" y="12" font-size="10.5" fill="#8b949e">hash_map</text>
</g>
<line x1="146.8" y1="456" x2="146.8" y2="461" stroke="#3b414b"/>
<g transform="translate(146.8,474) rotate(35)">
<text x="0" y="0" font-size="10.5" fill="#8b949e">#2</text>
<text x="0" y="12" font-size="10.5" fill="#8b949e">iterative</text>
</g>
<line x1="170.3" y1="456" x2="170.3" y2="461" stroke="#3b414b"/>
<g transform="translate(170.3,474) rotate(35)">
<text x="0" y="0" font-size="10.5" fill="#8b949e">#3</text>
<text x="0" y="12" font-size="10.5" fill="#8b949e">sliding_window</text>
</g>
<line x1="193.8" y1="456" x2="193.8" y2="461" stroke="#3b414b"/>
<g transform="translate(193.8,474) rotate(35)">
<text x="0" y="0" font-size="10.5" fill="#8b949e">#4</text>
<text x="0" y="12" font-size="10.5" fill="#8b949e">binary_search…</text>
</g>
<line x1="217.4" y1="456" x2="217.4" y2="461" stroke="#3b414b"/>
<g transform="translate(217.4,474) rotate(35)">
<text x="0" y="0" font-size="10.5" fill="#8b949e">#5</text>
<text x="0" y="12" font-size="10.5" fill="#8b949e">expand_around…</text>
</g>
<line x1="240.9" y1="456" x2="240.9" y2="461" stroke="#3b414b"/>
<g transform="translate(240.9,474) rotate(35)">
<text x="0" y="0" font-size="10.5" fill="#8b949e">#6</text>
<text x="0" y="12" font-size="10.5" fill="#8b949e">row_buffers</text>
</g>
<line x1="264.5" y1="456" x2="264.5" y2="461" stroke="#3b414b"/>
<g transform="translate(264.5,474) rotate(35)">
<text x="0" y="0" font-size="10.5" fill="#8b949e">#7</text>
<text x="0" y="12" font-size="10.5" fill="#8b949e">reverse</text>
</g>
<line x1="288.0" y1="456" x2="288.0" y2="461" stroke="#3b414b"/>
<g transform="translate(288.0,474) rotate(35)">
<text x="0" y="0" font-size="10.5" fill="#8b949e">#8</text>
<text x="0" y="12" font-size="10.5" fill="#8b949e">atoi</text>
</g>
<line x1="311.5" y1="456" x2="311.5" y2="461" stroke="#3b414b"/>
<g transform="translate(311.5,474) rotate(35)">
<text x="0" y="0" font-size="10.5" fill="#8b949e">#9</text>
<text x="0" y="12" font-size="10.5" fill="#8b949e">palindrome</text>
</g>
<line x1="335.1" y1="456" x2="335.1" y2="461" stroke="#3b414b"/>
<g transform="translate(335.1,474) rotate(35)">
<text x="0" y="0" font-size="10.5" fill="#8b949e">#10</text>
<text x="0" y="12" font-size="10.5" fill="#8b949e">regex</text>
</g>
<line x1="358.6" y1="456" x2="358.6" y2="461" stroke="#3b414b"/>
<g transform="translate(358.6,474) rotate(35)">
<text x="0" y="0" font-size="10.5" fill="#8b949e">#11</text>
<text x="0" y="12" font-size="10.5" fill="#8b949e">container</text>
</g>
<line x1="382.2" y1="456" x2="382.2" y2="461" stroke="#3b414b"/>
<g transform="translate(382.2,474) rotate(35)">
<text x="0" y="0" font-size="10.5" fill="#8b949e">#12</text>
<text x="0" y="12" font-size="10.5" fill="#8b949e">greedy</text>
</g>
<line x1="405.7" y1="456" x2="405.7" y2="461" stroke="#3b414b"/>
<g transform="translate(405.7,474) rotate(35)">
<text x="0" y="0" font-size="10.5" fill="#8b949e">#13</text>
<text x="0" y="12" font-size="10.5" fill="#8b949e">greedy</text>
</g>
<line x1="429.2" y1="456" x2="429.2" y2="461" stroke="#3b414b"/>
<g transform="translate(429.2,474) rotate(35)">
<text x="0" y="0" font-size="10.5" fill="#8b949e">#14</text>
<text x="0" y="12" font-size="10.5" fill="#8b949e">vertical</text>
</g>
<line x1="452.8" y1="456" x2="452.8" y2="461" stroke="#3b414b"/>
<g transform="translate(452.8,474) rotate(35)">
<text x="0" y="0" font-size="10.5" fill="#8b949e">#15</text>
<text x="0" y="12" font-size="10.5" fill="#8b949e">three_sum</text>
</g>
<line x1="476.3" y1="456" x2="476.3" y2="461" stroke="#3b414b"/>
<g transform="translate(476.3,474) rotate(35)">
<text x="0" y="0" font-size="10.5" fill="#8b949e">#16</text>
<text x="0" y="12" font-size="10.5" fill="#8b949e">three_sum_clo…</text>
</g>
<line x1="499.8" y1="456" x2="499.8" y2="461" stroke="#3b414b"/>
<g transform="translate(499.8,474) rotate(35)">
<text x="0" y="0" font-size="10.5" fill="#8b949e">#17</text>
<text x="0" y="12" font-size="10.5" fill="#8b949e">letter_combin…</text>
</g>
<line x1="523.4" y1="456" x2="523.4" y2="461" stroke="#3b414b"/>
<g transform="translate(523.4,474) rotate(35)">
<text x="0" y="0" font-size="10.5" fill="#8b949e">#18</text>
<text x="0" y="12" font-size="10.5" fill="#8b949e">four_sum</text>
</g>
<line x1="546.9" y1="456" x2="546.9" y2="461" stroke="#3b414b"/>
<g transform="translate(546.9,474) rotate(35)">
<text x="0" y="0" font-size="10.5" fill="#8b949e">#19</text>
<text x="0" y="12" font-size="10.5" fill="#8b949e">remove_nth</text>
</g>
<line x1="570.5" y1="456" x2="570.5" y2="461" stroke="#3b414b"/>
<g transform="translate(570.5,474) rotate(35)">
<text x="0" y="0" font-size="10.5" fill="#8b949e">#20</text>
<text x="0" y="12" font-size="10.5" fill="#8b949e">valid_parenth…</text>
</g>
<line x1="594.0" y1="456" x2="594.0" y2="461" stroke="#3b414b"/>
<g transform="translate(594.0,474) rotate(35)">
<text x="0" y="0" font-size="10.5" fill="#8b949e">#21</text>
<text x="0" y="12" font-size="10.5" fill="#8b949e">iterative</text>
</g>
<line x1="617.5" y1="456" x2="617.5" y2="461" stroke="#3b414b"/>
<g transform="translate(617.5,474) rotate(35)">
<text x="0" y="0" font-size="10.5" fill="#8b949e">#56</text>
<text x="0" y="12" font-size="10.5" fill="#8b949e">merge_interva…</text>
</g>
<line x1="641.1" y1="456" x2="641.1" y2="461" stroke="#3b414b"/>
<g transform="translate(641.1,474) rotate(35)">
<text x="0" y="0" font-size="10.5" fill="#8b949e">#65</text>
<text x="0" y="12" font-size="10.5" fill="#8b949e">valid</text>
</g>
<line x1="664.6" y1="456" x2="664.6" y2="461" stroke="#3b414b"/>
<g transform="translate(664.6,474) rotate(35)">
<text x="0" y="0" font-size="10.5" fill="#8b949e">#71</text>
<text x="0" y="12" font-size="10.5" fill="#8b949e">simplify</text>
</g>
<line x1="688.2" y1="456" x2="688.2" y2="461" stroke="#3b414b"/>
<g transform="translate(688.2,474) rotate(35)">
<text x="0" y="0" font-size="10.5" fill="#8b949e">#88</text>
<text x="0" y="12" font-size="10.5" fill="#8b949e">two_pointer</text>
</g>
<line x1="711.7" y1="456" x2="711.7" y2="461" stroke="#3b414b"/>
<g transform="translate(711.7,474) rotate(35)">
<text x="0" y="0" font-size="10.5" fill="#8b949e">#91</text>
<text x="0" y="12" font-size="10.5" fill="#8b949e">decode_ways</text>
</g>
<line x1="735.2" y1="456" x2="735.2" y2="461" stroke="#3b414b"/>
<g transform="translate(735.2,474) rotate(35)">
<text x="0" y="0" font-size="10.5" fill="#8b949e">#121</text>
<text x="0" y="12" font-size="10.5" fill="#8b949e">one_pass</text>
</g>
<line x1="758.8" y1="456" x2="758.8" y2="461" stroke="#3b414b"/>
<g transform="translate(758.8,474) rotate(35)">
<text x="0" y="0" font-size="10.5" fill="#8b949e">#133</text>
<text x="0" y="12" font-size="10.5" fill="#8b949e">clone_bfs</text>
</g>
<line x1="782.3" y1="456" x2="782.3" y2="461" stroke="#3b414b"/>
<g transform="translate(782.3,474) rotate(35)">
<text x="0" y="0" font-size="10.5" fill="#8b949e">#204</text>
<text x="0" y="12" font-size="10.5" fill="#8b949e">count</text>
</g>
<circle cx="99.7" cy="420.3" r="4.0" fill="#3fb950" opacity="0.95"/>
<circle cx="123.2" cy="418.2" r="4.0" fill="#3fb950" opacity="0.95"/>
<circle cx="146.8" cy="419.2" r="4.0" fill="#3fb950" opacity="0.95"/>
<circle cx="170.3" cy="420.1" r="4.0" fill="#3fb950" opacity="0.95"/>
<circle cx="193.8" cy="418.3" r="4.0" fill="#3fb950" opacity="0.95"/>
<circle cx="217.4" cy="421.3" r="4.0" fill="#3fb950" opacity="0.95"/>
<circle cx="240.9" cy="423.2" r="4.0" fill="#3fb950" opacity="0.95"/>
<circle cx="264.5" cy="419.3" r="4.0" fill="#3fb950" opacity="0.95"/>
<circle cx="288.0" cy="420.3" r="4.0" fill="#3fb950" opacity="0.95"/>
<circle cx="311.5" cy="419.3" r="4.0" fill="#3fb950" opacity="0.95"/>
<circle cx="335.1" cy="419.3" r="4.0" fill="#3fb950" opacity="0.95"/>
<circle cx="358.6" cy="420.3" r="4.0" fill="#3fb950" opacity="0.95"/>
<circle cx="382.2" cy="418.8" r="4.0" fill="#3fb950" opacity="0.95"/>
<circle cx="405.7" cy="419.9" r="4.0" fill="#3fb950" opacity="0.95"/>
<circle cx="429.2" cy="418.7" r="4.0" fill="#3fb950" opacity="0.95"/>
<circle cx="452.8" cy="417.7" r="4.0" fill="#3fb950" opacity="0.95"/>
<circle cx="476.3" cy="418.8" r="4.0" fill="#3fb950" opacity="0.95"/>
<circle cx="499.8" cy="416.7" r="4.0" fill="#3fb950" opacity="0.95"/>
<circle cx="523.4" cy="417.7" r="4.0" fill="#3fb950" opacity="0.95"/>
<circle cx="546.9" cy="419.8" r="4.0" fill="#3fb950" opacity="0.95"/>
<circle cx="570.5" cy="417.7" r="4.0" fill="#3fb950" opacity="0.95"/>
<circle cx="594.0" cy="418.7" r="4.0" fill="#3fb950" opacity="0.95"/>
<circle cx="617.5" cy="419.8" r="4.0" fill="#3fb950" opacity="0.95"/>
<circle cx="641.1" cy="420.4" r="4.0" fill="#3fb950" opacity="0.95"/>
<circle cx="664.6" cy="427.8" r="4.0" fill="#3fb950" opacity="0.95"/>
<circle cx="688.2" cy="418.2" r="4.0" fill="#3fb950" opacity="0.95"/>
<circle cx="711.7" cy="419.3" r="4.0" fill="#3fb950" opacity="0.95"/>
<circle cx="735.2" cy="418.2" r="4.0" fill="#3fb950" opacity="0.95"/>
<circle cx="758.8" cy="424.5" r="4.0" fill="#3fb950" opacity="0.95"/>
<circle cx="782.3" cy="427.8" r="4.0" fill="#3fb950" opacity="0.95"/>
<circle cx="103.5" cy="360.2" r="4.0" fill="#bc8cff" opacity="0.95"/>
<circle cx="127.1" cy="332.5" r="4.0" fill="#bc8cff" opacity="0.95"/>
<circle cx="150.6" cy="141.1" r="4.0" fill="#bc8cff" opacity="0.95"/>
<circle cx="174.1" cy="365.3" r="4.0" fill="#bc8cff" opacity="0.95"/>
<circle cx="197.7" cy="412.2" r="4.0" fill="#bc8cff" opacity="0.95"/>
<circle cx="221.2" cy="356.9" r="4.0" fill="#bc8cff" opacity="0.95"/>
<circle cx="244.7" cy="199.5" r="4.0" fill="#bc8cff" opacity="0.95"/>
<circle cx="268.3" cy="350.7" r="4.0" fill="#bc8cff" opacity="0.95"/>
<circle cx="291.8" cy="357.0" r="4.0" fill="#bc8cff" opacity="0.95"/>
<circle cx="315.4" cy="353.4" r="4.0" fill="#bc8cff" opacity="0.95"/>
<circle cx="338.9" cy="357.7" r="4.0" fill="#bc8cff" opacity="0.95"/>
<circle cx="362.4" cy="359.1" r="4.0" fill="#bc8cff" opacity="0.95"/>
<circle cx="386.0" cy="99.2" r="4.0" fill="#bc8cff" opacity="0.95"/>
<circle cx="409.5" cy="115.9" r="4.0" fill="#bc8cff" opacity="0.95"/>
<circle cx="433.1" cy="170.6" r="4.0" fill="#bc8cff" opacity="0.95"/>
<circle cx="456.6" cy="141.7" r="4.0" fill="#bc8cff" opacity="0.95"/>
<circle cx="480.1" cy="135.3" r="4.0" fill="#bc8cff" opacity="0.95"/>
<circle cx="503.7" cy="158.5" r="4.0" fill="#bc8cff" opacity="0.95"/>
<circle cx="527.2" cy="155.6" r="4.0" fill="#bc8cff" opacity="0.95"/>
<circle cx="550.8" cy="126.1" r="4.0" fill="#bc8cff" opacity="0.95"/>
<circle cx="574.3" cy="134.5" r="4.0" fill="#bc8cff" opacity="0.95"/>
<circle cx="597.8" cy="119.6" r="4.0" fill="#bc8cff" opacity="0.95"/>
<circle cx="621.4" cy="115.9" r="4.0" fill="#bc8cff" opacity="0.95"/>
<circle cx="644.9" cy="357.6" r="4.0" fill="#bc8cff" opacity="0.95"/>
<circle cx="668.5" cy="220.5" r="4.0" fill="#bc8cff" opacity="0.95"/>
<circle cx="692.0" cy="414.6" r="4.0" fill="#bc8cff" opacity="0.95"/>
<circle cx="715.5" cy="352.8" r="4.0" fill="#bc8cff" opacity="0.95"/>
<circle cx="739.1" cy="412.3" r="4.0" fill="#bc8cff" opacity="0.95"/>
<circle cx="762.6" cy="454.1" r="4.0" fill="#bc8cff" opacity="0.95"/>
<circle cx="786.2" cy="359.6" r="4.0" fill="#bc8cff" opacity="0.95"/>
<circle cx="95.8" cy="420.8" r="5.0" fill="#ff922b" opacity="1.0"/>
<circle cx="119.4" cy="420.4" r="5.0" fill="#ff922b" opacity="1.0"/>
<circle cx="142.9" cy="417.7" r="5.0" fill="#ff922b" opacity="1.0"/>
<circle cx="166.5" cy="414.4" r="5.0" fill="#ff922b" opacity="1.0"/>
<circle cx="190.0" cy="418.3" r="5.0" fill="#ff922b" opacity="1.0"/>
<circle cx="213.5" cy="416.2" r="5.0" fill="#ff922b" opacity="1.0"/>
<circle cx="237.1" cy="418.6" r="5.0" fill="#ff922b" opacity="1.0"/>
<circle cx="260.6" cy="419.3" r="5.0" fill="#ff922b" opacity="1.0"/>
<circle cx="284.2" cy="420.3" r="5.0" fill="#ff922b" opacity="1.0"/>
<circle cx="307.7" cy="419.8" r="5.0" fill="#ff922b" opacity="1.0"/>
<circle cx="331.2" cy="419.3" r="5.0" fill="#ff922b" opacity="1.0"/>
<circle cx="354.8" cy="420.3" r="5.0" fill="#ff922b" opacity="1.0"/>
<circle cx="378.3" cy="419.9" r="5.0" fill="#ff922b" opacity="1.0"/>
<circle cx="401.9" cy="419.3" r="5.0" fill="#ff922b" opacity="1.0"/>
<circle cx="425.4" cy="417.7" r="5.0" fill="#ff922b" opacity="1.0"/>
<circle cx="448.9" cy="417.7" r="5.0" fill="#ff922b" opacity="1.0"/>
<circle cx="472.5" cy="418.2" r="5.0" fill="#ff922b" opacity="1.0"/>
<circle cx="496.0" cy="416.7" r="5.0" fill="#ff922b" opacity="1.0"/>
<circle cx="519.6" cy="418.2" r="5.0" fill="#ff922b" opacity="1.0"/>
<circle cx="543.1" cy="418.7" r="5.0" fill="#ff922b" opacity="1.0"/>
<circle cx="566.6" cy="412.3" r="5.0" fill="#ff922b" opacity="1.0"/>
<circle cx="590.2" cy="419.8" r="5.0" fill="#ff922b" opacity="1.0"/>
<circle cx="613.7" cy="417.7" r="5.0" fill="#ff922b" opacity="1.0"/>
<circle cx="637.3" cy="419.9" r="5.0" fill="#ff922b" opacity="1.0"/>
<circle cx="660.8" cy="421.7" r="5.0" fill="#ff922b" opacity="1.0"/>
<circle cx="684.3" cy="418.2" r="5.0" fill="#ff922b" opacity="1.0"/>
<circle cx="707.9" cy="419.3" r="5.0" fill="#ff922b" opacity="1.0"/>
<circle cx="731.4" cy="418.2" r="5.0" fill="#ff922b" opacity="1.0"/>
<circle cx="754.9" cy="421.3" r="5.0" fill="#ff922b" opacity="1.0"/>
<circle cx="778.5" cy="391.1" r="5.0" fill="#ff922b" opacity="1.0"/>
<circle cx="847" cy="84" r="5" fill="#ff922b"/>
<text x="866" y="88" font-size="13" fill="#c9d1d9" font-weight="700">Kāra</text>
<line x1="836" y1="108" x2="858" y2="108" stroke="#6e7681" stroke-width="1.6" stroke-dasharray="5 4"/>
<text x="866" y="112" font-size="13" fill="#c9d1d9" font-weight="400">Rust</text>
<circle cx="847" cy="132" r="4" fill="#3fb950"/>
<text x="866" y="136" font-size="13" fill="#c9d1d9" font-weight="400">C</text>
<circle cx="847" cy="156" r="4" fill="#bc8cff"/>
<text x="866" y="160" font-size="13" fill="#c9d1d9" font-weight="400">Go</text>
<text x="70" y="538" font-size="11.5" fill="#8b949e">Each dot is one benchmarked program (kata × approach); there is no connecting line because left-to-right order is not meaningful. Raw numbers: bench-results.json</text>
</svg>