<svg xmlns="http://www.w3.org/2000/svg" width="980" height="560" viewBox="0 0 980 560" font-family="-apple-system,Segoe UI,Helvetica,Arial,sans-serif">
<rect width="980" height="560" fill="#282c34"/>
<text x="70" y="34" font-size="21" font-weight="700" fill="#c9d1d9">Runtime peak memory — sequential lane</text>
<text x="70" y="56" font-size="13" fill="#8b949e">relative to Rust = 1.0 · lower = leaner · 94 programs</text>
<line x1="70" y1="456.0" x2="812" y2="456.0" stroke="#3b414b" stroke-width="1"/>
<text x="60" y="460.0" font-size="12" text-anchor="end" fill="#8b949e">0.0×</text>
<line x1="70" y1="429.0" x2="812" y2="429.0" stroke="#a7b0bc" stroke-width="2" stroke-dasharray="5 4"/>
<text x="60" y="433.0" font-size="12" text-anchor="end" fill="#aeb6c0" font-weight="700">1.0×</text>
<line x1="70" y1="380.4" x2="812" y2="380.4" stroke="#3b414b" stroke-width="1"/>
<text x="60" y="384.4" font-size="12" text-anchor="end" fill="#8b949e">2.8×</text>
<line x1="70" y1="304.8" x2="812" y2="304.8" stroke="#3b414b" stroke-width="1"/>
<text x="60" y="308.8" font-size="12" text-anchor="end" fill="#8b949e">5.6×</text>
<line x1="70" y1="229.2" x2="812" y2="229.2" stroke="#3b414b" stroke-width="1"/>
<text x="60" y="233.2" font-size="12" text-anchor="end" fill="#8b949e">8.4×</text>
<line x1="70" y1="153.6" x2="812" y2="153.6" stroke="#3b414b" stroke-width="1"/>
<text x="60" y="157.6" font-size="12" text-anchor="end" fill="#8b949e">11.2×</text>
<line x1="70" y1="78.0" x2="812" y2="78.0" stroke="#3b414b" stroke-width="1"/>
<text x="60" y="82.0" font-size="12" text-anchor="end" fill="#8b949e">14.0×</text>
<text x="812" y="423.0" font-size="11" text-anchor="end" fill="#aeb6c0">Rust baseline</text>
<line x1="70" y1="456" x2="812" y2="456" stroke="#3b414b"/>
<text x="441.0" y="478" font-size="11" text-anchor="middle" fill="#8b949e">94 programs (kata × approach) — x-order carries no meaning</text>
<circle cx="99.7" cy="430.2" r="2.6" fill="#3fb950" opacity="0.7"/>
<circle cx="107.0" cy="429.0" r="2.6" fill="#3fb950" opacity="0.7"/>
<circle cx="114.4" cy="430.1" r="2.6" fill="#3fb950" opacity="0.7"/>
<circle cx="121.7" cy="431.1" r="2.6" fill="#3fb950" opacity="0.7"/>
<circle cx="129.0" cy="429.1" r="2.6" fill="#3fb950" opacity="0.7"/>
<circle cx="136.4" cy="431.2" r="2.6" fill="#3fb950" opacity="0.7"/>
<circle cx="143.7" cy="432.7" r="2.6" fill="#3fb950" opacity="0.7"/>
<circle cx="151.1" cy="430.6" r="2.6" fill="#3fb950" opacity="0.7"/>
<circle cx="158.4" cy="431.0" r="2.6" fill="#3fb950" opacity="0.7"/>
<circle cx="165.7" cy="430.2" r="2.6" fill="#3fb950" opacity="0.7"/>
<circle cx="173.1" cy="430.6" r="2.6" fill="#3fb950" opacity="0.7"/>
<circle cx="180.4" cy="430.2" r="2.6" fill="#3fb950" opacity="0.7"/>
<circle cx="187.8" cy="430.2" r="2.6" fill="#3fb950" opacity="0.7"/>
<circle cx="195.1" cy="429.4" r="2.6" fill="#3fb950" opacity="0.7"/>
<circle cx="202.4" cy="430.1" r="2.6" fill="#3fb950" opacity="0.7"/>
<circle cx="209.8" cy="430.4" r="2.6" fill="#3fb950" opacity="0.7"/>
<circle cx="217.1" cy="429.8" r="2.6" fill="#3fb950" opacity="0.7"/>
<circle cx="224.5" cy="429.0" r="2.6" fill="#3fb950" opacity="0.7"/>
<circle cx="231.8" cy="429.0" r="2.6" fill="#3fb950" opacity="0.7"/>
<circle cx="239.1" cy="431.6" r="2.6" fill="#3fb950" opacity="0.7"/>
<circle cx="246.5" cy="425.7" r="2.6" fill="#3fb950" opacity="0.7"/>
<circle cx="253.8" cy="429.7" r="2.6" fill="#3fb950" opacity="0.7"/>
<circle cx="261.2" cy="435.0" r="2.6" fill="#3fb950" opacity="0.7"/>
<circle cx="268.5" cy="430.7" r="2.6" fill="#3fb950" opacity="0.7"/>
<circle cx="275.8" cy="429.8" r="2.6" fill="#3fb950" opacity="0.7"/>
<circle cx="283.2" cy="430.5" r="2.6" fill="#3fb950" opacity="0.7"/>
<circle cx="290.5" cy="429.0" r="2.6" fill="#3fb950" opacity="0.7"/>
<circle cx="297.9" cy="429.0" r="2.6" fill="#3fb950" opacity="0.7"/>
<circle cx="305.2" cy="429.3" r="2.6" fill="#3fb950" opacity="0.7"/>
<circle cx="312.5" cy="429.3" r="2.6" fill="#3fb950" opacity="0.7"/>
<circle cx="319.9" cy="430.6" r="2.6" fill="#3fb950" opacity="0.7"/>
<circle cx="327.2" cy="433.1" r="2.6" fill="#3fb950" opacity="0.7"/>
<circle cx="334.6" cy="431.0" r="2.6" fill="#3fb950" opacity="0.7"/>
<circle cx="341.9" cy="430.9" r="2.6" fill="#3fb950" opacity="0.7"/>
<circle cx="349.2" cy="430.5" r="2.6" fill="#3fb950" opacity="0.7"/>
<circle cx="356.6" cy="430.5" r="2.6" fill="#3fb950" opacity="0.7"/>
<circle cx="363.9" cy="430.5" r="2.6" fill="#3fb950" opacity="0.7"/>
<circle cx="371.3" cy="430.6" r="2.6" fill="#3fb950" opacity="0.7"/>
<circle cx="378.6" cy="429.8" r="2.6" fill="#3fb950" opacity="0.7"/>
<circle cx="385.9" cy="427.9" r="2.6" fill="#3fb950" opacity="0.7"/>
<circle cx="393.3" cy="429.3" r="2.6" fill="#3fb950" opacity="0.7"/>
<circle cx="400.6" cy="429.4" r="2.6" fill="#3fb950" opacity="0.7"/>
<circle cx="408.0" cy="430.2" r="2.6" fill="#3fb950" opacity="0.7"/>
<circle cx="415.3" cy="430.2" r="2.6" fill="#3fb950" opacity="0.7"/>
<circle cx="422.6" cy="454.3" r="2.6" fill="#3fb950" opacity="0.7"/>
<circle cx="430.0" cy="430.2" r="2.6" fill="#3fb950" opacity="0.7"/>
<circle cx="437.3" cy="430.2" r="2.6" fill="#3fb950" opacity="0.7"/>
<circle cx="444.7" cy="430.2" r="2.6" fill="#3fb950" opacity="0.7"/>
<circle cx="452.0" cy="430.9" r="2.6" fill="#3fb950" opacity="0.7"/>
<circle cx="459.4" cy="430.6" r="2.6" fill="#3fb950" opacity="0.7"/>
<circle cx="466.7" cy="439.5" r="2.6" fill="#3fb950" opacity="0.7"/>
<circle cx="474.0" cy="430.2" r="2.6" fill="#3fb950" opacity="0.7"/>
<circle cx="481.4" cy="429.8" r="2.6" fill="#3fb950" opacity="0.7"/>
<circle cx="488.7" cy="430.2" r="2.6" fill="#3fb950" opacity="0.7"/>
<circle cx="496.1" cy="430.2" r="2.6" fill="#3fb950" opacity="0.7"/>
<circle cx="503.4" cy="430.6" r="2.6" fill="#3fb950" opacity="0.7"/>
<circle cx="510.7" cy="429.8" r="2.6" fill="#3fb950" opacity="0.7"/>
<circle cx="518.1" cy="430.2" r="2.6" fill="#3fb950" opacity="0.7"/>
<circle cx="525.4" cy="429.8" r="2.6" fill="#3fb950" opacity="0.7"/>
<circle cx="532.8" cy="429.4" r="2.6" fill="#3fb950" opacity="0.7"/>
<circle cx="540.1" cy="429.4" r="2.6" fill="#3fb950" opacity="0.7"/>
<circle cx="547.4" cy="429.4" r="2.6" fill="#3fb950" opacity="0.7"/>
<circle cx="554.8" cy="429.0" r="2.6" fill="#3fb950" opacity="0.7"/>
<circle cx="562.1" cy="429.7" r="2.6" fill="#3fb950" opacity="0.7"/>
<circle cx="569.5" cy="429.0" r="2.6" fill="#3fb950" opacity="0.7"/>
<circle cx="576.8" cy="430.2" r="2.6" fill="#3fb950" opacity="0.7"/>
<circle cx="584.1" cy="430.6" r="2.6" fill="#3fb950" opacity="0.7"/>
<circle cx="591.5" cy="430.6" r="2.6" fill="#3fb950" opacity="0.7"/>
<circle cx="598.8" cy="430.2" r="2.6" fill="#3fb950" opacity="0.7"/>
<circle cx="606.2" cy="429.8" r="2.6" fill="#3fb950" opacity="0.7"/>
<circle cx="613.5" cy="434.9" r="2.6" fill="#3fb950" opacity="0.7"/>
<circle cx="620.8" cy="427.9" r="2.6" fill="#3fb950" opacity="0.7"/>
<circle cx="628.2" cy="428.3" r="2.6" fill="#3fb950" opacity="0.7"/>
<circle cx="635.5" cy="430.8" r="2.6" fill="#3fb950" opacity="0.7"/>
<circle cx="642.9" cy="435.2" r="2.6" fill="#3fb950" opacity="0.7"/>
<circle cx="650.2" cy="430.7" r="2.6" fill="#3fb950" opacity="0.7"/>
<circle cx="657.5" cy="429.0" r="2.6" fill="#3fb950" opacity="0.7"/>
<circle cx="664.9" cy="430.2" r="2.6" fill="#3fb950" opacity="0.7"/>
<circle cx="672.2" cy="429.8" r="2.6" fill="#3fb950" opacity="0.7"/>
<circle cx="679.6" cy="429.1" r="2.6" fill="#3fb950" opacity="0.7"/>
<circle cx="686.9" cy="432.2" r="2.6" fill="#3fb950" opacity="0.7"/>
<circle cx="694.2" cy="433.5" r="2.6" fill="#3fb950" opacity="0.7"/>
<circle cx="701.6" cy="429.1" r="2.6" fill="#3fb950" opacity="0.7"/>
<circle cx="708.9" cy="429.1" r="2.6" fill="#3fb950" opacity="0.7"/>
<circle cx="716.3" cy="436.2" r="2.6" fill="#3fb950" opacity="0.7"/>
<circle cx="723.6" cy="436.0" r="2.6" fill="#3fb950" opacity="0.7"/>
<circle cx="730.9" cy="430.1" r="2.6" fill="#3fb950" opacity="0.7"/>
<circle cx="738.3" cy="430.7" r="2.6" fill="#3fb950" opacity="0.7"/>
<circle cx="745.6" cy="428.7" r="2.6" fill="#3fb950" opacity="0.7"/>
<circle cx="753.0" cy="429.1" r="2.6" fill="#3fb950" opacity="0.7"/>
<circle cx="760.3" cy="454.7" r="2.6" fill="#3fb950" opacity="0.7"/>
<circle cx="767.6" cy="430.9" r="2.6" fill="#3fb950" opacity="0.7"/>
<circle cx="775.0" cy="441.9" r="2.6" fill="#3fb950" opacity="0.7"/>
<circle cx="782.3" cy="419.1" r="2.6" fill="#3fb950" opacity="0.7"/>
<circle cx="101.0" cy="386.0" r="2.6" fill="#bc8cff" opacity="0.7"/>
<circle cx="108.3" cy="364.9" r="2.6" fill="#bc8cff" opacity="0.7"/>
<circle cx="115.7" cy="223.3" r="2.6" fill="#bc8cff" opacity="0.7"/>
<circle cx="123.0" cy="386.3" r="2.6" fill="#bc8cff" opacity="0.7"/>
<circle cx="130.4" cy="424.9" r="2.6" fill="#bc8cff" opacity="0.7"/>
<circle cx="137.7" cy="339.0" r="2.6" fill="#bc8cff" opacity="0.7"/>
<circle cx="145.1" cy="260.4" r="2.6" fill="#bc8cff" opacity="0.7"/>
<circle cx="152.4" cy="382.6" r="2.6" fill="#bc8cff" opacity="0.7"/>
<circle cx="159.7" cy="383.2" r="2.6" fill="#bc8cff" opacity="0.7"/>
<circle cx="167.1" cy="383.3" r="2.6" fill="#bc8cff" opacity="0.7"/>
<circle cx="174.4" cy="386.0" r="2.6" fill="#bc8cff" opacity="0.7"/>
<circle cx="181.8" cy="381.8" r="2.6" fill="#bc8cff" opacity="0.7"/>
<circle cx="189.1" cy="209.1" r="2.6" fill="#bc8cff" opacity="0.7"/>
<circle cx="196.4" cy="213.4" r="2.6" fill="#bc8cff" opacity="0.7"/>
<circle cx="203.8" cy="267.0" r="2.6" fill="#bc8cff" opacity="0.7"/>
<circle cx="211.1" cy="236.8" r="2.6" fill="#bc8cff" opacity="0.7"/>
<circle cx="218.5" cy="225.6" r="2.6" fill="#bc8cff" opacity="0.7"/>
<circle cx="225.8" cy="261.0" r="2.6" fill="#bc8cff" opacity="0.7"/>
<circle cx="233.1" cy="238.6" r="2.6" fill="#bc8cff" opacity="0.7"/>
<circle cx="240.5" cy="222.7" r="2.6" fill="#bc8cff" opacity="0.7"/>
<circle cx="247.8" cy="246.7" r="2.6" fill="#bc8cff" opacity="0.7"/>
<circle cx="255.2" cy="228.2" r="2.6" fill="#bc8cff" opacity="0.7"/>
<circle cx="262.5" cy="360.5" r="2.6" fill="#bc8cff" opacity="0.7"/>
<circle cx="269.8" cy="245.5" r="2.6" fill="#bc8cff" opacity="0.7"/>
<circle cx="277.2" cy="232.8" r="2.6" fill="#bc8cff" opacity="0.7"/>
<circle cx="284.5" cy="229.7" r="2.6" fill="#bc8cff" opacity="0.7"/>
<circle cx="291.9" cy="426.5" r="2.6" fill="#bc8cff" opacity="0.7"/>
<circle cx="299.2" cy="426.6" r="2.6" fill="#bc8cff" opacity="0.7"/>
<circle cx="306.5" cy="410.8" r="2.6" fill="#bc8cff" opacity="0.7"/>
<circle cx="313.9" cy="412.3" r="2.6" fill="#bc8cff" opacity="0.7"/>
<circle cx="321.2" cy="383.3" r="2.6" fill="#bc8cff" opacity="0.7"/>
<circle cx="328.6" cy="279.2" r="2.6" fill="#bc8cff" opacity="0.7"/>
<circle cx="335.9" cy="384.4" r="2.6" fill="#bc8cff" opacity="0.7"/>
<circle cx="343.2" cy="216.5" r="2.6" fill="#bc8cff" opacity="0.7"/>
<circle cx="350.6" cy="384.1" r="2.6" fill="#bc8cff" opacity="0.7"/>
<circle cx="357.9" cy="381.9" r="2.6" fill="#bc8cff" opacity="0.7"/>
<circle cx="365.3" cy="383.8" r="2.6" fill="#bc8cff" opacity="0.7"/>
<circle cx="372.6" cy="387.7" r="2.6" fill="#bc8cff" opacity="0.7"/>
<circle cx="379.9" cy="384.3" r="2.6" fill="#bc8cff" opacity="0.7"/>
<circle cx="387.3" cy="247.2" r="2.6" fill="#bc8cff" opacity="0.7"/>
<circle cx="394.6" cy="242.1" r="2.6" fill="#bc8cff" opacity="0.7"/>
<circle cx="402.0" cy="253.2" r="2.6" fill="#bc8cff" opacity="0.7"/>
<circle cx="409.3" cy="387.1" r="2.6" fill="#bc8cff" opacity="0.7"/>
<circle cx="416.6" cy="388.5" r="2.6" fill="#bc8cff" opacity="0.7"/>
<circle cx="424.0" cy="373.4" r="2.6" fill="#bc8cff" opacity="0.7"/>
<circle cx="431.3" cy="387.9" r="2.6" fill="#bc8cff" opacity="0.7"/>
<circle cx="438.7" cy="390.9" r="2.6" fill="#bc8cff" opacity="0.7"/>
<circle cx="446.0" cy="312.9" r="2.6" fill="#bc8cff" opacity="0.7"/>
<circle cx="453.3" cy="281.8" r="2.6" fill="#bc8cff" opacity="0.7"/>
<circle cx="460.7" cy="388.9" r="2.6" fill="#bc8cff" opacity="0.7"/>
<circle cx="468.0" cy="331.7" r="2.6" fill="#bc8cff" opacity="0.7"/>
<circle cx="475.4" cy="387.5" r="2.6" fill="#bc8cff" opacity="0.7"/>
<circle cx="482.7" cy="388.3" r="2.6" fill="#bc8cff" opacity="0.7"/>
<circle cx="490.0" cy="387.5" r="2.6" fill="#bc8cff" opacity="0.7"/>
<circle cx="497.4" cy="389.5" r="2.6" fill="#bc8cff" opacity="0.7"/>
<circle cx="504.7" cy="385.3" r="2.6" fill="#bc8cff" opacity="0.7"/>
<circle cx="512.1" cy="387.1" r="2.6" fill="#bc8cff" opacity="0.7"/>
<circle cx="519.4" cy="215.7" r="2.6" fill="#bc8cff" opacity="0.7"/>
<circle cx="526.7" cy="215.0" r="2.6" fill="#bc8cff" opacity="0.7"/>
<circle cx="534.1" cy="237.5" r="2.6" fill="#bc8cff" opacity="0.7"/>
<circle cx="541.4" cy="243.8" r="2.6" fill="#bc8cff" opacity="0.7"/>
<circle cx="548.8" cy="219.0" r="2.6" fill="#bc8cff" opacity="0.7"/>
<circle cx="556.1" cy="264.6" r="2.6" fill="#bc8cff" opacity="0.7"/>
<circle cx="563.4" cy="266.4" r="2.6" fill="#bc8cff" opacity="0.7"/>
<circle cx="570.8" cy="256.7" r="2.6" fill="#bc8cff" opacity="0.7"/>
<circle cx="578.1" cy="384.5" r="2.6" fill="#bc8cff" opacity="0.7"/>
<circle cx="585.5" cy="388.5" r="2.6" fill="#bc8cff" opacity="0.7"/>
<circle cx="592.8" cy="388.1" r="2.6" fill="#bc8cff" opacity="0.7"/>
<circle cx="600.1" cy="388.9" r="2.6" fill="#bc8cff" opacity="0.7"/>
<circle cx="607.5" cy="390.3" r="2.6" fill="#bc8cff" opacity="0.7"/>
<circle cx="614.8" cy="278.1" r="2.6" fill="#bc8cff" opacity="0.7"/>
<circle cx="622.2" cy="231.0" r="2.6" fill="#bc8cff" opacity="0.7"/>
<circle cx="629.5" cy="233.5" r="2.6" fill="#bc8cff" opacity="0.7"/>
<circle cx="636.8" cy="392.5" r="2.6" fill="#bc8cff" opacity="0.7"/>
<circle cx="644.2" cy="321.6" r="2.6" fill="#bc8cff" opacity="0.7"/>
<circle cx="651.5" cy="399.5" r="2.6" fill="#bc8cff" opacity="0.7"/>
<circle cx="658.9" cy="426.7" r="2.6" fill="#bc8cff" opacity="0.7"/>
<circle cx="666.2" cy="386.4" r="2.6" fill="#bc8cff" opacity="0.7"/>
<circle cx="673.5" cy="215.9" r="2.6" fill="#bc8cff" opacity="0.7"/>
<circle cx="680.9" cy="424.8" r="2.6" fill="#bc8cff" opacity="0.7"/>
<circle cx="688.2" cy="242.9" r="2.6" fill="#bc8cff" opacity="0.7"/>
<circle cx="695.6" cy="454.6" r="2.6" fill="#bc8cff" opacity="0.7"/>
<circle cx="702.9" cy="424.8" r="2.6" fill="#bc8cff" opacity="0.7"/>
<circle cx="710.2" cy="424.6" r="2.6" fill="#bc8cff" opacity="0.7"/>
<circle cx="717.6" cy="420.5" r="2.6" fill="#bc8cff" opacity="0.7"/>
<circle cx="724.9" cy="381.0" r="2.6" fill="#bc8cff" opacity="0.7"/>
<circle cx="732.3" cy="379.3" r="2.6" fill="#bc8cff" opacity="0.7"/>
<circle cx="739.6" cy="387.0" r="2.6" fill="#bc8cff" opacity="0.7"/>
<circle cx="746.9" cy="253.9" r="2.6" fill="#bc8cff" opacity="0.7"/>
<circle cx="754.3" cy="396.9" r="2.6" fill="#bc8cff" opacity="0.7"/>
<circle cx="761.6" cy="375.5" r="2.6" fill="#bc8cff" opacity="0.7"/>
<circle cx="769.0" cy="283.4" r="2.6" fill="#bc8cff" opacity="0.7"/>
<circle cx="776.3" cy="396.0" r="2.6" fill="#bc8cff" opacity="0.7"/>
<circle cx="783.6" cy="400.0" r="2.6" fill="#bc8cff" opacity="0.7"/>
<circle cx="98.4" cy="430.6" r="3.2" fill="#ff922b" opacity="0.85"/>
<circle cx="105.7" cy="429.7" r="3.2" fill="#ff922b" opacity="0.85"/>
<circle cx="113.0" cy="429.8" r="3.2" fill="#ff922b" opacity="0.85"/>
<circle cx="120.4" cy="428.3" r="3.2" fill="#ff922b" opacity="0.85"/>
<circle cx="127.7" cy="429.0" r="3.2" fill="#ff922b" opacity="0.85"/>
<circle cx="135.1" cy="426.8" r="3.2" fill="#ff922b" opacity="0.85"/>
<circle cx="142.4" cy="429.3" r="3.2" fill="#ff922b" opacity="0.85"/>
<circle cx="149.7" cy="430.6" r="3.2" fill="#ff922b" opacity="0.85"/>
<circle cx="157.1" cy="431.0" r="3.2" fill="#ff922b" opacity="0.85"/>
<circle cx="164.4" cy="430.6" r="3.2" fill="#ff922b" opacity="0.85"/>
<circle cx="171.8" cy="430.6" r="3.2" fill="#ff922b" opacity="0.85"/>
<circle cx="179.1" cy="430.2" r="3.2" fill="#ff922b" opacity="0.85"/>
<circle cx="186.4" cy="429.8" r="3.2" fill="#ff922b" opacity="0.85"/>
<circle cx="193.8" cy="429.8" r="3.2" fill="#ff922b" opacity="0.85"/>
<circle cx="201.1" cy="430.1" r="3.2" fill="#ff922b" opacity="0.85"/>
<circle cx="208.5" cy="429.7" r="3.2" fill="#ff922b" opacity="0.85"/>
<circle cx="215.8" cy="430.2" r="3.2" fill="#ff922b" opacity="0.85"/>
<circle cx="223.1" cy="127.7" r="3.2" fill="#ff922b" opacity="0.85"/>
<circle cx="230.5" cy="429.7" r="3.2" fill="#ff922b" opacity="0.85"/>
<circle cx="237.8" cy="430.1" r="3.2" fill="#ff922b" opacity="0.85"/>
<circle cx="245.2" cy="430.0" r="3.2" fill="#ff922b" opacity="0.85"/>
<circle cx="252.5" cy="430.1" r="3.2" fill="#ff922b" opacity="0.85"/>
<circle cx="259.8" cy="432.0" r="3.2" fill="#ff922b" opacity="0.85"/>
<circle cx="267.2" cy="430.0" r="3.2" fill="#ff922b" opacity="0.85"/>
<circle cx="274.5" cy="430.1" r="3.2" fill="#ff922b" opacity="0.85"/>
<circle cx="281.9" cy="428.6" r="3.2" fill="#ff922b" opacity="0.85"/>
<circle cx="289.2" cy="429.0" r="3.2" fill="#ff922b" opacity="0.85"/>
<circle cx="296.5" cy="429.0" r="3.2" fill="#ff922b" opacity="0.85"/>
<circle cx="303.9" cy="429.1" r="3.2" fill="#ff922b" opacity="0.85"/>
<circle cx="311.2" cy="429.3" r="3.2" fill="#ff922b" opacity="0.85"/>
<circle cx="318.6" cy="430.2" r="3.2" fill="#ff922b" opacity="0.85"/>
<circle cx="325.9" cy="429.9" r="3.2" fill="#ff922b" opacity="0.85"/>
<circle cx="333.2" cy="430.6" r="3.2" fill="#ff922b" opacity="0.85"/>
<circle cx="340.6" cy="430.5" r="3.2" fill="#ff922b" opacity="0.85"/>
<circle cx="347.9" cy="430.1" r="3.2" fill="#ff922b" opacity="0.85"/>
<circle cx="355.3" cy="430.1" r="3.2" fill="#ff922b" opacity="0.85"/>
<circle cx="362.6" cy="430.1" r="3.2" fill="#ff922b" opacity="0.85"/>
<circle cx="369.9" cy="430.6" r="3.2" fill="#ff922b" opacity="0.85"/>
<circle cx="377.3" cy="430.2" r="3.2" fill="#ff922b" opacity="0.85"/>
<circle cx="384.6" cy="429.0" r="3.2" fill="#ff922b" opacity="0.85"/>
<circle cx="392.0" cy="430.7" r="3.2" fill="#ff922b" opacity="0.85"/>
<circle cx="399.3" cy="429.7" r="3.2" fill="#ff922b" opacity="0.85"/>
<circle cx="406.6" cy="430.2" r="3.2" fill="#ff922b" opacity="0.85"/>
<circle cx="414.0" cy="430.2" r="3.2" fill="#ff922b" opacity="0.85"/>
<circle cx="421.3" cy="429.7" r="3.2" fill="#ff922b" opacity="0.85"/>
<circle cx="428.7" cy="430.2" r="3.2" fill="#ff922b" opacity="0.85"/>
<circle cx="436.0" cy="430.2" r="3.2" fill="#ff922b" opacity="0.85"/>
<circle cx="443.3" cy="429.7" r="3.2" fill="#ff922b" opacity="0.85"/>
<circle cx="450.7" cy="428.4" r="3.2" fill="#ff922b" opacity="0.85"/>
<circle cx="458.0" cy="430.2" r="3.2" fill="#ff922b" opacity="0.85"/>
<circle cx="465.4" cy="428.3" r="3.2" fill="#ff922b" opacity="0.85"/>
<circle cx="472.7" cy="429.8" r="3.2" fill="#ff922b" opacity="0.85"/>
<circle cx="480.0" cy="430.2" r="3.2" fill="#ff922b" opacity="0.85"/>
<circle cx="487.4" cy="430.2" r="3.2" fill="#ff922b" opacity="0.85"/>
<circle cx="494.7" cy="429.8" r="3.2" fill="#ff922b" opacity="0.85"/>
<circle cx="502.1" cy="430.6" r="3.2" fill="#ff922b" opacity="0.85"/>
<circle cx="509.4" cy="429.4" r="3.2" fill="#ff922b" opacity="0.85"/>
<circle cx="516.7" cy="429.4" r="3.2" fill="#ff922b" opacity="0.85"/>
<circle cx="524.1" cy="429.0" r="3.2" fill="#ff922b" opacity="0.85"/>
<circle cx="531.4" cy="429.4" r="3.2" fill="#ff922b" opacity="0.85"/>
<circle cx="538.8" cy="430.5" r="3.2" fill="#ff922b" opacity="0.85"/>
<circle cx="546.1" cy="429.8" r="3.2" fill="#ff922b" opacity="0.85"/>
<circle cx="553.4" cy="429.3" r="3.2" fill="#ff922b" opacity="0.85"/>
<circle cx="560.8" cy="429.0" r="3.2" fill="#ff922b" opacity="0.85"/>
<circle cx="568.1" cy="431.8" r="3.2" fill="#ff922b" opacity="0.85"/>
<circle cx="575.5" cy="430.2" r="3.2" fill="#ff922b" opacity="0.85"/>
<circle cx="582.8" cy="430.2" r="3.2" fill="#ff922b" opacity="0.85"/>
<circle cx="590.1" cy="430.6" r="3.2" fill="#ff922b" opacity="0.85"/>
<circle cx="597.5" cy="430.6" r="3.2" fill="#ff922b" opacity="0.85"/>
<circle cx="604.8" cy="429.8" r="3.2" fill="#ff922b" opacity="0.85"/>
<circle cx="612.2" cy="431.9" r="3.2" fill="#ff922b" opacity="0.85"/>
<circle cx="619.5" cy="429.4" r="3.2" fill="#ff922b" opacity="0.85"/>
<circle cx="626.8" cy="430.5" r="3.2" fill="#ff922b" opacity="0.85"/>
<circle cx="634.2" cy="431.1" r="3.2" fill="#ff922b" opacity="0.85"/>
<circle cx="641.5" cy="426.4" r="3.2" fill="#ff922b" opacity="0.85"/>
<circle cx="648.9" cy="430.4" r="3.2" fill="#ff922b" opacity="0.85"/>
<circle cx="656.2" cy="429.0" r="3.2" fill="#ff922b" opacity="0.85"/>
<circle cx="663.5" cy="430.6" r="3.2" fill="#ff922b" opacity="0.85"/>
<circle cx="670.9" cy="429.4" r="3.2" fill="#ff922b" opacity="0.85"/>
<circle cx="678.2" cy="429.0" r="3.2" fill="#ff922b" opacity="0.85"/>
<circle cx="685.6" cy="429.4" r="3.2" fill="#ff922b" opacity="0.85"/>
<circle cx="692.9" cy="430.8" r="3.2" fill="#ff922b" opacity="0.85"/>
<circle cx="700.2" cy="429.1" r="3.2" fill="#ff922b" opacity="0.85"/>
<circle cx="707.6" cy="429.1" r="3.2" fill="#ff922b" opacity="0.85"/>
<circle cx="714.9" cy="428.2" r="3.2" fill="#ff922b" opacity="0.85"/>
<circle cx="722.3" cy="429.1" r="3.2" fill="#ff922b" opacity="0.85"/>
<circle cx="729.6" cy="429.7" r="3.2" fill="#ff922b" opacity="0.85"/>
<circle cx="736.9" cy="430.7" r="3.2" fill="#ff922b" opacity="0.85"/>
<circle cx="744.3" cy="430.3" r="3.2" fill="#ff922b" opacity="0.85"/>
<circle cx="751.6" cy="430.7" r="3.2" fill="#ff922b" opacity="0.85"/>
<circle cx="759.0" cy="428.2" r="3.2" fill="#ff922b" opacity="0.85"/>
<circle cx="766.3" cy="430.3" r="3.2" fill="#ff922b" opacity="0.85"/>
<circle cx="773.7" cy="428.8" r="3.2" fill="#ff922b" opacity="0.85"/>
<circle cx="781.0" cy="429.1" r="3.2" fill="#ff922b" opacity="0.85"/>
<circle cx="847" cy="84" r="5" fill="#ff922b"/>
<text x="866" y="88" font-size="13" fill="#c9d1d9" font-weight="700">Kāra</text>
<line x1="836" y1="108" x2="858" y2="108" stroke="#a7b0bc" stroke-width="2" stroke-dasharray="5 4"/>
<text x="866" y="112" font-size="13" fill="#c9d1d9" font-weight="400">Rust = 1.0×</text>
<circle cx="847" cy="132" r="4" fill="#3fb950"/>
<text x="866" y="136" font-size="13" fill="#c9d1d9" font-weight="400">C</text>
<circle cx="847" cy="156" r="4" fill="#bc8cff"/>
<text x="866" y="160" font-size="13" fill="#c9d1d9" font-weight="400">Go</text>
<text x="70" y="538" font-size="11.5" fill="#8b949e">Each dot is one benchmarked program (kata × approach); there is no connecting line because left-to-right order is not meaningful. Raw numbers: bench-results.json</text>
</svg>