<svg xmlns="http://www.w3.org/2000/svg" width="980" height="560" viewBox="0 0 980 560" font-family="-apple-system,Segoe UI,Helvetica,Arial,sans-serif">
<rect width="980" height="560" fill="#282c34"/>
<text x="70" y="34" font-size="21" font-weight="700" fill="#c9d1d9">Runtime peak memory — sequential lane</text>
<text x="70" y="56" font-size="13" fill="#8b949e">relative to Rust = 1.0 · lower = leaner · 39 programs</text>
<line x1="70" y1="456.0" x2="812" y2="456.0" stroke="#3b414b" stroke-width="1"/>
<text x="60" y="460.0" font-size="12" text-anchor="end" fill="#8b949e">0.0×</text>
<line x1="70" y1="418.2" x2="812" y2="418.2" stroke="#a7b0bc" stroke-width="2" stroke-dasharray="5 4"/>
<text x="60" y="422.2" font-size="12" text-anchor="end" fill="#aeb6c0" font-weight="700">1.0×</text>
<line x1="70" y1="380.4" x2="812" y2="380.4" stroke="#3b414b" stroke-width="1"/>
<text x="60" y="384.4" font-size="12" text-anchor="end" fill="#8b949e">2.0×</text>
<line x1="70" y1="304.8" x2="812" y2="304.8" stroke="#3b414b" stroke-width="1"/>
<text x="60" y="308.8" font-size="12" text-anchor="end" fill="#8b949e">4.0×</text>
<line x1="70" y1="229.2" x2="812" y2="229.2" stroke="#3b414b" stroke-width="1"/>
<text x="60" y="233.2" font-size="12" text-anchor="end" fill="#8b949e">6.0×</text>
<line x1="70" y1="153.6" x2="812" y2="153.6" stroke="#3b414b" stroke-width="1"/>
<text x="60" y="157.6" font-size="12" text-anchor="end" fill="#8b949e">8.0×</text>
<line x1="70" y1="78.0" x2="812" y2="78.0" stroke="#3b414b" stroke-width="1"/>
<text x="60" y="82.0" font-size="12" text-anchor="end" fill="#8b949e">10.0×</text>
<text x="812" y="412.2" font-size="11" text-anchor="end" fill="#aeb6c0">Rust baseline</text>
<line x1="70" y1="456" x2="812" y2="456" stroke="#3b414b"/>
<text x="441.0" y="478" font-size="11" text-anchor="middle" fill="#8b949e">39 programs (kata × approach) — x-order carries no meaning</text>
<circle cx="99.7" cy="420.3" r="2.6" fill="#3fb950" opacity="0.7"/>
<circle cx="117.6" cy="418.2" r="2.6" fill="#3fb950" opacity="0.7"/>
<circle cx="135.6" cy="419.8" r="2.6" fill="#3fb950" opacity="0.7"/>
<circle cx="153.6" cy="420.1" r="2.6" fill="#3fb950" opacity="0.7"/>
<circle cx="171.5" cy="418.3" r="2.6" fill="#3fb950" opacity="0.7"/>
<circle cx="189.5" cy="420.9" r="2.6" fill="#3fb950" opacity="0.7"/>
<circle cx="207.5" cy="423.8" r="2.6" fill="#3fb950" opacity="0.7"/>
<circle cx="225.4" cy="419.3" r="2.6" fill="#3fb950" opacity="0.7"/>
<circle cx="243.4" cy="420.3" r="2.6" fill="#3fb950" opacity="0.7"/>
<circle cx="261.4" cy="419.3" r="2.6" fill="#3fb950" opacity="0.7"/>
<circle cx="279.3" cy="419.3" r="2.6" fill="#3fb950" opacity="0.7"/>
<circle cx="297.3" cy="420.3" r="2.6" fill="#3fb950" opacity="0.7"/>
<circle cx="315.3" cy="418.8" r="2.6" fill="#3fb950" opacity="0.7"/>
<circle cx="333.2" cy="419.9" r="2.6" fill="#3fb950" opacity="0.7"/>
<circle cx="351.2" cy="418.7" r="2.6" fill="#3fb950" opacity="0.7"/>
<circle cx="369.1" cy="417.7" r="2.6" fill="#3fb950" opacity="0.7"/>
<circle cx="387.1" cy="418.8" r="2.6" fill="#3fb950" opacity="0.7"/>
<circle cx="405.1" cy="416.7" r="2.6" fill="#3fb950" opacity="0.7"/>
<circle cx="423.0" cy="417.7" r="2.6" fill="#3fb950" opacity="0.7"/>
<circle cx="441.0" cy="419.8" r="2.6" fill="#3fb950" opacity="0.7"/>
<circle cx="459.0" cy="417.7" r="2.6" fill="#3fb950" opacity="0.7"/>
<circle cx="476.9" cy="418.7" r="2.6" fill="#3fb950" opacity="0.7"/>
<circle cx="494.9" cy="426.4" r="2.6" fill="#3fb950" opacity="0.7"/>
<circle cx="512.9" cy="419.7" r="2.6" fill="#3fb950" opacity="0.7"/>
<circle cx="530.8" cy="419.8" r="2.6" fill="#3fb950" opacity="0.7"/>
<circle cx="548.8" cy="419.8" r="2.6" fill="#3fb950" opacity="0.7"/>
<circle cx="566.7" cy="420.4" r="2.6" fill="#3fb950" opacity="0.7"/>
<circle cx="584.7" cy="427.8" r="2.6" fill="#3fb950" opacity="0.7"/>
<circle cx="602.7" cy="418.2" r="2.6" fill="#3fb950" opacity="0.7"/>
<circle cx="620.6" cy="419.3" r="2.6" fill="#3fb950" opacity="0.7"/>
<circle cx="638.6" cy="418.2" r="2.6" fill="#3fb950" opacity="0.7"/>
<circle cx="656.6" cy="424.5" r="2.6" fill="#3fb950" opacity="0.7"/>
<circle cx="674.5" cy="418.2" r="2.6" fill="#3fb950" opacity="0.7"/>
<circle cx="692.5" cy="418.3" r="2.6" fill="#3fb950" opacity="0.7"/>
<circle cx="710.5" cy="427.8" r="2.6" fill="#3fb950" opacity="0.7"/>
<circle cx="728.4" cy="418.7" r="2.6" fill="#3fb950" opacity="0.7"/>
<circle cx="746.4" cy="420.6" r="2.6" fill="#3fb950" opacity="0.7"/>
<circle cx="764.4" cy="436.1" r="2.6" fill="#3fb950" opacity="0.7"/>
<circle cx="782.3" cy="404.2" r="2.6" fill="#3fb950" opacity="0.7"/>
<circle cx="102.3" cy="360.2" r="2.6" fill="#bc8cff" opacity="0.7"/>
<circle cx="120.3" cy="332.5" r="2.6" fill="#bc8cff" opacity="0.7"/>
<circle cx="138.2" cy="125.0" r="2.6" fill="#bc8cff" opacity="0.7"/>
<circle cx="156.2" cy="365.3" r="2.6" fill="#bc8cff" opacity="0.7"/>
<circle cx="174.2" cy="412.2" r="2.6" fill="#bc8cff" opacity="0.7"/>
<circle cx="192.1" cy="351.2" r="2.6" fill="#bc8cff" opacity="0.7"/>
<circle cx="210.1" cy="191.4" r="2.6" fill="#bc8cff" opacity="0.7"/>
<circle cx="228.1" cy="350.7" r="2.6" fill="#bc8cff" opacity="0.7"/>
<circle cx="246.0" cy="357.0" r="2.6" fill="#bc8cff" opacity="0.7"/>
<circle cx="264.0" cy="353.4" r="2.6" fill="#bc8cff" opacity="0.7"/>
<circle cx="282.0" cy="357.7" r="2.6" fill="#bc8cff" opacity="0.7"/>
<circle cx="299.9" cy="359.1" r="2.6" fill="#bc8cff" opacity="0.7"/>
<circle cx="317.9" cy="99.2" r="2.6" fill="#bc8cff" opacity="0.7"/>
<circle cx="335.8" cy="115.9" r="2.6" fill="#bc8cff" opacity="0.7"/>
<circle cx="353.8" cy="170.6" r="2.6" fill="#bc8cff" opacity="0.7"/>
<circle cx="371.8" cy="141.7" r="2.6" fill="#bc8cff" opacity="0.7"/>
<circle cx="389.7" cy="135.3" r="2.6" fill="#bc8cff" opacity="0.7"/>
<circle cx="407.7" cy="158.5" r="2.6" fill="#bc8cff" opacity="0.7"/>
<circle cx="425.7" cy="155.6" r="2.6" fill="#bc8cff" opacity="0.7"/>
<circle cx="443.6" cy="126.1" r="2.6" fill="#bc8cff" opacity="0.7"/>
<circle cx="461.6" cy="134.5" r="2.6" fill="#bc8cff" opacity="0.7"/>
<circle cx="479.6" cy="132.6" r="2.6" fill="#bc8cff" opacity="0.7"/>
<circle cx="497.5" cy="310.6" r="2.6" fill="#bc8cff" opacity="0.7"/>
<circle cx="515.5" cy="155.6" r="2.6" fill="#bc8cff" opacity="0.7"/>
<circle cx="533.5" cy="117.0" r="2.6" fill="#bc8cff" opacity="0.7"/>
<circle cx="551.4" cy="115.9" r="2.6" fill="#bc8cff" opacity="0.7"/>
<circle cx="569.4" cy="357.6" r="2.6" fill="#bc8cff" opacity="0.7"/>
<circle cx="587.3" cy="220.5" r="2.6" fill="#bc8cff" opacity="0.7"/>
<circle cx="605.3" cy="414.8" r="2.6" fill="#bc8cff" opacity="0.7"/>
<circle cx="623.3" cy="352.8" r="2.6" fill="#bc8cff" opacity="0.7"/>
<circle cx="641.2" cy="412.3" r="2.6" fill="#bc8cff" opacity="0.7"/>
<circle cx="659.2" cy="454.1" r="2.6" fill="#bc8cff" opacity="0.7"/>
<circle cx="677.2" cy="412.2" r="2.6" fill="#bc8cff" opacity="0.7"/>
<circle cx="695.1" cy="412.2" r="2.6" fill="#bc8cff" opacity="0.7"/>
<circle cx="713.1" cy="359.6" r="2.6" fill="#bc8cff" opacity="0.7"/>
<circle cx="731.1" cy="351.3" r="2.6" fill="#bc8cff" opacity="0.7"/>
<circle cx="749.0" cy="362.2" r="2.6" fill="#bc8cff" opacity="0.7"/>
<circle cx="767.0" cy="371.3" r="2.6" fill="#bc8cff" opacity="0.7"/>
<circle cx="785.0" cy="390.1" r="2.6" fill="#bc8cff" opacity="0.7"/>
<circle cx="97.0" cy="420.8" r="3.2" fill="#ff922b" opacity="0.85"/>
<circle cx="115.0" cy="420.4" r="3.2" fill="#ff922b" opacity="0.85"/>
<circle cx="133.0" cy="418.7" r="3.2" fill="#ff922b" opacity="0.85"/>
<circle cx="150.9" cy="414.4" r="3.2" fill="#ff922b" opacity="0.85"/>
<circle cx="168.9" cy="418.3" r="3.2" fill="#ff922b" opacity="0.85"/>
<circle cx="186.9" cy="415.0" r="3.2" fill="#ff922b" opacity="0.85"/>
<circle cx="204.8" cy="419.0" r="3.2" fill="#ff922b" opacity="0.85"/>
<circle cx="222.8" cy="419.3" r="3.2" fill="#ff922b" opacity="0.85"/>
<circle cx="240.8" cy="420.3" r="3.2" fill="#ff922b" opacity="0.85"/>
<circle cx="258.7" cy="419.8" r="3.2" fill="#ff922b" opacity="0.85"/>
<circle cx="276.7" cy="419.3" r="3.2" fill="#ff922b" opacity="0.85"/>
<circle cx="294.7" cy="420.3" r="3.2" fill="#ff922b" opacity="0.85"/>
<circle cx="312.6" cy="419.9" r="3.2" fill="#ff922b" opacity="0.85"/>
<circle cx="330.6" cy="419.3" r="3.2" fill="#ff922b" opacity="0.85"/>
<circle cx="348.5" cy="417.7" r="3.2" fill="#ff922b" opacity="0.85"/>
<circle cx="366.5" cy="417.7" r="3.2" fill="#ff922b" opacity="0.85"/>
<circle cx="384.5" cy="418.2" r="3.2" fill="#ff922b" opacity="0.85"/>
<circle cx="402.4" cy="416.7" r="3.2" fill="#ff922b" opacity="0.85"/>
<circle cx="420.4" cy="418.2" r="3.2" fill="#ff922b" opacity="0.85"/>
<circle cx="438.4" cy="418.7" r="3.2" fill="#ff922b" opacity="0.85"/>
<circle cx="456.3" cy="412.3" r="3.2" fill="#ff922b" opacity="0.85"/>
<circle cx="474.3" cy="418.7" r="3.2" fill="#ff922b" opacity="0.85"/>
<circle cx="492.3" cy="412.1" r="3.2" fill="#ff922b" opacity="0.85"/>
<circle cx="510.2" cy="418.2" r="3.2" fill="#ff922b" opacity="0.85"/>
<circle cx="528.2" cy="419.8" r="3.2" fill="#ff922b" opacity="0.85"/>
<circle cx="546.2" cy="417.7" r="3.2" fill="#ff922b" opacity="0.85"/>
<circle cx="564.1" cy="419.9" r="3.2" fill="#ff922b" opacity="0.85"/>
<circle cx="582.1" cy="421.7" r="3.2" fill="#ff922b" opacity="0.85"/>
<circle cx="600.0" cy="418.2" r="3.2" fill="#ff922b" opacity="0.85"/>
<circle cx="618.0" cy="419.3" r="3.2" fill="#ff922b" opacity="0.85"/>
<circle cx="636.0" cy="418.2" r="3.2" fill="#ff922b" opacity="0.85"/>
<circle cx="653.9" cy="421.3" r="3.2" fill="#ff922b" opacity="0.85"/>
<circle cx="671.9" cy="418.2" r="3.2" fill="#ff922b" opacity="0.85"/>
<circle cx="689.9" cy="418.2" r="3.2" fill="#ff922b" opacity="0.85"/>
<circle cx="707.8" cy="391.1" r="3.2" fill="#ff922b" opacity="0.85"/>
<circle cx="725.8" cy="419.2" r="3.2" fill="#ff922b" opacity="0.85"/>
<circle cx="743.8" cy="420.6" r="3.2" fill="#ff922b" opacity="0.85"/>
<circle cx="761.7" cy="415.7" r="3.2" fill="#ff922b" opacity="0.85"/>
<circle cx="779.7" cy="418.3" r="3.2" fill="#ff922b" opacity="0.85"/>
<circle cx="847" cy="84" r="5" fill="#ff922b"/>
<text x="866" y="88" font-size="13" fill="#c9d1d9" font-weight="700">Kāra</text>
<line x1="836" y1="108" x2="858" y2="108" stroke="#a7b0bc" stroke-width="2" stroke-dasharray="5 4"/>
<text x="866" y="112" font-size="13" fill="#c9d1d9" font-weight="400">Rust = 1.0×</text>
<circle cx="847" cy="132" r="4" fill="#3fb950"/>
<text x="866" y="136" font-size="13" fill="#c9d1d9" font-weight="400">C</text>
<circle cx="847" cy="156" r="4" fill="#bc8cff"/>
<text x="866" y="160" font-size="13" fill="#c9d1d9" font-weight="400">Go</text>
<text x="70" y="538" font-size="11.5" fill="#8b949e">Each dot is one benchmarked program (kata × approach); there is no connecting line because left-to-right order is not meaningful. Raw numbers: bench-results.json</text>
</svg>