<svg xmlns="http://www.w3.org/2000/svg" width="980" height="560" viewBox="0 0 980 560" font-family="-apple-system,Segoe UI,Helvetica,Arial,sans-serif">
<rect width="980" height="560" fill="#282c34"/>
<text x="70" y="34" font-size="21" font-weight="700" fill="#c9d1d9">Runtime peak memory — sequential lane</text>
<text x="70" y="56" font-size="13" fill="#8b949e">relative to Rust = 1.0 · lower = leaner · 45 programs</text>
<line x1="70" y1="456.0" x2="812" y2="456.0" stroke="#3b414b" stroke-width="1"/>
<text x="60" y="460.0" font-size="12" text-anchor="end" fill="#8b949e">0.0×</text>
<line x1="70" y1="418.2" x2="812" y2="418.2" stroke="#a7b0bc" stroke-width="2" stroke-dasharray="5 4"/>
<text x="60" y="422.2" font-size="12" text-anchor="end" fill="#aeb6c0" font-weight="700">1.0×</text>
<line x1="70" y1="380.4" x2="812" y2="380.4" stroke="#3b414b" stroke-width="1"/>
<text x="60" y="384.4" font-size="12" text-anchor="end" fill="#8b949e">2.0×</text>
<line x1="70" y1="304.8" x2="812" y2="304.8" stroke="#3b414b" stroke-width="1"/>
<text x="60" y="308.8" font-size="12" text-anchor="end" fill="#8b949e">4.0×</text>
<line x1="70" y1="229.2" x2="812" y2="229.2" stroke="#3b414b" stroke-width="1"/>
<text x="60" y="233.2" font-size="12" text-anchor="end" fill="#8b949e">6.0×</text>
<line x1="70" y1="153.6" x2="812" y2="153.6" stroke="#3b414b" stroke-width="1"/>
<text x="60" y="157.6" font-size="12" text-anchor="end" fill="#8b949e">8.0×</text>
<line x1="70" y1="78.0" x2="812" y2="78.0" stroke="#3b414b" stroke-width="1"/>
<text x="60" y="82.0" font-size="12" text-anchor="end" fill="#8b949e">10.0×</text>
<text x="812" y="412.2" font-size="11" text-anchor="end" fill="#aeb6c0">Rust baseline</text>
<line x1="70" y1="456" x2="812" y2="456" stroke="#3b414b"/>
<text x="441.0" y="478" font-size="11" text-anchor="middle" fill="#8b949e">45 programs (kata × approach) — x-order carries no meaning</text>
<circle cx="99.7" cy="420.3" r="2.6" fill="#3fb950" opacity="0.7"/>
<circle cx="115.2" cy="418.2" r="2.6" fill="#3fb950" opacity="0.7"/>
<circle cx="130.7" cy="419.8" r="2.6" fill="#3fb950" opacity="0.7"/>
<circle cx="146.2" cy="420.1" r="2.6" fill="#3fb950" opacity="0.7"/>
<circle cx="161.7" cy="418.3" r="2.6" fill="#3fb950" opacity="0.7"/>
<circle cx="177.3" cy="420.9" r="2.6" fill="#3fb950" opacity="0.7"/>
<circle cx="192.8" cy="423.8" r="2.6" fill="#3fb950" opacity="0.7"/>
<circle cx="208.3" cy="419.3" r="2.6" fill="#3fb950" opacity="0.7"/>
<circle cx="223.8" cy="420.3" r="2.6" fill="#3fb950" opacity="0.7"/>
<circle cx="239.3" cy="419.3" r="2.6" fill="#3fb950" opacity="0.7"/>
<circle cx="254.8" cy="419.3" r="2.6" fill="#3fb950" opacity="0.7"/>
<circle cx="270.3" cy="420.3" r="2.6" fill="#3fb950" opacity="0.7"/>
<circle cx="285.9" cy="418.8" r="2.6" fill="#3fb950" opacity="0.7"/>
<circle cx="301.4" cy="419.9" r="2.6" fill="#3fb950" opacity="0.7"/>
<circle cx="316.9" cy="418.7" r="2.6" fill="#3fb950" opacity="0.7"/>
<circle cx="332.4" cy="417.7" r="2.6" fill="#3fb950" opacity="0.7"/>
<circle cx="347.9" cy="418.8" r="2.6" fill="#3fb950" opacity="0.7"/>
<circle cx="363.4" cy="416.7" r="2.6" fill="#3fb950" opacity="0.7"/>
<circle cx="378.9" cy="417.7" r="2.6" fill="#3fb950" opacity="0.7"/>
<circle cx="394.5" cy="419.8" r="2.6" fill="#3fb950" opacity="0.7"/>
<circle cx="410.0" cy="417.7" r="2.6" fill="#3fb950" opacity="0.7"/>
<circle cx="425.5" cy="418.7" r="2.6" fill="#3fb950" opacity="0.7"/>
<circle cx="441.0" cy="426.4" r="2.6" fill="#3fb950" opacity="0.7"/>
<circle cx="456.5" cy="419.7" r="2.6" fill="#3fb950" opacity="0.7"/>
<circle cx="472.0" cy="419.8" r="2.6" fill="#3fb950" opacity="0.7"/>
<circle cx="487.5" cy="418.8" r="2.6" fill="#3fb950" opacity="0.7"/>
<circle cx="503.1" cy="418.2" r="2.6" fill="#3fb950" opacity="0.7"/>
<circle cx="518.6" cy="418.2" r="2.6" fill="#3fb950" opacity="0.7"/>
<circle cx="534.1" cy="419.0" r="2.6" fill="#3fb950" opacity="0.7"/>
<circle cx="549.6" cy="418.8" r="2.6" fill="#3fb950" opacity="0.7"/>
<circle cx="565.1" cy="420.5" r="2.6" fill="#3fb950" opacity="0.7"/>
<circle cx="580.6" cy="419.8" r="2.6" fill="#3fb950" opacity="0.7"/>
<circle cx="596.1" cy="420.4" r="2.6" fill="#3fb950" opacity="0.7"/>
<circle cx="611.7" cy="427.8" r="2.6" fill="#3fb950" opacity="0.7"/>
<circle cx="627.2" cy="418.2" r="2.6" fill="#3fb950" opacity="0.7"/>
<circle cx="642.7" cy="419.3" r="2.6" fill="#3fb950" opacity="0.7"/>
<circle cx="658.2" cy="418.2" r="2.6" fill="#3fb950" opacity="0.7"/>
<circle cx="673.7" cy="424.5" r="2.6" fill="#3fb950" opacity="0.7"/>
<circle cx="689.2" cy="418.2" r="2.6" fill="#3fb950" opacity="0.7"/>
<circle cx="704.7" cy="418.3" r="2.6" fill="#3fb950" opacity="0.7"/>
<circle cx="720.3" cy="427.8" r="2.6" fill="#3fb950" opacity="0.7"/>
<circle cx="735.8" cy="418.7" r="2.6" fill="#3fb950" opacity="0.7"/>
<circle cx="751.3" cy="420.6" r="2.6" fill="#3fb950" opacity="0.7"/>
<circle cx="766.8" cy="436.1" r="2.6" fill="#3fb950" opacity="0.7"/>
<circle cx="782.3" cy="404.2" r="2.6" fill="#3fb950" opacity="0.7"/>
<circle cx="102.3" cy="360.2" r="2.6" fill="#bc8cff" opacity="0.7"/>
<circle cx="117.8" cy="332.5" r="2.6" fill="#bc8cff" opacity="0.7"/>
<circle cx="133.3" cy="125.0" r="2.6" fill="#bc8cff" opacity="0.7"/>
<circle cx="148.9" cy="365.3" r="2.6" fill="#bc8cff" opacity="0.7"/>
<circle cx="164.4" cy="412.2" r="2.6" fill="#bc8cff" opacity="0.7"/>
<circle cx="179.9" cy="351.2" r="2.6" fill="#bc8cff" opacity="0.7"/>
<circle cx="195.4" cy="191.4" r="2.6" fill="#bc8cff" opacity="0.7"/>
<circle cx="210.9" cy="350.7" r="2.6" fill="#bc8cff" opacity="0.7"/>
<circle cx="226.4" cy="357.0" r="2.6" fill="#bc8cff" opacity="0.7"/>
<circle cx="241.9" cy="353.4" r="2.6" fill="#bc8cff" opacity="0.7"/>
<circle cx="257.5" cy="357.7" r="2.6" fill="#bc8cff" opacity="0.7"/>
<circle cx="273.0" cy="359.1" r="2.6" fill="#bc8cff" opacity="0.7"/>
<circle cx="288.5" cy="99.2" r="2.6" fill="#bc8cff" opacity="0.7"/>
<circle cx="304.0" cy="115.9" r="2.6" fill="#bc8cff" opacity="0.7"/>
<circle cx="319.5" cy="170.6" r="2.6" fill="#bc8cff" opacity="0.7"/>
<circle cx="335.0" cy="141.7" r="2.6" fill="#bc8cff" opacity="0.7"/>
<circle cx="350.5" cy="135.3" r="2.6" fill="#bc8cff" opacity="0.7"/>
<circle cx="366.1" cy="158.5" r="2.6" fill="#bc8cff" opacity="0.7"/>
<circle cx="381.6" cy="155.6" r="2.6" fill="#bc8cff" opacity="0.7"/>
<circle cx="397.1" cy="126.1" r="2.6" fill="#bc8cff" opacity="0.7"/>
<circle cx="412.6" cy="134.5" r="2.6" fill="#bc8cff" opacity="0.7"/>
<circle cx="428.1" cy="132.6" r="2.6" fill="#bc8cff" opacity="0.7"/>
<circle cx="443.6" cy="310.6" r="2.6" fill="#bc8cff" opacity="0.7"/>
<circle cx="459.1" cy="155.6" r="2.6" fill="#bc8cff" opacity="0.7"/>
<circle cx="474.7" cy="117.0" r="2.6" fill="#bc8cff" opacity="0.7"/>
<circle cx="490.2" cy="126.0" r="2.6" fill="#bc8cff" opacity="0.7"/>
<circle cx="505.7" cy="415.1" r="2.6" fill="#bc8cff" opacity="0.7"/>
<circle cx="521.2" cy="415.0" r="2.6" fill="#bc8cff" opacity="0.7"/>
<circle cx="536.7" cy="396.9" r="2.6" fill="#bc8cff" opacity="0.7"/>
<circle cx="552.2" cy="395.5" r="2.6" fill="#bc8cff" opacity="0.7"/>
<circle cx="567.7" cy="361.2" r="2.6" fill="#bc8cff" opacity="0.7"/>
<circle cx="583.3" cy="115.9" r="2.6" fill="#bc8cff" opacity="0.7"/>
<circle cx="598.8" cy="357.6" r="2.6" fill="#bc8cff" opacity="0.7"/>
<circle cx="614.3" cy="220.5" r="2.6" fill="#bc8cff" opacity="0.7"/>
<circle cx="629.8" cy="414.8" r="2.6" fill="#bc8cff" opacity="0.7"/>
<circle cx="645.3" cy="352.8" r="2.6" fill="#bc8cff" opacity="0.7"/>
<circle cx="660.8" cy="412.3" r="2.6" fill="#bc8cff" opacity="0.7"/>
<circle cx="676.4" cy="454.1" r="2.6" fill="#bc8cff" opacity="0.7"/>
<circle cx="691.9" cy="412.2" r="2.6" fill="#bc8cff" opacity="0.7"/>
<circle cx="707.4" cy="412.2" r="2.6" fill="#bc8cff" opacity="0.7"/>
<circle cx="722.9" cy="359.6" r="2.6" fill="#bc8cff" opacity="0.7"/>
<circle cx="738.4" cy="351.3" r="2.6" fill="#bc8cff" opacity="0.7"/>
<circle cx="753.9" cy="362.2" r="2.6" fill="#bc8cff" opacity="0.7"/>
<circle cx="769.4" cy="371.3" r="2.6" fill="#bc8cff" opacity="0.7"/>
<circle cx="785.0" cy="390.1" r="2.6" fill="#bc8cff" opacity="0.7"/>
<circle cx="97.0" cy="420.8" r="3.2" fill="#ff922b" opacity="0.85"/>
<circle cx="112.6" cy="420.4" r="3.2" fill="#ff922b" opacity="0.85"/>
<circle cx="128.1" cy="418.7" r="3.2" fill="#ff922b" opacity="0.85"/>
<circle cx="143.6" cy="414.4" r="3.2" fill="#ff922b" opacity="0.85"/>
<circle cx="159.1" cy="418.3" r="3.2" fill="#ff922b" opacity="0.85"/>
<circle cx="174.6" cy="415.0" r="3.2" fill="#ff922b" opacity="0.85"/>
<circle cx="190.1" cy="419.0" r="3.2" fill="#ff922b" opacity="0.85"/>
<circle cx="205.6" cy="419.3" r="3.2" fill="#ff922b" opacity="0.85"/>
<circle cx="221.2" cy="420.3" r="3.2" fill="#ff922b" opacity="0.85"/>
<circle cx="236.7" cy="419.8" r="3.2" fill="#ff922b" opacity="0.85"/>
<circle cx="252.2" cy="419.3" r="3.2" fill="#ff922b" opacity="0.85"/>
<circle cx="267.7" cy="420.3" r="3.2" fill="#ff922b" opacity="0.85"/>
<circle cx="283.2" cy="419.9" r="3.2" fill="#ff922b" opacity="0.85"/>
<circle cx="298.7" cy="419.3" r="3.2" fill="#ff922b" opacity="0.85"/>
<circle cx="314.3" cy="417.7" r="3.2" fill="#ff922b" opacity="0.85"/>
<circle cx="329.8" cy="417.7" r="3.2" fill="#ff922b" opacity="0.85"/>
<circle cx="345.3" cy="418.2" r="3.2" fill="#ff922b" opacity="0.85"/>
<circle cx="360.8" cy="416.7" r="3.2" fill="#ff922b" opacity="0.85"/>
<circle cx="376.3" cy="418.2" r="3.2" fill="#ff922b" opacity="0.85"/>
<circle cx="391.8" cy="418.7" r="3.2" fill="#ff922b" opacity="0.85"/>
<circle cx="407.3" cy="412.3" r="3.2" fill="#ff922b" opacity="0.85"/>
<circle cx="422.9" cy="418.7" r="3.2" fill="#ff922b" opacity="0.85"/>
<circle cx="438.4" cy="412.1" r="3.2" fill="#ff922b" opacity="0.85"/>
<circle cx="453.9" cy="418.2" r="3.2" fill="#ff922b" opacity="0.85"/>
<circle cx="469.4" cy="419.8" r="3.2" fill="#ff922b" opacity="0.85"/>
<circle cx="484.9" cy="419.3" r="3.2" fill="#ff922b" opacity="0.85"/>
<circle cx="500.4" cy="418.2" r="3.2" fill="#ff922b" opacity="0.85"/>
<circle cx="515.9" cy="418.2" r="3.2" fill="#ff922b" opacity="0.85"/>
<circle cx="531.5" cy="418.8" r="3.2" fill="#ff922b" opacity="0.85"/>
<circle cx="547.0" cy="419.0" r="3.2" fill="#ff922b" opacity="0.85"/>
<circle cx="562.5" cy="420.5" r="3.2" fill="#ff922b" opacity="0.85"/>
<circle cx="578.0" cy="417.7" r="3.2" fill="#ff922b" opacity="0.85"/>
<circle cx="593.5" cy="419.9" r="3.2" fill="#ff922b" opacity="0.85"/>
<circle cx="609.0" cy="421.7" r="3.2" fill="#ff922b" opacity="0.85"/>
<circle cx="624.5" cy="418.2" r="3.2" fill="#ff922b" opacity="0.85"/>
<circle cx="640.1" cy="419.3" r="3.2" fill="#ff922b" opacity="0.85"/>
<circle cx="655.6" cy="418.2" r="3.2" fill="#ff922b" opacity="0.85"/>
<circle cx="671.1" cy="421.3" r="3.2" fill="#ff922b" opacity="0.85"/>
<circle cx="686.6" cy="418.2" r="3.2" fill="#ff922b" opacity="0.85"/>
<circle cx="702.1" cy="418.2" r="3.2" fill="#ff922b" opacity="0.85"/>
<circle cx="717.6" cy="391.1" r="3.2" fill="#ff922b" opacity="0.85"/>
<circle cx="733.1" cy="419.2" r="3.2" fill="#ff922b" opacity="0.85"/>
<circle cx="748.7" cy="420.6" r="3.2" fill="#ff922b" opacity="0.85"/>
<circle cx="764.2" cy="415.7" r="3.2" fill="#ff922b" opacity="0.85"/>
<circle cx="779.7" cy="418.3" r="3.2" fill="#ff922b" opacity="0.85"/>
<circle cx="847" cy="84" r="5" fill="#ff922b"/>
<text x="866" y="88" font-size="13" fill="#c9d1d9" font-weight="700">Kāra</text>
<line x1="836" y1="108" x2="858" y2="108" stroke="#a7b0bc" stroke-width="2" stroke-dasharray="5 4"/>
<text x="866" y="112" font-size="13" fill="#c9d1d9" font-weight="400">Rust = 1.0×</text>
<circle cx="847" cy="132" r="4" fill="#3fb950"/>
<text x="866" y="136" font-size="13" fill="#c9d1d9" font-weight="400">C</text>
<circle cx="847" cy="156" r="4" fill="#bc8cff"/>
<text x="866" y="160" font-size="13" fill="#c9d1d9" font-weight="400">Go</text>
<text x="70" y="538" font-size="11.5" fill="#8b949e">Each dot is one benchmarked program (kata × approach); there is no connecting line because left-to-right order is not meaningful. Raw numbers: bench-results.json</text>
</svg>