<svg xmlns="http://www.w3.org/2000/svg" width="980" height="560" viewBox="0 0 980 560" font-family="-apple-system,Segoe UI,Helvetica,Arial,sans-serif">
<rect width="980" height="560" fill="#282c34"/>
<text x="70" y="34" font-size="21" font-weight="700" fill="#c9d1d9">Runtime peak memory — sequential lane</text>
<text x="70" y="56" font-size="13" fill="#8b949e">relative to Rust = 1.0 · lower = leaner · 96 programs</text>
<line x1="70" y1="456.0" x2="812" y2="456.0" stroke="#3b414b" stroke-width="1"/>
<text x="60" y="460.0" font-size="12" text-anchor="end" fill="#8b949e">0.0×</text>
<line x1="70" y1="429.0" x2="812" y2="429.0" stroke="#a7b0bc" stroke-width="2" stroke-dasharray="5 4"/>
<text x="60" y="433.0" font-size="12" text-anchor="end" fill="#aeb6c0" font-weight="700">1.0×</text>
<line x1="70" y1="380.4" x2="812" y2="380.4" stroke="#3b414b" stroke-width="1"/>
<text x="60" y="384.4" font-size="12" text-anchor="end" fill="#8b949e">2.8×</text>
<line x1="70" y1="304.8" x2="812" y2="304.8" stroke="#3b414b" stroke-width="1"/>
<text x="60" y="308.8" font-size="12" text-anchor="end" fill="#8b949e">5.6×</text>
<line x1="70" y1="229.2" x2="812" y2="229.2" stroke="#3b414b" stroke-width="1"/>
<text x="60" y="233.2" font-size="12" text-anchor="end" fill="#8b949e">8.4×</text>
<line x1="70" y1="153.6" x2="812" y2="153.6" stroke="#3b414b" stroke-width="1"/>
<text x="60" y="157.6" font-size="12" text-anchor="end" fill="#8b949e">11.2×</text>
<line x1="70" y1="78.0" x2="812" y2="78.0" stroke="#3b414b" stroke-width="1"/>
<text x="60" y="82.0" font-size="12" text-anchor="end" fill="#8b949e">14.0×</text>
<text x="812" y="423.0" font-size="11" text-anchor="end" fill="#aeb6c0">Rust baseline</text>
<line x1="70" y1="456" x2="812" y2="456" stroke="#3b414b"/>
<text x="441.0" y="478" font-size="11" text-anchor="middle" fill="#8b949e">96 programs (kata × approach) — x-order carries no meaning</text>
<circle cx="99.7" cy="430.2" r="2.6" fill="#3fb950" opacity="0.7"/>
<circle cx="106.9" cy="429.0" r="2.6" fill="#3fb950" opacity="0.7"/>
<circle cx="114.1" cy="430.1" r="2.6" fill="#3fb950" opacity="0.7"/>
<circle cx="121.2" cy="431.1" r="2.6" fill="#3fb950" opacity="0.7"/>
<circle cx="128.4" cy="429.1" r="2.6" fill="#3fb950" opacity="0.7"/>
<circle cx="135.6" cy="431.2" r="2.6" fill="#3fb950" opacity="0.7"/>
<circle cx="142.8" cy="432.7" r="2.6" fill="#3fb950" opacity="0.7"/>
<circle cx="150.0" cy="430.6" r="2.6" fill="#3fb950" opacity="0.7"/>
<circle cx="157.2" cy="431.0" r="2.6" fill="#3fb950" opacity="0.7"/>
<circle cx="164.4" cy="430.2" r="2.6" fill="#3fb950" opacity="0.7"/>
<circle cx="171.5" cy="430.6" r="2.6" fill="#3fb950" opacity="0.7"/>
<circle cx="178.7" cy="430.2" r="2.6" fill="#3fb950" opacity="0.7"/>
<circle cx="185.9" cy="430.2" r="2.6" fill="#3fb950" opacity="0.7"/>
<circle cx="193.1" cy="429.4" r="2.6" fill="#3fb950" opacity="0.7"/>
<circle cx="200.3" cy="430.1" r="2.6" fill="#3fb950" opacity="0.7"/>
<circle cx="207.5" cy="430.4" r="2.6" fill="#3fb950" opacity="0.7"/>
<circle cx="214.7" cy="429.8" r="2.6" fill="#3fb950" opacity="0.7"/>
<circle cx="221.8" cy="429.0" r="2.6" fill="#3fb950" opacity="0.7"/>
<circle cx="229.0" cy="429.0" r="2.6" fill="#3fb950" opacity="0.7"/>
<circle cx="236.2" cy="431.6" r="2.6" fill="#3fb950" opacity="0.7"/>
<circle cx="243.4" cy="425.7" r="2.6" fill="#3fb950" opacity="0.7"/>
<circle cx="250.6" cy="429.7" r="2.6" fill="#3fb950" opacity="0.7"/>
<circle cx="257.8" cy="435.0" r="2.6" fill="#3fb950" opacity="0.7"/>
<circle cx="265.0" cy="430.7" r="2.6" fill="#3fb950" opacity="0.7"/>
<circle cx="272.1" cy="429.8" r="2.6" fill="#3fb950" opacity="0.7"/>
<circle cx="279.3" cy="430.5" r="2.6" fill="#3fb950" opacity="0.7"/>
<circle cx="286.5" cy="429.0" r="2.6" fill="#3fb950" opacity="0.7"/>
<circle cx="293.7" cy="429.0" r="2.6" fill="#3fb950" opacity="0.7"/>
<circle cx="300.9" cy="429.3" r="2.6" fill="#3fb950" opacity="0.7"/>
<circle cx="308.1" cy="429.3" r="2.6" fill="#3fb950" opacity="0.7"/>
<circle cx="315.3" cy="430.6" r="2.6" fill="#3fb950" opacity="0.7"/>
<circle cx="322.4" cy="433.1" r="2.6" fill="#3fb950" opacity="0.7"/>
<circle cx="329.6" cy="431.0" r="2.6" fill="#3fb950" opacity="0.7"/>
<circle cx="336.8" cy="430.9" r="2.6" fill="#3fb950" opacity="0.7"/>
<circle cx="344.0" cy="430.5" r="2.6" fill="#3fb950" opacity="0.7"/>
<circle cx="351.2" cy="430.5" r="2.6" fill="#3fb950" opacity="0.7"/>
<circle cx="358.4" cy="430.5" r="2.6" fill="#3fb950" opacity="0.7"/>
<circle cx="365.6" cy="430.6" r="2.6" fill="#3fb950" opacity="0.7"/>
<circle cx="372.7" cy="429.8" r="2.6" fill="#3fb950" opacity="0.7"/>
<circle cx="379.9" cy="427.9" r="2.6" fill="#3fb950" opacity="0.7"/>
<circle cx="387.1" cy="429.3" r="2.6" fill="#3fb950" opacity="0.7"/>
<circle cx="394.3" cy="429.4" r="2.6" fill="#3fb950" opacity="0.7"/>
<circle cx="401.5" cy="430.2" r="2.6" fill="#3fb950" opacity="0.7"/>
<circle cx="408.7" cy="430.2" r="2.6" fill="#3fb950" opacity="0.7"/>
<circle cx="415.9" cy="454.3" r="2.6" fill="#3fb950" opacity="0.7"/>
<circle cx="423.0" cy="430.2" r="2.6" fill="#3fb950" opacity="0.7"/>
<circle cx="430.2" cy="430.2" r="2.6" fill="#3fb950" opacity="0.7"/>
<circle cx="437.4" cy="430.2" r="2.6" fill="#3fb950" opacity="0.7"/>
<circle cx="444.6" cy="430.9" r="2.6" fill="#3fb950" opacity="0.7"/>
<circle cx="451.8" cy="430.6" r="2.6" fill="#3fb950" opacity="0.7"/>
<circle cx="459.0" cy="439.5" r="2.6" fill="#3fb950" opacity="0.7"/>
<circle cx="466.1" cy="430.2" r="2.6" fill="#3fb950" opacity="0.7"/>
<circle cx="473.3" cy="429.8" r="2.6" fill="#3fb950" opacity="0.7"/>
<circle cx="480.5" cy="430.2" r="2.6" fill="#3fb950" opacity="0.7"/>
<circle cx="487.7" cy="430.2" r="2.6" fill="#3fb950" opacity="0.7"/>
<circle cx="494.9" cy="430.6" r="2.6" fill="#3fb950" opacity="0.7"/>
<circle cx="502.1" cy="429.8" r="2.6" fill="#3fb950" opacity="0.7"/>
<circle cx="509.3" cy="430.2" r="2.6" fill="#3fb950" opacity="0.7"/>
<circle cx="516.4" cy="429.8" r="2.6" fill="#3fb950" opacity="0.7"/>
<circle cx="523.6" cy="429.4" r="2.6" fill="#3fb950" opacity="0.7"/>
<circle cx="530.8" cy="429.4" r="2.6" fill="#3fb950" opacity="0.7"/>
<circle cx="538.0" cy="429.4" r="2.6" fill="#3fb950" opacity="0.7"/>
<circle cx="545.2" cy="429.0" r="2.6" fill="#3fb950" opacity="0.7"/>
<circle cx="552.4" cy="429.7" r="2.6" fill="#3fb950" opacity="0.7"/>
<circle cx="559.6" cy="429.0" r="2.6" fill="#3fb950" opacity="0.7"/>
<circle cx="566.7" cy="430.2" r="2.6" fill="#3fb950" opacity="0.7"/>
<circle cx="573.9" cy="430.6" r="2.6" fill="#3fb950" opacity="0.7"/>
<circle cx="581.1" cy="430.6" r="2.6" fill="#3fb950" opacity="0.7"/>
<circle cx="588.3" cy="430.2" r="2.6" fill="#3fb950" opacity="0.7"/>
<circle cx="595.5" cy="429.8" r="2.6" fill="#3fb950" opacity="0.7"/>
<circle cx="602.7" cy="434.9" r="2.6" fill="#3fb950" opacity="0.7"/>
<circle cx="609.9" cy="427.9" r="2.6" fill="#3fb950" opacity="0.7"/>
<circle cx="617.0" cy="428.3" r="2.6" fill="#3fb950" opacity="0.7"/>
<circle cx="624.2" cy="430.8" r="2.6" fill="#3fb950" opacity="0.7"/>
<circle cx="631.4" cy="435.2" r="2.6" fill="#3fb950" opacity="0.7"/>
<circle cx="638.6" cy="430.7" r="2.6" fill="#3fb950" opacity="0.7"/>
<circle cx="645.8" cy="430.2" r="2.6" fill="#3fb950" opacity="0.7"/>
<circle cx="653.0" cy="430.2" r="2.6" fill="#3fb950" opacity="0.7"/>
<circle cx="660.2" cy="429.0" r="2.6" fill="#3fb950" opacity="0.7"/>
<circle cx="667.3" cy="430.2" r="2.6" fill="#3fb950" opacity="0.7"/>
<circle cx="674.5" cy="429.8" r="2.6" fill="#3fb950" opacity="0.7"/>
<circle cx="681.7" cy="429.1" r="2.6" fill="#3fb950" opacity="0.7"/>
<circle cx="688.9" cy="432.2" r="2.6" fill="#3fb950" opacity="0.7"/>
<circle cx="696.1" cy="433.5" r="2.6" fill="#3fb950" opacity="0.7"/>
<circle cx="703.3" cy="429.1" r="2.6" fill="#3fb950" opacity="0.7"/>
<circle cx="710.5" cy="429.1" r="2.6" fill="#3fb950" opacity="0.7"/>
<circle cx="717.6" cy="436.2" r="2.6" fill="#3fb950" opacity="0.7"/>
<circle cx="724.8" cy="436.0" r="2.6" fill="#3fb950" opacity="0.7"/>
<circle cx="732.0" cy="430.1" r="2.6" fill="#3fb950" opacity="0.7"/>
<circle cx="739.2" cy="430.7" r="2.6" fill="#3fb950" opacity="0.7"/>
<circle cx="746.4" cy="428.7" r="2.6" fill="#3fb950" opacity="0.7"/>
<circle cx="753.6" cy="429.1" r="2.6" fill="#3fb950" opacity="0.7"/>
<circle cx="760.8" cy="454.7" r="2.6" fill="#3fb950" opacity="0.7"/>
<circle cx="767.9" cy="430.9" r="2.6" fill="#3fb950" opacity="0.7"/>
<circle cx="775.1" cy="441.9" r="2.6" fill="#3fb950" opacity="0.7"/>
<circle cx="782.3" cy="419.1" r="2.6" fill="#3fb950" opacity="0.7"/>
<circle cx="101.0" cy="386.0" r="2.6" fill="#bc8cff" opacity="0.7"/>
<circle cx="108.2" cy="364.9" r="2.6" fill="#bc8cff" opacity="0.7"/>
<circle cx="115.4" cy="223.3" r="2.6" fill="#bc8cff" opacity="0.7"/>
<circle cx="122.5" cy="386.3" r="2.6" fill="#bc8cff" opacity="0.7"/>
<circle cx="129.7" cy="424.9" r="2.6" fill="#bc8cff" opacity="0.7"/>
<circle cx="136.9" cy="339.0" r="2.6" fill="#bc8cff" opacity="0.7"/>
<circle cx="144.1" cy="260.4" r="2.6" fill="#bc8cff" opacity="0.7"/>
<circle cx="151.3" cy="382.6" r="2.6" fill="#bc8cff" opacity="0.7"/>
<circle cx="158.5" cy="383.2" r="2.6" fill="#bc8cff" opacity="0.7"/>
<circle cx="165.7" cy="383.3" r="2.6" fill="#bc8cff" opacity="0.7"/>
<circle cx="172.8" cy="386.0" r="2.6" fill="#bc8cff" opacity="0.7"/>
<circle cx="180.0" cy="381.8" r="2.6" fill="#bc8cff" opacity="0.7"/>
<circle cx="187.2" cy="209.1" r="2.6" fill="#bc8cff" opacity="0.7"/>
<circle cx="194.4" cy="213.4" r="2.6" fill="#bc8cff" opacity="0.7"/>
<circle cx="201.6" cy="267.0" r="2.6" fill="#bc8cff" opacity="0.7"/>
<circle cx="208.8" cy="236.8" r="2.6" fill="#bc8cff" opacity="0.7"/>
<circle cx="216.0" cy="225.6" r="2.6" fill="#bc8cff" opacity="0.7"/>
<circle cx="223.1" cy="261.0" r="2.6" fill="#bc8cff" opacity="0.7"/>
<circle cx="230.3" cy="238.6" r="2.6" fill="#bc8cff" opacity="0.7"/>
<circle cx="237.5" cy="222.7" r="2.6" fill="#bc8cff" opacity="0.7"/>
<circle cx="244.7" cy="246.7" r="2.6" fill="#bc8cff" opacity="0.7"/>
<circle cx="251.9" cy="228.2" r="2.6" fill="#bc8cff" opacity="0.7"/>
<circle cx="259.1" cy="360.5" r="2.6" fill="#bc8cff" opacity="0.7"/>
<circle cx="266.3" cy="245.5" r="2.6" fill="#bc8cff" opacity="0.7"/>
<circle cx="273.4" cy="232.8" r="2.6" fill="#bc8cff" opacity="0.7"/>
<circle cx="280.6" cy="229.7" r="2.6" fill="#bc8cff" opacity="0.7"/>
<circle cx="287.8" cy="426.5" r="2.6" fill="#bc8cff" opacity="0.7"/>
<circle cx="295.0" cy="426.6" r="2.6" fill="#bc8cff" opacity="0.7"/>
<circle cx="302.2" cy="410.8" r="2.6" fill="#bc8cff" opacity="0.7"/>
<circle cx="309.4" cy="412.3" r="2.6" fill="#bc8cff" opacity="0.7"/>
<circle cx="316.6" cy="383.3" r="2.6" fill="#bc8cff" opacity="0.7"/>
<circle cx="323.7" cy="279.2" r="2.6" fill="#bc8cff" opacity="0.7"/>
<circle cx="330.9" cy="384.4" r="2.6" fill="#bc8cff" opacity="0.7"/>
<circle cx="338.1" cy="216.5" r="2.6" fill="#bc8cff" opacity="0.7"/>
<circle cx="345.3" cy="384.1" r="2.6" fill="#bc8cff" opacity="0.7"/>
<circle cx="352.5" cy="381.9" r="2.6" fill="#bc8cff" opacity="0.7"/>
<circle cx="359.7" cy="383.8" r="2.6" fill="#bc8cff" opacity="0.7"/>
<circle cx="366.9" cy="387.7" r="2.6" fill="#bc8cff" opacity="0.7"/>
<circle cx="374.0" cy="384.3" r="2.6" fill="#bc8cff" opacity="0.7"/>
<circle cx="381.2" cy="247.2" r="2.6" fill="#bc8cff" opacity="0.7"/>
<circle cx="388.4" cy="242.1" r="2.6" fill="#bc8cff" opacity="0.7"/>
<circle cx="395.6" cy="253.2" r="2.6" fill="#bc8cff" opacity="0.7"/>
<circle cx="402.8" cy="387.1" r="2.6" fill="#bc8cff" opacity="0.7"/>
<circle cx="410.0" cy="388.5" r="2.6" fill="#bc8cff" opacity="0.7"/>
<circle cx="417.2" cy="373.4" r="2.6" fill="#bc8cff" opacity="0.7"/>
<circle cx="424.3" cy="387.9" r="2.6" fill="#bc8cff" opacity="0.7"/>
<circle cx="431.5" cy="390.9" r="2.6" fill="#bc8cff" opacity="0.7"/>
<circle cx="438.7" cy="312.9" r="2.6" fill="#bc8cff" opacity="0.7"/>
<circle cx="445.9" cy="281.8" r="2.6" fill="#bc8cff" opacity="0.7"/>
<circle cx="453.1" cy="388.9" r="2.6" fill="#bc8cff" opacity="0.7"/>
<circle cx="460.3" cy="331.7" r="2.6" fill="#bc8cff" opacity="0.7"/>
<circle cx="467.5" cy="387.5" r="2.6" fill="#bc8cff" opacity="0.7"/>
<circle cx="474.6" cy="388.3" r="2.6" fill="#bc8cff" opacity="0.7"/>
<circle cx="481.8" cy="387.5" r="2.6" fill="#bc8cff" opacity="0.7"/>
<circle cx="489.0" cy="389.5" r="2.6" fill="#bc8cff" opacity="0.7"/>
<circle cx="496.2" cy="385.3" r="2.6" fill="#bc8cff" opacity="0.7"/>
<circle cx="503.4" cy="387.1" r="2.6" fill="#bc8cff" opacity="0.7"/>
<circle cx="510.6" cy="215.7" r="2.6" fill="#bc8cff" opacity="0.7"/>
<circle cx="517.8" cy="215.0" r="2.6" fill="#bc8cff" opacity="0.7"/>
<circle cx="524.9" cy="237.5" r="2.6" fill="#bc8cff" opacity="0.7"/>
<circle cx="532.1" cy="243.8" r="2.6" fill="#bc8cff" opacity="0.7"/>
<circle cx="539.3" cy="219.0" r="2.6" fill="#bc8cff" opacity="0.7"/>
<circle cx="546.5" cy="264.6" r="2.6" fill="#bc8cff" opacity="0.7"/>
<circle cx="553.7" cy="266.4" r="2.6" fill="#bc8cff" opacity="0.7"/>
<circle cx="560.9" cy="256.7" r="2.6" fill="#bc8cff" opacity="0.7"/>
<circle cx="568.1" cy="384.5" r="2.6" fill="#bc8cff" opacity="0.7"/>
<circle cx="575.2" cy="388.5" r="2.6" fill="#bc8cff" opacity="0.7"/>
<circle cx="582.4" cy="388.1" r="2.6" fill="#bc8cff" opacity="0.7"/>
<circle cx="589.6" cy="388.9" r="2.6" fill="#bc8cff" opacity="0.7"/>
<circle cx="596.8" cy="390.3" r="2.6" fill="#bc8cff" opacity="0.7"/>
<circle cx="604.0" cy="278.1" r="2.6" fill="#bc8cff" opacity="0.7"/>
<circle cx="611.2" cy="231.0" r="2.6" fill="#bc8cff" opacity="0.7"/>
<circle cx="618.4" cy="233.5" r="2.6" fill="#bc8cff" opacity="0.7"/>
<circle cx="625.5" cy="392.5" r="2.6" fill="#bc8cff" opacity="0.7"/>
<circle cx="632.7" cy="321.6" r="2.6" fill="#bc8cff" opacity="0.7"/>
<circle cx="639.9" cy="399.5" r="2.6" fill="#bc8cff" opacity="0.7"/>
<circle cx="647.1" cy="386.9" r="2.6" fill="#bc8cff" opacity="0.7"/>
<circle cx="654.3" cy="389.3" r="2.6" fill="#bc8cff" opacity="0.7"/>
<circle cx="661.5" cy="426.7" r="2.6" fill="#bc8cff" opacity="0.7"/>
<circle cx="668.7" cy="386.4" r="2.6" fill="#bc8cff" opacity="0.7"/>
<circle cx="675.8" cy="215.9" r="2.6" fill="#bc8cff" opacity="0.7"/>
<circle cx="683.0" cy="424.8" r="2.6" fill="#bc8cff" opacity="0.7"/>
<circle cx="690.2" cy="242.9" r="2.6" fill="#bc8cff" opacity="0.7"/>
<circle cx="697.4" cy="454.6" r="2.6" fill="#bc8cff" opacity="0.7"/>
<circle cx="704.6" cy="424.8" r="2.6" fill="#bc8cff" opacity="0.7"/>
<circle cx="711.8" cy="424.6" r="2.6" fill="#bc8cff" opacity="0.7"/>
<circle cx="719.0" cy="420.5" r="2.6" fill="#bc8cff" opacity="0.7"/>
<circle cx="726.1" cy="381.0" r="2.6" fill="#bc8cff" opacity="0.7"/>
<circle cx="733.3" cy="379.3" r="2.6" fill="#bc8cff" opacity="0.7"/>
<circle cx="740.5" cy="387.0" r="2.6" fill="#bc8cff" opacity="0.7"/>
<circle cx="747.7" cy="253.9" r="2.6" fill="#bc8cff" opacity="0.7"/>
<circle cx="754.9" cy="396.9" r="2.6" fill="#bc8cff" opacity="0.7"/>
<circle cx="762.1" cy="375.5" r="2.6" fill="#bc8cff" opacity="0.7"/>
<circle cx="769.3" cy="283.4" r="2.6" fill="#bc8cff" opacity="0.7"/>
<circle cx="776.4" cy="396.0" r="2.6" fill="#bc8cff" opacity="0.7"/>
<circle cx="783.6" cy="400.0" r="2.6" fill="#bc8cff" opacity="0.7"/>
<circle cx="98.4" cy="430.6" r="3.2" fill="#ff922b" opacity="0.85"/>
<circle cx="105.6" cy="429.7" r="3.2" fill="#ff922b" opacity="0.85"/>
<circle cx="112.7" cy="429.8" r="3.2" fill="#ff922b" opacity="0.85"/>
<circle cx="119.9" cy="428.3" r="3.2" fill="#ff922b" opacity="0.85"/>
<circle cx="127.1" cy="429.0" r="3.2" fill="#ff922b" opacity="0.85"/>
<circle cx="134.3" cy="426.8" r="3.2" fill="#ff922b" opacity="0.85"/>
<circle cx="141.5" cy="429.3" r="3.2" fill="#ff922b" opacity="0.85"/>
<circle cx="148.7" cy="430.6" r="3.2" fill="#ff922b" opacity="0.85"/>
<circle cx="155.9" cy="431.0" r="3.2" fill="#ff922b" opacity="0.85"/>
<circle cx="163.0" cy="430.6" r="3.2" fill="#ff922b" opacity="0.85"/>
<circle cx="170.2" cy="430.6" r="3.2" fill="#ff922b" opacity="0.85"/>
<circle cx="177.4" cy="430.2" r="3.2" fill="#ff922b" opacity="0.85"/>
<circle cx="184.6" cy="429.8" r="3.2" fill="#ff922b" opacity="0.85"/>
<circle cx="191.8" cy="429.8" r="3.2" fill="#ff922b" opacity="0.85"/>
<circle cx="199.0" cy="430.1" r="3.2" fill="#ff922b" opacity="0.85"/>
<circle cx="206.2" cy="429.7" r="3.2" fill="#ff922b" opacity="0.85"/>
<circle cx="213.3" cy="430.2" r="3.2" fill="#ff922b" opacity="0.85"/>
<circle cx="220.5" cy="127.7" r="3.2" fill="#ff922b" opacity="0.85"/>
<circle cx="227.7" cy="429.7" r="3.2" fill="#ff922b" opacity="0.85"/>
<circle cx="234.9" cy="430.1" r="3.2" fill="#ff922b" opacity="0.85"/>
<circle cx="242.1" cy="430.0" r="3.2" fill="#ff922b" opacity="0.85"/>
<circle cx="249.3" cy="430.1" r="3.2" fill="#ff922b" opacity="0.85"/>
<circle cx="256.5" cy="432.0" r="3.2" fill="#ff922b" opacity="0.85"/>
<circle cx="263.6" cy="430.0" r="3.2" fill="#ff922b" opacity="0.85"/>
<circle cx="270.8" cy="430.1" r="3.2" fill="#ff922b" opacity="0.85"/>
<circle cx="278.0" cy="428.6" r="3.2" fill="#ff922b" opacity="0.85"/>
<circle cx="285.2" cy="429.0" r="3.2" fill="#ff922b" opacity="0.85"/>
<circle cx="292.4" cy="429.0" r="3.2" fill="#ff922b" opacity="0.85"/>
<circle cx="299.6" cy="429.1" r="3.2" fill="#ff922b" opacity="0.85"/>
<circle cx="306.8" cy="429.3" r="3.2" fill="#ff922b" opacity="0.85"/>
<circle cx="313.9" cy="430.2" r="3.2" fill="#ff922b" opacity="0.85"/>
<circle cx="321.1" cy="429.9" r="3.2" fill="#ff922b" opacity="0.85"/>
<circle cx="328.3" cy="430.6" r="3.2" fill="#ff922b" opacity="0.85"/>
<circle cx="335.5" cy="430.5" r="3.2" fill="#ff922b" opacity="0.85"/>
<circle cx="342.7" cy="430.1" r="3.2" fill="#ff922b" opacity="0.85"/>
<circle cx="349.9" cy="430.1" r="3.2" fill="#ff922b" opacity="0.85"/>
<circle cx="357.1" cy="430.1" r="3.2" fill="#ff922b" opacity="0.85"/>
<circle cx="364.2" cy="430.6" r="3.2" fill="#ff922b" opacity="0.85"/>
<circle cx="371.4" cy="430.2" r="3.2" fill="#ff922b" opacity="0.85"/>
<circle cx="378.6" cy="429.0" r="3.2" fill="#ff922b" opacity="0.85"/>
<circle cx="385.8" cy="430.7" r="3.2" fill="#ff922b" opacity="0.85"/>
<circle cx="393.0" cy="429.7" r="3.2" fill="#ff922b" opacity="0.85"/>
<circle cx="400.2" cy="430.2" r="3.2" fill="#ff922b" opacity="0.85"/>
<circle cx="407.4" cy="430.2" r="3.2" fill="#ff922b" opacity="0.85"/>
<circle cx="414.5" cy="429.7" r="3.2" fill="#ff922b" opacity="0.85"/>
<circle cx="421.7" cy="430.2" r="3.2" fill="#ff922b" opacity="0.85"/>
<circle cx="428.9" cy="430.2" r="3.2" fill="#ff922b" opacity="0.85"/>
<circle cx="436.1" cy="429.7" r="3.2" fill="#ff922b" opacity="0.85"/>
<circle cx="443.3" cy="428.4" r="3.2" fill="#ff922b" opacity="0.85"/>
<circle cx="450.5" cy="430.2" r="3.2" fill="#ff922b" opacity="0.85"/>
<circle cx="457.7" cy="428.3" r="3.2" fill="#ff922b" opacity="0.85"/>
<circle cx="464.8" cy="429.8" r="3.2" fill="#ff922b" opacity="0.85"/>
<circle cx="472.0" cy="430.2" r="3.2" fill="#ff922b" opacity="0.85"/>
<circle cx="479.2" cy="430.2" r="3.2" fill="#ff922b" opacity="0.85"/>
<circle cx="486.4" cy="429.8" r="3.2" fill="#ff922b" opacity="0.85"/>
<circle cx="493.6" cy="430.6" r="3.2" fill="#ff922b" opacity="0.85"/>
<circle cx="500.8" cy="429.4" r="3.2" fill="#ff922b" opacity="0.85"/>
<circle cx="508.0" cy="429.4" r="3.2" fill="#ff922b" opacity="0.85"/>
<circle cx="515.1" cy="429.0" r="3.2" fill="#ff922b" opacity="0.85"/>
<circle cx="522.3" cy="429.4" r="3.2" fill="#ff922b" opacity="0.85"/>
<circle cx="529.5" cy="430.5" r="3.2" fill="#ff922b" opacity="0.85"/>
<circle cx="536.7" cy="429.8" r="3.2" fill="#ff922b" opacity="0.85"/>
<circle cx="543.9" cy="429.3" r="3.2" fill="#ff922b" opacity="0.85"/>
<circle cx="551.1" cy="429.0" r="3.2" fill="#ff922b" opacity="0.85"/>
<circle cx="558.3" cy="431.8" r="3.2" fill="#ff922b" opacity="0.85"/>
<circle cx="565.4" cy="430.2" r="3.2" fill="#ff922b" opacity="0.85"/>
<circle cx="572.6" cy="430.2" r="3.2" fill="#ff922b" opacity="0.85"/>
<circle cx="579.8" cy="430.6" r="3.2" fill="#ff922b" opacity="0.85"/>
<circle cx="587.0" cy="430.6" r="3.2" fill="#ff922b" opacity="0.85"/>
<circle cx="594.2" cy="429.8" r="3.2" fill="#ff922b" opacity="0.85"/>
<circle cx="601.4" cy="431.9" r="3.2" fill="#ff922b" opacity="0.85"/>
<circle cx="608.6" cy="429.4" r="3.2" fill="#ff922b" opacity="0.85"/>
<circle cx="615.7" cy="430.5" r="3.2" fill="#ff922b" opacity="0.85"/>
<circle cx="622.9" cy="431.1" r="3.2" fill="#ff922b" opacity="0.85"/>
<circle cx="630.1" cy="426.4" r="3.2" fill="#ff922b" opacity="0.85"/>
<circle cx="637.3" cy="430.4" r="3.2" fill="#ff922b" opacity="0.85"/>
<circle cx="644.5" cy="430.2" r="3.2" fill="#ff922b" opacity="0.85"/>
<circle cx="651.7" cy="430.2" r="3.2" fill="#ff922b" opacity="0.85"/>
<circle cx="658.9" cy="429.0" r="3.2" fill="#ff922b" opacity="0.85"/>
<circle cx="666.0" cy="430.6" r="3.2" fill="#ff922b" opacity="0.85"/>
<circle cx="673.2" cy="429.4" r="3.2" fill="#ff922b" opacity="0.85"/>
<circle cx="680.4" cy="429.0" r="3.2" fill="#ff922b" opacity="0.85"/>
<circle cx="687.6" cy="429.4" r="3.2" fill="#ff922b" opacity="0.85"/>
<circle cx="694.8" cy="430.8" r="3.2" fill="#ff922b" opacity="0.85"/>
<circle cx="702.0" cy="429.1" r="3.2" fill="#ff922b" opacity="0.85"/>
<circle cx="709.2" cy="429.1" r="3.2" fill="#ff922b" opacity="0.85"/>
<circle cx="716.3" cy="428.2" r="3.2" fill="#ff922b" opacity="0.85"/>
<circle cx="723.5" cy="429.1" r="3.2" fill="#ff922b" opacity="0.85"/>
<circle cx="730.7" cy="429.7" r="3.2" fill="#ff922b" opacity="0.85"/>
<circle cx="737.9" cy="430.7" r="3.2" fill="#ff922b" opacity="0.85"/>
<circle cx="745.1" cy="430.3" r="3.2" fill="#ff922b" opacity="0.85"/>
<circle cx="752.3" cy="430.7" r="3.2" fill="#ff922b" opacity="0.85"/>
<circle cx="759.5" cy="428.2" r="3.2" fill="#ff922b" opacity="0.85"/>
<circle cx="766.6" cy="430.3" r="3.2" fill="#ff922b" opacity="0.85"/>
<circle cx="773.8" cy="428.8" r="3.2" fill="#ff922b" opacity="0.85"/>
<circle cx="781.0" cy="429.1" r="3.2" fill="#ff922b" opacity="0.85"/>
<circle cx="847" cy="84" r="5" fill="#ff922b"/>
<text x="866" y="88" font-size="13" fill="#c9d1d9" font-weight="700">Kāra</text>
<line x1="836" y1="108" x2="858" y2="108" stroke="#a7b0bc" stroke-width="2" stroke-dasharray="5 4"/>
<text x="866" y="112" font-size="13" fill="#c9d1d9" font-weight="400">Rust = 1.0×</text>
<circle cx="847" cy="132" r="4" fill="#3fb950"/>
<text x="866" y="136" font-size="13" fill="#c9d1d9" font-weight="400">C</text>
<circle cx="847" cy="156" r="4" fill="#bc8cff"/>
<text x="866" y="160" font-size="13" fill="#c9d1d9" font-weight="400">Go</text>
<text x="70" y="538" font-size="11.5" fill="#8b949e">Each dot is one benchmarked program (kata × approach); there is no connecting line because left-to-right order is not meaningful. Raw numbers: bench-results.json</text>
</svg>