<svg xmlns="http://www.w3.org/2000/svg" width="980" height="560" viewBox="0 0 980 560" font-family="-apple-system,Segoe UI,Helvetica,Arial,sans-serif">
<rect width="980" height="560" fill="#282c34"/>
<text x="70" y="34" font-size="21" font-weight="700" fill="#c9d1d9">Runtime peak memory — sequential lane</text>
<text x="70" y="56" font-size="13" fill="#8b949e">relative to Rust = 1.0 · lower = leaner · 65 programs</text>
<line x1="70" y1="456.0" x2="812" y2="456.0" stroke="#3b414b" stroke-width="1"/>
<text x="60" y="460.0" font-size="12" text-anchor="end" fill="#8b949e">0.0×</text>
<line x1="70" y1="429.0" x2="812" y2="429.0" stroke="#a7b0bc" stroke-width="2" stroke-dasharray="5 4"/>
<text x="60" y="433.0" font-size="12" text-anchor="end" fill="#aeb6c0" font-weight="700">1.0×</text>
<line x1="70" y1="380.4" x2="812" y2="380.4" stroke="#3b414b" stroke-width="1"/>
<text x="60" y="384.4" font-size="12" text-anchor="end" fill="#8b949e">2.8×</text>
<line x1="70" y1="304.8" x2="812" y2="304.8" stroke="#3b414b" stroke-width="1"/>
<text x="60" y="308.8" font-size="12" text-anchor="end" fill="#8b949e">5.6×</text>
<line x1="70" y1="229.2" x2="812" y2="229.2" stroke="#3b414b" stroke-width="1"/>
<text x="60" y="233.2" font-size="12" text-anchor="end" fill="#8b949e">8.4×</text>
<line x1="70" y1="153.6" x2="812" y2="153.6" stroke="#3b414b" stroke-width="1"/>
<text x="60" y="157.6" font-size="12" text-anchor="end" fill="#8b949e">11.2×</text>
<line x1="70" y1="78.0" x2="812" y2="78.0" stroke="#3b414b" stroke-width="1"/>
<text x="60" y="82.0" font-size="12" text-anchor="end" fill="#8b949e">14.0×</text>
<text x="812" y="423.0" font-size="11" text-anchor="end" fill="#aeb6c0">Rust baseline</text>
<line x1="70" y1="456" x2="812" y2="456" stroke="#3b414b"/>
<text x="441.0" y="478" font-size="11" text-anchor="middle" fill="#8b949e">65 programs (kata × approach) — x-order carries no meaning</text>
<circle cx="99.7" cy="430.2" r="2.6" fill="#3fb950" opacity="0.7"/>
<circle cx="110.3" cy="429.0" r="2.6" fill="#3fb950" opacity="0.7"/>
<circle cx="121.0" cy="430.1" r="2.6" fill="#3fb950" opacity="0.7"/>
<circle cx="131.7" cy="431.1" r="2.6" fill="#3fb950" opacity="0.7"/>
<circle cx="142.3" cy="429.1" r="2.6" fill="#3fb950" opacity="0.7"/>
<circle cx="153.0" cy="431.2" r="2.6" fill="#3fb950" opacity="0.7"/>
<circle cx="163.7" cy="432.7" r="2.6" fill="#3fb950" opacity="0.7"/>
<circle cx="174.3" cy="430.6" r="2.6" fill="#3fb950" opacity="0.7"/>
<circle cx="185.0" cy="431.0" r="2.6" fill="#3fb950" opacity="0.7"/>
<circle cx="195.7" cy="430.2" r="2.6" fill="#3fb950" opacity="0.7"/>
<circle cx="206.3" cy="430.6" r="2.6" fill="#3fb950" opacity="0.7"/>
<circle cx="217.0" cy="430.2" r="2.6" fill="#3fb950" opacity="0.7"/>
<circle cx="227.7" cy="430.2" r="2.6" fill="#3fb950" opacity="0.7"/>
<circle cx="238.3" cy="429.4" r="2.6" fill="#3fb950" opacity="0.7"/>
<circle cx="249.0" cy="430.1" r="2.6" fill="#3fb950" opacity="0.7"/>
<circle cx="259.7" cy="430.4" r="2.6" fill="#3fb950" opacity="0.7"/>
<circle cx="270.3" cy="429.8" r="2.6" fill="#3fb950" opacity="0.7"/>
<circle cx="281.0" cy="429.0" r="2.6" fill="#3fb950" opacity="0.7"/>
<circle cx="291.7" cy="429.0" r="2.6" fill="#3fb950" opacity="0.7"/>
<circle cx="302.3" cy="431.6" r="2.6" fill="#3fb950" opacity="0.7"/>
<circle cx="313.0" cy="425.7" r="2.6" fill="#3fb950" opacity="0.7"/>
<circle cx="323.7" cy="429.7" r="2.6" fill="#3fb950" opacity="0.7"/>
<circle cx="334.3" cy="435.0" r="2.6" fill="#3fb950" opacity="0.7"/>
<circle cx="345.0" cy="430.7" r="2.6" fill="#3fb950" opacity="0.7"/>
<circle cx="355.7" cy="429.8" r="2.6" fill="#3fb950" opacity="0.7"/>
<circle cx="366.3" cy="430.5" r="2.6" fill="#3fb950" opacity="0.7"/>
<circle cx="377.0" cy="429.0" r="2.6" fill="#3fb950" opacity="0.7"/>
<circle cx="387.7" cy="429.0" r="2.6" fill="#3fb950" opacity="0.7"/>
<circle cx="398.3" cy="429.3" r="2.6" fill="#3fb950" opacity="0.7"/>
<circle cx="409.0" cy="429.3" r="2.6" fill="#3fb950" opacity="0.7"/>
<circle cx="419.7" cy="430.6" r="2.6" fill="#3fb950" opacity="0.7"/>
<circle cx="430.3" cy="433.1" r="2.6" fill="#3fb950" opacity="0.7"/>
<circle cx="441.0" cy="431.0" r="2.6" fill="#3fb950" opacity="0.7"/>
<circle cx="451.7" cy="430.9" r="2.6" fill="#3fb950" opacity="0.7"/>
<circle cx="462.3" cy="430.5" r="2.6" fill="#3fb950" opacity="0.7"/>
<circle cx="473.0" cy="430.5" r="2.6" fill="#3fb950" opacity="0.7"/>
<circle cx="483.7" cy="430.5" r="2.6" fill="#3fb950" opacity="0.7"/>
<circle cx="494.3" cy="430.6" r="2.6" fill="#3fb950" opacity="0.7"/>
<circle cx="505.0" cy="429.8" r="2.6" fill="#3fb950" opacity="0.7"/>
<circle cx="515.7" cy="427.9" r="2.6" fill="#3fb950" opacity="0.7"/>
<circle cx="526.3" cy="429.3" r="2.6" fill="#3fb950" opacity="0.7"/>
<circle cx="537.0" cy="429.4" r="2.6" fill="#3fb950" opacity="0.7"/>
<circle cx="547.7" cy="430.2" r="2.6" fill="#3fb950" opacity="0.7"/>
<circle cx="558.3" cy="430.2" r="2.6" fill="#3fb950" opacity="0.7"/>
<circle cx="569.0" cy="454.3" r="2.6" fill="#3fb950" opacity="0.7"/>
<circle cx="579.7" cy="430.2" r="2.6" fill="#3fb950" opacity="0.7"/>
<circle cx="590.3" cy="430.2" r="2.6" fill="#3fb950" opacity="0.7"/>
<circle cx="601.0" cy="434.9" r="2.6" fill="#3fb950" opacity="0.7"/>
<circle cx="611.7" cy="429.0" r="2.6" fill="#3fb950" opacity="0.7"/>
<circle cx="622.3" cy="430.2" r="2.6" fill="#3fb950" opacity="0.7"/>
<circle cx="633.0" cy="429.1" r="2.6" fill="#3fb950" opacity="0.7"/>
<circle cx="643.7" cy="432.2" r="2.6" fill="#3fb950" opacity="0.7"/>
<circle cx="654.3" cy="433.5" r="2.6" fill="#3fb950" opacity="0.7"/>
<circle cx="665.0" cy="429.1" r="2.6" fill="#3fb950" opacity="0.7"/>
<circle cx="675.7" cy="429.1" r="2.6" fill="#3fb950" opacity="0.7"/>
<circle cx="686.3" cy="436.2" r="2.6" fill="#3fb950" opacity="0.7"/>
<circle cx="697.0" cy="436.0" r="2.6" fill="#3fb950" opacity="0.7"/>
<circle cx="707.7" cy="430.1" r="2.6" fill="#3fb950" opacity="0.7"/>
<circle cx="718.3" cy="430.7" r="2.6" fill="#3fb950" opacity="0.7"/>
<circle cx="729.0" cy="428.7" r="2.6" fill="#3fb950" opacity="0.7"/>
<circle cx="739.7" cy="429.1" r="2.6" fill="#3fb950" opacity="0.7"/>
<circle cx="750.3" cy="454.7" r="2.6" fill="#3fb950" opacity="0.7"/>
<circle cx="761.0" cy="430.9" r="2.6" fill="#3fb950" opacity="0.7"/>
<circle cx="771.7" cy="441.9" r="2.6" fill="#3fb950" opacity="0.7"/>
<circle cx="782.3" cy="419.1" r="2.6" fill="#3fb950" opacity="0.7"/>
<circle cx="101.6" cy="386.0" r="2.6" fill="#bc8cff" opacity="0.7"/>
<circle cx="112.3" cy="364.9" r="2.6" fill="#bc8cff" opacity="0.7"/>
<circle cx="122.9" cy="223.3" r="2.6" fill="#bc8cff" opacity="0.7"/>
<circle cx="133.6" cy="386.3" r="2.6" fill="#bc8cff" opacity="0.7"/>
<circle cx="144.3" cy="424.9" r="2.6" fill="#bc8cff" opacity="0.7"/>
<circle cx="154.9" cy="339.0" r="2.6" fill="#bc8cff" opacity="0.7"/>
<circle cx="165.6" cy="260.4" r="2.6" fill="#bc8cff" opacity="0.7"/>
<circle cx="176.3" cy="382.6" r="2.6" fill="#bc8cff" opacity="0.7"/>
<circle cx="186.9" cy="383.2" r="2.6" fill="#bc8cff" opacity="0.7"/>
<circle cx="197.6" cy="383.3" r="2.6" fill="#bc8cff" opacity="0.7"/>
<circle cx="208.3" cy="386.0" r="2.6" fill="#bc8cff" opacity="0.7"/>
<circle cx="218.9" cy="381.8" r="2.6" fill="#bc8cff" opacity="0.7"/>
<circle cx="229.6" cy="209.1" r="2.6" fill="#bc8cff" opacity="0.7"/>
<circle cx="240.3" cy="213.4" r="2.6" fill="#bc8cff" opacity="0.7"/>
<circle cx="250.9" cy="267.0" r="2.6" fill="#bc8cff" opacity="0.7"/>
<circle cx="261.6" cy="236.8" r="2.6" fill="#bc8cff" opacity="0.7"/>
<circle cx="272.3" cy="225.6" r="2.6" fill="#bc8cff" opacity="0.7"/>
<circle cx="282.9" cy="261.0" r="2.6" fill="#bc8cff" opacity="0.7"/>
<circle cx="293.6" cy="238.6" r="2.6" fill="#bc8cff" opacity="0.7"/>
<circle cx="304.3" cy="222.7" r="2.6" fill="#bc8cff" opacity="0.7"/>
<circle cx="314.9" cy="246.7" r="2.6" fill="#bc8cff" opacity="0.7"/>
<circle cx="325.6" cy="228.2" r="2.6" fill="#bc8cff" opacity="0.7"/>
<circle cx="336.3" cy="360.5" r="2.6" fill="#bc8cff" opacity="0.7"/>
<circle cx="346.9" cy="245.5" r="2.6" fill="#bc8cff" opacity="0.7"/>
<circle cx="357.6" cy="232.8" r="2.6" fill="#bc8cff" opacity="0.7"/>
<circle cx="368.3" cy="229.7" r="2.6" fill="#bc8cff" opacity="0.7"/>
<circle cx="378.9" cy="426.5" r="2.6" fill="#bc8cff" opacity="0.7"/>
<circle cx="389.6" cy="426.6" r="2.6" fill="#bc8cff" opacity="0.7"/>
<circle cx="400.3" cy="410.8" r="2.6" fill="#bc8cff" opacity="0.7"/>
<circle cx="410.9" cy="412.3" r="2.6" fill="#bc8cff" opacity="0.7"/>
<circle cx="421.6" cy="383.3" r="2.6" fill="#bc8cff" opacity="0.7"/>
<circle cx="432.3" cy="279.2" r="2.6" fill="#bc8cff" opacity="0.7"/>
<circle cx="442.9" cy="384.4" r="2.6" fill="#bc8cff" opacity="0.7"/>
<circle cx="453.6" cy="216.5" r="2.6" fill="#bc8cff" opacity="0.7"/>
<circle cx="464.3" cy="384.1" r="2.6" fill="#bc8cff" opacity="0.7"/>
<circle cx="474.9" cy="381.9" r="2.6" fill="#bc8cff" opacity="0.7"/>
<circle cx="485.6" cy="383.8" r="2.6" fill="#bc8cff" opacity="0.7"/>
<circle cx="496.3" cy="387.7" r="2.6" fill="#bc8cff" opacity="0.7"/>
<circle cx="506.9" cy="384.3" r="2.6" fill="#bc8cff" opacity="0.7"/>
<circle cx="517.6" cy="247.2" r="2.6" fill="#bc8cff" opacity="0.7"/>
<circle cx="528.3" cy="242.1" r="2.6" fill="#bc8cff" opacity="0.7"/>
<circle cx="538.9" cy="253.2" r="2.6" fill="#bc8cff" opacity="0.7"/>
<circle cx="549.6" cy="387.1" r="2.6" fill="#bc8cff" opacity="0.7"/>
<circle cx="560.3" cy="388.5" r="2.6" fill="#bc8cff" opacity="0.7"/>
<circle cx="570.9" cy="373.4" r="2.6" fill="#bc8cff" opacity="0.7"/>
<circle cx="581.6" cy="215.7" r="2.6" fill="#bc8cff" opacity="0.7"/>
<circle cx="592.3" cy="384.5" r="2.6" fill="#bc8cff" opacity="0.7"/>
<circle cx="602.9" cy="278.1" r="2.6" fill="#bc8cff" opacity="0.7"/>
<circle cx="613.6" cy="426.7" r="2.6" fill="#bc8cff" opacity="0.7"/>
<circle cx="624.3" cy="386.4" r="2.6" fill="#bc8cff" opacity="0.7"/>
<circle cx="634.9" cy="424.8" r="2.6" fill="#bc8cff" opacity="0.7"/>
<circle cx="645.6" cy="242.9" r="2.6" fill="#bc8cff" opacity="0.7"/>
<circle cx="656.3" cy="454.6" r="2.6" fill="#bc8cff" opacity="0.7"/>
<circle cx="666.9" cy="424.8" r="2.6" fill="#bc8cff" opacity="0.7"/>
<circle cx="677.6" cy="424.6" r="2.6" fill="#bc8cff" opacity="0.7"/>
<circle cx="688.3" cy="420.5" r="2.6" fill="#bc8cff" opacity="0.7"/>
<circle cx="698.9" cy="381.0" r="2.6" fill="#bc8cff" opacity="0.7"/>
<circle cx="709.6" cy="379.3" r="2.6" fill="#bc8cff" opacity="0.7"/>
<circle cx="720.3" cy="387.0" r="2.6" fill="#bc8cff" opacity="0.7"/>
<circle cx="730.9" cy="253.9" r="2.6" fill="#bc8cff" opacity="0.7"/>
<circle cx="741.6" cy="396.9" r="2.6" fill="#bc8cff" opacity="0.7"/>
<circle cx="752.3" cy="375.5" r="2.6" fill="#bc8cff" opacity="0.7"/>
<circle cx="762.9" cy="283.4" r="2.6" fill="#bc8cff" opacity="0.7"/>
<circle cx="773.6" cy="396.0" r="2.6" fill="#bc8cff" opacity="0.7"/>
<circle cx="784.3" cy="400.0" r="2.6" fill="#bc8cff" opacity="0.7"/>
<circle cx="97.7" cy="430.6" r="3.2" fill="#ff922b" opacity="0.85"/>
<circle cx="108.4" cy="429.7" r="3.2" fill="#ff922b" opacity="0.85"/>
<circle cx="119.1" cy="429.8" r="3.2" fill="#ff922b" opacity="0.85"/>
<circle cx="129.7" cy="428.3" r="3.2" fill="#ff922b" opacity="0.85"/>
<circle cx="140.4" cy="429.0" r="3.2" fill="#ff922b" opacity="0.85"/>
<circle cx="151.1" cy="426.8" r="3.2" fill="#ff922b" opacity="0.85"/>
<circle cx="161.7" cy="429.3" r="3.2" fill="#ff922b" opacity="0.85"/>
<circle cx="172.4" cy="430.6" r="3.2" fill="#ff922b" opacity="0.85"/>
<circle cx="183.1" cy="431.0" r="3.2" fill="#ff922b" opacity="0.85"/>
<circle cx="193.7" cy="430.6" r="3.2" fill="#ff922b" opacity="0.85"/>
<circle cx="204.4" cy="430.6" r="3.2" fill="#ff922b" opacity="0.85"/>
<circle cx="215.1" cy="430.2" r="3.2" fill="#ff922b" opacity="0.85"/>
<circle cx="225.7" cy="429.8" r="3.2" fill="#ff922b" opacity="0.85"/>
<circle cx="236.4" cy="429.8" r="3.2" fill="#ff922b" opacity="0.85"/>
<circle cx="247.1" cy="430.1" r="3.2" fill="#ff922b" opacity="0.85"/>
<circle cx="257.7" cy="429.7" r="3.2" fill="#ff922b" opacity="0.85"/>
<circle cx="268.4" cy="430.2" r="3.2" fill="#ff922b" opacity="0.85"/>
<circle cx="279.1" cy="127.7" r="3.2" fill="#ff922b" opacity="0.85"/>
<circle cx="289.7" cy="429.7" r="3.2" fill="#ff922b" opacity="0.85"/>
<circle cx="300.4" cy="430.1" r="3.2" fill="#ff922b" opacity="0.85"/>
<circle cx="311.1" cy="430.0" r="3.2" fill="#ff922b" opacity="0.85"/>
<circle cx="321.7" cy="430.1" r="3.2" fill="#ff922b" opacity="0.85"/>
<circle cx="332.4" cy="432.0" r="3.2" fill="#ff922b" opacity="0.85"/>
<circle cx="343.1" cy="430.0" r="3.2" fill="#ff922b" opacity="0.85"/>
<circle cx="353.7" cy="430.1" r="3.2" fill="#ff922b" opacity="0.85"/>
<circle cx="364.4" cy="428.6" r="3.2" fill="#ff922b" opacity="0.85"/>
<circle cx="375.1" cy="429.0" r="3.2" fill="#ff922b" opacity="0.85"/>
<circle cx="385.7" cy="429.0" r="3.2" fill="#ff922b" opacity="0.85"/>
<circle cx="396.4" cy="429.1" r="3.2" fill="#ff922b" opacity="0.85"/>
<circle cx="407.1" cy="429.3" r="3.2" fill="#ff922b" opacity="0.85"/>
<circle cx="417.7" cy="430.2" r="3.2" fill="#ff922b" opacity="0.85"/>
<circle cx="428.4" cy="429.9" r="3.2" fill="#ff922b" opacity="0.85"/>
<circle cx="439.1" cy="430.6" r="3.2" fill="#ff922b" opacity="0.85"/>
<circle cx="449.7" cy="430.5" r="3.2" fill="#ff922b" opacity="0.85"/>
<circle cx="460.4" cy="430.1" r="3.2" fill="#ff922b" opacity="0.85"/>
<circle cx="471.1" cy="430.1" r="3.2" fill="#ff922b" opacity="0.85"/>
<circle cx="481.7" cy="430.1" r="3.2" fill="#ff922b" opacity="0.85"/>
<circle cx="492.4" cy="430.6" r="3.2" fill="#ff922b" opacity="0.85"/>
<circle cx="503.1" cy="430.2" r="3.2" fill="#ff922b" opacity="0.85"/>
<circle cx="513.7" cy="429.0" r="3.2" fill="#ff922b" opacity="0.85"/>
<circle cx="524.4" cy="430.7" r="3.2" fill="#ff922b" opacity="0.85"/>
<circle cx="535.1" cy="429.7" r="3.2" fill="#ff922b" opacity="0.85"/>
<circle cx="545.7" cy="430.2" r="3.2" fill="#ff922b" opacity="0.85"/>
<circle cx="556.4" cy="430.2" r="3.2" fill="#ff922b" opacity="0.85"/>
<circle cx="567.1" cy="429.7" r="3.2" fill="#ff922b" opacity="0.85"/>
<circle cx="577.7" cy="429.4" r="3.2" fill="#ff922b" opacity="0.85"/>
<circle cx="588.4" cy="430.2" r="3.2" fill="#ff922b" opacity="0.85"/>
<circle cx="599.1" cy="431.9" r="3.2" fill="#ff922b" opacity="0.85"/>
<circle cx="609.7" cy="429.0" r="3.2" fill="#ff922b" opacity="0.85"/>
<circle cx="620.4" cy="430.6" r="3.2" fill="#ff922b" opacity="0.85"/>
<circle cx="631.1" cy="429.0" r="3.2" fill="#ff922b" opacity="0.85"/>
<circle cx="641.7" cy="429.4" r="3.2" fill="#ff922b" opacity="0.85"/>
<circle cx="652.4" cy="430.8" r="3.2" fill="#ff922b" opacity="0.85"/>
<circle cx="663.1" cy="429.1" r="3.2" fill="#ff922b" opacity="0.85"/>
<circle cx="673.7" cy="429.1" r="3.2" fill="#ff922b" opacity="0.85"/>
<circle cx="684.4" cy="428.2" r="3.2" fill="#ff922b" opacity="0.85"/>
<circle cx="695.1" cy="429.1" r="3.2" fill="#ff922b" opacity="0.85"/>
<circle cx="705.7" cy="429.7" r="3.2" fill="#ff922b" opacity="0.85"/>
<circle cx="716.4" cy="430.7" r="3.2" fill="#ff922b" opacity="0.85"/>
<circle cx="727.1" cy="430.3" r="3.2" fill="#ff922b" opacity="0.85"/>
<circle cx="737.7" cy="430.7" r="3.2" fill="#ff922b" opacity="0.85"/>
<circle cx="748.4" cy="428.2" r="3.2" fill="#ff922b" opacity="0.85"/>
<circle cx="759.1" cy="430.3" r="3.2" fill="#ff922b" opacity="0.85"/>
<circle cx="769.7" cy="428.8" r="3.2" fill="#ff922b" opacity="0.85"/>
<circle cx="780.4" cy="429.1" r="3.2" fill="#ff922b" opacity="0.85"/>
<circle cx="847" cy="84" r="5" fill="#ff922b"/>
<text x="866" y="88" font-size="13" fill="#c9d1d9" font-weight="700">Kāra</text>
<line x1="836" y1="108" x2="858" y2="108" stroke="#a7b0bc" stroke-width="2" stroke-dasharray="5 4"/>
<text x="866" y="112" font-size="13" fill="#c9d1d9" font-weight="400">Rust = 1.0×</text>
<circle cx="847" cy="132" r="4" fill="#3fb950"/>
<text x="866" y="136" font-size="13" fill="#c9d1d9" font-weight="400">C</text>
<circle cx="847" cy="156" r="4" fill="#bc8cff"/>
<text x="866" y="160" font-size="13" fill="#c9d1d9" font-weight="400">Go</text>
<text x="70" y="538" font-size="11.5" fill="#8b949e">Each dot is one benchmarked program (kata × approach); there is no connecting line because left-to-right order is not meaningful. Raw numbers: bench-results.json</text>
</svg>