<svg xmlns="http://www.w3.org/2000/svg" width="980" height="560" viewBox="0 0 980 560" font-family="-apple-system,Segoe UI,Helvetica,Arial,sans-serif">
<rect width="980" height="560" fill="#282c34"/>
<text x="70" y="34" font-size="21" font-weight="700" fill="#c9d1d9">Runtime peak memory — sequential lane</text>
<text x="70" y="56" font-size="13" fill="#8b949e">relative to Rust = 1.0 · lower = leaner · 99 programs</text>
<line x1="70" y1="456.0" x2="812" y2="456.0" stroke="#3b414b" stroke-width="1"/>
<text x="60" y="460.0" font-size="12" text-anchor="end" fill="#8b949e">0.0×</text>
<line x1="70" y1="429.0" x2="812" y2="429.0" stroke="#a7b0bc" stroke-width="2" stroke-dasharray="5 4"/>
<text x="60" y="433.0" font-size="12" text-anchor="end" fill="#aeb6c0" font-weight="700">1.0×</text>
<line x1="70" y1="380.4" x2="812" y2="380.4" stroke="#3b414b" stroke-width="1"/>
<text x="60" y="384.4" font-size="12" text-anchor="end" fill="#8b949e">2.8×</text>
<line x1="70" y1="304.8" x2="812" y2="304.8" stroke="#3b414b" stroke-width="1"/>
<text x="60" y="308.8" font-size="12" text-anchor="end" fill="#8b949e">5.6×</text>
<line x1="70" y1="229.2" x2="812" y2="229.2" stroke="#3b414b" stroke-width="1"/>
<text x="60" y="233.2" font-size="12" text-anchor="end" fill="#8b949e">8.4×</text>
<line x1="70" y1="153.6" x2="812" y2="153.6" stroke="#3b414b" stroke-width="1"/>
<text x="60" y="157.6" font-size="12" text-anchor="end" fill="#8b949e">11.2×</text>
<line x1="70" y1="78.0" x2="812" y2="78.0" stroke="#3b414b" stroke-width="1"/>
<text x="60" y="82.0" font-size="12" text-anchor="end" fill="#8b949e">14.0×</text>
<text x="812" y="423.0" font-size="11" text-anchor="end" fill="#aeb6c0">Rust baseline</text>
<line x1="70" y1="456" x2="812" y2="456" stroke="#3b414b"/>
<text x="441.0" y="478" font-size="11" text-anchor="middle" fill="#8b949e">99 programs (kata × approach) — x-order carries no meaning</text>
<circle cx="99.7" cy="430.2" r="2.6" fill="#3fb950" opacity="0.7"/>
<circle cx="106.6" cy="429.0" r="2.6" fill="#3fb950" opacity="0.7"/>
<circle cx="113.6" cy="430.1" r="2.6" fill="#3fb950" opacity="0.7"/>
<circle cx="120.6" cy="431.1" r="2.6" fill="#3fb950" opacity="0.7"/>
<circle cx="127.5" cy="429.1" r="2.6" fill="#3fb950" opacity="0.7"/>
<circle cx="134.5" cy="431.2" r="2.6" fill="#3fb950" opacity="0.7"/>
<circle cx="141.5" cy="432.7" r="2.6" fill="#3fb950" opacity="0.7"/>
<circle cx="148.4" cy="430.6" r="2.6" fill="#3fb950" opacity="0.7"/>
<circle cx="155.4" cy="431.0" r="2.6" fill="#3fb950" opacity="0.7"/>
<circle cx="162.4" cy="430.2" r="2.6" fill="#3fb950" opacity="0.7"/>
<circle cx="169.3" cy="430.6" r="2.6" fill="#3fb950" opacity="0.7"/>
<circle cx="176.3" cy="430.2" r="2.6" fill="#3fb950" opacity="0.7"/>
<circle cx="183.3" cy="430.2" r="2.6" fill="#3fb950" opacity="0.7"/>
<circle cx="190.2" cy="429.4" r="2.6" fill="#3fb950" opacity="0.7"/>
<circle cx="197.2" cy="430.1" r="2.6" fill="#3fb950" opacity="0.7"/>
<circle cx="204.2" cy="430.4" r="2.6" fill="#3fb950" opacity="0.7"/>
<circle cx="211.1" cy="429.8" r="2.6" fill="#3fb950" opacity="0.7"/>
<circle cx="218.1" cy="429.0" r="2.6" fill="#3fb950" opacity="0.7"/>
<circle cx="225.1" cy="429.0" r="2.6" fill="#3fb950" opacity="0.7"/>
<circle cx="232.0" cy="431.6" r="2.6" fill="#3fb950" opacity="0.7"/>
<circle cx="239.0" cy="425.7" r="2.6" fill="#3fb950" opacity="0.7"/>
<circle cx="246.0" cy="429.7" r="2.6" fill="#3fb950" opacity="0.7"/>
<circle cx="252.9" cy="435.0" r="2.6" fill="#3fb950" opacity="0.7"/>
<circle cx="259.9" cy="430.7" r="2.6" fill="#3fb950" opacity="0.7"/>
<circle cx="266.9" cy="429.8" r="2.6" fill="#3fb950" opacity="0.7"/>
<circle cx="273.8" cy="430.5" r="2.6" fill="#3fb950" opacity="0.7"/>
<circle cx="280.8" cy="429.0" r="2.6" fill="#3fb950" opacity="0.7"/>
<circle cx="287.8" cy="429.0" r="2.6" fill="#3fb950" opacity="0.7"/>
<circle cx="294.7" cy="429.3" r="2.6" fill="#3fb950" opacity="0.7"/>
<circle cx="301.7" cy="429.3" r="2.6" fill="#3fb950" opacity="0.7"/>
<circle cx="308.7" cy="430.6" r="2.6" fill="#3fb950" opacity="0.7"/>
<circle cx="315.6" cy="433.1" r="2.6" fill="#3fb950" opacity="0.7"/>
<circle cx="322.6" cy="431.0" r="2.6" fill="#3fb950" opacity="0.7"/>
<circle cx="329.5" cy="430.9" r="2.6" fill="#3fb950" opacity="0.7"/>
<circle cx="336.5" cy="430.5" r="2.6" fill="#3fb950" opacity="0.7"/>
<circle cx="343.5" cy="430.5" r="2.6" fill="#3fb950" opacity="0.7"/>
<circle cx="350.4" cy="430.5" r="2.6" fill="#3fb950" opacity="0.7"/>
<circle cx="357.4" cy="430.6" r="2.6" fill="#3fb950" opacity="0.7"/>
<circle cx="364.4" cy="429.8" r="2.6" fill="#3fb950" opacity="0.7"/>
<circle cx="371.3" cy="427.9" r="2.6" fill="#3fb950" opacity="0.7"/>
<circle cx="378.3" cy="429.3" r="2.6" fill="#3fb950" opacity="0.7"/>
<circle cx="385.3" cy="429.4" r="2.6" fill="#3fb950" opacity="0.7"/>
<circle cx="392.2" cy="430.2" r="2.6" fill="#3fb950" opacity="0.7"/>
<circle cx="399.2" cy="430.2" r="2.6" fill="#3fb950" opacity="0.7"/>
<circle cx="406.2" cy="454.3" r="2.6" fill="#3fb950" opacity="0.7"/>
<circle cx="413.1" cy="430.2" r="2.6" fill="#3fb950" opacity="0.7"/>
<circle cx="420.1" cy="430.2" r="2.6" fill="#3fb950" opacity="0.7"/>
<circle cx="427.1" cy="430.2" r="2.6" fill="#3fb950" opacity="0.7"/>
<circle cx="434.0" cy="430.9" r="2.6" fill="#3fb950" opacity="0.7"/>
<circle cx="441.0" cy="430.6" r="2.6" fill="#3fb950" opacity="0.7"/>
<circle cx="448.0" cy="439.5" r="2.6" fill="#3fb950" opacity="0.7"/>
<circle cx="454.9" cy="430.2" r="2.6" fill="#3fb950" opacity="0.7"/>
<circle cx="461.9" cy="429.8" r="2.6" fill="#3fb950" opacity="0.7"/>
<circle cx="468.9" cy="430.2" r="2.6" fill="#3fb950" opacity="0.7"/>
<circle cx="475.8" cy="430.2" r="2.6" fill="#3fb950" opacity="0.7"/>
<circle cx="482.8" cy="430.6" r="2.6" fill="#3fb950" opacity="0.7"/>
<circle cx="489.8" cy="429.8" r="2.6" fill="#3fb950" opacity="0.7"/>
<circle cx="496.7" cy="430.2" r="2.6" fill="#3fb950" opacity="0.7"/>
<circle cx="503.7" cy="429.8" r="2.6" fill="#3fb950" opacity="0.7"/>
<circle cx="510.7" cy="429.4" r="2.6" fill="#3fb950" opacity="0.7"/>
<circle cx="517.6" cy="429.4" r="2.6" fill="#3fb950" opacity="0.7"/>
<circle cx="524.6" cy="429.4" r="2.6" fill="#3fb950" opacity="0.7"/>
<circle cx="531.6" cy="429.0" r="2.6" fill="#3fb950" opacity="0.7"/>
<circle cx="538.5" cy="429.7" r="2.6" fill="#3fb950" opacity="0.7"/>
<circle cx="545.5" cy="429.0" r="2.6" fill="#3fb950" opacity="0.7"/>
<circle cx="552.5" cy="430.2" r="2.6" fill="#3fb950" opacity="0.7"/>
<circle cx="559.4" cy="430.6" r="2.6" fill="#3fb950" opacity="0.7"/>
<circle cx="566.4" cy="430.6" r="2.6" fill="#3fb950" opacity="0.7"/>
<circle cx="573.3" cy="430.2" r="2.6" fill="#3fb950" opacity="0.7"/>
<circle cx="580.3" cy="429.8" r="2.6" fill="#3fb950" opacity="0.7"/>
<circle cx="587.3" cy="434.9" r="2.6" fill="#3fb950" opacity="0.7"/>
<circle cx="594.2" cy="427.9" r="2.6" fill="#3fb950" opacity="0.7"/>
<circle cx="601.2" cy="428.3" r="2.6" fill="#3fb950" opacity="0.7"/>
<circle cx="608.2" cy="430.8" r="2.6" fill="#3fb950" opacity="0.7"/>
<circle cx="615.1" cy="435.2" r="2.6" fill="#3fb950" opacity="0.7"/>
<circle cx="622.1" cy="430.7" r="2.6" fill="#3fb950" opacity="0.7"/>
<circle cx="629.1" cy="430.2" r="2.6" fill="#3fb950" opacity="0.7"/>
<circle cx="636.0" cy="430.2" r="2.6" fill="#3fb950" opacity="0.7"/>
<circle cx="643.0" cy="430.6" r="2.6" fill="#3fb950" opacity="0.7"/>
<circle cx="650.0" cy="430.5" r="2.6" fill="#3fb950" opacity="0.7"/>
<circle cx="656.9" cy="429.4" r="2.6" fill="#3fb950" opacity="0.7"/>
<circle cx="663.9" cy="429.0" r="2.6" fill="#3fb950" opacity="0.7"/>
<circle cx="670.9" cy="430.2" r="2.6" fill="#3fb950" opacity="0.7"/>
<circle cx="677.8" cy="429.8" r="2.6" fill="#3fb950" opacity="0.7"/>
<circle cx="684.8" cy="429.1" r="2.6" fill="#3fb950" opacity="0.7"/>
<circle cx="691.8" cy="432.2" r="2.6" fill="#3fb950" opacity="0.7"/>
<circle cx="698.7" cy="433.5" r="2.6" fill="#3fb950" opacity="0.7"/>
<circle cx="705.7" cy="429.1" r="2.6" fill="#3fb950" opacity="0.7"/>
<circle cx="712.7" cy="429.1" r="2.6" fill="#3fb950" opacity="0.7"/>
<circle cx="719.6" cy="436.2" r="2.6" fill="#3fb950" opacity="0.7"/>
<circle cx="726.6" cy="436.0" r="2.6" fill="#3fb950" opacity="0.7"/>
<circle cx="733.6" cy="430.1" r="2.6" fill="#3fb950" opacity="0.7"/>
<circle cx="740.5" cy="430.7" r="2.6" fill="#3fb950" opacity="0.7"/>
<circle cx="747.5" cy="428.7" r="2.6" fill="#3fb950" opacity="0.7"/>
<circle cx="754.5" cy="429.1" r="2.6" fill="#3fb950" opacity="0.7"/>
<circle cx="761.4" cy="454.7" r="2.6" fill="#3fb950" opacity="0.7"/>
<circle cx="768.4" cy="430.9" r="2.6" fill="#3fb950" opacity="0.7"/>
<circle cx="775.4" cy="441.9" r="2.6" fill="#3fb950" opacity="0.7"/>
<circle cx="782.3" cy="419.1" r="2.6" fill="#3fb950" opacity="0.7"/>
<circle cx="100.9" cy="386.0" r="2.6" fill="#bc8cff" opacity="0.7"/>
<circle cx="107.9" cy="364.9" r="2.6" fill="#bc8cff" opacity="0.7"/>
<circle cx="114.9" cy="223.3" r="2.6" fill="#bc8cff" opacity="0.7"/>
<circle cx="121.8" cy="386.3" r="2.6" fill="#bc8cff" opacity="0.7"/>
<circle cx="128.8" cy="424.9" r="2.6" fill="#bc8cff" opacity="0.7"/>
<circle cx="135.8" cy="339.0" r="2.6" fill="#bc8cff" opacity="0.7"/>
<circle cx="142.7" cy="260.4" r="2.6" fill="#bc8cff" opacity="0.7"/>
<circle cx="149.7" cy="382.6" r="2.6" fill="#bc8cff" opacity="0.7"/>
<circle cx="156.7" cy="383.2" r="2.6" fill="#bc8cff" opacity="0.7"/>
<circle cx="163.6" cy="383.3" r="2.6" fill="#bc8cff" opacity="0.7"/>
<circle cx="170.6" cy="386.0" r="2.6" fill="#bc8cff" opacity="0.7"/>
<circle cx="177.6" cy="381.8" r="2.6" fill="#bc8cff" opacity="0.7"/>
<circle cx="184.5" cy="209.1" r="2.6" fill="#bc8cff" opacity="0.7"/>
<circle cx="191.5" cy="213.4" r="2.6" fill="#bc8cff" opacity="0.7"/>
<circle cx="198.5" cy="267.0" r="2.6" fill="#bc8cff" opacity="0.7"/>
<circle cx="205.4" cy="236.8" r="2.6" fill="#bc8cff" opacity="0.7"/>
<circle cx="212.4" cy="225.6" r="2.6" fill="#bc8cff" opacity="0.7"/>
<circle cx="219.4" cy="261.0" r="2.6" fill="#bc8cff" opacity="0.7"/>
<circle cx="226.3" cy="238.6" r="2.6" fill="#bc8cff" opacity="0.7"/>
<circle cx="233.3" cy="222.7" r="2.6" fill="#bc8cff" opacity="0.7"/>
<circle cx="240.3" cy="246.7" r="2.6" fill="#bc8cff" opacity="0.7"/>
<circle cx="247.2" cy="228.2" r="2.6" fill="#bc8cff" opacity="0.7"/>
<circle cx="254.2" cy="360.5" r="2.6" fill="#bc8cff" opacity="0.7"/>
<circle cx="261.2" cy="245.5" r="2.6" fill="#bc8cff" opacity="0.7"/>
<circle cx="268.1" cy="232.8" r="2.6" fill="#bc8cff" opacity="0.7"/>
<circle cx="275.1" cy="229.7" r="2.6" fill="#bc8cff" opacity="0.7"/>
<circle cx="282.1" cy="426.5" r="2.6" fill="#bc8cff" opacity="0.7"/>
<circle cx="289.0" cy="426.6" r="2.6" fill="#bc8cff" opacity="0.7"/>
<circle cx="296.0" cy="410.8" r="2.6" fill="#bc8cff" opacity="0.7"/>
<circle cx="302.9" cy="412.3" r="2.6" fill="#bc8cff" opacity="0.7"/>
<circle cx="309.9" cy="383.3" r="2.6" fill="#bc8cff" opacity="0.7"/>
<circle cx="316.9" cy="279.2" r="2.6" fill="#bc8cff" opacity="0.7"/>
<circle cx="323.8" cy="384.4" r="2.6" fill="#bc8cff" opacity="0.7"/>
<circle cx="330.8" cy="216.5" r="2.6" fill="#bc8cff" opacity="0.7"/>
<circle cx="337.8" cy="384.1" r="2.6" fill="#bc8cff" opacity="0.7"/>
<circle cx="344.7" cy="381.9" r="2.6" fill="#bc8cff" opacity="0.7"/>
<circle cx="351.7" cy="383.8" r="2.6" fill="#bc8cff" opacity="0.7"/>
<circle cx="358.7" cy="387.7" r="2.6" fill="#bc8cff" opacity="0.7"/>
<circle cx="365.6" cy="384.3" r="2.6" fill="#bc8cff" opacity="0.7"/>
<circle cx="372.6" cy="247.2" r="2.6" fill="#bc8cff" opacity="0.7"/>
<circle cx="379.6" cy="242.1" r="2.6" fill="#bc8cff" opacity="0.7"/>
<circle cx="386.5" cy="253.2" r="2.6" fill="#bc8cff" opacity="0.7"/>
<circle cx="393.5" cy="387.1" r="2.6" fill="#bc8cff" opacity="0.7"/>
<circle cx="400.5" cy="388.5" r="2.6" fill="#bc8cff" opacity="0.7"/>
<circle cx="407.4" cy="373.4" r="2.6" fill="#bc8cff" opacity="0.7"/>
<circle cx="414.4" cy="387.9" r="2.6" fill="#bc8cff" opacity="0.7"/>
<circle cx="421.4" cy="390.9" r="2.6" fill="#bc8cff" opacity="0.7"/>
<circle cx="428.3" cy="312.9" r="2.6" fill="#bc8cff" opacity="0.7"/>
<circle cx="435.3" cy="281.8" r="2.6" fill="#bc8cff" opacity="0.7"/>
<circle cx="442.3" cy="388.9" r="2.6" fill="#bc8cff" opacity="0.7"/>
<circle cx="449.2" cy="331.7" r="2.6" fill="#bc8cff" opacity="0.7"/>
<circle cx="456.2" cy="387.5" r="2.6" fill="#bc8cff" opacity="0.7"/>
<circle cx="463.2" cy="388.3" r="2.6" fill="#bc8cff" opacity="0.7"/>
<circle cx="470.1" cy="387.5" r="2.6" fill="#bc8cff" opacity="0.7"/>
<circle cx="477.1" cy="389.5" r="2.6" fill="#bc8cff" opacity="0.7"/>
<circle cx="484.1" cy="385.3" r="2.6" fill="#bc8cff" opacity="0.7"/>
<circle cx="491.0" cy="387.1" r="2.6" fill="#bc8cff" opacity="0.7"/>
<circle cx="498.0" cy="215.7" r="2.6" fill="#bc8cff" opacity="0.7"/>
<circle cx="505.0" cy="215.0" r="2.6" fill="#bc8cff" opacity="0.7"/>
<circle cx="511.9" cy="237.5" r="2.6" fill="#bc8cff" opacity="0.7"/>
<circle cx="518.9" cy="243.8" r="2.6" fill="#bc8cff" opacity="0.7"/>
<circle cx="525.9" cy="219.0" r="2.6" fill="#bc8cff" opacity="0.7"/>
<circle cx="532.8" cy="264.6" r="2.6" fill="#bc8cff" opacity="0.7"/>
<circle cx="539.8" cy="266.4" r="2.6" fill="#bc8cff" opacity="0.7"/>
<circle cx="546.7" cy="256.7" r="2.6" fill="#bc8cff" opacity="0.7"/>
<circle cx="553.7" cy="384.5" r="2.6" fill="#bc8cff" opacity="0.7"/>
<circle cx="560.7" cy="388.5" r="2.6" fill="#bc8cff" opacity="0.7"/>
<circle cx="567.6" cy="388.1" r="2.6" fill="#bc8cff" opacity="0.7"/>
<circle cx="574.6" cy="388.9" r="2.6" fill="#bc8cff" opacity="0.7"/>
<circle cx="581.6" cy="390.3" r="2.6" fill="#bc8cff" opacity="0.7"/>
<circle cx="588.5" cy="278.1" r="2.6" fill="#bc8cff" opacity="0.7"/>
<circle cx="595.5" cy="231.0" r="2.6" fill="#bc8cff" opacity="0.7"/>
<circle cx="602.5" cy="233.5" r="2.6" fill="#bc8cff" opacity="0.7"/>
<circle cx="609.4" cy="392.5" r="2.6" fill="#bc8cff" opacity="0.7"/>
<circle cx="616.4" cy="321.6" r="2.6" fill="#bc8cff" opacity="0.7"/>
<circle cx="623.4" cy="399.5" r="2.6" fill="#bc8cff" opacity="0.7"/>
<circle cx="630.3" cy="386.9" r="2.6" fill="#bc8cff" opacity="0.7"/>
<circle cx="637.3" cy="389.3" r="2.6" fill="#bc8cff" opacity="0.7"/>
<circle cx="644.3" cy="387.7" r="2.6" fill="#bc8cff" opacity="0.7"/>
<circle cx="651.2" cy="389.7" r="2.6" fill="#bc8cff" opacity="0.7"/>
<circle cx="658.2" cy="386.9" r="2.6" fill="#bc8cff" opacity="0.7"/>
<circle cx="665.2" cy="426.7" r="2.6" fill="#bc8cff" opacity="0.7"/>
<circle cx="672.1" cy="386.4" r="2.6" fill="#bc8cff" opacity="0.7"/>
<circle cx="679.1" cy="215.9" r="2.6" fill="#bc8cff" opacity="0.7"/>
<circle cx="686.1" cy="424.8" r="2.6" fill="#bc8cff" opacity="0.7"/>
<circle cx="693.0" cy="242.9" r="2.6" fill="#bc8cff" opacity="0.7"/>
<circle cx="700.0" cy="454.6" r="2.6" fill="#bc8cff" opacity="0.7"/>
<circle cx="707.0" cy="424.8" r="2.6" fill="#bc8cff" opacity="0.7"/>
<circle cx="713.9" cy="424.6" r="2.6" fill="#bc8cff" opacity="0.7"/>
<circle cx="720.9" cy="420.5" r="2.6" fill="#bc8cff" opacity="0.7"/>
<circle cx="727.9" cy="381.0" r="2.6" fill="#bc8cff" opacity="0.7"/>
<circle cx="734.8" cy="379.3" r="2.6" fill="#bc8cff" opacity="0.7"/>
<circle cx="741.8" cy="387.0" r="2.6" fill="#bc8cff" opacity="0.7"/>
<circle cx="748.8" cy="253.9" r="2.6" fill="#bc8cff" opacity="0.7"/>
<circle cx="755.7" cy="396.9" r="2.6" fill="#bc8cff" opacity="0.7"/>
<circle cx="762.7" cy="375.5" r="2.6" fill="#bc8cff" opacity="0.7"/>
<circle cx="769.7" cy="283.4" r="2.6" fill="#bc8cff" opacity="0.7"/>
<circle cx="776.6" cy="396.0" r="2.6" fill="#bc8cff" opacity="0.7"/>
<circle cx="783.6" cy="400.0" r="2.6" fill="#bc8cff" opacity="0.7"/>
<circle cx="98.4" cy="430.6" r="3.2" fill="#ff922b" opacity="0.85"/>
<circle cx="105.4" cy="429.7" r="3.2" fill="#ff922b" opacity="0.85"/>
<circle cx="112.3" cy="429.8" r="3.2" fill="#ff922b" opacity="0.85"/>
<circle cx="119.3" cy="428.3" r="3.2" fill="#ff922b" opacity="0.85"/>
<circle cx="126.3" cy="429.0" r="3.2" fill="#ff922b" opacity="0.85"/>
<circle cx="133.2" cy="426.8" r="3.2" fill="#ff922b" opacity="0.85"/>
<circle cx="140.2" cy="429.3" r="3.2" fill="#ff922b" opacity="0.85"/>
<circle cx="147.2" cy="430.6" r="3.2" fill="#ff922b" opacity="0.85"/>
<circle cx="154.1" cy="431.0" r="3.2" fill="#ff922b" opacity="0.85"/>
<circle cx="161.1" cy="430.6" r="3.2" fill="#ff922b" opacity="0.85"/>
<circle cx="168.1" cy="430.6" r="3.2" fill="#ff922b" opacity="0.85"/>
<circle cx="175.0" cy="430.2" r="3.2" fill="#ff922b" opacity="0.85"/>
<circle cx="182.0" cy="429.8" r="3.2" fill="#ff922b" opacity="0.85"/>
<circle cx="189.0" cy="429.8" r="3.2" fill="#ff922b" opacity="0.85"/>
<circle cx="195.9" cy="430.1" r="3.2" fill="#ff922b" opacity="0.85"/>
<circle cx="202.9" cy="429.7" r="3.2" fill="#ff922b" opacity="0.85"/>
<circle cx="209.9" cy="430.2" r="3.2" fill="#ff922b" opacity="0.85"/>
<circle cx="216.8" cy="127.7" r="3.2" fill="#ff922b" opacity="0.85"/>
<circle cx="223.8" cy="429.7" r="3.2" fill="#ff922b" opacity="0.85"/>
<circle cx="230.8" cy="430.1" r="3.2" fill="#ff922b" opacity="0.85"/>
<circle cx="237.7" cy="430.0" r="3.2" fill="#ff922b" opacity="0.85"/>
<circle cx="244.7" cy="430.1" r="3.2" fill="#ff922b" opacity="0.85"/>
<circle cx="251.7" cy="432.0" r="3.2" fill="#ff922b" opacity="0.85"/>
<circle cx="258.6" cy="430.0" r="3.2" fill="#ff922b" opacity="0.85"/>
<circle cx="265.6" cy="430.1" r="3.2" fill="#ff922b" opacity="0.85"/>
<circle cx="272.6" cy="428.6" r="3.2" fill="#ff922b" opacity="0.85"/>
<circle cx="279.5" cy="429.0" r="3.2" fill="#ff922b" opacity="0.85"/>
<circle cx="286.5" cy="429.0" r="3.2" fill="#ff922b" opacity="0.85"/>
<circle cx="293.5" cy="429.1" r="3.2" fill="#ff922b" opacity="0.85"/>
<circle cx="300.4" cy="429.3" r="3.2" fill="#ff922b" opacity="0.85"/>
<circle cx="307.4" cy="430.2" r="3.2" fill="#ff922b" opacity="0.85"/>
<circle cx="314.4" cy="429.9" r="3.2" fill="#ff922b" opacity="0.85"/>
<circle cx="321.3" cy="430.6" r="3.2" fill="#ff922b" opacity="0.85"/>
<circle cx="328.3" cy="430.5" r="3.2" fill="#ff922b" opacity="0.85"/>
<circle cx="335.3" cy="430.1" r="3.2" fill="#ff922b" opacity="0.85"/>
<circle cx="342.2" cy="430.1" r="3.2" fill="#ff922b" opacity="0.85"/>
<circle cx="349.2" cy="430.1" r="3.2" fill="#ff922b" opacity="0.85"/>
<circle cx="356.1" cy="430.6" r="3.2" fill="#ff922b" opacity="0.85"/>
<circle cx="363.1" cy="430.2" r="3.2" fill="#ff922b" opacity="0.85"/>
<circle cx="370.1" cy="429.0" r="3.2" fill="#ff922b" opacity="0.85"/>
<circle cx="377.0" cy="430.7" r="3.2" fill="#ff922b" opacity="0.85"/>
<circle cx="384.0" cy="429.7" r="3.2" fill="#ff922b" opacity="0.85"/>
<circle cx="391.0" cy="430.2" r="3.2" fill="#ff922b" opacity="0.85"/>
<circle cx="397.9" cy="430.2" r="3.2" fill="#ff922b" opacity="0.85"/>
<circle cx="404.9" cy="429.7" r="3.2" fill="#ff922b" opacity="0.85"/>
<circle cx="411.9" cy="430.2" r="3.2" fill="#ff922b" opacity="0.85"/>
<circle cx="418.8" cy="430.2" r="3.2" fill="#ff922b" opacity="0.85"/>
<circle cx="425.8" cy="429.7" r="3.2" fill="#ff922b" opacity="0.85"/>
<circle cx="432.8" cy="428.4" r="3.2" fill="#ff922b" opacity="0.85"/>
<circle cx="439.7" cy="430.2" r="3.2" fill="#ff922b" opacity="0.85"/>
<circle cx="446.7" cy="428.3" r="3.2" fill="#ff922b" opacity="0.85"/>
<circle cx="453.7" cy="429.8" r="3.2" fill="#ff922b" opacity="0.85"/>
<circle cx="460.6" cy="430.2" r="3.2" fill="#ff922b" opacity="0.85"/>
<circle cx="467.6" cy="430.2" r="3.2" fill="#ff922b" opacity="0.85"/>
<circle cx="474.6" cy="429.8" r="3.2" fill="#ff922b" opacity="0.85"/>
<circle cx="481.5" cy="430.6" r="3.2" fill="#ff922b" opacity="0.85"/>
<circle cx="488.5" cy="429.4" r="3.2" fill="#ff922b" opacity="0.85"/>
<circle cx="495.5" cy="429.4" r="3.2" fill="#ff922b" opacity="0.85"/>
<circle cx="502.4" cy="429.0" r="3.2" fill="#ff922b" opacity="0.85"/>
<circle cx="509.4" cy="429.4" r="3.2" fill="#ff922b" opacity="0.85"/>
<circle cx="516.4" cy="430.5" r="3.2" fill="#ff922b" opacity="0.85"/>
<circle cx="523.3" cy="429.8" r="3.2" fill="#ff922b" opacity="0.85"/>
<circle cx="530.3" cy="429.3" r="3.2" fill="#ff922b" opacity="0.85"/>
<circle cx="537.3" cy="429.0" r="3.2" fill="#ff922b" opacity="0.85"/>
<circle cx="544.2" cy="431.8" r="3.2" fill="#ff922b" opacity="0.85"/>
<circle cx="551.2" cy="430.2" r="3.2" fill="#ff922b" opacity="0.85"/>
<circle cx="558.2" cy="430.2" r="3.2" fill="#ff922b" opacity="0.85"/>
<circle cx="565.1" cy="430.6" r="3.2" fill="#ff922b" opacity="0.85"/>
<circle cx="572.1" cy="430.6" r="3.2" fill="#ff922b" opacity="0.85"/>
<circle cx="579.1" cy="429.8" r="3.2" fill="#ff922b" opacity="0.85"/>
<circle cx="586.0" cy="431.9" r="3.2" fill="#ff922b" opacity="0.85"/>
<circle cx="593.0" cy="429.4" r="3.2" fill="#ff922b" opacity="0.85"/>
<circle cx="599.9" cy="430.5" r="3.2" fill="#ff922b" opacity="0.85"/>
<circle cx="606.9" cy="431.1" r="3.2" fill="#ff922b" opacity="0.85"/>
<circle cx="613.9" cy="426.4" r="3.2" fill="#ff922b" opacity="0.85"/>
<circle cx="620.8" cy="430.4" r="3.2" fill="#ff922b" opacity="0.85"/>
<circle cx="627.8" cy="430.2" r="3.2" fill="#ff922b" opacity="0.85"/>
<circle cx="634.8" cy="430.2" r="3.2" fill="#ff922b" opacity="0.85"/>
<circle cx="641.7" cy="430.2" r="3.2" fill="#ff922b" opacity="0.85"/>
<circle cx="648.7" cy="429.4" r="3.2" fill="#ff922b" opacity="0.85"/>
<circle cx="655.7" cy="429.0" r="3.2" fill="#ff922b" opacity="0.85"/>
<circle cx="662.6" cy="429.0" r="3.2" fill="#ff922b" opacity="0.85"/>
<circle cx="669.6" cy="430.6" r="3.2" fill="#ff922b" opacity="0.85"/>
<circle cx="676.6" cy="429.4" r="3.2" fill="#ff922b" opacity="0.85"/>
<circle cx="683.5" cy="429.0" r="3.2" fill="#ff922b" opacity="0.85"/>
<circle cx="690.5" cy="429.4" r="3.2" fill="#ff922b" opacity="0.85"/>
<circle cx="697.5" cy="430.8" r="3.2" fill="#ff922b" opacity="0.85"/>
<circle cx="704.4" cy="429.1" r="3.2" fill="#ff922b" opacity="0.85"/>
<circle cx="711.4" cy="429.1" r="3.2" fill="#ff922b" opacity="0.85"/>
<circle cx="718.4" cy="428.2" r="3.2" fill="#ff922b" opacity="0.85"/>
<circle cx="725.3" cy="429.1" r="3.2" fill="#ff922b" opacity="0.85"/>
<circle cx="732.3" cy="429.7" r="3.2" fill="#ff922b" opacity="0.85"/>
<circle cx="739.3" cy="430.7" r="3.2" fill="#ff922b" opacity="0.85"/>
<circle cx="746.2" cy="430.3" r="3.2" fill="#ff922b" opacity="0.85"/>
<circle cx="753.2" cy="430.7" r="3.2" fill="#ff922b" opacity="0.85"/>
<circle cx="760.2" cy="428.2" r="3.2" fill="#ff922b" opacity="0.85"/>
<circle cx="767.1" cy="430.3" r="3.2" fill="#ff922b" opacity="0.85"/>
<circle cx="774.1" cy="428.8" r="3.2" fill="#ff922b" opacity="0.85"/>
<circle cx="781.1" cy="429.1" r="3.2" fill="#ff922b" opacity="0.85"/>
<circle cx="847" cy="84" r="5" fill="#ff922b"/>
<text x="866" y="88" font-size="13" fill="#c9d1d9" font-weight="700">Kāra</text>
<line x1="836" y1="108" x2="858" y2="108" stroke="#a7b0bc" stroke-width="2" stroke-dasharray="5 4"/>
<text x="866" y="112" font-size="13" fill="#c9d1d9" font-weight="400">Rust = 1.0×</text>
<circle cx="847" cy="132" r="4" fill="#3fb950"/>
<text x="866" y="136" font-size="13" fill="#c9d1d9" font-weight="400">C</text>
<circle cx="847" cy="156" r="4" fill="#bc8cff"/>
<text x="866" y="160" font-size="13" fill="#c9d1d9" font-weight="400">Go</text>
<text x="70" y="538" font-size="11.5" fill="#8b949e">Each dot is one benchmarked program (kata × approach); there is no connecting line because left-to-right order is not meaningful. Raw numbers: bench-results.json</text>
</svg>