<svg xmlns="http://www.w3.org/2000/svg" width="980" height="560" viewBox="0 0 980 560" font-family="-apple-system,Segoe UI,Helvetica,Arial,sans-serif">
<rect width="980" height="560" fill="#282c34"/>
<text x="70" y="34" font-size="21" font-weight="700" fill="#c9d1d9">Runtime peak memory — auto-parallel lane</text>
<text x="70" y="56" font-size="13" fill="#8b949e">relative to Rust = 1.0 · lower = leaner · 6 programs</text>
<line x1="70" y1="456.0" x2="812" y2="456.0" stroke="#3b414b" stroke-width="1"/>
<text x="60" y="460.0" font-size="12" text-anchor="end" fill="#8b949e">0.0×</text>
<line x1="70" y1="440.2" x2="812" y2="440.2" stroke="#a7b0bc" stroke-width="2" stroke-dasharray="5 4"/>
<text x="60" y="444.2" font-size="12" text-anchor="end" fill="#aeb6c0" font-weight="700">1.0×</text>
<line x1="70" y1="380.4" x2="812" y2="380.4" stroke="#3b414b" stroke-width="1"/>
<text x="60" y="384.4" font-size="12" text-anchor="end" fill="#8b949e">4.8×</text>
<line x1="70" y1="304.8" x2="812" y2="304.8" stroke="#3b414b" stroke-width="1"/>
<text x="60" y="308.8" font-size="12" text-anchor="end" fill="#8b949e">9.6×</text>
<line x1="70" y1="229.2" x2="812" y2="229.2" stroke="#3b414b" stroke-width="1"/>
<text x="60" y="233.2" font-size="12" text-anchor="end" fill="#8b949e">14.4×</text>
<line x1="70" y1="153.6" x2="812" y2="153.6" stroke="#3b414b" stroke-width="1"/>
<text x="60" y="157.6" font-size="12" text-anchor="end" fill="#8b949e">19.2×</text>
<line x1="70" y1="78.0" x2="812" y2="78.0" stroke="#3b414b" stroke-width="1"/>
<text x="60" y="82.0" font-size="12" text-anchor="end" fill="#8b949e">24.0×</text>
<text x="812" y="434.2" font-size="11" text-anchor="end" fill="#aeb6c0">Rust baseline</text>
<line x1="99.7" y1="456" x2="99.7" y2="461" stroke="#3b414b"/>
<g transform="translate(99.7,474) rotate(35)">
<text x="0" y="0" font-size="10.5" fill="#8b949e">#1</text>
<text x="0" y="12" font-size="10.5" fill="#8b949e">brute_force</text>
</g>
<line x1="236.2" y1="456" x2="236.2" y2="461" stroke="#3b414b"/>
<g transform="translate(236.2,474) rotate(35)">
<text x="0" y="0" font-size="10.5" fill="#8b949e">#125</text>
<text x="0" y="12" font-size="10.5" fill="#8b949e">valid_palindr…</text>
</g>
<line x1="372.7" y1="456" x2="372.7" y2="461" stroke="#3b414b"/>
<g transform="translate(372.7,474) rotate(35)">
<text x="0" y="0" font-size="10.5" fill="#8b949e">#171</text>
<text x="0" y="12" font-size="10.5" fill="#8b949e">column_number</text>
</g>
<line x1="509.3" y1="456" x2="509.3" y2="461" stroke="#3b414b"/>
<g transform="translate(509.3,474) rotate(35)">
<text x="0" y="0" font-size="10.5" fill="#8b949e">#204</text>
<text x="0" y="12" font-size="10.5" fill="#8b949e">count</text>
</g>
<line x1="645.8" y1="456" x2="645.8" y2="461" stroke="#3b414b"/>
<g transform="translate(645.8,474) rotate(35)">
<text x="0" y="0" font-size="10.5" fill="#8b949e">#394</text>
<text x="0" y="12" font-size="10.5" fill="#8b949e">decode_string</text>
</g>
<line x1="782.3" y1="456" x2="782.3" y2="461" stroke="#3b414b"/>
<g transform="translate(782.3,474) rotate(35)">
<text x="0" y="0" font-size="10.5" fill="#8b949e">#722</text>
<text x="0" y="12" font-size="10.5" fill="#8b949e">remove_commen…</text>
</g>
<circle cx="99.7" cy="443.3" r="4.0" fill="#3fb950" opacity="0.95"/>
<circle cx="236.2" cy="448.9" r="4.0" fill="#3fb950" opacity="0.95"/>
<circle cx="372.7" cy="446.0" r="4.0" fill="#3fb950" opacity="0.95"/>
<circle cx="509.3" cy="444.7" r="4.0" fill="#3fb950" opacity="0.95"/>
<circle cx="645.8" cy="440.8" r="4.0" fill="#3fb950" opacity="0.95"/>
<circle cx="782.3" cy="446.3" r="4.0" fill="#3fb950" opacity="0.95"/>
<circle cx="103.5" cy="418.6" r="4.0" fill="#bc8cff" opacity="0.95"/>
<circle cx="240.0" cy="393.5" r="4.0" fill="#bc8cff" opacity="0.95"/>
<circle cx="376.6" cy="435.1" r="4.0" fill="#bc8cff" opacity="0.95"/>
<circle cx="513.1" cy="429.2" r="4.0" fill="#bc8cff" opacity="0.95"/>
<circle cx="649.6" cy="401.4" r="4.0" fill="#bc8cff" opacity="0.95"/>
<circle cx="786.2" cy="401.1" r="4.0" fill="#bc8cff" opacity="0.95"/>
<circle cx="95.8" cy="429.8" r="5.0" fill="#ff922b" opacity="1.0"/>
<circle cx="232.4" cy="443.1" r="5.0" fill="#ff922b" opacity="1.0"/>
<circle cx="368.9" cy="436.4" r="5.0" fill="#ff922b" opacity="1.0"/>
<circle cx="505.4" cy="433.7" r="5.0" fill="#ff922b" opacity="1.0"/>
<circle cx="642.0" cy="80.9" r="5.0" fill="#ff922b" opacity="1.0"/>
<circle cx="778.5" cy="443.9" r="5.0" fill="#ff922b" opacity="1.0"/>
<circle cx="847" cy="84" r="5" fill="#ff922b"/>
<text x="866" y="88" font-size="13" fill="#c9d1d9" font-weight="700">Kāra</text>
<line x1="836" y1="108" x2="858" y2="108" stroke="#a7b0bc" stroke-width="2" stroke-dasharray="5 4"/>
<text x="866" y="112" font-size="13" fill="#c9d1d9" font-weight="400">Rust = 1.0×</text>
<circle cx="847" cy="132" r="4" fill="#3fb950"/>
<text x="866" y="136" font-size="13" fill="#c9d1d9" font-weight="400">C</text>
<circle cx="847" cy="156" r="4" fill="#bc8cff"/>
<text x="866" y="160" font-size="13" fill="#c9d1d9" font-weight="400">Go</text>
<text x="70" y="538" font-size="11.5" fill="#8b949e">Each dot is one benchmarked program (kata × approach); there is no connecting line because left-to-right order is not meaningful. Raw numbers: bench-results.json</text>
</svg>