<svg xmlns="http://www.w3.org/2000/svg" width="980" height="560" viewBox="0 0 980 560" font-family="-apple-system,Segoe UI,Helvetica,Arial,sans-serif">
<rect width="980" height="560" fill="#282c34"/>
<text x="70" y="34" font-size="21" font-weight="700" fill="#c9d1d9">Runtime peak memory — sequential lane</text>
<text x="70" y="56" font-size="13" fill="#8b949e">relative to Rust = 1.0 · lower = leaner · 20 programs</text>
<line x1="70" y1="456.0" x2="812" y2="456.0" stroke="#3b414b" stroke-width="1"/>
<text x="60" y="460.0" font-size="12" text-anchor="end" fill="#8b949e">0.0×</text>
<line x1="70" y1="380.4" x2="812" y2="380.4" stroke="#3b414b" stroke-width="1"/>
<text x="60" y="384.4" font-size="12" text-anchor="end" fill="#8b949e">2.0×</text>
<line x1="70" y1="304.8" x2="812" y2="304.8" stroke="#3b414b" stroke-width="1"/>
<text x="60" y="308.8" font-size="12" text-anchor="end" fill="#8b949e">4.0×</text>
<line x1="70" y1="229.2" x2="812" y2="229.2" stroke="#3b414b" stroke-width="1"/>
<text x="60" y="233.2" font-size="12" text-anchor="end" fill="#8b949e">6.0×</text>
<line x1="70" y1="153.6" x2="812" y2="153.6" stroke="#3b414b" stroke-width="1"/>
<text x="60" y="157.6" font-size="12" text-anchor="end" fill="#8b949e">8.0×</text>
<line x1="70" y1="78.0" x2="812" y2="78.0" stroke="#3b414b" stroke-width="1"/>
<text x="60" y="82.0" font-size="12" text-anchor="end" fill="#8b949e">10.0×</text>
<text x="812" y="412.2" font-size="11" text-anchor="end" fill="#aeb6c0">Rust baseline</text>
<line x1="99.7" y1="456" x2="99.7" y2="461" stroke="#3b414b"/>
<g transform="translate(99.7,474) rotate(35)">
<text x="0" y="0" font-size="10.5" fill="#8b949e">#1</text>
<text x="0" y="12" font-size="10.5" fill="#8b949e">brute_force</text>
</g>
<line x1="135.6" y1="456" x2="135.6" y2="461" stroke="#3b414b"/>
<g transform="translate(135.6,474) rotate(35)">
<text x="0" y="0" font-size="10.5" fill="#8b949e">#1</text>
<text x="0" y="12" font-size="10.5" fill="#8b949e">hash_map</text>
</g>
<line x1="171.5" y1="456" x2="171.5" y2="461" stroke="#3b414b"/>
<g transform="translate(171.5,474) rotate(35)">
<text x="0" y="0" font-size="10.5" fill="#8b949e">#2</text>
<text x="0" y="12" font-size="10.5" fill="#8b949e">iterative</text>
</g>
<line x1="207.5" y1="456" x2="207.5" y2="461" stroke="#3b414b"/>
<g transform="translate(207.5,474) rotate(35)">
<text x="0" y="0" font-size="10.5" fill="#8b949e">#3</text>
<text x="0" y="12" font-size="10.5" fill="#8b949e">sliding_window</text>
</g>
<line x1="243.4" y1="456" x2="243.4" y2="461" stroke="#3b414b"/>
<g transform="translate(243.4,474) rotate(35)">
<text x="0" y="0" font-size="10.5" fill="#8b949e">#4</text>
<text x="0" y="12" font-size="10.5" fill="#8b949e">binary_search…</text>
</g>
<line x1="279.3" y1="456" x2="279.3" y2="461" stroke="#3b414b"/>
<g transform="translate(279.3,474) rotate(35)">
<text x="0" y="0" font-size="10.5" fill="#8b949e">#5</text>
<text x="0" y="12" font-size="10.5" fill="#8b949e">expand_around…</text>
</g>
<line x1="315.3" y1="456" x2="315.3" y2="461" stroke="#3b414b"/>
<g transform="translate(315.3,474) rotate(35)">
<text x="0" y="0" font-size="10.5" fill="#8b949e">#6</text>
<text x="0" y="12" font-size="10.5" fill="#8b949e">row_buffers</text>
</g>
<line x1="351.2" y1="456" x2="351.2" y2="461" stroke="#3b414b"/>
<g transform="translate(351.2,474) rotate(35)">
<text x="0" y="0" font-size="10.5" fill="#8b949e">#7</text>
<text x="0" y="12" font-size="10.5" fill="#8b949e">reverse</text>
</g>
<line x1="387.1" y1="456" x2="387.1" y2="461" stroke="#3b414b"/>
<g transform="translate(387.1,474) rotate(35)">
<text x="0" y="0" font-size="10.5" fill="#8b949e">#8</text>
<text x="0" y="12" font-size="10.5" fill="#8b949e">atoi</text>
</g>
<line x1="423.0" y1="456" x2="423.0" y2="461" stroke="#3b414b"/>
<g transform="translate(423.0,474) rotate(35)">
<text x="0" y="0" font-size="10.5" fill="#8b949e">#9</text>
<text x="0" y="12" font-size="10.5" fill="#8b949e">palindrome</text>
</g>
<line x1="459.0" y1="456" x2="459.0" y2="461" stroke="#3b414b"/>
<g transform="translate(459.0,474) rotate(35)">
<text x="0" y="0" font-size="10.5" fill="#8b949e">#10</text>
<text x="0" y="12" font-size="10.5" fill="#8b949e">regex</text>
</g>
<line x1="494.9" y1="456" x2="494.9" y2="461" stroke="#3b414b"/>
<g transform="translate(494.9,474) rotate(35)">
<text x="0" y="0" font-size="10.5" fill="#8b949e">#11</text>
<text x="0" y="12" font-size="10.5" fill="#8b949e">container</text>
</g>
<line x1="530.8" y1="456" x2="530.8" y2="461" stroke="#3b414b"/>
<g transform="translate(530.8,474) rotate(35)">
<text x="0" y="0" font-size="10.5" fill="#8b949e">#12</text>
<text x="0" y="12" font-size="10.5" fill="#8b949e">greedy</text>
</g>
<line x1="566.7" y1="456" x2="566.7" y2="461" stroke="#3b414b"/>
<g transform="translate(566.7,474) rotate(35)">
<text x="0" y="0" font-size="10.5" fill="#8b949e">#13</text>
<text x="0" y="12" font-size="10.5" fill="#8b949e">greedy</text>
</g>
<line x1="602.7" y1="456" x2="602.7" y2="461" stroke="#3b414b"/>
<g transform="translate(602.7,474) rotate(35)">
<text x="0" y="0" font-size="10.5" fill="#8b949e">#14</text>
<text x="0" y="12" font-size="10.5" fill="#8b949e">vertical</text>
</g>
<line x1="638.6" y1="456" x2="638.6" y2="461" stroke="#3b414b"/>
<g transform="translate(638.6,474) rotate(35)">
<text x="0" y="0" font-size="10.5" fill="#8b949e">#15</text>
<text x="0" y="12" font-size="10.5" fill="#8b949e">three_sum</text>
</g>
<line x1="674.5" y1="456" x2="674.5" y2="461" stroke="#3b414b"/>
<g transform="translate(674.5,474) rotate(35)">
<text x="0" y="0" font-size="10.5" fill="#8b949e">#16</text>
<text x="0" y="12" font-size="10.5" fill="#8b949e">three_sum_clo…</text>
</g>
<line x1="710.5" y1="456" x2="710.5" y2="461" stroke="#3b414b"/>
<g transform="translate(710.5,474) rotate(35)">
<text x="0" y="0" font-size="10.5" fill="#8b949e">#17</text>
<text x="0" y="12" font-size="10.5" fill="#8b949e">letter_combin…</text>
</g>
<line x1="746.4" y1="456" x2="746.4" y2="461" stroke="#3b414b"/>
<g transform="translate(746.4,474) rotate(35)">
<text x="0" y="0" font-size="10.5" fill="#8b949e">#18</text>
<text x="0" y="12" font-size="10.5" fill="#8b949e">four_sum</text>
</g>
<line x1="782.3" y1="456" x2="782.3" y2="461" stroke="#3b414b"/>
<g transform="translate(782.3,474) rotate(35)">
<text x="0" y="0" font-size="10.5" fill="#8b949e">#204</text>
<text x="0" y="12" font-size="10.5" fill="#8b949e">count</text>
</g>
<circle cx="99.7" cy="420.3" r="4.0" fill="#3fb950" opacity="0.95"/>
<circle cx="135.6" cy="418.2" r="4.0" fill="#3fb950" opacity="0.95"/>
<circle cx="171.5" cy="419.2" r="4.0" fill="#3fb950" opacity="0.95"/>
<circle cx="207.5" cy="420.1" r="4.0" fill="#3fb950" opacity="0.95"/>
<circle cx="243.4" cy="418.3" r="4.0" fill="#3fb950" opacity="0.95"/>
<circle cx="279.3" cy="421.3" r="4.0" fill="#3fb950" opacity="0.95"/>
<circle cx="315.3" cy="423.2" r="4.0" fill="#3fb950" opacity="0.95"/>
<circle cx="351.2" cy="419.3" r="4.0" fill="#3fb950" opacity="0.95"/>
<circle cx="387.1" cy="420.3" r="4.0" fill="#3fb950" opacity="0.95"/>
<circle cx="423.0" cy="419.3" r="4.0" fill="#3fb950" opacity="0.95"/>
<circle cx="459.0" cy="419.3" r="4.0" fill="#3fb950" opacity="0.95"/>
<circle cx="494.9" cy="420.3" r="4.0" fill="#3fb950" opacity="0.95"/>
<circle cx="530.8" cy="418.8" r="4.0" fill="#3fb950" opacity="0.95"/>
<circle cx="566.7" cy="419.9" r="4.0" fill="#3fb950" opacity="0.95"/>
<circle cx="602.7" cy="418.7" r="4.0" fill="#3fb950" opacity="0.95"/>
<circle cx="638.6" cy="417.7" r="4.0" fill="#3fb950" opacity="0.95"/>
<circle cx="674.5" cy="418.8" r="4.0" fill="#3fb950" opacity="0.95"/>
<circle cx="710.5" cy="416.7" r="4.0" fill="#3fb950" opacity="0.95"/>
<circle cx="746.4" cy="417.7" r="4.0" fill="#3fb950" opacity="0.95"/>
<circle cx="782.3" cy="427.8" r="4.0" fill="#3fb950" opacity="0.95"/>
<circle cx="103.5" cy="360.2" r="4.0" fill="#bc8cff" opacity="0.95"/>
<circle cx="139.4" cy="332.5" r="4.0" fill="#bc8cff" opacity="0.95"/>
<circle cx="175.4" cy="141.1" r="4.0" fill="#bc8cff" opacity="0.95"/>
<circle cx="211.3" cy="365.3" r="4.0" fill="#bc8cff" opacity="0.95"/>
<circle cx="247.2" cy="412.2" r="4.0" fill="#bc8cff" opacity="0.95"/>
<circle cx="283.2" cy="356.9" r="4.0" fill="#bc8cff" opacity="0.95"/>
<circle cx="319.1" cy="199.5" r="4.0" fill="#bc8cff" opacity="0.95"/>
<circle cx="355.0" cy="350.7" r="4.0" fill="#bc8cff" opacity="0.95"/>
<circle cx="390.9" cy="357.0" r="4.0" fill="#bc8cff" opacity="0.95"/>
<circle cx="426.9" cy="353.4" r="4.0" fill="#bc8cff" opacity="0.95"/>
<circle cx="462.8" cy="357.7" r="4.0" fill="#bc8cff" opacity="0.95"/>
<circle cx="498.7" cy="359.1" r="4.0" fill="#bc8cff" opacity="0.95"/>
<circle cx="534.7" cy="99.2" r="4.0" fill="#bc8cff" opacity="0.95"/>
<circle cx="570.6" cy="115.9" r="4.0" fill="#bc8cff" opacity="0.95"/>
<circle cx="606.5" cy="170.6" r="4.0" fill="#bc8cff" opacity="0.95"/>
<circle cx="642.4" cy="141.7" r="4.0" fill="#bc8cff" opacity="0.95"/>
<circle cx="678.4" cy="135.3" r="4.0" fill="#bc8cff" opacity="0.95"/>
<circle cx="714.3" cy="158.5" r="4.0" fill="#bc8cff" opacity="0.95"/>
<circle cx="750.2" cy="155.6" r="4.0" fill="#bc8cff" opacity="0.95"/>
<circle cx="786.2" cy="359.6" r="4.0" fill="#bc8cff" opacity="0.95"/>
<circle cx="95.8" cy="420.8" r="5.0" fill="#ff922b" opacity="1.0"/>
<circle cx="131.8" cy="420.4" r="5.0" fill="#ff922b" opacity="1.0"/>
<circle cx="167.7" cy="417.7" r="5.0" fill="#ff922b" opacity="1.0"/>
<circle cx="203.6" cy="414.4" r="5.0" fill="#ff922b" opacity="1.0"/>
<circle cx="239.6" cy="418.3" r="5.0" fill="#ff922b" opacity="1.0"/>
<circle cx="275.5" cy="416.2" r="5.0" fill="#ff922b" opacity="1.0"/>
<circle cx="311.4" cy="418.6" r="5.0" fill="#ff922b" opacity="1.0"/>
<circle cx="347.3" cy="419.3" r="5.0" fill="#ff922b" opacity="1.0"/>
<circle cx="383.3" cy="420.3" r="5.0" fill="#ff922b" opacity="1.0"/>
<circle cx="419.2" cy="419.8" r="5.0" fill="#ff922b" opacity="1.0"/>
<circle cx="455.1" cy="419.3" r="5.0" fill="#ff922b" opacity="1.0"/>
<circle cx="491.1" cy="420.3" r="5.0" fill="#ff922b" opacity="1.0"/>
<circle cx="527.0" cy="419.9" r="5.0" fill="#ff922b" opacity="1.0"/>
<circle cx="562.9" cy="419.3" r="5.0" fill="#ff922b" opacity="1.0"/>
<circle cx="598.8" cy="417.7" r="5.0" fill="#ff922b" opacity="1.0"/>
<circle cx="634.8" cy="417.7" r="5.0" fill="#ff922b" opacity="1.0"/>
<circle cx="670.7" cy="418.2" r="5.0" fill="#ff922b" opacity="1.0"/>
<circle cx="706.6" cy="416.7" r="5.0" fill="#ff922b" opacity="1.0"/>
<circle cx="742.6" cy="418.2" r="5.0" fill="#ff922b" opacity="1.0"/>
<circle cx="778.5" cy="391.1" r="5.0" fill="#ff922b" opacity="1.0"/>
<circle cx="847" cy="84" r="5" fill="#ff922b"/>
<text x="866" y="88" font-size="13" fill="#c9d1d9" font-weight="700">Kāra</text>
<line x1="836" y1="108" x2="858" y2="108" stroke="#6e7681" stroke-width="1.6" stroke-dasharray="5 4"/>
<text x="866" y="112" font-size="13" fill="#c9d1d9" font-weight="400">Rust</text>
<circle cx="847" cy="132" r="4" fill="#3fb950"/>
<text x="866" y="136" font-size="13" fill="#c9d1d9" font-weight="400">C</text>
<circle cx="847" cy="156" r="4" fill="#bc8cff"/>
<text x="866" y="160" font-size="13" fill="#c9d1d9" font-weight="400">Go</text>
<text x="70" y="538" font-size="11.5" fill="#8b949e">Each dot is one benchmarked program (kata × approach); there is no connecting line because left-to-right order is not meaningful. Raw numbers: bench-results.json</text>
</svg>