<svg xmlns="http://www.w3.org/2000/svg" width="980" height="560" viewBox="0 0 980 560" font-family="-apple-system,Segoe UI,Helvetica,Arial,sans-serif">
<rect width="980" height="560" fill="#282c34"/>
<text x="70" y="34" font-size="21" font-weight="700" fill="#c9d1d9">Runtime peak memory — sequential lane</text>
<text x="70" y="56" font-size="13" fill="#8b949e">relative to Rust = 1.0 · lower = leaner · 44 programs</text>
<line x1="70" y1="456.0" x2="812" y2="456.0" stroke="#3b414b" stroke-width="1"/>
<text x="60" y="460.0" font-size="12" text-anchor="end" fill="#8b949e">0.0×</text>
<line x1="70" y1="418.2" x2="812" y2="418.2" stroke="#a7b0bc" stroke-width="2" stroke-dasharray="5 4"/>
<text x="60" y="422.2" font-size="12" text-anchor="end" fill="#aeb6c0" font-weight="700">1.0×</text>
<line x1="70" y1="380.4" x2="812" y2="380.4" stroke="#3b414b" stroke-width="1"/>
<text x="60" y="384.4" font-size="12" text-anchor="end" fill="#8b949e">2.0×</text>
<line x1="70" y1="304.8" x2="812" y2="304.8" stroke="#3b414b" stroke-width="1"/>
<text x="60" y="308.8" font-size="12" text-anchor="end" fill="#8b949e">4.0×</text>
<line x1="70" y1="229.2" x2="812" y2="229.2" stroke="#3b414b" stroke-width="1"/>
<text x="60" y="233.2" font-size="12" text-anchor="end" fill="#8b949e">6.0×</text>
<line x1="70" y1="153.6" x2="812" y2="153.6" stroke="#3b414b" stroke-width="1"/>
<text x="60" y="157.6" font-size="12" text-anchor="end" fill="#8b949e">8.0×</text>
<line x1="70" y1="78.0" x2="812" y2="78.0" stroke="#3b414b" stroke-width="1"/>
<text x="60" y="82.0" font-size="12" text-anchor="end" fill="#8b949e">10.0×</text>
<text x="812" y="412.2" font-size="11" text-anchor="end" fill="#aeb6c0">Rust baseline</text>
<line x1="70" y1="456" x2="812" y2="456" stroke="#3b414b"/>
<text x="441.0" y="478" font-size="11" text-anchor="middle" fill="#8b949e">44 programs (kata × approach) — x-order carries no meaning</text>
<circle cx="99.7" cy="420.3" r="2.6" fill="#3fb950" opacity="0.7"/>
<circle cx="115.6" cy="418.2" r="2.6" fill="#3fb950" opacity="0.7"/>
<circle cx="131.4" cy="419.8" r="2.6" fill="#3fb950" opacity="0.7"/>
<circle cx="147.3" cy="420.1" r="2.6" fill="#3fb950" opacity="0.7"/>
<circle cx="163.2" cy="418.3" r="2.6" fill="#3fb950" opacity="0.7"/>
<circle cx="179.1" cy="420.9" r="2.6" fill="#3fb950" opacity="0.7"/>
<circle cx="194.9" cy="423.8" r="2.6" fill="#3fb950" opacity="0.7"/>
<circle cx="210.8" cy="419.3" r="2.6" fill="#3fb950" opacity="0.7"/>
<circle cx="226.7" cy="420.3" r="2.6" fill="#3fb950" opacity="0.7"/>
<circle cx="242.6" cy="419.3" r="2.6" fill="#3fb950" opacity="0.7"/>
<circle cx="258.4" cy="419.3" r="2.6" fill="#3fb950" opacity="0.7"/>
<circle cx="274.3" cy="420.3" r="2.6" fill="#3fb950" opacity="0.7"/>
<circle cx="290.2" cy="418.8" r="2.6" fill="#3fb950" opacity="0.7"/>
<circle cx="306.1" cy="419.9" r="2.6" fill="#3fb950" opacity="0.7"/>
<circle cx="321.9" cy="418.7" r="2.6" fill="#3fb950" opacity="0.7"/>
<circle cx="337.8" cy="417.7" r="2.6" fill="#3fb950" opacity="0.7"/>
<circle cx="353.7" cy="418.8" r="2.6" fill="#3fb950" opacity="0.7"/>
<circle cx="369.6" cy="416.7" r="2.6" fill="#3fb950" opacity="0.7"/>
<circle cx="385.4" cy="417.7" r="2.6" fill="#3fb950" opacity="0.7"/>
<circle cx="401.3" cy="419.8" r="2.6" fill="#3fb950" opacity="0.7"/>
<circle cx="417.2" cy="417.7" r="2.6" fill="#3fb950" opacity="0.7"/>
<circle cx="433.1" cy="418.7" r="2.6" fill="#3fb950" opacity="0.7"/>
<circle cx="448.9" cy="426.4" r="2.6" fill="#3fb950" opacity="0.7"/>
<circle cx="464.8" cy="419.7" r="2.6" fill="#3fb950" opacity="0.7"/>
<circle cx="480.7" cy="419.8" r="2.6" fill="#3fb950" opacity="0.7"/>
<circle cx="496.6" cy="418.8" r="2.6" fill="#3fb950" opacity="0.7"/>
<circle cx="512.4" cy="418.2" r="2.6" fill="#3fb950" opacity="0.7"/>
<circle cx="528.3" cy="418.2" r="2.6" fill="#3fb950" opacity="0.7"/>
<circle cx="544.2" cy="419.0" r="2.6" fill="#3fb950" opacity="0.7"/>
<circle cx="560.1" cy="418.8" r="2.6" fill="#3fb950" opacity="0.7"/>
<circle cx="575.9" cy="419.8" r="2.6" fill="#3fb950" opacity="0.7"/>
<circle cx="591.8" cy="420.4" r="2.6" fill="#3fb950" opacity="0.7"/>
<circle cx="607.7" cy="427.8" r="2.6" fill="#3fb950" opacity="0.7"/>
<circle cx="623.6" cy="418.2" r="2.6" fill="#3fb950" opacity="0.7"/>
<circle cx="639.4" cy="419.3" r="2.6" fill="#3fb950" opacity="0.7"/>
<circle cx="655.3" cy="418.2" r="2.6" fill="#3fb950" opacity="0.7"/>
<circle cx="671.2" cy="424.5" r="2.6" fill="#3fb950" opacity="0.7"/>
<circle cx="687.1" cy="418.2" r="2.6" fill="#3fb950" opacity="0.7"/>
<circle cx="702.9" cy="418.3" r="2.6" fill="#3fb950" opacity="0.7"/>
<circle cx="718.8" cy="427.8" r="2.6" fill="#3fb950" opacity="0.7"/>
<circle cx="734.7" cy="418.7" r="2.6" fill="#3fb950" opacity="0.7"/>
<circle cx="750.6" cy="420.6" r="2.6" fill="#3fb950" opacity="0.7"/>
<circle cx="766.4" cy="436.1" r="2.6" fill="#3fb950" opacity="0.7"/>
<circle cx="782.3" cy="404.2" r="2.6" fill="#3fb950" opacity="0.7"/>
<circle cx="102.3" cy="360.2" r="2.6" fill="#bc8cff" opacity="0.7"/>
<circle cx="118.2" cy="332.5" r="2.6" fill="#bc8cff" opacity="0.7"/>
<circle cx="134.1" cy="125.0" r="2.6" fill="#bc8cff" opacity="0.7"/>
<circle cx="149.9" cy="365.3" r="2.6" fill="#bc8cff" opacity="0.7"/>
<circle cx="165.8" cy="412.2" r="2.6" fill="#bc8cff" opacity="0.7"/>
<circle cx="181.7" cy="351.2" r="2.6" fill="#bc8cff" opacity="0.7"/>
<circle cx="197.6" cy="191.4" r="2.6" fill="#bc8cff" opacity="0.7"/>
<circle cx="213.4" cy="350.7" r="2.6" fill="#bc8cff" opacity="0.7"/>
<circle cx="229.3" cy="357.0" r="2.6" fill="#bc8cff" opacity="0.7"/>
<circle cx="245.2" cy="353.4" r="2.6" fill="#bc8cff" opacity="0.7"/>
<circle cx="261.1" cy="357.7" r="2.6" fill="#bc8cff" opacity="0.7"/>
<circle cx="276.9" cy="359.1" r="2.6" fill="#bc8cff" opacity="0.7"/>
<circle cx="292.8" cy="99.2" r="2.6" fill="#bc8cff" opacity="0.7"/>
<circle cx="308.7" cy="115.9" r="2.6" fill="#bc8cff" opacity="0.7"/>
<circle cx="324.6" cy="170.6" r="2.6" fill="#bc8cff" opacity="0.7"/>
<circle cx="340.4" cy="141.7" r="2.6" fill="#bc8cff" opacity="0.7"/>
<circle cx="356.3" cy="135.3" r="2.6" fill="#bc8cff" opacity="0.7"/>
<circle cx="372.2" cy="158.5" r="2.6" fill="#bc8cff" opacity="0.7"/>
<circle cx="388.1" cy="155.6" r="2.6" fill="#bc8cff" opacity="0.7"/>
<circle cx="403.9" cy="126.1" r="2.6" fill="#bc8cff" opacity="0.7"/>
<circle cx="419.8" cy="134.5" r="2.6" fill="#bc8cff" opacity="0.7"/>
<circle cx="435.7" cy="132.6" r="2.6" fill="#bc8cff" opacity="0.7"/>
<circle cx="451.6" cy="310.6" r="2.6" fill="#bc8cff" opacity="0.7"/>
<circle cx="467.4" cy="155.6" r="2.6" fill="#bc8cff" opacity="0.7"/>
<circle cx="483.3" cy="117.0" r="2.6" fill="#bc8cff" opacity="0.7"/>
<circle cx="499.2" cy="126.0" r="2.6" fill="#bc8cff" opacity="0.7"/>
<circle cx="515.1" cy="415.1" r="2.6" fill="#bc8cff" opacity="0.7"/>
<circle cx="530.9" cy="415.0" r="2.6" fill="#bc8cff" opacity="0.7"/>
<circle cx="546.8" cy="396.9" r="2.6" fill="#bc8cff" opacity="0.7"/>
<circle cx="562.7" cy="395.5" r="2.6" fill="#bc8cff" opacity="0.7"/>
<circle cx="578.6" cy="115.9" r="2.6" fill="#bc8cff" opacity="0.7"/>
<circle cx="594.4" cy="357.6" r="2.6" fill="#bc8cff" opacity="0.7"/>
<circle cx="610.3" cy="220.5" r="2.6" fill="#bc8cff" opacity="0.7"/>
<circle cx="626.2" cy="414.8" r="2.6" fill="#bc8cff" opacity="0.7"/>
<circle cx="642.1" cy="352.8" r="2.6" fill="#bc8cff" opacity="0.7"/>
<circle cx="658.0" cy="412.3" r="2.6" fill="#bc8cff" opacity="0.7"/>
<circle cx="673.8" cy="454.1" r="2.6" fill="#bc8cff" opacity="0.7"/>
<circle cx="689.7" cy="412.2" r="2.6" fill="#bc8cff" opacity="0.7"/>
<circle cx="705.6" cy="412.2" r="2.6" fill="#bc8cff" opacity="0.7"/>
<circle cx="721.5" cy="359.6" r="2.6" fill="#bc8cff" opacity="0.7"/>
<circle cx="737.3" cy="351.3" r="2.6" fill="#bc8cff" opacity="0.7"/>
<circle cx="753.2" cy="362.2" r="2.6" fill="#bc8cff" opacity="0.7"/>
<circle cx="769.1" cy="371.3" r="2.6" fill="#bc8cff" opacity="0.7"/>
<circle cx="785.0" cy="390.1" r="2.6" fill="#bc8cff" opacity="0.7"/>
<circle cx="97.0" cy="420.8" r="3.2" fill="#ff922b" opacity="0.85"/>
<circle cx="112.9" cy="420.4" r="3.2" fill="#ff922b" opacity="0.85"/>
<circle cx="128.8" cy="418.7" r="3.2" fill="#ff922b" opacity="0.85"/>
<circle cx="144.7" cy="414.4" r="3.2" fill="#ff922b" opacity="0.85"/>
<circle cx="160.5" cy="418.3" r="3.2" fill="#ff922b" opacity="0.85"/>
<circle cx="176.4" cy="415.0" r="3.2" fill="#ff922b" opacity="0.85"/>
<circle cx="192.3" cy="419.0" r="3.2" fill="#ff922b" opacity="0.85"/>
<circle cx="208.2" cy="419.3" r="3.2" fill="#ff922b" opacity="0.85"/>
<circle cx="224.0" cy="420.3" r="3.2" fill="#ff922b" opacity="0.85"/>
<circle cx="239.9" cy="419.8" r="3.2" fill="#ff922b" opacity="0.85"/>
<circle cx="255.8" cy="419.3" r="3.2" fill="#ff922b" opacity="0.85"/>
<circle cx="271.7" cy="420.3" r="3.2" fill="#ff922b" opacity="0.85"/>
<circle cx="287.6" cy="419.9" r="3.2" fill="#ff922b" opacity="0.85"/>
<circle cx="303.4" cy="419.3" r="3.2" fill="#ff922b" opacity="0.85"/>
<circle cx="319.3" cy="417.7" r="3.2" fill="#ff922b" opacity="0.85"/>
<circle cx="335.2" cy="417.7" r="3.2" fill="#ff922b" opacity="0.85"/>
<circle cx="351.1" cy="418.2" r="3.2" fill="#ff922b" opacity="0.85"/>
<circle cx="366.9" cy="416.7" r="3.2" fill="#ff922b" opacity="0.85"/>
<circle cx="382.8" cy="418.2" r="3.2" fill="#ff922b" opacity="0.85"/>
<circle cx="398.7" cy="418.7" r="3.2" fill="#ff922b" opacity="0.85"/>
<circle cx="414.6" cy="412.3" r="3.2" fill="#ff922b" opacity="0.85"/>
<circle cx="430.4" cy="418.7" r="3.2" fill="#ff922b" opacity="0.85"/>
<circle cx="446.3" cy="412.1" r="3.2" fill="#ff922b" opacity="0.85"/>
<circle cx="462.2" cy="418.2" r="3.2" fill="#ff922b" opacity="0.85"/>
<circle cx="478.1" cy="419.8" r="3.2" fill="#ff922b" opacity="0.85"/>
<circle cx="493.9" cy="419.3" r="3.2" fill="#ff922b" opacity="0.85"/>
<circle cx="509.8" cy="418.2" r="3.2" fill="#ff922b" opacity="0.85"/>
<circle cx="525.7" cy="418.2" r="3.2" fill="#ff922b" opacity="0.85"/>
<circle cx="541.6" cy="418.8" r="3.2" fill="#ff922b" opacity="0.85"/>
<circle cx="557.4" cy="419.0" r="3.2" fill="#ff922b" opacity="0.85"/>
<circle cx="573.3" cy="417.7" r="3.2" fill="#ff922b" opacity="0.85"/>
<circle cx="589.2" cy="419.9" r="3.2" fill="#ff922b" opacity="0.85"/>
<circle cx="605.1" cy="421.7" r="3.2" fill="#ff922b" opacity="0.85"/>
<circle cx="620.9" cy="418.2" r="3.2" fill="#ff922b" opacity="0.85"/>
<circle cx="636.8" cy="419.3" r="3.2" fill="#ff922b" opacity="0.85"/>
<circle cx="652.7" cy="418.2" r="3.2" fill="#ff922b" opacity="0.85"/>
<circle cx="668.6" cy="421.3" r="3.2" fill="#ff922b" opacity="0.85"/>
<circle cx="684.4" cy="418.2" r="3.2" fill="#ff922b" opacity="0.85"/>
<circle cx="700.3" cy="418.2" r="3.2" fill="#ff922b" opacity="0.85"/>
<circle cx="716.2" cy="391.1" r="3.2" fill="#ff922b" opacity="0.85"/>
<circle cx="732.1" cy="419.2" r="3.2" fill="#ff922b" opacity="0.85"/>
<circle cx="747.9" cy="420.6" r="3.2" fill="#ff922b" opacity="0.85"/>
<circle cx="763.8" cy="415.7" r="3.2" fill="#ff922b" opacity="0.85"/>
<circle cx="779.7" cy="418.3" r="3.2" fill="#ff922b" opacity="0.85"/>
<circle cx="847" cy="84" r="5" fill="#ff922b"/>
<text x="866" y="88" font-size="13" fill="#c9d1d9" font-weight="700">Kāra</text>
<line x1="836" y1="108" x2="858" y2="108" stroke="#a7b0bc" stroke-width="2" stroke-dasharray="5 4"/>
<text x="866" y="112" font-size="13" fill="#c9d1d9" font-weight="400">Rust = 1.0×</text>
<circle cx="847" cy="132" r="4" fill="#3fb950"/>
<text x="866" y="136" font-size="13" fill="#c9d1d9" font-weight="400">C</text>
<circle cx="847" cy="156" r="4" fill="#bc8cff"/>
<text x="866" y="160" font-size="13" fill="#c9d1d9" font-weight="400">Go</text>
<text x="70" y="538" font-size="11.5" fill="#8b949e">Each dot is one benchmarked program (kata × approach); there is no connecting line because left-to-right order is not meaningful. Raw numbers: bench-results.json</text>
</svg>