<svg xmlns="http://www.w3.org/2000/svg" width="980" height="560" viewBox="0 0 980 560" font-family="-apple-system,Segoe UI,Helvetica,Arial,sans-serif">
<rect width="980" height="560" fill="#282c34"/>
<text x="70" y="34" font-size="21" font-weight="700" fill="#c9d1d9">Runtime peak memory — sequential lane</text>
<text x="70" y="56" font-size="13" fill="#8b949e">relative to Rust = 1.0 · lower = leaner · 95 programs</text>
<line x1="70" y1="456.0" x2="812" y2="456.0" stroke="#3b414b" stroke-width="1"/>
<text x="60" y="460.0" font-size="12" text-anchor="end" fill="#8b949e">0.0×</text>
<line x1="70" y1="429.0" x2="812" y2="429.0" stroke="#a7b0bc" stroke-width="2" stroke-dasharray="5 4"/>
<text x="60" y="433.0" font-size="12" text-anchor="end" fill="#aeb6c0" font-weight="700">1.0×</text>
<line x1="70" y1="380.4" x2="812" y2="380.4" stroke="#3b414b" stroke-width="1"/>
<text x="60" y="384.4" font-size="12" text-anchor="end" fill="#8b949e">2.8×</text>
<line x1="70" y1="304.8" x2="812" y2="304.8" stroke="#3b414b" stroke-width="1"/>
<text x="60" y="308.8" font-size="12" text-anchor="end" fill="#8b949e">5.6×</text>
<line x1="70" y1="229.2" x2="812" y2="229.2" stroke="#3b414b" stroke-width="1"/>
<text x="60" y="233.2" font-size="12" text-anchor="end" fill="#8b949e">8.4×</text>
<line x1="70" y1="153.6" x2="812" y2="153.6" stroke="#3b414b" stroke-width="1"/>
<text x="60" y="157.6" font-size="12" text-anchor="end" fill="#8b949e">11.2×</text>
<line x1="70" y1="78.0" x2="812" y2="78.0" stroke="#3b414b" stroke-width="1"/>
<text x="60" y="82.0" font-size="12" text-anchor="end" fill="#8b949e">14.0×</text>
<text x="812" y="423.0" font-size="11" text-anchor="end" fill="#aeb6c0">Rust baseline</text>
<line x1="70" y1="456" x2="812" y2="456" stroke="#3b414b"/>
<text x="441.0" y="478" font-size="11" text-anchor="middle" fill="#8b949e">95 programs (kata × approach) — x-order carries no meaning</text>
<circle cx="99.7" cy="430.2" r="2.6" fill="#3fb950" opacity="0.7"/>
<circle cx="106.9" cy="429.0" r="2.6" fill="#3fb950" opacity="0.7"/>
<circle cx="114.2" cy="430.1" r="2.6" fill="#3fb950" opacity="0.7"/>
<circle cx="121.5" cy="431.1" r="2.6" fill="#3fb950" opacity="0.7"/>
<circle cx="128.7" cy="429.1" r="2.6" fill="#3fb950" opacity="0.7"/>
<circle cx="136.0" cy="431.2" r="2.6" fill="#3fb950" opacity="0.7"/>
<circle cx="143.3" cy="432.7" r="2.6" fill="#3fb950" opacity="0.7"/>
<circle cx="150.5" cy="430.6" r="2.6" fill="#3fb950" opacity="0.7"/>
<circle cx="157.8" cy="431.0" r="2.6" fill="#3fb950" opacity="0.7"/>
<circle cx="165.0" cy="430.2" r="2.6" fill="#3fb950" opacity="0.7"/>
<circle cx="172.3" cy="430.6" r="2.6" fill="#3fb950" opacity="0.7"/>
<circle cx="179.6" cy="430.2" r="2.6" fill="#3fb950" opacity="0.7"/>
<circle cx="186.8" cy="430.2" r="2.6" fill="#3fb950" opacity="0.7"/>
<circle cx="194.1" cy="429.4" r="2.6" fill="#3fb950" opacity="0.7"/>
<circle cx="201.3" cy="430.1" r="2.6" fill="#3fb950" opacity="0.7"/>
<circle cx="208.6" cy="430.4" r="2.6" fill="#3fb950" opacity="0.7"/>
<circle cx="215.9" cy="429.8" r="2.6" fill="#3fb950" opacity="0.7"/>
<circle cx="223.1" cy="429.0" r="2.6" fill="#3fb950" opacity="0.7"/>
<circle cx="230.4" cy="429.0" r="2.6" fill="#3fb950" opacity="0.7"/>
<circle cx="237.7" cy="431.6" r="2.6" fill="#3fb950" opacity="0.7"/>
<circle cx="244.9" cy="425.7" r="2.6" fill="#3fb950" opacity="0.7"/>
<circle cx="252.2" cy="429.7" r="2.6" fill="#3fb950" opacity="0.7"/>
<circle cx="259.4" cy="435.0" r="2.6" fill="#3fb950" opacity="0.7"/>
<circle cx="266.7" cy="430.7" r="2.6" fill="#3fb950" opacity="0.7"/>
<circle cx="274.0" cy="429.8" r="2.6" fill="#3fb950" opacity="0.7"/>
<circle cx="281.2" cy="430.5" r="2.6" fill="#3fb950" opacity="0.7"/>
<circle cx="288.5" cy="429.0" r="2.6" fill="#3fb950" opacity="0.7"/>
<circle cx="295.8" cy="429.0" r="2.6" fill="#3fb950" opacity="0.7"/>
<circle cx="303.0" cy="429.3" r="2.6" fill="#3fb950" opacity="0.7"/>
<circle cx="310.3" cy="429.3" r="2.6" fill="#3fb950" opacity="0.7"/>
<circle cx="317.5" cy="430.6" r="2.6" fill="#3fb950" opacity="0.7"/>
<circle cx="324.8" cy="433.1" r="2.6" fill="#3fb950" opacity="0.7"/>
<circle cx="332.1" cy="431.0" r="2.6" fill="#3fb950" opacity="0.7"/>
<circle cx="339.3" cy="430.9" r="2.6" fill="#3fb950" opacity="0.7"/>
<circle cx="346.6" cy="430.5" r="2.6" fill="#3fb950" opacity="0.7"/>
<circle cx="353.9" cy="430.5" r="2.6" fill="#3fb950" opacity="0.7"/>
<circle cx="361.1" cy="430.5" r="2.6" fill="#3fb950" opacity="0.7"/>
<circle cx="368.4" cy="430.6" r="2.6" fill="#3fb950" opacity="0.7"/>
<circle cx="375.6" cy="429.8" r="2.6" fill="#3fb950" opacity="0.7"/>
<circle cx="382.9" cy="427.9" r="2.6" fill="#3fb950" opacity="0.7"/>
<circle cx="390.2" cy="429.3" r="2.6" fill="#3fb950" opacity="0.7"/>
<circle cx="397.4" cy="429.4" r="2.6" fill="#3fb950" opacity="0.7"/>
<circle cx="404.7" cy="430.2" r="2.6" fill="#3fb950" opacity="0.7"/>
<circle cx="412.0" cy="430.2" r="2.6" fill="#3fb950" opacity="0.7"/>
<circle cx="419.2" cy="454.3" r="2.6" fill="#3fb950" opacity="0.7"/>
<circle cx="426.5" cy="430.2" r="2.6" fill="#3fb950" opacity="0.7"/>
<circle cx="433.7" cy="430.2" r="2.6" fill="#3fb950" opacity="0.7"/>
<circle cx="441.0" cy="430.2" r="2.6" fill="#3fb950" opacity="0.7"/>
<circle cx="448.3" cy="430.9" r="2.6" fill="#3fb950" opacity="0.7"/>
<circle cx="455.5" cy="430.6" r="2.6" fill="#3fb950" opacity="0.7"/>
<circle cx="462.8" cy="439.5" r="2.6" fill="#3fb950" opacity="0.7"/>
<circle cx="470.0" cy="430.2" r="2.6" fill="#3fb950" opacity="0.7"/>
<circle cx="477.3" cy="429.8" r="2.6" fill="#3fb950" opacity="0.7"/>
<circle cx="484.6" cy="430.2" r="2.6" fill="#3fb950" opacity="0.7"/>
<circle cx="491.8" cy="430.2" r="2.6" fill="#3fb950" opacity="0.7"/>
<circle cx="499.1" cy="430.6" r="2.6" fill="#3fb950" opacity="0.7"/>
<circle cx="506.4" cy="429.8" r="2.6" fill="#3fb950" opacity="0.7"/>
<circle cx="513.6" cy="430.2" r="2.6" fill="#3fb950" opacity="0.7"/>
<circle cx="520.9" cy="429.8" r="2.6" fill="#3fb950" opacity="0.7"/>
<circle cx="528.1" cy="429.4" r="2.6" fill="#3fb950" opacity="0.7"/>
<circle cx="535.4" cy="429.4" r="2.6" fill="#3fb950" opacity="0.7"/>
<circle cx="542.7" cy="429.4" r="2.6" fill="#3fb950" opacity="0.7"/>
<circle cx="549.9" cy="429.0" r="2.6" fill="#3fb950" opacity="0.7"/>
<circle cx="557.2" cy="429.7" r="2.6" fill="#3fb950" opacity="0.7"/>
<circle cx="564.5" cy="429.0" r="2.6" fill="#3fb950" opacity="0.7"/>
<circle cx="571.7" cy="430.2" r="2.6" fill="#3fb950" opacity="0.7"/>
<circle cx="579.0" cy="430.6" r="2.6" fill="#3fb950" opacity="0.7"/>
<circle cx="586.2" cy="430.6" r="2.6" fill="#3fb950" opacity="0.7"/>
<circle cx="593.5" cy="430.2" r="2.6" fill="#3fb950" opacity="0.7"/>
<circle cx="600.8" cy="429.8" r="2.6" fill="#3fb950" opacity="0.7"/>
<circle cx="608.0" cy="434.9" r="2.6" fill="#3fb950" opacity="0.7"/>
<circle cx="615.3" cy="427.9" r="2.6" fill="#3fb950" opacity="0.7"/>
<circle cx="622.6" cy="428.3" r="2.6" fill="#3fb950" opacity="0.7"/>
<circle cx="629.8" cy="430.8" r="2.6" fill="#3fb950" opacity="0.7"/>
<circle cx="637.1" cy="435.2" r="2.6" fill="#3fb950" opacity="0.7"/>
<circle cx="644.3" cy="430.7" r="2.6" fill="#3fb950" opacity="0.7"/>
<circle cx="651.6" cy="430.2" r="2.6" fill="#3fb950" opacity="0.7"/>
<circle cx="658.9" cy="429.0" r="2.6" fill="#3fb950" opacity="0.7"/>
<circle cx="666.1" cy="430.2" r="2.6" fill="#3fb950" opacity="0.7"/>
<circle cx="673.4" cy="429.8" r="2.6" fill="#3fb950" opacity="0.7"/>
<circle cx="680.7" cy="429.1" r="2.6" fill="#3fb950" opacity="0.7"/>
<circle cx="687.9" cy="432.2" r="2.6" fill="#3fb950" opacity="0.7"/>
<circle cx="695.2" cy="433.5" r="2.6" fill="#3fb950" opacity="0.7"/>
<circle cx="702.4" cy="429.1" r="2.6" fill="#3fb950" opacity="0.7"/>
<circle cx="709.7" cy="429.1" r="2.6" fill="#3fb950" opacity="0.7"/>
<circle cx="717.0" cy="436.2" r="2.6" fill="#3fb950" opacity="0.7"/>
<circle cx="724.2" cy="436.0" r="2.6" fill="#3fb950" opacity="0.7"/>
<circle cx="731.5" cy="430.1" r="2.6" fill="#3fb950" opacity="0.7"/>
<circle cx="738.7" cy="430.7" r="2.6" fill="#3fb950" opacity="0.7"/>
<circle cx="746.0" cy="428.7" r="2.6" fill="#3fb950" opacity="0.7"/>
<circle cx="753.3" cy="429.1" r="2.6" fill="#3fb950" opacity="0.7"/>
<circle cx="760.5" cy="454.7" r="2.6" fill="#3fb950" opacity="0.7"/>
<circle cx="767.8" cy="430.9" r="2.6" fill="#3fb950" opacity="0.7"/>
<circle cx="775.1" cy="441.9" r="2.6" fill="#3fb950" opacity="0.7"/>
<circle cx="782.3" cy="419.1" r="2.6" fill="#3fb950" opacity="0.7"/>
<circle cx="101.0" cy="386.0" r="2.6" fill="#bc8cff" opacity="0.7"/>
<circle cx="108.3" cy="364.9" r="2.6" fill="#bc8cff" opacity="0.7"/>
<circle cx="115.5" cy="223.3" r="2.6" fill="#bc8cff" opacity="0.7"/>
<circle cx="122.8" cy="386.3" r="2.6" fill="#bc8cff" opacity="0.7"/>
<circle cx="130.0" cy="424.9" r="2.6" fill="#bc8cff" opacity="0.7"/>
<circle cx="137.3" cy="339.0" r="2.6" fill="#bc8cff" opacity="0.7"/>
<circle cx="144.6" cy="260.4" r="2.6" fill="#bc8cff" opacity="0.7"/>
<circle cx="151.8" cy="382.6" r="2.6" fill="#bc8cff" opacity="0.7"/>
<circle cx="159.1" cy="383.2" r="2.6" fill="#bc8cff" opacity="0.7"/>
<circle cx="166.4" cy="383.3" r="2.6" fill="#bc8cff" opacity="0.7"/>
<circle cx="173.6" cy="386.0" r="2.6" fill="#bc8cff" opacity="0.7"/>
<circle cx="180.9" cy="381.8" r="2.6" fill="#bc8cff" opacity="0.7"/>
<circle cx="188.1" cy="209.1" r="2.6" fill="#bc8cff" opacity="0.7"/>
<circle cx="195.4" cy="213.4" r="2.6" fill="#bc8cff" opacity="0.7"/>
<circle cx="202.7" cy="267.0" r="2.6" fill="#bc8cff" opacity="0.7"/>
<circle cx="209.9" cy="236.8" r="2.6" fill="#bc8cff" opacity="0.7"/>
<circle cx="217.2" cy="225.6" r="2.6" fill="#bc8cff" opacity="0.7"/>
<circle cx="224.5" cy="261.0" r="2.6" fill="#bc8cff" opacity="0.7"/>
<circle cx="231.7" cy="238.6" r="2.6" fill="#bc8cff" opacity="0.7"/>
<circle cx="239.0" cy="222.7" r="2.6" fill="#bc8cff" opacity="0.7"/>
<circle cx="246.2" cy="246.7" r="2.6" fill="#bc8cff" opacity="0.7"/>
<circle cx="253.5" cy="228.2" r="2.6" fill="#bc8cff" opacity="0.7"/>
<circle cx="260.8" cy="360.5" r="2.6" fill="#bc8cff" opacity="0.7"/>
<circle cx="268.0" cy="245.5" r="2.6" fill="#bc8cff" opacity="0.7"/>
<circle cx="275.3" cy="232.8" r="2.6" fill="#bc8cff" opacity="0.7"/>
<circle cx="282.5" cy="229.7" r="2.6" fill="#bc8cff" opacity="0.7"/>
<circle cx="289.8" cy="426.5" r="2.6" fill="#bc8cff" opacity="0.7"/>
<circle cx="297.1" cy="426.6" r="2.6" fill="#bc8cff" opacity="0.7"/>
<circle cx="304.3" cy="410.8" r="2.6" fill="#bc8cff" opacity="0.7"/>
<circle cx="311.6" cy="412.3" r="2.6" fill="#bc8cff" opacity="0.7"/>
<circle cx="318.9" cy="383.3" r="2.6" fill="#bc8cff" opacity="0.7"/>
<circle cx="326.1" cy="279.2" r="2.6" fill="#bc8cff" opacity="0.7"/>
<circle cx="333.4" cy="384.4" r="2.6" fill="#bc8cff" opacity="0.7"/>
<circle cx="340.6" cy="216.5" r="2.6" fill="#bc8cff" opacity="0.7"/>
<circle cx="347.9" cy="384.1" r="2.6" fill="#bc8cff" opacity="0.7"/>
<circle cx="355.2" cy="381.9" r="2.6" fill="#bc8cff" opacity="0.7"/>
<circle cx="362.4" cy="383.8" r="2.6" fill="#bc8cff" opacity="0.7"/>
<circle cx="369.7" cy="387.7" r="2.6" fill="#bc8cff" opacity="0.7"/>
<circle cx="377.0" cy="384.3" r="2.6" fill="#bc8cff" opacity="0.7"/>
<circle cx="384.2" cy="247.2" r="2.6" fill="#bc8cff" opacity="0.7"/>
<circle cx="391.5" cy="242.1" r="2.6" fill="#bc8cff" opacity="0.7"/>
<circle cx="398.7" cy="253.2" r="2.6" fill="#bc8cff" opacity="0.7"/>
<circle cx="406.0" cy="387.1" r="2.6" fill="#bc8cff" opacity="0.7"/>
<circle cx="413.3" cy="388.5" r="2.6" fill="#bc8cff" opacity="0.7"/>
<circle cx="420.5" cy="373.4" r="2.6" fill="#bc8cff" opacity="0.7"/>
<circle cx="427.8" cy="387.9" r="2.6" fill="#bc8cff" opacity="0.7"/>
<circle cx="435.1" cy="390.9" r="2.6" fill="#bc8cff" opacity="0.7"/>
<circle cx="442.3" cy="312.9" r="2.6" fill="#bc8cff" opacity="0.7"/>
<circle cx="449.6" cy="281.8" r="2.6" fill="#bc8cff" opacity="0.7"/>
<circle cx="456.8" cy="388.9" r="2.6" fill="#bc8cff" opacity="0.7"/>
<circle cx="464.1" cy="331.7" r="2.6" fill="#bc8cff" opacity="0.7"/>
<circle cx="471.4" cy="387.5" r="2.6" fill="#bc8cff" opacity="0.7"/>
<circle cx="478.6" cy="388.3" r="2.6" fill="#bc8cff" opacity="0.7"/>
<circle cx="485.9" cy="387.5" r="2.6" fill="#bc8cff" opacity="0.7"/>
<circle cx="493.2" cy="389.5" r="2.6" fill="#bc8cff" opacity="0.7"/>
<circle cx="500.4" cy="385.3" r="2.6" fill="#bc8cff" opacity="0.7"/>
<circle cx="507.7" cy="387.1" r="2.6" fill="#bc8cff" opacity="0.7"/>
<circle cx="514.9" cy="215.7" r="2.6" fill="#bc8cff" opacity="0.7"/>
<circle cx="522.2" cy="215.0" r="2.6" fill="#bc8cff" opacity="0.7"/>
<circle cx="529.5" cy="237.5" r="2.6" fill="#bc8cff" opacity="0.7"/>
<circle cx="536.7" cy="243.8" r="2.6" fill="#bc8cff" opacity="0.7"/>
<circle cx="544.0" cy="219.0" r="2.6" fill="#bc8cff" opacity="0.7"/>
<circle cx="551.2" cy="264.6" r="2.6" fill="#bc8cff" opacity="0.7"/>
<circle cx="558.5" cy="266.4" r="2.6" fill="#bc8cff" opacity="0.7"/>
<circle cx="565.8" cy="256.7" r="2.6" fill="#bc8cff" opacity="0.7"/>
<circle cx="573.0" cy="384.5" r="2.6" fill="#bc8cff" opacity="0.7"/>
<circle cx="580.3" cy="388.5" r="2.6" fill="#bc8cff" opacity="0.7"/>
<circle cx="587.6" cy="388.1" r="2.6" fill="#bc8cff" opacity="0.7"/>
<circle cx="594.8" cy="388.9" r="2.6" fill="#bc8cff" opacity="0.7"/>
<circle cx="602.1" cy="390.3" r="2.6" fill="#bc8cff" opacity="0.7"/>
<circle cx="609.3" cy="278.1" r="2.6" fill="#bc8cff" opacity="0.7"/>
<circle cx="616.6" cy="231.0" r="2.6" fill="#bc8cff" opacity="0.7"/>
<circle cx="623.9" cy="233.5" r="2.6" fill="#bc8cff" opacity="0.7"/>
<circle cx="631.1" cy="392.5" r="2.6" fill="#bc8cff" opacity="0.7"/>
<circle cx="638.4" cy="321.6" r="2.6" fill="#bc8cff" opacity="0.7"/>
<circle cx="645.7" cy="399.5" r="2.6" fill="#bc8cff" opacity="0.7"/>
<circle cx="652.9" cy="386.9" r="2.6" fill="#bc8cff" opacity="0.7"/>
<circle cx="660.2" cy="426.7" r="2.6" fill="#bc8cff" opacity="0.7"/>
<circle cx="667.4" cy="386.4" r="2.6" fill="#bc8cff" opacity="0.7"/>
<circle cx="674.7" cy="215.9" r="2.6" fill="#bc8cff" opacity="0.7"/>
<circle cx="682.0" cy="424.8" r="2.6" fill="#bc8cff" opacity="0.7"/>
<circle cx="689.2" cy="242.9" r="2.6" fill="#bc8cff" opacity="0.7"/>
<circle cx="696.5" cy="454.6" r="2.6" fill="#bc8cff" opacity="0.7"/>
<circle cx="703.8" cy="424.8" r="2.6" fill="#bc8cff" opacity="0.7"/>
<circle cx="711.0" cy="424.6" r="2.6" fill="#bc8cff" opacity="0.7"/>
<circle cx="718.3" cy="420.5" r="2.6" fill="#bc8cff" opacity="0.7"/>
<circle cx="725.5" cy="381.0" r="2.6" fill="#bc8cff" opacity="0.7"/>
<circle cx="732.8" cy="379.3" r="2.6" fill="#bc8cff" opacity="0.7"/>
<circle cx="740.1" cy="387.0" r="2.6" fill="#bc8cff" opacity="0.7"/>
<circle cx="747.3" cy="253.9" r="2.6" fill="#bc8cff" opacity="0.7"/>
<circle cx="754.6" cy="396.9" r="2.6" fill="#bc8cff" opacity="0.7"/>
<circle cx="761.8" cy="375.5" r="2.6" fill="#bc8cff" opacity="0.7"/>
<circle cx="769.1" cy="283.4" r="2.6" fill="#bc8cff" opacity="0.7"/>
<circle cx="776.4" cy="396.0" r="2.6" fill="#bc8cff" opacity="0.7"/>
<circle cx="783.6" cy="400.0" r="2.6" fill="#bc8cff" opacity="0.7"/>
<circle cx="98.4" cy="430.6" r="3.2" fill="#ff922b" opacity="0.85"/>
<circle cx="105.6" cy="429.7" r="3.2" fill="#ff922b" opacity="0.85"/>
<circle cx="112.9" cy="429.8" r="3.2" fill="#ff922b" opacity="0.85"/>
<circle cx="120.2" cy="428.3" r="3.2" fill="#ff922b" opacity="0.85"/>
<circle cx="127.4" cy="429.0" r="3.2" fill="#ff922b" opacity="0.85"/>
<circle cx="134.7" cy="426.8" r="3.2" fill="#ff922b" opacity="0.85"/>
<circle cx="141.9" cy="429.3" r="3.2" fill="#ff922b" opacity="0.85"/>
<circle cx="149.2" cy="430.6" r="3.2" fill="#ff922b" opacity="0.85"/>
<circle cx="156.5" cy="431.0" r="3.2" fill="#ff922b" opacity="0.85"/>
<circle cx="163.7" cy="430.6" r="3.2" fill="#ff922b" opacity="0.85"/>
<circle cx="171.0" cy="430.6" r="3.2" fill="#ff922b" opacity="0.85"/>
<circle cx="178.2" cy="430.2" r="3.2" fill="#ff922b" opacity="0.85"/>
<circle cx="185.5" cy="429.8" r="3.2" fill="#ff922b" opacity="0.85"/>
<circle cx="192.8" cy="429.8" r="3.2" fill="#ff922b" opacity="0.85"/>
<circle cx="200.0" cy="430.1" r="3.2" fill="#ff922b" opacity="0.85"/>
<circle cx="207.3" cy="429.7" r="3.2" fill="#ff922b" opacity="0.85"/>
<circle cx="214.6" cy="430.2" r="3.2" fill="#ff922b" opacity="0.85"/>
<circle cx="221.8" cy="127.7" r="3.2" fill="#ff922b" opacity="0.85"/>
<circle cx="229.1" cy="429.7" r="3.2" fill="#ff922b" opacity="0.85"/>
<circle cx="236.3" cy="430.1" r="3.2" fill="#ff922b" opacity="0.85"/>
<circle cx="243.6" cy="430.0" r="3.2" fill="#ff922b" opacity="0.85"/>
<circle cx="250.9" cy="430.1" r="3.2" fill="#ff922b" opacity="0.85"/>
<circle cx="258.1" cy="432.0" r="3.2" fill="#ff922b" opacity="0.85"/>
<circle cx="265.4" cy="430.0" r="3.2" fill="#ff922b" opacity="0.85"/>
<circle cx="272.7" cy="430.1" r="3.2" fill="#ff922b" opacity="0.85"/>
<circle cx="279.9" cy="428.6" r="3.2" fill="#ff922b" opacity="0.85"/>
<circle cx="287.2" cy="429.0" r="3.2" fill="#ff922b" opacity="0.85"/>
<circle cx="294.4" cy="429.0" r="3.2" fill="#ff922b" opacity="0.85"/>
<circle cx="301.7" cy="429.1" r="3.2" fill="#ff922b" opacity="0.85"/>
<circle cx="309.0" cy="429.3" r="3.2" fill="#ff922b" opacity="0.85"/>
<circle cx="316.2" cy="430.2" r="3.2" fill="#ff922b" opacity="0.85"/>
<circle cx="323.5" cy="429.9" r="3.2" fill="#ff922b" opacity="0.85"/>
<circle cx="330.8" cy="430.6" r="3.2" fill="#ff922b" opacity="0.85"/>
<circle cx="338.0" cy="430.5" r="3.2" fill="#ff922b" opacity="0.85"/>
<circle cx="345.3" cy="430.1" r="3.2" fill="#ff922b" opacity="0.85"/>
<circle cx="352.5" cy="430.1" r="3.2" fill="#ff922b" opacity="0.85"/>
<circle cx="359.8" cy="430.1" r="3.2" fill="#ff922b" opacity="0.85"/>
<circle cx="367.1" cy="430.6" r="3.2" fill="#ff922b" opacity="0.85"/>
<circle cx="374.3" cy="430.2" r="3.2" fill="#ff922b" opacity="0.85"/>
<circle cx="381.6" cy="429.0" r="3.2" fill="#ff922b" opacity="0.85"/>
<circle cx="388.8" cy="430.7" r="3.2" fill="#ff922b" opacity="0.85"/>
<circle cx="396.1" cy="429.7" r="3.2" fill="#ff922b" opacity="0.85"/>
<circle cx="403.4" cy="430.2" r="3.2" fill="#ff922b" opacity="0.85"/>
<circle cx="410.6" cy="430.2" r="3.2" fill="#ff922b" opacity="0.85"/>
<circle cx="417.9" cy="429.7" r="3.2" fill="#ff922b" opacity="0.85"/>
<circle cx="425.2" cy="430.2" r="3.2" fill="#ff922b" opacity="0.85"/>
<circle cx="432.4" cy="430.2" r="3.2" fill="#ff922b" opacity="0.85"/>
<circle cx="439.7" cy="429.7" r="3.2" fill="#ff922b" opacity="0.85"/>
<circle cx="446.9" cy="428.4" r="3.2" fill="#ff922b" opacity="0.85"/>
<circle cx="454.2" cy="430.2" r="3.2" fill="#ff922b" opacity="0.85"/>
<circle cx="461.5" cy="428.3" r="3.2" fill="#ff922b" opacity="0.85"/>
<circle cx="468.7" cy="429.8" r="3.2" fill="#ff922b" opacity="0.85"/>
<circle cx="476.0" cy="430.2" r="3.2" fill="#ff922b" opacity="0.85"/>
<circle cx="483.3" cy="430.2" r="3.2" fill="#ff922b" opacity="0.85"/>
<circle cx="490.5" cy="429.8" r="3.2" fill="#ff922b" opacity="0.85"/>
<circle cx="497.8" cy="430.6" r="3.2" fill="#ff922b" opacity="0.85"/>
<circle cx="505.0" cy="429.4" r="3.2" fill="#ff922b" opacity="0.85"/>
<circle cx="512.3" cy="429.4" r="3.2" fill="#ff922b" opacity="0.85"/>
<circle cx="519.6" cy="429.0" r="3.2" fill="#ff922b" opacity="0.85"/>
<circle cx="526.8" cy="429.4" r="3.2" fill="#ff922b" opacity="0.85"/>
<circle cx="534.1" cy="430.5" r="3.2" fill="#ff922b" opacity="0.85"/>
<circle cx="541.4" cy="429.8" r="3.2" fill="#ff922b" opacity="0.85"/>
<circle cx="548.6" cy="429.3" r="3.2" fill="#ff922b" opacity="0.85"/>
<circle cx="555.9" cy="429.0" r="3.2" fill="#ff922b" opacity="0.85"/>
<circle cx="563.1" cy="431.8" r="3.2" fill="#ff922b" opacity="0.85"/>
<circle cx="570.4" cy="430.2" r="3.2" fill="#ff922b" opacity="0.85"/>
<circle cx="577.7" cy="430.2" r="3.2" fill="#ff922b" opacity="0.85"/>
<circle cx="584.9" cy="430.6" r="3.2" fill="#ff922b" opacity="0.85"/>
<circle cx="592.2" cy="430.6" r="3.2" fill="#ff922b" opacity="0.85"/>
<circle cx="599.5" cy="429.8" r="3.2" fill="#ff922b" opacity="0.85"/>
<circle cx="606.7" cy="431.9" r="3.2" fill="#ff922b" opacity="0.85"/>
<circle cx="614.0" cy="429.4" r="3.2" fill="#ff922b" opacity="0.85"/>
<circle cx="621.2" cy="430.5" r="3.2" fill="#ff922b" opacity="0.85"/>
<circle cx="628.5" cy="431.1" r="3.2" fill="#ff922b" opacity="0.85"/>
<circle cx="635.8" cy="426.4" r="3.2" fill="#ff922b" opacity="0.85"/>
<circle cx="643.0" cy="430.4" r="3.2" fill="#ff922b" opacity="0.85"/>
<circle cx="650.3" cy="430.2" r="3.2" fill="#ff922b" opacity="0.85"/>
<circle cx="657.5" cy="429.0" r="3.2" fill="#ff922b" opacity="0.85"/>
<circle cx="664.8" cy="430.6" r="3.2" fill="#ff922b" opacity="0.85"/>
<circle cx="672.1" cy="429.4" r="3.2" fill="#ff922b" opacity="0.85"/>
<circle cx="679.3" cy="429.0" r="3.2" fill="#ff922b" opacity="0.85"/>
<circle cx="686.6" cy="429.4" r="3.2" fill="#ff922b" opacity="0.85"/>
<circle cx="693.9" cy="430.8" r="3.2" fill="#ff922b" opacity="0.85"/>
<circle cx="701.1" cy="429.1" r="3.2" fill="#ff922b" opacity="0.85"/>
<circle cx="708.4" cy="429.1" r="3.2" fill="#ff922b" opacity="0.85"/>
<circle cx="715.6" cy="428.2" r="3.2" fill="#ff922b" opacity="0.85"/>
<circle cx="722.9" cy="429.1" r="3.2" fill="#ff922b" opacity="0.85"/>
<circle cx="730.2" cy="429.7" r="3.2" fill="#ff922b" opacity="0.85"/>
<circle cx="737.4" cy="430.7" r="3.2" fill="#ff922b" opacity="0.85"/>
<circle cx="744.7" cy="430.3" r="3.2" fill="#ff922b" opacity="0.85"/>
<circle cx="752.0" cy="430.7" r="3.2" fill="#ff922b" opacity="0.85"/>
<circle cx="759.2" cy="428.2" r="3.2" fill="#ff922b" opacity="0.85"/>
<circle cx="766.5" cy="430.3" r="3.2" fill="#ff922b" opacity="0.85"/>
<circle cx="773.7" cy="428.8" r="3.2" fill="#ff922b" opacity="0.85"/>
<circle cx="781.0" cy="429.1" r="3.2" fill="#ff922b" opacity="0.85"/>
<circle cx="847" cy="84" r="5" fill="#ff922b"/>
<text x="866" y="88" font-size="13" fill="#c9d1d9" font-weight="700">Kāra</text>
<line x1="836" y1="108" x2="858" y2="108" stroke="#a7b0bc" stroke-width="2" stroke-dasharray="5 4"/>
<text x="866" y="112" font-size="13" fill="#c9d1d9" font-weight="400">Rust = 1.0×</text>
<circle cx="847" cy="132" r="4" fill="#3fb950"/>
<text x="866" y="136" font-size="13" fill="#c9d1d9" font-weight="400">C</text>
<circle cx="847" cy="156" r="4" fill="#bc8cff"/>
<text x="866" y="160" font-size="13" fill="#c9d1d9" font-weight="400">Go</text>
<text x="70" y="538" font-size="11.5" fill="#8b949e">Each dot is one benchmarked program (kata × approach); there is no connecting line because left-to-right order is not meaningful. Raw numbers: bench-results.json</text>
</svg>