<svg xmlns="http://www.w3.org/2000/svg" width="980" height="560" viewBox="0 0 980 560" font-family="-apple-system,Segoe UI,Helvetica,Arial,sans-serif">
<rect width="980" height="560" fill="#282c34"/>
<text x="70" y="34" font-size="21" font-weight="700" fill="#c9d1d9">Runtime peak memory — sequential lane</text>
<text x="70" y="56" font-size="13" fill="#8b949e">relative to Rust = 1.0 · lower = leaner · 46 programs</text>
<line x1="70" y1="456.0" x2="812" y2="456.0" stroke="#3b414b" stroke-width="1"/>
<text x="60" y="460.0" font-size="12" text-anchor="end" fill="#8b949e">0.0×</text>
<line x1="70" y1="418.2" x2="812" y2="418.2" stroke="#a7b0bc" stroke-width="2" stroke-dasharray="5 4"/>
<text x="60" y="422.2" font-size="12" text-anchor="end" fill="#aeb6c0" font-weight="700">1.0×</text>
<line x1="70" y1="380.4" x2="812" y2="380.4" stroke="#3b414b" stroke-width="1"/>
<text x="60" y="384.4" font-size="12" text-anchor="end" fill="#8b949e">2.0×</text>
<line x1="70" y1="304.8" x2="812" y2="304.8" stroke="#3b414b" stroke-width="1"/>
<text x="60" y="308.8" font-size="12" text-anchor="end" fill="#8b949e">4.0×</text>
<line x1="70" y1="229.2" x2="812" y2="229.2" stroke="#3b414b" stroke-width="1"/>
<text x="60" y="233.2" font-size="12" text-anchor="end" fill="#8b949e">6.0×</text>
<line x1="70" y1="153.6" x2="812" y2="153.6" stroke="#3b414b" stroke-width="1"/>
<text x="60" y="157.6" font-size="12" text-anchor="end" fill="#8b949e">8.0×</text>
<line x1="70" y1="78.0" x2="812" y2="78.0" stroke="#3b414b" stroke-width="1"/>
<text x="60" y="82.0" font-size="12" text-anchor="end" fill="#8b949e">10.0×</text>
<text x="812" y="412.2" font-size="11" text-anchor="end" fill="#aeb6c0">Rust baseline</text>
<line x1="70" y1="456" x2="812" y2="456" stroke="#3b414b"/>
<text x="441.0" y="478" font-size="11" text-anchor="middle" fill="#8b949e">46 programs (kata × approach) — x-order carries no meaning</text>
<circle cx="99.7" cy="420.3" r="2.6" fill="#3fb950" opacity="0.7"/>
<circle cx="114.8" cy="418.2" r="2.6" fill="#3fb950" opacity="0.7"/>
<circle cx="130.0" cy="419.8" r="2.6" fill="#3fb950" opacity="0.7"/>
<circle cx="145.2" cy="420.1" r="2.6" fill="#3fb950" opacity="0.7"/>
<circle cx="160.4" cy="418.3" r="2.6" fill="#3fb950" opacity="0.7"/>
<circle cx="175.5" cy="420.9" r="2.6" fill="#3fb950" opacity="0.7"/>
<circle cx="190.7" cy="423.8" r="2.6" fill="#3fb950" opacity="0.7"/>
<circle cx="205.9" cy="419.3" r="2.6" fill="#3fb950" opacity="0.7"/>
<circle cx="221.0" cy="420.3" r="2.6" fill="#3fb950" opacity="0.7"/>
<circle cx="236.2" cy="419.3" r="2.6" fill="#3fb950" opacity="0.7"/>
<circle cx="251.4" cy="419.3" r="2.6" fill="#3fb950" opacity="0.7"/>
<circle cx="266.5" cy="420.3" r="2.6" fill="#3fb950" opacity="0.7"/>
<circle cx="281.7" cy="418.8" r="2.6" fill="#3fb950" opacity="0.7"/>
<circle cx="296.9" cy="419.9" r="2.6" fill="#3fb950" opacity="0.7"/>
<circle cx="312.1" cy="418.7" r="2.6" fill="#3fb950" opacity="0.7"/>
<circle cx="327.2" cy="417.7" r="2.6" fill="#3fb950" opacity="0.7"/>
<circle cx="342.4" cy="418.8" r="2.6" fill="#3fb950" opacity="0.7"/>
<circle cx="357.6" cy="416.7" r="2.6" fill="#3fb950" opacity="0.7"/>
<circle cx="372.7" cy="417.7" r="2.6" fill="#3fb950" opacity="0.7"/>
<circle cx="387.9" cy="419.8" r="2.6" fill="#3fb950" opacity="0.7"/>
<circle cx="403.1" cy="417.7" r="2.6" fill="#3fb950" opacity="0.7"/>
<circle cx="418.2" cy="418.7" r="2.6" fill="#3fb950" opacity="0.7"/>
<circle cx="433.4" cy="426.4" r="2.6" fill="#3fb950" opacity="0.7"/>
<circle cx="448.6" cy="419.7" r="2.6" fill="#3fb950" opacity="0.7"/>
<circle cx="463.8" cy="419.8" r="2.6" fill="#3fb950" opacity="0.7"/>
<circle cx="478.9" cy="418.8" r="2.6" fill="#3fb950" opacity="0.7"/>
<circle cx="494.1" cy="418.2" r="2.6" fill="#3fb950" opacity="0.7"/>
<circle cx="509.3" cy="418.2" r="2.6" fill="#3fb950" opacity="0.7"/>
<circle cx="524.4" cy="419.0" r="2.6" fill="#3fb950" opacity="0.7"/>
<circle cx="539.6" cy="418.8" r="2.6" fill="#3fb950" opacity="0.7"/>
<circle cx="554.8" cy="420.5" r="2.6" fill="#3fb950" opacity="0.7"/>
<circle cx="569.9" cy="424.1" r="2.6" fill="#3fb950" opacity="0.7"/>
<circle cx="585.1" cy="419.8" r="2.6" fill="#3fb950" opacity="0.7"/>
<circle cx="600.3" cy="420.4" r="2.6" fill="#3fb950" opacity="0.7"/>
<circle cx="615.5" cy="427.8" r="2.6" fill="#3fb950" opacity="0.7"/>
<circle cx="630.6" cy="418.2" r="2.6" fill="#3fb950" opacity="0.7"/>
<circle cx="645.8" cy="419.3" r="2.6" fill="#3fb950" opacity="0.7"/>
<circle cx="661.0" cy="418.2" r="2.6" fill="#3fb950" opacity="0.7"/>
<circle cx="676.1" cy="424.5" r="2.6" fill="#3fb950" opacity="0.7"/>
<circle cx="691.3" cy="418.2" r="2.6" fill="#3fb950" opacity="0.7"/>
<circle cx="706.5" cy="418.3" r="2.6" fill="#3fb950" opacity="0.7"/>
<circle cx="721.6" cy="427.8" r="2.6" fill="#3fb950" opacity="0.7"/>
<circle cx="736.8" cy="418.7" r="2.6" fill="#3fb950" opacity="0.7"/>
<circle cx="752.0" cy="420.6" r="2.6" fill="#3fb950" opacity="0.7"/>
<circle cx="767.2" cy="436.1" r="2.6" fill="#3fb950" opacity="0.7"/>
<circle cx="782.3" cy="404.2" r="2.6" fill="#3fb950" opacity="0.7"/>
<circle cx="102.3" cy="360.2" r="2.6" fill="#bc8cff" opacity="0.7"/>
<circle cx="117.5" cy="332.5" r="2.6" fill="#bc8cff" opacity="0.7"/>
<circle cx="132.7" cy="125.0" r="2.6" fill="#bc8cff" opacity="0.7"/>
<circle cx="147.8" cy="365.3" r="2.6" fill="#bc8cff" opacity="0.7"/>
<circle cx="163.0" cy="412.2" r="2.6" fill="#bc8cff" opacity="0.7"/>
<circle cx="178.2" cy="351.2" r="2.6" fill="#bc8cff" opacity="0.7"/>
<circle cx="193.3" cy="191.4" r="2.6" fill="#bc8cff" opacity="0.7"/>
<circle cx="208.5" cy="350.7" r="2.6" fill="#bc8cff" opacity="0.7"/>
<circle cx="223.7" cy="357.0" r="2.6" fill="#bc8cff" opacity="0.7"/>
<circle cx="238.8" cy="353.4" r="2.6" fill="#bc8cff" opacity="0.7"/>
<circle cx="254.0" cy="357.7" r="2.6" fill="#bc8cff" opacity="0.7"/>
<circle cx="269.2" cy="359.1" r="2.6" fill="#bc8cff" opacity="0.7"/>
<circle cx="284.4" cy="99.2" r="2.6" fill="#bc8cff" opacity="0.7"/>
<circle cx="299.5" cy="115.9" r="2.6" fill="#bc8cff" opacity="0.7"/>
<circle cx="314.7" cy="170.6" r="2.6" fill="#bc8cff" opacity="0.7"/>
<circle cx="329.9" cy="141.7" r="2.6" fill="#bc8cff" opacity="0.7"/>
<circle cx="345.0" cy="135.3" r="2.6" fill="#bc8cff" opacity="0.7"/>
<circle cx="360.2" cy="158.5" r="2.6" fill="#bc8cff" opacity="0.7"/>
<circle cx="375.4" cy="155.6" r="2.6" fill="#bc8cff" opacity="0.7"/>
<circle cx="390.5" cy="126.1" r="2.6" fill="#bc8cff" opacity="0.7"/>
<circle cx="405.7" cy="134.5" r="2.6" fill="#bc8cff" opacity="0.7"/>
<circle cx="420.9" cy="132.6" r="2.6" fill="#bc8cff" opacity="0.7"/>
<circle cx="436.0" cy="310.6" r="2.6" fill="#bc8cff" opacity="0.7"/>
<circle cx="451.2" cy="155.6" r="2.6" fill="#bc8cff" opacity="0.7"/>
<circle cx="466.4" cy="117.0" r="2.6" fill="#bc8cff" opacity="0.7"/>
<circle cx="481.6" cy="126.0" r="2.6" fill="#bc8cff" opacity="0.7"/>
<circle cx="496.7" cy="415.1" r="2.6" fill="#bc8cff" opacity="0.7"/>
<circle cx="511.9" cy="415.0" r="2.6" fill="#bc8cff" opacity="0.7"/>
<circle cx="527.1" cy="396.9" r="2.6" fill="#bc8cff" opacity="0.7"/>
<circle cx="542.2" cy="395.5" r="2.6" fill="#bc8cff" opacity="0.7"/>
<circle cx="557.4" cy="360.7" r="2.6" fill="#bc8cff" opacity="0.7"/>
<circle cx="572.6" cy="199.4" r="2.6" fill="#bc8cff" opacity="0.7"/>
<circle cx="587.7" cy="115.9" r="2.6" fill="#bc8cff" opacity="0.7"/>
<circle cx="602.9" cy="357.6" r="2.6" fill="#bc8cff" opacity="0.7"/>
<circle cx="618.1" cy="220.5" r="2.6" fill="#bc8cff" opacity="0.7"/>
<circle cx="633.3" cy="414.8" r="2.6" fill="#bc8cff" opacity="0.7"/>
<circle cx="648.4" cy="352.8" r="2.6" fill="#bc8cff" opacity="0.7"/>
<circle cx="663.6" cy="412.3" r="2.6" fill="#bc8cff" opacity="0.7"/>
<circle cx="678.8" cy="454.1" r="2.6" fill="#bc8cff" opacity="0.7"/>
<circle cx="693.9" cy="412.2" r="2.6" fill="#bc8cff" opacity="0.7"/>
<circle cx="709.1" cy="412.2" r="2.6" fill="#bc8cff" opacity="0.7"/>
<circle cx="724.3" cy="359.6" r="2.6" fill="#bc8cff" opacity="0.7"/>
<circle cx="739.4" cy="351.3" r="2.6" fill="#bc8cff" opacity="0.7"/>
<circle cx="754.6" cy="362.2" r="2.6" fill="#bc8cff" opacity="0.7"/>
<circle cx="769.8" cy="371.3" r="2.6" fill="#bc8cff" opacity="0.7"/>
<circle cx="785.0" cy="390.1" r="2.6" fill="#bc8cff" opacity="0.7"/>
<circle cx="97.0" cy="420.8" r="3.2" fill="#ff922b" opacity="0.85"/>
<circle cx="112.2" cy="420.4" r="3.2" fill="#ff922b" opacity="0.85"/>
<circle cx="127.4" cy="418.7" r="3.2" fill="#ff922b" opacity="0.85"/>
<circle cx="142.6" cy="414.4" r="3.2" fill="#ff922b" opacity="0.85"/>
<circle cx="157.7" cy="418.3" r="3.2" fill="#ff922b" opacity="0.85"/>
<circle cx="172.9" cy="415.0" r="3.2" fill="#ff922b" opacity="0.85"/>
<circle cx="188.1" cy="419.0" r="3.2" fill="#ff922b" opacity="0.85"/>
<circle cx="203.2" cy="419.3" r="3.2" fill="#ff922b" opacity="0.85"/>
<circle cx="218.4" cy="420.3" r="3.2" fill="#ff922b" opacity="0.85"/>
<circle cx="233.6" cy="419.8" r="3.2" fill="#ff922b" opacity="0.85"/>
<circle cx="248.7" cy="419.3" r="3.2" fill="#ff922b" opacity="0.85"/>
<circle cx="263.9" cy="420.3" r="3.2" fill="#ff922b" opacity="0.85"/>
<circle cx="279.1" cy="419.9" r="3.2" fill="#ff922b" opacity="0.85"/>
<circle cx="294.3" cy="419.3" r="3.2" fill="#ff922b" opacity="0.85"/>
<circle cx="309.4" cy="417.7" r="3.2" fill="#ff922b" opacity="0.85"/>
<circle cx="324.6" cy="417.7" r="3.2" fill="#ff922b" opacity="0.85"/>
<circle cx="339.8" cy="418.2" r="3.2" fill="#ff922b" opacity="0.85"/>
<circle cx="354.9" cy="416.7" r="3.2" fill="#ff922b" opacity="0.85"/>
<circle cx="370.1" cy="418.2" r="3.2" fill="#ff922b" opacity="0.85"/>
<circle cx="385.3" cy="418.7" r="3.2" fill="#ff922b" opacity="0.85"/>
<circle cx="400.4" cy="412.3" r="3.2" fill="#ff922b" opacity="0.85"/>
<circle cx="415.6" cy="418.7" r="3.2" fill="#ff922b" opacity="0.85"/>
<circle cx="430.8" cy="412.1" r="3.2" fill="#ff922b" opacity="0.85"/>
<circle cx="446.0" cy="418.2" r="3.2" fill="#ff922b" opacity="0.85"/>
<circle cx="461.1" cy="419.8" r="3.2" fill="#ff922b" opacity="0.85"/>
<circle cx="476.3" cy="419.3" r="3.2" fill="#ff922b" opacity="0.85"/>
<circle cx="491.5" cy="418.2" r="3.2" fill="#ff922b" opacity="0.85"/>
<circle cx="506.6" cy="418.2" r="3.2" fill="#ff922b" opacity="0.85"/>
<circle cx="521.8" cy="418.8" r="3.2" fill="#ff922b" opacity="0.85"/>
<circle cx="537.0" cy="419.0" r="3.2" fill="#ff922b" opacity="0.85"/>
<circle cx="552.1" cy="420.5" r="3.2" fill="#ff922b" opacity="0.85"/>
<circle cx="567.3" cy="187.7" r="3.2" fill="#ff922b" opacity="0.85"/>
<circle cx="582.5" cy="417.7" r="3.2" fill="#ff922b" opacity="0.85"/>
<circle cx="597.6" cy="419.9" r="3.2" fill="#ff922b" opacity="0.85"/>
<circle cx="612.8" cy="421.7" r="3.2" fill="#ff922b" opacity="0.85"/>
<circle cx="628.0" cy="418.2" r="3.2" fill="#ff922b" opacity="0.85"/>
<circle cx="643.2" cy="419.3" r="3.2" fill="#ff922b" opacity="0.85"/>
<circle cx="658.3" cy="418.2" r="3.2" fill="#ff922b" opacity="0.85"/>
<circle cx="673.5" cy="421.3" r="3.2" fill="#ff922b" opacity="0.85"/>
<circle cx="688.7" cy="418.2" r="3.2" fill="#ff922b" opacity="0.85"/>
<circle cx="703.8" cy="418.2" r="3.2" fill="#ff922b" opacity="0.85"/>
<circle cx="719.0" cy="391.1" r="3.2" fill="#ff922b" opacity="0.85"/>
<circle cx="734.2" cy="419.2" r="3.2" fill="#ff922b" opacity="0.85"/>
<circle cx="749.3" cy="420.6" r="3.2" fill="#ff922b" opacity="0.85"/>
<circle cx="764.5" cy="415.7" r="3.2" fill="#ff922b" opacity="0.85"/>
<circle cx="779.7" cy="418.3" r="3.2" fill="#ff922b" opacity="0.85"/>
<circle cx="847" cy="84" r="5" fill="#ff922b"/>
<text x="866" y="88" font-size="13" fill="#c9d1d9" font-weight="700">Kāra</text>
<line x1="836" y1="108" x2="858" y2="108" stroke="#a7b0bc" stroke-width="2" stroke-dasharray="5 4"/>
<text x="866" y="112" font-size="13" fill="#c9d1d9" font-weight="400">Rust = 1.0×</text>
<circle cx="847" cy="132" r="4" fill="#3fb950"/>
<text x="866" y="136" font-size="13" fill="#c9d1d9" font-weight="400">C</text>
<circle cx="847" cy="156" r="4" fill="#bc8cff"/>
<text x="866" y="160" font-size="13" fill="#c9d1d9" font-weight="400">Go</text>
<text x="70" y="538" font-size="11.5" fill="#8b949e">Each dot is one benchmarked program (kata × approach); there is no connecting line because left-to-right order is not meaningful. Raw numbers: bench-results.json</text>
</svg>