<svg xmlns="http://www.w3.org/2000/svg" width="980" height="560" viewBox="0 0 980 560" font-family="-apple-system,Segoe UI,Helvetica,Arial,sans-serif">
<rect width="980" height="560" fill="#282c34"/>
<text x="70" y="34" font-size="21" font-weight="700" fill="#c9d1d9">Runtime peak memory — sequential lane</text>
<text x="70" y="56" font-size="13" fill="#8b949e">relative to Rust = 1.0 · lower = leaner · 90 programs</text>
<line x1="70" y1="456.0" x2="812" y2="456.0" stroke="#3b414b" stroke-width="1"/>
<text x="60" y="460.0" font-size="12" text-anchor="end" fill="#8b949e">0.0×</text>
<line x1="70" y1="429.0" x2="812" y2="429.0" stroke="#a7b0bc" stroke-width="2" stroke-dasharray="5 4"/>
<text x="60" y="433.0" font-size="12" text-anchor="end" fill="#aeb6c0" font-weight="700">1.0×</text>
<line x1="70" y1="380.4" x2="812" y2="380.4" stroke="#3b414b" stroke-width="1"/>
<text x="60" y="384.4" font-size="12" text-anchor="end" fill="#8b949e">2.8×</text>
<line x1="70" y1="304.8" x2="812" y2="304.8" stroke="#3b414b" stroke-width="1"/>
<text x="60" y="308.8" font-size="12" text-anchor="end" fill="#8b949e">5.6×</text>
<line x1="70" y1="229.2" x2="812" y2="229.2" stroke="#3b414b" stroke-width="1"/>
<text x="60" y="233.2" font-size="12" text-anchor="end" fill="#8b949e">8.4×</text>
<line x1="70" y1="153.6" x2="812" y2="153.6" stroke="#3b414b" stroke-width="1"/>
<text x="60" y="157.6" font-size="12" text-anchor="end" fill="#8b949e">11.2×</text>
<line x1="70" y1="78.0" x2="812" y2="78.0" stroke="#3b414b" stroke-width="1"/>
<text x="60" y="82.0" font-size="12" text-anchor="end" fill="#8b949e">14.0×</text>
<text x="812" y="423.0" font-size="11" text-anchor="end" fill="#aeb6c0">Rust baseline</text>
<line x1="70" y1="456" x2="812" y2="456" stroke="#3b414b"/>
<text x="441.0" y="478" font-size="11" text-anchor="middle" fill="#8b949e">90 programs (kata × approach) — x-order carries no meaning</text>
<circle cx="99.7" cy="430.2" r="2.6" fill="#3fb950" opacity="0.7"/>
<circle cx="107.4" cy="429.0" r="2.6" fill="#3fb950" opacity="0.7"/>
<circle cx="115.0" cy="430.1" r="2.6" fill="#3fb950" opacity="0.7"/>
<circle cx="122.7" cy="431.1" r="2.6" fill="#3fb950" opacity="0.7"/>
<circle cx="130.4" cy="429.1" r="2.6" fill="#3fb950" opacity="0.7"/>
<circle cx="138.0" cy="431.2" r="2.6" fill="#3fb950" opacity="0.7"/>
<circle cx="145.7" cy="432.7" r="2.6" fill="#3fb950" opacity="0.7"/>
<circle cx="153.4" cy="430.6" r="2.6" fill="#3fb950" opacity="0.7"/>
<circle cx="161.0" cy="431.0" r="2.6" fill="#3fb950" opacity="0.7"/>
<circle cx="168.7" cy="430.2" r="2.6" fill="#3fb950" opacity="0.7"/>
<circle cx="176.4" cy="430.6" r="2.6" fill="#3fb950" opacity="0.7"/>
<circle cx="184.1" cy="430.2" r="2.6" fill="#3fb950" opacity="0.7"/>
<circle cx="191.7" cy="430.2" r="2.6" fill="#3fb950" opacity="0.7"/>
<circle cx="199.4" cy="429.4" r="2.6" fill="#3fb950" opacity="0.7"/>
<circle cx="207.1" cy="430.1" r="2.6" fill="#3fb950" opacity="0.7"/>
<circle cx="214.7" cy="430.4" r="2.6" fill="#3fb950" opacity="0.7"/>
<circle cx="222.4" cy="429.8" r="2.6" fill="#3fb950" opacity="0.7"/>
<circle cx="230.1" cy="429.0" r="2.6" fill="#3fb950" opacity="0.7"/>
<circle cx="237.7" cy="429.0" r="2.6" fill="#3fb950" opacity="0.7"/>
<circle cx="245.4" cy="431.6" r="2.6" fill="#3fb950" opacity="0.7"/>
<circle cx="253.1" cy="425.7" r="2.6" fill="#3fb950" opacity="0.7"/>
<circle cx="260.8" cy="429.7" r="2.6" fill="#3fb950" opacity="0.7"/>
<circle cx="268.4" cy="435.0" r="2.6" fill="#3fb950" opacity="0.7"/>
<circle cx="276.1" cy="430.7" r="2.6" fill="#3fb950" opacity="0.7"/>
<circle cx="283.8" cy="429.8" r="2.6" fill="#3fb950" opacity="0.7"/>
<circle cx="291.4" cy="430.5" r="2.6" fill="#3fb950" opacity="0.7"/>
<circle cx="299.1" cy="429.0" r="2.6" fill="#3fb950" opacity="0.7"/>
<circle cx="306.8" cy="429.0" r="2.6" fill="#3fb950" opacity="0.7"/>
<circle cx="314.4" cy="429.3" r="2.6" fill="#3fb950" opacity="0.7"/>
<circle cx="322.1" cy="429.3" r="2.6" fill="#3fb950" opacity="0.7"/>
<circle cx="329.8" cy="430.6" r="2.6" fill="#3fb950" opacity="0.7"/>
<circle cx="337.5" cy="433.1" r="2.6" fill="#3fb950" opacity="0.7"/>
<circle cx="345.1" cy="431.0" r="2.6" fill="#3fb950" opacity="0.7"/>
<circle cx="352.8" cy="430.9" r="2.6" fill="#3fb950" opacity="0.7"/>
<circle cx="360.5" cy="430.5" r="2.6" fill="#3fb950" opacity="0.7"/>
<circle cx="368.1" cy="430.5" r="2.6" fill="#3fb950" opacity="0.7"/>
<circle cx="375.8" cy="430.5" r="2.6" fill="#3fb950" opacity="0.7"/>
<circle cx="383.5" cy="430.6" r="2.6" fill="#3fb950" opacity="0.7"/>
<circle cx="391.1" cy="429.8" r="2.6" fill="#3fb950" opacity="0.7"/>
<circle cx="398.8" cy="427.9" r="2.6" fill="#3fb950" opacity="0.7"/>
<circle cx="406.5" cy="429.3" r="2.6" fill="#3fb950" opacity="0.7"/>
<circle cx="414.2" cy="429.4" r="2.6" fill="#3fb950" opacity="0.7"/>
<circle cx="421.8" cy="430.2" r="2.6" fill="#3fb950" opacity="0.7"/>
<circle cx="429.5" cy="430.2" r="2.6" fill="#3fb950" opacity="0.7"/>
<circle cx="437.2" cy="454.3" r="2.6" fill="#3fb950" opacity="0.7"/>
<circle cx="444.8" cy="430.2" r="2.6" fill="#3fb950" opacity="0.7"/>
<circle cx="452.5" cy="430.2" r="2.6" fill="#3fb950" opacity="0.7"/>
<circle cx="460.2" cy="430.2" r="2.6" fill="#3fb950" opacity="0.7"/>
<circle cx="467.8" cy="430.9" r="2.6" fill="#3fb950" opacity="0.7"/>
<circle cx="475.5" cy="430.6" r="2.6" fill="#3fb950" opacity="0.7"/>
<circle cx="483.2" cy="439.5" r="2.6" fill="#3fb950" opacity="0.7"/>
<circle cx="490.9" cy="430.2" r="2.6" fill="#3fb950" opacity="0.7"/>
<circle cx="498.5" cy="429.8" r="2.6" fill="#3fb950" opacity="0.7"/>
<circle cx="506.2" cy="430.2" r="2.6" fill="#3fb950" opacity="0.7"/>
<circle cx="513.9" cy="430.2" r="2.6" fill="#3fb950" opacity="0.7"/>
<circle cx="521.5" cy="430.6" r="2.6" fill="#3fb950" opacity="0.7"/>
<circle cx="529.2" cy="429.8" r="2.6" fill="#3fb950" opacity="0.7"/>
<circle cx="536.9" cy="430.2" r="2.6" fill="#3fb950" opacity="0.7"/>
<circle cx="544.5" cy="429.8" r="2.6" fill="#3fb950" opacity="0.7"/>
<circle cx="552.2" cy="429.4" r="2.6" fill="#3fb950" opacity="0.7"/>
<circle cx="559.9" cy="429.4" r="2.6" fill="#3fb950" opacity="0.7"/>
<circle cx="567.6" cy="429.4" r="2.6" fill="#3fb950" opacity="0.7"/>
<circle cx="575.2" cy="429.0" r="2.6" fill="#3fb950" opacity="0.7"/>
<circle cx="582.9" cy="429.7" r="2.6" fill="#3fb950" opacity="0.7"/>
<circle cx="590.6" cy="429.0" r="2.6" fill="#3fb950" opacity="0.7"/>
<circle cx="598.2" cy="430.2" r="2.6" fill="#3fb950" opacity="0.7"/>
<circle cx="605.9" cy="430.6" r="2.6" fill="#3fb950" opacity="0.7"/>
<circle cx="613.6" cy="430.6" r="2.6" fill="#3fb950" opacity="0.7"/>
<circle cx="621.2" cy="430.2" r="2.6" fill="#3fb950" opacity="0.7"/>
<circle cx="628.9" cy="429.8" r="2.6" fill="#3fb950" opacity="0.7"/>
<circle cx="636.6" cy="434.9" r="2.6" fill="#3fb950" opacity="0.7"/>
<circle cx="644.3" cy="427.9" r="2.6" fill="#3fb950" opacity="0.7"/>
<circle cx="651.9" cy="429.0" r="2.6" fill="#3fb950" opacity="0.7"/>
<circle cx="659.6" cy="430.2" r="2.6" fill="#3fb950" opacity="0.7"/>
<circle cx="667.3" cy="429.8" r="2.6" fill="#3fb950" opacity="0.7"/>
<circle cx="674.9" cy="429.1" r="2.6" fill="#3fb950" opacity="0.7"/>
<circle cx="682.6" cy="432.2" r="2.6" fill="#3fb950" opacity="0.7"/>
<circle cx="690.3" cy="433.5" r="2.6" fill="#3fb950" opacity="0.7"/>
<circle cx="697.9" cy="429.1" r="2.6" fill="#3fb950" opacity="0.7"/>
<circle cx="705.6" cy="429.1" r="2.6" fill="#3fb950" opacity="0.7"/>
<circle cx="713.3" cy="436.2" r="2.6" fill="#3fb950" opacity="0.7"/>
<circle cx="721.0" cy="436.0" r="2.6" fill="#3fb950" opacity="0.7"/>
<circle cx="728.6" cy="430.1" r="2.6" fill="#3fb950" opacity="0.7"/>
<circle cx="736.3" cy="430.7" r="2.6" fill="#3fb950" opacity="0.7"/>
<circle cx="744.0" cy="428.7" r="2.6" fill="#3fb950" opacity="0.7"/>
<circle cx="751.6" cy="429.1" r="2.6" fill="#3fb950" opacity="0.7"/>
<circle cx="759.3" cy="454.7" r="2.6" fill="#3fb950" opacity="0.7"/>
<circle cx="767.0" cy="430.9" r="2.6" fill="#3fb950" opacity="0.7"/>
<circle cx="774.6" cy="441.9" r="2.6" fill="#3fb950" opacity="0.7"/>
<circle cx="782.3" cy="419.1" r="2.6" fill="#3fb950" opacity="0.7"/>
<circle cx="101.1" cy="386.0" r="2.6" fill="#bc8cff" opacity="0.7"/>
<circle cx="108.7" cy="364.9" r="2.6" fill="#bc8cff" opacity="0.7"/>
<circle cx="116.4" cy="223.3" r="2.6" fill="#bc8cff" opacity="0.7"/>
<circle cx="124.1" cy="386.3" r="2.6" fill="#bc8cff" opacity="0.7"/>
<circle cx="131.7" cy="424.9" r="2.6" fill="#bc8cff" opacity="0.7"/>
<circle cx="139.4" cy="339.0" r="2.6" fill="#bc8cff" opacity="0.7"/>
<circle cx="147.1" cy="260.4" r="2.6" fill="#bc8cff" opacity="0.7"/>
<circle cx="154.8" cy="382.6" r="2.6" fill="#bc8cff" opacity="0.7"/>
<circle cx="162.4" cy="383.2" r="2.6" fill="#bc8cff" opacity="0.7"/>
<circle cx="170.1" cy="383.3" r="2.6" fill="#bc8cff" opacity="0.7"/>
<circle cx="177.8" cy="386.0" r="2.6" fill="#bc8cff" opacity="0.7"/>
<circle cx="185.4" cy="381.8" r="2.6" fill="#bc8cff" opacity="0.7"/>
<circle cx="193.1" cy="209.1" r="2.6" fill="#bc8cff" opacity="0.7"/>
<circle cx="200.8" cy="213.4" r="2.6" fill="#bc8cff" opacity="0.7"/>
<circle cx="208.5" cy="267.0" r="2.6" fill="#bc8cff" opacity="0.7"/>
<circle cx="216.1" cy="236.8" r="2.6" fill="#bc8cff" opacity="0.7"/>
<circle cx="223.8" cy="225.6" r="2.6" fill="#bc8cff" opacity="0.7"/>
<circle cx="231.5" cy="261.0" r="2.6" fill="#bc8cff" opacity="0.7"/>
<circle cx="239.1" cy="238.6" r="2.6" fill="#bc8cff" opacity="0.7"/>
<circle cx="246.8" cy="222.7" r="2.6" fill="#bc8cff" opacity="0.7"/>
<circle cx="254.5" cy="246.7" r="2.6" fill="#bc8cff" opacity="0.7"/>
<circle cx="262.1" cy="228.2" r="2.6" fill="#bc8cff" opacity="0.7"/>
<circle cx="269.8" cy="360.5" r="2.6" fill="#bc8cff" opacity="0.7"/>
<circle cx="277.5" cy="245.5" r="2.6" fill="#bc8cff" opacity="0.7"/>
<circle cx="285.2" cy="232.8" r="2.6" fill="#bc8cff" opacity="0.7"/>
<circle cx="292.8" cy="229.7" r="2.6" fill="#bc8cff" opacity="0.7"/>
<circle cx="300.5" cy="426.5" r="2.6" fill="#bc8cff" opacity="0.7"/>
<circle cx="308.2" cy="426.6" r="2.6" fill="#bc8cff" opacity="0.7"/>
<circle cx="315.8" cy="410.8" r="2.6" fill="#bc8cff" opacity="0.7"/>
<circle cx="323.5" cy="412.3" r="2.6" fill="#bc8cff" opacity="0.7"/>
<circle cx="331.2" cy="383.3" r="2.6" fill="#bc8cff" opacity="0.7"/>
<circle cx="338.8" cy="279.2" r="2.6" fill="#bc8cff" opacity="0.7"/>
<circle cx="346.5" cy="384.4" r="2.6" fill="#bc8cff" opacity="0.7"/>
<circle cx="354.2" cy="216.5" r="2.6" fill="#bc8cff" opacity="0.7"/>
<circle cx="361.9" cy="384.1" r="2.6" fill="#bc8cff" opacity="0.7"/>
<circle cx="369.5" cy="381.9" r="2.6" fill="#bc8cff" opacity="0.7"/>
<circle cx="377.2" cy="383.8" r="2.6" fill="#bc8cff" opacity="0.7"/>
<circle cx="384.9" cy="387.7" r="2.6" fill="#bc8cff" opacity="0.7"/>
<circle cx="392.5" cy="384.3" r="2.6" fill="#bc8cff" opacity="0.7"/>
<circle cx="400.2" cy="247.2" r="2.6" fill="#bc8cff" opacity="0.7"/>
<circle cx="407.9" cy="242.1" r="2.6" fill="#bc8cff" opacity="0.7"/>
<circle cx="415.5" cy="253.2" r="2.6" fill="#bc8cff" opacity="0.7"/>
<circle cx="423.2" cy="387.1" r="2.6" fill="#bc8cff" opacity="0.7"/>
<circle cx="430.9" cy="388.5" r="2.6" fill="#bc8cff" opacity="0.7"/>
<circle cx="438.6" cy="373.4" r="2.6" fill="#bc8cff" opacity="0.7"/>
<circle cx="446.2" cy="387.9" r="2.6" fill="#bc8cff" opacity="0.7"/>
<circle cx="453.9" cy="390.9" r="2.6" fill="#bc8cff" opacity="0.7"/>
<circle cx="461.6" cy="312.9" r="2.6" fill="#bc8cff" opacity="0.7"/>
<circle cx="469.2" cy="281.8" r="2.6" fill="#bc8cff" opacity="0.7"/>
<circle cx="476.9" cy="388.9" r="2.6" fill="#bc8cff" opacity="0.7"/>
<circle cx="484.6" cy="331.7" r="2.6" fill="#bc8cff" opacity="0.7"/>
<circle cx="492.2" cy="387.5" r="2.6" fill="#bc8cff" opacity="0.7"/>
<circle cx="499.9" cy="388.3" r="2.6" fill="#bc8cff" opacity="0.7"/>
<circle cx="507.6" cy="387.5" r="2.6" fill="#bc8cff" opacity="0.7"/>
<circle cx="515.3" cy="389.5" r="2.6" fill="#bc8cff" opacity="0.7"/>
<circle cx="522.9" cy="385.3" r="2.6" fill="#bc8cff" opacity="0.7"/>
<circle cx="530.6" cy="387.1" r="2.6" fill="#bc8cff" opacity="0.7"/>
<circle cx="538.3" cy="215.7" r="2.6" fill="#bc8cff" opacity="0.7"/>
<circle cx="545.9" cy="215.0" r="2.6" fill="#bc8cff" opacity="0.7"/>
<circle cx="553.6" cy="237.5" r="2.6" fill="#bc8cff" opacity="0.7"/>
<circle cx="561.3" cy="243.8" r="2.6" fill="#bc8cff" opacity="0.7"/>
<circle cx="568.9" cy="219.0" r="2.6" fill="#bc8cff" opacity="0.7"/>
<circle cx="576.6" cy="264.6" r="2.6" fill="#bc8cff" opacity="0.7"/>
<circle cx="584.3" cy="266.4" r="2.6" fill="#bc8cff" opacity="0.7"/>
<circle cx="592.0" cy="256.7" r="2.6" fill="#bc8cff" opacity="0.7"/>
<circle cx="599.6" cy="384.5" r="2.6" fill="#bc8cff" opacity="0.7"/>
<circle cx="607.3" cy="388.5" r="2.6" fill="#bc8cff" opacity="0.7"/>
<circle cx="615.0" cy="388.1" r="2.6" fill="#bc8cff" opacity="0.7"/>
<circle cx="622.6" cy="388.9" r="2.6" fill="#bc8cff" opacity="0.7"/>
<circle cx="630.3" cy="390.3" r="2.6" fill="#bc8cff" opacity="0.7"/>
<circle cx="638.0" cy="278.1" r="2.6" fill="#bc8cff" opacity="0.7"/>
<circle cx="645.6" cy="231.0" r="2.6" fill="#bc8cff" opacity="0.7"/>
<circle cx="653.3" cy="426.7" r="2.6" fill="#bc8cff" opacity="0.7"/>
<circle cx="661.0" cy="386.4" r="2.6" fill="#bc8cff" opacity="0.7"/>
<circle cx="668.7" cy="215.9" r="2.6" fill="#bc8cff" opacity="0.7"/>
<circle cx="676.3" cy="424.8" r="2.6" fill="#bc8cff" opacity="0.7"/>
<circle cx="684.0" cy="242.9" r="2.6" fill="#bc8cff" opacity="0.7"/>
<circle cx="691.7" cy="454.6" r="2.6" fill="#bc8cff" opacity="0.7"/>
<circle cx="699.3" cy="424.8" r="2.6" fill="#bc8cff" opacity="0.7"/>
<circle cx="707.0" cy="424.6" r="2.6" fill="#bc8cff" opacity="0.7"/>
<circle cx="714.7" cy="420.5" r="2.6" fill="#bc8cff" opacity="0.7"/>
<circle cx="722.3" cy="381.0" r="2.6" fill="#bc8cff" opacity="0.7"/>
<circle cx="730.0" cy="379.3" r="2.6" fill="#bc8cff" opacity="0.7"/>
<circle cx="737.7" cy="387.0" r="2.6" fill="#bc8cff" opacity="0.7"/>
<circle cx="745.4" cy="253.9" r="2.6" fill="#bc8cff" opacity="0.7"/>
<circle cx="753.0" cy="396.9" r="2.6" fill="#bc8cff" opacity="0.7"/>
<circle cx="760.7" cy="375.5" r="2.6" fill="#bc8cff" opacity="0.7"/>
<circle cx="768.4" cy="283.4" r="2.6" fill="#bc8cff" opacity="0.7"/>
<circle cx="776.0" cy="396.0" r="2.6" fill="#bc8cff" opacity="0.7"/>
<circle cx="783.7" cy="400.0" r="2.6" fill="#bc8cff" opacity="0.7"/>
<circle cx="98.3" cy="430.6" r="3.2" fill="#ff922b" opacity="0.85"/>
<circle cx="106.0" cy="429.7" r="3.2" fill="#ff922b" opacity="0.85"/>
<circle cx="113.6" cy="429.8" r="3.2" fill="#ff922b" opacity="0.85"/>
<circle cx="121.3" cy="428.3" r="3.2" fill="#ff922b" opacity="0.85"/>
<circle cx="129.0" cy="429.0" r="3.2" fill="#ff922b" opacity="0.85"/>
<circle cx="136.6" cy="426.8" r="3.2" fill="#ff922b" opacity="0.85"/>
<circle cx="144.3" cy="429.3" r="3.2" fill="#ff922b" opacity="0.85"/>
<circle cx="152.0" cy="430.6" r="3.2" fill="#ff922b" opacity="0.85"/>
<circle cx="159.7" cy="431.0" r="3.2" fill="#ff922b" opacity="0.85"/>
<circle cx="167.3" cy="430.6" r="3.2" fill="#ff922b" opacity="0.85"/>
<circle cx="175.0" cy="430.6" r="3.2" fill="#ff922b" opacity="0.85"/>
<circle cx="182.7" cy="430.2" r="3.2" fill="#ff922b" opacity="0.85"/>
<circle cx="190.3" cy="429.8" r="3.2" fill="#ff922b" opacity="0.85"/>
<circle cx="198.0" cy="429.8" r="3.2" fill="#ff922b" opacity="0.85"/>
<circle cx="205.7" cy="430.1" r="3.2" fill="#ff922b" opacity="0.85"/>
<circle cx="213.3" cy="429.7" r="3.2" fill="#ff922b" opacity="0.85"/>
<circle cx="221.0" cy="430.2" r="3.2" fill="#ff922b" opacity="0.85"/>
<circle cx="228.7" cy="127.7" r="3.2" fill="#ff922b" opacity="0.85"/>
<circle cx="236.4" cy="429.7" r="3.2" fill="#ff922b" opacity="0.85"/>
<circle cx="244.0" cy="430.1" r="3.2" fill="#ff922b" opacity="0.85"/>
<circle cx="251.7" cy="430.0" r="3.2" fill="#ff922b" opacity="0.85"/>
<circle cx="259.4" cy="430.1" r="3.2" fill="#ff922b" opacity="0.85"/>
<circle cx="267.0" cy="432.0" r="3.2" fill="#ff922b" opacity="0.85"/>
<circle cx="274.7" cy="430.0" r="3.2" fill="#ff922b" opacity="0.85"/>
<circle cx="282.4" cy="430.1" r="3.2" fill="#ff922b" opacity="0.85"/>
<circle cx="290.0" cy="428.6" r="3.2" fill="#ff922b" opacity="0.85"/>
<circle cx="297.7" cy="429.0" r="3.2" fill="#ff922b" opacity="0.85"/>
<circle cx="305.4" cy="429.0" r="3.2" fill="#ff922b" opacity="0.85"/>
<circle cx="313.1" cy="429.1" r="3.2" fill="#ff922b" opacity="0.85"/>
<circle cx="320.7" cy="429.3" r="3.2" fill="#ff922b" opacity="0.85"/>
<circle cx="328.4" cy="430.2" r="3.2" fill="#ff922b" opacity="0.85"/>
<circle cx="336.1" cy="429.9" r="3.2" fill="#ff922b" opacity="0.85"/>
<circle cx="343.7" cy="430.6" r="3.2" fill="#ff922b" opacity="0.85"/>
<circle cx="351.4" cy="430.5" r="3.2" fill="#ff922b" opacity="0.85"/>
<circle cx="359.1" cy="430.1" r="3.2" fill="#ff922b" opacity="0.85"/>
<circle cx="366.7" cy="430.1" r="3.2" fill="#ff922b" opacity="0.85"/>
<circle cx="374.4" cy="430.1" r="3.2" fill="#ff922b" opacity="0.85"/>
<circle cx="382.1" cy="430.6" r="3.2" fill="#ff922b" opacity="0.85"/>
<circle cx="389.8" cy="430.2" r="3.2" fill="#ff922b" opacity="0.85"/>
<circle cx="397.4" cy="429.0" r="3.2" fill="#ff922b" opacity="0.85"/>
<circle cx="405.1" cy="430.7" r="3.2" fill="#ff922b" opacity="0.85"/>
<circle cx="412.8" cy="429.7" r="3.2" fill="#ff922b" opacity="0.85"/>
<circle cx="420.4" cy="430.2" r="3.2" fill="#ff922b" opacity="0.85"/>
<circle cx="428.1" cy="430.2" r="3.2" fill="#ff922b" opacity="0.85"/>
<circle cx="435.8" cy="429.7" r="3.2" fill="#ff922b" opacity="0.85"/>
<circle cx="443.4" cy="430.2" r="3.2" fill="#ff922b" opacity="0.85"/>
<circle cx="451.1" cy="430.2" r="3.2" fill="#ff922b" opacity="0.85"/>
<circle cx="458.8" cy="429.7" r="3.2" fill="#ff922b" opacity="0.85"/>
<circle cx="466.5" cy="428.4" r="3.2" fill="#ff922b" opacity="0.85"/>
<circle cx="474.1" cy="430.2" r="3.2" fill="#ff922b" opacity="0.85"/>
<circle cx="481.8" cy="428.3" r="3.2" fill="#ff922b" opacity="0.85"/>
<circle cx="489.5" cy="429.8" r="3.2" fill="#ff922b" opacity="0.85"/>
<circle cx="497.1" cy="430.2" r="3.2" fill="#ff922b" opacity="0.85"/>
<circle cx="504.8" cy="430.2" r="3.2" fill="#ff922b" opacity="0.85"/>
<circle cx="512.5" cy="429.8" r="3.2" fill="#ff922b" opacity="0.85"/>
<circle cx="520.1" cy="430.6" r="3.2" fill="#ff922b" opacity="0.85"/>
<circle cx="527.8" cy="429.4" r="3.2" fill="#ff922b" opacity="0.85"/>
<circle cx="535.5" cy="429.4" r="3.2" fill="#ff922b" opacity="0.85"/>
<circle cx="543.2" cy="429.0" r="3.2" fill="#ff922b" opacity="0.85"/>
<circle cx="550.8" cy="429.4" r="3.2" fill="#ff922b" opacity="0.85"/>
<circle cx="558.5" cy="430.5" r="3.2" fill="#ff922b" opacity="0.85"/>
<circle cx="566.2" cy="429.8" r="3.2" fill="#ff922b" opacity="0.85"/>
<circle cx="573.8" cy="429.3" r="3.2" fill="#ff922b" opacity="0.85"/>
<circle cx="581.5" cy="429.0" r="3.2" fill="#ff922b" opacity="0.85"/>
<circle cx="589.2" cy="431.8" r="3.2" fill="#ff922b" opacity="0.85"/>
<circle cx="596.8" cy="430.2" r="3.2" fill="#ff922b" opacity="0.85"/>
<circle cx="604.5" cy="430.2" r="3.2" fill="#ff922b" opacity="0.85"/>
<circle cx="612.2" cy="430.6" r="3.2" fill="#ff922b" opacity="0.85"/>
<circle cx="619.9" cy="430.6" r="3.2" fill="#ff922b" opacity="0.85"/>
<circle cx="627.5" cy="429.8" r="3.2" fill="#ff922b" opacity="0.85"/>
<circle cx="635.2" cy="431.9" r="3.2" fill="#ff922b" opacity="0.85"/>
<circle cx="642.9" cy="429.4" r="3.2" fill="#ff922b" opacity="0.85"/>
<circle cx="650.5" cy="429.0" r="3.2" fill="#ff922b" opacity="0.85"/>
<circle cx="658.2" cy="430.6" r="3.2" fill="#ff922b" opacity="0.85"/>
<circle cx="665.9" cy="429.4" r="3.2" fill="#ff922b" opacity="0.85"/>
<circle cx="673.5" cy="429.0" r="3.2" fill="#ff922b" opacity="0.85"/>
<circle cx="681.2" cy="429.4" r="3.2" fill="#ff922b" opacity="0.85"/>
<circle cx="688.9" cy="430.8" r="3.2" fill="#ff922b" opacity="0.85"/>
<circle cx="696.6" cy="429.1" r="3.2" fill="#ff922b" opacity="0.85"/>
<circle cx="704.2" cy="429.1" r="3.2" fill="#ff922b" opacity="0.85"/>
<circle cx="711.9" cy="428.2" r="3.2" fill="#ff922b" opacity="0.85"/>
<circle cx="719.6" cy="429.1" r="3.2" fill="#ff922b" opacity="0.85"/>
<circle cx="727.2" cy="429.7" r="3.2" fill="#ff922b" opacity="0.85"/>
<circle cx="734.9" cy="430.7" r="3.2" fill="#ff922b" opacity="0.85"/>
<circle cx="742.6" cy="430.3" r="3.2" fill="#ff922b" opacity="0.85"/>
<circle cx="750.3" cy="430.7" r="3.2" fill="#ff922b" opacity="0.85"/>
<circle cx="757.9" cy="428.2" r="3.2" fill="#ff922b" opacity="0.85"/>
<circle cx="765.6" cy="430.3" r="3.2" fill="#ff922b" opacity="0.85"/>
<circle cx="773.3" cy="428.8" r="3.2" fill="#ff922b" opacity="0.85"/>
<circle cx="780.9" cy="429.1" r="3.2" fill="#ff922b" opacity="0.85"/>
<circle cx="847" cy="84" r="5" fill="#ff922b"/>
<text x="866" y="88" font-size="13" fill="#c9d1d9" font-weight="700">Kāra</text>
<line x1="836" y1="108" x2="858" y2="108" stroke="#a7b0bc" stroke-width="2" stroke-dasharray="5 4"/>
<text x="866" y="112" font-size="13" fill="#c9d1d9" font-weight="400">Rust = 1.0×</text>
<circle cx="847" cy="132" r="4" fill="#3fb950"/>
<text x="866" y="136" font-size="13" fill="#c9d1d9" font-weight="400">C</text>
<circle cx="847" cy="156" r="4" fill="#bc8cff"/>
<text x="866" y="160" font-size="13" fill="#c9d1d9" font-weight="400">Go</text>
<text x="70" y="538" font-size="11.5" fill="#8b949e">Each dot is one benchmarked program (kata × approach); there is no connecting line because left-to-right order is not meaningful. Raw numbers: bench-results.json</text>
</svg>