<svg xmlns="http://www.w3.org/2000/svg" width="980" height="560" viewBox="0 0 980 560" font-family="-apple-system,Segoe UI,Helvetica,Arial,sans-serif">
<rect width="980" height="560" fill="#282c34"/>
<text x="70" y="34" font-size="21" font-weight="700" fill="#c9d1d9">Runtime peak memory — sequential lane</text>
<text x="70" y="56" font-size="13" fill="#8b949e">relative to Rust = 1.0 · lower = leaner · 52 programs</text>
<line x1="70" y1="456.0" x2="812" y2="456.0" stroke="#3b414b" stroke-width="1"/>
<text x="60" y="460.0" font-size="12" text-anchor="end" fill="#8b949e">0.0×</text>
<line x1="70" y1="451.3" x2="812" y2="451.3" stroke="#a7b0bc" stroke-width="2" stroke-dasharray="5 4"/>
<text x="60" y="455.3" font-size="12" text-anchor="end" fill="#aeb6c0" font-weight="700">1.0×</text>
<line x1="70" y1="380.4" x2="812" y2="380.4" stroke="#3b414b" stroke-width="1"/>
<text x="60" y="384.4" font-size="12" text-anchor="end" fill="#8b949e">16.0×</text>
<line x1="70" y1="304.8" x2="812" y2="304.8" stroke="#3b414b" stroke-width="1"/>
<text x="60" y="308.8" font-size="12" text-anchor="end" fill="#8b949e">32.0×</text>
<line x1="70" y1="229.2" x2="812" y2="229.2" stroke="#3b414b" stroke-width="1"/>
<text x="60" y="233.2" font-size="12" text-anchor="end" fill="#8b949e">48.0×</text>
<line x1="70" y1="153.6" x2="812" y2="153.6" stroke="#3b414b" stroke-width="1"/>
<text x="60" y="157.6" font-size="12" text-anchor="end" fill="#8b949e">64.0×</text>
<line x1="70" y1="78.0" x2="812" y2="78.0" stroke="#3b414b" stroke-width="1"/>
<text x="60" y="82.0" font-size="12" text-anchor="end" fill="#8b949e">80.0×</text>
<text x="812" y="445.3" font-size="11" text-anchor="end" fill="#aeb6c0">Rust baseline</text>
<line x1="70" y1="456" x2="812" y2="456" stroke="#3b414b"/>
<text x="441.0" y="478" font-size="11" text-anchor="middle" fill="#8b949e">52 programs (kata × approach) — x-order carries no meaning</text>
<circle cx="99.7" cy="451.4" r="2.6" fill="#3fb950" opacity="0.7"/>
<circle cx="113.1" cy="451.3" r="2.6" fill="#3fb950" opacity="0.7"/>
<circle cx="126.5" cy="451.5" r="2.6" fill="#3fb950" opacity="0.7"/>
<circle cx="139.8" cy="451.5" r="2.6" fill="#3fb950" opacity="0.7"/>
<circle cx="153.2" cy="451.3" r="2.6" fill="#3fb950" opacity="0.7"/>
<circle cx="166.6" cy="451.6" r="2.6" fill="#3fb950" opacity="0.7"/>
<circle cx="180.0" cy="452.0" r="2.6" fill="#3fb950" opacity="0.7"/>
<circle cx="193.4" cy="451.4" r="2.6" fill="#3fb950" opacity="0.7"/>
<circle cx="206.8" cy="451.5" r="2.6" fill="#3fb950" opacity="0.7"/>
<circle cx="220.1" cy="451.4" r="2.6" fill="#3fb950" opacity="0.7"/>
<circle cx="233.5" cy="451.4" r="2.6" fill="#3fb950" opacity="0.7"/>
<circle cx="246.9" cy="451.5" r="2.6" fill="#3fb950" opacity="0.7"/>
<circle cx="260.3" cy="451.3" r="2.6" fill="#3fb950" opacity="0.7"/>
<circle cx="273.7" cy="451.5" r="2.6" fill="#3fb950" opacity="0.7"/>
<circle cx="287.1" cy="451.3" r="2.6" fill="#3fb950" opacity="0.7"/>
<circle cx="300.5" cy="451.2" r="2.6" fill="#3fb950" opacity="0.7"/>
<circle cx="313.8" cy="451.3" r="2.6" fill="#3fb950" opacity="0.7"/>
<circle cx="327.2" cy="451.1" r="2.6" fill="#3fb950" opacity="0.7"/>
<circle cx="340.6" cy="451.2" r="2.6" fill="#3fb950" opacity="0.7"/>
<circle cx="354.0" cy="451.5" r="2.6" fill="#3fb950" opacity="0.7"/>
<circle cx="367.4" cy="451.2" r="2.6" fill="#3fb950" opacity="0.7"/>
<circle cx="380.8" cy="451.3" r="2.6" fill="#3fb950" opacity="0.7"/>
<circle cx="394.2" cy="452.3" r="2.6" fill="#3fb950" opacity="0.7"/>
<circle cx="407.5" cy="451.5" r="2.6" fill="#3fb950" opacity="0.7"/>
<circle cx="420.9" cy="451.5" r="2.6" fill="#3fb950" opacity="0.7"/>
<circle cx="434.3" cy="451.3" r="2.6" fill="#3fb950" opacity="0.7"/>
<circle cx="447.7" cy="451.3" r="2.6" fill="#3fb950" opacity="0.7"/>
<circle cx="461.1" cy="451.3" r="2.6" fill="#3fb950" opacity="0.7"/>
<circle cx="474.5" cy="451.4" r="2.6" fill="#3fb950" opacity="0.7"/>
<circle cx="487.8" cy="451.3" r="2.6" fill="#3fb950" opacity="0.7"/>
<circle cx="501.2" cy="451.6" r="2.6" fill="#3fb950" opacity="0.7"/>
<circle cx="514.6" cy="452.0" r="2.6" fill="#3fb950" opacity="0.7"/>
<circle cx="528.0" cy="451.5" r="2.6" fill="#3fb950" opacity="0.7"/>
<circle cx="541.4" cy="451.6" r="2.6" fill="#3fb950" opacity="0.7"/>
<circle cx="554.8" cy="452.5" r="2.6" fill="#3fb950" opacity="0.7"/>
<circle cx="568.2" cy="451.3" r="2.6" fill="#3fb950" opacity="0.7"/>
<circle cx="581.5" cy="451.4" r="2.6" fill="#3fb950" opacity="0.7"/>
<circle cx="594.9" cy="451.3" r="2.6" fill="#3fb950" opacity="0.7"/>
<circle cx="608.3" cy="451.8" r="2.6" fill="#3fb950" opacity="0.7"/>
<circle cx="621.7" cy="452.1" r="2.6" fill="#3fb950" opacity="0.7"/>
<circle cx="635.1" cy="451.3" r="2.6" fill="#3fb950" opacity="0.7"/>
<circle cx="648.5" cy="451.3" r="2.6" fill="#3fb950" opacity="0.7"/>
<circle cx="661.9" cy="452.6" r="2.6" fill="#3fb950" opacity="0.7"/>
<circle cx="675.2" cy="452.5" r="2.6" fill="#3fb950" opacity="0.7"/>
<circle cx="688.6" cy="451.3" r="2.6" fill="#3fb950" opacity="0.7"/>
<circle cx="702.0" cy="451.6" r="2.6" fill="#3fb950" opacity="0.7"/>
<circle cx="715.4" cy="451.2" r="2.6" fill="#3fb950" opacity="0.7"/>
<circle cx="728.8" cy="451.3" r="2.6" fill="#3fb950" opacity="0.7"/>
<circle cx="742.2" cy="455.8" r="2.6" fill="#3fb950" opacity="0.7"/>
<circle cx="755.5" cy="451.7" r="2.6" fill="#3fb950" opacity="0.7"/>
<circle cx="768.9" cy="453.5" r="2.6" fill="#3fb950" opacity="0.7"/>
<circle cx="782.3" cy="449.5" r="2.6" fill="#3fb950" opacity="0.7"/>
<circle cx="102.1" cy="443.9" r="2.6" fill="#bc8cff" opacity="0.7"/>
<circle cx="115.5" cy="440.6" r="2.6" fill="#bc8cff" opacity="0.7"/>
<circle cx="128.9" cy="414.6" r="2.6" fill="#bc8cff" opacity="0.7"/>
<circle cx="142.3" cy="444.7" r="2.6" fill="#bc8cff" opacity="0.7"/>
<circle cx="155.6" cy="450.5" r="2.6" fill="#bc8cff" opacity="0.7"/>
<circle cx="169.0" cy="442.9" r="2.6" fill="#bc8cff" opacity="0.7"/>
<circle cx="182.4" cy="422.9" r="2.6" fill="#bc8cff" opacity="0.7"/>
<circle cx="195.8" cy="442.8" r="2.6" fill="#bc8cff" opacity="0.7"/>
<circle cx="209.2" cy="443.6" r="2.6" fill="#bc8cff" opacity="0.7"/>
<circle cx="222.6" cy="443.2" r="2.6" fill="#bc8cff" opacity="0.7"/>
<circle cx="236.0" cy="443.7" r="2.6" fill="#bc8cff" opacity="0.7"/>
<circle cx="249.3" cy="443.9" r="2.6" fill="#bc8cff" opacity="0.7"/>
<circle cx="262.7" cy="411.4" r="2.6" fill="#bc8cff" opacity="0.7"/>
<circle cx="276.1" cy="413.5" r="2.6" fill="#bc8cff" opacity="0.7"/>
<circle cx="289.5" cy="420.3" r="2.6" fill="#bc8cff" opacity="0.7"/>
<circle cx="302.9" cy="416.7" r="2.6" fill="#bc8cff" opacity="0.7"/>
<circle cx="316.3" cy="415.9" r="2.6" fill="#bc8cff" opacity="0.7"/>
<circle cx="329.7" cy="418.8" r="2.6" fill="#bc8cff" opacity="0.7"/>
<circle cx="343.0" cy="418.5" r="2.6" fill="#bc8cff" opacity="0.7"/>
<circle cx="356.4" cy="414.8" r="2.6" fill="#bc8cff" opacity="0.7"/>
<circle cx="369.8" cy="415.8" r="2.6" fill="#bc8cff" opacity="0.7"/>
<circle cx="383.2" cy="415.6" r="2.6" fill="#bc8cff" opacity="0.7"/>
<circle cx="396.6" cy="437.8" r="2.6" fill="#bc8cff" opacity="0.7"/>
<circle cx="410.0" cy="418.5" r="2.6" fill="#bc8cff" opacity="0.7"/>
<circle cx="423.3" cy="413.6" r="2.6" fill="#bc8cff" opacity="0.7"/>
<circle cx="436.7" cy="414.8" r="2.6" fill="#bc8cff" opacity="0.7"/>
<circle cx="450.1" cy="450.9" r="2.6" fill="#bc8cff" opacity="0.7"/>
<circle cx="463.5" cy="450.9" r="2.6" fill="#bc8cff" opacity="0.7"/>
<circle cx="476.9" cy="448.6" r="2.6" fill="#bc8cff" opacity="0.7"/>
<circle cx="490.3" cy="448.4" r="2.6" fill="#bc8cff" opacity="0.7"/>
<circle cx="503.7" cy="444.1" r="2.6" fill="#bc8cff" opacity="0.7"/>
<circle cx="517.0" cy="424.5" r="2.6" fill="#bc8cff" opacity="0.7"/>
<circle cx="530.4" cy="413.5" r="2.6" fill="#bc8cff" opacity="0.7"/>
<circle cx="543.8" cy="443.7" r="2.6" fill="#bc8cff" opacity="0.7"/>
<circle cx="557.2" cy="426.6" r="2.6" fill="#bc8cff" opacity="0.7"/>
<circle cx="570.6" cy="450.8" r="2.6" fill="#bc8cff" opacity="0.7"/>
<circle cx="584.0" cy="443.1" r="2.6" fill="#bc8cff" opacity="0.7"/>
<circle cx="597.4" cy="450.5" r="2.6" fill="#bc8cff" opacity="0.7"/>
<circle cx="610.7" cy="418.5" r="2.6" fill="#bc8cff" opacity="0.7"/>
<circle cx="624.1" cy="455.8" r="2.6" fill="#bc8cff" opacity="0.7"/>
<circle cx="637.5" cy="450.5" r="2.6" fill="#bc8cff" opacity="0.7"/>
<circle cx="650.9" cy="450.5" r="2.6" fill="#bc8cff" opacity="0.7"/>
<circle cx="664.3" cy="449.8" r="2.6" fill="#bc8cff" opacity="0.7"/>
<circle cx="677.7" cy="444.0" r="2.6" fill="#bc8cff" opacity="0.7"/>
<circle cx="691.0" cy="442.9" r="2.6" fill="#bc8cff" opacity="0.7"/>
<circle cx="704.4" cy="444.3" r="2.6" fill="#bc8cff" opacity="0.7"/>
<circle cx="717.8" cy="419.2" r="2.6" fill="#bc8cff" opacity="0.7"/>
<circle cx="731.2" cy="445.6" r="2.6" fill="#bc8cff" opacity="0.7"/>
<circle cx="744.6" cy="443.0" r="2.6" fill="#bc8cff" opacity="0.7"/>
<circle cx="758.0" cy="423.7" r="2.6" fill="#bc8cff" opacity="0.7"/>
<circle cx="771.4" cy="445.4" r="2.6" fill="#bc8cff" opacity="0.7"/>
<circle cx="784.7" cy="447.8" r="2.6" fill="#bc8cff" opacity="0.7"/>
<circle cx="97.3" cy="451.5" r="3.2" fill="#ff922b" opacity="0.85"/>
<circle cx="110.6" cy="451.4" r="3.2" fill="#ff922b" opacity="0.85"/>
<circle cx="124.0" cy="451.3" r="3.2" fill="#ff922b" opacity="0.85"/>
<circle cx="137.4" cy="450.8" r="3.2" fill="#ff922b" opacity="0.85"/>
<circle cx="150.8" cy="451.3" r="3.2" fill="#ff922b" opacity="0.85"/>
<circle cx="164.2" cy="450.9" r="3.2" fill="#ff922b" opacity="0.85"/>
<circle cx="177.6" cy="451.4" r="3.2" fill="#ff922b" opacity="0.85"/>
<circle cx="191.0" cy="451.4" r="3.2" fill="#ff922b" opacity="0.85"/>
<circle cx="204.3" cy="451.5" r="3.2" fill="#ff922b" opacity="0.85"/>
<circle cx="217.7" cy="451.5" r="3.2" fill="#ff922b" opacity="0.85"/>
<circle cx="231.1" cy="451.4" r="3.2" fill="#ff922b" opacity="0.85"/>
<circle cx="244.5" cy="451.5" r="3.2" fill="#ff922b" opacity="0.85"/>
<circle cx="257.9" cy="451.5" r="3.2" fill="#ff922b" opacity="0.85"/>
<circle cx="271.3" cy="451.4" r="3.2" fill="#ff922b" opacity="0.85"/>
<circle cx="284.6" cy="451.2" r="3.2" fill="#ff922b" opacity="0.85"/>
<circle cx="298.0" cy="451.2" r="3.2" fill="#ff922b" opacity="0.85"/>
<circle cx="311.4" cy="451.3" r="3.2" fill="#ff922b" opacity="0.85"/>
<circle cx="324.8" cy="451.1" r="3.2" fill="#ff922b" opacity="0.85"/>
<circle cx="338.2" cy="451.3" r="3.2" fill="#ff922b" opacity="0.85"/>
<circle cx="351.6" cy="451.3" r="3.2" fill="#ff922b" opacity="0.85"/>
<circle cx="365.0" cy="450.5" r="3.2" fill="#ff922b" opacity="0.85"/>
<circle cx="378.3" cy="451.3" r="3.2" fill="#ff922b" opacity="0.85"/>
<circle cx="391.7" cy="450.5" r="3.2" fill="#ff922b" opacity="0.85"/>
<circle cx="405.1" cy="451.3" r="3.2" fill="#ff922b" opacity="0.85"/>
<circle cx="418.5" cy="451.5" r="3.2" fill="#ff922b" opacity="0.85"/>
<circle cx="431.9" cy="451.4" r="3.2" fill="#ff922b" opacity="0.85"/>
<circle cx="445.3" cy="451.3" r="3.2" fill="#ff922b" opacity="0.85"/>
<circle cx="458.7" cy="451.3" r="3.2" fill="#ff922b" opacity="0.85"/>
<circle cx="472.0" cy="451.3" r="3.2" fill="#ff922b" opacity="0.85"/>
<circle cx="485.4" cy="451.4" r="3.2" fill="#ff922b" opacity="0.85"/>
<circle cx="498.8" cy="451.6" r="3.2" fill="#ff922b" opacity="0.85"/>
<circle cx="512.2" cy="450.6" r="3.2" fill="#ff922b" opacity="0.85"/>
<circle cx="525.6" cy="451.2" r="3.2" fill="#ff922b" opacity="0.85"/>
<circle cx="539.0" cy="451.5" r="3.2" fill="#ff922b" opacity="0.85"/>
<circle cx="552.3" cy="451.7" r="3.2" fill="#ff922b" opacity="0.85"/>
<circle cx="565.7" cy="451.3" r="3.2" fill="#ff922b" opacity="0.85"/>
<circle cx="579.1" cy="451.4" r="3.2" fill="#ff922b" opacity="0.85"/>
<circle cx="592.5" cy="451.3" r="3.2" fill="#ff922b" opacity="0.85"/>
<circle cx="605.9" cy="451.3" r="3.2" fill="#ff922b" opacity="0.85"/>
<circle cx="619.3" cy="451.7" r="3.2" fill="#ff922b" opacity="0.85"/>
<circle cx="632.7" cy="451.3" r="3.2" fill="#ff922b" opacity="0.85"/>
<circle cx="646.0" cy="451.3" r="3.2" fill="#ff922b" opacity="0.85"/>
<circle cx="659.4" cy="448.8" r="3.2" fill="#ff922b" opacity="0.85"/>
<circle cx="672.8" cy="447.9" r="3.2" fill="#ff922b" opacity="0.85"/>
<circle cx="686.2" cy="451.4" r="3.2" fill="#ff922b" opacity="0.85"/>
<circle cx="699.6" cy="451.6" r="3.2" fill="#ff922b" opacity="0.85"/>
<circle cx="713.0" cy="96.1" r="3.2" fill="#ff922b" opacity="0.85"/>
<circle cx="726.4" cy="446.5" r="3.2" fill="#ff922b" opacity="0.85"/>
<circle cx="739.7" cy="447.2" r="3.2" fill="#ff922b" opacity="0.85"/>
<circle cx="753.1" cy="451.6" r="3.2" fill="#ff922b" opacity="0.85"/>
<circle cx="766.5" cy="451.0" r="3.2" fill="#ff922b" opacity="0.85"/>
<circle cx="779.9" cy="451.3" r="3.2" fill="#ff922b" opacity="0.85"/>
<circle cx="847" cy="84" r="5" fill="#ff922b"/>
<text x="866" y="88" font-size="13" fill="#c9d1d9" font-weight="700">Kāra</text>
<line x1="836" y1="108" x2="858" y2="108" stroke="#a7b0bc" stroke-width="2" stroke-dasharray="5 4"/>
<text x="866" y="112" font-size="13" fill="#c9d1d9" font-weight="400">Rust = 1.0×</text>
<circle cx="847" cy="132" r="4" fill="#3fb950"/>
<text x="866" y="136" font-size="13" fill="#c9d1d9" font-weight="400">C</text>
<circle cx="847" cy="156" r="4" fill="#bc8cff"/>
<text x="866" y="160" font-size="13" fill="#c9d1d9" font-weight="400">Go</text>
<text x="70" y="538" font-size="11.5" fill="#8b949e">Each dot is one benchmarked program (kata × approach); there is no connecting line because left-to-right order is not meaningful. Raw numbers: bench-results.json</text>
</svg>