<svg xmlns="http://www.w3.org/2000/svg" width="980" height="560" viewBox="0 0 980 560" font-family="-apple-system,Segoe UI,Helvetica,Arial,sans-serif">
<rect width="980" height="560" fill="#282c34"/>
<text x="70" y="34" font-size="21" font-weight="700" fill="#c9d1d9">Runtime peak memory — sequential lane</text>
<text x="70" y="56" font-size="13" fill="#8b949e">relative to Rust = 1.0 · lower = leaner · 9 programs</text>
<line x1="70" y1="456.0" x2="812" y2="456.0" stroke="#3b414b" stroke-width="1"/>
<text x="60" y="460.0" font-size="12" text-anchor="end" fill="#8b949e">0.0×</text>
<line x1="70" y1="380.4" x2="812" y2="380.4" stroke="#3b414b" stroke-width="1"/>
<text x="60" y="384.4" font-size="12" text-anchor="end" fill="#8b949e">2.0×</text>
<line x1="70" y1="304.8" x2="812" y2="304.8" stroke="#3b414b" stroke-width="1"/>
<text x="60" y="308.8" font-size="12" text-anchor="end" fill="#8b949e">4.0×</text>
<line x1="70" y1="229.2" x2="812" y2="229.2" stroke="#3b414b" stroke-width="1"/>
<text x="60" y="233.2" font-size="12" text-anchor="end" fill="#8b949e">6.0×</text>
<line x1="70" y1="153.6" x2="812" y2="153.6" stroke="#3b414b" stroke-width="1"/>
<text x="60" y="157.6" font-size="12" text-anchor="end" fill="#8b949e">8.0×</text>
<line x1="70" y1="78.0" x2="812" y2="78.0" stroke="#3b414b" stroke-width="1"/>
<text x="60" y="82.0" font-size="12" text-anchor="end" fill="#8b949e">10.0×</text>
<text x="812" y="412.2" font-size="11" text-anchor="end" fill="#aeb6c0">Rust baseline</text>
<line x1="99.7" y1="456" x2="99.7" y2="461" stroke="#3b414b"/>
<g transform="translate(99.7,474) rotate(35)">
<text x="0" y="0" font-size="10.5" fill="#8b949e">#1</text>
<text x="0" y="12" font-size="10.5" fill="#8b949e">brute_force</text>
</g>
<line x1="185.0" y1="456" x2="185.0" y2="461" stroke="#3b414b"/>
<g transform="translate(185.0,474) rotate(35)">
<text x="0" y="0" font-size="10.5" fill="#8b949e">#1</text>
<text x="0" y="12" font-size="10.5" fill="#8b949e">hash_map</text>
</g>
<line x1="270.3" y1="456" x2="270.3" y2="461" stroke="#3b414b"/>
<g transform="translate(270.3,474) rotate(35)">
<text x="0" y="0" font-size="10.5" fill="#8b949e">#2</text>
<text x="0" y="12" font-size="10.5" fill="#8b949e">iterative</text>
</g>
<line x1="355.7" y1="456" x2="355.7" y2="461" stroke="#3b414b"/>
<g transform="translate(355.7,474) rotate(35)">
<text x="0" y="0" font-size="10.5" fill="#8b949e">#3</text>
<text x="0" y="12" font-size="10.5" fill="#8b949e">sliding_window</text>
</g>
<line x1="441.0" y1="456" x2="441.0" y2="461" stroke="#3b414b"/>
<g transform="translate(441.0,474) rotate(35)">
<text x="0" y="0" font-size="10.5" fill="#8b949e">#4</text>
<text x="0" y="12" font-size="10.5" fill="#8b949e">binary_search…</text>
</g>
<line x1="526.3" y1="456" x2="526.3" y2="461" stroke="#3b414b"/>
<g transform="translate(526.3,474) rotate(35)">
<text x="0" y="0" font-size="10.5" fill="#8b949e">#5</text>
<text x="0" y="12" font-size="10.5" fill="#8b949e">expand_around…</text>
</g>
<line x1="611.7" y1="456" x2="611.7" y2="461" stroke="#3b414b"/>
<g transform="translate(611.7,474) rotate(35)">
<text x="0" y="0" font-size="10.5" fill="#8b949e">#6</text>
<text x="0" y="12" font-size="10.5" fill="#8b949e">row_buffers</text>
</g>
<line x1="697.0" y1="456" x2="697.0" y2="461" stroke="#3b414b"/>
<g transform="translate(697.0,474) rotate(35)">
<text x="0" y="0" font-size="10.5" fill="#8b949e">#7</text>
<text x="0" y="12" font-size="10.5" fill="#8b949e">reverse</text>
</g>
<line x1="782.3" y1="456" x2="782.3" y2="461" stroke="#3b414b"/>
<g transform="translate(782.3,474) rotate(35)">
<text x="0" y="0" font-size="10.5" fill="#8b949e">#204</text>
<text x="0" y="12" font-size="10.5" fill="#8b949e">count</text>
</g>
<circle cx="99.7" cy="420.3" r="4.0" fill="#3fb950" opacity="0.95"/>
<circle cx="185.0" cy="418.2" r="4.0" fill="#3fb950" opacity="0.95"/>
<circle cx="270.3" cy="419.2" r="4.0" fill="#3fb950" opacity="0.95"/>
<circle cx="355.7" cy="420.1" r="4.0" fill="#3fb950" opacity="0.95"/>
<circle cx="441.0" cy="418.3" r="4.0" fill="#3fb950" opacity="0.95"/>
<circle cx="526.3" cy="421.3" r="4.0" fill="#3fb950" opacity="0.95"/>
<circle cx="611.7" cy="423.2" r="4.0" fill="#3fb950" opacity="0.95"/>
<circle cx="697.0" cy="419.3" r="4.0" fill="#3fb950" opacity="0.95"/>
<circle cx="782.3" cy="427.8" r="4.0" fill="#3fb950" opacity="0.95"/>
<circle cx="103.5" cy="360.2" r="4.0" fill="#bc8cff" opacity="0.95"/>
<circle cx="188.8" cy="332.5" r="4.0" fill="#bc8cff" opacity="0.95"/>
<circle cx="274.2" cy="141.1" r="4.0" fill="#bc8cff" opacity="0.95"/>
<circle cx="359.5" cy="365.3" r="4.0" fill="#bc8cff" opacity="0.95"/>
<circle cx="444.8" cy="412.2" r="4.0" fill="#bc8cff" opacity="0.95"/>
<circle cx="530.2" cy="356.9" r="4.0" fill="#bc8cff" opacity="0.95"/>
<circle cx="615.5" cy="199.5" r="4.0" fill="#bc8cff" opacity="0.95"/>
<circle cx="700.8" cy="350.7" r="4.0" fill="#bc8cff" opacity="0.95"/>
<circle cx="786.2" cy="359.6" r="4.0" fill="#bc8cff" opacity="0.95"/>
<circle cx="95.8" cy="420.8" r="5.0" fill="#ff922b" opacity="1.0"/>
<circle cx="181.2" cy="420.4" r="5.0" fill="#ff922b" opacity="1.0"/>
<circle cx="266.5" cy="417.7" r="5.0" fill="#ff922b" opacity="1.0"/>
<circle cx="351.8" cy="414.4" r="5.0" fill="#ff922b" opacity="1.0"/>
<circle cx="437.2" cy="418.3" r="5.0" fill="#ff922b" opacity="1.0"/>
<circle cx="522.5" cy="416.2" r="5.0" fill="#ff922b" opacity="1.0"/>
<circle cx="607.8" cy="418.6" r="5.0" fill="#ff922b" opacity="1.0"/>
<circle cx="693.2" cy="419.3" r="5.0" fill="#ff922b" opacity="1.0"/>
<circle cx="778.5" cy="391.1" r="5.0" fill="#ff922b" opacity="1.0"/>
<circle cx="847" cy="84" r="5" fill="#ff922b"/>
<text x="866" y="88" font-size="13" fill="#c9d1d9" font-weight="700">Kāra</text>
<line x1="836" y1="108" x2="858" y2="108" stroke="#6e7681" stroke-width="1.6" stroke-dasharray="5 4"/>
<text x="866" y="112" font-size="13" fill="#c9d1d9" font-weight="400">Rust</text>
<circle cx="847" cy="132" r="4" fill="#3fb950"/>
<text x="866" y="136" font-size="13" fill="#c9d1d9" font-weight="400">C</text>
<circle cx="847" cy="156" r="4" fill="#bc8cff"/>
<text x="866" y="160" font-size="13" fill="#c9d1d9" font-weight="400">Go</text>
<text x="70" y="538" font-size="11.5" fill="#8b949e">Each dot is one benchmarked program (kata × approach); there is no connecting line because left-to-right order is not meaningful. Raw numbers: bench-results.json</text>
</svg>