<svg xmlns="http://www.w3.org/2000/svg" width="980" height="560" viewBox="0 0 980 560" font-family="-apple-system,Segoe UI,Helvetica,Arial,sans-serif">
<rect width="980" height="560" fill="#282c34"/>
<text x="70" y="34" font-size="21" font-weight="700" fill="#c9d1d9">Runtime peak memory — auto-parallel lane</text>
<text x="70" y="56" font-size="13" fill="#8b949e">relative to Rust = 1.0 · lower = leaner · 31 programs</text>
<line x1="70" y1="456.0" x2="812" y2="456.0" stroke="#3b414b" stroke-width="1"/>
<text x="60" y="460.0" font-size="12" text-anchor="end" fill="#8b949e">0.0×</text>
<line x1="70" y1="402.0" x2="812" y2="402.0" stroke="#a7b0bc" stroke-width="2" stroke-dasharray="5 4"/>
<text x="60" y="406.0" font-size="12" text-anchor="end" fill="#aeb6c0" font-weight="700">1.0×</text>
<line x1="70" y1="380.4" x2="812" y2="380.4" stroke="#3b414b" stroke-width="1"/>
<text x="60" y="384.4" font-size="12" text-anchor="end" fill="#8b949e">1.4×</text>
<line x1="70" y1="304.8" x2="812" y2="304.8" stroke="#3b414b" stroke-width="1"/>
<text x="60" y="308.8" font-size="12" text-anchor="end" fill="#8b949e">2.8×</text>
<line x1="70" y1="229.2" x2="812" y2="229.2" stroke="#3b414b" stroke-width="1"/>
<text x="60" y="233.2" font-size="12" text-anchor="end" fill="#8b949e">4.2×</text>
<line x1="70" y1="153.6" x2="812" y2="153.6" stroke="#3b414b" stroke-width="1"/>
<text x="60" y="157.6" font-size="12" text-anchor="end" fill="#8b949e">5.6×</text>
<line x1="70" y1="78.0" x2="812" y2="78.0" stroke="#3b414b" stroke-width="1"/>
<text x="60" y="82.0" font-size="12" text-anchor="end" fill="#8b949e">7.0×</text>
<text x="812" y="396.0" font-size="11" text-anchor="end" fill="#aeb6c0">Rust baseline</text>
<line x1="70" y1="456" x2="812" y2="456" stroke="#3b414b"/>
<text x="441.0" y="478" font-size="11" text-anchor="middle" fill="#8b949e">31 programs (kata × approach) — x-order carries no meaning</text>
<circle cx="99.7" cy="411.8" r="2.6" fill="#3fb950" opacity="0.7"/>
<circle cx="122.4" cy="404.0" r="2.6" fill="#3fb950" opacity="0.7"/>
<circle cx="145.2" cy="424.4" r="2.6" fill="#3fb950" opacity="0.7"/>
<circle cx="167.9" cy="429.5" r="2.6" fill="#3fb950" opacity="0.7"/>
<circle cx="190.7" cy="421.6" r="2.6" fill="#3fb950" opacity="0.7"/>
<circle cx="213.5" cy="420.3" r="2.6" fill="#3fb950" opacity="0.7"/>
<circle cx="236.2" cy="420.1" r="2.6" fill="#3fb950" opacity="0.7"/>
<circle cx="259.0" cy="419.1" r="2.6" fill="#3fb950" opacity="0.7"/>
<circle cx="281.7" cy="419.9" r="2.6" fill="#3fb950" opacity="0.7"/>
<circle cx="304.5" cy="427.4" r="2.6" fill="#3fb950" opacity="0.7"/>
<circle cx="327.2" cy="418.2" r="2.6" fill="#3fb950" opacity="0.7"/>
<circle cx="350.0" cy="414.5" r="2.6" fill="#3fb950" opacity="0.7"/>
<circle cx="372.7" cy="420.6" r="2.6" fill="#3fb950" opacity="0.7"/>
<circle cx="395.5" cy="416.4" r="2.6" fill="#3fb950" opacity="0.7"/>
<circle cx="418.2" cy="406.7" r="2.6" fill="#3fb950" opacity="0.7"/>
<circle cx="441.0" cy="409.6" r="2.6" fill="#3fb950" opacity="0.7"/>
<circle cx="463.8" cy="383.9" r="2.6" fill="#3fb950" opacity="0.7"/>
<circle cx="486.5" cy="424.8" r="2.6" fill="#3fb950" opacity="0.7"/>
<circle cx="509.3" cy="418.7" r="2.6" fill="#3fb950" opacity="0.7"/>
<circle cx="532.0" cy="406.7" r="2.6" fill="#3fb950" opacity="0.7"/>
<circle cx="554.8" cy="429.3" r="2.6" fill="#3fb950" opacity="0.7"/>
<circle cx="577.5" cy="418.8" r="2.6" fill="#3fb950" opacity="0.7"/>
<circle cx="600.3" cy="440.1" r="2.6" fill="#3fb950" opacity="0.7"/>
<circle cx="623.0" cy="431.1" r="2.6" fill="#3fb950" opacity="0.7"/>
<circle cx="645.8" cy="412.8" r="2.6" fill="#3fb950" opacity="0.7"/>
<circle cx="668.5" cy="404.0" r="2.6" fill="#3fb950" opacity="0.7"/>
<circle cx="691.3" cy="422.3" r="2.6" fill="#3fb950" opacity="0.7"/>
<circle cx="714.1" cy="417.5" r="2.6" fill="#3fb950" opacity="0.7"/>
<circle cx="736.8" cy="406.1" r="2.6" fill="#3fb950" opacity="0.7"/>
<circle cx="759.6" cy="419.0" r="2.6" fill="#3fb950" opacity="0.7"/>
<circle cx="782.3" cy="384.5" r="2.6" fill="#3fb950" opacity="0.7"/>
<circle cx="102.3" cy="320.0" r="2.6" fill="#bc8cff" opacity="0.7"/>
<circle cx="125.1" cy="393.2" r="2.6" fill="#bc8cff" opacity="0.7"/>
<circle cx="147.8" cy="295.9" r="2.6" fill="#bc8cff" opacity="0.7"/>
<circle cx="170.6" cy="78.8" r="2.6" fill="#bc8cff" opacity="0.7"/>
<circle cx="193.3" cy="341.5" r="2.6" fill="#bc8cff" opacity="0.7"/>
<circle cx="216.1" cy="336.2" r="2.6" fill="#bc8cff" opacity="0.7"/>
<circle cx="238.8" cy="335.9" r="2.6" fill="#bc8cff" opacity="0.7"/>
<circle cx="261.6" cy="326.5" r="2.6" fill="#bc8cff" opacity="0.7"/>
<circle cx="284.4" cy="337.4" r="2.6" fill="#bc8cff" opacity="0.7"/>
<circle cx="307.1" cy="94.1" r="2.6" fill="#bc8cff" opacity="0.7"/>
<circle cx="329.9" cy="78.7" r="2.6" fill="#bc8cff" opacity="0.7"/>
<circle cx="352.6" cy="226.2" r="2.6" fill="#bc8cff" opacity="0.7"/>
<circle cx="375.4" cy="223.3" r="2.6" fill="#bc8cff" opacity="0.7"/>
<circle cx="398.1" cy="130.9" r="2.6" fill="#bc8cff" opacity="0.7"/>
<circle cx="420.9" cy="246.4" r="2.6" fill="#bc8cff" opacity="0.7"/>
<circle cx="443.6" cy="237.3" r="2.6" fill="#bc8cff" opacity="0.7"/>
<circle cx="466.4" cy="180.7" r="2.6" fill="#bc8cff" opacity="0.7"/>
<circle cx="489.1" cy="378.6" r="2.6" fill="#bc8cff" opacity="0.7"/>
<circle cx="511.9" cy="264.9" r="2.6" fill="#bc8cff" opacity="0.7"/>
<circle cx="534.7" cy="362.7" r="2.6" fill="#bc8cff" opacity="0.7"/>
<circle cx="557.4" cy="177.4" r="2.6" fill="#bc8cff" opacity="0.7"/>
<circle cx="580.2" cy="335.6" r="2.6" fill="#bc8cff" opacity="0.7"/>
<circle cx="602.9" cy="401.4" r="2.6" fill="#bc8cff" opacity="0.7"/>
<circle cx="625.7" cy="224.9" r="2.6" fill="#bc8cff" opacity="0.7"/>
<circle cx="648.4" cy="448.0" r="2.6" fill="#bc8cff" opacity="0.7"/>
<circle cx="671.2" cy="394.0" r="2.6" fill="#bc8cff" opacity="0.7"/>
<circle cx="693.9" cy="384.1" r="2.6" fill="#bc8cff" opacity="0.7"/>
<circle cx="716.7" cy="366.6" r="2.6" fill="#bc8cff" opacity="0.7"/>
<circle cx="739.4" cy="271.8" r="2.6" fill="#bc8cff" opacity="0.7"/>
<circle cx="762.2" cy="227.2" r="2.6" fill="#bc8cff" opacity="0.7"/>
<circle cx="785.0" cy="344.3" r="2.6" fill="#bc8cff" opacity="0.7"/>
<circle cx="97.0" cy="410.8" r="3.2" fill="#ff922b" opacity="0.85"/>
<circle cx="119.8" cy="403.6" r="3.2" fill="#ff922b" opacity="0.85"/>
<circle cx="142.6" cy="399.3" r="3.2" fill="#ff922b" opacity="0.85"/>
<circle cx="165.3" cy="398.4" r="3.2" fill="#ff922b" opacity="0.85"/>
<circle cx="188.1" cy="418.4" r="3.2" fill="#ff922b" opacity="0.85"/>
<circle cx="210.8" cy="416.4" r="3.2" fill="#ff922b" opacity="0.85"/>
<circle cx="233.6" cy="416.7" r="3.2" fill="#ff922b" opacity="0.85"/>
<circle cx="256.3" cy="415.6" r="3.2" fill="#ff922b" opacity="0.85"/>
<circle cx="279.1" cy="417.3" r="3.2" fill="#ff922b" opacity="0.85"/>
<circle cx="301.8" cy="417.0" r="3.2" fill="#ff922b" opacity="0.85"/>
<circle cx="324.6" cy="416.8" r="3.2" fill="#ff922b" opacity="0.85"/>
<circle cx="347.3" cy="413.2" r="3.2" fill="#ff922b" opacity="0.85"/>
<circle cx="370.1" cy="411.0" r="3.2" fill="#ff922b" opacity="0.85"/>
<circle cx="392.9" cy="414.6" r="3.2" fill="#ff922b" opacity="0.85"/>
<circle cx="415.6" cy="221.7" r="3.2" fill="#ff922b" opacity="0.85"/>
<circle cx="438.4" cy="409.6" r="3.2" fill="#ff922b" opacity="0.85"/>
<circle cx="461.1" cy="408.6" r="3.2" fill="#ff922b" opacity="0.85"/>
<circle cx="483.9" cy="407.6" r="3.2" fill="#ff922b" opacity="0.85"/>
<circle cx="506.6" cy="410.2" r="3.2" fill="#ff922b" opacity="0.85"/>
<circle cx="529.4" cy="405.6" r="3.2" fill="#ff922b" opacity="0.85"/>
<circle cx="552.1" cy="416.0" r="3.2" fill="#ff922b" opacity="0.85"/>
<circle cx="574.9" cy="415.3" r="3.2" fill="#ff922b" opacity="0.85"/>
<circle cx="597.6" cy="419.0" r="3.2" fill="#ff922b" opacity="0.85"/>
<circle cx="620.4" cy="410.8" r="3.2" fill="#ff922b" opacity="0.85"/>
<circle cx="643.2" cy="408.0" r="3.2" fill="#ff922b" opacity="0.85"/>
<circle cx="665.9" cy="403.6" r="3.2" fill="#ff922b" opacity="0.85"/>
<circle cx="688.7" cy="408.6" r="3.2" fill="#ff922b" opacity="0.85"/>
<circle cx="711.4" cy="381.3" r="3.2" fill="#ff922b" opacity="0.85"/>
<circle cx="734.2" cy="419.2" r="3.2" fill="#ff922b" opacity="0.85"/>
<circle cx="756.9" cy="405.9" r="3.2" fill="#ff922b" opacity="0.85"/>
<circle cx="779.7" cy="404.8" r="3.2" fill="#ff922b" opacity="0.85"/>
<circle cx="847" cy="84" r="5" fill="#ff922b"/>
<text x="866" y="88" font-size="13" fill="#c9d1d9" font-weight="700">Kāra</text>
<line x1="836" y1="108" x2="858" y2="108" stroke="#a7b0bc" stroke-width="2" stroke-dasharray="5 4"/>
<text x="866" y="112" font-size="13" fill="#c9d1d9" font-weight="400">Rust = 1.0×</text>
<circle cx="847" cy="132" r="4" fill="#3fb950"/>
<text x="866" y="136" font-size="13" fill="#c9d1d9" font-weight="400">C</text>
<circle cx="847" cy="156" r="4" fill="#bc8cff"/>
<text x="866" y="160" font-size="13" fill="#c9d1d9" font-weight="400">Go</text>
<text x="70" y="538" font-size="11.5" fill="#8b949e">Each dot is one benchmarked program (kata × approach); there is no connecting line because left-to-right order is not meaningful. Raw numbers: bench-results.json</text>
</svg>