<svg xmlns="http://www.w3.org/2000/svg" width="980" height="560" viewBox="0 0 980 560" font-family="-apple-system,Segoe UI,Helvetica,Arial,sans-serif">
<rect width="980" height="560" fill="#282c34"/>
<text x="70" y="34" font-size="21" font-weight="700" fill="#c9d1d9">Runtime peak memory — sequential lane</text>
<text x="70" y="56" font-size="13" fill="#8b949e">relative to Rust = 1.0 · lower = leaner · 93 programs</text>
<line x1="70" y1="456.0" x2="812" y2="456.0" stroke="#3b414b" stroke-width="1"/>
<text x="60" y="460.0" font-size="12" text-anchor="end" fill="#8b949e">0.0×</text>
<line x1="70" y1="429.0" x2="812" y2="429.0" stroke="#a7b0bc" stroke-width="2" stroke-dasharray="5 4"/>
<text x="60" y="433.0" font-size="12" text-anchor="end" fill="#aeb6c0" font-weight="700">1.0×</text>
<line x1="70" y1="380.4" x2="812" y2="380.4" stroke="#3b414b" stroke-width="1"/>
<text x="60" y="384.4" font-size="12" text-anchor="end" fill="#8b949e">2.8×</text>
<line x1="70" y1="304.8" x2="812" y2="304.8" stroke="#3b414b" stroke-width="1"/>
<text x="60" y="308.8" font-size="12" text-anchor="end" fill="#8b949e">5.6×</text>
<line x1="70" y1="229.2" x2="812" y2="229.2" stroke="#3b414b" stroke-width="1"/>
<text x="60" y="233.2" font-size="12" text-anchor="end" fill="#8b949e">8.4×</text>
<line x1="70" y1="153.6" x2="812" y2="153.6" stroke="#3b414b" stroke-width="1"/>
<text x="60" y="157.6" font-size="12" text-anchor="end" fill="#8b949e">11.2×</text>
<line x1="70" y1="78.0" x2="812" y2="78.0" stroke="#3b414b" stroke-width="1"/>
<text x="60" y="82.0" font-size="12" text-anchor="end" fill="#8b949e">14.0×</text>
<text x="812" y="423.0" font-size="11" text-anchor="end" fill="#aeb6c0">Rust baseline</text>
<line x1="70" y1="456" x2="812" y2="456" stroke="#3b414b"/>
<text x="441.0" y="478" font-size="11" text-anchor="middle" fill="#8b949e">93 programs (kata × approach) — x-order carries no meaning</text>
<circle cx="99.7" cy="430.2" r="2.6" fill="#3fb950" opacity="0.7"/>
<circle cx="107.1" cy="429.0" r="2.6" fill="#3fb950" opacity="0.7"/>
<circle cx="114.5" cy="430.1" r="2.6" fill="#3fb950" opacity="0.7"/>
<circle cx="121.9" cy="431.1" r="2.6" fill="#3fb950" opacity="0.7"/>
<circle cx="129.4" cy="429.1" r="2.6" fill="#3fb950" opacity="0.7"/>
<circle cx="136.8" cy="431.2" r="2.6" fill="#3fb950" opacity="0.7"/>
<circle cx="144.2" cy="432.7" r="2.6" fill="#3fb950" opacity="0.7"/>
<circle cx="151.6" cy="430.6" r="2.6" fill="#3fb950" opacity="0.7"/>
<circle cx="159.0" cy="431.0" r="2.6" fill="#3fb950" opacity="0.7"/>
<circle cx="166.5" cy="430.2" r="2.6" fill="#3fb950" opacity="0.7"/>
<circle cx="173.9" cy="430.6" r="2.6" fill="#3fb950" opacity="0.7"/>
<circle cx="181.3" cy="430.2" r="2.6" fill="#3fb950" opacity="0.7"/>
<circle cx="188.7" cy="430.2" r="2.6" fill="#3fb950" opacity="0.7"/>
<circle cx="196.1" cy="429.4" r="2.6" fill="#3fb950" opacity="0.7"/>
<circle cx="203.6" cy="430.1" r="2.6" fill="#3fb950" opacity="0.7"/>
<circle cx="211.0" cy="430.4" r="2.6" fill="#3fb950" opacity="0.7"/>
<circle cx="218.4" cy="429.8" r="2.6" fill="#3fb950" opacity="0.7"/>
<circle cx="225.8" cy="429.0" r="2.6" fill="#3fb950" opacity="0.7"/>
<circle cx="233.2" cy="429.0" r="2.6" fill="#3fb950" opacity="0.7"/>
<circle cx="240.7" cy="431.6" r="2.6" fill="#3fb950" opacity="0.7"/>
<circle cx="248.1" cy="425.7" r="2.6" fill="#3fb950" opacity="0.7"/>
<circle cx="255.5" cy="429.7" r="2.6" fill="#3fb950" opacity="0.7"/>
<circle cx="262.9" cy="435.0" r="2.6" fill="#3fb950" opacity="0.7"/>
<circle cx="270.3" cy="430.7" r="2.6" fill="#3fb950" opacity="0.7"/>
<circle cx="277.8" cy="429.8" r="2.6" fill="#3fb950" opacity="0.7"/>
<circle cx="285.2" cy="430.5" r="2.6" fill="#3fb950" opacity="0.7"/>
<circle cx="292.6" cy="429.0" r="2.6" fill="#3fb950" opacity="0.7"/>
<circle cx="300.0" cy="429.0" r="2.6" fill="#3fb950" opacity="0.7"/>
<circle cx="307.4" cy="429.3" r="2.6" fill="#3fb950" opacity="0.7"/>
<circle cx="314.9" cy="429.3" r="2.6" fill="#3fb950" opacity="0.7"/>
<circle cx="322.3" cy="430.6" r="2.6" fill="#3fb950" opacity="0.7"/>
<circle cx="329.7" cy="433.1" r="2.6" fill="#3fb950" opacity="0.7"/>
<circle cx="337.1" cy="431.0" r="2.6" fill="#3fb950" opacity="0.7"/>
<circle cx="344.5" cy="430.9" r="2.6" fill="#3fb950" opacity="0.7"/>
<circle cx="352.0" cy="430.5" r="2.6" fill="#3fb950" opacity="0.7"/>
<circle cx="359.4" cy="430.5" r="2.6" fill="#3fb950" opacity="0.7"/>
<circle cx="366.8" cy="430.5" r="2.6" fill="#3fb950" opacity="0.7"/>
<circle cx="374.2" cy="430.6" r="2.6" fill="#3fb950" opacity="0.7"/>
<circle cx="381.6" cy="429.8" r="2.6" fill="#3fb950" opacity="0.7"/>
<circle cx="389.1" cy="427.9" r="2.6" fill="#3fb950" opacity="0.7"/>
<circle cx="396.5" cy="429.3" r="2.6" fill="#3fb950" opacity="0.7"/>
<circle cx="403.9" cy="429.4" r="2.6" fill="#3fb950" opacity="0.7"/>
<circle cx="411.3" cy="430.2" r="2.6" fill="#3fb950" opacity="0.7"/>
<circle cx="418.7" cy="430.2" r="2.6" fill="#3fb950" opacity="0.7"/>
<circle cx="426.2" cy="454.3" r="2.6" fill="#3fb950" opacity="0.7"/>
<circle cx="433.6" cy="430.2" r="2.6" fill="#3fb950" opacity="0.7"/>
<circle cx="441.0" cy="430.2" r="2.6" fill="#3fb950" opacity="0.7"/>
<circle cx="448.4" cy="430.2" r="2.6" fill="#3fb950" opacity="0.7"/>
<circle cx="455.8" cy="430.9" r="2.6" fill="#3fb950" opacity="0.7"/>
<circle cx="463.3" cy="430.6" r="2.6" fill="#3fb950" opacity="0.7"/>
<circle cx="470.7" cy="439.5" r="2.6" fill="#3fb950" opacity="0.7"/>
<circle cx="478.1" cy="430.2" r="2.6" fill="#3fb950" opacity="0.7"/>
<circle cx="485.5" cy="429.8" r="2.6" fill="#3fb950" opacity="0.7"/>
<circle cx="492.9" cy="430.2" r="2.6" fill="#3fb950" opacity="0.7"/>
<circle cx="500.4" cy="430.2" r="2.6" fill="#3fb950" opacity="0.7"/>
<circle cx="507.8" cy="430.6" r="2.6" fill="#3fb950" opacity="0.7"/>
<circle cx="515.2" cy="429.8" r="2.6" fill="#3fb950" opacity="0.7"/>
<circle cx="522.6" cy="430.2" r="2.6" fill="#3fb950" opacity="0.7"/>
<circle cx="530.0" cy="429.8" r="2.6" fill="#3fb950" opacity="0.7"/>
<circle cx="537.5" cy="429.4" r="2.6" fill="#3fb950" opacity="0.7"/>
<circle cx="544.9" cy="429.4" r="2.6" fill="#3fb950" opacity="0.7"/>
<circle cx="552.3" cy="429.4" r="2.6" fill="#3fb950" opacity="0.7"/>
<circle cx="559.7" cy="429.0" r="2.6" fill="#3fb950" opacity="0.7"/>
<circle cx="567.1" cy="429.7" r="2.6" fill="#3fb950" opacity="0.7"/>
<circle cx="574.6" cy="429.0" r="2.6" fill="#3fb950" opacity="0.7"/>
<circle cx="582.0" cy="430.2" r="2.6" fill="#3fb950" opacity="0.7"/>
<circle cx="589.4" cy="430.6" r="2.6" fill="#3fb950" opacity="0.7"/>
<circle cx="596.8" cy="430.6" r="2.6" fill="#3fb950" opacity="0.7"/>
<circle cx="604.2" cy="430.2" r="2.6" fill="#3fb950" opacity="0.7"/>
<circle cx="611.7" cy="429.8" r="2.6" fill="#3fb950" opacity="0.7"/>
<circle cx="619.1" cy="434.9" r="2.6" fill="#3fb950" opacity="0.7"/>
<circle cx="626.5" cy="427.9" r="2.6" fill="#3fb950" opacity="0.7"/>
<circle cx="633.9" cy="428.3" r="2.6" fill="#3fb950" opacity="0.7"/>
<circle cx="641.3" cy="430.8" r="2.6" fill="#3fb950" opacity="0.7"/>
<circle cx="648.8" cy="430.2" r="2.6" fill="#3fb950" opacity="0.7"/>
<circle cx="656.2" cy="429.0" r="2.6" fill="#3fb950" opacity="0.7"/>
<circle cx="663.6" cy="430.2" r="2.6" fill="#3fb950" opacity="0.7"/>
<circle cx="671.0" cy="429.8" r="2.6" fill="#3fb950" opacity="0.7"/>
<circle cx="678.4" cy="429.1" r="2.6" fill="#3fb950" opacity="0.7"/>
<circle cx="685.9" cy="432.2" r="2.6" fill="#3fb950" opacity="0.7"/>
<circle cx="693.3" cy="433.5" r="2.6" fill="#3fb950" opacity="0.7"/>
<circle cx="700.7" cy="429.1" r="2.6" fill="#3fb950" opacity="0.7"/>
<circle cx="708.1" cy="429.1" r="2.6" fill="#3fb950" opacity="0.7"/>
<circle cx="715.5" cy="436.2" r="2.6" fill="#3fb950" opacity="0.7"/>
<circle cx="723.0" cy="436.0" r="2.6" fill="#3fb950" opacity="0.7"/>
<circle cx="730.4" cy="430.1" r="2.6" fill="#3fb950" opacity="0.7"/>
<circle cx="737.8" cy="430.7" r="2.6" fill="#3fb950" opacity="0.7"/>
<circle cx="745.2" cy="428.7" r="2.6" fill="#3fb950" opacity="0.7"/>
<circle cx="752.6" cy="429.1" r="2.6" fill="#3fb950" opacity="0.7"/>
<circle cx="760.1" cy="454.7" r="2.6" fill="#3fb950" opacity="0.7"/>
<circle cx="767.5" cy="430.9" r="2.6" fill="#3fb950" opacity="0.7"/>
<circle cx="774.9" cy="441.9" r="2.6" fill="#3fb950" opacity="0.7"/>
<circle cx="782.3" cy="419.1" r="2.6" fill="#3fb950" opacity="0.7"/>
<circle cx="101.0" cy="386.0" r="2.6" fill="#bc8cff" opacity="0.7"/>
<circle cx="108.4" cy="364.9" r="2.6" fill="#bc8cff" opacity="0.7"/>
<circle cx="115.9" cy="223.3" r="2.6" fill="#bc8cff" opacity="0.7"/>
<circle cx="123.3" cy="386.3" r="2.6" fill="#bc8cff" opacity="0.7"/>
<circle cx="130.7" cy="424.9" r="2.6" fill="#bc8cff" opacity="0.7"/>
<circle cx="138.1" cy="339.0" r="2.6" fill="#bc8cff" opacity="0.7"/>
<circle cx="145.5" cy="260.4" r="2.6" fill="#bc8cff" opacity="0.7"/>
<circle cx="153.0" cy="382.6" r="2.6" fill="#bc8cff" opacity="0.7"/>
<circle cx="160.4" cy="383.2" r="2.6" fill="#bc8cff" opacity="0.7"/>
<circle cx="167.8" cy="383.3" r="2.6" fill="#bc8cff" opacity="0.7"/>
<circle cx="175.2" cy="386.0" r="2.6" fill="#bc8cff" opacity="0.7"/>
<circle cx="182.6" cy="381.8" r="2.6" fill="#bc8cff" opacity="0.7"/>
<circle cx="190.1" cy="209.1" r="2.6" fill="#bc8cff" opacity="0.7"/>
<circle cx="197.5" cy="213.4" r="2.6" fill="#bc8cff" opacity="0.7"/>
<circle cx="204.9" cy="267.0" r="2.6" fill="#bc8cff" opacity="0.7"/>
<circle cx="212.3" cy="236.8" r="2.6" fill="#bc8cff" opacity="0.7"/>
<circle cx="219.7" cy="225.6" r="2.6" fill="#bc8cff" opacity="0.7"/>
<circle cx="227.2" cy="261.0" r="2.6" fill="#bc8cff" opacity="0.7"/>
<circle cx="234.6" cy="238.6" r="2.6" fill="#bc8cff" opacity="0.7"/>
<circle cx="242.0" cy="222.7" r="2.6" fill="#bc8cff" opacity="0.7"/>
<circle cx="249.4" cy="246.7" r="2.6" fill="#bc8cff" opacity="0.7"/>
<circle cx="256.8" cy="228.2" r="2.6" fill="#bc8cff" opacity="0.7"/>
<circle cx="264.3" cy="360.5" r="2.6" fill="#bc8cff" opacity="0.7"/>
<circle cx="271.7" cy="245.5" r="2.6" fill="#bc8cff" opacity="0.7"/>
<circle cx="279.1" cy="232.8" r="2.6" fill="#bc8cff" opacity="0.7"/>
<circle cx="286.5" cy="229.7" r="2.6" fill="#bc8cff" opacity="0.7"/>
<circle cx="293.9" cy="426.5" r="2.6" fill="#bc8cff" opacity="0.7"/>
<circle cx="301.4" cy="426.6" r="2.6" fill="#bc8cff" opacity="0.7"/>
<circle cx="308.8" cy="410.8" r="2.6" fill="#bc8cff" opacity="0.7"/>
<circle cx="316.2" cy="412.3" r="2.6" fill="#bc8cff" opacity="0.7"/>
<circle cx="323.6" cy="383.3" r="2.6" fill="#bc8cff" opacity="0.7"/>
<circle cx="331.0" cy="279.2" r="2.6" fill="#bc8cff" opacity="0.7"/>
<circle cx="338.5" cy="384.4" r="2.6" fill="#bc8cff" opacity="0.7"/>
<circle cx="345.9" cy="216.5" r="2.6" fill="#bc8cff" opacity="0.7"/>
<circle cx="353.3" cy="384.1" r="2.6" fill="#bc8cff" opacity="0.7"/>
<circle cx="360.7" cy="381.9" r="2.6" fill="#bc8cff" opacity="0.7"/>
<circle cx="368.1" cy="383.8" r="2.6" fill="#bc8cff" opacity="0.7"/>
<circle cx="375.6" cy="387.7" r="2.6" fill="#bc8cff" opacity="0.7"/>
<circle cx="383.0" cy="384.3" r="2.6" fill="#bc8cff" opacity="0.7"/>
<circle cx="390.4" cy="247.2" r="2.6" fill="#bc8cff" opacity="0.7"/>
<circle cx="397.8" cy="242.1" r="2.6" fill="#bc8cff" opacity="0.7"/>
<circle cx="405.2" cy="253.2" r="2.6" fill="#bc8cff" opacity="0.7"/>
<circle cx="412.7" cy="387.1" r="2.6" fill="#bc8cff" opacity="0.7"/>
<circle cx="420.1" cy="388.5" r="2.6" fill="#bc8cff" opacity="0.7"/>
<circle cx="427.5" cy="373.4" r="2.6" fill="#bc8cff" opacity="0.7"/>
<circle cx="434.9" cy="387.9" r="2.6" fill="#bc8cff" opacity="0.7"/>
<circle cx="442.3" cy="390.9" r="2.6" fill="#bc8cff" opacity="0.7"/>
<circle cx="449.8" cy="312.9" r="2.6" fill="#bc8cff" opacity="0.7"/>
<circle cx="457.2" cy="281.8" r="2.6" fill="#bc8cff" opacity="0.7"/>
<circle cx="464.6" cy="388.9" r="2.6" fill="#bc8cff" opacity="0.7"/>
<circle cx="472.0" cy="331.7" r="2.6" fill="#bc8cff" opacity="0.7"/>
<circle cx="479.4" cy="387.5" r="2.6" fill="#bc8cff" opacity="0.7"/>
<circle cx="486.9" cy="388.3" r="2.6" fill="#bc8cff" opacity="0.7"/>
<circle cx="494.3" cy="387.5" r="2.6" fill="#bc8cff" opacity="0.7"/>
<circle cx="501.7" cy="389.5" r="2.6" fill="#bc8cff" opacity="0.7"/>
<circle cx="509.1" cy="385.3" r="2.6" fill="#bc8cff" opacity="0.7"/>
<circle cx="516.5" cy="387.1" r="2.6" fill="#bc8cff" opacity="0.7"/>
<circle cx="524.0" cy="215.7" r="2.6" fill="#bc8cff" opacity="0.7"/>
<circle cx="531.4" cy="215.0" r="2.6" fill="#bc8cff" opacity="0.7"/>
<circle cx="538.8" cy="237.5" r="2.6" fill="#bc8cff" opacity="0.7"/>
<circle cx="546.2" cy="243.8" r="2.6" fill="#bc8cff" opacity="0.7"/>
<circle cx="553.6" cy="219.0" r="2.6" fill="#bc8cff" opacity="0.7"/>
<circle cx="561.1" cy="264.6" r="2.6" fill="#bc8cff" opacity="0.7"/>
<circle cx="568.5" cy="266.4" r="2.6" fill="#bc8cff" opacity="0.7"/>
<circle cx="575.9" cy="256.7" r="2.6" fill="#bc8cff" opacity="0.7"/>
<circle cx="583.3" cy="384.5" r="2.6" fill="#bc8cff" opacity="0.7"/>
<circle cx="590.7" cy="388.5" r="2.6" fill="#bc8cff" opacity="0.7"/>
<circle cx="598.2" cy="388.1" r="2.6" fill="#bc8cff" opacity="0.7"/>
<circle cx="605.6" cy="388.9" r="2.6" fill="#bc8cff" opacity="0.7"/>
<circle cx="613.0" cy="390.3" r="2.6" fill="#bc8cff" opacity="0.7"/>
<circle cx="620.4" cy="278.1" r="2.6" fill="#bc8cff" opacity="0.7"/>
<circle cx="627.8" cy="231.0" r="2.6" fill="#bc8cff" opacity="0.7"/>
<circle cx="635.3" cy="233.5" r="2.6" fill="#bc8cff" opacity="0.7"/>
<circle cx="642.7" cy="392.5" r="2.6" fill="#bc8cff" opacity="0.7"/>
<circle cx="650.1" cy="387.3" r="2.6" fill="#bc8cff" opacity="0.7"/>
<circle cx="657.5" cy="426.7" r="2.6" fill="#bc8cff" opacity="0.7"/>
<circle cx="664.9" cy="386.4" r="2.6" fill="#bc8cff" opacity="0.7"/>
<circle cx="672.4" cy="215.9" r="2.6" fill="#bc8cff" opacity="0.7"/>
<circle cx="679.8" cy="424.8" r="2.6" fill="#bc8cff" opacity="0.7"/>
<circle cx="687.2" cy="242.9" r="2.6" fill="#bc8cff" opacity="0.7"/>
<circle cx="694.6" cy="454.6" r="2.6" fill="#bc8cff" opacity="0.7"/>
<circle cx="702.0" cy="424.8" r="2.6" fill="#bc8cff" opacity="0.7"/>
<circle cx="709.5" cy="424.6" r="2.6" fill="#bc8cff" opacity="0.7"/>
<circle cx="716.9" cy="420.5" r="2.6" fill="#bc8cff" opacity="0.7"/>
<circle cx="724.3" cy="381.0" r="2.6" fill="#bc8cff" opacity="0.7"/>
<circle cx="731.7" cy="379.3" r="2.6" fill="#bc8cff" opacity="0.7"/>
<circle cx="739.1" cy="387.0" r="2.6" fill="#bc8cff" opacity="0.7"/>
<circle cx="746.6" cy="253.9" r="2.6" fill="#bc8cff" opacity="0.7"/>
<circle cx="754.0" cy="396.9" r="2.6" fill="#bc8cff" opacity="0.7"/>
<circle cx="761.4" cy="375.5" r="2.6" fill="#bc8cff" opacity="0.7"/>
<circle cx="768.8" cy="283.4" r="2.6" fill="#bc8cff" opacity="0.7"/>
<circle cx="776.2" cy="396.0" r="2.6" fill="#bc8cff" opacity="0.7"/>
<circle cx="783.7" cy="400.0" r="2.6" fill="#bc8cff" opacity="0.7"/>
<circle cx="98.3" cy="430.6" r="3.2" fill="#ff922b" opacity="0.85"/>
<circle cx="105.8" cy="429.7" r="3.2" fill="#ff922b" opacity="0.85"/>
<circle cx="113.2" cy="429.8" r="3.2" fill="#ff922b" opacity="0.85"/>
<circle cx="120.6" cy="428.3" r="3.2" fill="#ff922b" opacity="0.85"/>
<circle cx="128.0" cy="429.0" r="3.2" fill="#ff922b" opacity="0.85"/>
<circle cx="135.4" cy="426.8" r="3.2" fill="#ff922b" opacity="0.85"/>
<circle cx="142.9" cy="429.3" r="3.2" fill="#ff922b" opacity="0.85"/>
<circle cx="150.3" cy="430.6" r="3.2" fill="#ff922b" opacity="0.85"/>
<circle cx="157.7" cy="431.0" r="3.2" fill="#ff922b" opacity="0.85"/>
<circle cx="165.1" cy="430.6" r="3.2" fill="#ff922b" opacity="0.85"/>
<circle cx="172.5" cy="430.6" r="3.2" fill="#ff922b" opacity="0.85"/>
<circle cx="180.0" cy="430.2" r="3.2" fill="#ff922b" opacity="0.85"/>
<circle cx="187.4" cy="429.8" r="3.2" fill="#ff922b" opacity="0.85"/>
<circle cx="194.8" cy="429.8" r="3.2" fill="#ff922b" opacity="0.85"/>
<circle cx="202.2" cy="430.1" r="3.2" fill="#ff922b" opacity="0.85"/>
<circle cx="209.6" cy="429.7" r="3.2" fill="#ff922b" opacity="0.85"/>
<circle cx="217.1" cy="430.2" r="3.2" fill="#ff922b" opacity="0.85"/>
<circle cx="224.5" cy="127.7" r="3.2" fill="#ff922b" opacity="0.85"/>
<circle cx="231.9" cy="429.7" r="3.2" fill="#ff922b" opacity="0.85"/>
<circle cx="239.3" cy="430.1" r="3.2" fill="#ff922b" opacity="0.85"/>
<circle cx="246.7" cy="430.0" r="3.2" fill="#ff922b" opacity="0.85"/>
<circle cx="254.2" cy="430.1" r="3.2" fill="#ff922b" opacity="0.85"/>
<circle cx="261.6" cy="432.0" r="3.2" fill="#ff922b" opacity="0.85"/>
<circle cx="269.0" cy="430.0" r="3.2" fill="#ff922b" opacity="0.85"/>
<circle cx="276.4" cy="430.1" r="3.2" fill="#ff922b" opacity="0.85"/>
<circle cx="283.8" cy="428.6" r="3.2" fill="#ff922b" opacity="0.85"/>
<circle cx="291.3" cy="429.0" r="3.2" fill="#ff922b" opacity="0.85"/>
<circle cx="298.7" cy="429.0" r="3.2" fill="#ff922b" opacity="0.85"/>
<circle cx="306.1" cy="429.1" r="3.2" fill="#ff922b" opacity="0.85"/>
<circle cx="313.5" cy="429.3" r="3.2" fill="#ff922b" opacity="0.85"/>
<circle cx="320.9" cy="430.2" r="3.2" fill="#ff922b" opacity="0.85"/>
<circle cx="328.4" cy="429.9" r="3.2" fill="#ff922b" opacity="0.85"/>
<circle cx="335.8" cy="430.6" r="3.2" fill="#ff922b" opacity="0.85"/>
<circle cx="343.2" cy="430.5" r="3.2" fill="#ff922b" opacity="0.85"/>
<circle cx="350.6" cy="430.1" r="3.2" fill="#ff922b" opacity="0.85"/>
<circle cx="358.0" cy="430.1" r="3.2" fill="#ff922b" opacity="0.85"/>
<circle cx="365.5" cy="430.1" r="3.2" fill="#ff922b" opacity="0.85"/>
<circle cx="372.9" cy="430.6" r="3.2" fill="#ff922b" opacity="0.85"/>
<circle cx="380.3" cy="430.2" r="3.2" fill="#ff922b" opacity="0.85"/>
<circle cx="387.7" cy="429.0" r="3.2" fill="#ff922b" opacity="0.85"/>
<circle cx="395.1" cy="430.7" r="3.2" fill="#ff922b" opacity="0.85"/>
<circle cx="402.6" cy="429.7" r="3.2" fill="#ff922b" opacity="0.85"/>
<circle cx="410.0" cy="430.2" r="3.2" fill="#ff922b" opacity="0.85"/>
<circle cx="417.4" cy="430.2" r="3.2" fill="#ff922b" opacity="0.85"/>
<circle cx="424.8" cy="429.7" r="3.2" fill="#ff922b" opacity="0.85"/>
<circle cx="432.2" cy="430.2" r="3.2" fill="#ff922b" opacity="0.85"/>
<circle cx="439.7" cy="430.2" r="3.2" fill="#ff922b" opacity="0.85"/>
<circle cx="447.1" cy="429.7" r="3.2" fill="#ff922b" opacity="0.85"/>
<circle cx="454.5" cy="428.4" r="3.2" fill="#ff922b" opacity="0.85"/>
<circle cx="461.9" cy="430.2" r="3.2" fill="#ff922b" opacity="0.85"/>
<circle cx="469.3" cy="428.3" r="3.2" fill="#ff922b" opacity="0.85"/>
<circle cx="476.8" cy="429.8" r="3.2" fill="#ff922b" opacity="0.85"/>
<circle cx="484.2" cy="430.2" r="3.2" fill="#ff922b" opacity="0.85"/>
<circle cx="491.6" cy="430.2" r="3.2" fill="#ff922b" opacity="0.85"/>
<circle cx="499.0" cy="429.8" r="3.2" fill="#ff922b" opacity="0.85"/>
<circle cx="506.4" cy="430.6" r="3.2" fill="#ff922b" opacity="0.85"/>
<circle cx="513.9" cy="429.4" r="3.2" fill="#ff922b" opacity="0.85"/>
<circle cx="521.3" cy="429.4" r="3.2" fill="#ff922b" opacity="0.85"/>
<circle cx="528.7" cy="429.0" r="3.2" fill="#ff922b" opacity="0.85"/>
<circle cx="536.1" cy="429.4" r="3.2" fill="#ff922b" opacity="0.85"/>
<circle cx="543.5" cy="430.5" r="3.2" fill="#ff922b" opacity="0.85"/>
<circle cx="551.0" cy="429.8" r="3.2" fill="#ff922b" opacity="0.85"/>
<circle cx="558.4" cy="429.3" r="3.2" fill="#ff922b" opacity="0.85"/>
<circle cx="565.8" cy="429.0" r="3.2" fill="#ff922b" opacity="0.85"/>
<circle cx="573.2" cy="431.8" r="3.2" fill="#ff922b" opacity="0.85"/>
<circle cx="580.6" cy="430.2" r="3.2" fill="#ff922b" opacity="0.85"/>
<circle cx="588.1" cy="430.2" r="3.2" fill="#ff922b" opacity="0.85"/>
<circle cx="595.5" cy="430.6" r="3.2" fill="#ff922b" opacity="0.85"/>
<circle cx="602.9" cy="430.6" r="3.2" fill="#ff922b" opacity="0.85"/>
<circle cx="610.3" cy="429.8" r="3.2" fill="#ff922b" opacity="0.85"/>
<circle cx="617.7" cy="431.9" r="3.2" fill="#ff922b" opacity="0.85"/>
<circle cx="625.2" cy="429.4" r="3.2" fill="#ff922b" opacity="0.85"/>
<circle cx="632.6" cy="430.5" r="3.2" fill="#ff922b" opacity="0.85"/>
<circle cx="640.0" cy="431.1" r="3.2" fill="#ff922b" opacity="0.85"/>
<circle cx="647.4" cy="430.6" r="3.2" fill="#ff922b" opacity="0.85"/>
<circle cx="654.8" cy="429.0" r="3.2" fill="#ff922b" opacity="0.85"/>
<circle cx="662.3" cy="430.6" r="3.2" fill="#ff922b" opacity="0.85"/>
<circle cx="669.7" cy="429.4" r="3.2" fill="#ff922b" opacity="0.85"/>
<circle cx="677.1" cy="429.0" r="3.2" fill="#ff922b" opacity="0.85"/>
<circle cx="684.5" cy="429.4" r="3.2" fill="#ff922b" opacity="0.85"/>
<circle cx="691.9" cy="430.8" r="3.2" fill="#ff922b" opacity="0.85"/>
<circle cx="699.4" cy="429.1" r="3.2" fill="#ff922b" opacity="0.85"/>
<circle cx="706.8" cy="429.1" r="3.2" fill="#ff922b" opacity="0.85"/>
<circle cx="714.2" cy="428.2" r="3.2" fill="#ff922b" opacity="0.85"/>
<circle cx="721.6" cy="429.1" r="3.2" fill="#ff922b" opacity="0.85"/>
<circle cx="729.0" cy="429.7" r="3.2" fill="#ff922b" opacity="0.85"/>
<circle cx="736.5" cy="430.7" r="3.2" fill="#ff922b" opacity="0.85"/>
<circle cx="743.9" cy="430.3" r="3.2" fill="#ff922b" opacity="0.85"/>
<circle cx="751.3" cy="430.7" r="3.2" fill="#ff922b" opacity="0.85"/>
<circle cx="758.7" cy="428.2" r="3.2" fill="#ff922b" opacity="0.85"/>
<circle cx="766.1" cy="430.3" r="3.2" fill="#ff922b" opacity="0.85"/>
<circle cx="773.6" cy="428.8" r="3.2" fill="#ff922b" opacity="0.85"/>
<circle cx="781.0" cy="429.1" r="3.2" fill="#ff922b" opacity="0.85"/>
<circle cx="847" cy="84" r="5" fill="#ff922b"/>
<text x="866" y="88" font-size="13" fill="#c9d1d9" font-weight="700">Kāra</text>
<line x1="836" y1="108" x2="858" y2="108" stroke="#a7b0bc" stroke-width="2" stroke-dasharray="5 4"/>
<text x="866" y="112" font-size="13" fill="#c9d1d9" font-weight="400">Rust = 1.0×</text>
<circle cx="847" cy="132" r="4" fill="#3fb950"/>
<text x="866" y="136" font-size="13" fill="#c9d1d9" font-weight="400">C</text>
<circle cx="847" cy="156" r="4" fill="#bc8cff"/>
<text x="866" y="160" font-size="13" fill="#c9d1d9" font-weight="400">Go</text>
<text x="70" y="538" font-size="11.5" fill="#8b949e">Each dot is one benchmarked program (kata × approach); there is no connecting line because left-to-right order is not meaningful. Raw numbers: bench-results.json</text>
</svg>