<svg xmlns="http://www.w3.org/2000/svg" width="980" height="560" viewBox="0 0 980 560" font-family="-apple-system,Segoe UI,Helvetica,Arial,sans-serif">
<rect width="980" height="560" fill="#282c34"/>
<text x="70" y="34" font-size="21" font-weight="700" fill="#c9d1d9">Runtime peak memory — sequential lane</text>
<text x="70" y="56" font-size="13" fill="#8b949e">relative to Rust = 1.0 · lower = leaner · 57 programs</text>
<line x1="70" y1="456.0" x2="812" y2="456.0" stroke="#3b414b" stroke-width="1"/>
<text x="60" y="460.0" font-size="12" text-anchor="end" fill="#8b949e">0.0×</text>
<line x1="70" y1="429.0" x2="812" y2="429.0" stroke="#a7b0bc" stroke-width="2" stroke-dasharray="5 4"/>
<text x="60" y="433.0" font-size="12" text-anchor="end" fill="#aeb6c0" font-weight="700">1.0×</text>
<line x1="70" y1="380.4" x2="812" y2="380.4" stroke="#3b414b" stroke-width="1"/>
<text x="60" y="384.4" font-size="12" text-anchor="end" fill="#8b949e">2.8×</text>
<line x1="70" y1="304.8" x2="812" y2="304.8" stroke="#3b414b" stroke-width="1"/>
<text x="60" y="308.8" font-size="12" text-anchor="end" fill="#8b949e">5.6×</text>
<line x1="70" y1="229.2" x2="812" y2="229.2" stroke="#3b414b" stroke-width="1"/>
<text x="60" y="233.2" font-size="12" text-anchor="end" fill="#8b949e">8.4×</text>
<line x1="70" y1="153.6" x2="812" y2="153.6" stroke="#3b414b" stroke-width="1"/>
<text x="60" y="157.6" font-size="12" text-anchor="end" fill="#8b949e">11.2×</text>
<line x1="70" y1="78.0" x2="812" y2="78.0" stroke="#3b414b" stroke-width="1"/>
<text x="60" y="82.0" font-size="12" text-anchor="end" fill="#8b949e">14.0×</text>
<text x="812" y="423.0" font-size="11" text-anchor="end" fill="#aeb6c0">Rust baseline</text>
<line x1="70" y1="456" x2="812" y2="456" stroke="#3b414b"/>
<text x="441.0" y="478" font-size="11" text-anchor="middle" fill="#8b949e">57 programs (kata × approach) — x-order carries no meaning</text>
<circle cx="99.7" cy="430.2" r="2.6" fill="#3fb950" opacity="0.7"/>
<circle cx="111.9" cy="429.0" r="2.6" fill="#3fb950" opacity="0.7"/>
<circle cx="124.1" cy="430.1" r="2.6" fill="#3fb950" opacity="0.7"/>
<circle cx="136.2" cy="431.1" r="2.6" fill="#3fb950" opacity="0.7"/>
<circle cx="148.4" cy="429.1" r="2.6" fill="#3fb950" opacity="0.7"/>
<circle cx="160.6" cy="431.2" r="2.6" fill="#3fb950" opacity="0.7"/>
<circle cx="172.8" cy="432.7" r="2.6" fill="#3fb950" opacity="0.7"/>
<circle cx="185.0" cy="430.6" r="2.6" fill="#3fb950" opacity="0.7"/>
<circle cx="197.2" cy="431.0" r="2.6" fill="#3fb950" opacity="0.7"/>
<circle cx="209.4" cy="430.2" r="2.6" fill="#3fb950" opacity="0.7"/>
<circle cx="221.6" cy="430.6" r="2.6" fill="#3fb950" opacity="0.7"/>
<circle cx="233.8" cy="430.2" r="2.6" fill="#3fb950" opacity="0.7"/>
<circle cx="246.0" cy="430.2" r="2.6" fill="#3fb950" opacity="0.7"/>
<circle cx="258.1" cy="429.4" r="2.6" fill="#3fb950" opacity="0.7"/>
<circle cx="270.3" cy="430.1" r="2.6" fill="#3fb950" opacity="0.7"/>
<circle cx="282.5" cy="430.4" r="2.6" fill="#3fb950" opacity="0.7"/>
<circle cx="294.7" cy="429.8" r="2.6" fill="#3fb950" opacity="0.7"/>
<circle cx="306.9" cy="429.0" r="2.6" fill="#3fb950" opacity="0.7"/>
<circle cx="319.1" cy="429.0" r="2.6" fill="#3fb950" opacity="0.7"/>
<circle cx="331.3" cy="431.6" r="2.6" fill="#3fb950" opacity="0.7"/>
<circle cx="343.5" cy="425.7" r="2.6" fill="#3fb950" opacity="0.7"/>
<circle cx="355.7" cy="429.7" r="2.6" fill="#3fb950" opacity="0.7"/>
<circle cx="367.9" cy="435.0" r="2.6" fill="#3fb950" opacity="0.7"/>
<circle cx="380.1" cy="430.7" r="2.6" fill="#3fb950" opacity="0.7"/>
<circle cx="392.2" cy="429.8" r="2.6" fill="#3fb950" opacity="0.7"/>
<circle cx="404.4" cy="430.5" r="2.6" fill="#3fb950" opacity="0.7"/>
<circle cx="416.6" cy="429.0" r="2.6" fill="#3fb950" opacity="0.7"/>
<circle cx="428.8" cy="429.0" r="2.6" fill="#3fb950" opacity="0.7"/>
<circle cx="441.0" cy="429.3" r="2.6" fill="#3fb950" opacity="0.7"/>
<circle cx="453.2" cy="429.3" r="2.6" fill="#3fb950" opacity="0.7"/>
<circle cx="465.4" cy="430.6" r="2.6" fill="#3fb950" opacity="0.7"/>
<circle cx="477.6" cy="433.1" r="2.6" fill="#3fb950" opacity="0.7"/>
<circle cx="489.8" cy="431.0" r="2.6" fill="#3fb950" opacity="0.7"/>
<circle cx="501.9" cy="430.9" r="2.6" fill="#3fb950" opacity="0.7"/>
<circle cx="514.1" cy="430.5" r="2.6" fill="#3fb950" opacity="0.7"/>
<circle cx="526.3" cy="430.5" r="2.6" fill="#3fb950" opacity="0.7"/>
<circle cx="538.5" cy="454.3" r="2.6" fill="#3fb950" opacity="0.7"/>
<circle cx="550.7" cy="430.2" r="2.6" fill="#3fb950" opacity="0.7"/>
<circle cx="562.9" cy="430.2" r="2.6" fill="#3fb950" opacity="0.7"/>
<circle cx="575.1" cy="434.9" r="2.6" fill="#3fb950" opacity="0.7"/>
<circle cx="587.3" cy="429.0" r="2.6" fill="#3fb950" opacity="0.7"/>
<circle cx="599.5" cy="430.2" r="2.6" fill="#3fb950" opacity="0.7"/>
<circle cx="611.7" cy="429.1" r="2.6" fill="#3fb950" opacity="0.7"/>
<circle cx="623.8" cy="432.2" r="2.6" fill="#3fb950" opacity="0.7"/>
<circle cx="636.0" cy="433.5" r="2.6" fill="#3fb950" opacity="0.7"/>
<circle cx="648.2" cy="429.1" r="2.6" fill="#3fb950" opacity="0.7"/>
<circle cx="660.4" cy="429.1" r="2.6" fill="#3fb950" opacity="0.7"/>
<circle cx="672.6" cy="436.2" r="2.6" fill="#3fb950" opacity="0.7"/>
<circle cx="684.8" cy="436.0" r="2.6" fill="#3fb950" opacity="0.7"/>
<circle cx="697.0" cy="430.1" r="2.6" fill="#3fb950" opacity="0.7"/>
<circle cx="709.2" cy="430.7" r="2.6" fill="#3fb950" opacity="0.7"/>
<circle cx="721.4" cy="428.7" r="2.6" fill="#3fb950" opacity="0.7"/>
<circle cx="733.6" cy="429.1" r="2.6" fill="#3fb950" opacity="0.7"/>
<circle cx="745.8" cy="454.7" r="2.6" fill="#3fb950" opacity="0.7"/>
<circle cx="757.9" cy="430.9" r="2.6" fill="#3fb950" opacity="0.7"/>
<circle cx="770.1" cy="441.9" r="2.6" fill="#3fb950" opacity="0.7"/>
<circle cx="782.3" cy="419.1" r="2.6" fill="#3fb950" opacity="0.7"/>
<circle cx="101.9" cy="386.0" r="2.6" fill="#bc8cff" opacity="0.7"/>
<circle cx="114.1" cy="364.9" r="2.6" fill="#bc8cff" opacity="0.7"/>
<circle cx="126.3" cy="223.3" r="2.6" fill="#bc8cff" opacity="0.7"/>
<circle cx="138.5" cy="386.3" r="2.6" fill="#bc8cff" opacity="0.7"/>
<circle cx="150.6" cy="424.9" r="2.6" fill="#bc8cff" opacity="0.7"/>
<circle cx="162.8" cy="339.0" r="2.6" fill="#bc8cff" opacity="0.7"/>
<circle cx="175.0" cy="260.4" r="2.6" fill="#bc8cff" opacity="0.7"/>
<circle cx="187.2" cy="382.6" r="2.6" fill="#bc8cff" opacity="0.7"/>
<circle cx="199.4" cy="383.2" r="2.6" fill="#bc8cff" opacity="0.7"/>
<circle cx="211.6" cy="383.3" r="2.6" fill="#bc8cff" opacity="0.7"/>
<circle cx="223.8" cy="386.0" r="2.6" fill="#bc8cff" opacity="0.7"/>
<circle cx="236.0" cy="381.8" r="2.6" fill="#bc8cff" opacity="0.7"/>
<circle cx="248.2" cy="209.1" r="2.6" fill="#bc8cff" opacity="0.7"/>
<circle cx="260.4" cy="213.4" r="2.6" fill="#bc8cff" opacity="0.7"/>
<circle cx="272.5" cy="267.0" r="2.6" fill="#bc8cff" opacity="0.7"/>
<circle cx="284.7" cy="236.8" r="2.6" fill="#bc8cff" opacity="0.7"/>
<circle cx="296.9" cy="225.6" r="2.6" fill="#bc8cff" opacity="0.7"/>
<circle cx="309.1" cy="261.0" r="2.6" fill="#bc8cff" opacity="0.7"/>
<circle cx="321.3" cy="238.6" r="2.6" fill="#bc8cff" opacity="0.7"/>
<circle cx="333.5" cy="222.7" r="2.6" fill="#bc8cff" opacity="0.7"/>
<circle cx="345.7" cy="246.7" r="2.6" fill="#bc8cff" opacity="0.7"/>
<circle cx="357.9" cy="228.2" r="2.6" fill="#bc8cff" opacity="0.7"/>
<circle cx="370.1" cy="360.5" r="2.6" fill="#bc8cff" opacity="0.7"/>
<circle cx="382.3" cy="245.5" r="2.6" fill="#bc8cff" opacity="0.7"/>
<circle cx="394.4" cy="232.8" r="2.6" fill="#bc8cff" opacity="0.7"/>
<circle cx="406.6" cy="229.7" r="2.6" fill="#bc8cff" opacity="0.7"/>
<circle cx="418.8" cy="426.5" r="2.6" fill="#bc8cff" opacity="0.7"/>
<circle cx="431.0" cy="426.6" r="2.6" fill="#bc8cff" opacity="0.7"/>
<circle cx="443.2" cy="410.8" r="2.6" fill="#bc8cff" opacity="0.7"/>
<circle cx="455.4" cy="412.3" r="2.6" fill="#bc8cff" opacity="0.7"/>
<circle cx="467.6" cy="383.3" r="2.6" fill="#bc8cff" opacity="0.7"/>
<circle cx="479.8" cy="279.2" r="2.6" fill="#bc8cff" opacity="0.7"/>
<circle cx="492.0" cy="384.4" r="2.6" fill="#bc8cff" opacity="0.7"/>
<circle cx="504.2" cy="216.5" r="2.6" fill="#bc8cff" opacity="0.7"/>
<circle cx="516.3" cy="384.1" r="2.6" fill="#bc8cff" opacity="0.7"/>
<circle cx="528.5" cy="381.9" r="2.6" fill="#bc8cff" opacity="0.7"/>
<circle cx="540.7" cy="373.4" r="2.6" fill="#bc8cff" opacity="0.7"/>
<circle cx="552.9" cy="215.7" r="2.6" fill="#bc8cff" opacity="0.7"/>
<circle cx="565.1" cy="384.5" r="2.6" fill="#bc8cff" opacity="0.7"/>
<circle cx="577.3" cy="278.1" r="2.6" fill="#bc8cff" opacity="0.7"/>
<circle cx="589.5" cy="426.7" r="2.6" fill="#bc8cff" opacity="0.7"/>
<circle cx="601.7" cy="386.4" r="2.6" fill="#bc8cff" opacity="0.7"/>
<circle cx="613.9" cy="424.8" r="2.6" fill="#bc8cff" opacity="0.7"/>
<circle cx="626.1" cy="242.9" r="2.6" fill="#bc8cff" opacity="0.7"/>
<circle cx="638.2" cy="454.6" r="2.6" fill="#bc8cff" opacity="0.7"/>
<circle cx="650.4" cy="424.8" r="2.6" fill="#bc8cff" opacity="0.7"/>
<circle cx="662.6" cy="424.6" r="2.6" fill="#bc8cff" opacity="0.7"/>
<circle cx="674.8" cy="420.5" r="2.6" fill="#bc8cff" opacity="0.7"/>
<circle cx="687.0" cy="381.0" r="2.6" fill="#bc8cff" opacity="0.7"/>
<circle cx="699.2" cy="379.3" r="2.6" fill="#bc8cff" opacity="0.7"/>
<circle cx="711.4" cy="387.0" r="2.6" fill="#bc8cff" opacity="0.7"/>
<circle cx="723.6" cy="253.9" r="2.6" fill="#bc8cff" opacity="0.7"/>
<circle cx="735.8" cy="396.9" r="2.6" fill="#bc8cff" opacity="0.7"/>
<circle cx="748.0" cy="375.5" r="2.6" fill="#bc8cff" opacity="0.7"/>
<circle cx="760.1" cy="283.4" r="2.6" fill="#bc8cff" opacity="0.7"/>
<circle cx="772.3" cy="396.0" r="2.6" fill="#bc8cff" opacity="0.7"/>
<circle cx="784.5" cy="400.0" r="2.6" fill="#bc8cff" opacity="0.7"/>
<circle cx="97.5" cy="430.6" r="3.2" fill="#ff922b" opacity="0.85"/>
<circle cx="109.7" cy="429.7" r="3.2" fill="#ff922b" opacity="0.85"/>
<circle cx="121.9" cy="429.8" r="3.2" fill="#ff922b" opacity="0.85"/>
<circle cx="134.0" cy="428.3" r="3.2" fill="#ff922b" opacity="0.85"/>
<circle cx="146.2" cy="429.0" r="3.2" fill="#ff922b" opacity="0.85"/>
<circle cx="158.4" cy="426.8" r="3.2" fill="#ff922b" opacity="0.85"/>
<circle cx="170.6" cy="429.3" r="3.2" fill="#ff922b" opacity="0.85"/>
<circle cx="182.8" cy="430.6" r="3.2" fill="#ff922b" opacity="0.85"/>
<circle cx="195.0" cy="431.0" r="3.2" fill="#ff922b" opacity="0.85"/>
<circle cx="207.2" cy="430.6" r="3.2" fill="#ff922b" opacity="0.85"/>
<circle cx="219.4" cy="430.6" r="3.2" fill="#ff922b" opacity="0.85"/>
<circle cx="231.6" cy="430.2" r="3.2" fill="#ff922b" opacity="0.85"/>
<circle cx="243.8" cy="429.8" r="3.2" fill="#ff922b" opacity="0.85"/>
<circle cx="255.9" cy="429.8" r="3.2" fill="#ff922b" opacity="0.85"/>
<circle cx="268.1" cy="430.1" r="3.2" fill="#ff922b" opacity="0.85"/>
<circle cx="280.3" cy="429.7" r="3.2" fill="#ff922b" opacity="0.85"/>
<circle cx="292.5" cy="430.2" r="3.2" fill="#ff922b" opacity="0.85"/>
<circle cx="304.7" cy="127.7" r="3.2" fill="#ff922b" opacity="0.85"/>
<circle cx="316.9" cy="429.7" r="3.2" fill="#ff922b" opacity="0.85"/>
<circle cx="329.1" cy="430.1" r="3.2" fill="#ff922b" opacity="0.85"/>
<circle cx="341.3" cy="430.0" r="3.2" fill="#ff922b" opacity="0.85"/>
<circle cx="353.5" cy="430.1" r="3.2" fill="#ff922b" opacity="0.85"/>
<circle cx="365.7" cy="432.0" r="3.2" fill="#ff922b" opacity="0.85"/>
<circle cx="377.8" cy="430.0" r="3.2" fill="#ff922b" opacity="0.85"/>
<circle cx="390.0" cy="430.1" r="3.2" fill="#ff922b" opacity="0.85"/>
<circle cx="402.2" cy="428.6" r="3.2" fill="#ff922b" opacity="0.85"/>
<circle cx="414.4" cy="429.0" r="3.2" fill="#ff922b" opacity="0.85"/>
<circle cx="426.6" cy="429.0" r="3.2" fill="#ff922b" opacity="0.85"/>
<circle cx="438.8" cy="429.1" r="3.2" fill="#ff922b" opacity="0.85"/>
<circle cx="451.0" cy="429.3" r="3.2" fill="#ff922b" opacity="0.85"/>
<circle cx="463.2" cy="430.2" r="3.2" fill="#ff922b" opacity="0.85"/>
<circle cx="475.4" cy="429.9" r="3.2" fill="#ff922b" opacity="0.85"/>
<circle cx="487.6" cy="430.6" r="3.2" fill="#ff922b" opacity="0.85"/>
<circle cx="499.7" cy="430.5" r="3.2" fill="#ff922b" opacity="0.85"/>
<circle cx="511.9" cy="430.1" r="3.2" fill="#ff922b" opacity="0.85"/>
<circle cx="524.1" cy="430.1" r="3.2" fill="#ff922b" opacity="0.85"/>
<circle cx="536.3" cy="429.7" r="3.2" fill="#ff922b" opacity="0.85"/>
<circle cx="548.5" cy="429.4" r="3.2" fill="#ff922b" opacity="0.85"/>
<circle cx="560.7" cy="430.2" r="3.2" fill="#ff922b" opacity="0.85"/>
<circle cx="572.9" cy="431.9" r="3.2" fill="#ff922b" opacity="0.85"/>
<circle cx="585.1" cy="429.0" r="3.2" fill="#ff922b" opacity="0.85"/>
<circle cx="597.3" cy="430.6" r="3.2" fill="#ff922b" opacity="0.85"/>
<circle cx="609.5" cy="429.0" r="3.2" fill="#ff922b" opacity="0.85"/>
<circle cx="621.6" cy="429.4" r="3.2" fill="#ff922b" opacity="0.85"/>
<circle cx="633.8" cy="430.8" r="3.2" fill="#ff922b" opacity="0.85"/>
<circle cx="646.0" cy="429.1" r="3.2" fill="#ff922b" opacity="0.85"/>
<circle cx="658.2" cy="429.1" r="3.2" fill="#ff922b" opacity="0.85"/>
<circle cx="670.4" cy="428.2" r="3.2" fill="#ff922b" opacity="0.85"/>
<circle cx="682.6" cy="429.1" r="3.2" fill="#ff922b" opacity="0.85"/>
<circle cx="694.8" cy="429.7" r="3.2" fill="#ff922b" opacity="0.85"/>
<circle cx="707.0" cy="430.7" r="3.2" fill="#ff922b" opacity="0.85"/>
<circle cx="719.2" cy="430.3" r="3.2" fill="#ff922b" opacity="0.85"/>
<circle cx="731.4" cy="430.7" r="3.2" fill="#ff922b" opacity="0.85"/>
<circle cx="743.5" cy="428.2" r="3.2" fill="#ff922b" opacity="0.85"/>
<circle cx="755.7" cy="430.3" r="3.2" fill="#ff922b" opacity="0.85"/>
<circle cx="767.9" cy="428.8" r="3.2" fill="#ff922b" opacity="0.85"/>
<circle cx="780.1" cy="429.1" r="3.2" fill="#ff922b" opacity="0.85"/>
<circle cx="847" cy="84" r="5" fill="#ff922b"/>
<text x="866" y="88" font-size="13" fill="#c9d1d9" font-weight="700">Kāra</text>
<line x1="836" y1="108" x2="858" y2="108" stroke="#a7b0bc" stroke-width="2" stroke-dasharray="5 4"/>
<text x="866" y="112" font-size="13" fill="#c9d1d9" font-weight="400">Rust = 1.0×</text>
<circle cx="847" cy="132" r="4" fill="#3fb950"/>
<text x="866" y="136" font-size="13" fill="#c9d1d9" font-weight="400">C</text>
<circle cx="847" cy="156" r="4" fill="#bc8cff"/>
<text x="866" y="160" font-size="13" fill="#c9d1d9" font-weight="400">Go</text>
<text x="70" y="538" font-size="11.5" fill="#8b949e">Each dot is one benchmarked program (kata × approach); there is no connecting line because left-to-right order is not meaningful. Raw numbers: bench-results.json</text>
</svg>