<svg xmlns="http://www.w3.org/2000/svg" width="980" height="560" viewBox="0 0 980 560" font-family="-apple-system,Segoe UI,Helvetica,Arial,sans-serif">
<rect width="980" height="560" fill="#282c34"/>
<text x="70" y="34" font-size="21" font-weight="700" fill="#c9d1d9">Runtime peak memory — sequential lane</text>
<text x="70" y="56" font-size="13" fill="#8b949e">relative to Rust = 1.0 · lower = leaner · 91 programs</text>
<line x1="70" y1="456.0" x2="812" y2="456.0" stroke="#3b414b" stroke-width="1"/>
<text x="60" y="460.0" font-size="12" text-anchor="end" fill="#8b949e">0.0×</text>
<line x1="70" y1="429.0" x2="812" y2="429.0" stroke="#a7b0bc" stroke-width="2" stroke-dasharray="5 4"/>
<text x="60" y="433.0" font-size="12" text-anchor="end" fill="#aeb6c0" font-weight="700">1.0×</text>
<line x1="70" y1="380.4" x2="812" y2="380.4" stroke="#3b414b" stroke-width="1"/>
<text x="60" y="384.4" font-size="12" text-anchor="end" fill="#8b949e">2.8×</text>
<line x1="70" y1="304.8" x2="812" y2="304.8" stroke="#3b414b" stroke-width="1"/>
<text x="60" y="308.8" font-size="12" text-anchor="end" fill="#8b949e">5.6×</text>
<line x1="70" y1="229.2" x2="812" y2="229.2" stroke="#3b414b" stroke-width="1"/>
<text x="60" y="233.2" font-size="12" text-anchor="end" fill="#8b949e">8.4×</text>
<line x1="70" y1="153.6" x2="812" y2="153.6" stroke="#3b414b" stroke-width="1"/>
<text x="60" y="157.6" font-size="12" text-anchor="end" fill="#8b949e">11.2×</text>
<line x1="70" y1="78.0" x2="812" y2="78.0" stroke="#3b414b" stroke-width="1"/>
<text x="60" y="82.0" font-size="12" text-anchor="end" fill="#8b949e">14.0×</text>
<text x="812" y="423.0" font-size="11" text-anchor="end" fill="#aeb6c0">Rust baseline</text>
<line x1="70" y1="456" x2="812" y2="456" stroke="#3b414b"/>
<text x="441.0" y="478" font-size="11" text-anchor="middle" fill="#8b949e">91 programs (kata × approach) — x-order carries no meaning</text>
<circle cx="99.7" cy="430.2" r="2.6" fill="#3fb950" opacity="0.7"/>
<circle cx="107.3" cy="429.0" r="2.6" fill="#3fb950" opacity="0.7"/>
<circle cx="114.8" cy="430.1" r="2.6" fill="#3fb950" opacity="0.7"/>
<circle cx="122.4" cy="431.1" r="2.6" fill="#3fb950" opacity="0.7"/>
<circle cx="130.0" cy="429.1" r="2.6" fill="#3fb950" opacity="0.7"/>
<circle cx="137.6" cy="431.2" r="2.6" fill="#3fb950" opacity="0.7"/>
<circle cx="145.2" cy="432.7" r="2.6" fill="#3fb950" opacity="0.7"/>
<circle cx="152.8" cy="430.6" r="2.6" fill="#3fb950" opacity="0.7"/>
<circle cx="160.4" cy="431.0" r="2.6" fill="#3fb950" opacity="0.7"/>
<circle cx="167.9" cy="430.2" r="2.6" fill="#3fb950" opacity="0.7"/>
<circle cx="175.5" cy="430.6" r="2.6" fill="#3fb950" opacity="0.7"/>
<circle cx="183.1" cy="430.2" r="2.6" fill="#3fb950" opacity="0.7"/>
<circle cx="190.7" cy="430.2" r="2.6" fill="#3fb950" opacity="0.7"/>
<circle cx="198.3" cy="429.4" r="2.6" fill="#3fb950" opacity="0.7"/>
<circle cx="205.9" cy="430.1" r="2.6" fill="#3fb950" opacity="0.7"/>
<circle cx="213.5" cy="430.4" r="2.6" fill="#3fb950" opacity="0.7"/>
<circle cx="221.0" cy="429.8" r="2.6" fill="#3fb950" opacity="0.7"/>
<circle cx="228.6" cy="429.0" r="2.6" fill="#3fb950" opacity="0.7"/>
<circle cx="236.2" cy="429.0" r="2.6" fill="#3fb950" opacity="0.7"/>
<circle cx="243.8" cy="431.6" r="2.6" fill="#3fb950" opacity="0.7"/>
<circle cx="251.4" cy="425.7" r="2.6" fill="#3fb950" opacity="0.7"/>
<circle cx="259.0" cy="429.7" r="2.6" fill="#3fb950" opacity="0.7"/>
<circle cx="266.5" cy="435.0" r="2.6" fill="#3fb950" opacity="0.7"/>
<circle cx="274.1" cy="430.7" r="2.6" fill="#3fb950" opacity="0.7"/>
<circle cx="281.7" cy="429.8" r="2.6" fill="#3fb950" opacity="0.7"/>
<circle cx="289.3" cy="430.5" r="2.6" fill="#3fb950" opacity="0.7"/>
<circle cx="296.9" cy="429.0" r="2.6" fill="#3fb950" opacity="0.7"/>
<circle cx="304.5" cy="429.0" r="2.6" fill="#3fb950" opacity="0.7"/>
<circle cx="312.1" cy="429.3" r="2.6" fill="#3fb950" opacity="0.7"/>
<circle cx="319.6" cy="429.3" r="2.6" fill="#3fb950" opacity="0.7"/>
<circle cx="327.2" cy="430.6" r="2.6" fill="#3fb950" opacity="0.7"/>
<circle cx="334.8" cy="433.1" r="2.6" fill="#3fb950" opacity="0.7"/>
<circle cx="342.4" cy="431.0" r="2.6" fill="#3fb950" opacity="0.7"/>
<circle cx="350.0" cy="430.9" r="2.6" fill="#3fb950" opacity="0.7"/>
<circle cx="357.6" cy="430.5" r="2.6" fill="#3fb950" opacity="0.7"/>
<circle cx="365.2" cy="430.5" r="2.6" fill="#3fb950" opacity="0.7"/>
<circle cx="372.7" cy="430.5" r="2.6" fill="#3fb950" opacity="0.7"/>
<circle cx="380.3" cy="430.6" r="2.6" fill="#3fb950" opacity="0.7"/>
<circle cx="387.9" cy="429.8" r="2.6" fill="#3fb950" opacity="0.7"/>
<circle cx="395.5" cy="427.9" r="2.6" fill="#3fb950" opacity="0.7"/>
<circle cx="403.1" cy="429.3" r="2.6" fill="#3fb950" opacity="0.7"/>
<circle cx="410.7" cy="429.4" r="2.6" fill="#3fb950" opacity="0.7"/>
<circle cx="418.2" cy="430.2" r="2.6" fill="#3fb950" opacity="0.7"/>
<circle cx="425.8" cy="430.2" r="2.6" fill="#3fb950" opacity="0.7"/>
<circle cx="433.4" cy="454.3" r="2.6" fill="#3fb950" opacity="0.7"/>
<circle cx="441.0" cy="430.2" r="2.6" fill="#3fb950" opacity="0.7"/>
<circle cx="448.6" cy="430.2" r="2.6" fill="#3fb950" opacity="0.7"/>
<circle cx="456.2" cy="430.2" r="2.6" fill="#3fb950" opacity="0.7"/>
<circle cx="463.8" cy="430.9" r="2.6" fill="#3fb950" opacity="0.7"/>
<circle cx="471.3" cy="430.6" r="2.6" fill="#3fb950" opacity="0.7"/>
<circle cx="478.9" cy="439.5" r="2.6" fill="#3fb950" opacity="0.7"/>
<circle cx="486.5" cy="430.2" r="2.6" fill="#3fb950" opacity="0.7"/>
<circle cx="494.1" cy="429.8" r="2.6" fill="#3fb950" opacity="0.7"/>
<circle cx="501.7" cy="430.2" r="2.6" fill="#3fb950" opacity="0.7"/>
<circle cx="509.3" cy="430.2" r="2.6" fill="#3fb950" opacity="0.7"/>
<circle cx="516.8" cy="430.6" r="2.6" fill="#3fb950" opacity="0.7"/>
<circle cx="524.4" cy="429.8" r="2.6" fill="#3fb950" opacity="0.7"/>
<circle cx="532.0" cy="430.2" r="2.6" fill="#3fb950" opacity="0.7"/>
<circle cx="539.6" cy="429.8" r="2.6" fill="#3fb950" opacity="0.7"/>
<circle cx="547.2" cy="429.4" r="2.6" fill="#3fb950" opacity="0.7"/>
<circle cx="554.8" cy="429.4" r="2.6" fill="#3fb950" opacity="0.7"/>
<circle cx="562.4" cy="429.4" r="2.6" fill="#3fb950" opacity="0.7"/>
<circle cx="569.9" cy="429.0" r="2.6" fill="#3fb950" opacity="0.7"/>
<circle cx="577.5" cy="429.7" r="2.6" fill="#3fb950" opacity="0.7"/>
<circle cx="585.1" cy="429.0" r="2.6" fill="#3fb950" opacity="0.7"/>
<circle cx="592.7" cy="430.2" r="2.6" fill="#3fb950" opacity="0.7"/>
<circle cx="600.3" cy="430.6" r="2.6" fill="#3fb950" opacity="0.7"/>
<circle cx="607.9" cy="430.6" r="2.6" fill="#3fb950" opacity="0.7"/>
<circle cx="615.5" cy="430.2" r="2.6" fill="#3fb950" opacity="0.7"/>
<circle cx="623.0" cy="429.8" r="2.6" fill="#3fb950" opacity="0.7"/>
<circle cx="630.6" cy="434.9" r="2.6" fill="#3fb950" opacity="0.7"/>
<circle cx="638.2" cy="427.9" r="2.6" fill="#3fb950" opacity="0.7"/>
<circle cx="645.8" cy="428.3" r="2.6" fill="#3fb950" opacity="0.7"/>
<circle cx="653.4" cy="429.0" r="2.6" fill="#3fb950" opacity="0.7"/>
<circle cx="661.0" cy="430.2" r="2.6" fill="#3fb950" opacity="0.7"/>
<circle cx="668.5" cy="429.8" r="2.6" fill="#3fb950" opacity="0.7"/>
<circle cx="676.1" cy="429.1" r="2.6" fill="#3fb950" opacity="0.7"/>
<circle cx="683.7" cy="432.2" r="2.6" fill="#3fb950" opacity="0.7"/>
<circle cx="691.3" cy="433.5" r="2.6" fill="#3fb950" opacity="0.7"/>
<circle cx="698.9" cy="429.1" r="2.6" fill="#3fb950" opacity="0.7"/>
<circle cx="706.5" cy="429.1" r="2.6" fill="#3fb950" opacity="0.7"/>
<circle cx="714.1" cy="436.2" r="2.6" fill="#3fb950" opacity="0.7"/>
<circle cx="721.6" cy="436.0" r="2.6" fill="#3fb950" opacity="0.7"/>
<circle cx="729.2" cy="430.1" r="2.6" fill="#3fb950" opacity="0.7"/>
<circle cx="736.8" cy="430.7" r="2.6" fill="#3fb950" opacity="0.7"/>
<circle cx="744.4" cy="428.7" r="2.6" fill="#3fb950" opacity="0.7"/>
<circle cx="752.0" cy="429.1" r="2.6" fill="#3fb950" opacity="0.7"/>
<circle cx="759.6" cy="454.7" r="2.6" fill="#3fb950" opacity="0.7"/>
<circle cx="767.2" cy="430.9" r="2.6" fill="#3fb950" opacity="0.7"/>
<circle cx="774.7" cy="441.9" r="2.6" fill="#3fb950" opacity="0.7"/>
<circle cx="782.3" cy="419.1" r="2.6" fill="#3fb950" opacity="0.7"/>
<circle cx="101.1" cy="386.0" r="2.6" fill="#bc8cff" opacity="0.7"/>
<circle cx="108.6" cy="364.9" r="2.6" fill="#bc8cff" opacity="0.7"/>
<circle cx="116.2" cy="223.3" r="2.6" fill="#bc8cff" opacity="0.7"/>
<circle cx="123.8" cy="386.3" r="2.6" fill="#bc8cff" opacity="0.7"/>
<circle cx="131.4" cy="424.9" r="2.6" fill="#bc8cff" opacity="0.7"/>
<circle cx="139.0" cy="339.0" r="2.6" fill="#bc8cff" opacity="0.7"/>
<circle cx="146.6" cy="260.4" r="2.6" fill="#bc8cff" opacity="0.7"/>
<circle cx="154.1" cy="382.6" r="2.6" fill="#bc8cff" opacity="0.7"/>
<circle cx="161.7" cy="383.2" r="2.6" fill="#bc8cff" opacity="0.7"/>
<circle cx="169.3" cy="383.3" r="2.6" fill="#bc8cff" opacity="0.7"/>
<circle cx="176.9" cy="386.0" r="2.6" fill="#bc8cff" opacity="0.7"/>
<circle cx="184.5" cy="381.8" r="2.6" fill="#bc8cff" opacity="0.7"/>
<circle cx="192.1" cy="209.1" r="2.6" fill="#bc8cff" opacity="0.7"/>
<circle cx="199.7" cy="213.4" r="2.6" fill="#bc8cff" opacity="0.7"/>
<circle cx="207.2" cy="267.0" r="2.6" fill="#bc8cff" opacity="0.7"/>
<circle cx="214.8" cy="236.8" r="2.6" fill="#bc8cff" opacity="0.7"/>
<circle cx="222.4" cy="225.6" r="2.6" fill="#bc8cff" opacity="0.7"/>
<circle cx="230.0" cy="261.0" r="2.6" fill="#bc8cff" opacity="0.7"/>
<circle cx="237.6" cy="238.6" r="2.6" fill="#bc8cff" opacity="0.7"/>
<circle cx="245.2" cy="222.7" r="2.6" fill="#bc8cff" opacity="0.7"/>
<circle cx="252.8" cy="246.7" r="2.6" fill="#bc8cff" opacity="0.7"/>
<circle cx="260.3" cy="228.2" r="2.6" fill="#bc8cff" opacity="0.7"/>
<circle cx="267.9" cy="360.5" r="2.6" fill="#bc8cff" opacity="0.7"/>
<circle cx="275.5" cy="245.5" r="2.6" fill="#bc8cff" opacity="0.7"/>
<circle cx="283.1" cy="232.8" r="2.6" fill="#bc8cff" opacity="0.7"/>
<circle cx="290.7" cy="229.7" r="2.6" fill="#bc8cff" opacity="0.7"/>
<circle cx="298.3" cy="426.5" r="2.6" fill="#bc8cff" opacity="0.7"/>
<circle cx="305.8" cy="426.6" r="2.6" fill="#bc8cff" opacity="0.7"/>
<circle cx="313.4" cy="410.8" r="2.6" fill="#bc8cff" opacity="0.7"/>
<circle cx="321.0" cy="412.3" r="2.6" fill="#bc8cff" opacity="0.7"/>
<circle cx="328.6" cy="383.3" r="2.6" fill="#bc8cff" opacity="0.7"/>
<circle cx="336.2" cy="279.2" r="2.6" fill="#bc8cff" opacity="0.7"/>
<circle cx="343.8" cy="384.4" r="2.6" fill="#bc8cff" opacity="0.7"/>
<circle cx="351.4" cy="216.5" r="2.6" fill="#bc8cff" opacity="0.7"/>
<circle cx="358.9" cy="384.1" r="2.6" fill="#bc8cff" opacity="0.7"/>
<circle cx="366.5" cy="381.9" r="2.6" fill="#bc8cff" opacity="0.7"/>
<circle cx="374.1" cy="383.8" r="2.6" fill="#bc8cff" opacity="0.7"/>
<circle cx="381.7" cy="387.7" r="2.6" fill="#bc8cff" opacity="0.7"/>
<circle cx="389.3" cy="384.3" r="2.6" fill="#bc8cff" opacity="0.7"/>
<circle cx="396.9" cy="247.2" r="2.6" fill="#bc8cff" opacity="0.7"/>
<circle cx="404.4" cy="242.1" r="2.6" fill="#bc8cff" opacity="0.7"/>
<circle cx="412.0" cy="253.2" r="2.6" fill="#bc8cff" opacity="0.7"/>
<circle cx="419.6" cy="387.1" r="2.6" fill="#bc8cff" opacity="0.7"/>
<circle cx="427.2" cy="388.5" r="2.6" fill="#bc8cff" opacity="0.7"/>
<circle cx="434.8" cy="373.4" r="2.6" fill="#bc8cff" opacity="0.7"/>
<circle cx="442.4" cy="387.9" r="2.6" fill="#bc8cff" opacity="0.7"/>
<circle cx="450.0" cy="390.9" r="2.6" fill="#bc8cff" opacity="0.7"/>
<circle cx="457.5" cy="312.9" r="2.6" fill="#bc8cff" opacity="0.7"/>
<circle cx="465.1" cy="281.8" r="2.6" fill="#bc8cff" opacity="0.7"/>
<circle cx="472.7" cy="388.9" r="2.6" fill="#bc8cff" opacity="0.7"/>
<circle cx="480.3" cy="331.7" r="2.6" fill="#bc8cff" opacity="0.7"/>
<circle cx="487.9" cy="387.5" r="2.6" fill="#bc8cff" opacity="0.7"/>
<circle cx="495.5" cy="388.3" r="2.6" fill="#bc8cff" opacity="0.7"/>
<circle cx="503.1" cy="387.5" r="2.6" fill="#bc8cff" opacity="0.7"/>
<circle cx="510.6" cy="389.5" r="2.6" fill="#bc8cff" opacity="0.7"/>
<circle cx="518.2" cy="385.3" r="2.6" fill="#bc8cff" opacity="0.7"/>
<circle cx="525.8" cy="387.1" r="2.6" fill="#bc8cff" opacity="0.7"/>
<circle cx="533.4" cy="215.7" r="2.6" fill="#bc8cff" opacity="0.7"/>
<circle cx="541.0" cy="215.0" r="2.6" fill="#bc8cff" opacity="0.7"/>
<circle cx="548.6" cy="237.5" r="2.6" fill="#bc8cff" opacity="0.7"/>
<circle cx="556.1" cy="243.8" r="2.6" fill="#bc8cff" opacity="0.7"/>
<circle cx="563.7" cy="219.0" r="2.6" fill="#bc8cff" opacity="0.7"/>
<circle cx="571.3" cy="264.6" r="2.6" fill="#bc8cff" opacity="0.7"/>
<circle cx="578.9" cy="266.4" r="2.6" fill="#bc8cff" opacity="0.7"/>
<circle cx="586.5" cy="256.7" r="2.6" fill="#bc8cff" opacity="0.7"/>
<circle cx="594.1" cy="384.5" r="2.6" fill="#bc8cff" opacity="0.7"/>
<circle cx="601.7" cy="388.5" r="2.6" fill="#bc8cff" opacity="0.7"/>
<circle cx="609.2" cy="388.1" r="2.6" fill="#bc8cff" opacity="0.7"/>
<circle cx="616.8" cy="388.9" r="2.6" fill="#bc8cff" opacity="0.7"/>
<circle cx="624.4" cy="390.3" r="2.6" fill="#bc8cff" opacity="0.7"/>
<circle cx="632.0" cy="278.1" r="2.6" fill="#bc8cff" opacity="0.7"/>
<circle cx="639.6" cy="231.0" r="2.6" fill="#bc8cff" opacity="0.7"/>
<circle cx="647.2" cy="233.5" r="2.6" fill="#bc8cff" opacity="0.7"/>
<circle cx="654.8" cy="426.7" r="2.6" fill="#bc8cff" opacity="0.7"/>
<circle cx="662.3" cy="386.4" r="2.6" fill="#bc8cff" opacity="0.7"/>
<circle cx="669.9" cy="215.9" r="2.6" fill="#bc8cff" opacity="0.7"/>
<circle cx="677.5" cy="424.8" r="2.6" fill="#bc8cff" opacity="0.7"/>
<circle cx="685.1" cy="242.9" r="2.6" fill="#bc8cff" opacity="0.7"/>
<circle cx="692.7" cy="454.6" r="2.6" fill="#bc8cff" opacity="0.7"/>
<circle cx="700.3" cy="424.8" r="2.6" fill="#bc8cff" opacity="0.7"/>
<circle cx="707.8" cy="424.6" r="2.6" fill="#bc8cff" opacity="0.7"/>
<circle cx="715.4" cy="420.5" r="2.6" fill="#bc8cff" opacity="0.7"/>
<circle cx="723.0" cy="381.0" r="2.6" fill="#bc8cff" opacity="0.7"/>
<circle cx="730.6" cy="379.3" r="2.6" fill="#bc8cff" opacity="0.7"/>
<circle cx="738.2" cy="387.0" r="2.6" fill="#bc8cff" opacity="0.7"/>
<circle cx="745.8" cy="253.9" r="2.6" fill="#bc8cff" opacity="0.7"/>
<circle cx="753.4" cy="396.9" r="2.6" fill="#bc8cff" opacity="0.7"/>
<circle cx="760.9" cy="375.5" r="2.6" fill="#bc8cff" opacity="0.7"/>
<circle cx="768.5" cy="283.4" r="2.6" fill="#bc8cff" opacity="0.7"/>
<circle cx="776.1" cy="396.0" r="2.6" fill="#bc8cff" opacity="0.7"/>
<circle cx="783.7" cy="400.0" r="2.6" fill="#bc8cff" opacity="0.7"/>
<circle cx="98.3" cy="430.6" r="3.2" fill="#ff922b" opacity="0.85"/>
<circle cx="105.9" cy="429.7" r="3.2" fill="#ff922b" opacity="0.85"/>
<circle cx="113.5" cy="429.8" r="3.2" fill="#ff922b" opacity="0.85"/>
<circle cx="121.1" cy="428.3" r="3.2" fill="#ff922b" opacity="0.85"/>
<circle cx="128.6" cy="429.0" r="3.2" fill="#ff922b" opacity="0.85"/>
<circle cx="136.2" cy="426.8" r="3.2" fill="#ff922b" opacity="0.85"/>
<circle cx="143.8" cy="429.3" r="3.2" fill="#ff922b" opacity="0.85"/>
<circle cx="151.4" cy="430.6" r="3.2" fill="#ff922b" opacity="0.85"/>
<circle cx="159.0" cy="431.0" r="3.2" fill="#ff922b" opacity="0.85"/>
<circle cx="166.6" cy="430.6" r="3.2" fill="#ff922b" opacity="0.85"/>
<circle cx="174.2" cy="430.6" r="3.2" fill="#ff922b" opacity="0.85"/>
<circle cx="181.7" cy="430.2" r="3.2" fill="#ff922b" opacity="0.85"/>
<circle cx="189.3" cy="429.8" r="3.2" fill="#ff922b" opacity="0.85"/>
<circle cx="196.9" cy="429.8" r="3.2" fill="#ff922b" opacity="0.85"/>
<circle cx="204.5" cy="430.1" r="3.2" fill="#ff922b" opacity="0.85"/>
<circle cx="212.1" cy="429.7" r="3.2" fill="#ff922b" opacity="0.85"/>
<circle cx="219.7" cy="430.2" r="3.2" fill="#ff922b" opacity="0.85"/>
<circle cx="227.2" cy="127.7" r="3.2" fill="#ff922b" opacity="0.85"/>
<circle cx="234.8" cy="429.7" r="3.2" fill="#ff922b" opacity="0.85"/>
<circle cx="242.4" cy="430.1" r="3.2" fill="#ff922b" opacity="0.85"/>
<circle cx="250.0" cy="430.0" r="3.2" fill="#ff922b" opacity="0.85"/>
<circle cx="257.6" cy="430.1" r="3.2" fill="#ff922b" opacity="0.85"/>
<circle cx="265.2" cy="432.0" r="3.2" fill="#ff922b" opacity="0.85"/>
<circle cx="272.8" cy="430.0" r="3.2" fill="#ff922b" opacity="0.85"/>
<circle cx="280.3" cy="430.1" r="3.2" fill="#ff922b" opacity="0.85"/>
<circle cx="287.9" cy="428.6" r="3.2" fill="#ff922b" opacity="0.85"/>
<circle cx="295.5" cy="429.0" r="3.2" fill="#ff922b" opacity="0.85"/>
<circle cx="303.1" cy="429.0" r="3.2" fill="#ff922b" opacity="0.85"/>
<circle cx="310.7" cy="429.1" r="3.2" fill="#ff922b" opacity="0.85"/>
<circle cx="318.3" cy="429.3" r="3.2" fill="#ff922b" opacity="0.85"/>
<circle cx="325.9" cy="430.2" r="3.2" fill="#ff922b" opacity="0.85"/>
<circle cx="333.4" cy="429.9" r="3.2" fill="#ff922b" opacity="0.85"/>
<circle cx="341.0" cy="430.6" r="3.2" fill="#ff922b" opacity="0.85"/>
<circle cx="348.6" cy="430.5" r="3.2" fill="#ff922b" opacity="0.85"/>
<circle cx="356.2" cy="430.1" r="3.2" fill="#ff922b" opacity="0.85"/>
<circle cx="363.8" cy="430.1" r="3.2" fill="#ff922b" opacity="0.85"/>
<circle cx="371.4" cy="430.1" r="3.2" fill="#ff922b" opacity="0.85"/>
<circle cx="378.9" cy="430.6" r="3.2" fill="#ff922b" opacity="0.85"/>
<circle cx="386.5" cy="430.2" r="3.2" fill="#ff922b" opacity="0.85"/>
<circle cx="394.1" cy="429.0" r="3.2" fill="#ff922b" opacity="0.85"/>
<circle cx="401.7" cy="430.7" r="3.2" fill="#ff922b" opacity="0.85"/>
<circle cx="409.3" cy="429.7" r="3.2" fill="#ff922b" opacity="0.85"/>
<circle cx="416.9" cy="430.2" r="3.2" fill="#ff922b" opacity="0.85"/>
<circle cx="424.5" cy="430.2" r="3.2" fill="#ff922b" opacity="0.85"/>
<circle cx="432.0" cy="429.7" r="3.2" fill="#ff922b" opacity="0.85"/>
<circle cx="439.6" cy="430.2" r="3.2" fill="#ff922b" opacity="0.85"/>
<circle cx="447.2" cy="430.2" r="3.2" fill="#ff922b" opacity="0.85"/>
<circle cx="454.8" cy="429.7" r="3.2" fill="#ff922b" opacity="0.85"/>
<circle cx="462.4" cy="428.4" r="3.2" fill="#ff922b" opacity="0.85"/>
<circle cx="470.0" cy="430.2" r="3.2" fill="#ff922b" opacity="0.85"/>
<circle cx="477.6" cy="428.3" r="3.2" fill="#ff922b" opacity="0.85"/>
<circle cx="485.1" cy="429.8" r="3.2" fill="#ff922b" opacity="0.85"/>
<circle cx="492.7" cy="430.2" r="3.2" fill="#ff922b" opacity="0.85"/>
<circle cx="500.3" cy="430.2" r="3.2" fill="#ff922b" opacity="0.85"/>
<circle cx="507.9" cy="429.8" r="3.2" fill="#ff922b" opacity="0.85"/>
<circle cx="515.5" cy="430.6" r="3.2" fill="#ff922b" opacity="0.85"/>
<circle cx="523.1" cy="429.4" r="3.2" fill="#ff922b" opacity="0.85"/>
<circle cx="530.6" cy="429.4" r="3.2" fill="#ff922b" opacity="0.85"/>
<circle cx="538.2" cy="429.0" r="3.2" fill="#ff922b" opacity="0.85"/>
<circle cx="545.8" cy="429.4" r="3.2" fill="#ff922b" opacity="0.85"/>
<circle cx="553.4" cy="430.5" r="3.2" fill="#ff922b" opacity="0.85"/>
<circle cx="561.0" cy="429.8" r="3.2" fill="#ff922b" opacity="0.85"/>
<circle cx="568.6" cy="429.3" r="3.2" fill="#ff922b" opacity="0.85"/>
<circle cx="576.2" cy="429.0" r="3.2" fill="#ff922b" opacity="0.85"/>
<circle cx="583.7" cy="431.8" r="3.2" fill="#ff922b" opacity="0.85"/>
<circle cx="591.3" cy="430.2" r="3.2" fill="#ff922b" opacity="0.85"/>
<circle cx="598.9" cy="430.2" r="3.2" fill="#ff922b" opacity="0.85"/>
<circle cx="606.5" cy="430.6" r="3.2" fill="#ff922b" opacity="0.85"/>
<circle cx="614.1" cy="430.6" r="3.2" fill="#ff922b" opacity="0.85"/>
<circle cx="621.7" cy="429.8" r="3.2" fill="#ff922b" opacity="0.85"/>
<circle cx="629.2" cy="431.9" r="3.2" fill="#ff922b" opacity="0.85"/>
<circle cx="636.8" cy="429.4" r="3.2" fill="#ff922b" opacity="0.85"/>
<circle cx="644.4" cy="430.5" r="3.2" fill="#ff922b" opacity="0.85"/>
<circle cx="652.0" cy="429.0" r="3.2" fill="#ff922b" opacity="0.85"/>
<circle cx="659.6" cy="430.6" r="3.2" fill="#ff922b" opacity="0.85"/>
<circle cx="667.2" cy="429.4" r="3.2" fill="#ff922b" opacity="0.85"/>
<circle cx="674.8" cy="429.0" r="3.2" fill="#ff922b" opacity="0.85"/>
<circle cx="682.3" cy="429.4" r="3.2" fill="#ff922b" opacity="0.85"/>
<circle cx="689.9" cy="430.8" r="3.2" fill="#ff922b" opacity="0.85"/>
<circle cx="697.5" cy="429.1" r="3.2" fill="#ff922b" opacity="0.85"/>
<circle cx="705.1" cy="429.1" r="3.2" fill="#ff922b" opacity="0.85"/>
<circle cx="712.7" cy="428.2" r="3.2" fill="#ff922b" opacity="0.85"/>
<circle cx="720.3" cy="429.1" r="3.2" fill="#ff922b" opacity="0.85"/>
<circle cx="727.9" cy="429.7" r="3.2" fill="#ff922b" opacity="0.85"/>
<circle cx="735.4" cy="430.7" r="3.2" fill="#ff922b" opacity="0.85"/>
<circle cx="743.0" cy="430.3" r="3.2" fill="#ff922b" opacity="0.85"/>
<circle cx="750.6" cy="430.7" r="3.2" fill="#ff922b" opacity="0.85"/>
<circle cx="758.2" cy="428.2" r="3.2" fill="#ff922b" opacity="0.85"/>
<circle cx="765.8" cy="430.3" r="3.2" fill="#ff922b" opacity="0.85"/>
<circle cx="773.4" cy="428.8" r="3.2" fill="#ff922b" opacity="0.85"/>
<circle cx="780.9" cy="429.1" r="3.2" fill="#ff922b" opacity="0.85"/>
<circle cx="847" cy="84" r="5" fill="#ff922b"/>
<text x="866" y="88" font-size="13" fill="#c9d1d9" font-weight="700">Kāra</text>
<line x1="836" y1="108" x2="858" y2="108" stroke="#a7b0bc" stroke-width="2" stroke-dasharray="5 4"/>
<text x="866" y="112" font-size="13" fill="#c9d1d9" font-weight="400">Rust = 1.0×</text>
<circle cx="847" cy="132" r="4" fill="#3fb950"/>
<text x="866" y="136" font-size="13" fill="#c9d1d9" font-weight="400">C</text>
<circle cx="847" cy="156" r="4" fill="#bc8cff"/>
<text x="866" y="160" font-size="13" fill="#c9d1d9" font-weight="400">Go</text>
<text x="70" y="538" font-size="11.5" fill="#8b949e">Each dot is one benchmarked program (kata × approach); there is no connecting line because left-to-right order is not meaningful. Raw numbers: bench-results.json</text>
</svg>