<svg xmlns="http://www.w3.org/2000/svg" width="980" height="560" viewBox="0 0 980 560" font-family="-apple-system,Segoe UI,Helvetica,Arial,sans-serif">
<rect width="980" height="560" fill="#282c34"/>
<text x="70" y="34" font-size="21" font-weight="700" fill="#c9d1d9">Runtime peak memory — sequential lane</text>
<text x="70" y="56" font-size="13" fill="#8b949e">relative to Rust = 1.0 · lower = leaner · 107 programs</text>
<line x1="70" y1="456.0" x2="812" y2="456.0" stroke="#3b414b" stroke-width="1"/>
<text x="60" y="460.0" font-size="12" text-anchor="end" fill="#8b949e">0.0×</text>
<line x1="70" y1="429.0" x2="812" y2="429.0" stroke="#a7b0bc" stroke-width="2" stroke-dasharray="5 4"/>
<text x="60" y="433.0" font-size="12" text-anchor="end" fill="#aeb6c0" font-weight="700">1.0×</text>
<line x1="70" y1="380.4" x2="812" y2="380.4" stroke="#3b414b" stroke-width="1"/>
<text x="60" y="384.4" font-size="12" text-anchor="end" fill="#8b949e">2.8×</text>
<line x1="70" y1="304.8" x2="812" y2="304.8" stroke="#3b414b" stroke-width="1"/>
<text x="60" y="308.8" font-size="12" text-anchor="end" fill="#8b949e">5.6×</text>
<line x1="70" y1="229.2" x2="812" y2="229.2" stroke="#3b414b" stroke-width="1"/>
<text x="60" y="233.2" font-size="12" text-anchor="end" fill="#8b949e">8.4×</text>
<line x1="70" y1="153.6" x2="812" y2="153.6" stroke="#3b414b" stroke-width="1"/>
<text x="60" y="157.6" font-size="12" text-anchor="end" fill="#8b949e">11.2×</text>
<line x1="70" y1="78.0" x2="812" y2="78.0" stroke="#3b414b" stroke-width="1"/>
<text x="60" y="82.0" font-size="12" text-anchor="end" fill="#8b949e">14.0×</text>
<text x="812" y="423.0" font-size="11" text-anchor="end" fill="#aeb6c0">Rust baseline</text>
<line x1="70" y1="456" x2="812" y2="456" stroke="#3b414b"/>
<text x="441.0" y="478" font-size="11" text-anchor="middle" fill="#8b949e">107 programs (kata × approach) — x-order carries no meaning</text>
<circle cx="99.7" cy="430.2" r="2.6" fill="#3fb950" opacity="0.7"/>
<circle cx="106.1" cy="429.0" r="2.6" fill="#3fb950" opacity="0.7"/>
<circle cx="112.6" cy="430.1" r="2.6" fill="#3fb950" opacity="0.7"/>
<circle cx="119.0" cy="431.1" r="2.6" fill="#3fb950" opacity="0.7"/>
<circle cx="125.4" cy="429.1" r="2.6" fill="#3fb950" opacity="0.7"/>
<circle cx="131.9" cy="431.2" r="2.6" fill="#3fb950" opacity="0.7"/>
<circle cx="138.3" cy="432.7" r="2.6" fill="#3fb950" opacity="0.7"/>
<circle cx="144.8" cy="430.6" r="2.6" fill="#3fb950" opacity="0.7"/>
<circle cx="151.2" cy="431.0" r="2.6" fill="#3fb950" opacity="0.7"/>
<circle cx="157.6" cy="430.2" r="2.6" fill="#3fb950" opacity="0.7"/>
<circle cx="164.1" cy="430.6" r="2.6" fill="#3fb950" opacity="0.7"/>
<circle cx="170.5" cy="430.2" r="2.6" fill="#3fb950" opacity="0.7"/>
<circle cx="177.0" cy="430.2" r="2.6" fill="#3fb950" opacity="0.7"/>
<circle cx="183.4" cy="429.4" r="2.6" fill="#3fb950" opacity="0.7"/>
<circle cx="189.8" cy="430.1" r="2.6" fill="#3fb950" opacity="0.7"/>
<circle cx="196.3" cy="430.4" r="2.6" fill="#3fb950" opacity="0.7"/>
<circle cx="202.7" cy="429.8" r="2.6" fill="#3fb950" opacity="0.7"/>
<circle cx="209.2" cy="429.0" r="2.6" fill="#3fb950" opacity="0.7"/>
<circle cx="215.6" cy="429.0" r="2.6" fill="#3fb950" opacity="0.7"/>
<circle cx="222.0" cy="431.6" r="2.6" fill="#3fb950" opacity="0.7"/>
<circle cx="228.5" cy="425.7" r="2.6" fill="#3fb950" opacity="0.7"/>
<circle cx="234.9" cy="429.7" r="2.6" fill="#3fb950" opacity="0.7"/>
<circle cx="241.4" cy="435.0" r="2.6" fill="#3fb950" opacity="0.7"/>
<circle cx="247.8" cy="430.7" r="2.6" fill="#3fb950" opacity="0.7"/>
<circle cx="254.2" cy="429.8" r="2.6" fill="#3fb950" opacity="0.7"/>
<circle cx="260.7" cy="430.5" r="2.6" fill="#3fb950" opacity="0.7"/>
<circle cx="267.1" cy="429.0" r="2.6" fill="#3fb950" opacity="0.7"/>
<circle cx="273.6" cy="429.0" r="2.6" fill="#3fb950" opacity="0.7"/>
<circle cx="280.0" cy="429.3" r="2.6" fill="#3fb950" opacity="0.7"/>
<circle cx="286.4" cy="429.3" r="2.6" fill="#3fb950" opacity="0.7"/>
<circle cx="292.9" cy="430.6" r="2.6" fill="#3fb950" opacity="0.7"/>
<circle cx="299.3" cy="433.1" r="2.6" fill="#3fb950" opacity="0.7"/>
<circle cx="305.8" cy="431.0" r="2.6" fill="#3fb950" opacity="0.7"/>
<circle cx="312.2" cy="430.9" r="2.6" fill="#3fb950" opacity="0.7"/>
<circle cx="318.6" cy="430.5" r="2.6" fill="#3fb950" opacity="0.7"/>
<circle cx="325.1" cy="430.5" r="2.6" fill="#3fb950" opacity="0.7"/>
<circle cx="331.5" cy="430.5" r="2.6" fill="#3fb950" opacity="0.7"/>
<circle cx="338.0" cy="430.6" r="2.6" fill="#3fb950" opacity="0.7"/>
<circle cx="344.4" cy="429.8" r="2.6" fill="#3fb950" opacity="0.7"/>
<circle cx="350.8" cy="427.9" r="2.6" fill="#3fb950" opacity="0.7"/>
<circle cx="357.3" cy="429.3" r="2.6" fill="#3fb950" opacity="0.7"/>
<circle cx="363.7" cy="429.4" r="2.6" fill="#3fb950" opacity="0.7"/>
<circle cx="370.2" cy="430.2" r="2.6" fill="#3fb950" opacity="0.7"/>
<circle cx="376.6" cy="430.2" r="2.6" fill="#3fb950" opacity="0.7"/>
<circle cx="383.0" cy="454.3" r="2.6" fill="#3fb950" opacity="0.7"/>
<circle cx="389.5" cy="430.2" r="2.6" fill="#3fb950" opacity="0.7"/>
<circle cx="395.9" cy="430.2" r="2.6" fill="#3fb950" opacity="0.7"/>
<circle cx="402.4" cy="430.2" r="2.6" fill="#3fb950" opacity="0.7"/>
<circle cx="408.8" cy="430.9" r="2.6" fill="#3fb950" opacity="0.7"/>
<circle cx="415.2" cy="430.6" r="2.6" fill="#3fb950" opacity="0.7"/>
<circle cx="421.7" cy="439.5" r="2.6" fill="#3fb950" opacity="0.7"/>
<circle cx="428.1" cy="430.2" r="2.6" fill="#3fb950" opacity="0.7"/>
<circle cx="434.6" cy="429.8" r="2.6" fill="#3fb950" opacity="0.7"/>
<circle cx="441.0" cy="430.2" r="2.6" fill="#3fb950" opacity="0.7"/>
<circle cx="447.4" cy="430.2" r="2.6" fill="#3fb950" opacity="0.7"/>
<circle cx="453.9" cy="430.6" r="2.6" fill="#3fb950" opacity="0.7"/>
<circle cx="460.3" cy="429.8" r="2.6" fill="#3fb950" opacity="0.7"/>
<circle cx="466.8" cy="430.2" r="2.6" fill="#3fb950" opacity="0.7"/>
<circle cx="473.2" cy="429.8" r="2.6" fill="#3fb950" opacity="0.7"/>
<circle cx="479.6" cy="429.4" r="2.6" fill="#3fb950" opacity="0.7"/>
<circle cx="486.1" cy="429.4" r="2.6" fill="#3fb950" opacity="0.7"/>
<circle cx="492.5" cy="429.4" r="2.6" fill="#3fb950" opacity="0.7"/>
<circle cx="499.0" cy="429.0" r="2.6" fill="#3fb950" opacity="0.7"/>
<circle cx="505.4" cy="429.7" r="2.6" fill="#3fb950" opacity="0.7"/>
<circle cx="511.8" cy="429.0" r="2.6" fill="#3fb950" opacity="0.7"/>
<circle cx="518.3" cy="430.2" r="2.6" fill="#3fb950" opacity="0.7"/>
<circle cx="524.7" cy="430.6" r="2.6" fill="#3fb950" opacity="0.7"/>
<circle cx="531.2" cy="430.6" r="2.6" fill="#3fb950" opacity="0.7"/>
<circle cx="537.6" cy="430.2" r="2.6" fill="#3fb950" opacity="0.7"/>
<circle cx="544.0" cy="429.8" r="2.6" fill="#3fb950" opacity="0.7"/>
<circle cx="550.5" cy="434.9" r="2.6" fill="#3fb950" opacity="0.7"/>
<circle cx="556.9" cy="427.9" r="2.6" fill="#3fb950" opacity="0.7"/>
<circle cx="563.4" cy="428.3" r="2.6" fill="#3fb950" opacity="0.7"/>
<circle cx="569.8" cy="430.8" r="2.6" fill="#3fb950" opacity="0.7"/>
<circle cx="576.2" cy="435.2" r="2.6" fill="#3fb950" opacity="0.7"/>
<circle cx="582.7" cy="430.7" r="2.6" fill="#3fb950" opacity="0.7"/>
<circle cx="589.1" cy="430.2" r="2.6" fill="#3fb950" opacity="0.7"/>
<circle cx="595.6" cy="430.2" r="2.6" fill="#3fb950" opacity="0.7"/>
<circle cx="602.0" cy="430.6" r="2.6" fill="#3fb950" opacity="0.7"/>
<circle cx="608.4" cy="430.5" r="2.6" fill="#3fb950" opacity="0.7"/>
<circle cx="614.9" cy="429.4" r="2.6" fill="#3fb950" opacity="0.7"/>
<circle cx="621.3" cy="430.2" r="2.6" fill="#3fb950" opacity="0.7"/>
<circle cx="627.8" cy="429.4" r="2.6" fill="#3fb950" opacity="0.7"/>
<circle cx="634.2" cy="430.9" r="2.6" fill="#3fb950" opacity="0.7"/>
<circle cx="640.6" cy="429.8" r="2.6" fill="#3fb950" opacity="0.7"/>
<circle cx="647.1" cy="429.8" r="2.6" fill="#3fb950" opacity="0.7"/>
<circle cx="653.5" cy="429.0" r="2.6" fill="#3fb950" opacity="0.7"/>
<circle cx="660.0" cy="429.8" r="2.6" fill="#3fb950" opacity="0.7"/>
<circle cx="666.4" cy="430.6" r="2.6" fill="#3fb950" opacity="0.7"/>
<circle cx="672.8" cy="430.2" r="2.6" fill="#3fb950" opacity="0.7"/>
<circle cx="679.3" cy="429.8" r="2.6" fill="#3fb950" opacity="0.7"/>
<circle cx="685.7" cy="429.8" r="2.6" fill="#3fb950" opacity="0.7"/>
<circle cx="692.2" cy="429.1" r="2.6" fill="#3fb950" opacity="0.7"/>
<circle cx="698.6" cy="432.2" r="2.6" fill="#3fb950" opacity="0.7"/>
<circle cx="705.0" cy="433.5" r="2.6" fill="#3fb950" opacity="0.7"/>
<circle cx="711.5" cy="429.1" r="2.6" fill="#3fb950" opacity="0.7"/>
<circle cx="717.9" cy="429.1" r="2.6" fill="#3fb950" opacity="0.7"/>
<circle cx="724.4" cy="436.2" r="2.6" fill="#3fb950" opacity="0.7"/>
<circle cx="730.8" cy="436.0" r="2.6" fill="#3fb950" opacity="0.7"/>
<circle cx="737.2" cy="430.1" r="2.6" fill="#3fb950" opacity="0.7"/>
<circle cx="743.7" cy="430.7" r="2.6" fill="#3fb950" opacity="0.7"/>
<circle cx="750.1" cy="428.7" r="2.6" fill="#3fb950" opacity="0.7"/>
<circle cx="756.6" cy="429.1" r="2.6" fill="#3fb950" opacity="0.7"/>
<circle cx="763.0" cy="454.7" r="2.6" fill="#3fb950" opacity="0.7"/>
<circle cx="769.4" cy="430.9" r="2.6" fill="#3fb950" opacity="0.7"/>
<circle cx="775.9" cy="441.9" r="2.6" fill="#3fb950" opacity="0.7"/>
<circle cx="782.3" cy="419.1" r="2.6" fill="#3fb950" opacity="0.7"/>
<circle cx="100.8" cy="386.0" r="2.6" fill="#bc8cff" opacity="0.7"/>
<circle cx="107.3" cy="364.9" r="2.6" fill="#bc8cff" opacity="0.7"/>
<circle cx="113.7" cy="223.3" r="2.6" fill="#bc8cff" opacity="0.7"/>
<circle cx="120.2" cy="386.3" r="2.6" fill="#bc8cff" opacity="0.7"/>
<circle cx="126.6" cy="424.9" r="2.6" fill="#bc8cff" opacity="0.7"/>
<circle cx="133.0" cy="339.0" r="2.6" fill="#bc8cff" opacity="0.7"/>
<circle cx="139.5" cy="260.4" r="2.6" fill="#bc8cff" opacity="0.7"/>
<circle cx="145.9" cy="382.6" r="2.6" fill="#bc8cff" opacity="0.7"/>
<circle cx="152.4" cy="383.2" r="2.6" fill="#bc8cff" opacity="0.7"/>
<circle cx="158.8" cy="383.3" r="2.6" fill="#bc8cff" opacity="0.7"/>
<circle cx="165.2" cy="386.0" r="2.6" fill="#bc8cff" opacity="0.7"/>
<circle cx="171.7" cy="381.8" r="2.6" fill="#bc8cff" opacity="0.7"/>
<circle cx="178.1" cy="209.1" r="2.6" fill="#bc8cff" opacity="0.7"/>
<circle cx="184.6" cy="213.4" r="2.6" fill="#bc8cff" opacity="0.7"/>
<circle cx="191.0" cy="267.0" r="2.6" fill="#bc8cff" opacity="0.7"/>
<circle cx="197.4" cy="236.8" r="2.6" fill="#bc8cff" opacity="0.7"/>
<circle cx="203.9" cy="225.6" r="2.6" fill="#bc8cff" opacity="0.7"/>
<circle cx="210.3" cy="261.0" r="2.6" fill="#bc8cff" opacity="0.7"/>
<circle cx="216.8" cy="238.6" r="2.6" fill="#bc8cff" opacity="0.7"/>
<circle cx="223.2" cy="222.7" r="2.6" fill="#bc8cff" opacity="0.7"/>
<circle cx="229.6" cy="246.7" r="2.6" fill="#bc8cff" opacity="0.7"/>
<circle cx="236.1" cy="228.2" r="2.6" fill="#bc8cff" opacity="0.7"/>
<circle cx="242.5" cy="360.5" r="2.6" fill="#bc8cff" opacity="0.7"/>
<circle cx="249.0" cy="245.5" r="2.6" fill="#bc8cff" opacity="0.7"/>
<circle cx="255.4" cy="232.8" r="2.6" fill="#bc8cff" opacity="0.7"/>
<circle cx="261.8" cy="229.7" r="2.6" fill="#bc8cff" opacity="0.7"/>
<circle cx="268.3" cy="426.5" r="2.6" fill="#bc8cff" opacity="0.7"/>
<circle cx="274.7" cy="426.6" r="2.6" fill="#bc8cff" opacity="0.7"/>
<circle cx="281.2" cy="410.8" r="2.6" fill="#bc8cff" opacity="0.7"/>
<circle cx="287.6" cy="412.3" r="2.6" fill="#bc8cff" opacity="0.7"/>
<circle cx="294.0" cy="383.3" r="2.6" fill="#bc8cff" opacity="0.7"/>
<circle cx="300.5" cy="279.2" r="2.6" fill="#bc8cff" opacity="0.7"/>
<circle cx="306.9" cy="384.4" r="2.6" fill="#bc8cff" opacity="0.7"/>
<circle cx="313.4" cy="216.5" r="2.6" fill="#bc8cff" opacity="0.7"/>
<circle cx="319.8" cy="384.1" r="2.6" fill="#bc8cff" opacity="0.7"/>
<circle cx="326.2" cy="381.9" r="2.6" fill="#bc8cff" opacity="0.7"/>
<circle cx="332.7" cy="383.8" r="2.6" fill="#bc8cff" opacity="0.7"/>
<circle cx="339.1" cy="387.7" r="2.6" fill="#bc8cff" opacity="0.7"/>
<circle cx="345.6" cy="384.3" r="2.6" fill="#bc8cff" opacity="0.7"/>
<circle cx="352.0" cy="247.2" r="2.6" fill="#bc8cff" opacity="0.7"/>
<circle cx="358.4" cy="242.1" r="2.6" fill="#bc8cff" opacity="0.7"/>
<circle cx="364.9" cy="253.2" r="2.6" fill="#bc8cff" opacity="0.7"/>
<circle cx="371.3" cy="387.1" r="2.6" fill="#bc8cff" opacity="0.7"/>
<circle cx="377.8" cy="388.5" r="2.6" fill="#bc8cff" opacity="0.7"/>
<circle cx="384.2" cy="373.4" r="2.6" fill="#bc8cff" opacity="0.7"/>
<circle cx="390.6" cy="387.9" r="2.6" fill="#bc8cff" opacity="0.7"/>
<circle cx="397.1" cy="390.9" r="2.6" fill="#bc8cff" opacity="0.7"/>
<circle cx="403.5" cy="312.9" r="2.6" fill="#bc8cff" opacity="0.7"/>
<circle cx="410.0" cy="281.8" r="2.6" fill="#bc8cff" opacity="0.7"/>
<circle cx="416.4" cy="388.9" r="2.6" fill="#bc8cff" opacity="0.7"/>
<circle cx="422.8" cy="331.7" r="2.6" fill="#bc8cff" opacity="0.7"/>
<circle cx="429.3" cy="387.5" r="2.6" fill="#bc8cff" opacity="0.7"/>
<circle cx="435.7" cy="388.3" r="2.6" fill="#bc8cff" opacity="0.7"/>
<circle cx="442.2" cy="387.5" r="2.6" fill="#bc8cff" opacity="0.7"/>
<circle cx="448.6" cy="389.5" r="2.6" fill="#bc8cff" opacity="0.7"/>
<circle cx="455.0" cy="385.3" r="2.6" fill="#bc8cff" opacity="0.7"/>
<circle cx="461.5" cy="387.1" r="2.6" fill="#bc8cff" opacity="0.7"/>
<circle cx="467.9" cy="215.7" r="2.6" fill="#bc8cff" opacity="0.7"/>
<circle cx="474.4" cy="215.0" r="2.6" fill="#bc8cff" opacity="0.7"/>
<circle cx="480.8" cy="237.5" r="2.6" fill="#bc8cff" opacity="0.7"/>
<circle cx="487.2" cy="243.8" r="2.6" fill="#bc8cff" opacity="0.7"/>
<circle cx="493.7" cy="219.0" r="2.6" fill="#bc8cff" opacity="0.7"/>
<circle cx="500.1" cy="264.6" r="2.6" fill="#bc8cff" opacity="0.7"/>
<circle cx="506.6" cy="266.4" r="2.6" fill="#bc8cff" opacity="0.7"/>
<circle cx="513.0" cy="256.7" r="2.6" fill="#bc8cff" opacity="0.7"/>
<circle cx="519.4" cy="384.5" r="2.6" fill="#bc8cff" opacity="0.7"/>
<circle cx="525.9" cy="388.5" r="2.6" fill="#bc8cff" opacity="0.7"/>
<circle cx="532.3" cy="388.1" r="2.6" fill="#bc8cff" opacity="0.7"/>
<circle cx="538.8" cy="388.9" r="2.6" fill="#bc8cff" opacity="0.7"/>
<circle cx="545.2" cy="390.3" r="2.6" fill="#bc8cff" opacity="0.7"/>
<circle cx="551.6" cy="278.1" r="2.6" fill="#bc8cff" opacity="0.7"/>
<circle cx="558.1" cy="231.0" r="2.6" fill="#bc8cff" opacity="0.7"/>
<circle cx="564.5" cy="233.5" r="2.6" fill="#bc8cff" opacity="0.7"/>
<circle cx="571.0" cy="392.5" r="2.6" fill="#bc8cff" opacity="0.7"/>
<circle cx="577.4" cy="321.6" r="2.6" fill="#bc8cff" opacity="0.7"/>
<circle cx="583.8" cy="399.5" r="2.6" fill="#bc8cff" opacity="0.7"/>
<circle cx="590.3" cy="386.9" r="2.6" fill="#bc8cff" opacity="0.7"/>
<circle cx="596.7" cy="389.3" r="2.6" fill="#bc8cff" opacity="0.7"/>
<circle cx="603.2" cy="387.7" r="2.6" fill="#bc8cff" opacity="0.7"/>
<circle cx="609.6" cy="389.7" r="2.6" fill="#bc8cff" opacity="0.7"/>
<circle cx="616.0" cy="386.9" r="2.6" fill="#bc8cff" opacity="0.7"/>
<circle cx="622.5" cy="223.9" r="2.6" fill="#bc8cff" opacity="0.7"/>
<circle cx="628.9" cy="222.2" r="2.6" fill="#bc8cff" opacity="0.7"/>
<circle cx="635.4" cy="224.7" r="2.6" fill="#bc8cff" opacity="0.7"/>
<circle cx="641.8" cy="222.6" r="2.6" fill="#bc8cff" opacity="0.7"/>
<circle cx="648.2" cy="218.1" r="2.6" fill="#bc8cff" opacity="0.7"/>
<circle cx="654.7" cy="426.7" r="2.6" fill="#bc8cff" opacity="0.7"/>
<circle cx="661.1" cy="387.1" r="2.6" fill="#bc8cff" opacity="0.7"/>
<circle cx="667.6" cy="379.3" r="2.6" fill="#bc8cff" opacity="0.7"/>
<circle cx="674.0" cy="386.4" r="2.6" fill="#bc8cff" opacity="0.7"/>
<circle cx="680.4" cy="223.0" r="2.6" fill="#bc8cff" opacity="0.7"/>
<circle cx="686.9" cy="215.9" r="2.6" fill="#bc8cff" opacity="0.7"/>
<circle cx="693.3" cy="424.8" r="2.6" fill="#bc8cff" opacity="0.7"/>
<circle cx="699.8" cy="242.9" r="2.6" fill="#bc8cff" opacity="0.7"/>
<circle cx="706.2" cy="454.6" r="2.6" fill="#bc8cff" opacity="0.7"/>
<circle cx="712.6" cy="424.8" r="2.6" fill="#bc8cff" opacity="0.7"/>
<circle cx="719.1" cy="424.6" r="2.6" fill="#bc8cff" opacity="0.7"/>
<circle cx="725.5" cy="420.5" r="2.6" fill="#bc8cff" opacity="0.7"/>
<circle cx="732.0" cy="381.0" r="2.6" fill="#bc8cff" opacity="0.7"/>
<circle cx="738.4" cy="379.3" r="2.6" fill="#bc8cff" opacity="0.7"/>
<circle cx="744.8" cy="387.0" r="2.6" fill="#bc8cff" opacity="0.7"/>
<circle cx="751.3" cy="253.9" r="2.6" fill="#bc8cff" opacity="0.7"/>
<circle cx="757.7" cy="396.9" r="2.6" fill="#bc8cff" opacity="0.7"/>
<circle cx="764.2" cy="375.5" r="2.6" fill="#bc8cff" opacity="0.7"/>
<circle cx="770.6" cy="283.4" r="2.6" fill="#bc8cff" opacity="0.7"/>
<circle cx="777.0" cy="396.0" r="2.6" fill="#bc8cff" opacity="0.7"/>
<circle cx="783.5" cy="400.0" r="2.6" fill="#bc8cff" opacity="0.7"/>
<circle cx="98.5" cy="430.6" r="3.2" fill="#ff922b" opacity="0.85"/>
<circle cx="105.0" cy="429.7" r="3.2" fill="#ff922b" opacity="0.85"/>
<circle cx="111.4" cy="429.8" r="3.2" fill="#ff922b" opacity="0.85"/>
<circle cx="117.8" cy="428.3" r="3.2" fill="#ff922b" opacity="0.85"/>
<circle cx="124.3" cy="429.0" r="3.2" fill="#ff922b" opacity="0.85"/>
<circle cx="130.7" cy="426.8" r="3.2" fill="#ff922b" opacity="0.85"/>
<circle cx="137.2" cy="429.3" r="3.2" fill="#ff922b" opacity="0.85"/>
<circle cx="143.6" cy="430.6" r="3.2" fill="#ff922b" opacity="0.85"/>
<circle cx="150.0" cy="431.0" r="3.2" fill="#ff922b" opacity="0.85"/>
<circle cx="156.5" cy="430.6" r="3.2" fill="#ff922b" opacity="0.85"/>
<circle cx="162.9" cy="430.6" r="3.2" fill="#ff922b" opacity="0.85"/>
<circle cx="169.4" cy="430.2" r="3.2" fill="#ff922b" opacity="0.85"/>
<circle cx="175.8" cy="429.8" r="3.2" fill="#ff922b" opacity="0.85"/>
<circle cx="182.2" cy="429.8" r="3.2" fill="#ff922b" opacity="0.85"/>
<circle cx="188.7" cy="430.1" r="3.2" fill="#ff922b" opacity="0.85"/>
<circle cx="195.1" cy="429.7" r="3.2" fill="#ff922b" opacity="0.85"/>
<circle cx="201.6" cy="430.2" r="3.2" fill="#ff922b" opacity="0.85"/>
<circle cx="208.0" cy="127.7" r="3.2" fill="#ff922b" opacity="0.85"/>
<circle cx="214.4" cy="429.7" r="3.2" fill="#ff922b" opacity="0.85"/>
<circle cx="220.9" cy="430.1" r="3.2" fill="#ff922b" opacity="0.85"/>
<circle cx="227.3" cy="430.0" r="3.2" fill="#ff922b" opacity="0.85"/>
<circle cx="233.8" cy="430.1" r="3.2" fill="#ff922b" opacity="0.85"/>
<circle cx="240.2" cy="432.0" r="3.2" fill="#ff922b" opacity="0.85"/>
<circle cx="246.6" cy="430.0" r="3.2" fill="#ff922b" opacity="0.85"/>
<circle cx="253.1" cy="430.1" r="3.2" fill="#ff922b" opacity="0.85"/>
<circle cx="259.5" cy="428.6" r="3.2" fill="#ff922b" opacity="0.85"/>
<circle cx="266.0" cy="429.0" r="3.2" fill="#ff922b" opacity="0.85"/>
<circle cx="272.4" cy="429.0" r="3.2" fill="#ff922b" opacity="0.85"/>
<circle cx="278.8" cy="429.1" r="3.2" fill="#ff922b" opacity="0.85"/>
<circle cx="285.3" cy="429.3" r="3.2" fill="#ff922b" opacity="0.85"/>
<circle cx="291.7" cy="430.2" r="3.2" fill="#ff922b" opacity="0.85"/>
<circle cx="298.2" cy="429.9" r="3.2" fill="#ff922b" opacity="0.85"/>
<circle cx="304.6" cy="430.6" r="3.2" fill="#ff922b" opacity="0.85"/>
<circle cx="311.0" cy="430.5" r="3.2" fill="#ff922b" opacity="0.85"/>
<circle cx="317.5" cy="430.1" r="3.2" fill="#ff922b" opacity="0.85"/>
<circle cx="323.9" cy="430.1" r="3.2" fill="#ff922b" opacity="0.85"/>
<circle cx="330.4" cy="430.1" r="3.2" fill="#ff922b" opacity="0.85"/>
<circle cx="336.8" cy="430.6" r="3.2" fill="#ff922b" opacity="0.85"/>
<circle cx="343.2" cy="430.2" r="3.2" fill="#ff922b" opacity="0.85"/>
<circle cx="349.7" cy="429.0" r="3.2" fill="#ff922b" opacity="0.85"/>
<circle cx="356.1" cy="430.7" r="3.2" fill="#ff922b" opacity="0.85"/>
<circle cx="362.6" cy="429.7" r="3.2" fill="#ff922b" opacity="0.85"/>
<circle cx="369.0" cy="430.2" r="3.2" fill="#ff922b" opacity="0.85"/>
<circle cx="375.4" cy="430.2" r="3.2" fill="#ff922b" opacity="0.85"/>
<circle cx="381.9" cy="429.7" r="3.2" fill="#ff922b" opacity="0.85"/>
<circle cx="388.3" cy="430.2" r="3.2" fill="#ff922b" opacity="0.85"/>
<circle cx="394.8" cy="430.2" r="3.2" fill="#ff922b" opacity="0.85"/>
<circle cx="401.2" cy="429.7" r="3.2" fill="#ff922b" opacity="0.85"/>
<circle cx="407.6" cy="428.4" r="3.2" fill="#ff922b" opacity="0.85"/>
<circle cx="414.1" cy="430.2" r="3.2" fill="#ff922b" opacity="0.85"/>
<circle cx="420.5" cy="428.3" r="3.2" fill="#ff922b" opacity="0.85"/>
<circle cx="427.0" cy="429.8" r="3.2" fill="#ff922b" opacity="0.85"/>
<circle cx="433.4" cy="430.2" r="3.2" fill="#ff922b" opacity="0.85"/>
<circle cx="439.8" cy="430.2" r="3.2" fill="#ff922b" opacity="0.85"/>
<circle cx="446.3" cy="429.8" r="3.2" fill="#ff922b" opacity="0.85"/>
<circle cx="452.7" cy="430.6" r="3.2" fill="#ff922b" opacity="0.85"/>
<circle cx="459.2" cy="429.4" r="3.2" fill="#ff922b" opacity="0.85"/>
<circle cx="465.6" cy="429.4" r="3.2" fill="#ff922b" opacity="0.85"/>
<circle cx="472.0" cy="429.0" r="3.2" fill="#ff922b" opacity="0.85"/>
<circle cx="478.5" cy="429.4" r="3.2" fill="#ff922b" opacity="0.85"/>
<circle cx="484.9" cy="430.5" r="3.2" fill="#ff922b" opacity="0.85"/>
<circle cx="491.4" cy="429.8" r="3.2" fill="#ff922b" opacity="0.85"/>
<circle cx="497.8" cy="429.3" r="3.2" fill="#ff922b" opacity="0.85"/>
<circle cx="504.2" cy="429.0" r="3.2" fill="#ff922b" opacity="0.85"/>
<circle cx="510.7" cy="431.8" r="3.2" fill="#ff922b" opacity="0.85"/>
<circle cx="517.1" cy="430.2" r="3.2" fill="#ff922b" opacity="0.85"/>
<circle cx="523.6" cy="430.2" r="3.2" fill="#ff922b" opacity="0.85"/>
<circle cx="530.0" cy="430.6" r="3.2" fill="#ff922b" opacity="0.85"/>
<circle cx="536.4" cy="430.6" r="3.2" fill="#ff922b" opacity="0.85"/>
<circle cx="542.9" cy="429.8" r="3.2" fill="#ff922b" opacity="0.85"/>
<circle cx="549.3" cy="431.9" r="3.2" fill="#ff922b" opacity="0.85"/>
<circle cx="555.8" cy="429.4" r="3.2" fill="#ff922b" opacity="0.85"/>
<circle cx="562.2" cy="430.5" r="3.2" fill="#ff922b" opacity="0.85"/>
<circle cx="568.6" cy="431.1" r="3.2" fill="#ff922b" opacity="0.85"/>
<circle cx="575.1" cy="426.4" r="3.2" fill="#ff922b" opacity="0.85"/>
<circle cx="581.5" cy="430.4" r="3.2" fill="#ff922b" opacity="0.85"/>
<circle cx="588.0" cy="430.2" r="3.2" fill="#ff922b" opacity="0.85"/>
<circle cx="594.4" cy="430.2" r="3.2" fill="#ff922b" opacity="0.85"/>
<circle cx="600.8" cy="430.2" r="3.2" fill="#ff922b" opacity="0.85"/>
<circle cx="607.3" cy="429.4" r="3.2" fill="#ff922b" opacity="0.85"/>
<circle cx="613.7" cy="429.0" r="3.2" fill="#ff922b" opacity="0.85"/>
<circle cx="620.2" cy="430.2" r="3.2" fill="#ff922b" opacity="0.85"/>
<circle cx="626.6" cy="430.2" r="3.2" fill="#ff922b" opacity="0.85"/>
<circle cx="633.0" cy="429.0" r="3.2" fill="#ff922b" opacity="0.85"/>
<circle cx="639.5" cy="429.4" r="3.2" fill="#ff922b" opacity="0.85"/>
<circle cx="645.9" cy="430.2" r="3.2" fill="#ff922b" opacity="0.85"/>
<circle cx="652.4" cy="429.0" r="3.2" fill="#ff922b" opacity="0.85"/>
<circle cx="658.8" cy="429.8" r="3.2" fill="#ff922b" opacity="0.85"/>
<circle cx="665.2" cy="429.4" r="3.2" fill="#ff922b" opacity="0.85"/>
<circle cx="671.7" cy="430.6" r="3.2" fill="#ff922b" opacity="0.85"/>
<circle cx="678.1" cy="429.4" r="3.2" fill="#ff922b" opacity="0.85"/>
<circle cx="684.6" cy="429.4" r="3.2" fill="#ff922b" opacity="0.85"/>
<circle cx="691.0" cy="429.0" r="3.2" fill="#ff922b" opacity="0.85"/>
<circle cx="697.4" cy="429.4" r="3.2" fill="#ff922b" opacity="0.85"/>
<circle cx="703.9" cy="430.8" r="3.2" fill="#ff922b" opacity="0.85"/>
<circle cx="710.3" cy="429.1" r="3.2" fill="#ff922b" opacity="0.85"/>
<circle cx="716.8" cy="429.1" r="3.2" fill="#ff922b" opacity="0.85"/>
<circle cx="723.2" cy="428.2" r="3.2" fill="#ff922b" opacity="0.85"/>
<circle cx="729.6" cy="429.1" r="3.2" fill="#ff922b" opacity="0.85"/>
<circle cx="736.1" cy="429.7" r="3.2" fill="#ff922b" opacity="0.85"/>
<circle cx="742.5" cy="430.7" r="3.2" fill="#ff922b" opacity="0.85"/>
<circle cx="749.0" cy="430.3" r="3.2" fill="#ff922b" opacity="0.85"/>
<circle cx="755.4" cy="430.7" r="3.2" fill="#ff922b" opacity="0.85"/>
<circle cx="761.8" cy="428.2" r="3.2" fill="#ff922b" opacity="0.85"/>
<circle cx="768.3" cy="430.3" r="3.2" fill="#ff922b" opacity="0.85"/>
<circle cx="774.7" cy="428.8" r="3.2" fill="#ff922b" opacity="0.85"/>
<circle cx="781.2" cy="429.1" r="3.2" fill="#ff922b" opacity="0.85"/>
<circle cx="847" cy="84" r="5" fill="#ff922b"/>
<text x="866" y="88" font-size="13" fill="#c9d1d9" font-weight="700">Kāra</text>
<line x1="836" y1="108" x2="858" y2="108" stroke="#a7b0bc" stroke-width="2" stroke-dasharray="5 4"/>
<text x="866" y="112" font-size="13" fill="#c9d1d9" font-weight="400">Rust = 1.0×</text>
<circle cx="847" cy="132" r="4" fill="#3fb950"/>
<text x="866" y="136" font-size="13" fill="#c9d1d9" font-weight="400">C</text>
<circle cx="847" cy="156" r="4" fill="#bc8cff"/>
<text x="866" y="160" font-size="13" fill="#c9d1d9" font-weight="400">Go</text>
<text x="70" y="538" font-size="11.5" fill="#8b949e">Each dot is one benchmarked program (kata × approach); there is no connecting line because left-to-right order is not meaningful. Raw numbers: bench-results.json</text>
</svg>