<svg xmlns="http://www.w3.org/2000/svg" width="980" height="560" viewBox="0 0 980 560" font-family="-apple-system,Segoe UI,Helvetica,Arial,sans-serif">
<rect width="980" height="560" fill="#282c34"/>
<text x="70" y="34" font-size="21" font-weight="700" fill="#c9d1d9">Runtime — sequential lane</text>
<text x="70" y="56" font-size="13" fill="#8b949e">relative to Rust (default) = 1.0 · lower = faster · 107 programs</text>
<line x1="70" y1="456.0" x2="812" y2="456.0" stroke="#3b414b" stroke-width="1"/>
<text x="60" y="460.0" font-size="12" text-anchor="end" fill="#8b949e">0.0×</text>
<line x1="70" y1="402.0" x2="812" y2="402.0" stroke="#a7b0bc" stroke-width="2" stroke-dasharray="5 4"/>
<text x="60" y="406.0" font-size="12" text-anchor="end" fill="#aeb6c0" font-weight="700">1.0×</text>
<line x1="70" y1="380.4" x2="812" y2="380.4" stroke="#3b414b" stroke-width="1"/>
<text x="60" y="384.4" font-size="12" text-anchor="end" fill="#8b949e">1.4×</text>
<line x1="70" y1="304.8" x2="812" y2="304.8" stroke="#3b414b" stroke-width="1"/>
<text x="60" y="308.8" font-size="12" text-anchor="end" fill="#8b949e">2.8×</text>
<line x1="70" y1="229.2" x2="812" y2="229.2" stroke="#3b414b" stroke-width="1"/>
<text x="60" y="233.2" font-size="12" text-anchor="end" fill="#8b949e">4.2×</text>
<line x1="70" y1="153.6" x2="812" y2="153.6" stroke="#3b414b" stroke-width="1"/>
<text x="60" y="157.6" font-size="12" text-anchor="end" fill="#8b949e">5.6×</text>
<line x1="70" y1="78.0" x2="812" y2="78.0" stroke="#3b414b" stroke-width="1"/>
<text x="60" y="82.0" font-size="12" text-anchor="end" fill="#8b949e">7.0×</text>
<text x="812" y="396.0" font-size="11" text-anchor="end" fill="#aeb6c0">Rust (default) baseline</text>
<line x1="70" y1="456" x2="812" y2="456" stroke="#3b414b"/>
<text x="441.0" y="478" font-size="11" text-anchor="middle" fill="#8b949e">107 programs (kata × approach) — x-order carries no meaning</text>
<circle cx="99.2" cy="402.1" r="2.6" fill="#3fb950" opacity="0.7"/>
<circle cx="105.7" cy="421.6" r="2.6" fill="#3fb950" opacity="0.7"/>
<circle cx="112.1" cy="425.2" r="2.6" fill="#3fb950" opacity="0.7"/>
<circle cx="118.6" cy="442.8" r="2.6" fill="#3fb950" opacity="0.7"/>
<circle cx="125.0" cy="413.8" r="2.6" fill="#3fb950" opacity="0.7"/>
<circle cx="131.4" cy="411.4" r="2.6" fill="#3fb950" opacity="0.7"/>
<circle cx="137.9" cy="402.3" r="2.6" fill="#3fb950" opacity="0.7"/>
<circle cx="144.3" cy="399.7" r="2.6" fill="#3fb950" opacity="0.7"/>
<circle cx="150.8" cy="397.0" r="2.6" fill="#3fb950" opacity="0.7"/>
<circle cx="157.2" cy="395.5" r="2.6" fill="#3fb950" opacity="0.7"/>
<circle cx="163.6" cy="402.1" r="2.6" fill="#3fb950" opacity="0.7"/>
<circle cx="170.1" cy="409.1" r="2.6" fill="#3fb950" opacity="0.7"/>
<circle cx="176.5" cy="395.6" r="2.6" fill="#3fb950" opacity="0.7"/>
<circle cx="183.0" cy="399.0" r="2.6" fill="#3fb950" opacity="0.7"/>
<circle cx="189.4" cy="413.4" r="2.6" fill="#3fb950" opacity="0.7"/>
<circle cx="195.8" cy="397.3" r="2.6" fill="#3fb950" opacity="0.7"/>
<circle cx="202.3" cy="357.8" r="2.6" fill="#3fb950" opacity="0.7"/>
<circle cx="208.7" cy="415.1" r="2.6" fill="#3fb950" opacity="0.7"/>
<circle cx="215.2" cy="403.5" r="2.6" fill="#3fb950" opacity="0.7"/>
<circle cx="221.6" cy="423.2" r="2.6" fill="#3fb950" opacity="0.7"/>
<circle cx="228.0" cy="406.5" r="2.6" fill="#3fb950" opacity="0.7"/>
<circle cx="234.5" cy="419.9" r="2.6" fill="#3fb950" opacity="0.7"/>
<circle cx="240.9" cy="439.8" r="2.6" fill="#3fb950" opacity="0.7"/>
<circle cx="247.4" cy="424.6" r="2.6" fill="#3fb950" opacity="0.7"/>
<circle cx="253.8" cy="418.3" r="2.6" fill="#3fb950" opacity="0.7"/>
<circle cx="260.2" cy="420.5" r="2.6" fill="#3fb950" opacity="0.7"/>
<circle cx="266.7" cy="400.5" r="2.6" fill="#3fb950" opacity="0.7"/>
<circle cx="273.1" cy="400.0" r="2.6" fill="#3fb950" opacity="0.7"/>
<circle cx="279.6" cy="402.1" r="2.6" fill="#3fb950" opacity="0.7"/>
<circle cx="286.0" cy="414.5" r="2.6" fill="#3fb950" opacity="0.7"/>
<circle cx="292.4" cy="401.5" r="2.6" fill="#3fb950" opacity="0.7"/>
<circle cx="298.9" cy="435.9" r="2.6" fill="#3fb950" opacity="0.7"/>
<circle cx="305.3" cy="402.2" r="2.6" fill="#3fb950" opacity="0.7"/>
<circle cx="311.8" cy="421.6" r="2.6" fill="#3fb950" opacity="0.7"/>
<circle cx="318.2" cy="415.8" r="2.6" fill="#3fb950" opacity="0.7"/>
<circle cx="324.6" cy="417.3" r="2.6" fill="#3fb950" opacity="0.7"/>
<circle cx="331.1" cy="417.7" r="2.6" fill="#3fb950" opacity="0.7"/>
<circle cx="337.5" cy="402.4" r="2.6" fill="#3fb950" opacity="0.7"/>
<circle cx="344.0" cy="382.1" r="2.6" fill="#3fb950" opacity="0.7"/>
<circle cx="350.4" cy="413.8" r="2.6" fill="#3fb950" opacity="0.7"/>
<circle cx="356.8" cy="398.2" r="2.6" fill="#3fb950" opacity="0.7"/>
<circle cx="363.3" cy="401.5" r="2.6" fill="#3fb950" opacity="0.7"/>
<circle cx="369.7" cy="404.4" r="2.6" fill="#3fb950" opacity="0.7"/>
<circle cx="376.2" cy="403.9" r="2.6" fill="#3fb950" opacity="0.7"/>
<circle cx="382.6" cy="431.2" r="2.6" fill="#3fb950" opacity="0.7"/>
<circle cx="389.0" cy="404.3" r="2.6" fill="#3fb950" opacity="0.7"/>
<circle cx="395.5" cy="400.0" r="2.6" fill="#3fb950" opacity="0.7"/>
<circle cx="401.9" cy="398.4" r="2.6" fill="#3fb950" opacity="0.7"/>
<circle cx="408.4" cy="403.7" r="2.6" fill="#3fb950" opacity="0.7"/>
<circle cx="414.8" cy="404.7" r="2.6" fill="#3fb950" opacity="0.7"/>
<circle cx="421.2" cy="435.3" r="2.6" fill="#3fb950" opacity="0.7"/>
<circle cx="427.7" cy="424.2" r="2.6" fill="#3fb950" opacity="0.7"/>
<circle cx="434.1" cy="386.9" r="2.6" fill="#3fb950" opacity="0.7"/>
<circle cx="440.6" cy="402.3" r="2.6" fill="#3fb950" opacity="0.7"/>
<circle cx="447.0" cy="402.1" r="2.6" fill="#3fb950" opacity="0.7"/>
<circle cx="453.4" cy="408.1" r="2.6" fill="#3fb950" opacity="0.7"/>
<circle cx="459.9" cy="400.9" r="2.6" fill="#3fb950" opacity="0.7"/>
<circle cx="466.3" cy="369.7" r="2.6" fill="#3fb950" opacity="0.7"/>
<circle cx="472.8" cy="441.3" r="2.6" fill="#3fb950" opacity="0.7"/>
<circle cx="479.2" cy="409.4" r="2.6" fill="#3fb950" opacity="0.7"/>
<circle cx="485.6" cy="438.7" r="2.6" fill="#3fb950" opacity="0.7"/>
<circle cx="492.1" cy="401.9" r="2.6" fill="#3fb950" opacity="0.7"/>
<circle cx="498.5" cy="424.3" r="2.6" fill="#3fb950" opacity="0.7"/>
<circle cx="505.0" cy="401.6" r="2.6" fill="#3fb950" opacity="0.7"/>
<circle cx="511.4" cy="401.9" r="2.6" fill="#3fb950" opacity="0.7"/>
<circle cx="517.8" cy="402.1" r="2.6" fill="#3fb950" opacity="0.7"/>
<circle cx="524.3" cy="393.0" r="2.6" fill="#3fb950" opacity="0.7"/>
<circle cx="530.7" cy="405.6" r="2.6" fill="#3fb950" opacity="0.7"/>
<circle cx="537.2" cy="401.9" r="2.6" fill="#3fb950" opacity="0.7"/>
<circle cx="543.6" cy="412.7" r="2.6" fill="#3fb950" opacity="0.7"/>
<circle cx="550.0" cy="401.6" r="2.6" fill="#3fb950" opacity="0.7"/>
<circle cx="556.5" cy="450.6" r="2.6" fill="#3fb950" opacity="0.7"/>
<circle cx="562.9" cy="372.4" r="2.6" fill="#3fb950" opacity="0.7"/>
<circle cx="569.4" cy="391.1" r="2.6" fill="#3fb950" opacity="0.7"/>
<circle cx="575.8" cy="401.7" r="2.6" fill="#3fb950" opacity="0.7"/>
<circle cx="582.2" cy="407.8" r="2.6" fill="#3fb950" opacity="0.7"/>
<circle cx="588.7" cy="402.6" r="2.6" fill="#3fb950" opacity="0.7"/>
<circle cx="595.1" cy="403.6" r="2.6" fill="#3fb950" opacity="0.7"/>
<circle cx="601.6" cy="402.9" r="2.6" fill="#3fb950" opacity="0.7"/>
<circle cx="608.0" cy="410.3" r="2.6" fill="#3fb950" opacity="0.7"/>
<circle cx="614.4" cy="402.4" r="2.6" fill="#3fb950" opacity="0.7"/>
<circle cx="620.9" cy="411.5" r="2.6" fill="#3fb950" opacity="0.7"/>
<circle cx="627.3" cy="419.0" r="2.6" fill="#3fb950" opacity="0.7"/>
<circle cx="633.8" cy="419.4" r="2.6" fill="#3fb950" opacity="0.7"/>
<circle cx="640.2" cy="422.5" r="2.6" fill="#3fb950" opacity="0.7"/>
<circle cx="646.6" cy="420.4" r="2.6" fill="#3fb950" opacity="0.7"/>
<circle cx="653.1" cy="401.4" r="2.6" fill="#3fb950" opacity="0.7"/>
<circle cx="659.5" cy="419.1" r="2.6" fill="#3fb950" opacity="0.7"/>
<circle cx="666.0" cy="402.1" r="2.6" fill="#3fb950" opacity="0.7"/>
<circle cx="672.4" cy="401.6" r="2.6" fill="#3fb950" opacity="0.7"/>
<circle cx="678.8" cy="395.0" r="2.6" fill="#3fb950" opacity="0.7"/>
<circle cx="685.3" cy="403.0" r="2.6" fill="#3fb950" opacity="0.7"/>
<circle cx="691.7" cy="404.2" r="2.6" fill="#3fb950" opacity="0.7"/>
<circle cx="698.2" cy="425.5" r="2.6" fill="#3fb950" opacity="0.7"/>
<circle cx="704.6" cy="445.3" r="2.6" fill="#3fb950" opacity="0.7"/>
<circle cx="711.0" cy="415.3" r="2.6" fill="#3fb950" opacity="0.7"/>
<circle cx="717.5" cy="410.4" r="2.6" fill="#3fb950" opacity="0.7"/>
<circle cx="723.9" cy="404.0" r="2.6" fill="#3fb950" opacity="0.7"/>
<circle cx="730.4" cy="402.7" r="2.6" fill="#3fb950" opacity="0.7"/>
<circle cx="736.8" cy="412.4" r="2.6" fill="#3fb950" opacity="0.7"/>
<circle cx="743.2" cy="407.1" r="2.6" fill="#3fb950" opacity="0.7"/>
<circle cx="749.7" cy="411.4" r="2.6" fill="#3fb950" opacity="0.7"/>
<circle cx="756.1" cy="452.2" r="2.6" fill="#3fb950" opacity="0.7"/>
<circle cx="762.6" cy="447.1" r="2.6" fill="#3fb950" opacity="0.7"/>
<circle cx="769.0" cy="406.6" r="2.6" fill="#3fb950" opacity="0.7"/>
<circle cx="775.4" cy="391.2" r="2.6" fill="#3fb950" opacity="0.7"/>
<circle cx="781.9" cy="416.2" r="2.6" fill="#3fb950" opacity="0.7"/>
<circle cx="100.1" cy="401.6" r="2.6" fill="#bc8cff" opacity="0.7"/>
<circle cx="106.6" cy="392.0" r="2.6" fill="#bc8cff" opacity="0.7"/>
<circle cx="113.0" cy="428.8" r="2.6" fill="#bc8cff" opacity="0.7"/>
<circle cx="119.4" cy="392.5" r="2.6" fill="#bc8cff" opacity="0.7"/>
<circle cx="125.9" cy="358.8" r="2.6" fill="#bc8cff" opacity="0.7"/>
<circle cx="132.3" cy="391.4" r="2.6" fill="#bc8cff" opacity="0.7"/>
<circle cx="138.8" cy="315.8" r="2.6" fill="#bc8cff" opacity="0.7"/>
<circle cx="145.2" cy="393.4" r="2.6" fill="#bc8cff" opacity="0.7"/>
<circle cx="151.6" cy="385.2" r="2.6" fill="#bc8cff" opacity="0.7"/>
<circle cx="158.1" cy="362.9" r="2.6" fill="#bc8cff" opacity="0.7"/>
<circle cx="164.5" cy="372.1" r="2.6" fill="#bc8cff" opacity="0.7"/>
<circle cx="171.0" cy="423.7" r="2.6" fill="#bc8cff" opacity="0.7"/>
<circle cx="177.4" cy="401.0" r="2.6" fill="#bc8cff" opacity="0.7"/>
<circle cx="183.8" cy="400.3" r="2.6" fill="#bc8cff" opacity="0.7"/>
<circle cx="190.3" cy="412.8" r="2.6" fill="#bc8cff" opacity="0.7"/>
<circle cx="196.7" cy="373.1" r="2.6" fill="#bc8cff" opacity="0.7"/>
<circle cx="203.2" cy="302.1" r="2.6" fill="#bc8cff" opacity="0.7"/>
<circle cx="209.6" cy="419.5" r="2.6" fill="#bc8cff" opacity="0.7"/>
<circle cx="216.0" cy="385.6" r="2.6" fill="#bc8cff" opacity="0.7"/>
<circle cx="222.5" cy="428.9" r="2.6" fill="#bc8cff" opacity="0.7"/>
<circle cx="228.9" cy="395.8" r="2.6" fill="#bc8cff" opacity="0.7"/>
<circle cx="235.4" cy="422.8" r="2.6" fill="#bc8cff" opacity="0.7"/>
<circle cx="241.8" cy="437.9" r="2.6" fill="#bc8cff" opacity="0.7"/>
<circle cx="248.2" cy="429.5" r="2.6" fill="#bc8cff" opacity="0.7"/>
<circle cx="254.7" cy="423.4" r="2.6" fill="#bc8cff" opacity="0.7"/>
<circle cx="261.1" cy="424.6" r="2.6" fill="#bc8cff" opacity="0.7"/>
<circle cx="267.6" cy="394.3" r="2.6" fill="#bc8cff" opacity="0.7"/>
<circle cx="274.0" cy="388.7" r="2.6" fill="#bc8cff" opacity="0.7"/>
<circle cx="280.4" cy="276.0" r="2.6" fill="#bc8cff" opacity="0.7"/>
<circle cx="286.9" cy="378.6" r="2.6" fill="#bc8cff" opacity="0.7"/>
<circle cx="293.3" cy="393.5" r="2.6" fill="#bc8cff" opacity="0.7"/>
<circle cx="299.8" cy="319.9" r="2.6" fill="#bc8cff" opacity="0.7"/>
<circle cx="306.2" cy="396.2" r="2.6" fill="#bc8cff" opacity="0.7"/>
<circle cx="312.6" cy="340.6" r="2.6" fill="#bc8cff" opacity="0.7"/>
<circle cx="319.1" cy="400.8" r="2.6" fill="#bc8cff" opacity="0.7"/>
<circle cx="325.5" cy="416.0" r="2.6" fill="#bc8cff" opacity="0.7"/>
<circle cx="332.0" cy="359.7" r="2.6" fill="#bc8cff" opacity="0.7"/>
<circle cx="338.4" cy="340.0" r="2.6" fill="#bc8cff" opacity="0.7"/>
<circle cx="344.8" cy="371.7" r="2.6" fill="#bc8cff" opacity="0.7"/>
<circle cx="351.3" cy="424.3" r="2.6" fill="#bc8cff" opacity="0.7"/>
<circle cx="357.7" cy="391.5" r="2.6" fill="#bc8cff" opacity="0.7"/>
<circle cx="364.2" cy="394.2" r="2.6" fill="#bc8cff" opacity="0.7"/>
<circle cx="370.6" cy="396.9" r="2.6" fill="#bc8cff" opacity="0.7"/>
<circle cx="377.0" cy="438.7" r="2.6" fill="#bc8cff" opacity="0.7"/>
<circle cx="383.5" cy="393.1" r="2.6" fill="#bc8cff" opacity="0.7"/>
<circle cx="389.9" cy="399.1" r="2.6" fill="#bc8cff" opacity="0.7"/>
<circle cx="396.4" cy="401.0" r="2.6" fill="#bc8cff" opacity="0.7"/>
<circle cx="402.8" cy="382.5" r="2.6" fill="#bc8cff" opacity="0.7"/>
<circle cx="409.2" cy="392.8" r="2.6" fill="#bc8cff" opacity="0.7"/>
<circle cx="415.7" cy="395.2" r="2.6" fill="#bc8cff" opacity="0.7"/>
<circle cx="422.1" cy="314.2" r="2.6" fill="#bc8cff" opacity="0.7"/>
<circle cx="428.6" cy="418.1" r="2.6" fill="#bc8cff" opacity="0.7"/>
<circle cx="435.0" cy="330.6" r="2.6" fill="#bc8cff" opacity="0.7"/>
<circle cx="441.4" cy="334.6" r="2.6" fill="#bc8cff" opacity="0.7"/>
<circle cx="447.9" cy="340.9" r="2.6" fill="#bc8cff" opacity="0.7"/>
<circle cx="454.3" cy="355.5" r="2.6" fill="#bc8cff" opacity="0.7"/>
<circle cx="460.8" cy="415.5" r="2.6" fill="#bc8cff" opacity="0.7"/>
<circle cx="467.2" cy="88.9" r="2.6" fill="#bc8cff" opacity="0.7"/>
<circle cx="473.6" cy="429.1" r="2.6" fill="#bc8cff" opacity="0.7"/>
<circle cx="480.1" cy="381.4" r="2.6" fill="#bc8cff" opacity="0.7"/>
<circle cx="486.5" cy="438.7" r="2.6" fill="#bc8cff" opacity="0.7"/>
<circle cx="493.0" cy="377.1" r="2.6" fill="#bc8cff" opacity="0.7"/>
<circle cx="499.4" cy="432.6" r="2.6" fill="#bc8cff" opacity="0.7"/>
<circle cx="505.8" cy="339.0" r="2.6" fill="#bc8cff" opacity="0.7"/>
<circle cx="512.3" cy="361.5" r="2.6" fill="#bc8cff" opacity="0.7"/>
<circle cx="518.7" cy="405.7" r="2.6" fill="#bc8cff" opacity="0.7"/>
<circle cx="525.2" cy="389.7" r="2.6" fill="#bc8cff" opacity="0.7"/>
<circle cx="531.6" cy="405.6" r="2.6" fill="#bc8cff" opacity="0.7"/>
<circle cx="538.0" cy="400.0" r="2.6" fill="#bc8cff" opacity="0.7"/>
<circle cx="544.5" cy="398.8" r="2.6" fill="#bc8cff" opacity="0.7"/>
<circle cx="550.9" cy="396.6" r="2.6" fill="#bc8cff" opacity="0.7"/>
<circle cx="557.4" cy="433.3" r="2.6" fill="#bc8cff" opacity="0.7"/>
<circle cx="563.8" cy="416.4" r="2.6" fill="#bc8cff" opacity="0.7"/>
<circle cx="570.2" cy="409.0" r="2.6" fill="#bc8cff" opacity="0.7"/>
<circle cx="576.7" cy="408.0" r="2.6" fill="#bc8cff" opacity="0.7"/>
<circle cx="583.1" cy="371.1" r="2.6" fill="#bc8cff" opacity="0.7"/>
<circle cx="589.6" cy="405.9" r="2.6" fill="#bc8cff" opacity="0.7"/>
<circle cx="596.0" cy="403.5" r="2.6" fill="#bc8cff" opacity="0.7"/>
<circle cx="602.4" cy="401.5" r="2.6" fill="#bc8cff" opacity="0.7"/>
<circle cx="608.9" cy="395.9" r="2.6" fill="#bc8cff" opacity="0.7"/>
<circle cx="615.3" cy="390.8" r="2.6" fill="#bc8cff" opacity="0.7"/>
<circle cx="621.8" cy="408.2" r="2.6" fill="#bc8cff" opacity="0.7"/>
<circle cx="628.2" cy="424.7" r="2.6" fill="#bc8cff" opacity="0.7"/>
<circle cx="634.6" cy="419.5" r="2.6" fill="#bc8cff" opacity="0.7"/>
<circle cx="641.1" cy="396.7" r="2.6" fill="#bc8cff" opacity="0.7"/>
<circle cx="647.5" cy="418.1" r="2.6" fill="#bc8cff" opacity="0.7"/>
<circle cx="654.0" cy="384.2" r="2.6" fill="#bc8cff" opacity="0.7"/>
<circle cx="660.4" cy="388.8" r="2.6" fill="#bc8cff" opacity="0.7"/>
<circle cx="666.8" cy="402.2" r="2.6" fill="#bc8cff" opacity="0.7"/>
<circle cx="673.3" cy="394.7" r="2.6" fill="#bc8cff" opacity="0.7"/>
<circle cx="679.7" cy="386.6" r="2.6" fill="#bc8cff" opacity="0.7"/>
<circle cx="686.2" cy="416.4" r="2.6" fill="#bc8cff" opacity="0.7"/>
<circle cx="692.6" cy="397.7" r="2.6" fill="#bc8cff" opacity="0.7"/>
<circle cx="699.0" cy="408.7" r="2.6" fill="#bc8cff" opacity="0.7"/>
<circle cx="705.5" cy="399.4" r="2.6" fill="#bc8cff" opacity="0.7"/>
<circle cx="711.9" cy="419.2" r="2.6" fill="#bc8cff" opacity="0.7"/>
<circle cx="718.4" cy="362.8" r="2.6" fill="#bc8cff" opacity="0.7"/>
<circle cx="724.8" cy="396.9" r="2.6" fill="#bc8cff" opacity="0.7"/>
<circle cx="731.2" cy="408.9" r="2.6" fill="#bc8cff" opacity="0.7"/>
<circle cx="737.7" cy="400.6" r="2.6" fill="#bc8cff" opacity="0.7"/>
<circle cx="744.1" cy="404.0" r="2.6" fill="#bc8cff" opacity="0.7"/>
<circle cx="750.6" cy="418.5" r="2.6" fill="#bc8cff" opacity="0.7"/>
<circle cx="757.0" cy="444.8" r="2.6" fill="#bc8cff" opacity="0.7"/>
<circle cx="763.4" cy="419.4" r="2.6" fill="#bc8cff" opacity="0.7"/>
<circle cx="769.9" cy="409.4" r="2.6" fill="#bc8cff" opacity="0.7"/>
<circle cx="776.3" cy="258.5" r="2.6" fill="#bc8cff" opacity="0.7"/>
<circle cx="782.8" cy="362.5" r="2.6" fill="#bc8cff" opacity="0.7"/>
<circle cx="98.4" cy="394.1" r="3.2" fill="#ff922b" opacity="0.85"/>
<circle cx="104.8" cy="414.9" r="3.2" fill="#ff922b" opacity="0.85"/>
<circle cx="111.2" cy="426.6" r="3.2" fill="#ff922b" opacity="0.85"/>
<circle cx="117.7" cy="431.8" r="3.2" fill="#ff922b" opacity="0.85"/>
<circle cx="124.1" cy="398.4" r="3.2" fill="#ff922b" opacity="0.85"/>
<circle cx="130.6" cy="381.7" r="3.2" fill="#ff922b" opacity="0.85"/>
<circle cx="137.0" cy="399.1" r="3.2" fill="#ff922b" opacity="0.85"/>
<circle cx="143.4" cy="391.9" r="3.2" fill="#ff922b" opacity="0.85"/>
<circle cx="149.9" cy="380.1" r="3.2" fill="#ff922b" opacity="0.85"/>
<circle cx="156.3" cy="377.3" r="3.2" fill="#ff922b" opacity="0.85"/>
<circle cx="162.8" cy="396.9" r="3.2" fill="#ff922b" opacity="0.85"/>
<circle cx="169.2" cy="394.4" r="3.2" fill="#ff922b" opacity="0.85"/>
<circle cx="175.6" cy="404.1" r="3.2" fill="#ff922b" opacity="0.85"/>
<circle cx="182.1" cy="404.0" r="3.2" fill="#ff922b" opacity="0.85"/>
<circle cx="188.5" cy="395.7" r="3.2" fill="#ff922b" opacity="0.85"/>
<circle cx="195.0" cy="401.0" r="3.2" fill="#ff922b" opacity="0.85"/>
<circle cx="201.4" cy="395.5" r="3.2" fill="#ff922b" opacity="0.85"/>
<circle cx="207.8" cy="391.0" r="3.2" fill="#ff922b" opacity="0.85"/>
<circle cx="214.3" cy="399.4" r="3.2" fill="#ff922b" opacity="0.85"/>
<circle cx="220.7" cy="414.3" r="3.2" fill="#ff922b" opacity="0.85"/>
<circle cx="227.2" cy="410.0" r="3.2" fill="#ff922b" opacity="0.85"/>
<circle cx="233.6" cy="405.1" r="3.2" fill="#ff922b" opacity="0.85"/>
<circle cx="240.0" cy="437.8" r="3.2" fill="#ff922b" opacity="0.85"/>
<circle cx="246.5" cy="409.2" r="3.2" fill="#ff922b" opacity="0.85"/>
<circle cx="252.9" cy="409.6" r="3.2" fill="#ff922b" opacity="0.85"/>
<circle cx="259.4" cy="405.6" r="3.2" fill="#ff922b" opacity="0.85"/>
<circle cx="265.8" cy="396.3" r="3.2" fill="#ff922b" opacity="0.85"/>
<circle cx="272.2" cy="398.6" r="3.2" fill="#ff922b" opacity="0.85"/>
<circle cx="278.7" cy="402.5" r="3.2" fill="#ff922b" opacity="0.85"/>
<circle cx="285.1" cy="402.1" r="3.2" fill="#ff922b" opacity="0.85"/>
<circle cx="291.6" cy="400.7" r="3.2" fill="#ff922b" opacity="0.85"/>
<circle cx="298.0" cy="363.0" r="3.2" fill="#ff922b" opacity="0.85"/>
<circle cx="304.4" cy="401.0" r="3.2" fill="#ff922b" opacity="0.85"/>
<circle cx="310.9" cy="400.3" r="3.2" fill="#ff922b" opacity="0.85"/>
<circle cx="317.3" cy="397.1" r="3.2" fill="#ff922b" opacity="0.85"/>
<circle cx="323.8" cy="396.1" r="3.2" fill="#ff922b" opacity="0.85"/>
<circle cx="330.2" cy="395.6" r="3.2" fill="#ff922b" opacity="0.85"/>
<circle cx="336.6" cy="426.2" r="3.2" fill="#ff922b" opacity="0.85"/>
<circle cx="343.1" cy="403.8" r="3.2" fill="#ff922b" opacity="0.85"/>
<circle cx="349.5" cy="389.3" r="3.2" fill="#ff922b" opacity="0.85"/>
<circle cx="356.0" cy="377.0" r="3.2" fill="#ff922b" opacity="0.85"/>
<circle cx="362.4" cy="379.7" r="3.2" fill="#ff922b" opacity="0.85"/>
<circle cx="368.8" cy="404.6" r="3.2" fill="#ff922b" opacity="0.85"/>
<circle cx="375.3" cy="437.7" r="3.2" fill="#ff922b" opacity="0.85"/>
<circle cx="381.7" cy="382.6" r="3.2" fill="#ff922b" opacity="0.85"/>
<circle cx="388.2" cy="394.7" r="3.2" fill="#ff922b" opacity="0.85"/>
<circle cx="394.6" cy="399.6" r="3.2" fill="#ff922b" opacity="0.85"/>
<circle cx="401.0" cy="385.6" r="3.2" fill="#ff922b" opacity="0.85"/>
<circle cx="407.5" cy="402.9" r="3.2" fill="#ff922b" opacity="0.85"/>
<circle cx="413.9" cy="396.3" r="3.2" fill="#ff922b" opacity="0.85"/>
<circle cx="420.4" cy="366.6" r="3.2" fill="#ff922b" opacity="0.85"/>
<circle cx="426.8" cy="403.7" r="3.2" fill="#ff922b" opacity="0.85"/>
<circle cx="433.2" cy="350.9" r="3.2" fill="#ff922b" opacity="0.85"/>
<circle cx="439.7" cy="344.5" r="3.2" fill="#ff922b" opacity="0.85"/>
<circle cx="446.1" cy="402.3" r="3.2" fill="#ff922b" opacity="0.85"/>
<circle cx="452.6" cy="391.9" r="3.2" fill="#ff922b" opacity="0.85"/>
<circle cx="459.0" cy="401.2" r="3.2" fill="#ff922b" opacity="0.85"/>
<circle cx="465.4" cy="397.4" r="3.2" fill="#ff922b" opacity="0.85"/>
<circle cx="471.9" cy="405.2" r="3.2" fill="#ff922b" opacity="0.85"/>
<circle cx="478.3" cy="377.3" r="3.2" fill="#ff922b" opacity="0.85"/>
<circle cx="484.8" cy="433.2" r="3.2" fill="#ff922b" opacity="0.85"/>
<circle cx="491.2" cy="400.3" r="3.2" fill="#ff922b" opacity="0.85"/>
<circle cx="497.6" cy="416.3" r="3.2" fill="#ff922b" opacity="0.85"/>
<circle cx="504.1" cy="401.1" r="3.2" fill="#ff922b" opacity="0.85"/>
<circle cx="510.5" cy="396.3" r="3.2" fill="#ff922b" opacity="0.85"/>
<circle cx="517.0" cy="408.2" r="3.2" fill="#ff922b" opacity="0.85"/>
<circle cx="523.4" cy="400.8" r="3.2" fill="#ff922b" opacity="0.85"/>
<circle cx="529.8" cy="405.5" r="3.2" fill="#ff922b" opacity="0.85"/>
<circle cx="536.3" cy="401.5" r="3.2" fill="#ff922b" opacity="0.85"/>
<circle cx="542.7" cy="380.1" r="3.2" fill="#ff922b" opacity="0.85"/>
<circle cx="549.2" cy="413.0" r="3.2" fill="#ff922b" opacity="0.85"/>
<circle cx="555.6" cy="397.9" r="3.2" fill="#ff922b" opacity="0.85"/>
<circle cx="562.0" cy="412.9" r="3.2" fill="#ff922b" opacity="0.85"/>
<circle cx="568.5" cy="427.1" r="3.2" fill="#ff922b" opacity="0.85"/>
<circle cx="574.9" cy="405.3" r="3.2" fill="#ff922b" opacity="0.85"/>
<circle cx="581.4" cy="407.7" r="3.2" fill="#ff922b" opacity="0.85"/>
<circle cx="587.8" cy="389.7" r="3.2" fill="#ff922b" opacity="0.85"/>
<circle cx="594.2" cy="403.4" r="3.2" fill="#ff922b" opacity="0.85"/>
<circle cx="600.7" cy="402.6" r="3.2" fill="#ff922b" opacity="0.85"/>
<circle cx="607.1" cy="397.6" r="3.2" fill="#ff922b" opacity="0.85"/>
<circle cx="613.6" cy="402.0" r="3.2" fill="#ff922b" opacity="0.85"/>
<circle cx="620.0" cy="385.0" r="3.2" fill="#ff922b" opacity="0.85"/>
<circle cx="626.4" cy="407.0" r="3.2" fill="#ff922b" opacity="0.85"/>
<circle cx="632.9" cy="406.1" r="3.2" fill="#ff922b" opacity="0.85"/>
<circle cx="639.3" cy="399.6" r="3.2" fill="#ff922b" opacity="0.85"/>
<circle cx="645.8" cy="402.2" r="3.2" fill="#ff922b" opacity="0.85"/>
<circle cx="652.2" cy="401.5" r="3.2" fill="#ff922b" opacity="0.85"/>
<circle cx="658.6" cy="411.0" r="3.2" fill="#ff922b" opacity="0.85"/>
<circle cx="665.1" cy="402.0" r="3.2" fill="#ff922b" opacity="0.85"/>
<circle cx="671.5" cy="405.3" r="3.2" fill="#ff922b" opacity="0.85"/>
<circle cx="678.0" cy="398.1" r="3.2" fill="#ff922b" opacity="0.85"/>
<circle cx="684.4" cy="398.2" r="3.2" fill="#ff922b" opacity="0.85"/>
<circle cx="690.8" cy="399.7" r="3.2" fill="#ff922b" opacity="0.85"/>
<circle cx="697.3" cy="397.4" r="3.2" fill="#ff922b" opacity="0.85"/>
<circle cx="703.7" cy="449.9" r="3.2" fill="#ff922b" opacity="0.85"/>
<circle cx="710.2" cy="414.9" r="3.2" fill="#ff922b" opacity="0.85"/>
<circle cx="716.6" cy="407.0" r="3.2" fill="#ff922b" opacity="0.85"/>
<circle cx="723.0" cy="366.5" r="3.2" fill="#ff922b" opacity="0.85"/>
<circle cx="729.5" cy="399.1" r="3.2" fill="#ff922b" opacity="0.85"/>
<circle cx="735.9" cy="403.6" r="3.2" fill="#ff922b" opacity="0.85"/>
<circle cx="742.4" cy="408.3" r="3.2" fill="#ff922b" opacity="0.85"/>
<circle cx="748.8" cy="401.9" r="3.2" fill="#ff922b" opacity="0.85"/>
<circle cx="755.2" cy="386.1" r="3.2" fill="#ff922b" opacity="0.85"/>
<circle cx="761.7" cy="387.7" r="3.2" fill="#ff922b" opacity="0.85"/>
<circle cx="768.1" cy="401.6" r="3.2" fill="#ff922b" opacity="0.85"/>
<circle cx="774.6" cy="303.3" r="3.2" fill="#ff922b" opacity="0.85"/>
<circle cx="781.0" cy="365.5" r="3.2" fill="#ff922b" opacity="0.85"/>
<circle cx="120.3" cy="399.5" r="2.6" fill="none" stroke="#d4a017" stroke-width="1.8" opacity="0.7999999999999999"/>
<circle cx="126.8" cy="401.6" r="2.6" fill="none" stroke="#d4a017" stroke-width="1.8" opacity="0.7999999999999999"/>
<circle cx="146.1" cy="399.6" r="2.6" fill="none" stroke="#d4a017" stroke-width="1.8" opacity="0.7999999999999999"/>
<circle cx="152.5" cy="390.0" r="2.6" fill="none" stroke="#d4a017" stroke-width="1.8" opacity="0.7999999999999999"/>
<circle cx="159.0" cy="383.3" r="2.6" fill="none" stroke="#d4a017" stroke-width="1.8" opacity="0.7999999999999999"/>
<circle cx="171.8" cy="394.8" r="2.6" fill="none" stroke="#d4a017" stroke-width="1.8" opacity="0.7999999999999999"/>
<circle cx="204.0" cy="394.1" r="2.6" fill="none" stroke="#d4a017" stroke-width="1.8" opacity="0.7999999999999999"/>
<circle cx="268.4" cy="403.1" r="2.6" fill="none" stroke="#d4a017" stroke-width="1.8" opacity="0.7999999999999999"/>
<circle cx="307.1" cy="401.0" r="2.6" fill="none" stroke="#d4a017" stroke-width="1.8" opacity="0.7999999999999999"/>
<circle cx="384.4" cy="394.2" r="2.6" fill="none" stroke="#d4a017" stroke-width="1.8" opacity="0.7999999999999999"/>
<circle cx="693.5" cy="400.4" r="2.6" fill="none" stroke="#d4a017" stroke-width="1.8" opacity="0.7999999999999999"/>
<circle cx="725.7" cy="365.4" r="2.6" fill="none" stroke="#d4a017" stroke-width="1.8" opacity="0.7999999999999999"/>
<circle cx="732.1" cy="399.3" r="2.6" fill="none" stroke="#d4a017" stroke-width="1.8" opacity="0.7999999999999999"/>
<circle cx="777.2" cy="402.2" r="2.6" fill="none" stroke="#d4a017" stroke-width="1.8" opacity="0.7999999999999999"/>
<circle cx="847" cy="84" r="5" fill="#ff922b"/>
<text x="866" y="88" font-size="13" fill="#c9d1d9" font-weight="700">Kāra</text>
<line x1="836" y1="108" x2="858" y2="108" stroke="#a7b0bc" stroke-width="2" stroke-dasharray="5 4"/>
<text x="866" y="112" font-size="13" fill="#c9d1d9" font-weight="400">Rust (default) = 1.0×</text>
<circle cx="847" cy="132" r="4" fill="#3fb950"/>
<text x="866" y="136" font-size="13" fill="#c9d1d9" font-weight="400">C</text>
<circle cx="847" cy="156" r="4" fill="#bc8cff"/>
<text x="866" y="160" font-size="13" fill="#c9d1d9" font-weight="400">Go</text>
<circle cx="847" cy="180" r="4" fill="none" stroke="#d4a017" stroke-width="1.8"/>
<text x="866" y="184" font-size="12" fill="#c9d1d9" font-weight="400">Rust (checked)</text>
<text x="70" y="502" font-size="11.5" fill="#c9d1d9">Solid Rust = 1.0× is the release default — it wraps silently on overflow. Hollow rings ◌ are Rust built overflow-checked,</text>
<text x="70" y="518" font-size="11.5" fill="#c9d1d9">the same safety kāra enforces by default: median 1.05× the cost of plain Rust across the 14 overflow-exercising programs. At that matched safety kāra is ≈ 1.04× — compare kāra to the rings.</text>
<text x="70" y="538" font-size="11.5" fill="#8b949e">Each dot is one benchmarked program (kata × approach); there is no connecting line because left-to-right order is not meaningful. Raw numbers: bench-results.json</text>
</svg>