<svg xmlns="http://www.w3.org/2000/svg" width="980" height="560" viewBox="0 0 980 560" font-family="-apple-system,Segoe UI,Helvetica,Arial,sans-serif">
<rect width="980" height="560" fill="#282c34"/>
<text x="70" y="34" font-size="21" font-weight="700" fill="#c9d1d9">Runtime — sequential lane</text>
<text x="70" y="56" font-size="13" fill="#8b949e">relative to Rust (default) = 1.0 · lower = faster · 94 programs</text>
<line x1="70" y1="456.0" x2="812" y2="456.0" stroke="#3b414b" stroke-width="1"/>
<text x="60" y="460.0" font-size="12" text-anchor="end" fill="#8b949e">0.0×</text>
<line x1="70" y1="402.0" x2="812" y2="402.0" stroke="#a7b0bc" stroke-width="2" stroke-dasharray="5 4"/>
<text x="60" y="406.0" font-size="12" text-anchor="end" fill="#aeb6c0" font-weight="700">1.0×</text>
<line x1="70" y1="380.4" x2="812" y2="380.4" stroke="#3b414b" stroke-width="1"/>
<text x="60" y="384.4" font-size="12" text-anchor="end" fill="#8b949e">1.4×</text>
<line x1="70" y1="304.8" x2="812" y2="304.8" stroke="#3b414b" stroke-width="1"/>
<text x="60" y="308.8" font-size="12" text-anchor="end" fill="#8b949e">2.8×</text>
<line x1="70" y1="229.2" x2="812" y2="229.2" stroke="#3b414b" stroke-width="1"/>
<text x="60" y="233.2" font-size="12" text-anchor="end" fill="#8b949e">4.2×</text>
<line x1="70" y1="153.6" x2="812" y2="153.6" stroke="#3b414b" stroke-width="1"/>
<text x="60" y="157.6" font-size="12" text-anchor="end" fill="#8b949e">5.6×</text>
<line x1="70" y1="78.0" x2="812" y2="78.0" stroke="#3b414b" stroke-width="1"/>
<text x="60" y="82.0" font-size="12" text-anchor="end" fill="#8b949e">7.0×</text>
<text x="812" y="396.0" font-size="11" text-anchor="end" fill="#aeb6c0">Rust (default) baseline</text>
<line x1="70" y1="456" x2="812" y2="456" stroke="#3b414b"/>
<text x="441.0" y="478" font-size="11" text-anchor="middle" fill="#8b949e">94 programs (kata × approach) — x-order carries no meaning</text>
<circle cx="99.2" cy="402.1" r="2.6" fill="#3fb950" opacity="0.7"/>
<circle cx="106.5" cy="421.6" r="2.6" fill="#3fb950" opacity="0.7"/>
<circle cx="113.9" cy="425.2" r="2.6" fill="#3fb950" opacity="0.7"/>
<circle cx="121.2" cy="442.8" r="2.6" fill="#3fb950" opacity="0.7"/>
<circle cx="128.5" cy="413.8" r="2.6" fill="#3fb950" opacity="0.7"/>
<circle cx="135.9" cy="411.4" r="2.6" fill="#3fb950" opacity="0.7"/>
<circle cx="143.2" cy="402.3" r="2.6" fill="#3fb950" opacity="0.7"/>
<circle cx="150.6" cy="399.7" r="2.6" fill="#3fb950" opacity="0.7"/>
<circle cx="157.9" cy="397.0" r="2.6" fill="#3fb950" opacity="0.7"/>
<circle cx="165.2" cy="395.5" r="2.6" fill="#3fb950" opacity="0.7"/>
<circle cx="172.6" cy="402.1" r="2.6" fill="#3fb950" opacity="0.7"/>
<circle cx="179.9" cy="409.1" r="2.6" fill="#3fb950" opacity="0.7"/>
<circle cx="187.3" cy="395.6" r="2.6" fill="#3fb950" opacity="0.7"/>
<circle cx="194.6" cy="399.0" r="2.6" fill="#3fb950" opacity="0.7"/>
<circle cx="201.9" cy="413.4" r="2.6" fill="#3fb950" opacity="0.7"/>
<circle cx="209.3" cy="397.3" r="2.6" fill="#3fb950" opacity="0.7"/>
<circle cx="216.6" cy="357.8" r="2.6" fill="#3fb950" opacity="0.7"/>
<circle cx="224.0" cy="415.1" r="2.6" fill="#3fb950" opacity="0.7"/>
<circle cx="231.3" cy="403.5" r="2.6" fill="#3fb950" opacity="0.7"/>
<circle cx="238.6" cy="423.2" r="2.6" fill="#3fb950" opacity="0.7"/>
<circle cx="246.0" cy="406.5" r="2.6" fill="#3fb950" opacity="0.7"/>
<circle cx="253.3" cy="419.9" r="2.6" fill="#3fb950" opacity="0.7"/>
<circle cx="260.7" cy="439.8" r="2.6" fill="#3fb950" opacity="0.7"/>
<circle cx="268.0" cy="424.6" r="2.6" fill="#3fb950" opacity="0.7"/>
<circle cx="275.3" cy="418.3" r="2.6" fill="#3fb950" opacity="0.7"/>
<circle cx="282.7" cy="420.5" r="2.6" fill="#3fb950" opacity="0.7"/>
<circle cx="290.0" cy="400.5" r="2.6" fill="#3fb950" opacity="0.7"/>
<circle cx="297.4" cy="400.0" r="2.6" fill="#3fb950" opacity="0.7"/>
<circle cx="304.7" cy="402.1" r="2.6" fill="#3fb950" opacity="0.7"/>
<circle cx="312.0" cy="414.5" r="2.6" fill="#3fb950" opacity="0.7"/>
<circle cx="319.4" cy="401.5" r="2.6" fill="#3fb950" opacity="0.7"/>
<circle cx="326.7" cy="435.9" r="2.6" fill="#3fb950" opacity="0.7"/>
<circle cx="334.1" cy="402.2" r="2.6" fill="#3fb950" opacity="0.7"/>
<circle cx="341.4" cy="421.6" r="2.6" fill="#3fb950" opacity="0.7"/>
<circle cx="348.7" cy="415.8" r="2.6" fill="#3fb950" opacity="0.7"/>
<circle cx="356.1" cy="417.3" r="2.6" fill="#3fb950" opacity="0.7"/>
<circle cx="363.4" cy="417.7" r="2.6" fill="#3fb950" opacity="0.7"/>
<circle cx="370.8" cy="402.4" r="2.6" fill="#3fb950" opacity="0.7"/>
<circle cx="378.1" cy="382.1" r="2.6" fill="#3fb950" opacity="0.7"/>
<circle cx="385.4" cy="413.8" r="2.6" fill="#3fb950" opacity="0.7"/>
<circle cx="392.8" cy="398.2" r="2.6" fill="#3fb950" opacity="0.7"/>
<circle cx="400.1" cy="401.5" r="2.6" fill="#3fb950" opacity="0.7"/>
<circle cx="407.5" cy="404.4" r="2.6" fill="#3fb950" opacity="0.7"/>
<circle cx="414.8" cy="403.9" r="2.6" fill="#3fb950" opacity="0.7"/>
<circle cx="422.2" cy="431.2" r="2.6" fill="#3fb950" opacity="0.7"/>
<circle cx="429.5" cy="404.3" r="2.6" fill="#3fb950" opacity="0.7"/>
<circle cx="436.8" cy="400.0" r="2.6" fill="#3fb950" opacity="0.7"/>
<circle cx="444.2" cy="398.4" r="2.6" fill="#3fb950" opacity="0.7"/>
<circle cx="451.5" cy="403.7" r="2.6" fill="#3fb950" opacity="0.7"/>
<circle cx="458.9" cy="404.7" r="2.6" fill="#3fb950" opacity="0.7"/>
<circle cx="466.2" cy="435.3" r="2.6" fill="#3fb950" opacity="0.7"/>
<circle cx="473.5" cy="424.2" r="2.6" fill="#3fb950" opacity="0.7"/>
<circle cx="480.9" cy="386.9" r="2.6" fill="#3fb950" opacity="0.7"/>
<circle cx="488.2" cy="402.3" r="2.6" fill="#3fb950" opacity="0.7"/>
<circle cx="495.6" cy="402.1" r="2.6" fill="#3fb950" opacity="0.7"/>
<circle cx="502.9" cy="408.1" r="2.6" fill="#3fb950" opacity="0.7"/>
<circle cx="510.2" cy="400.9" r="2.6" fill="#3fb950" opacity="0.7"/>
<circle cx="517.6" cy="369.7" r="2.6" fill="#3fb950" opacity="0.7"/>
<circle cx="524.9" cy="441.3" r="2.6" fill="#3fb950" opacity="0.7"/>
<circle cx="532.3" cy="409.4" r="2.6" fill="#3fb950" opacity="0.7"/>
<circle cx="539.6" cy="438.7" r="2.6" fill="#3fb950" opacity="0.7"/>
<circle cx="546.9" cy="401.9" r="2.6" fill="#3fb950" opacity="0.7"/>
<circle cx="554.3" cy="424.3" r="2.6" fill="#3fb950" opacity="0.7"/>
<circle cx="561.6" cy="401.6" r="2.6" fill="#3fb950" opacity="0.7"/>
<circle cx="569.0" cy="401.9" r="2.6" fill="#3fb950" opacity="0.7"/>
<circle cx="576.3" cy="402.1" r="2.6" fill="#3fb950" opacity="0.7"/>
<circle cx="583.6" cy="393.0" r="2.6" fill="#3fb950" opacity="0.7"/>
<circle cx="591.0" cy="405.6" r="2.6" fill="#3fb950" opacity="0.7"/>
<circle cx="598.3" cy="401.9" r="2.6" fill="#3fb950" opacity="0.7"/>
<circle cx="605.7" cy="412.7" r="2.6" fill="#3fb950" opacity="0.7"/>
<circle cx="613.0" cy="401.6" r="2.6" fill="#3fb950" opacity="0.7"/>
<circle cx="620.3" cy="450.6" r="2.6" fill="#3fb950" opacity="0.7"/>
<circle cx="627.7" cy="372.4" r="2.6" fill="#3fb950" opacity="0.7"/>
<circle cx="635.0" cy="391.1" r="2.6" fill="#3fb950" opacity="0.7"/>
<circle cx="642.4" cy="401.7" r="2.6" fill="#3fb950" opacity="0.7"/>
<circle cx="649.7" cy="407.8" r="2.6" fill="#3fb950" opacity="0.7"/>
<circle cx="657.0" cy="419.1" r="2.6" fill="#3fb950" opacity="0.7"/>
<circle cx="664.4" cy="395.0" r="2.6" fill="#3fb950" opacity="0.7"/>
<circle cx="671.7" cy="403.0" r="2.6" fill="#3fb950" opacity="0.7"/>
<circle cx="679.1" cy="404.2" r="2.6" fill="#3fb950" opacity="0.7"/>
<circle cx="686.4" cy="425.5" r="2.6" fill="#3fb950" opacity="0.7"/>
<circle cx="693.7" cy="445.3" r="2.6" fill="#3fb950" opacity="0.7"/>
<circle cx="701.1" cy="415.3" r="2.6" fill="#3fb950" opacity="0.7"/>
<circle cx="708.4" cy="410.4" r="2.6" fill="#3fb950" opacity="0.7"/>
<circle cx="715.8" cy="404.0" r="2.6" fill="#3fb950" opacity="0.7"/>
<circle cx="723.1" cy="402.7" r="2.6" fill="#3fb950" opacity="0.7"/>
<circle cx="730.4" cy="412.4" r="2.6" fill="#3fb950" opacity="0.7"/>
<circle cx="737.8" cy="407.1" r="2.6" fill="#3fb950" opacity="0.7"/>
<circle cx="745.1" cy="411.4" r="2.6" fill="#3fb950" opacity="0.7"/>
<circle cx="752.5" cy="452.2" r="2.6" fill="#3fb950" opacity="0.7"/>
<circle cx="759.8" cy="447.1" r="2.6" fill="#3fb950" opacity="0.7"/>
<circle cx="767.1" cy="406.6" r="2.6" fill="#3fb950" opacity="0.7"/>
<circle cx="774.5" cy="391.2" r="2.6" fill="#3fb950" opacity="0.7"/>
<circle cx="781.8" cy="416.2" r="2.6" fill="#3fb950" opacity="0.7"/>
<circle cx="100.2" cy="401.6" r="2.6" fill="#bc8cff" opacity="0.7"/>
<circle cx="107.5" cy="392.0" r="2.6" fill="#bc8cff" opacity="0.7"/>
<circle cx="114.9" cy="428.8" r="2.6" fill="#bc8cff" opacity="0.7"/>
<circle cx="122.2" cy="392.5" r="2.6" fill="#bc8cff" opacity="0.7"/>
<circle cx="129.5" cy="358.8" r="2.6" fill="#bc8cff" opacity="0.7"/>
<circle cx="136.9" cy="391.4" r="2.6" fill="#bc8cff" opacity="0.7"/>
<circle cx="144.2" cy="315.8" r="2.6" fill="#bc8cff" opacity="0.7"/>
<circle cx="151.6" cy="393.4" r="2.6" fill="#bc8cff" opacity="0.7"/>
<circle cx="158.9" cy="385.2" r="2.6" fill="#bc8cff" opacity="0.7"/>
<circle cx="166.2" cy="362.9" r="2.6" fill="#bc8cff" opacity="0.7"/>
<circle cx="173.6" cy="372.1" r="2.6" fill="#bc8cff" opacity="0.7"/>
<circle cx="180.9" cy="423.7" r="2.6" fill="#bc8cff" opacity="0.7"/>
<circle cx="188.3" cy="401.0" r="2.6" fill="#bc8cff" opacity="0.7"/>
<circle cx="195.6" cy="400.3" r="2.6" fill="#bc8cff" opacity="0.7"/>
<circle cx="202.9" cy="412.8" r="2.6" fill="#bc8cff" opacity="0.7"/>
<circle cx="210.3" cy="373.1" r="2.6" fill="#bc8cff" opacity="0.7"/>
<circle cx="217.6" cy="302.1" r="2.6" fill="#bc8cff" opacity="0.7"/>
<circle cx="225.0" cy="419.5" r="2.6" fill="#bc8cff" opacity="0.7"/>
<circle cx="232.3" cy="385.6" r="2.6" fill="#bc8cff" opacity="0.7"/>
<circle cx="239.6" cy="428.9" r="2.6" fill="#bc8cff" opacity="0.7"/>
<circle cx="247.0" cy="395.8" r="2.6" fill="#bc8cff" opacity="0.7"/>
<circle cx="254.3" cy="422.8" r="2.6" fill="#bc8cff" opacity="0.7"/>
<circle cx="261.7" cy="437.9" r="2.6" fill="#bc8cff" opacity="0.7"/>
<circle cx="269.0" cy="429.5" r="2.6" fill="#bc8cff" opacity="0.7"/>
<circle cx="276.3" cy="423.4" r="2.6" fill="#bc8cff" opacity="0.7"/>
<circle cx="283.7" cy="424.6" r="2.6" fill="#bc8cff" opacity="0.7"/>
<circle cx="291.0" cy="394.3" r="2.6" fill="#bc8cff" opacity="0.7"/>
<circle cx="298.4" cy="388.7" r="2.6" fill="#bc8cff" opacity="0.7"/>
<circle cx="305.7" cy="276.0" r="2.6" fill="#bc8cff" opacity="0.7"/>
<circle cx="313.0" cy="378.6" r="2.6" fill="#bc8cff" opacity="0.7"/>
<circle cx="320.4" cy="393.5" r="2.6" fill="#bc8cff" opacity="0.7"/>
<circle cx="327.7" cy="319.9" r="2.6" fill="#bc8cff" opacity="0.7"/>
<circle cx="335.1" cy="396.2" r="2.6" fill="#bc8cff" opacity="0.7"/>
<circle cx="342.4" cy="340.6" r="2.6" fill="#bc8cff" opacity="0.7"/>
<circle cx="349.7" cy="400.8" r="2.6" fill="#bc8cff" opacity="0.7"/>
<circle cx="357.1" cy="416.0" r="2.6" fill="#bc8cff" opacity="0.7"/>
<circle cx="364.4" cy="359.7" r="2.6" fill="#bc8cff" opacity="0.7"/>
<circle cx="371.8" cy="340.0" r="2.6" fill="#bc8cff" opacity="0.7"/>
<circle cx="379.1" cy="371.7" r="2.6" fill="#bc8cff" opacity="0.7"/>
<circle cx="386.4" cy="424.3" r="2.6" fill="#bc8cff" opacity="0.7"/>
<circle cx="393.8" cy="391.5" r="2.6" fill="#bc8cff" opacity="0.7"/>
<circle cx="401.1" cy="394.2" r="2.6" fill="#bc8cff" opacity="0.7"/>
<circle cx="408.5" cy="396.9" r="2.6" fill="#bc8cff" opacity="0.7"/>
<circle cx="415.8" cy="438.7" r="2.6" fill="#bc8cff" opacity="0.7"/>
<circle cx="423.1" cy="393.1" r="2.6" fill="#bc8cff" opacity="0.7"/>
<circle cx="430.5" cy="399.1" r="2.6" fill="#bc8cff" opacity="0.7"/>
<circle cx="437.8" cy="401.0" r="2.6" fill="#bc8cff" opacity="0.7"/>
<circle cx="445.2" cy="382.5" r="2.6" fill="#bc8cff" opacity="0.7"/>
<circle cx="452.5" cy="392.8" r="2.6" fill="#bc8cff" opacity="0.7"/>
<circle cx="459.8" cy="395.2" r="2.6" fill="#bc8cff" opacity="0.7"/>
<circle cx="467.2" cy="314.2" r="2.6" fill="#bc8cff" opacity="0.7"/>
<circle cx="474.5" cy="418.1" r="2.6" fill="#bc8cff" opacity="0.7"/>
<circle cx="481.9" cy="330.6" r="2.6" fill="#bc8cff" opacity="0.7"/>
<circle cx="489.2" cy="334.6" r="2.6" fill="#bc8cff" opacity="0.7"/>
<circle cx="496.6" cy="340.9" r="2.6" fill="#bc8cff" opacity="0.7"/>
<circle cx="503.9" cy="355.5" r="2.6" fill="#bc8cff" opacity="0.7"/>
<circle cx="511.2" cy="415.5" r="2.6" fill="#bc8cff" opacity="0.7"/>
<circle cx="518.6" cy="88.9" r="2.6" fill="#bc8cff" opacity="0.7"/>
<circle cx="525.9" cy="429.1" r="2.6" fill="#bc8cff" opacity="0.7"/>
<circle cx="533.3" cy="381.4" r="2.6" fill="#bc8cff" opacity="0.7"/>
<circle cx="540.6" cy="438.7" r="2.6" fill="#bc8cff" opacity="0.7"/>
<circle cx="547.9" cy="377.1" r="2.6" fill="#bc8cff" opacity="0.7"/>
<circle cx="555.3" cy="432.6" r="2.6" fill="#bc8cff" opacity="0.7"/>
<circle cx="562.6" cy="339.0" r="2.6" fill="#bc8cff" opacity="0.7"/>
<circle cx="570.0" cy="361.5" r="2.6" fill="#bc8cff" opacity="0.7"/>
<circle cx="577.3" cy="405.7" r="2.6" fill="#bc8cff" opacity="0.7"/>
<circle cx="584.6" cy="389.7" r="2.6" fill="#bc8cff" opacity="0.7"/>
<circle cx="592.0" cy="405.6" r="2.6" fill="#bc8cff" opacity="0.7"/>
<circle cx="599.3" cy="400.0" r="2.6" fill="#bc8cff" opacity="0.7"/>
<circle cx="606.7" cy="398.8" r="2.6" fill="#bc8cff" opacity="0.7"/>
<circle cx="614.0" cy="396.6" r="2.6" fill="#bc8cff" opacity="0.7"/>
<circle cx="621.3" cy="433.3" r="2.6" fill="#bc8cff" opacity="0.7"/>
<circle cx="628.7" cy="416.4" r="2.6" fill="#bc8cff" opacity="0.7"/>
<circle cx="636.0" cy="409.0" r="2.6" fill="#bc8cff" opacity="0.7"/>
<circle cx="643.4" cy="408.0" r="2.6" fill="#bc8cff" opacity="0.7"/>
<circle cx="650.7" cy="371.1" r="2.6" fill="#bc8cff" opacity="0.7"/>
<circle cx="658.0" cy="388.8" r="2.6" fill="#bc8cff" opacity="0.7"/>
<circle cx="665.4" cy="386.6" r="2.6" fill="#bc8cff" opacity="0.7"/>
<circle cx="672.7" cy="416.4" r="2.6" fill="#bc8cff" opacity="0.7"/>
<circle cx="680.1" cy="397.7" r="2.6" fill="#bc8cff" opacity="0.7"/>
<circle cx="687.4" cy="408.7" r="2.6" fill="#bc8cff" opacity="0.7"/>
<circle cx="694.7" cy="399.4" r="2.6" fill="#bc8cff" opacity="0.7"/>
<circle cx="702.1" cy="419.2" r="2.6" fill="#bc8cff" opacity="0.7"/>
<circle cx="709.4" cy="362.8" r="2.6" fill="#bc8cff" opacity="0.7"/>
<circle cx="716.8" cy="396.9" r="2.6" fill="#bc8cff" opacity="0.7"/>
<circle cx="724.1" cy="408.9" r="2.6" fill="#bc8cff" opacity="0.7"/>
<circle cx="731.4" cy="400.6" r="2.6" fill="#bc8cff" opacity="0.7"/>
<circle cx="738.8" cy="404.0" r="2.6" fill="#bc8cff" opacity="0.7"/>
<circle cx="746.1" cy="418.5" r="2.6" fill="#bc8cff" opacity="0.7"/>
<circle cx="753.5" cy="444.8" r="2.6" fill="#bc8cff" opacity="0.7"/>
<circle cx="760.8" cy="419.4" r="2.6" fill="#bc8cff" opacity="0.7"/>
<circle cx="768.1" cy="409.4" r="2.6" fill="#bc8cff" opacity="0.7"/>
<circle cx="775.5" cy="258.5" r="2.6" fill="#bc8cff" opacity="0.7"/>
<circle cx="782.8" cy="362.5" r="2.6" fill="#bc8cff" opacity="0.7"/>
<circle cx="98.2" cy="394.1" r="3.2" fill="#ff922b" opacity="0.85"/>
<circle cx="105.5" cy="414.9" r="3.2" fill="#ff922b" opacity="0.85"/>
<circle cx="112.9" cy="426.6" r="3.2" fill="#ff922b" opacity="0.85"/>
<circle cx="120.2" cy="431.8" r="3.2" fill="#ff922b" opacity="0.85"/>
<circle cx="127.5" cy="398.4" r="3.2" fill="#ff922b" opacity="0.85"/>
<circle cx="134.9" cy="381.7" r="3.2" fill="#ff922b" opacity="0.85"/>
<circle cx="142.2" cy="399.1" r="3.2" fill="#ff922b" opacity="0.85"/>
<circle cx="149.6" cy="391.9" r="3.2" fill="#ff922b" opacity="0.85"/>
<circle cx="156.9" cy="380.1" r="3.2" fill="#ff922b" opacity="0.85"/>
<circle cx="164.2" cy="377.3" r="3.2" fill="#ff922b" opacity="0.85"/>
<circle cx="171.6" cy="396.9" r="3.2" fill="#ff922b" opacity="0.85"/>
<circle cx="178.9" cy="394.4" r="3.2" fill="#ff922b" opacity="0.85"/>
<circle cx="186.3" cy="404.1" r="3.2" fill="#ff922b" opacity="0.85"/>
<circle cx="193.6" cy="404.0" r="3.2" fill="#ff922b" opacity="0.85"/>
<circle cx="200.9" cy="395.7" r="3.2" fill="#ff922b" opacity="0.85"/>
<circle cx="208.3" cy="401.0" r="3.2" fill="#ff922b" opacity="0.85"/>
<circle cx="215.6" cy="395.5" r="3.2" fill="#ff922b" opacity="0.85"/>
<circle cx="223.0" cy="391.0" r="3.2" fill="#ff922b" opacity="0.85"/>
<circle cx="230.3" cy="399.4" r="3.2" fill="#ff922b" opacity="0.85"/>
<circle cx="237.6" cy="414.3" r="3.2" fill="#ff922b" opacity="0.85"/>
<circle cx="245.0" cy="410.0" r="3.2" fill="#ff922b" opacity="0.85"/>
<circle cx="252.3" cy="405.1" r="3.2" fill="#ff922b" opacity="0.85"/>
<circle cx="259.7" cy="437.8" r="3.2" fill="#ff922b" opacity="0.85"/>
<circle cx="267.0" cy="409.2" r="3.2" fill="#ff922b" opacity="0.85"/>
<circle cx="274.3" cy="409.6" r="3.2" fill="#ff922b" opacity="0.85"/>
<circle cx="281.7" cy="405.6" r="3.2" fill="#ff922b" opacity="0.85"/>
<circle cx="289.0" cy="396.3" r="3.2" fill="#ff922b" opacity="0.85"/>
<circle cx="296.4" cy="398.6" r="3.2" fill="#ff922b" opacity="0.85"/>
<circle cx="303.7" cy="402.5" r="3.2" fill="#ff922b" opacity="0.85"/>
<circle cx="311.1" cy="402.1" r="3.2" fill="#ff922b" opacity="0.85"/>
<circle cx="318.4" cy="400.7" r="3.2" fill="#ff922b" opacity="0.85"/>
<circle cx="325.7" cy="363.0" r="3.2" fill="#ff922b" opacity="0.85"/>
<circle cx="333.1" cy="401.0" r="3.2" fill="#ff922b" opacity="0.85"/>
<circle cx="340.4" cy="400.3" r="3.2" fill="#ff922b" opacity="0.85"/>
<circle cx="347.8" cy="397.1" r="3.2" fill="#ff922b" opacity="0.85"/>
<circle cx="355.1" cy="396.1" r="3.2" fill="#ff922b" opacity="0.85"/>
<circle cx="362.4" cy="395.6" r="3.2" fill="#ff922b" opacity="0.85"/>
<circle cx="369.8" cy="426.2" r="3.2" fill="#ff922b" opacity="0.85"/>
<circle cx="377.1" cy="403.8" r="3.2" fill="#ff922b" opacity="0.85"/>
<circle cx="384.5" cy="389.3" r="3.2" fill="#ff922b" opacity="0.85"/>
<circle cx="391.8" cy="377.0" r="3.2" fill="#ff922b" opacity="0.85"/>
<circle cx="399.1" cy="379.7" r="3.2" fill="#ff922b" opacity="0.85"/>
<circle cx="406.5" cy="404.6" r="3.2" fill="#ff922b" opacity="0.85"/>
<circle cx="413.8" cy="437.7" r="3.2" fill="#ff922b" opacity="0.85"/>
<circle cx="421.2" cy="382.6" r="3.2" fill="#ff922b" opacity="0.85"/>
<circle cx="428.5" cy="394.7" r="3.2" fill="#ff922b" opacity="0.85"/>
<circle cx="435.8" cy="399.6" r="3.2" fill="#ff922b" opacity="0.85"/>
<circle cx="443.2" cy="385.6" r="3.2" fill="#ff922b" opacity="0.85"/>
<circle cx="450.5" cy="402.9" r="3.2" fill="#ff922b" opacity="0.85"/>
<circle cx="457.9" cy="396.3" r="3.2" fill="#ff922b" opacity="0.85"/>
<circle cx="465.2" cy="366.6" r="3.2" fill="#ff922b" opacity="0.85"/>
<circle cx="472.5" cy="403.7" r="3.2" fill="#ff922b" opacity="0.85"/>
<circle cx="479.9" cy="350.9" r="3.2" fill="#ff922b" opacity="0.85"/>
<circle cx="487.2" cy="344.5" r="3.2" fill="#ff922b" opacity="0.85"/>
<circle cx="494.6" cy="402.3" r="3.2" fill="#ff922b" opacity="0.85"/>
<circle cx="501.9" cy="391.9" r="3.2" fill="#ff922b" opacity="0.85"/>
<circle cx="509.2" cy="401.2" r="3.2" fill="#ff922b" opacity="0.85"/>
<circle cx="516.6" cy="397.4" r="3.2" fill="#ff922b" opacity="0.85"/>
<circle cx="523.9" cy="405.2" r="3.2" fill="#ff922b" opacity="0.85"/>
<circle cx="531.3" cy="377.3" r="3.2" fill="#ff922b" opacity="0.85"/>
<circle cx="538.6" cy="433.2" r="3.2" fill="#ff922b" opacity="0.85"/>
<circle cx="545.9" cy="400.3" r="3.2" fill="#ff922b" opacity="0.85"/>
<circle cx="553.3" cy="416.3" r="3.2" fill="#ff922b" opacity="0.85"/>
<circle cx="560.6" cy="401.1" r="3.2" fill="#ff922b" opacity="0.85"/>
<circle cx="568.0" cy="396.3" r="3.2" fill="#ff922b" opacity="0.85"/>
<circle cx="575.3" cy="408.2" r="3.2" fill="#ff922b" opacity="0.85"/>
<circle cx="582.6" cy="400.8" r="3.2" fill="#ff922b" opacity="0.85"/>
<circle cx="590.0" cy="405.5" r="3.2" fill="#ff922b" opacity="0.85"/>
<circle cx="597.3" cy="401.5" r="3.2" fill="#ff922b" opacity="0.85"/>
<circle cx="604.7" cy="380.1" r="3.2" fill="#ff922b" opacity="0.85"/>
<circle cx="612.0" cy="413.0" r="3.2" fill="#ff922b" opacity="0.85"/>
<circle cx="619.3" cy="397.9" r="3.2" fill="#ff922b" opacity="0.85"/>
<circle cx="626.7" cy="412.9" r="3.2" fill="#ff922b" opacity="0.85"/>
<circle cx="634.0" cy="427.1" r="3.2" fill="#ff922b" opacity="0.85"/>
<circle cx="641.4" cy="405.3" r="3.2" fill="#ff922b" opacity="0.85"/>
<circle cx="648.7" cy="407.7" r="3.2" fill="#ff922b" opacity="0.85"/>
<circle cx="656.0" cy="411.0" r="3.2" fill="#ff922b" opacity="0.85"/>
<circle cx="663.4" cy="398.1" r="3.2" fill="#ff922b" opacity="0.85"/>
<circle cx="670.7" cy="398.2" r="3.2" fill="#ff922b" opacity="0.85"/>
<circle cx="678.1" cy="399.7" r="3.2" fill="#ff922b" opacity="0.85"/>
<circle cx="685.4" cy="397.4" r="3.2" fill="#ff922b" opacity="0.85"/>
<circle cx="692.7" cy="449.9" r="3.2" fill="#ff922b" opacity="0.85"/>
<circle cx="700.1" cy="414.9" r="3.2" fill="#ff922b" opacity="0.85"/>
<circle cx="707.4" cy="407.0" r="3.2" fill="#ff922b" opacity="0.85"/>
<circle cx="714.8" cy="366.5" r="3.2" fill="#ff922b" opacity="0.85"/>
<circle cx="722.1" cy="399.1" r="3.2" fill="#ff922b" opacity="0.85"/>
<circle cx="729.4" cy="403.6" r="3.2" fill="#ff922b" opacity="0.85"/>
<circle cx="736.8" cy="408.3" r="3.2" fill="#ff922b" opacity="0.85"/>
<circle cx="744.1" cy="401.9" r="3.2" fill="#ff922b" opacity="0.85"/>
<circle cx="751.5" cy="386.1" r="3.2" fill="#ff922b" opacity="0.85"/>
<circle cx="758.8" cy="387.7" r="3.2" fill="#ff922b" opacity="0.85"/>
<circle cx="766.1" cy="401.6" r="3.2" fill="#ff922b" opacity="0.85"/>
<circle cx="773.5" cy="303.3" r="3.2" fill="#ff922b" opacity="0.85"/>
<circle cx="780.8" cy="365.5" r="3.2" fill="#ff922b" opacity="0.85"/>
<circle cx="123.2" cy="399.5" r="2.6" fill="none" stroke="#d4a017" stroke-width="1.8" opacity="0.7999999999999999"/>
<circle cx="130.5" cy="401.6" r="2.6" fill="none" stroke="#d4a017" stroke-width="1.8" opacity="0.7999999999999999"/>
<circle cx="152.6" cy="399.6" r="2.6" fill="none" stroke="#d4a017" stroke-width="1.8" opacity="0.7999999999999999"/>
<circle cx="159.9" cy="390.0" r="2.6" fill="none" stroke="#d4a017" stroke-width="1.8" opacity="0.7999999999999999"/>
<circle cx="167.2" cy="383.3" r="2.6" fill="none" stroke="#d4a017" stroke-width="1.8" opacity="0.7999999999999999"/>
<circle cx="181.9" cy="394.8" r="2.6" fill="none" stroke="#d4a017" stroke-width="1.8" opacity="0.7999999999999999"/>
<circle cx="218.6" cy="394.1" r="2.6" fill="none" stroke="#d4a017" stroke-width="1.8" opacity="0.7999999999999999"/>
<circle cx="292.0" cy="403.1" r="2.6" fill="none" stroke="#d4a017" stroke-width="1.8" opacity="0.7999999999999999"/>
<circle cx="336.1" cy="401.0" r="2.6" fill="none" stroke="#d4a017" stroke-width="1.8" opacity="0.7999999999999999"/>
<circle cx="424.1" cy="394.2" r="2.6" fill="none" stroke="#d4a017" stroke-width="1.8" opacity="0.7999999999999999"/>
<circle cx="681.1" cy="400.4" r="2.6" fill="none" stroke="#d4a017" stroke-width="1.8" opacity="0.7999999999999999"/>
<circle cx="717.8" cy="365.4" r="2.6" fill="none" stroke="#d4a017" stroke-width="1.8" opacity="0.7999999999999999"/>
<circle cx="725.1" cy="399.3" r="2.6" fill="none" stroke="#d4a017" stroke-width="1.8" opacity="0.7999999999999999"/>
<circle cx="776.5" cy="402.2" r="2.6" fill="none" stroke="#d4a017" stroke-width="1.8" opacity="0.7999999999999999"/>
<circle cx="847" cy="84" r="5" fill="#ff922b"/>
<text x="866" y="88" font-size="13" fill="#c9d1d9" font-weight="700">Kāra</text>
<line x1="836" y1="108" x2="858" y2="108" stroke="#a7b0bc" stroke-width="2" stroke-dasharray="5 4"/>
<text x="866" y="112" font-size="13" fill="#c9d1d9" font-weight="400">Rust (default) = 1.0×</text>
<circle cx="847" cy="132" r="4" fill="#3fb950"/>
<text x="866" y="136" font-size="13" fill="#c9d1d9" font-weight="400">C</text>
<circle cx="847" cy="156" r="4" fill="#bc8cff"/>
<text x="866" y="160" font-size="13" fill="#c9d1d9" font-weight="400">Go</text>
<circle cx="847" cy="180" r="4" fill="none" stroke="#d4a017" stroke-width="1.8"/>
<text x="866" y="184" font-size="12" fill="#c9d1d9" font-weight="400">Rust (checked)</text>
<text x="70" y="502" font-size="11.5" fill="#c9d1d9">Solid Rust = 1.0× is the release default — it wraps silently on overflow. Hollow rings ◌ are Rust built overflow-checked,</text>
<text x="70" y="518" font-size="11.5" fill="#c9d1d9">the same safety kāra enforces by default: median 1.05× the cost of plain Rust across the 14 overflow-exercising programs. At that matched safety kāra is ≈ 1.04× — compare kāra to the rings.</text>
<text x="70" y="538" font-size="11.5" fill="#8b949e">Each dot is one benchmarked program (kata × approach); there is no connecting line because left-to-right order is not meaningful. Raw numbers: bench-results.json</text>
</svg>