<svg xmlns="http://www.w3.org/2000/svg" width="980" height="560" viewBox="0 0 980 560" font-family="-apple-system,Segoe UI,Helvetica,Arial,sans-serif">
<rect width="980" height="560" fill="#282c34"/>
<text x="70" y="34" font-size="21" font-weight="700" fill="#c9d1d9">Runtime — sequential lane</text>
<text x="70" y="56" font-size="13" fill="#8b949e">relative to Rust = 1.0 · lower = faster · 35 programs</text>
<line x1="70" y1="456.0" x2="812" y2="456.0" stroke="#3b414b" stroke-width="1"/>
<text x="60" y="460.0" font-size="12" text-anchor="end" fill="#8b949e">0.0×</text>
<line x1="70" y1="380.4" x2="812" y2="380.4" stroke="#3b414b" stroke-width="1"/>
<text x="60" y="384.4" font-size="12" text-anchor="end" fill="#8b949e">1.6×</text>
<line x1="70" y1="304.8" x2="812" y2="304.8" stroke="#3b414b" stroke-width="1"/>
<text x="60" y="308.8" font-size="12" text-anchor="end" fill="#8b949e">3.2×</text>
<line x1="70" y1="229.2" x2="812" y2="229.2" stroke="#3b414b" stroke-width="1"/>
<text x="60" y="233.2" font-size="12" text-anchor="end" fill="#8b949e">4.8×</text>
<line x1="70" y1="153.6" x2="812" y2="153.6" stroke="#3b414b" stroke-width="1"/>
<text x="60" y="157.6" font-size="12" text-anchor="end" fill="#8b949e">6.4×</text>
<line x1="70" y1="78.0" x2="812" y2="78.0" stroke="#3b414b" stroke-width="1"/>
<text x="60" y="82.0" font-size="12" text-anchor="end" fill="#8b949e">8.0×</text>
<text x="812" y="402.8" font-size="11" text-anchor="end" fill="#aeb6c0">Rust baseline</text>
<line x1="70" y1="456" x2="812" y2="456" stroke="#3b414b"/>
<text x="441.0" y="478" font-size="11" text-anchor="middle" fill="#8b949e">35 programs (kata × approach) — x-order carries no meaning</text>
<circle cx="99.7" cy="412.1" r="2.6" fill="#3fb950" opacity="0.7"/>
<circle cx="119.8" cy="428.3" r="2.6" fill="#3fb950" opacity="0.7"/>
<circle cx="139.8" cy="432.1" r="2.6" fill="#3fb950" opacity="0.7"/>
<circle cx="159.9" cy="445.3" r="2.6" fill="#3fb950" opacity="0.7"/>
<circle cx="180.0" cy="418.4" r="2.6" fill="#3fb950" opacity="0.7"/>
<circle cx="200.1" cy="416.5" r="2.6" fill="#3fb950" opacity="0.7"/>
<circle cx="220.1" cy="408.8" r="2.6" fill="#3fb950" opacity="0.7"/>
<circle cx="240.2" cy="407.6" r="2.6" fill="#3fb950" opacity="0.7"/>
<circle cx="260.3" cy="405.1" r="2.6" fill="#3fb950" opacity="0.7"/>
<circle cx="280.4" cy="402.4" r="2.6" fill="#3fb950" opacity="0.7"/>
<circle cx="300.5" cy="408.7" r="2.6" fill="#3fb950" opacity="0.7"/>
<circle cx="320.5" cy="415.1" r="2.6" fill="#3fb950" opacity="0.7"/>
<circle cx="340.6" cy="399.9" r="2.6" fill="#3fb950" opacity="0.7"/>
<circle cx="360.7" cy="407.4" r="2.6" fill="#3fb950" opacity="0.7"/>
<circle cx="380.8" cy="416.1" r="2.6" fill="#3fb950" opacity="0.7"/>
<circle cx="400.8" cy="402.8" r="2.6" fill="#3fb950" opacity="0.7"/>
<circle cx="420.9" cy="369.3" r="2.6" fill="#3fb950" opacity="0.7"/>
<circle cx="441.0" cy="422.1" r="2.6" fill="#3fb950" opacity="0.7"/>
<circle cx="461.1" cy="409.0" r="2.6" fill="#3fb950" opacity="0.7"/>
<circle cx="481.2" cy="428.1" r="2.6" fill="#3fb950" opacity="0.7"/>
<circle cx="501.2" cy="411.9" r="2.6" fill="#3fb950" opacity="0.7"/>
<circle cx="521.3" cy="421.7" r="2.6" fill="#3fb950" opacity="0.7"/>
<circle cx="541.4" cy="377.2" r="2.6" fill="#3fb950" opacity="0.7"/>
<circle cx="561.5" cy="400.8" r="2.6" fill="#3fb950" opacity="0.7"/>
<circle cx="581.5" cy="450.9" r="2.6" fill="#3fb950" opacity="0.7"/>
<circle cx="601.6" cy="424.9" r="2.6" fill="#3fb950" opacity="0.7"/>
<circle cx="621.7" cy="402.2" r="2.6" fill="#3fb950" opacity="0.7"/>
<circle cx="641.8" cy="411.0" r="2.6" fill="#3fb950" opacity="0.7"/>
<circle cx="661.9" cy="446.3" r="2.6" fill="#3fb950" opacity="0.7"/>
<circle cx="681.9" cy="420.2" r="2.6" fill="#3fb950" opacity="0.7"/>
<circle cx="702.0" cy="415.9" r="2.6" fill="#3fb950" opacity="0.7"/>
<circle cx="722.1" cy="409.4" r="2.6" fill="#3fb950" opacity="0.7"/>
<circle cx="742.2" cy="418.4" r="2.6" fill="#3fb950" opacity="0.7"/>
<circle cx="762.2" cy="412.1" r="2.6" fill="#3fb950" opacity="0.7"/>
<circle cx="782.3" cy="398.6" r="2.6" fill="#3fb950" opacity="0.7"/>
<circle cx="102.3" cy="410.7" r="2.6" fill="#bc8cff" opacity="0.7"/>
<circle cx="122.4" cy="397.2" r="2.6" fill="#bc8cff" opacity="0.7"/>
<circle cx="142.5" cy="430.6" r="2.6" fill="#bc8cff" opacity="0.7"/>
<circle cx="162.5" cy="399.4" r="2.6" fill="#bc8cff" opacity="0.7"/>
<circle cx="182.6" cy="370.4" r="2.6" fill="#bc8cff" opacity="0.7"/>
<circle cx="202.7" cy="398.6" r="2.6" fill="#bc8cff" opacity="0.7"/>
<circle cx="222.8" cy="337.9" r="2.6" fill="#bc8cff" opacity="0.7"/>
<circle cx="242.9" cy="401.8" r="2.6" fill="#bc8cff" opacity="0.7"/>
<circle cx="262.9" cy="395.7" r="2.6" fill="#bc8cff" opacity="0.7"/>
<circle cx="283.0" cy="373.7" r="2.6" fill="#bc8cff" opacity="0.7"/>
<circle cx="303.1" cy="385.5" r="2.6" fill="#bc8cff" opacity="0.7"/>
<circle cx="323.2" cy="427.9" r="2.6" fill="#bc8cff" opacity="0.7"/>
<circle cx="343.2" cy="409.2" r="2.6" fill="#bc8cff" opacity="0.7"/>
<circle cx="363.3" cy="409.3" r="2.6" fill="#bc8cff" opacity="0.7"/>
<circle cx="383.4" cy="416.7" r="2.6" fill="#bc8cff" opacity="0.7"/>
<circle cx="403.5" cy="378.0" r="2.6" fill="#bc8cff" opacity="0.7"/>
<circle cx="423.6" cy="314.4" r="2.6" fill="#bc8cff" opacity="0.7"/>
<circle cx="443.6" cy="422.2" r="2.6" fill="#bc8cff" opacity="0.7"/>
<circle cx="463.7" cy="390.8" r="2.6" fill="#bc8cff" opacity="0.7"/>
<circle cx="483.8" cy="429.9" r="2.6" fill="#bc8cff" opacity="0.7"/>
<circle cx="503.9" cy="402.0" r="2.6" fill="#bc8cff" opacity="0.7"/>
<circle cx="523.9" cy="424.2" r="2.6" fill="#bc8cff" opacity="0.7"/>
<circle cx="544.0" cy="118.9" r="2.6" fill="#bc8cff" opacity="0.7"/>
<circle cx="564.1" cy="397.6" r="2.6" fill="#bc8cff" opacity="0.7"/>
<circle cx="584.2" cy="434.5" r="2.6" fill="#bc8cff" opacity="0.7"/>
<circle cx="604.3" cy="400.5" r="2.6" fill="#bc8cff" opacity="0.7"/>
<circle cx="624.3" cy="393.9" r="2.6" fill="#bc8cff" opacity="0.7"/>
<circle cx="644.4" cy="403.3" r="2.6" fill="#bc8cff" opacity="0.7"/>
<circle cx="664.5" cy="404.2" r="2.6" fill="#bc8cff" opacity="0.7"/>
<circle cx="684.6" cy="424.2" r="2.6" fill="#bc8cff" opacity="0.7"/>
<circle cx="704.6" cy="373.3" r="2.6" fill="#bc8cff" opacity="0.7"/>
<circle cx="724.7" cy="415.0" r="2.6" fill="#bc8cff" opacity="0.7"/>
<circle cx="744.8" cy="377.3" r="2.6" fill="#bc8cff" opacity="0.7"/>
<circle cx="764.9" cy="399.0" r="2.6" fill="#bc8cff" opacity="0.7"/>
<circle cx="785.0" cy="273.8" r="2.6" fill="#bc8cff" opacity="0.7"/>
<circle cx="97.0" cy="412.5" r="3.2" fill="#ff922b" opacity="0.85"/>
<circle cx="117.1" cy="419.8" r="3.2" fill="#ff922b" opacity="0.85"/>
<circle cx="137.2" cy="425.6" r="3.2" fill="#ff922b" opacity="0.85"/>
<circle cx="157.3" cy="437.2" r="3.2" fill="#ff922b" opacity="0.85"/>
<circle cx="177.4" cy="409.1" r="3.2" fill="#ff922b" opacity="0.85"/>
<circle cx="197.4" cy="405.6" r="3.2" fill="#ff922b" opacity="0.85"/>
<circle cx="217.5" cy="406.1" r="3.2" fill="#ff922b" opacity="0.85"/>
<circle cx="237.6" cy="408.7" r="3.2" fill="#ff922b" opacity="0.85"/>
<circle cx="257.7" cy="410.6" r="3.2" fill="#ff922b" opacity="0.85"/>
<circle cx="277.7" cy="401.0" r="3.2" fill="#ff922b" opacity="0.85"/>
<circle cx="297.8" cy="409.8" r="3.2" fill="#ff922b" opacity="0.85"/>
<circle cx="317.9" cy="414.7" r="3.2" fill="#ff922b" opacity="0.85"/>
<circle cx="338.0" cy="410.8" r="3.2" fill="#ff922b" opacity="0.85"/>
<circle cx="358.1" cy="416.1" r="3.2" fill="#ff922b" opacity="0.85"/>
<circle cx="378.1" cy="397.8" r="3.2" fill="#ff922b" opacity="0.85"/>
<circle cx="398.2" cy="414.3" r="3.2" fill="#ff922b" opacity="0.85"/>
<circle cx="418.3" cy="404.8" r="3.2" fill="#ff922b" opacity="0.85"/>
<circle cx="438.4" cy="409.4" r="3.2" fill="#ff922b" opacity="0.85"/>
<circle cx="458.4" cy="413.2" r="3.2" fill="#ff922b" opacity="0.85"/>
<circle cx="478.5" cy="424.6" r="3.2" fill="#ff922b" opacity="0.85"/>
<circle cx="498.6" cy="413.6" r="3.2" fill="#ff922b" opacity="0.85"/>
<circle cx="518.7" cy="420.2" r="3.2" fill="#ff922b" opacity="0.85"/>
<circle cx="538.8" cy="404.9" r="3.2" fill="#ff922b" opacity="0.85"/>
<circle cx="558.8" cy="401.4" r="3.2" fill="#ff922b" opacity="0.85"/>
<circle cx="578.9" cy="408.1" r="3.2" fill="#ff922b" opacity="0.85"/>
<circle cx="599.0" cy="414.3" r="3.2" fill="#ff922b" opacity="0.85"/>
<circle cx="619.1" cy="407.8" r="3.2" fill="#ff922b" opacity="0.85"/>
<circle cx="639.1" cy="408.7" r="3.2" fill="#ff922b" opacity="0.85"/>
<circle cx="659.2" cy="423.5" r="3.2" fill="#ff922b" opacity="0.85"/>
<circle cx="679.3" cy="412.6" r="3.2" fill="#ff922b" opacity="0.85"/>
<circle cx="699.4" cy="412.1" r="3.2" fill="#ff922b" opacity="0.85"/>
<circle cx="719.5" cy="393.1" r="3.2" fill="#ff922b" opacity="0.85"/>
<circle cx="739.5" cy="409.7" r="3.2" fill="#ff922b" opacity="0.85"/>
<circle cx="759.6" cy="410.6" r="3.2" fill="#ff922b" opacity="0.85"/>
<circle cx="779.7" cy="400.4" r="3.2" fill="#ff922b" opacity="0.85"/>
<circle cx="847" cy="84" r="5" fill="#ff922b"/>
<text x="866" y="88" font-size="13" fill="#c9d1d9" font-weight="700">Kāra</text>
<line x1="836" y1="108" x2="858" y2="108" stroke="#6e7681" stroke-width="1.6" stroke-dasharray="5 4"/>
<text x="866" y="112" font-size="13" fill="#c9d1d9" font-weight="400">Rust</text>
<circle cx="847" cy="132" r="4" fill="#3fb950"/>
<text x="866" y="136" font-size="13" fill="#c9d1d9" font-weight="400">C</text>
<circle cx="847" cy="156" r="4" fill="#bc8cff"/>
<text x="866" y="160" font-size="13" fill="#c9d1d9" font-weight="400">Go</text>
<text x="70" y="538" font-size="11.5" fill="#8b949e">Each dot is one benchmarked program (kata × approach); there is no connecting line because left-to-right order is not meaningful. Raw numbers: bench-results.json</text>
</svg>