<svg xmlns="http://www.w3.org/2000/svg" width="980" height="560" viewBox="0 0 980 560" font-family="-apple-system,Segoe UI,Helvetica,Arial,sans-serif">
<rect width="980" height="560" fill="#282c34"/>
<text x="70" y="34" font-size="21" font-weight="700" fill="#c9d1d9">Runtime — sequential lane</text>
<text x="70" y="56" font-size="13" fill="#8b949e">relative to Rust = 1.0 · lower = faster · 41 programs</text>
<line x1="70" y1="456.0" x2="812" y2="456.0" stroke="#3b414b" stroke-width="1"/>
<text x="60" y="460.0" font-size="12" text-anchor="end" fill="#8b949e">0.0×</text>
<line x1="70" y1="408.8" x2="812" y2="408.8" stroke="#a7b0bc" stroke-width="2" stroke-dasharray="5 4"/>
<text x="60" y="412.8" font-size="12" text-anchor="end" fill="#aeb6c0" font-weight="700">1.0×</text>
<line x1="70" y1="380.4" x2="812" y2="380.4" stroke="#3b414b" stroke-width="1"/>
<text x="60" y="384.4" font-size="12" text-anchor="end" fill="#8b949e">1.6×</text>
<line x1="70" y1="304.8" x2="812" y2="304.8" stroke="#3b414b" stroke-width="1"/>
<text x="60" y="308.8" font-size="12" text-anchor="end" fill="#8b949e">3.2×</text>
<line x1="70" y1="229.2" x2="812" y2="229.2" stroke="#3b414b" stroke-width="1"/>
<text x="60" y="233.2" font-size="12" text-anchor="end" fill="#8b949e">4.8×</text>
<line x1="70" y1="153.6" x2="812" y2="153.6" stroke="#3b414b" stroke-width="1"/>
<text x="60" y="157.6" font-size="12" text-anchor="end" fill="#8b949e">6.4×</text>
<line x1="70" y1="78.0" x2="812" y2="78.0" stroke="#3b414b" stroke-width="1"/>
<text x="60" y="82.0" font-size="12" text-anchor="end" fill="#8b949e">8.0×</text>
<text x="812" y="402.8" font-size="11" text-anchor="end" fill="#aeb6c0">Rust baseline</text>
<line x1="70" y1="456" x2="812" y2="456" stroke="#3b414b"/>
<text x="441.0" y="478" font-size="11" text-anchor="middle" fill="#8b949e">41 programs (kata × approach) — x-order carries no meaning</text>
<circle cx="99.7" cy="412.1" r="2.6" fill="#3fb950" opacity="0.7"/>
<circle cx="116.7" cy="428.3" r="2.6" fill="#3fb950" opacity="0.7"/>
<circle cx="133.8" cy="432.7" r="2.6" fill="#3fb950" opacity="0.7"/>
<circle cx="150.9" cy="445.3" r="2.6" fill="#3fb950" opacity="0.7"/>
<circle cx="167.9" cy="418.4" r="2.6" fill="#3fb950" opacity="0.7"/>
<circle cx="185.0" cy="417.8" r="2.6" fill="#3fb950" opacity="0.7"/>
<circle cx="202.1" cy="408.2" r="2.6" fill="#3fb950" opacity="0.7"/>
<circle cx="219.1" cy="407.6" r="2.6" fill="#3fb950" opacity="0.7"/>
<circle cx="236.2" cy="405.1" r="2.6" fill="#3fb950" opacity="0.7"/>
<circle cx="253.3" cy="402.4" r="2.6" fill="#3fb950" opacity="0.7"/>
<circle cx="270.3" cy="408.7" r="2.6" fill="#3fb950" opacity="0.7"/>
<circle cx="287.4" cy="415.1" r="2.6" fill="#3fb950" opacity="0.7"/>
<circle cx="304.5" cy="399.9" r="2.6" fill="#3fb950" opacity="0.7"/>
<circle cx="321.5" cy="407.4" r="2.6" fill="#3fb950" opacity="0.7"/>
<circle cx="338.6" cy="416.1" r="2.6" fill="#3fb950" opacity="0.7"/>
<circle cx="355.7" cy="402.8" r="2.6" fill="#3fb950" opacity="0.7"/>
<circle cx="372.7" cy="369.3" r="2.6" fill="#3fb950" opacity="0.7"/>
<circle cx="389.8" cy="422.1" r="2.6" fill="#3fb950" opacity="0.7"/>
<circle cx="406.9" cy="409.0" r="2.6" fill="#3fb950" opacity="0.7"/>
<circle cx="423.9" cy="428.1" r="2.6" fill="#3fb950" opacity="0.7"/>
<circle cx="441.0" cy="411.9" r="2.6" fill="#3fb950" opacity="0.7"/>
<circle cx="458.1" cy="422.1" r="2.6" fill="#3fb950" opacity="0.7"/>
<circle cx="475.1" cy="442.0" r="2.6" fill="#3fb950" opacity="0.7"/>
<circle cx="492.2" cy="426.3" r="2.6" fill="#3fb950" opacity="0.7"/>
<circle cx="509.3" cy="421.5" r="2.6" fill="#3fb950" opacity="0.7"/>
<circle cx="526.3" cy="423.8" r="2.6" fill="#3fb950" opacity="0.7"/>
<circle cx="543.4" cy="407.3" r="2.6" fill="#3fb950" opacity="0.7"/>
<circle cx="560.5" cy="377.2" r="2.6" fill="#3fb950" opacity="0.7"/>
<circle cx="577.5" cy="400.8" r="2.6" fill="#3fb950" opacity="0.7"/>
<circle cx="594.6" cy="450.9" r="2.6" fill="#3fb950" opacity="0.7"/>
<circle cx="611.7" cy="425.1" r="2.6" fill="#3fb950" opacity="0.7"/>
<circle cx="628.7" cy="402.2" r="2.6" fill="#3fb950" opacity="0.7"/>
<circle cx="645.8" cy="411.0" r="2.6" fill="#3fb950" opacity="0.7"/>
<circle cx="662.9" cy="446.3" r="2.6" fill="#3fb950" opacity="0.7"/>
<circle cx="679.9" cy="420.2" r="2.6" fill="#3fb950" opacity="0.7"/>
<circle cx="697.0" cy="415.9" r="2.6" fill="#3fb950" opacity="0.7"/>
<circle cx="714.1" cy="409.4" r="2.6" fill="#3fb950" opacity="0.7"/>
<circle cx="731.1" cy="418.4" r="2.6" fill="#3fb950" opacity="0.7"/>
<circle cx="748.2" cy="412.1" r="2.6" fill="#3fb950" opacity="0.7"/>
<circle cx="765.3" cy="398.6" r="2.6" fill="#3fb950" opacity="0.7"/>
<circle cx="782.3" cy="412.5" r="2.6" fill="#3fb950" opacity="0.7"/>
<circle cx="102.3" cy="410.7" r="2.6" fill="#bc8cff" opacity="0.7"/>
<circle cx="119.4" cy="397.2" r="2.6" fill="#bc8cff" opacity="0.7"/>
<circle cx="136.4" cy="429.4" r="2.6" fill="#bc8cff" opacity="0.7"/>
<circle cx="153.5" cy="399.4" r="2.6" fill="#bc8cff" opacity="0.7"/>
<circle cx="170.6" cy="370.4" r="2.6" fill="#bc8cff" opacity="0.7"/>
<circle cx="187.6" cy="399.8" r="2.6" fill="#bc8cff" opacity="0.7"/>
<circle cx="204.7" cy="337.2" r="2.6" fill="#bc8cff" opacity="0.7"/>
<circle cx="221.8" cy="401.8" r="2.6" fill="#bc8cff" opacity="0.7"/>
<circle cx="238.8" cy="395.7" r="2.6" fill="#bc8cff" opacity="0.7"/>
<circle cx="255.9" cy="373.7" r="2.6" fill="#bc8cff" opacity="0.7"/>
<circle cx="273.0" cy="385.5" r="2.6" fill="#bc8cff" opacity="0.7"/>
<circle cx="290.0" cy="427.9" r="2.6" fill="#bc8cff" opacity="0.7"/>
<circle cx="307.1" cy="409.2" r="2.6" fill="#bc8cff" opacity="0.7"/>
<circle cx="324.2" cy="409.3" r="2.6" fill="#bc8cff" opacity="0.7"/>
<circle cx="341.2" cy="416.7" r="2.6" fill="#bc8cff" opacity="0.7"/>
<circle cx="358.3" cy="378.0" r="2.6" fill="#bc8cff" opacity="0.7"/>
<circle cx="375.4" cy="314.4" r="2.6" fill="#bc8cff" opacity="0.7"/>
<circle cx="392.4" cy="422.2" r="2.6" fill="#bc8cff" opacity="0.7"/>
<circle cx="409.5" cy="390.8" r="2.6" fill="#bc8cff" opacity="0.7"/>
<circle cx="426.6" cy="429.9" r="2.6" fill="#bc8cff" opacity="0.7"/>
<circle cx="443.6" cy="402.0" r="2.6" fill="#bc8cff" opacity="0.7"/>
<circle cx="460.7" cy="424.7" r="2.6" fill="#bc8cff" opacity="0.7"/>
<circle cx="477.8" cy="439.4" r="2.6" fill="#bc8cff" opacity="0.7"/>
<circle cx="494.8" cy="433.3" r="2.6" fill="#bc8cff" opacity="0.7"/>
<circle cx="511.9" cy="431.3" r="2.6" fill="#bc8cff" opacity="0.7"/>
<circle cx="529.0" cy="431.7" r="2.6" fill="#bc8cff" opacity="0.7"/>
<circle cx="546.0" cy="402.1" r="2.6" fill="#bc8cff" opacity="0.7"/>
<circle cx="563.1" cy="118.9" r="2.6" fill="#bc8cff" opacity="0.7"/>
<circle cx="580.2" cy="397.6" r="2.6" fill="#bc8cff" opacity="0.7"/>
<circle cx="597.2" cy="434.5" r="2.6" fill="#bc8cff" opacity="0.7"/>
<circle cx="614.3" cy="401.0" r="2.6" fill="#bc8cff" opacity="0.7"/>
<circle cx="631.4" cy="393.9" r="2.6" fill="#bc8cff" opacity="0.7"/>
<circle cx="648.4" cy="403.3" r="2.6" fill="#bc8cff" opacity="0.7"/>
<circle cx="665.5" cy="403.5" r="2.6" fill="#bc8cff" opacity="0.7"/>
<circle cx="682.6" cy="424.2" r="2.6" fill="#bc8cff" opacity="0.7"/>
<circle cx="699.6" cy="373.3" r="2.6" fill="#bc8cff" opacity="0.7"/>
<circle cx="716.7" cy="415.0" r="2.6" fill="#bc8cff" opacity="0.7"/>
<circle cx="733.8" cy="377.3" r="2.6" fill="#bc8cff" opacity="0.7"/>
<circle cx="750.8" cy="399.0" r="2.6" fill="#bc8cff" opacity="0.7"/>
<circle cx="767.9" cy="273.8" r="2.6" fill="#bc8cff" opacity="0.7"/>
<circle cx="785.0" cy="350.5" r="2.6" fill="#bc8cff" opacity="0.7"/>
<circle cx="97.0" cy="412.5" r="3.2" fill="#ff922b" opacity="0.85"/>
<circle cx="114.1" cy="419.8" r="3.2" fill="#ff922b" opacity="0.85"/>
<circle cx="131.2" cy="432.3" r="3.2" fill="#ff922b" opacity="0.85"/>
<circle cx="148.2" cy="437.2" r="3.2" fill="#ff922b" opacity="0.85"/>
<circle cx="165.3" cy="409.1" r="3.2" fill="#ff922b" opacity="0.85"/>
<circle cx="182.4" cy="411.4" r="3.2" fill="#ff922b" opacity="0.85"/>
<circle cx="199.4" cy="408.9" r="3.2" fill="#ff922b" opacity="0.85"/>
<circle cx="216.5" cy="408.7" r="3.2" fill="#ff922b" opacity="0.85"/>
<circle cx="233.6" cy="410.6" r="3.2" fill="#ff922b" opacity="0.85"/>
<circle cx="250.6" cy="401.0" r="3.2" fill="#ff922b" opacity="0.85"/>
<circle cx="267.7" cy="409.8" r="3.2" fill="#ff922b" opacity="0.85"/>
<circle cx="284.8" cy="414.7" r="3.2" fill="#ff922b" opacity="0.85"/>
<circle cx="301.8" cy="410.8" r="3.2" fill="#ff922b" opacity="0.85"/>
<circle cx="318.9" cy="416.1" r="3.2" fill="#ff922b" opacity="0.85"/>
<circle cx="336.0" cy="397.8" r="3.2" fill="#ff922b" opacity="0.85"/>
<circle cx="353.0" cy="414.3" r="3.2" fill="#ff922b" opacity="0.85"/>
<circle cx="370.1" cy="404.8" r="3.2" fill="#ff922b" opacity="0.85"/>
<circle cx="387.2" cy="409.4" r="3.2" fill="#ff922b" opacity="0.85"/>
<circle cx="404.2" cy="413.2" r="3.2" fill="#ff922b" opacity="0.85"/>
<circle cx="421.3" cy="424.6" r="3.2" fill="#ff922b" opacity="0.85"/>
<circle cx="438.4" cy="413.6" r="3.2" fill="#ff922b" opacity="0.85"/>
<circle cx="455.4" cy="417.1" r="3.2" fill="#ff922b" opacity="0.85"/>
<circle cx="472.5" cy="439.5" r="3.2" fill="#ff922b" opacity="0.85"/>
<circle cx="489.6" cy="423.2" r="3.2" fill="#ff922b" opacity="0.85"/>
<circle cx="506.6" cy="417.5" r="3.2" fill="#ff922b" opacity="0.85"/>
<circle cx="523.7" cy="413.7" r="3.2" fill="#ff922b" opacity="0.85"/>
<circle cx="540.8" cy="405.5" r="3.2" fill="#ff922b" opacity="0.85"/>
<circle cx="557.8" cy="404.9" r="3.2" fill="#ff922b" opacity="0.85"/>
<circle cx="574.9" cy="401.4" r="3.2" fill="#ff922b" opacity="0.85"/>
<circle cx="592.0" cy="408.1" r="3.2" fill="#ff922b" opacity="0.85"/>
<circle cx="609.0" cy="414.3" r="3.2" fill="#ff922b" opacity="0.85"/>
<circle cx="626.1" cy="407.8" r="3.2" fill="#ff922b" opacity="0.85"/>
<circle cx="643.2" cy="408.7" r="3.2" fill="#ff922b" opacity="0.85"/>
<circle cx="660.2" cy="424.0" r="3.2" fill="#ff922b" opacity="0.85"/>
<circle cx="677.3" cy="412.6" r="3.2" fill="#ff922b" opacity="0.85"/>
<circle cx="694.4" cy="412.1" r="3.2" fill="#ff922b" opacity="0.85"/>
<circle cx="711.4" cy="393.1" r="3.2" fill="#ff922b" opacity="0.85"/>
<circle cx="728.5" cy="409.7" r="3.2" fill="#ff922b" opacity="0.85"/>
<circle cx="745.6" cy="410.6" r="3.2" fill="#ff922b" opacity="0.85"/>
<circle cx="762.6" cy="400.4" r="3.2" fill="#ff922b" opacity="0.85"/>
<circle cx="779.7" cy="405.4" r="3.2" fill="#ff922b" opacity="0.85"/>
<circle cx="847" cy="84" r="5" fill="#ff922b"/>
<text x="866" y="88" font-size="13" fill="#c9d1d9" font-weight="700">Kāra</text>
<line x1="836" y1="108" x2="858" y2="108" stroke="#a7b0bc" stroke-width="2" stroke-dasharray="5 4"/>
<text x="866" y="112" font-size="13" fill="#c9d1d9" font-weight="400">Rust = 1.0×</text>
<circle cx="847" cy="132" r="4" fill="#3fb950"/>
<text x="866" y="136" font-size="13" fill="#c9d1d9" font-weight="400">C</text>
<circle cx="847" cy="156" r="4" fill="#bc8cff"/>
<text x="866" y="160" font-size="13" fill="#c9d1d9" font-weight="400">Go</text>
<text x="70" y="538" font-size="11.5" fill="#8b949e">Each dot is one benchmarked program (kata × approach); there is no connecting line because left-to-right order is not meaningful. Raw numbers: bench-results.json</text>
</svg>