<svg xmlns="http://www.w3.org/2000/svg" width="980" height="560" viewBox="0 0 980 560" font-family="-apple-system,Segoe UI,Helvetica,Arial,sans-serif">
<rect width="980" height="560" fill="#282c34"/>
<text x="70" y="34" font-size="21" font-weight="700" fill="#c9d1d9">Runtime — sequential lane</text>
<text x="70" y="56" font-size="13" fill="#8b949e">relative to Rust (default) = 1.0 · lower = faster · 65 programs</text>
<line x1="70" y1="456.0" x2="812" y2="456.0" stroke="#3b414b" stroke-width="1"/>
<text x="60" y="460.0" font-size="12" text-anchor="end" fill="#8b949e">0.0×</text>
<line x1="70" y1="402.0" x2="812" y2="402.0" stroke="#a7b0bc" stroke-width="2" stroke-dasharray="5 4"/>
<text x="60" y="406.0" font-size="12" text-anchor="end" fill="#aeb6c0" font-weight="700">1.0×</text>
<line x1="70" y1="380.4" x2="812" y2="380.4" stroke="#3b414b" stroke-width="1"/>
<text x="60" y="384.4" font-size="12" text-anchor="end" fill="#8b949e">1.4×</text>
<line x1="70" y1="304.8" x2="812" y2="304.8" stroke="#3b414b" stroke-width="1"/>
<text x="60" y="308.8" font-size="12" text-anchor="end" fill="#8b949e">2.8×</text>
<line x1="70" y1="229.2" x2="812" y2="229.2" stroke="#3b414b" stroke-width="1"/>
<text x="60" y="233.2" font-size="12" text-anchor="end" fill="#8b949e">4.2×</text>
<line x1="70" y1="153.6" x2="812" y2="153.6" stroke="#3b414b" stroke-width="1"/>
<text x="60" y="157.6" font-size="12" text-anchor="end" fill="#8b949e">5.6×</text>
<line x1="70" y1="78.0" x2="812" y2="78.0" stroke="#3b414b" stroke-width="1"/>
<text x="60" y="82.0" font-size="12" text-anchor="end" fill="#8b949e">7.0×</text>
<text x="812" y="396.0" font-size="11" text-anchor="end" fill="#aeb6c0">Rust (default) baseline</text>
<line x1="70" y1="456" x2="812" y2="456" stroke="#3b414b"/>
<text x="441.0" y="478" font-size="11" text-anchor="middle" fill="#8b949e">65 programs (kata × approach) — x-order carries no meaning</text>
<circle cx="99.0" cy="402.1" r="2.6" fill="#3fb950" opacity="0.7"/>
<circle cx="109.6" cy="421.6" r="2.6" fill="#3fb950" opacity="0.7"/>
<circle cx="120.3" cy="425.2" r="2.6" fill="#3fb950" opacity="0.7"/>
<circle cx="131.0" cy="442.8" r="2.6" fill="#3fb950" opacity="0.7"/>
<circle cx="141.6" cy="413.8" r="2.6" fill="#3fb950" opacity="0.7"/>
<circle cx="152.3" cy="411.4" r="2.6" fill="#3fb950" opacity="0.7"/>
<circle cx="163.0" cy="402.3" r="2.6" fill="#3fb950" opacity="0.7"/>
<circle cx="173.6" cy="399.7" r="2.6" fill="#3fb950" opacity="0.7"/>
<circle cx="184.3" cy="397.0" r="2.6" fill="#3fb950" opacity="0.7"/>
<circle cx="195.0" cy="395.5" r="2.6" fill="#3fb950" opacity="0.7"/>
<circle cx="205.6" cy="402.1" r="2.6" fill="#3fb950" opacity="0.7"/>
<circle cx="216.3" cy="409.1" r="2.6" fill="#3fb950" opacity="0.7"/>
<circle cx="227.0" cy="395.6" r="2.6" fill="#3fb950" opacity="0.7"/>
<circle cx="237.6" cy="399.0" r="2.6" fill="#3fb950" opacity="0.7"/>
<circle cx="248.3" cy="413.4" r="2.6" fill="#3fb950" opacity="0.7"/>
<circle cx="258.9" cy="397.3" r="2.6" fill="#3fb950" opacity="0.7"/>
<circle cx="269.6" cy="357.8" r="2.6" fill="#3fb950" opacity="0.7"/>
<circle cx="280.3" cy="415.1" r="2.6" fill="#3fb950" opacity="0.7"/>
<circle cx="290.9" cy="403.5" r="2.6" fill="#3fb950" opacity="0.7"/>
<circle cx="301.6" cy="423.2" r="2.6" fill="#3fb950" opacity="0.7"/>
<circle cx="312.3" cy="406.5" r="2.6" fill="#3fb950" opacity="0.7"/>
<circle cx="322.9" cy="419.9" r="2.6" fill="#3fb950" opacity="0.7"/>
<circle cx="333.6" cy="439.8" r="2.6" fill="#3fb950" opacity="0.7"/>
<circle cx="344.3" cy="424.6" r="2.6" fill="#3fb950" opacity="0.7"/>
<circle cx="354.9" cy="418.3" r="2.6" fill="#3fb950" opacity="0.7"/>
<circle cx="365.6" cy="420.5" r="2.6" fill="#3fb950" opacity="0.7"/>
<circle cx="376.3" cy="400.5" r="2.6" fill="#3fb950" opacity="0.7"/>
<circle cx="386.9" cy="400.0" r="2.6" fill="#3fb950" opacity="0.7"/>
<circle cx="397.6" cy="402.1" r="2.6" fill="#3fb950" opacity="0.7"/>
<circle cx="408.3" cy="414.5" r="2.6" fill="#3fb950" opacity="0.7"/>
<circle cx="418.9" cy="401.5" r="2.6" fill="#3fb950" opacity="0.7"/>
<circle cx="429.6" cy="435.9" r="2.6" fill="#3fb950" opacity="0.7"/>
<circle cx="440.3" cy="402.2" r="2.6" fill="#3fb950" opacity="0.7"/>
<circle cx="450.9" cy="421.6" r="2.6" fill="#3fb950" opacity="0.7"/>
<circle cx="461.6" cy="415.8" r="2.6" fill="#3fb950" opacity="0.7"/>
<circle cx="472.3" cy="417.3" r="2.6" fill="#3fb950" opacity="0.7"/>
<circle cx="482.9" cy="417.7" r="2.6" fill="#3fb950" opacity="0.7"/>
<circle cx="493.6" cy="402.4" r="2.6" fill="#3fb950" opacity="0.7"/>
<circle cx="504.3" cy="382.1" r="2.6" fill="#3fb950" opacity="0.7"/>
<circle cx="514.9" cy="413.8" r="2.6" fill="#3fb950" opacity="0.7"/>
<circle cx="525.6" cy="398.2" r="2.6" fill="#3fb950" opacity="0.7"/>
<circle cx="536.3" cy="401.5" r="2.6" fill="#3fb950" opacity="0.7"/>
<circle cx="546.9" cy="404.4" r="2.6" fill="#3fb950" opacity="0.7"/>
<circle cx="557.6" cy="403.9" r="2.6" fill="#3fb950" opacity="0.7"/>
<circle cx="568.3" cy="431.2" r="2.6" fill="#3fb950" opacity="0.7"/>
<circle cx="578.9" cy="369.7" r="2.6" fill="#3fb950" opacity="0.7"/>
<circle cx="589.6" cy="393.0" r="2.6" fill="#3fb950" opacity="0.7"/>
<circle cx="600.3" cy="450.6" r="2.6" fill="#3fb950" opacity="0.7"/>
<circle cx="610.9" cy="419.1" r="2.6" fill="#3fb950" opacity="0.7"/>
<circle cx="621.6" cy="395.0" r="2.6" fill="#3fb950" opacity="0.7"/>
<circle cx="632.3" cy="404.2" r="2.6" fill="#3fb950" opacity="0.7"/>
<circle cx="642.9" cy="425.5" r="2.6" fill="#3fb950" opacity="0.7"/>
<circle cx="653.6" cy="445.3" r="2.6" fill="#3fb950" opacity="0.7"/>
<circle cx="664.3" cy="415.3" r="2.6" fill="#3fb950" opacity="0.7"/>
<circle cx="674.9" cy="410.4" r="2.6" fill="#3fb950" opacity="0.7"/>
<circle cx="685.6" cy="404.0" r="2.6" fill="#3fb950" opacity="0.7"/>
<circle cx="696.3" cy="402.7" r="2.6" fill="#3fb950" opacity="0.7"/>
<circle cx="706.9" cy="412.4" r="2.6" fill="#3fb950" opacity="0.7"/>
<circle cx="717.6" cy="407.1" r="2.6" fill="#3fb950" opacity="0.7"/>
<circle cx="728.3" cy="411.4" r="2.6" fill="#3fb950" opacity="0.7"/>
<circle cx="738.9" cy="452.2" r="2.6" fill="#3fb950" opacity="0.7"/>
<circle cx="749.6" cy="447.1" r="2.6" fill="#3fb950" opacity="0.7"/>
<circle cx="760.3" cy="406.6" r="2.6" fill="#3fb950" opacity="0.7"/>
<circle cx="770.9" cy="391.2" r="2.6" fill="#3fb950" opacity="0.7"/>
<circle cx="781.6" cy="416.2" r="2.6" fill="#3fb950" opacity="0.7"/>
<circle cx="100.4" cy="401.6" r="2.6" fill="#bc8cff" opacity="0.7"/>
<circle cx="111.1" cy="392.0" r="2.6" fill="#bc8cff" opacity="0.7"/>
<circle cx="121.7" cy="428.8" r="2.6" fill="#bc8cff" opacity="0.7"/>
<circle cx="132.4" cy="392.5" r="2.6" fill="#bc8cff" opacity="0.7"/>
<circle cx="143.1" cy="358.8" r="2.6" fill="#bc8cff" opacity="0.7"/>
<circle cx="153.7" cy="391.4" r="2.6" fill="#bc8cff" opacity="0.7"/>
<circle cx="164.4" cy="315.8" r="2.6" fill="#bc8cff" opacity="0.7"/>
<circle cx="175.1" cy="393.4" r="2.6" fill="#bc8cff" opacity="0.7"/>
<circle cx="185.7" cy="385.2" r="2.6" fill="#bc8cff" opacity="0.7"/>
<circle cx="196.4" cy="362.9" r="2.6" fill="#bc8cff" opacity="0.7"/>
<circle cx="207.1" cy="372.1" r="2.6" fill="#bc8cff" opacity="0.7"/>
<circle cx="217.7" cy="423.7" r="2.6" fill="#bc8cff" opacity="0.7"/>
<circle cx="228.4" cy="401.0" r="2.6" fill="#bc8cff" opacity="0.7"/>
<circle cx="239.1" cy="400.3" r="2.6" fill="#bc8cff" opacity="0.7"/>
<circle cx="249.7" cy="412.8" r="2.6" fill="#bc8cff" opacity="0.7"/>
<circle cx="260.4" cy="373.1" r="2.6" fill="#bc8cff" opacity="0.7"/>
<circle cx="271.1" cy="302.1" r="2.6" fill="#bc8cff" opacity="0.7"/>
<circle cx="281.7" cy="419.5" r="2.6" fill="#bc8cff" opacity="0.7"/>
<circle cx="292.4" cy="385.6" r="2.6" fill="#bc8cff" opacity="0.7"/>
<circle cx="303.1" cy="428.9" r="2.6" fill="#bc8cff" opacity="0.7"/>
<circle cx="313.7" cy="395.8" r="2.6" fill="#bc8cff" opacity="0.7"/>
<circle cx="324.4" cy="422.8" r="2.6" fill="#bc8cff" opacity="0.7"/>
<circle cx="335.1" cy="437.9" r="2.6" fill="#bc8cff" opacity="0.7"/>
<circle cx="345.7" cy="429.5" r="2.6" fill="#bc8cff" opacity="0.7"/>
<circle cx="356.4" cy="423.4" r="2.6" fill="#bc8cff" opacity="0.7"/>
<circle cx="367.1" cy="424.6" r="2.6" fill="#bc8cff" opacity="0.7"/>
<circle cx="377.7" cy="394.3" r="2.6" fill="#bc8cff" opacity="0.7"/>
<circle cx="388.4" cy="388.7" r="2.6" fill="#bc8cff" opacity="0.7"/>
<circle cx="399.1" cy="276.0" r="2.6" fill="#bc8cff" opacity="0.7"/>
<circle cx="409.7" cy="378.6" r="2.6" fill="#bc8cff" opacity="0.7"/>
<circle cx="420.4" cy="393.5" r="2.6" fill="#bc8cff" opacity="0.7"/>
<circle cx="431.1" cy="319.9" r="2.6" fill="#bc8cff" opacity="0.7"/>
<circle cx="441.7" cy="396.2" r="2.6" fill="#bc8cff" opacity="0.7"/>
<circle cx="452.4" cy="340.6" r="2.6" fill="#bc8cff" opacity="0.7"/>
<circle cx="463.1" cy="400.8" r="2.6" fill="#bc8cff" opacity="0.7"/>
<circle cx="473.7" cy="416.0" r="2.6" fill="#bc8cff" opacity="0.7"/>
<circle cx="484.4" cy="359.7" r="2.6" fill="#bc8cff" opacity="0.7"/>
<circle cx="495.1" cy="340.0" r="2.6" fill="#bc8cff" opacity="0.7"/>
<circle cx="505.7" cy="371.7" r="2.6" fill="#bc8cff" opacity="0.7"/>
<circle cx="516.4" cy="424.3" r="2.6" fill="#bc8cff" opacity="0.7"/>
<circle cx="527.1" cy="391.5" r="2.6" fill="#bc8cff" opacity="0.7"/>
<circle cx="537.7" cy="394.2" r="2.6" fill="#bc8cff" opacity="0.7"/>
<circle cx="548.4" cy="396.9" r="2.6" fill="#bc8cff" opacity="0.7"/>
<circle cx="559.1" cy="438.7" r="2.6" fill="#bc8cff" opacity="0.7"/>
<circle cx="569.7" cy="393.1" r="2.6" fill="#bc8cff" opacity="0.7"/>
<circle cx="580.4" cy="88.9" r="2.6" fill="#bc8cff" opacity="0.7"/>
<circle cx="591.1" cy="389.7" r="2.6" fill="#bc8cff" opacity="0.7"/>
<circle cx="601.7" cy="433.3" r="2.6" fill="#bc8cff" opacity="0.7"/>
<circle cx="612.4" cy="388.8" r="2.6" fill="#bc8cff" opacity="0.7"/>
<circle cx="623.1" cy="386.6" r="2.6" fill="#bc8cff" opacity="0.7"/>
<circle cx="633.7" cy="397.7" r="2.6" fill="#bc8cff" opacity="0.7"/>
<circle cx="644.4" cy="408.7" r="2.6" fill="#bc8cff" opacity="0.7"/>
<circle cx="655.0" cy="399.4" r="2.6" fill="#bc8cff" opacity="0.7"/>
<circle cx="665.7" cy="419.2" r="2.6" fill="#bc8cff" opacity="0.7"/>
<circle cx="676.4" cy="362.8" r="2.6" fill="#bc8cff" opacity="0.7"/>
<circle cx="687.0" cy="396.9" r="2.6" fill="#bc8cff" opacity="0.7"/>
<circle cx="697.7" cy="408.9" r="2.6" fill="#bc8cff" opacity="0.7"/>
<circle cx="708.4" cy="400.6" r="2.6" fill="#bc8cff" opacity="0.7"/>
<circle cx="719.0" cy="404.0" r="2.6" fill="#bc8cff" opacity="0.7"/>
<circle cx="729.7" cy="418.5" r="2.6" fill="#bc8cff" opacity="0.7"/>
<circle cx="740.4" cy="444.8" r="2.6" fill="#bc8cff" opacity="0.7"/>
<circle cx="751.0" cy="419.4" r="2.6" fill="#bc8cff" opacity="0.7"/>
<circle cx="761.7" cy="409.4" r="2.6" fill="#bc8cff" opacity="0.7"/>
<circle cx="772.4" cy="258.5" r="2.6" fill="#bc8cff" opacity="0.7"/>
<circle cx="783.0" cy="362.5" r="2.6" fill="#bc8cff" opacity="0.7"/>
<circle cx="97.5" cy="394.1" r="3.2" fill="#ff922b" opacity="0.85"/>
<circle cx="108.2" cy="414.9" r="3.2" fill="#ff922b" opacity="0.85"/>
<circle cx="118.8" cy="426.6" r="3.2" fill="#ff922b" opacity="0.85"/>
<circle cx="129.5" cy="431.8" r="3.2" fill="#ff922b" opacity="0.85"/>
<circle cx="140.2" cy="398.4" r="3.2" fill="#ff922b" opacity="0.85"/>
<circle cx="150.8" cy="381.7" r="3.2" fill="#ff922b" opacity="0.85"/>
<circle cx="161.5" cy="399.1" r="3.2" fill="#ff922b" opacity="0.85"/>
<circle cx="172.2" cy="391.9" r="3.2" fill="#ff922b" opacity="0.85"/>
<circle cx="182.8" cy="380.1" r="3.2" fill="#ff922b" opacity="0.85"/>
<circle cx="193.5" cy="377.3" r="3.2" fill="#ff922b" opacity="0.85"/>
<circle cx="204.2" cy="396.9" r="3.2" fill="#ff922b" opacity="0.85"/>
<circle cx="214.8" cy="394.4" r="3.2" fill="#ff922b" opacity="0.85"/>
<circle cx="225.5" cy="404.1" r="3.2" fill="#ff922b" opacity="0.85"/>
<circle cx="236.2" cy="404.0" r="3.2" fill="#ff922b" opacity="0.85"/>
<circle cx="246.8" cy="395.7" r="3.2" fill="#ff922b" opacity="0.85"/>
<circle cx="257.5" cy="401.0" r="3.2" fill="#ff922b" opacity="0.85"/>
<circle cx="268.2" cy="395.5" r="3.2" fill="#ff922b" opacity="0.85"/>
<circle cx="278.8" cy="391.0" r="3.2" fill="#ff922b" opacity="0.85"/>
<circle cx="289.5" cy="399.4" r="3.2" fill="#ff922b" opacity="0.85"/>
<circle cx="300.2" cy="414.3" r="3.2" fill="#ff922b" opacity="0.85"/>
<circle cx="310.8" cy="410.0" r="3.2" fill="#ff922b" opacity="0.85"/>
<circle cx="321.5" cy="405.1" r="3.2" fill="#ff922b" opacity="0.85"/>
<circle cx="332.2" cy="437.8" r="3.2" fill="#ff922b" opacity="0.85"/>
<circle cx="342.8" cy="409.2" r="3.2" fill="#ff922b" opacity="0.85"/>
<circle cx="353.5" cy="409.6" r="3.2" fill="#ff922b" opacity="0.85"/>
<circle cx="364.2" cy="405.6" r="3.2" fill="#ff922b" opacity="0.85"/>
<circle cx="374.8" cy="396.3" r="3.2" fill="#ff922b" opacity="0.85"/>
<circle cx="385.5" cy="398.6" r="3.2" fill="#ff922b" opacity="0.85"/>
<circle cx="396.2" cy="402.5" r="3.2" fill="#ff922b" opacity="0.85"/>
<circle cx="406.8" cy="402.1" r="3.2" fill="#ff922b" opacity="0.85"/>
<circle cx="417.5" cy="400.7" r="3.2" fill="#ff922b" opacity="0.85"/>
<circle cx="428.2" cy="363.0" r="3.2" fill="#ff922b" opacity="0.85"/>
<circle cx="438.8" cy="401.0" r="3.2" fill="#ff922b" opacity="0.85"/>
<circle cx="449.5" cy="400.3" r="3.2" fill="#ff922b" opacity="0.85"/>
<circle cx="460.2" cy="397.1" r="3.2" fill="#ff922b" opacity="0.85"/>
<circle cx="470.8" cy="396.1" r="3.2" fill="#ff922b" opacity="0.85"/>
<circle cx="481.5" cy="395.6" r="3.2" fill="#ff922b" opacity="0.85"/>
<circle cx="492.2" cy="426.2" r="3.2" fill="#ff922b" opacity="0.85"/>
<circle cx="502.8" cy="403.8" r="3.2" fill="#ff922b" opacity="0.85"/>
<circle cx="513.5" cy="389.3" r="3.2" fill="#ff922b" opacity="0.85"/>
<circle cx="524.2" cy="377.0" r="3.2" fill="#ff922b" opacity="0.85"/>
<circle cx="534.8" cy="379.7" r="3.2" fill="#ff922b" opacity="0.85"/>
<circle cx="545.5" cy="404.6" r="3.2" fill="#ff922b" opacity="0.85"/>
<circle cx="556.2" cy="437.7" r="3.2" fill="#ff922b" opacity="0.85"/>
<circle cx="566.8" cy="382.6" r="3.2" fill="#ff922b" opacity="0.85"/>
<circle cx="577.5" cy="397.4" r="3.2" fill="#ff922b" opacity="0.85"/>
<circle cx="588.2" cy="400.8" r="3.2" fill="#ff922b" opacity="0.85"/>
<circle cx="598.8" cy="397.9" r="3.2" fill="#ff922b" opacity="0.85"/>
<circle cx="609.5" cy="411.0" r="3.2" fill="#ff922b" opacity="0.85"/>
<circle cx="620.2" cy="398.1" r="3.2" fill="#ff922b" opacity="0.85"/>
<circle cx="630.8" cy="399.7" r="3.2" fill="#ff922b" opacity="0.85"/>
<circle cx="641.5" cy="397.4" r="3.2" fill="#ff922b" opacity="0.85"/>
<circle cx="652.2" cy="449.9" r="3.2" fill="#ff922b" opacity="0.85"/>
<circle cx="662.8" cy="414.9" r="3.2" fill="#ff922b" opacity="0.85"/>
<circle cx="673.5" cy="407.0" r="3.2" fill="#ff922b" opacity="0.85"/>
<circle cx="684.1" cy="366.5" r="3.2" fill="#ff922b" opacity="0.85"/>
<circle cx="694.8" cy="399.1" r="3.2" fill="#ff922b" opacity="0.85"/>
<circle cx="705.5" cy="403.6" r="3.2" fill="#ff922b" opacity="0.85"/>
<circle cx="716.1" cy="408.3" r="3.2" fill="#ff922b" opacity="0.85"/>
<circle cx="726.8" cy="401.9" r="3.2" fill="#ff922b" opacity="0.85"/>
<circle cx="737.5" cy="386.1" r="3.2" fill="#ff922b" opacity="0.85"/>
<circle cx="748.1" cy="387.7" r="3.2" fill="#ff922b" opacity="0.85"/>
<circle cx="758.8" cy="401.6" r="3.2" fill="#ff922b" opacity="0.85"/>
<circle cx="769.5" cy="303.3" r="3.2" fill="#ff922b" opacity="0.85"/>
<circle cx="780.1" cy="365.5" r="3.2" fill="#ff922b" opacity="0.85"/>
<circle cx="133.9" cy="399.5" r="2.6" fill="none" stroke="#d4a017" stroke-width="1.8" opacity="0.7999999999999999"/>
<circle cx="144.5" cy="401.6" r="2.6" fill="none" stroke="#d4a017" stroke-width="1.8" opacity="0.7999999999999999"/>
<circle cx="176.5" cy="399.6" r="2.6" fill="none" stroke="#d4a017" stroke-width="1.8" opacity="0.7999999999999999"/>
<circle cx="187.2" cy="390.0" r="2.6" fill="none" stroke="#d4a017" stroke-width="1.8" opacity="0.7999999999999999"/>
<circle cx="197.9" cy="383.3" r="2.6" fill="none" stroke="#d4a017" stroke-width="1.8" opacity="0.7999999999999999"/>
<circle cx="219.2" cy="394.8" r="2.6" fill="none" stroke="#d4a017" stroke-width="1.8" opacity="0.7999999999999999"/>
<circle cx="272.5" cy="394.1" r="2.6" fill="none" stroke="#d4a017" stroke-width="1.8" opacity="0.7999999999999999"/>
<circle cx="379.2" cy="403.1" r="2.6" fill="none" stroke="#d4a017" stroke-width="1.8" opacity="0.7999999999999999"/>
<circle cx="443.2" cy="401.0" r="2.6" fill="none" stroke="#d4a017" stroke-width="1.8" opacity="0.7999999999999999"/>
<circle cx="571.2" cy="394.2" r="2.6" fill="none" stroke="#d4a017" stroke-width="1.8" opacity="0.7999999999999999"/>
<circle cx="635.2" cy="400.4" r="2.6" fill="none" stroke="#d4a017" stroke-width="1.8" opacity="0.7999999999999999"/>
<circle cx="688.5" cy="365.4" r="2.6" fill="none" stroke="#d4a017" stroke-width="1.8" opacity="0.7999999999999999"/>
<circle cx="699.2" cy="399.3" r="2.6" fill="none" stroke="#d4a017" stroke-width="1.8" opacity="0.7999999999999999"/>
<circle cx="773.8" cy="402.2" r="2.6" fill="none" stroke="#d4a017" stroke-width="1.8" opacity="0.7999999999999999"/>
<circle cx="847" cy="84" r="5" fill="#ff922b"/>
<text x="866" y="88" font-size="13" fill="#c9d1d9" font-weight="700">Kāra</text>
<line x1="836" y1="108" x2="858" y2="108" stroke="#a7b0bc" stroke-width="2" stroke-dasharray="5 4"/>
<text x="866" y="112" font-size="13" fill="#c9d1d9" font-weight="400">Rust (default) = 1.0×</text>
<circle cx="847" cy="132" r="4" fill="#3fb950"/>
<text x="866" y="136" font-size="13" fill="#c9d1d9" font-weight="400">C</text>
<circle cx="847" cy="156" r="4" fill="#bc8cff"/>
<text x="866" y="160" font-size="13" fill="#c9d1d9" font-weight="400">Go</text>
<circle cx="847" cy="180" r="4" fill="none" stroke="#d4a017" stroke-width="1.8"/>
<text x="866" y="184" font-size="12" fill="#c9d1d9" font-weight="400">Rust (checked)</text>
<text x="70" y="502" font-size="11.5" fill="#c9d1d9">Solid Rust = 1.0× is the release default — it wraps silently on overflow. Hollow rings ◌ are Rust built overflow-checked,</text>
<text x="70" y="518" font-size="11.5" fill="#c9d1d9">the same safety kāra enforces by default: median 1.05× the cost of plain Rust across the 14 overflow-exercising programs. At that matched safety kāra is ≈ 1.04× — compare kāra to the rings.</text>
<text x="70" y="538" font-size="11.5" fill="#8b949e">Each dot is one benchmarked program (kata × approach); there is no connecting line because left-to-right order is not meaningful. Raw numbers: bench-results.json</text>
</svg>