<svg xmlns="http://www.w3.org/2000/svg" width="980" height="560" viewBox="0 0 980 560" font-family="-apple-system,Segoe UI,Helvetica,Arial,sans-serif">
<rect width="980" height="560" fill="#282c34"/>
<text x="70" y="34" font-size="21" font-weight="700" fill="#c9d1d9">Runtime — sequential lane</text>
<text x="70" y="56" font-size="13" fill="#8b949e">relative to Rust (default) = 1.0 · lower = faster · 92 programs</text>
<line x1="70" y1="456.0" x2="812" y2="456.0" stroke="#3b414b" stroke-width="1"/>
<text x="60" y="460.0" font-size="12" text-anchor="end" fill="#8b949e">0.0×</text>
<line x1="70" y1="402.0" x2="812" y2="402.0" stroke="#a7b0bc" stroke-width="2" stroke-dasharray="5 4"/>
<text x="60" y="406.0" font-size="12" text-anchor="end" fill="#aeb6c0" font-weight="700">1.0×</text>
<line x1="70" y1="380.4" x2="812" y2="380.4" stroke="#3b414b" stroke-width="1"/>
<text x="60" y="384.4" font-size="12" text-anchor="end" fill="#8b949e">1.4×</text>
<line x1="70" y1="304.8" x2="812" y2="304.8" stroke="#3b414b" stroke-width="1"/>
<text x="60" y="308.8" font-size="12" text-anchor="end" fill="#8b949e">2.8×</text>
<line x1="70" y1="229.2" x2="812" y2="229.2" stroke="#3b414b" stroke-width="1"/>
<text x="60" y="233.2" font-size="12" text-anchor="end" fill="#8b949e">4.2×</text>
<line x1="70" y1="153.6" x2="812" y2="153.6" stroke="#3b414b" stroke-width="1"/>
<text x="60" y="157.6" font-size="12" text-anchor="end" fill="#8b949e">5.6×</text>
<line x1="70" y1="78.0" x2="812" y2="78.0" stroke="#3b414b" stroke-width="1"/>
<text x="60" y="82.0" font-size="12" text-anchor="end" fill="#8b949e">7.0×</text>
<text x="812" y="396.0" font-size="11" text-anchor="end" fill="#aeb6c0">Rust (default) baseline</text>
<line x1="70" y1="456" x2="812" y2="456" stroke="#3b414b"/>
<text x="441.0" y="478" font-size="11" text-anchor="middle" fill="#8b949e">92 programs (kata × approach) — x-order carries no meaning</text>
<circle cx="99.2" cy="402.1" r="2.6" fill="#3fb950" opacity="0.7"/>
<circle cx="106.7" cy="421.6" r="2.6" fill="#3fb950" opacity="0.7"/>
<circle cx="114.2" cy="425.2" r="2.6" fill="#3fb950" opacity="0.7"/>
<circle cx="121.7" cy="442.8" r="2.6" fill="#3fb950" opacity="0.7"/>
<circle cx="129.2" cy="413.8" r="2.6" fill="#3fb950" opacity="0.7"/>
<circle cx="136.7" cy="411.4" r="2.6" fill="#3fb950" opacity="0.7"/>
<circle cx="144.2" cy="402.3" r="2.6" fill="#3fb950" opacity="0.7"/>
<circle cx="151.7" cy="399.7" r="2.6" fill="#3fb950" opacity="0.7"/>
<circle cx="159.2" cy="397.0" r="2.6" fill="#3fb950" opacity="0.7"/>
<circle cx="166.7" cy="395.5" r="2.6" fill="#3fb950" opacity="0.7"/>
<circle cx="174.2" cy="402.1" r="2.6" fill="#3fb950" opacity="0.7"/>
<circle cx="181.7" cy="409.1" r="2.6" fill="#3fb950" opacity="0.7"/>
<circle cx="189.2" cy="395.6" r="2.6" fill="#3fb950" opacity="0.7"/>
<circle cx="196.7" cy="399.0" r="2.6" fill="#3fb950" opacity="0.7"/>
<circle cx="204.2" cy="413.4" r="2.6" fill="#3fb950" opacity="0.7"/>
<circle cx="211.7" cy="397.3" r="2.6" fill="#3fb950" opacity="0.7"/>
<circle cx="219.2" cy="357.8" r="2.6" fill="#3fb950" opacity="0.7"/>
<circle cx="226.7" cy="415.1" r="2.6" fill="#3fb950" opacity="0.7"/>
<circle cx="234.2" cy="403.5" r="2.6" fill="#3fb950" opacity="0.7"/>
<circle cx="241.7" cy="423.2" r="2.6" fill="#3fb950" opacity="0.7"/>
<circle cx="249.2" cy="406.5" r="2.6" fill="#3fb950" opacity="0.7"/>
<circle cx="256.7" cy="419.9" r="2.6" fill="#3fb950" opacity="0.7"/>
<circle cx="264.2" cy="439.8" r="2.6" fill="#3fb950" opacity="0.7"/>
<circle cx="271.7" cy="424.6" r="2.6" fill="#3fb950" opacity="0.7"/>
<circle cx="279.2" cy="418.3" r="2.6" fill="#3fb950" opacity="0.7"/>
<circle cx="286.7" cy="420.5" r="2.6" fill="#3fb950" opacity="0.7"/>
<circle cx="294.2" cy="400.5" r="2.6" fill="#3fb950" opacity="0.7"/>
<circle cx="301.7" cy="400.0" r="2.6" fill="#3fb950" opacity="0.7"/>
<circle cx="309.2" cy="402.1" r="2.6" fill="#3fb950" opacity="0.7"/>
<circle cx="316.7" cy="414.5" r="2.6" fill="#3fb950" opacity="0.7"/>
<circle cx="324.2" cy="401.5" r="2.6" fill="#3fb950" opacity="0.7"/>
<circle cx="331.7" cy="435.9" r="2.6" fill="#3fb950" opacity="0.7"/>
<circle cx="339.2" cy="402.2" r="2.6" fill="#3fb950" opacity="0.7"/>
<circle cx="346.7" cy="421.6" r="2.6" fill="#3fb950" opacity="0.7"/>
<circle cx="354.2" cy="415.8" r="2.6" fill="#3fb950" opacity="0.7"/>
<circle cx="361.7" cy="417.3" r="2.6" fill="#3fb950" opacity="0.7"/>
<circle cx="369.2" cy="417.7" r="2.6" fill="#3fb950" opacity="0.7"/>
<circle cx="376.7" cy="402.4" r="2.6" fill="#3fb950" opacity="0.7"/>
<circle cx="384.2" cy="382.1" r="2.6" fill="#3fb950" opacity="0.7"/>
<circle cx="391.7" cy="413.8" r="2.6" fill="#3fb950" opacity="0.7"/>
<circle cx="399.2" cy="398.2" r="2.6" fill="#3fb950" opacity="0.7"/>
<circle cx="406.7" cy="401.5" r="2.6" fill="#3fb950" opacity="0.7"/>
<circle cx="414.2" cy="404.4" r="2.6" fill="#3fb950" opacity="0.7"/>
<circle cx="421.7" cy="403.9" r="2.6" fill="#3fb950" opacity="0.7"/>
<circle cx="429.2" cy="431.2" r="2.6" fill="#3fb950" opacity="0.7"/>
<circle cx="436.7" cy="404.3" r="2.6" fill="#3fb950" opacity="0.7"/>
<circle cx="444.2" cy="400.0" r="2.6" fill="#3fb950" opacity="0.7"/>
<circle cx="451.7" cy="398.4" r="2.6" fill="#3fb950" opacity="0.7"/>
<circle cx="459.2" cy="403.7" r="2.6" fill="#3fb950" opacity="0.7"/>
<circle cx="466.7" cy="404.7" r="2.6" fill="#3fb950" opacity="0.7"/>
<circle cx="474.2" cy="435.3" r="2.6" fill="#3fb950" opacity="0.7"/>
<circle cx="481.7" cy="424.2" r="2.6" fill="#3fb950" opacity="0.7"/>
<circle cx="489.3" cy="386.9" r="2.6" fill="#3fb950" opacity="0.7"/>
<circle cx="496.8" cy="402.3" r="2.6" fill="#3fb950" opacity="0.7"/>
<circle cx="504.3" cy="402.1" r="2.6" fill="#3fb950" opacity="0.7"/>
<circle cx="511.8" cy="408.1" r="2.6" fill="#3fb950" opacity="0.7"/>
<circle cx="519.3" cy="400.9" r="2.6" fill="#3fb950" opacity="0.7"/>
<circle cx="526.8" cy="369.7" r="2.6" fill="#3fb950" opacity="0.7"/>
<circle cx="534.3" cy="441.3" r="2.6" fill="#3fb950" opacity="0.7"/>
<circle cx="541.8" cy="409.4" r="2.6" fill="#3fb950" opacity="0.7"/>
<circle cx="549.3" cy="438.7" r="2.6" fill="#3fb950" opacity="0.7"/>
<circle cx="556.8" cy="401.9" r="2.6" fill="#3fb950" opacity="0.7"/>
<circle cx="564.3" cy="424.3" r="2.6" fill="#3fb950" opacity="0.7"/>
<circle cx="571.8" cy="401.6" r="2.6" fill="#3fb950" opacity="0.7"/>
<circle cx="579.3" cy="401.9" r="2.6" fill="#3fb950" opacity="0.7"/>
<circle cx="586.8" cy="402.1" r="2.6" fill="#3fb950" opacity="0.7"/>
<circle cx="594.3" cy="393.0" r="2.6" fill="#3fb950" opacity="0.7"/>
<circle cx="601.8" cy="405.6" r="2.6" fill="#3fb950" opacity="0.7"/>
<circle cx="609.3" cy="401.9" r="2.6" fill="#3fb950" opacity="0.7"/>
<circle cx="616.8" cy="412.7" r="2.6" fill="#3fb950" opacity="0.7"/>
<circle cx="624.3" cy="401.6" r="2.6" fill="#3fb950" opacity="0.7"/>
<circle cx="631.8" cy="450.6" r="2.6" fill="#3fb950" opacity="0.7"/>
<circle cx="639.3" cy="372.4" r="2.6" fill="#3fb950" opacity="0.7"/>
<circle cx="646.8" cy="391.1" r="2.6" fill="#3fb950" opacity="0.7"/>
<circle cx="654.3" cy="419.1" r="2.6" fill="#3fb950" opacity="0.7"/>
<circle cx="661.8" cy="395.0" r="2.6" fill="#3fb950" opacity="0.7"/>
<circle cx="669.3" cy="403.0" r="2.6" fill="#3fb950" opacity="0.7"/>
<circle cx="676.8" cy="404.2" r="2.6" fill="#3fb950" opacity="0.7"/>
<circle cx="684.3" cy="425.5" r="2.6" fill="#3fb950" opacity="0.7"/>
<circle cx="691.8" cy="445.3" r="2.6" fill="#3fb950" opacity="0.7"/>
<circle cx="699.3" cy="415.3" r="2.6" fill="#3fb950" opacity="0.7"/>
<circle cx="706.8" cy="410.4" r="2.6" fill="#3fb950" opacity="0.7"/>
<circle cx="714.3" cy="404.0" r="2.6" fill="#3fb950" opacity="0.7"/>
<circle cx="721.8" cy="402.7" r="2.6" fill="#3fb950" opacity="0.7"/>
<circle cx="729.3" cy="412.4" r="2.6" fill="#3fb950" opacity="0.7"/>
<circle cx="736.8" cy="407.1" r="2.6" fill="#3fb950" opacity="0.7"/>
<circle cx="744.3" cy="411.4" r="2.6" fill="#3fb950" opacity="0.7"/>
<circle cx="751.8" cy="452.2" r="2.6" fill="#3fb950" opacity="0.7"/>
<circle cx="759.3" cy="447.1" r="2.6" fill="#3fb950" opacity="0.7"/>
<circle cx="766.8" cy="406.6" r="2.6" fill="#3fb950" opacity="0.7"/>
<circle cx="774.3" cy="391.2" r="2.6" fill="#3fb950" opacity="0.7"/>
<circle cx="781.8" cy="416.2" r="2.6" fill="#3fb950" opacity="0.7"/>
<circle cx="100.2" cy="401.6" r="2.6" fill="#bc8cff" opacity="0.7"/>
<circle cx="107.7" cy="392.0" r="2.6" fill="#bc8cff" opacity="0.7"/>
<circle cx="115.2" cy="428.8" r="2.6" fill="#bc8cff" opacity="0.7"/>
<circle cx="122.7" cy="392.5" r="2.6" fill="#bc8cff" opacity="0.7"/>
<circle cx="130.2" cy="358.8" r="2.6" fill="#bc8cff" opacity="0.7"/>
<circle cx="137.7" cy="391.4" r="2.6" fill="#bc8cff" opacity="0.7"/>
<circle cx="145.2" cy="315.8" r="2.6" fill="#bc8cff" opacity="0.7"/>
<circle cx="152.7" cy="393.4" r="2.6" fill="#bc8cff" opacity="0.7"/>
<circle cx="160.2" cy="385.2" r="2.6" fill="#bc8cff" opacity="0.7"/>
<circle cx="167.7" cy="362.9" r="2.6" fill="#bc8cff" opacity="0.7"/>
<circle cx="175.2" cy="372.1" r="2.6" fill="#bc8cff" opacity="0.7"/>
<circle cx="182.7" cy="423.7" r="2.6" fill="#bc8cff" opacity="0.7"/>
<circle cx="190.2" cy="401.0" r="2.6" fill="#bc8cff" opacity="0.7"/>
<circle cx="197.7" cy="400.3" r="2.6" fill="#bc8cff" opacity="0.7"/>
<circle cx="205.2" cy="412.8" r="2.6" fill="#bc8cff" opacity="0.7"/>
<circle cx="212.7" cy="373.1" r="2.6" fill="#bc8cff" opacity="0.7"/>
<circle cx="220.2" cy="302.1" r="2.6" fill="#bc8cff" opacity="0.7"/>
<circle cx="227.7" cy="419.5" r="2.6" fill="#bc8cff" opacity="0.7"/>
<circle cx="235.2" cy="385.6" r="2.6" fill="#bc8cff" opacity="0.7"/>
<circle cx="242.7" cy="428.9" r="2.6" fill="#bc8cff" opacity="0.7"/>
<circle cx="250.2" cy="395.8" r="2.6" fill="#bc8cff" opacity="0.7"/>
<circle cx="257.7" cy="422.8" r="2.6" fill="#bc8cff" opacity="0.7"/>
<circle cx="265.2" cy="437.9" r="2.6" fill="#bc8cff" opacity="0.7"/>
<circle cx="272.7" cy="429.5" r="2.6" fill="#bc8cff" opacity="0.7"/>
<circle cx="280.2" cy="423.4" r="2.6" fill="#bc8cff" opacity="0.7"/>
<circle cx="287.7" cy="424.6" r="2.6" fill="#bc8cff" opacity="0.7"/>
<circle cx="295.2" cy="394.3" r="2.6" fill="#bc8cff" opacity="0.7"/>
<circle cx="302.7" cy="388.7" r="2.6" fill="#bc8cff" opacity="0.7"/>
<circle cx="310.2" cy="276.0" r="2.6" fill="#bc8cff" opacity="0.7"/>
<circle cx="317.7" cy="378.6" r="2.6" fill="#bc8cff" opacity="0.7"/>
<circle cx="325.2" cy="393.5" r="2.6" fill="#bc8cff" opacity="0.7"/>
<circle cx="332.7" cy="319.9" r="2.6" fill="#bc8cff" opacity="0.7"/>
<circle cx="340.2" cy="396.2" r="2.6" fill="#bc8cff" opacity="0.7"/>
<circle cx="347.7" cy="340.6" r="2.6" fill="#bc8cff" opacity="0.7"/>
<circle cx="355.2" cy="400.8" r="2.6" fill="#bc8cff" opacity="0.7"/>
<circle cx="362.7" cy="416.0" r="2.6" fill="#bc8cff" opacity="0.7"/>
<circle cx="370.2" cy="359.7" r="2.6" fill="#bc8cff" opacity="0.7"/>
<circle cx="377.7" cy="340.0" r="2.6" fill="#bc8cff" opacity="0.7"/>
<circle cx="385.2" cy="371.7" r="2.6" fill="#bc8cff" opacity="0.7"/>
<circle cx="392.7" cy="424.3" r="2.6" fill="#bc8cff" opacity="0.7"/>
<circle cx="400.3" cy="391.5" r="2.6" fill="#bc8cff" opacity="0.7"/>
<circle cx="407.8" cy="394.2" r="2.6" fill="#bc8cff" opacity="0.7"/>
<circle cx="415.3" cy="396.9" r="2.6" fill="#bc8cff" opacity="0.7"/>
<circle cx="422.8" cy="438.7" r="2.6" fill="#bc8cff" opacity="0.7"/>
<circle cx="430.3" cy="393.1" r="2.6" fill="#bc8cff" opacity="0.7"/>
<circle cx="437.8" cy="399.1" r="2.6" fill="#bc8cff" opacity="0.7"/>
<circle cx="445.3" cy="401.0" r="2.6" fill="#bc8cff" opacity="0.7"/>
<circle cx="452.8" cy="382.5" r="2.6" fill="#bc8cff" opacity="0.7"/>
<circle cx="460.3" cy="392.8" r="2.6" fill="#bc8cff" opacity="0.7"/>
<circle cx="467.8" cy="395.2" r="2.6" fill="#bc8cff" opacity="0.7"/>
<circle cx="475.3" cy="314.2" r="2.6" fill="#bc8cff" opacity="0.7"/>
<circle cx="482.8" cy="418.1" r="2.6" fill="#bc8cff" opacity="0.7"/>
<circle cx="490.3" cy="330.6" r="2.6" fill="#bc8cff" opacity="0.7"/>
<circle cx="497.8" cy="334.6" r="2.6" fill="#bc8cff" opacity="0.7"/>
<circle cx="505.3" cy="340.9" r="2.6" fill="#bc8cff" opacity="0.7"/>
<circle cx="512.8" cy="355.5" r="2.6" fill="#bc8cff" opacity="0.7"/>
<circle cx="520.3" cy="415.5" r="2.6" fill="#bc8cff" opacity="0.7"/>
<circle cx="527.8" cy="88.9" r="2.6" fill="#bc8cff" opacity="0.7"/>
<circle cx="535.3" cy="429.1" r="2.6" fill="#bc8cff" opacity="0.7"/>
<circle cx="542.8" cy="381.4" r="2.6" fill="#bc8cff" opacity="0.7"/>
<circle cx="550.3" cy="438.7" r="2.6" fill="#bc8cff" opacity="0.7"/>
<circle cx="557.8" cy="377.1" r="2.6" fill="#bc8cff" opacity="0.7"/>
<circle cx="565.3" cy="432.6" r="2.6" fill="#bc8cff" opacity="0.7"/>
<circle cx="572.8" cy="339.0" r="2.6" fill="#bc8cff" opacity="0.7"/>
<circle cx="580.3" cy="361.5" r="2.6" fill="#bc8cff" opacity="0.7"/>
<circle cx="587.8" cy="405.7" r="2.6" fill="#bc8cff" opacity="0.7"/>
<circle cx="595.3" cy="389.7" r="2.6" fill="#bc8cff" opacity="0.7"/>
<circle cx="602.8" cy="405.6" r="2.6" fill="#bc8cff" opacity="0.7"/>
<circle cx="610.3" cy="400.0" r="2.6" fill="#bc8cff" opacity="0.7"/>
<circle cx="617.8" cy="398.8" r="2.6" fill="#bc8cff" opacity="0.7"/>
<circle cx="625.3" cy="396.6" r="2.6" fill="#bc8cff" opacity="0.7"/>
<circle cx="632.8" cy="433.3" r="2.6" fill="#bc8cff" opacity="0.7"/>
<circle cx="640.3" cy="416.4" r="2.6" fill="#bc8cff" opacity="0.7"/>
<circle cx="647.8" cy="409.0" r="2.6" fill="#bc8cff" opacity="0.7"/>
<circle cx="655.3" cy="388.8" r="2.6" fill="#bc8cff" opacity="0.7"/>
<circle cx="662.8" cy="386.6" r="2.6" fill="#bc8cff" opacity="0.7"/>
<circle cx="670.3" cy="416.4" r="2.6" fill="#bc8cff" opacity="0.7"/>
<circle cx="677.8" cy="397.7" r="2.6" fill="#bc8cff" opacity="0.7"/>
<circle cx="685.3" cy="408.7" r="2.6" fill="#bc8cff" opacity="0.7"/>
<circle cx="692.8" cy="399.4" r="2.6" fill="#bc8cff" opacity="0.7"/>
<circle cx="700.3" cy="419.2" r="2.6" fill="#bc8cff" opacity="0.7"/>
<circle cx="707.8" cy="362.8" r="2.6" fill="#bc8cff" opacity="0.7"/>
<circle cx="715.3" cy="396.9" r="2.6" fill="#bc8cff" opacity="0.7"/>
<circle cx="722.8" cy="408.9" r="2.6" fill="#bc8cff" opacity="0.7"/>
<circle cx="730.3" cy="400.6" r="2.6" fill="#bc8cff" opacity="0.7"/>
<circle cx="737.8" cy="404.0" r="2.6" fill="#bc8cff" opacity="0.7"/>
<circle cx="745.3" cy="418.5" r="2.6" fill="#bc8cff" opacity="0.7"/>
<circle cx="752.8" cy="444.8" r="2.6" fill="#bc8cff" opacity="0.7"/>
<circle cx="760.3" cy="419.4" r="2.6" fill="#bc8cff" opacity="0.7"/>
<circle cx="767.8" cy="409.4" r="2.6" fill="#bc8cff" opacity="0.7"/>
<circle cx="775.3" cy="258.5" r="2.6" fill="#bc8cff" opacity="0.7"/>
<circle cx="782.8" cy="362.5" r="2.6" fill="#bc8cff" opacity="0.7"/>
<circle cx="98.2" cy="394.1" r="3.2" fill="#ff922b" opacity="0.85"/>
<circle cx="105.7" cy="414.9" r="3.2" fill="#ff922b" opacity="0.85"/>
<circle cx="113.2" cy="426.6" r="3.2" fill="#ff922b" opacity="0.85"/>
<circle cx="120.7" cy="431.8" r="3.2" fill="#ff922b" opacity="0.85"/>
<circle cx="128.2" cy="398.4" r="3.2" fill="#ff922b" opacity="0.85"/>
<circle cx="135.7" cy="381.7" r="3.2" fill="#ff922b" opacity="0.85"/>
<circle cx="143.2" cy="399.1" r="3.2" fill="#ff922b" opacity="0.85"/>
<circle cx="150.7" cy="391.9" r="3.2" fill="#ff922b" opacity="0.85"/>
<circle cx="158.2" cy="380.1" r="3.2" fill="#ff922b" opacity="0.85"/>
<circle cx="165.7" cy="377.3" r="3.2" fill="#ff922b" opacity="0.85"/>
<circle cx="173.2" cy="396.9" r="3.2" fill="#ff922b" opacity="0.85"/>
<circle cx="180.7" cy="394.4" r="3.2" fill="#ff922b" opacity="0.85"/>
<circle cx="188.2" cy="404.1" r="3.2" fill="#ff922b" opacity="0.85"/>
<circle cx="195.7" cy="404.0" r="3.2" fill="#ff922b" opacity="0.85"/>
<circle cx="203.2" cy="395.7" r="3.2" fill="#ff922b" opacity="0.85"/>
<circle cx="210.7" cy="401.0" r="3.2" fill="#ff922b" opacity="0.85"/>
<circle cx="218.2" cy="395.5" r="3.2" fill="#ff922b" opacity="0.85"/>
<circle cx="225.7" cy="391.0" r="3.2" fill="#ff922b" opacity="0.85"/>
<circle cx="233.2" cy="399.4" r="3.2" fill="#ff922b" opacity="0.85"/>
<circle cx="240.7" cy="414.3" r="3.2" fill="#ff922b" opacity="0.85"/>
<circle cx="248.2" cy="410.0" r="3.2" fill="#ff922b" opacity="0.85"/>
<circle cx="255.7" cy="405.1" r="3.2" fill="#ff922b" opacity="0.85"/>
<circle cx="263.2" cy="437.8" r="3.2" fill="#ff922b" opacity="0.85"/>
<circle cx="270.7" cy="409.2" r="3.2" fill="#ff922b" opacity="0.85"/>
<circle cx="278.2" cy="409.6" r="3.2" fill="#ff922b" opacity="0.85"/>
<circle cx="285.7" cy="405.6" r="3.2" fill="#ff922b" opacity="0.85"/>
<circle cx="293.2" cy="396.3" r="3.2" fill="#ff922b" opacity="0.85"/>
<circle cx="300.7" cy="398.6" r="3.2" fill="#ff922b" opacity="0.85"/>
<circle cx="308.2" cy="402.5" r="3.2" fill="#ff922b" opacity="0.85"/>
<circle cx="315.7" cy="402.1" r="3.2" fill="#ff922b" opacity="0.85"/>
<circle cx="323.2" cy="400.7" r="3.2" fill="#ff922b" opacity="0.85"/>
<circle cx="330.7" cy="363.0" r="3.2" fill="#ff922b" opacity="0.85"/>
<circle cx="338.2" cy="401.0" r="3.2" fill="#ff922b" opacity="0.85"/>
<circle cx="345.7" cy="400.3" r="3.2" fill="#ff922b" opacity="0.85"/>
<circle cx="353.2" cy="397.1" r="3.2" fill="#ff922b" opacity="0.85"/>
<circle cx="360.7" cy="396.1" r="3.2" fill="#ff922b" opacity="0.85"/>
<circle cx="368.2" cy="395.6" r="3.2" fill="#ff922b" opacity="0.85"/>
<circle cx="375.7" cy="426.2" r="3.2" fill="#ff922b" opacity="0.85"/>
<circle cx="383.2" cy="403.8" r="3.2" fill="#ff922b" opacity="0.85"/>
<circle cx="390.7" cy="389.3" r="3.2" fill="#ff922b" opacity="0.85"/>
<circle cx="398.2" cy="377.0" r="3.2" fill="#ff922b" opacity="0.85"/>
<circle cx="405.7" cy="379.7" r="3.2" fill="#ff922b" opacity="0.85"/>
<circle cx="413.2" cy="404.6" r="3.2" fill="#ff922b" opacity="0.85"/>
<circle cx="420.7" cy="437.7" r="3.2" fill="#ff922b" opacity="0.85"/>
<circle cx="428.2" cy="382.6" r="3.2" fill="#ff922b" opacity="0.85"/>
<circle cx="435.7" cy="394.7" r="3.2" fill="#ff922b" opacity="0.85"/>
<circle cx="443.2" cy="399.6" r="3.2" fill="#ff922b" opacity="0.85"/>
<circle cx="450.7" cy="385.6" r="3.2" fill="#ff922b" opacity="0.85"/>
<circle cx="458.2" cy="402.9" r="3.2" fill="#ff922b" opacity="0.85"/>
<circle cx="465.7" cy="396.3" r="3.2" fill="#ff922b" opacity="0.85"/>
<circle cx="473.2" cy="366.6" r="3.2" fill="#ff922b" opacity="0.85"/>
<circle cx="480.7" cy="403.7" r="3.2" fill="#ff922b" opacity="0.85"/>
<circle cx="488.2" cy="350.9" r="3.2" fill="#ff922b" opacity="0.85"/>
<circle cx="495.7" cy="344.5" r="3.2" fill="#ff922b" opacity="0.85"/>
<circle cx="503.2" cy="402.3" r="3.2" fill="#ff922b" opacity="0.85"/>
<circle cx="510.7" cy="391.9" r="3.2" fill="#ff922b" opacity="0.85"/>
<circle cx="518.2" cy="401.2" r="3.2" fill="#ff922b" opacity="0.85"/>
<circle cx="525.7" cy="397.4" r="3.2" fill="#ff922b" opacity="0.85"/>
<circle cx="533.2" cy="405.2" r="3.2" fill="#ff922b" opacity="0.85"/>
<circle cx="540.7" cy="377.3" r="3.2" fill="#ff922b" opacity="0.85"/>
<circle cx="548.2" cy="433.2" r="3.2" fill="#ff922b" opacity="0.85"/>
<circle cx="555.7" cy="400.3" r="3.2" fill="#ff922b" opacity="0.85"/>
<circle cx="563.2" cy="416.3" r="3.2" fill="#ff922b" opacity="0.85"/>
<circle cx="570.7" cy="401.1" r="3.2" fill="#ff922b" opacity="0.85"/>
<circle cx="578.2" cy="396.3" r="3.2" fill="#ff922b" opacity="0.85"/>
<circle cx="585.8" cy="408.2" r="3.2" fill="#ff922b" opacity="0.85"/>
<circle cx="593.3" cy="400.8" r="3.2" fill="#ff922b" opacity="0.85"/>
<circle cx="600.8" cy="405.5" r="3.2" fill="#ff922b" opacity="0.85"/>
<circle cx="608.3" cy="401.5" r="3.2" fill="#ff922b" opacity="0.85"/>
<circle cx="615.8" cy="380.1" r="3.2" fill="#ff922b" opacity="0.85"/>
<circle cx="623.3" cy="413.0" r="3.2" fill="#ff922b" opacity="0.85"/>
<circle cx="630.8" cy="397.9" r="3.2" fill="#ff922b" opacity="0.85"/>
<circle cx="638.3" cy="412.9" r="3.2" fill="#ff922b" opacity="0.85"/>
<circle cx="645.8" cy="427.1" r="3.2" fill="#ff922b" opacity="0.85"/>
<circle cx="653.3" cy="411.0" r="3.2" fill="#ff922b" opacity="0.85"/>
<circle cx="660.8" cy="398.1" r="3.2" fill="#ff922b" opacity="0.85"/>
<circle cx="668.3" cy="398.2" r="3.2" fill="#ff922b" opacity="0.85"/>
<circle cx="675.8" cy="399.7" r="3.2" fill="#ff922b" opacity="0.85"/>
<circle cx="683.3" cy="397.4" r="3.2" fill="#ff922b" opacity="0.85"/>
<circle cx="690.8" cy="449.9" r="3.2" fill="#ff922b" opacity="0.85"/>
<circle cx="698.3" cy="414.9" r="3.2" fill="#ff922b" opacity="0.85"/>
<circle cx="705.8" cy="407.0" r="3.2" fill="#ff922b" opacity="0.85"/>
<circle cx="713.3" cy="366.5" r="3.2" fill="#ff922b" opacity="0.85"/>
<circle cx="720.8" cy="399.1" r="3.2" fill="#ff922b" opacity="0.85"/>
<circle cx="728.3" cy="403.6" r="3.2" fill="#ff922b" opacity="0.85"/>
<circle cx="735.8" cy="408.3" r="3.2" fill="#ff922b" opacity="0.85"/>
<circle cx="743.3" cy="401.9" r="3.2" fill="#ff922b" opacity="0.85"/>
<circle cx="750.8" cy="386.1" r="3.2" fill="#ff922b" opacity="0.85"/>
<circle cx="758.3" cy="387.7" r="3.2" fill="#ff922b" opacity="0.85"/>
<circle cx="765.8" cy="401.6" r="3.2" fill="#ff922b" opacity="0.85"/>
<circle cx="773.3" cy="303.3" r="3.2" fill="#ff922b" opacity="0.85"/>
<circle cx="780.8" cy="365.5" r="3.2" fill="#ff922b" opacity="0.85"/>
<circle cx="123.7" cy="399.5" r="2.6" fill="none" stroke="#d4a017" stroke-width="1.8" opacity="0.7999999999999999"/>
<circle cx="131.2" cy="401.6" r="2.6" fill="none" stroke="#d4a017" stroke-width="1.8" opacity="0.7999999999999999"/>
<circle cx="153.7" cy="399.6" r="2.6" fill="none" stroke="#d4a017" stroke-width="1.8" opacity="0.7999999999999999"/>
<circle cx="161.2" cy="390.0" r="2.6" fill="none" stroke="#d4a017" stroke-width="1.8" opacity="0.7999999999999999"/>
<circle cx="168.7" cy="383.3" r="2.6" fill="none" stroke="#d4a017" stroke-width="1.8" opacity="0.7999999999999999"/>
<circle cx="183.7" cy="394.8" r="2.6" fill="none" stroke="#d4a017" stroke-width="1.8" opacity="0.7999999999999999"/>
<circle cx="221.2" cy="394.1" r="2.6" fill="none" stroke="#d4a017" stroke-width="1.8" opacity="0.7999999999999999"/>
<circle cx="296.2" cy="403.1" r="2.6" fill="none" stroke="#d4a017" stroke-width="1.8" opacity="0.7999999999999999"/>
<circle cx="341.3" cy="401.0" r="2.6" fill="none" stroke="#d4a017" stroke-width="1.8" opacity="0.7999999999999999"/>
<circle cx="431.3" cy="394.2" r="2.6" fill="none" stroke="#d4a017" stroke-width="1.8" opacity="0.7999999999999999"/>
<circle cx="678.8" cy="400.4" r="2.6" fill="none" stroke="#d4a017" stroke-width="1.8" opacity="0.7999999999999999"/>
<circle cx="716.3" cy="365.4" r="2.6" fill="none" stroke="#d4a017" stroke-width="1.8" opacity="0.7999999999999999"/>
<circle cx="723.8" cy="399.3" r="2.6" fill="none" stroke="#d4a017" stroke-width="1.8" opacity="0.7999999999999999"/>
<circle cx="776.3" cy="402.2" r="2.6" fill="none" stroke="#d4a017" stroke-width="1.8" opacity="0.7999999999999999"/>
<circle cx="847" cy="84" r="5" fill="#ff922b"/>
<text x="866" y="88" font-size="13" fill="#c9d1d9" font-weight="700">Kāra</text>
<line x1="836" y1="108" x2="858" y2="108" stroke="#a7b0bc" stroke-width="2" stroke-dasharray="5 4"/>
<text x="866" y="112" font-size="13" fill="#c9d1d9" font-weight="400">Rust (default) = 1.0×</text>
<circle cx="847" cy="132" r="4" fill="#3fb950"/>
<text x="866" y="136" font-size="13" fill="#c9d1d9" font-weight="400">C</text>
<circle cx="847" cy="156" r="4" fill="#bc8cff"/>
<text x="866" y="160" font-size="13" fill="#c9d1d9" font-weight="400">Go</text>
<circle cx="847" cy="180" r="4" fill="none" stroke="#d4a017" stroke-width="1.8"/>
<text x="866" y="184" font-size="12" fill="#c9d1d9" font-weight="400">Rust (checked)</text>
<text x="70" y="502" font-size="11.5" fill="#c9d1d9">Solid Rust = 1.0× is the release default — it wraps silently on overflow. Hollow rings ◌ are Rust built overflow-checked,</text>
<text x="70" y="518" font-size="11.5" fill="#c9d1d9">the same safety kāra enforces by default: median 1.05× the cost of plain Rust across the 14 overflow-exercising programs. At that matched safety kāra is ≈ 1.04× — compare kāra to the rings.</text>
<text x="70" y="538" font-size="11.5" fill="#8b949e">Each dot is one benchmarked program (kata × approach); there is no connecting line because left-to-right order is not meaningful. Raw numbers: bench-results.json</text>
</svg>