<svg xmlns="http://www.w3.org/2000/svg" width="980" height="560" viewBox="0 0 980 560" font-family="-apple-system,Segoe UI,Helvetica,Arial,sans-serif">
<rect width="980" height="560" fill="#282c34"/>
<text x="70" y="34" font-size="21" font-weight="700" fill="#c9d1d9">Runtime — sequential lane</text>
<text x="70" y="56" font-size="13" fill="#8b949e">relative to Rust (default) = 1.0 · lower = faster · 100 programs</text>
<line x1="70" y1="456.0" x2="812" y2="456.0" stroke="#3b414b" stroke-width="1"/>
<text x="60" y="460.0" font-size="12" text-anchor="end" fill="#8b949e">0.0×</text>
<line x1="70" y1="402.0" x2="812" y2="402.0" stroke="#a7b0bc" stroke-width="2" stroke-dasharray="5 4"/>
<text x="60" y="406.0" font-size="12" text-anchor="end" fill="#aeb6c0" font-weight="700">1.0×</text>
<line x1="70" y1="380.4" x2="812" y2="380.4" stroke="#3b414b" stroke-width="1"/>
<text x="60" y="384.4" font-size="12" text-anchor="end" fill="#8b949e">1.4×</text>
<line x1="70" y1="304.8" x2="812" y2="304.8" stroke="#3b414b" stroke-width="1"/>
<text x="60" y="308.8" font-size="12" text-anchor="end" fill="#8b949e">2.8×</text>
<line x1="70" y1="229.2" x2="812" y2="229.2" stroke="#3b414b" stroke-width="1"/>
<text x="60" y="233.2" font-size="12" text-anchor="end" fill="#8b949e">4.2×</text>
<line x1="70" y1="153.6" x2="812" y2="153.6" stroke="#3b414b" stroke-width="1"/>
<text x="60" y="157.6" font-size="12" text-anchor="end" fill="#8b949e">5.6×</text>
<line x1="70" y1="78.0" x2="812" y2="78.0" stroke="#3b414b" stroke-width="1"/>
<text x="60" y="82.0" font-size="12" text-anchor="end" fill="#8b949e">7.0×</text>
<text x="812" y="396.0" font-size="11" text-anchor="end" fill="#aeb6c0">Rust (default) baseline</text>
<line x1="70" y1="456" x2="812" y2="456" stroke="#3b414b"/>
<text x="441.0" y="478" font-size="11" text-anchor="middle" fill="#8b949e">100 programs (kata × approach) — x-order carries no meaning</text>
<circle cx="99.2" cy="402.1" r="2.6" fill="#3fb950" opacity="0.7"/>
<circle cx="106.1" cy="421.6" r="2.6" fill="#3fb950" opacity="0.7"/>
<circle cx="113.0" cy="425.2" r="2.6" fill="#3fb950" opacity="0.7"/>
<circle cx="119.9" cy="442.8" r="2.6" fill="#3fb950" opacity="0.7"/>
<circle cx="126.8" cy="413.8" r="2.6" fill="#3fb950" opacity="0.7"/>
<circle cx="133.7" cy="411.4" r="2.6" fill="#3fb950" opacity="0.7"/>
<circle cx="140.6" cy="402.3" r="2.6" fill="#3fb950" opacity="0.7"/>
<circle cx="147.5" cy="399.7" r="2.6" fill="#3fb950" opacity="0.7"/>
<circle cx="154.4" cy="397.0" r="2.6" fill="#3fb950" opacity="0.7"/>
<circle cx="161.3" cy="395.5" r="2.6" fill="#3fb950" opacity="0.7"/>
<circle cx="168.2" cy="402.1" r="2.6" fill="#3fb950" opacity="0.7"/>
<circle cx="175.1" cy="409.1" r="2.6" fill="#3fb950" opacity="0.7"/>
<circle cx="182.0" cy="395.6" r="2.6" fill="#3fb950" opacity="0.7"/>
<circle cx="188.9" cy="399.0" r="2.6" fill="#3fb950" opacity="0.7"/>
<circle cx="195.7" cy="413.4" r="2.6" fill="#3fb950" opacity="0.7"/>
<circle cx="202.6" cy="397.3" r="2.6" fill="#3fb950" opacity="0.7"/>
<circle cx="209.5" cy="357.8" r="2.6" fill="#3fb950" opacity="0.7"/>
<circle cx="216.4" cy="415.1" r="2.6" fill="#3fb950" opacity="0.7"/>
<circle cx="223.3" cy="403.5" r="2.6" fill="#3fb950" opacity="0.7"/>
<circle cx="230.2" cy="423.2" r="2.6" fill="#3fb950" opacity="0.7"/>
<circle cx="237.1" cy="406.5" r="2.6" fill="#3fb950" opacity="0.7"/>
<circle cx="244.0" cy="419.9" r="2.6" fill="#3fb950" opacity="0.7"/>
<circle cx="250.9" cy="439.8" r="2.6" fill="#3fb950" opacity="0.7"/>
<circle cx="257.8" cy="424.6" r="2.6" fill="#3fb950" opacity="0.7"/>
<circle cx="264.7" cy="418.3" r="2.6" fill="#3fb950" opacity="0.7"/>
<circle cx="271.6" cy="420.5" r="2.6" fill="#3fb950" opacity="0.7"/>
<circle cx="278.5" cy="400.5" r="2.6" fill="#3fb950" opacity="0.7"/>
<circle cx="285.4" cy="400.0" r="2.6" fill="#3fb950" opacity="0.7"/>
<circle cx="292.3" cy="402.1" r="2.6" fill="#3fb950" opacity="0.7"/>
<circle cx="299.2" cy="414.5" r="2.6" fill="#3fb950" opacity="0.7"/>
<circle cx="306.1" cy="401.5" r="2.6" fill="#3fb950" opacity="0.7"/>
<circle cx="313.0" cy="435.9" r="2.6" fill="#3fb950" opacity="0.7"/>
<circle cx="319.9" cy="402.2" r="2.6" fill="#3fb950" opacity="0.7"/>
<circle cx="326.8" cy="421.6" r="2.6" fill="#3fb950" opacity="0.7"/>
<circle cx="333.7" cy="415.8" r="2.6" fill="#3fb950" opacity="0.7"/>
<circle cx="340.5" cy="417.3" r="2.6" fill="#3fb950" opacity="0.7"/>
<circle cx="347.4" cy="417.7" r="2.6" fill="#3fb950" opacity="0.7"/>
<circle cx="354.3" cy="402.4" r="2.6" fill="#3fb950" opacity="0.7"/>
<circle cx="361.2" cy="382.1" r="2.6" fill="#3fb950" opacity="0.7"/>
<circle cx="368.1" cy="413.8" r="2.6" fill="#3fb950" opacity="0.7"/>
<circle cx="375.0" cy="398.2" r="2.6" fill="#3fb950" opacity="0.7"/>
<circle cx="381.9" cy="401.5" r="2.6" fill="#3fb950" opacity="0.7"/>
<circle cx="388.8" cy="404.4" r="2.6" fill="#3fb950" opacity="0.7"/>
<circle cx="395.7" cy="403.9" r="2.6" fill="#3fb950" opacity="0.7"/>
<circle cx="402.6" cy="431.2" r="2.6" fill="#3fb950" opacity="0.7"/>
<circle cx="409.5" cy="404.3" r="2.6" fill="#3fb950" opacity="0.7"/>
<circle cx="416.4" cy="400.0" r="2.6" fill="#3fb950" opacity="0.7"/>
<circle cx="423.3" cy="398.4" r="2.6" fill="#3fb950" opacity="0.7"/>
<circle cx="430.2" cy="403.7" r="2.6" fill="#3fb950" opacity="0.7"/>
<circle cx="437.1" cy="404.7" r="2.6" fill="#3fb950" opacity="0.7"/>
<circle cx="444.0" cy="435.3" r="2.6" fill="#3fb950" opacity="0.7"/>
<circle cx="450.9" cy="424.2" r="2.6" fill="#3fb950" opacity="0.7"/>
<circle cx="457.8" cy="386.9" r="2.6" fill="#3fb950" opacity="0.7"/>
<circle cx="464.7" cy="402.3" r="2.6" fill="#3fb950" opacity="0.7"/>
<circle cx="471.6" cy="402.1" r="2.6" fill="#3fb950" opacity="0.7"/>
<circle cx="478.5" cy="408.1" r="2.6" fill="#3fb950" opacity="0.7"/>
<circle cx="485.4" cy="400.9" r="2.6" fill="#3fb950" opacity="0.7"/>
<circle cx="492.2" cy="369.7" r="2.6" fill="#3fb950" opacity="0.7"/>
<circle cx="499.1" cy="441.3" r="2.6" fill="#3fb950" opacity="0.7"/>
<circle cx="506.0" cy="409.4" r="2.6" fill="#3fb950" opacity="0.7"/>
<circle cx="512.9" cy="438.7" r="2.6" fill="#3fb950" opacity="0.7"/>
<circle cx="519.8" cy="401.9" r="2.6" fill="#3fb950" opacity="0.7"/>
<circle cx="526.7" cy="424.3" r="2.6" fill="#3fb950" opacity="0.7"/>
<circle cx="533.6" cy="401.6" r="2.6" fill="#3fb950" opacity="0.7"/>
<circle cx="540.5" cy="401.9" r="2.6" fill="#3fb950" opacity="0.7"/>
<circle cx="547.4" cy="402.1" r="2.6" fill="#3fb950" opacity="0.7"/>
<circle cx="554.3" cy="393.0" r="2.6" fill="#3fb950" opacity="0.7"/>
<circle cx="561.2" cy="405.6" r="2.6" fill="#3fb950" opacity="0.7"/>
<circle cx="568.1" cy="401.9" r="2.6" fill="#3fb950" opacity="0.7"/>
<circle cx="575.0" cy="412.7" r="2.6" fill="#3fb950" opacity="0.7"/>
<circle cx="581.9" cy="401.6" r="2.6" fill="#3fb950" opacity="0.7"/>
<circle cx="588.8" cy="450.6" r="2.6" fill="#3fb950" opacity="0.7"/>
<circle cx="595.7" cy="372.4" r="2.6" fill="#3fb950" opacity="0.7"/>
<circle cx="602.6" cy="391.1" r="2.6" fill="#3fb950" opacity="0.7"/>
<circle cx="609.5" cy="401.7" r="2.6" fill="#3fb950" opacity="0.7"/>
<circle cx="616.4" cy="407.8" r="2.6" fill="#3fb950" opacity="0.7"/>
<circle cx="623.3" cy="402.6" r="2.6" fill="#3fb950" opacity="0.7"/>
<circle cx="630.2" cy="403.6" r="2.6" fill="#3fb950" opacity="0.7"/>
<circle cx="637.0" cy="402.9" r="2.6" fill="#3fb950" opacity="0.7"/>
<circle cx="643.9" cy="410.3" r="2.6" fill="#3fb950" opacity="0.7"/>
<circle cx="650.8" cy="402.4" r="2.6" fill="#3fb950" opacity="0.7"/>
<circle cx="657.7" cy="411.5" r="2.6" fill="#3fb950" opacity="0.7"/>
<circle cx="664.6" cy="419.1" r="2.6" fill="#3fb950" opacity="0.7"/>
<circle cx="671.5" cy="395.0" r="2.6" fill="#3fb950" opacity="0.7"/>
<circle cx="678.4" cy="403.0" r="2.6" fill="#3fb950" opacity="0.7"/>
<circle cx="685.3" cy="404.2" r="2.6" fill="#3fb950" opacity="0.7"/>
<circle cx="692.2" cy="425.5" r="2.6" fill="#3fb950" opacity="0.7"/>
<circle cx="699.1" cy="445.3" r="2.6" fill="#3fb950" opacity="0.7"/>
<circle cx="706.0" cy="415.3" r="2.6" fill="#3fb950" opacity="0.7"/>
<circle cx="712.9" cy="410.4" r="2.6" fill="#3fb950" opacity="0.7"/>
<circle cx="719.8" cy="404.0" r="2.6" fill="#3fb950" opacity="0.7"/>
<circle cx="726.7" cy="402.7" r="2.6" fill="#3fb950" opacity="0.7"/>
<circle cx="733.6" cy="412.4" r="2.6" fill="#3fb950" opacity="0.7"/>
<circle cx="740.5" cy="407.1" r="2.6" fill="#3fb950" opacity="0.7"/>
<circle cx="747.4" cy="411.4" r="2.6" fill="#3fb950" opacity="0.7"/>
<circle cx="754.3" cy="452.2" r="2.6" fill="#3fb950" opacity="0.7"/>
<circle cx="761.2" cy="447.1" r="2.6" fill="#3fb950" opacity="0.7"/>
<circle cx="768.1" cy="406.6" r="2.6" fill="#3fb950" opacity="0.7"/>
<circle cx="775.0" cy="391.2" r="2.6" fill="#3fb950" opacity="0.7"/>
<circle cx="781.9" cy="416.2" r="2.6" fill="#3fb950" opacity="0.7"/>
<circle cx="100.1" cy="401.6" r="2.6" fill="#bc8cff" opacity="0.7"/>
<circle cx="107.0" cy="392.0" r="2.6" fill="#bc8cff" opacity="0.7"/>
<circle cx="113.9" cy="428.8" r="2.6" fill="#bc8cff" opacity="0.7"/>
<circle cx="120.8" cy="392.5" r="2.6" fill="#bc8cff" opacity="0.7"/>
<circle cx="127.7" cy="358.8" r="2.6" fill="#bc8cff" opacity="0.7"/>
<circle cx="134.6" cy="391.4" r="2.6" fill="#bc8cff" opacity="0.7"/>
<circle cx="141.5" cy="315.8" r="2.6" fill="#bc8cff" opacity="0.7"/>
<circle cx="148.4" cy="393.4" r="2.6" fill="#bc8cff" opacity="0.7"/>
<circle cx="155.3" cy="385.2" r="2.6" fill="#bc8cff" opacity="0.7"/>
<circle cx="162.2" cy="362.9" r="2.6" fill="#bc8cff" opacity="0.7"/>
<circle cx="169.1" cy="372.1" r="2.6" fill="#bc8cff" opacity="0.7"/>
<circle cx="176.0" cy="423.7" r="2.6" fill="#bc8cff" opacity="0.7"/>
<circle cx="182.9" cy="401.0" r="2.6" fill="#bc8cff" opacity="0.7"/>
<circle cx="189.8" cy="400.3" r="2.6" fill="#bc8cff" opacity="0.7"/>
<circle cx="196.7" cy="412.8" r="2.6" fill="#bc8cff" opacity="0.7"/>
<circle cx="203.6" cy="373.1" r="2.6" fill="#bc8cff" opacity="0.7"/>
<circle cx="210.5" cy="302.1" r="2.6" fill="#bc8cff" opacity="0.7"/>
<circle cx="217.4" cy="419.5" r="2.6" fill="#bc8cff" opacity="0.7"/>
<circle cx="224.3" cy="385.6" r="2.6" fill="#bc8cff" opacity="0.7"/>
<circle cx="231.2" cy="428.9" r="2.6" fill="#bc8cff" opacity="0.7"/>
<circle cx="238.1" cy="395.8" r="2.6" fill="#bc8cff" opacity="0.7"/>
<circle cx="245.0" cy="422.8" r="2.6" fill="#bc8cff" opacity="0.7"/>
<circle cx="251.8" cy="437.9" r="2.6" fill="#bc8cff" opacity="0.7"/>
<circle cx="258.7" cy="429.5" r="2.6" fill="#bc8cff" opacity="0.7"/>
<circle cx="265.6" cy="423.4" r="2.6" fill="#bc8cff" opacity="0.7"/>
<circle cx="272.5" cy="424.6" r="2.6" fill="#bc8cff" opacity="0.7"/>
<circle cx="279.4" cy="394.3" r="2.6" fill="#bc8cff" opacity="0.7"/>
<circle cx="286.3" cy="388.7" r="2.6" fill="#bc8cff" opacity="0.7"/>
<circle cx="293.2" cy="276.0" r="2.6" fill="#bc8cff" opacity="0.7"/>
<circle cx="300.1" cy="378.6" r="2.6" fill="#bc8cff" opacity="0.7"/>
<circle cx="307.0" cy="393.5" r="2.6" fill="#bc8cff" opacity="0.7"/>
<circle cx="313.9" cy="319.9" r="2.6" fill="#bc8cff" opacity="0.7"/>
<circle cx="320.8" cy="396.2" r="2.6" fill="#bc8cff" opacity="0.7"/>
<circle cx="327.7" cy="340.6" r="2.6" fill="#bc8cff" opacity="0.7"/>
<circle cx="334.6" cy="400.8" r="2.6" fill="#bc8cff" opacity="0.7"/>
<circle cx="341.5" cy="416.0" r="2.6" fill="#bc8cff" opacity="0.7"/>
<circle cx="348.4" cy="359.7" r="2.6" fill="#bc8cff" opacity="0.7"/>
<circle cx="355.3" cy="340.0" r="2.6" fill="#bc8cff" opacity="0.7"/>
<circle cx="362.2" cy="371.7" r="2.6" fill="#bc8cff" opacity="0.7"/>
<circle cx="369.1" cy="424.3" r="2.6" fill="#bc8cff" opacity="0.7"/>
<circle cx="376.0" cy="391.5" r="2.6" fill="#bc8cff" opacity="0.7"/>
<circle cx="382.9" cy="394.2" r="2.6" fill="#bc8cff" opacity="0.7"/>
<circle cx="389.8" cy="396.9" r="2.6" fill="#bc8cff" opacity="0.7"/>
<circle cx="396.6" cy="438.7" r="2.6" fill="#bc8cff" opacity="0.7"/>
<circle cx="403.5" cy="393.1" r="2.6" fill="#bc8cff" opacity="0.7"/>
<circle cx="410.4" cy="399.1" r="2.6" fill="#bc8cff" opacity="0.7"/>
<circle cx="417.3" cy="401.0" r="2.6" fill="#bc8cff" opacity="0.7"/>
<circle cx="424.2" cy="382.5" r="2.6" fill="#bc8cff" opacity="0.7"/>
<circle cx="431.1" cy="392.8" r="2.6" fill="#bc8cff" opacity="0.7"/>
<circle cx="438.0" cy="395.2" r="2.6" fill="#bc8cff" opacity="0.7"/>
<circle cx="444.9" cy="314.2" r="2.6" fill="#bc8cff" opacity="0.7"/>
<circle cx="451.8" cy="418.1" r="2.6" fill="#bc8cff" opacity="0.7"/>
<circle cx="458.7" cy="330.6" r="2.6" fill="#bc8cff" opacity="0.7"/>
<circle cx="465.6" cy="334.6" r="2.6" fill="#bc8cff" opacity="0.7"/>
<circle cx="472.5" cy="340.9" r="2.6" fill="#bc8cff" opacity="0.7"/>
<circle cx="479.4" cy="355.5" r="2.6" fill="#bc8cff" opacity="0.7"/>
<circle cx="486.3" cy="415.5" r="2.6" fill="#bc8cff" opacity="0.7"/>
<circle cx="493.2" cy="88.9" r="2.6" fill="#bc8cff" opacity="0.7"/>
<circle cx="500.1" cy="429.1" r="2.6" fill="#bc8cff" opacity="0.7"/>
<circle cx="507.0" cy="381.4" r="2.6" fill="#bc8cff" opacity="0.7"/>
<circle cx="513.9" cy="438.7" r="2.6" fill="#bc8cff" opacity="0.7"/>
<circle cx="520.8" cy="377.1" r="2.6" fill="#bc8cff" opacity="0.7"/>
<circle cx="527.7" cy="432.6" r="2.6" fill="#bc8cff" opacity="0.7"/>
<circle cx="534.6" cy="339.0" r="2.6" fill="#bc8cff" opacity="0.7"/>
<circle cx="541.5" cy="361.5" r="2.6" fill="#bc8cff" opacity="0.7"/>
<circle cx="548.3" cy="405.7" r="2.6" fill="#bc8cff" opacity="0.7"/>
<circle cx="555.2" cy="389.7" r="2.6" fill="#bc8cff" opacity="0.7"/>
<circle cx="562.1" cy="405.6" r="2.6" fill="#bc8cff" opacity="0.7"/>
<circle cx="569.0" cy="400.0" r="2.6" fill="#bc8cff" opacity="0.7"/>
<circle cx="575.9" cy="398.8" r="2.6" fill="#bc8cff" opacity="0.7"/>
<circle cx="582.8" cy="396.6" r="2.6" fill="#bc8cff" opacity="0.7"/>
<circle cx="589.7" cy="433.3" r="2.6" fill="#bc8cff" opacity="0.7"/>
<circle cx="596.6" cy="416.4" r="2.6" fill="#bc8cff" opacity="0.7"/>
<circle cx="603.5" cy="409.0" r="2.6" fill="#bc8cff" opacity="0.7"/>
<circle cx="610.4" cy="408.0" r="2.6" fill="#bc8cff" opacity="0.7"/>
<circle cx="617.3" cy="371.1" r="2.6" fill="#bc8cff" opacity="0.7"/>
<circle cx="624.2" cy="405.9" r="2.6" fill="#bc8cff" opacity="0.7"/>
<circle cx="631.1" cy="403.5" r="2.6" fill="#bc8cff" opacity="0.7"/>
<circle cx="638.0" cy="401.5" r="2.6" fill="#bc8cff" opacity="0.7"/>
<circle cx="644.9" cy="395.9" r="2.6" fill="#bc8cff" opacity="0.7"/>
<circle cx="651.8" cy="390.8" r="2.6" fill="#bc8cff" opacity="0.7"/>
<circle cx="658.7" cy="408.2" r="2.6" fill="#bc8cff" opacity="0.7"/>
<circle cx="665.6" cy="388.8" r="2.6" fill="#bc8cff" opacity="0.7"/>
<circle cx="672.5" cy="386.6" r="2.6" fill="#bc8cff" opacity="0.7"/>
<circle cx="679.4" cy="416.4" r="2.6" fill="#bc8cff" opacity="0.7"/>
<circle cx="686.3" cy="397.7" r="2.6" fill="#bc8cff" opacity="0.7"/>
<circle cx="693.1" cy="408.7" r="2.6" fill="#bc8cff" opacity="0.7"/>
<circle cx="700.0" cy="399.4" r="2.6" fill="#bc8cff" opacity="0.7"/>
<circle cx="706.9" cy="419.2" r="2.6" fill="#bc8cff" opacity="0.7"/>
<circle cx="713.8" cy="362.8" r="2.6" fill="#bc8cff" opacity="0.7"/>
<circle cx="720.7" cy="396.9" r="2.6" fill="#bc8cff" opacity="0.7"/>
<circle cx="727.6" cy="408.9" r="2.6" fill="#bc8cff" opacity="0.7"/>
<circle cx="734.5" cy="400.6" r="2.6" fill="#bc8cff" opacity="0.7"/>
<circle cx="741.4" cy="404.0" r="2.6" fill="#bc8cff" opacity="0.7"/>
<circle cx="748.3" cy="418.5" r="2.6" fill="#bc8cff" opacity="0.7"/>
<circle cx="755.2" cy="444.8" r="2.6" fill="#bc8cff" opacity="0.7"/>
<circle cx="762.1" cy="419.4" r="2.6" fill="#bc8cff" opacity="0.7"/>
<circle cx="769.0" cy="409.4" r="2.6" fill="#bc8cff" opacity="0.7"/>
<circle cx="775.9" cy="258.5" r="2.6" fill="#bc8cff" opacity="0.7"/>
<circle cx="782.8" cy="362.5" r="2.6" fill="#bc8cff" opacity="0.7"/>
<circle cx="98.3" cy="394.1" r="3.2" fill="#ff922b" opacity="0.85"/>
<circle cx="105.2" cy="414.9" r="3.2" fill="#ff922b" opacity="0.85"/>
<circle cx="112.1" cy="426.6" r="3.2" fill="#ff922b" opacity="0.85"/>
<circle cx="119.0" cy="431.8" r="3.2" fill="#ff922b" opacity="0.85"/>
<circle cx="125.9" cy="398.4" r="3.2" fill="#ff922b" opacity="0.85"/>
<circle cx="132.8" cy="381.7" r="3.2" fill="#ff922b" opacity="0.85"/>
<circle cx="139.6" cy="399.1" r="3.2" fill="#ff922b" opacity="0.85"/>
<circle cx="146.5" cy="391.9" r="3.2" fill="#ff922b" opacity="0.85"/>
<circle cx="153.4" cy="380.1" r="3.2" fill="#ff922b" opacity="0.85"/>
<circle cx="160.3" cy="377.3" r="3.2" fill="#ff922b" opacity="0.85"/>
<circle cx="167.2" cy="396.9" r="3.2" fill="#ff922b" opacity="0.85"/>
<circle cx="174.1" cy="394.4" r="3.2" fill="#ff922b" opacity="0.85"/>
<circle cx="181.0" cy="404.1" r="3.2" fill="#ff922b" opacity="0.85"/>
<circle cx="187.9" cy="404.0" r="3.2" fill="#ff922b" opacity="0.85"/>
<circle cx="194.8" cy="395.7" r="3.2" fill="#ff922b" opacity="0.85"/>
<circle cx="201.7" cy="401.0" r="3.2" fill="#ff922b" opacity="0.85"/>
<circle cx="208.6" cy="395.5" r="3.2" fill="#ff922b" opacity="0.85"/>
<circle cx="215.5" cy="391.0" r="3.2" fill="#ff922b" opacity="0.85"/>
<circle cx="222.4" cy="399.4" r="3.2" fill="#ff922b" opacity="0.85"/>
<circle cx="229.3" cy="414.3" r="3.2" fill="#ff922b" opacity="0.85"/>
<circle cx="236.2" cy="410.0" r="3.2" fill="#ff922b" opacity="0.85"/>
<circle cx="243.1" cy="405.1" r="3.2" fill="#ff922b" opacity="0.85"/>
<circle cx="250.0" cy="437.8" r="3.2" fill="#ff922b" opacity="0.85"/>
<circle cx="256.9" cy="409.2" r="3.2" fill="#ff922b" opacity="0.85"/>
<circle cx="263.8" cy="409.6" r="3.2" fill="#ff922b" opacity="0.85"/>
<circle cx="270.7" cy="405.6" r="3.2" fill="#ff922b" opacity="0.85"/>
<circle cx="277.6" cy="396.3" r="3.2" fill="#ff922b" opacity="0.85"/>
<circle cx="284.4" cy="398.6" r="3.2" fill="#ff922b" opacity="0.85"/>
<circle cx="291.3" cy="402.5" r="3.2" fill="#ff922b" opacity="0.85"/>
<circle cx="298.2" cy="402.1" r="3.2" fill="#ff922b" opacity="0.85"/>
<circle cx="305.1" cy="400.7" r="3.2" fill="#ff922b" opacity="0.85"/>
<circle cx="312.0" cy="363.0" r="3.2" fill="#ff922b" opacity="0.85"/>
<circle cx="318.9" cy="401.0" r="3.2" fill="#ff922b" opacity="0.85"/>
<circle cx="325.8" cy="400.3" r="3.2" fill="#ff922b" opacity="0.85"/>
<circle cx="332.7" cy="397.1" r="3.2" fill="#ff922b" opacity="0.85"/>
<circle cx="339.6" cy="396.1" r="3.2" fill="#ff922b" opacity="0.85"/>
<circle cx="346.5" cy="395.6" r="3.2" fill="#ff922b" opacity="0.85"/>
<circle cx="353.4" cy="426.2" r="3.2" fill="#ff922b" opacity="0.85"/>
<circle cx="360.3" cy="403.8" r="3.2" fill="#ff922b" opacity="0.85"/>
<circle cx="367.2" cy="389.3" r="3.2" fill="#ff922b" opacity="0.85"/>
<circle cx="374.1" cy="377.0" r="3.2" fill="#ff922b" opacity="0.85"/>
<circle cx="381.0" cy="379.7" r="3.2" fill="#ff922b" opacity="0.85"/>
<circle cx="387.9" cy="404.6" r="3.2" fill="#ff922b" opacity="0.85"/>
<circle cx="394.8" cy="437.7" r="3.2" fill="#ff922b" opacity="0.85"/>
<circle cx="401.7" cy="382.6" r="3.2" fill="#ff922b" opacity="0.85"/>
<circle cx="408.6" cy="394.7" r="3.2" fill="#ff922b" opacity="0.85"/>
<circle cx="415.5" cy="399.6" r="3.2" fill="#ff922b" opacity="0.85"/>
<circle cx="422.4" cy="385.6" r="3.2" fill="#ff922b" opacity="0.85"/>
<circle cx="429.3" cy="402.9" r="3.2" fill="#ff922b" opacity="0.85"/>
<circle cx="436.1" cy="396.3" r="3.2" fill="#ff922b" opacity="0.85"/>
<circle cx="443.0" cy="366.6" r="3.2" fill="#ff922b" opacity="0.85"/>
<circle cx="449.9" cy="403.7" r="3.2" fill="#ff922b" opacity="0.85"/>
<circle cx="456.8" cy="350.9" r="3.2" fill="#ff922b" opacity="0.85"/>
<circle cx="463.7" cy="344.5" r="3.2" fill="#ff922b" opacity="0.85"/>
<circle cx="470.6" cy="402.3" r="3.2" fill="#ff922b" opacity="0.85"/>
<circle cx="477.5" cy="391.9" r="3.2" fill="#ff922b" opacity="0.85"/>
<circle cx="484.4" cy="401.2" r="3.2" fill="#ff922b" opacity="0.85"/>
<circle cx="491.3" cy="397.4" r="3.2" fill="#ff922b" opacity="0.85"/>
<circle cx="498.2" cy="405.2" r="3.2" fill="#ff922b" opacity="0.85"/>
<circle cx="505.1" cy="377.3" r="3.2" fill="#ff922b" opacity="0.85"/>
<circle cx="512.0" cy="433.2" r="3.2" fill="#ff922b" opacity="0.85"/>
<circle cx="518.9" cy="400.3" r="3.2" fill="#ff922b" opacity="0.85"/>
<circle cx="525.8" cy="416.3" r="3.2" fill="#ff922b" opacity="0.85"/>
<circle cx="532.7" cy="401.1" r="3.2" fill="#ff922b" opacity="0.85"/>
<circle cx="539.6" cy="396.3" r="3.2" fill="#ff922b" opacity="0.85"/>
<circle cx="546.5" cy="408.2" r="3.2" fill="#ff922b" opacity="0.85"/>
<circle cx="553.4" cy="400.8" r="3.2" fill="#ff922b" opacity="0.85"/>
<circle cx="560.3" cy="405.5" r="3.2" fill="#ff922b" opacity="0.85"/>
<circle cx="567.2" cy="401.5" r="3.2" fill="#ff922b" opacity="0.85"/>
<circle cx="574.1" cy="380.1" r="3.2" fill="#ff922b" opacity="0.85"/>
<circle cx="580.9" cy="413.0" r="3.2" fill="#ff922b" opacity="0.85"/>
<circle cx="587.8" cy="397.9" r="3.2" fill="#ff922b" opacity="0.85"/>
<circle cx="594.7" cy="412.9" r="3.2" fill="#ff922b" opacity="0.85"/>
<circle cx="601.6" cy="427.1" r="3.2" fill="#ff922b" opacity="0.85"/>
<circle cx="608.5" cy="405.3" r="3.2" fill="#ff922b" opacity="0.85"/>
<circle cx="615.4" cy="407.7" r="3.2" fill="#ff922b" opacity="0.85"/>
<circle cx="622.3" cy="389.7" r="3.2" fill="#ff922b" opacity="0.85"/>
<circle cx="629.2" cy="403.4" r="3.2" fill="#ff922b" opacity="0.85"/>
<circle cx="636.1" cy="402.6" r="3.2" fill="#ff922b" opacity="0.85"/>
<circle cx="643.0" cy="397.6" r="3.2" fill="#ff922b" opacity="0.85"/>
<circle cx="649.9" cy="402.0" r="3.2" fill="#ff922b" opacity="0.85"/>
<circle cx="656.8" cy="385.0" r="3.2" fill="#ff922b" opacity="0.85"/>
<circle cx="663.7" cy="411.0" r="3.2" fill="#ff922b" opacity="0.85"/>
<circle cx="670.6" cy="398.1" r="3.2" fill="#ff922b" opacity="0.85"/>
<circle cx="677.5" cy="398.2" r="3.2" fill="#ff922b" opacity="0.85"/>
<circle cx="684.4" cy="399.7" r="3.2" fill="#ff922b" opacity="0.85"/>
<circle cx="691.3" cy="397.4" r="3.2" fill="#ff922b" opacity="0.85"/>
<circle cx="698.2" cy="449.9" r="3.2" fill="#ff922b" opacity="0.85"/>
<circle cx="705.1" cy="414.9" r="3.2" fill="#ff922b" opacity="0.85"/>
<circle cx="712.0" cy="407.0" r="3.2" fill="#ff922b" opacity="0.85"/>
<circle cx="718.9" cy="366.5" r="3.2" fill="#ff922b" opacity="0.85"/>
<circle cx="725.8" cy="399.1" r="3.2" fill="#ff922b" opacity="0.85"/>
<circle cx="732.6" cy="403.6" r="3.2" fill="#ff922b" opacity="0.85"/>
<circle cx="739.5" cy="408.3" r="3.2" fill="#ff922b" opacity="0.85"/>
<circle cx="746.4" cy="401.9" r="3.2" fill="#ff922b" opacity="0.85"/>
<circle cx="753.3" cy="386.1" r="3.2" fill="#ff922b" opacity="0.85"/>
<circle cx="760.2" cy="387.7" r="3.2" fill="#ff922b" opacity="0.85"/>
<circle cx="767.1" cy="401.6" r="3.2" fill="#ff922b" opacity="0.85"/>
<circle cx="774.0" cy="303.3" r="3.2" fill="#ff922b" opacity="0.85"/>
<circle cx="780.9" cy="365.5" r="3.2" fill="#ff922b" opacity="0.85"/>
<circle cx="121.8" cy="399.5" r="2.6" fill="none" stroke="#d4a017" stroke-width="1.8" opacity="0.7999999999999999"/>
<circle cx="128.7" cy="401.6" r="2.6" fill="none" stroke="#d4a017" stroke-width="1.8" opacity="0.7999999999999999"/>
<circle cx="149.4" cy="399.6" r="2.6" fill="none" stroke="#d4a017" stroke-width="1.8" opacity="0.7999999999999999"/>
<circle cx="156.2" cy="390.0" r="2.6" fill="none" stroke="#d4a017" stroke-width="1.8" opacity="0.7999999999999999"/>
<circle cx="163.1" cy="383.3" r="2.6" fill="none" stroke="#d4a017" stroke-width="1.8" opacity="0.7999999999999999"/>
<circle cx="176.9" cy="394.8" r="2.6" fill="none" stroke="#d4a017" stroke-width="1.8" opacity="0.7999999999999999"/>
<circle cx="211.4" cy="394.1" r="2.6" fill="none" stroke="#d4a017" stroke-width="1.8" opacity="0.7999999999999999"/>
<circle cx="280.4" cy="403.1" r="2.6" fill="none" stroke="#d4a017" stroke-width="1.8" opacity="0.7999999999999999"/>
<circle cx="321.7" cy="401.0" r="2.6" fill="none" stroke="#d4a017" stroke-width="1.8" opacity="0.7999999999999999"/>
<circle cx="404.5" cy="394.2" r="2.6" fill="none" stroke="#d4a017" stroke-width="1.8" opacity="0.7999999999999999"/>
<circle cx="687.2" cy="400.4" r="2.6" fill="none" stroke="#d4a017" stroke-width="1.8" opacity="0.7999999999999999"/>
<circle cx="721.7" cy="365.4" r="2.6" fill="none" stroke="#d4a017" stroke-width="1.8" opacity="0.7999999999999999"/>
<circle cx="728.6" cy="399.3" r="2.6" fill="none" stroke="#d4a017" stroke-width="1.8" opacity="0.7999999999999999"/>
<circle cx="776.8" cy="402.2" r="2.6" fill="none" stroke="#d4a017" stroke-width="1.8" opacity="0.7999999999999999"/>
<circle cx="847" cy="84" r="5" fill="#ff922b"/>
<text x="866" y="88" font-size="13" fill="#c9d1d9" font-weight="700">Kāra</text>
<line x1="836" y1="108" x2="858" y2="108" stroke="#a7b0bc" stroke-width="2" stroke-dasharray="5 4"/>
<text x="866" y="112" font-size="13" fill="#c9d1d9" font-weight="400">Rust (default) = 1.0×</text>
<circle cx="847" cy="132" r="4" fill="#3fb950"/>
<text x="866" y="136" font-size="13" fill="#c9d1d9" font-weight="400">C</text>
<circle cx="847" cy="156" r="4" fill="#bc8cff"/>
<text x="866" y="160" font-size="13" fill="#c9d1d9" font-weight="400">Go</text>
<circle cx="847" cy="180" r="4" fill="none" stroke="#d4a017" stroke-width="1.8"/>
<text x="866" y="184" font-size="12" fill="#c9d1d9" font-weight="400">Rust (checked)</text>
<text x="70" y="502" font-size="11.5" fill="#c9d1d9">Solid Rust = 1.0× is the release default — it wraps silently on overflow. Hollow rings ◌ are Rust built overflow-checked,</text>
<text x="70" y="518" font-size="11.5" fill="#c9d1d9">the same safety kāra enforces by default: median 1.05× the cost of plain Rust across the 14 overflow-exercising programs. At that matched safety kāra is ≈ 1.04× — compare kāra to the rings.</text>
<text x="70" y="538" font-size="11.5" fill="#8b949e">Each dot is one benchmarked program (kata × approach); there is no connecting line because left-to-right order is not meaningful. Raw numbers: bench-results.json</text>
</svg>