<svg xmlns="http://www.w3.org/2000/svg" width="980" height="560" viewBox="0 0 980 560" font-family="-apple-system,Segoe UI,Helvetica,Arial,sans-serif">
<rect width="980" height="560" fill="#282c34"/>
<text x="70" y="34" font-size="21" font-weight="700" fill="#c9d1d9">Runtime — sequential lane</text>
<text x="70" y="56" font-size="13" fill="#8b949e">relative to Rust (default) = 1.0 · lower = faster · 93 programs</text>
<line x1="70" y1="456.0" x2="812" y2="456.0" stroke="#3b414b" stroke-width="1"/>
<text x="60" y="460.0" font-size="12" text-anchor="end" fill="#8b949e">0.0×</text>
<line x1="70" y1="402.0" x2="812" y2="402.0" stroke="#a7b0bc" stroke-width="2" stroke-dasharray="5 4"/>
<text x="60" y="406.0" font-size="12" text-anchor="end" fill="#aeb6c0" font-weight="700">1.0×</text>
<line x1="70" y1="380.4" x2="812" y2="380.4" stroke="#3b414b" stroke-width="1"/>
<text x="60" y="384.4" font-size="12" text-anchor="end" fill="#8b949e">1.4×</text>
<line x1="70" y1="304.8" x2="812" y2="304.8" stroke="#3b414b" stroke-width="1"/>
<text x="60" y="308.8" font-size="12" text-anchor="end" fill="#8b949e">2.8×</text>
<line x1="70" y1="229.2" x2="812" y2="229.2" stroke="#3b414b" stroke-width="1"/>
<text x="60" y="233.2" font-size="12" text-anchor="end" fill="#8b949e">4.2×</text>
<line x1="70" y1="153.6" x2="812" y2="153.6" stroke="#3b414b" stroke-width="1"/>
<text x="60" y="157.6" font-size="12" text-anchor="end" fill="#8b949e">5.6×</text>
<line x1="70" y1="78.0" x2="812" y2="78.0" stroke="#3b414b" stroke-width="1"/>
<text x="60" y="82.0" font-size="12" text-anchor="end" fill="#8b949e">7.0×</text>
<text x="812" y="396.0" font-size="11" text-anchor="end" fill="#aeb6c0">Rust (default) baseline</text>
<line x1="70" y1="456" x2="812" y2="456" stroke="#3b414b"/>
<text x="441.0" y="478" font-size="11" text-anchor="middle" fill="#8b949e">93 programs (kata × approach) — x-order carries no meaning</text>
<circle cx="99.2" cy="402.1" r="2.6" fill="#3fb950" opacity="0.7"/>
<circle cx="106.6" cy="421.6" r="2.6" fill="#3fb950" opacity="0.7"/>
<circle cx="114.0" cy="425.2" r="2.6" fill="#3fb950" opacity="0.7"/>
<circle cx="121.4" cy="442.8" r="2.6" fill="#3fb950" opacity="0.7"/>
<circle cx="128.9" cy="413.8" r="2.6" fill="#3fb950" opacity="0.7"/>
<circle cx="136.3" cy="411.4" r="2.6" fill="#3fb950" opacity="0.7"/>
<circle cx="143.7" cy="402.3" r="2.6" fill="#3fb950" opacity="0.7"/>
<circle cx="151.1" cy="399.7" r="2.6" fill="#3fb950" opacity="0.7"/>
<circle cx="158.5" cy="397.0" r="2.6" fill="#3fb950" opacity="0.7"/>
<circle cx="166.0" cy="395.5" r="2.6" fill="#3fb950" opacity="0.7"/>
<circle cx="173.4" cy="402.1" r="2.6" fill="#3fb950" opacity="0.7"/>
<circle cx="180.8" cy="409.1" r="2.6" fill="#3fb950" opacity="0.7"/>
<circle cx="188.2" cy="395.6" r="2.6" fill="#3fb950" opacity="0.7"/>
<circle cx="195.6" cy="399.0" r="2.6" fill="#3fb950" opacity="0.7"/>
<circle cx="203.1" cy="413.4" r="2.6" fill="#3fb950" opacity="0.7"/>
<circle cx="210.5" cy="397.3" r="2.6" fill="#3fb950" opacity="0.7"/>
<circle cx="217.9" cy="357.8" r="2.6" fill="#3fb950" opacity="0.7"/>
<circle cx="225.3" cy="415.1" r="2.6" fill="#3fb950" opacity="0.7"/>
<circle cx="232.7" cy="403.5" r="2.6" fill="#3fb950" opacity="0.7"/>
<circle cx="240.2" cy="423.2" r="2.6" fill="#3fb950" opacity="0.7"/>
<circle cx="247.6" cy="406.5" r="2.6" fill="#3fb950" opacity="0.7"/>
<circle cx="255.0" cy="419.9" r="2.6" fill="#3fb950" opacity="0.7"/>
<circle cx="262.4" cy="439.8" r="2.6" fill="#3fb950" opacity="0.7"/>
<circle cx="269.8" cy="424.6" r="2.6" fill="#3fb950" opacity="0.7"/>
<circle cx="277.3" cy="418.3" r="2.6" fill="#3fb950" opacity="0.7"/>
<circle cx="284.7" cy="420.5" r="2.6" fill="#3fb950" opacity="0.7"/>
<circle cx="292.1" cy="400.5" r="2.6" fill="#3fb950" opacity="0.7"/>
<circle cx="299.5" cy="400.0" r="2.6" fill="#3fb950" opacity="0.7"/>
<circle cx="306.9" cy="402.1" r="2.6" fill="#3fb950" opacity="0.7"/>
<circle cx="314.4" cy="414.5" r="2.6" fill="#3fb950" opacity="0.7"/>
<circle cx="321.8" cy="401.5" r="2.6" fill="#3fb950" opacity="0.7"/>
<circle cx="329.2" cy="435.9" r="2.6" fill="#3fb950" opacity="0.7"/>
<circle cx="336.6" cy="402.2" r="2.6" fill="#3fb950" opacity="0.7"/>
<circle cx="344.0" cy="421.6" r="2.6" fill="#3fb950" opacity="0.7"/>
<circle cx="351.5" cy="415.8" r="2.6" fill="#3fb950" opacity="0.7"/>
<circle cx="358.9" cy="417.3" r="2.6" fill="#3fb950" opacity="0.7"/>
<circle cx="366.3" cy="417.7" r="2.6" fill="#3fb950" opacity="0.7"/>
<circle cx="373.7" cy="402.4" r="2.6" fill="#3fb950" opacity="0.7"/>
<circle cx="381.1" cy="382.1" r="2.6" fill="#3fb950" opacity="0.7"/>
<circle cx="388.6" cy="413.8" r="2.6" fill="#3fb950" opacity="0.7"/>
<circle cx="396.0" cy="398.2" r="2.6" fill="#3fb950" opacity="0.7"/>
<circle cx="403.4" cy="401.5" r="2.6" fill="#3fb950" opacity="0.7"/>
<circle cx="410.8" cy="404.4" r="2.6" fill="#3fb950" opacity="0.7"/>
<circle cx="418.2" cy="403.9" r="2.6" fill="#3fb950" opacity="0.7"/>
<circle cx="425.7" cy="431.2" r="2.6" fill="#3fb950" opacity="0.7"/>
<circle cx="433.1" cy="404.3" r="2.6" fill="#3fb950" opacity="0.7"/>
<circle cx="440.5" cy="400.0" r="2.6" fill="#3fb950" opacity="0.7"/>
<circle cx="447.9" cy="398.4" r="2.6" fill="#3fb950" opacity="0.7"/>
<circle cx="455.3" cy="403.7" r="2.6" fill="#3fb950" opacity="0.7"/>
<circle cx="462.8" cy="404.7" r="2.6" fill="#3fb950" opacity="0.7"/>
<circle cx="470.2" cy="435.3" r="2.6" fill="#3fb950" opacity="0.7"/>
<circle cx="477.6" cy="424.2" r="2.6" fill="#3fb950" opacity="0.7"/>
<circle cx="485.0" cy="386.9" r="2.6" fill="#3fb950" opacity="0.7"/>
<circle cx="492.4" cy="402.3" r="2.6" fill="#3fb950" opacity="0.7"/>
<circle cx="499.9" cy="402.1" r="2.6" fill="#3fb950" opacity="0.7"/>
<circle cx="507.3" cy="408.1" r="2.6" fill="#3fb950" opacity="0.7"/>
<circle cx="514.7" cy="400.9" r="2.6" fill="#3fb950" opacity="0.7"/>
<circle cx="522.1" cy="369.7" r="2.6" fill="#3fb950" opacity="0.7"/>
<circle cx="529.5" cy="441.3" r="2.6" fill="#3fb950" opacity="0.7"/>
<circle cx="537.0" cy="409.4" r="2.6" fill="#3fb950" opacity="0.7"/>
<circle cx="544.4" cy="438.7" r="2.6" fill="#3fb950" opacity="0.7"/>
<circle cx="551.8" cy="401.9" r="2.6" fill="#3fb950" opacity="0.7"/>
<circle cx="559.2" cy="424.3" r="2.6" fill="#3fb950" opacity="0.7"/>
<circle cx="566.6" cy="401.6" r="2.6" fill="#3fb950" opacity="0.7"/>
<circle cx="574.1" cy="401.9" r="2.6" fill="#3fb950" opacity="0.7"/>
<circle cx="581.5" cy="402.1" r="2.6" fill="#3fb950" opacity="0.7"/>
<circle cx="588.9" cy="393.0" r="2.6" fill="#3fb950" opacity="0.7"/>
<circle cx="596.3" cy="405.6" r="2.6" fill="#3fb950" opacity="0.7"/>
<circle cx="603.7" cy="401.9" r="2.6" fill="#3fb950" opacity="0.7"/>
<circle cx="611.2" cy="412.7" r="2.6" fill="#3fb950" opacity="0.7"/>
<circle cx="618.6" cy="401.6" r="2.6" fill="#3fb950" opacity="0.7"/>
<circle cx="626.0" cy="450.6" r="2.6" fill="#3fb950" opacity="0.7"/>
<circle cx="633.4" cy="372.4" r="2.6" fill="#3fb950" opacity="0.7"/>
<circle cx="640.8" cy="391.1" r="2.6" fill="#3fb950" opacity="0.7"/>
<circle cx="648.3" cy="401.7" r="2.6" fill="#3fb950" opacity="0.7"/>
<circle cx="655.7" cy="419.1" r="2.6" fill="#3fb950" opacity="0.7"/>
<circle cx="663.1" cy="395.0" r="2.6" fill="#3fb950" opacity="0.7"/>
<circle cx="670.5" cy="403.0" r="2.6" fill="#3fb950" opacity="0.7"/>
<circle cx="677.9" cy="404.2" r="2.6" fill="#3fb950" opacity="0.7"/>
<circle cx="685.4" cy="425.5" r="2.6" fill="#3fb950" opacity="0.7"/>
<circle cx="692.8" cy="445.3" r="2.6" fill="#3fb950" opacity="0.7"/>
<circle cx="700.2" cy="415.3" r="2.6" fill="#3fb950" opacity="0.7"/>
<circle cx="707.6" cy="410.4" r="2.6" fill="#3fb950" opacity="0.7"/>
<circle cx="715.0" cy="404.0" r="2.6" fill="#3fb950" opacity="0.7"/>
<circle cx="722.5" cy="402.7" r="2.6" fill="#3fb950" opacity="0.7"/>
<circle cx="729.9" cy="412.4" r="2.6" fill="#3fb950" opacity="0.7"/>
<circle cx="737.3" cy="407.1" r="2.6" fill="#3fb950" opacity="0.7"/>
<circle cx="744.7" cy="411.4" r="2.6" fill="#3fb950" opacity="0.7"/>
<circle cx="752.1" cy="452.2" r="2.6" fill="#3fb950" opacity="0.7"/>
<circle cx="759.6" cy="447.1" r="2.6" fill="#3fb950" opacity="0.7"/>
<circle cx="767.0" cy="406.6" r="2.6" fill="#3fb950" opacity="0.7"/>
<circle cx="774.4" cy="391.2" r="2.6" fill="#3fb950" opacity="0.7"/>
<circle cx="781.8" cy="416.2" r="2.6" fill="#3fb950" opacity="0.7"/>
<circle cx="100.2" cy="401.6" r="2.6" fill="#bc8cff" opacity="0.7"/>
<circle cx="107.6" cy="392.0" r="2.6" fill="#bc8cff" opacity="0.7"/>
<circle cx="115.0" cy="428.8" r="2.6" fill="#bc8cff" opacity="0.7"/>
<circle cx="122.4" cy="392.5" r="2.6" fill="#bc8cff" opacity="0.7"/>
<circle cx="129.9" cy="358.8" r="2.6" fill="#bc8cff" opacity="0.7"/>
<circle cx="137.3" cy="391.4" r="2.6" fill="#bc8cff" opacity="0.7"/>
<circle cx="144.7" cy="315.8" r="2.6" fill="#bc8cff" opacity="0.7"/>
<circle cx="152.1" cy="393.4" r="2.6" fill="#bc8cff" opacity="0.7"/>
<circle cx="159.5" cy="385.2" r="2.6" fill="#bc8cff" opacity="0.7"/>
<circle cx="167.0" cy="362.9" r="2.6" fill="#bc8cff" opacity="0.7"/>
<circle cx="174.4" cy="372.1" r="2.6" fill="#bc8cff" opacity="0.7"/>
<circle cx="181.8" cy="423.7" r="2.6" fill="#bc8cff" opacity="0.7"/>
<circle cx="189.2" cy="401.0" r="2.6" fill="#bc8cff" opacity="0.7"/>
<circle cx="196.6" cy="400.3" r="2.6" fill="#bc8cff" opacity="0.7"/>
<circle cx="204.1" cy="412.8" r="2.6" fill="#bc8cff" opacity="0.7"/>
<circle cx="211.5" cy="373.1" r="2.6" fill="#bc8cff" opacity="0.7"/>
<circle cx="218.9" cy="302.1" r="2.6" fill="#bc8cff" opacity="0.7"/>
<circle cx="226.3" cy="419.5" r="2.6" fill="#bc8cff" opacity="0.7"/>
<circle cx="233.7" cy="385.6" r="2.6" fill="#bc8cff" opacity="0.7"/>
<circle cx="241.2" cy="428.9" r="2.6" fill="#bc8cff" opacity="0.7"/>
<circle cx="248.6" cy="395.8" r="2.6" fill="#bc8cff" opacity="0.7"/>
<circle cx="256.0" cy="422.8" r="2.6" fill="#bc8cff" opacity="0.7"/>
<circle cx="263.4" cy="437.9" r="2.6" fill="#bc8cff" opacity="0.7"/>
<circle cx="270.8" cy="429.5" r="2.6" fill="#bc8cff" opacity="0.7"/>
<circle cx="278.3" cy="423.4" r="2.6" fill="#bc8cff" opacity="0.7"/>
<circle cx="285.7" cy="424.6" r="2.6" fill="#bc8cff" opacity="0.7"/>
<circle cx="293.1" cy="394.3" r="2.6" fill="#bc8cff" opacity="0.7"/>
<circle cx="300.5" cy="388.7" r="2.6" fill="#bc8cff" opacity="0.7"/>
<circle cx="307.9" cy="276.0" r="2.6" fill="#bc8cff" opacity="0.7"/>
<circle cx="315.4" cy="378.6" r="2.6" fill="#bc8cff" opacity="0.7"/>
<circle cx="322.8" cy="393.5" r="2.6" fill="#bc8cff" opacity="0.7"/>
<circle cx="330.2" cy="319.9" r="2.6" fill="#bc8cff" opacity="0.7"/>
<circle cx="337.6" cy="396.2" r="2.6" fill="#bc8cff" opacity="0.7"/>
<circle cx="345.0" cy="340.6" r="2.6" fill="#bc8cff" opacity="0.7"/>
<circle cx="352.5" cy="400.8" r="2.6" fill="#bc8cff" opacity="0.7"/>
<circle cx="359.9" cy="416.0" r="2.6" fill="#bc8cff" opacity="0.7"/>
<circle cx="367.3" cy="359.7" r="2.6" fill="#bc8cff" opacity="0.7"/>
<circle cx="374.7" cy="340.0" r="2.6" fill="#bc8cff" opacity="0.7"/>
<circle cx="382.1" cy="371.7" r="2.6" fill="#bc8cff" opacity="0.7"/>
<circle cx="389.6" cy="424.3" r="2.6" fill="#bc8cff" opacity="0.7"/>
<circle cx="397.0" cy="391.5" r="2.6" fill="#bc8cff" opacity="0.7"/>
<circle cx="404.4" cy="394.2" r="2.6" fill="#bc8cff" opacity="0.7"/>
<circle cx="411.8" cy="396.9" r="2.6" fill="#bc8cff" opacity="0.7"/>
<circle cx="419.2" cy="438.7" r="2.6" fill="#bc8cff" opacity="0.7"/>
<circle cx="426.7" cy="393.1" r="2.6" fill="#bc8cff" opacity="0.7"/>
<circle cx="434.1" cy="399.1" r="2.6" fill="#bc8cff" opacity="0.7"/>
<circle cx="441.5" cy="401.0" r="2.6" fill="#bc8cff" opacity="0.7"/>
<circle cx="448.9" cy="382.5" r="2.6" fill="#bc8cff" opacity="0.7"/>
<circle cx="456.3" cy="392.8" r="2.6" fill="#bc8cff" opacity="0.7"/>
<circle cx="463.8" cy="395.2" r="2.6" fill="#bc8cff" opacity="0.7"/>
<circle cx="471.2" cy="314.2" r="2.6" fill="#bc8cff" opacity="0.7"/>
<circle cx="478.6" cy="418.1" r="2.6" fill="#bc8cff" opacity="0.7"/>
<circle cx="486.0" cy="330.6" r="2.6" fill="#bc8cff" opacity="0.7"/>
<circle cx="493.4" cy="334.6" r="2.6" fill="#bc8cff" opacity="0.7"/>
<circle cx="500.9" cy="340.9" r="2.6" fill="#bc8cff" opacity="0.7"/>
<circle cx="508.3" cy="355.5" r="2.6" fill="#bc8cff" opacity="0.7"/>
<circle cx="515.7" cy="415.5" r="2.6" fill="#bc8cff" opacity="0.7"/>
<circle cx="523.1" cy="88.9" r="2.6" fill="#bc8cff" opacity="0.7"/>
<circle cx="530.5" cy="429.1" r="2.6" fill="#bc8cff" opacity="0.7"/>
<circle cx="538.0" cy="381.4" r="2.6" fill="#bc8cff" opacity="0.7"/>
<circle cx="545.4" cy="438.7" r="2.6" fill="#bc8cff" opacity="0.7"/>
<circle cx="552.8" cy="377.1" r="2.6" fill="#bc8cff" opacity="0.7"/>
<circle cx="560.2" cy="432.6" r="2.6" fill="#bc8cff" opacity="0.7"/>
<circle cx="567.6" cy="339.0" r="2.6" fill="#bc8cff" opacity="0.7"/>
<circle cx="575.1" cy="361.5" r="2.6" fill="#bc8cff" opacity="0.7"/>
<circle cx="582.5" cy="405.7" r="2.6" fill="#bc8cff" opacity="0.7"/>
<circle cx="589.9" cy="389.7" r="2.6" fill="#bc8cff" opacity="0.7"/>
<circle cx="597.3" cy="405.6" r="2.6" fill="#bc8cff" opacity="0.7"/>
<circle cx="604.7" cy="400.0" r="2.6" fill="#bc8cff" opacity="0.7"/>
<circle cx="612.2" cy="398.8" r="2.6" fill="#bc8cff" opacity="0.7"/>
<circle cx="619.6" cy="396.6" r="2.6" fill="#bc8cff" opacity="0.7"/>
<circle cx="627.0" cy="433.3" r="2.6" fill="#bc8cff" opacity="0.7"/>
<circle cx="634.4" cy="416.4" r="2.6" fill="#bc8cff" opacity="0.7"/>
<circle cx="641.8" cy="409.0" r="2.6" fill="#bc8cff" opacity="0.7"/>
<circle cx="649.3" cy="408.0" r="2.6" fill="#bc8cff" opacity="0.7"/>
<circle cx="656.7" cy="388.8" r="2.6" fill="#bc8cff" opacity="0.7"/>
<circle cx="664.1" cy="386.6" r="2.6" fill="#bc8cff" opacity="0.7"/>
<circle cx="671.5" cy="416.4" r="2.6" fill="#bc8cff" opacity="0.7"/>
<circle cx="678.9" cy="397.7" r="2.6" fill="#bc8cff" opacity="0.7"/>
<circle cx="686.4" cy="408.7" r="2.6" fill="#bc8cff" opacity="0.7"/>
<circle cx="693.8" cy="399.4" r="2.6" fill="#bc8cff" opacity="0.7"/>
<circle cx="701.2" cy="419.2" r="2.6" fill="#bc8cff" opacity="0.7"/>
<circle cx="708.6" cy="362.8" r="2.6" fill="#bc8cff" opacity="0.7"/>
<circle cx="716.0" cy="396.9" r="2.6" fill="#bc8cff" opacity="0.7"/>
<circle cx="723.5" cy="408.9" r="2.6" fill="#bc8cff" opacity="0.7"/>
<circle cx="730.9" cy="400.6" r="2.6" fill="#bc8cff" opacity="0.7"/>
<circle cx="738.3" cy="404.0" r="2.6" fill="#bc8cff" opacity="0.7"/>
<circle cx="745.7" cy="418.5" r="2.6" fill="#bc8cff" opacity="0.7"/>
<circle cx="753.1" cy="444.8" r="2.6" fill="#bc8cff" opacity="0.7"/>
<circle cx="760.6" cy="419.4" r="2.6" fill="#bc8cff" opacity="0.7"/>
<circle cx="768.0" cy="409.4" r="2.6" fill="#bc8cff" opacity="0.7"/>
<circle cx="775.4" cy="258.5" r="2.6" fill="#bc8cff" opacity="0.7"/>
<circle cx="782.8" cy="362.5" r="2.6" fill="#bc8cff" opacity="0.7"/>
<circle cx="98.2" cy="394.1" r="3.2" fill="#ff922b" opacity="0.85"/>
<circle cx="105.6" cy="414.9" r="3.2" fill="#ff922b" opacity="0.85"/>
<circle cx="113.0" cy="426.6" r="3.2" fill="#ff922b" opacity="0.85"/>
<circle cx="120.4" cy="431.8" r="3.2" fill="#ff922b" opacity="0.85"/>
<circle cx="127.8" cy="398.4" r="3.2" fill="#ff922b" opacity="0.85"/>
<circle cx="135.3" cy="381.7" r="3.2" fill="#ff922b" opacity="0.85"/>
<circle cx="142.7" cy="399.1" r="3.2" fill="#ff922b" opacity="0.85"/>
<circle cx="150.1" cy="391.9" r="3.2" fill="#ff922b" opacity="0.85"/>
<circle cx="157.5" cy="380.1" r="3.2" fill="#ff922b" opacity="0.85"/>
<circle cx="164.9" cy="377.3" r="3.2" fill="#ff922b" opacity="0.85"/>
<circle cx="172.4" cy="396.9" r="3.2" fill="#ff922b" opacity="0.85"/>
<circle cx="179.8" cy="394.4" r="3.2" fill="#ff922b" opacity="0.85"/>
<circle cx="187.2" cy="404.1" r="3.2" fill="#ff922b" opacity="0.85"/>
<circle cx="194.6" cy="404.0" r="3.2" fill="#ff922b" opacity="0.85"/>
<circle cx="202.0" cy="395.7" r="3.2" fill="#ff922b" opacity="0.85"/>
<circle cx="209.5" cy="401.0" r="3.2" fill="#ff922b" opacity="0.85"/>
<circle cx="216.9" cy="395.5" r="3.2" fill="#ff922b" opacity="0.85"/>
<circle cx="224.3" cy="391.0" r="3.2" fill="#ff922b" opacity="0.85"/>
<circle cx="231.7" cy="399.4" r="3.2" fill="#ff922b" opacity="0.85"/>
<circle cx="239.1" cy="414.3" r="3.2" fill="#ff922b" opacity="0.85"/>
<circle cx="246.6" cy="410.0" r="3.2" fill="#ff922b" opacity="0.85"/>
<circle cx="254.0" cy="405.1" r="3.2" fill="#ff922b" opacity="0.85"/>
<circle cx="261.4" cy="437.8" r="3.2" fill="#ff922b" opacity="0.85"/>
<circle cx="268.8" cy="409.2" r="3.2" fill="#ff922b" opacity="0.85"/>
<circle cx="276.2" cy="409.6" r="3.2" fill="#ff922b" opacity="0.85"/>
<circle cx="283.7" cy="405.6" r="3.2" fill="#ff922b" opacity="0.85"/>
<circle cx="291.1" cy="396.3" r="3.2" fill="#ff922b" opacity="0.85"/>
<circle cx="298.5" cy="398.6" r="3.2" fill="#ff922b" opacity="0.85"/>
<circle cx="305.9" cy="402.5" r="3.2" fill="#ff922b" opacity="0.85"/>
<circle cx="313.3" cy="402.1" r="3.2" fill="#ff922b" opacity="0.85"/>
<circle cx="320.8" cy="400.7" r="3.2" fill="#ff922b" opacity="0.85"/>
<circle cx="328.2" cy="363.0" r="3.2" fill="#ff922b" opacity="0.85"/>
<circle cx="335.6" cy="401.0" r="3.2" fill="#ff922b" opacity="0.85"/>
<circle cx="343.0" cy="400.3" r="3.2" fill="#ff922b" opacity="0.85"/>
<circle cx="350.4" cy="397.1" r="3.2" fill="#ff922b" opacity="0.85"/>
<circle cx="357.9" cy="396.1" r="3.2" fill="#ff922b" opacity="0.85"/>
<circle cx="365.3" cy="395.6" r="3.2" fill="#ff922b" opacity="0.85"/>
<circle cx="372.7" cy="426.2" r="3.2" fill="#ff922b" opacity="0.85"/>
<circle cx="380.1" cy="403.8" r="3.2" fill="#ff922b" opacity="0.85"/>
<circle cx="387.5" cy="389.3" r="3.2" fill="#ff922b" opacity="0.85"/>
<circle cx="395.0" cy="377.0" r="3.2" fill="#ff922b" opacity="0.85"/>
<circle cx="402.4" cy="379.7" r="3.2" fill="#ff922b" opacity="0.85"/>
<circle cx="409.8" cy="404.6" r="3.2" fill="#ff922b" opacity="0.85"/>
<circle cx="417.2" cy="437.7" r="3.2" fill="#ff922b" opacity="0.85"/>
<circle cx="424.6" cy="382.6" r="3.2" fill="#ff922b" opacity="0.85"/>
<circle cx="432.1" cy="394.7" r="3.2" fill="#ff922b" opacity="0.85"/>
<circle cx="439.5" cy="399.6" r="3.2" fill="#ff922b" opacity="0.85"/>
<circle cx="446.9" cy="385.6" r="3.2" fill="#ff922b" opacity="0.85"/>
<circle cx="454.3" cy="402.9" r="3.2" fill="#ff922b" opacity="0.85"/>
<circle cx="461.7" cy="396.3" r="3.2" fill="#ff922b" opacity="0.85"/>
<circle cx="469.2" cy="366.6" r="3.2" fill="#ff922b" opacity="0.85"/>
<circle cx="476.6" cy="403.7" r="3.2" fill="#ff922b" opacity="0.85"/>
<circle cx="484.0" cy="350.9" r="3.2" fill="#ff922b" opacity="0.85"/>
<circle cx="491.4" cy="344.5" r="3.2" fill="#ff922b" opacity="0.85"/>
<circle cx="498.8" cy="402.3" r="3.2" fill="#ff922b" opacity="0.85"/>
<circle cx="506.3" cy="391.9" r="3.2" fill="#ff922b" opacity="0.85"/>
<circle cx="513.7" cy="401.2" r="3.2" fill="#ff922b" opacity="0.85"/>
<circle cx="521.1" cy="397.4" r="3.2" fill="#ff922b" opacity="0.85"/>
<circle cx="528.5" cy="405.2" r="3.2" fill="#ff922b" opacity="0.85"/>
<circle cx="535.9" cy="377.3" r="3.2" fill="#ff922b" opacity="0.85"/>
<circle cx="543.4" cy="433.2" r="3.2" fill="#ff922b" opacity="0.85"/>
<circle cx="550.8" cy="400.3" r="3.2" fill="#ff922b" opacity="0.85"/>
<circle cx="558.2" cy="416.3" r="3.2" fill="#ff922b" opacity="0.85"/>
<circle cx="565.6" cy="401.1" r="3.2" fill="#ff922b" opacity="0.85"/>
<circle cx="573.0" cy="396.3" r="3.2" fill="#ff922b" opacity="0.85"/>
<circle cx="580.5" cy="408.2" r="3.2" fill="#ff922b" opacity="0.85"/>
<circle cx="587.9" cy="400.8" r="3.2" fill="#ff922b" opacity="0.85"/>
<circle cx="595.3" cy="405.5" r="3.2" fill="#ff922b" opacity="0.85"/>
<circle cx="602.7" cy="401.5" r="3.2" fill="#ff922b" opacity="0.85"/>
<circle cx="610.1" cy="380.1" r="3.2" fill="#ff922b" opacity="0.85"/>
<circle cx="617.6" cy="413.0" r="3.2" fill="#ff922b" opacity="0.85"/>
<circle cx="625.0" cy="397.9" r="3.2" fill="#ff922b" opacity="0.85"/>
<circle cx="632.4" cy="412.9" r="3.2" fill="#ff922b" opacity="0.85"/>
<circle cx="639.8" cy="427.1" r="3.2" fill="#ff922b" opacity="0.85"/>
<circle cx="647.2" cy="405.3" r="3.2" fill="#ff922b" opacity="0.85"/>
<circle cx="654.7" cy="411.0" r="3.2" fill="#ff922b" opacity="0.85"/>
<circle cx="662.1" cy="398.1" r="3.2" fill="#ff922b" opacity="0.85"/>
<circle cx="669.5" cy="398.2" r="3.2" fill="#ff922b" opacity="0.85"/>
<circle cx="676.9" cy="399.7" r="3.2" fill="#ff922b" opacity="0.85"/>
<circle cx="684.3" cy="397.4" r="3.2" fill="#ff922b" opacity="0.85"/>
<circle cx="691.8" cy="449.9" r="3.2" fill="#ff922b" opacity="0.85"/>
<circle cx="699.2" cy="414.9" r="3.2" fill="#ff922b" opacity="0.85"/>
<circle cx="706.6" cy="407.0" r="3.2" fill="#ff922b" opacity="0.85"/>
<circle cx="714.0" cy="366.5" r="3.2" fill="#ff922b" opacity="0.85"/>
<circle cx="721.4" cy="399.1" r="3.2" fill="#ff922b" opacity="0.85"/>
<circle cx="728.9" cy="403.6" r="3.2" fill="#ff922b" opacity="0.85"/>
<circle cx="736.3" cy="408.3" r="3.2" fill="#ff922b" opacity="0.85"/>
<circle cx="743.7" cy="401.9" r="3.2" fill="#ff922b" opacity="0.85"/>
<circle cx="751.1" cy="386.1" r="3.2" fill="#ff922b" opacity="0.85"/>
<circle cx="758.5" cy="387.7" r="3.2" fill="#ff922b" opacity="0.85"/>
<circle cx="766.0" cy="401.6" r="3.2" fill="#ff922b" opacity="0.85"/>
<circle cx="773.4" cy="303.3" r="3.2" fill="#ff922b" opacity="0.85"/>
<circle cx="780.8" cy="365.5" r="3.2" fill="#ff922b" opacity="0.85"/>
<circle cx="123.5" cy="399.5" r="2.6" fill="none" stroke="#d4a017" stroke-width="1.8" opacity="0.7999999999999999"/>
<circle cx="130.9" cy="401.6" r="2.6" fill="none" stroke="#d4a017" stroke-width="1.8" opacity="0.7999999999999999"/>
<circle cx="153.1" cy="399.6" r="2.6" fill="none" stroke="#d4a017" stroke-width="1.8" opacity="0.7999999999999999"/>
<circle cx="160.6" cy="390.0" r="2.6" fill="none" stroke="#d4a017" stroke-width="1.8" opacity="0.7999999999999999"/>
<circle cx="168.0" cy="383.3" r="2.6" fill="none" stroke="#d4a017" stroke-width="1.8" opacity="0.7999999999999999"/>
<circle cx="182.8" cy="394.8" r="2.6" fill="none" stroke="#d4a017" stroke-width="1.8" opacity="0.7999999999999999"/>
<circle cx="219.9" cy="394.1" r="2.6" fill="none" stroke="#d4a017" stroke-width="1.8" opacity="0.7999999999999999"/>
<circle cx="294.1" cy="403.1" r="2.6" fill="none" stroke="#d4a017" stroke-width="1.8" opacity="0.7999999999999999"/>
<circle cx="338.6" cy="401.0" r="2.6" fill="none" stroke="#d4a017" stroke-width="1.8" opacity="0.7999999999999999"/>
<circle cx="427.7" cy="394.2" r="2.6" fill="none" stroke="#d4a017" stroke-width="1.8" opacity="0.7999999999999999"/>
<circle cx="680.0" cy="400.4" r="2.6" fill="none" stroke="#d4a017" stroke-width="1.8" opacity="0.7999999999999999"/>
<circle cx="717.1" cy="365.4" r="2.6" fill="none" stroke="#d4a017" stroke-width="1.8" opacity="0.7999999999999999"/>
<circle cx="724.5" cy="399.3" r="2.6" fill="none" stroke="#d4a017" stroke-width="1.8" opacity="0.7999999999999999"/>
<circle cx="776.4" cy="402.2" r="2.6" fill="none" stroke="#d4a017" stroke-width="1.8" opacity="0.7999999999999999"/>
<circle cx="847" cy="84" r="5" fill="#ff922b"/>
<text x="866" y="88" font-size="13" fill="#c9d1d9" font-weight="700">Kāra</text>
<line x1="836" y1="108" x2="858" y2="108" stroke="#a7b0bc" stroke-width="2" stroke-dasharray="5 4"/>
<text x="866" y="112" font-size="13" fill="#c9d1d9" font-weight="400">Rust (default) = 1.0×</text>
<circle cx="847" cy="132" r="4" fill="#3fb950"/>
<text x="866" y="136" font-size="13" fill="#c9d1d9" font-weight="400">C</text>
<circle cx="847" cy="156" r="4" fill="#bc8cff"/>
<text x="866" y="160" font-size="13" fill="#c9d1d9" font-weight="400">Go</text>
<circle cx="847" cy="180" r="4" fill="none" stroke="#d4a017" stroke-width="1.8"/>
<text x="866" y="184" font-size="12" fill="#c9d1d9" font-weight="400">Rust (checked)</text>
<text x="70" y="502" font-size="11.5" fill="#c9d1d9">Solid Rust = 1.0× is the release default — it wraps silently on overflow. Hollow rings ◌ are Rust built overflow-checked,</text>
<text x="70" y="518" font-size="11.5" fill="#c9d1d9">the same safety kāra enforces by default: median 1.05× the cost of plain Rust across the 14 overflow-exercising programs. At that matched safety kāra is ≈ 1.04× — compare kāra to the rings.</text>
<text x="70" y="538" font-size="11.5" fill="#8b949e">Each dot is one benchmarked program (kata × approach); there is no connecting line because left-to-right order is not meaningful. Raw numbers: bench-results.json</text>
</svg>