<svg xmlns="http://www.w3.org/2000/svg" width="980" height="560" viewBox="0 0 980 560" font-family="-apple-system,Segoe UI,Helvetica,Arial,sans-serif">
<rect width="980" height="560" fill="#282c34"/>
<text x="70" y="34" font-size="21" font-weight="700" fill="#c9d1d9">Runtime — sequential lane</text>
<text x="70" y="56" font-size="13" fill="#8b949e">relative to Rust = 1.0 · lower = faster · 26 programs</text>
<line x1="70" y1="456.0" x2="812" y2="456.0" stroke="#3b414b" stroke-width="1"/>
<text x="60" y="460.0" font-size="12" text-anchor="end" fill="#8b949e">0.0×</text>
<line x1="70" y1="380.4" x2="812" y2="380.4" stroke="#3b414b" stroke-width="1"/>
<text x="60" y="384.4" font-size="12" text-anchor="end" fill="#8b949e">1.6×</text>
<line x1="70" y1="304.8" x2="812" y2="304.8" stroke="#3b414b" stroke-width="1"/>
<text x="60" y="308.8" font-size="12" text-anchor="end" fill="#8b949e">3.2×</text>
<line x1="70" y1="229.2" x2="812" y2="229.2" stroke="#3b414b" stroke-width="1"/>
<text x="60" y="233.2" font-size="12" text-anchor="end" fill="#8b949e">4.8×</text>
<line x1="70" y1="153.6" x2="812" y2="153.6" stroke="#3b414b" stroke-width="1"/>
<text x="60" y="157.6" font-size="12" text-anchor="end" fill="#8b949e">6.4×</text>
<line x1="70" y1="78.0" x2="812" y2="78.0" stroke="#3b414b" stroke-width="1"/>
<text x="60" y="82.0" font-size="12" text-anchor="end" fill="#8b949e">8.0×</text>
<text x="812" y="402.8" font-size="11" text-anchor="end" fill="#aeb6c0">Rust baseline</text>
<line x1="99.7" y1="456" x2="99.7" y2="461" stroke="#3b414b"/>
<g transform="translate(99.7,474) rotate(35)">
<text x="0" y="0" font-size="10.5" fill="#8b949e">#1</text>
<text x="0" y="12" font-size="10.5" fill="#8b949e">brute_force</text>
</g>
<line x1="127.0" y1="456" x2="127.0" y2="461" stroke="#3b414b"/>
<g transform="translate(127.0,474) rotate(35)">
<text x="0" y="0" font-size="10.5" fill="#8b949e">#1</text>
<text x="0" y="12" font-size="10.5" fill="#8b949e">hash_map</text>
</g>
<line x1="154.3" y1="456" x2="154.3" y2="461" stroke="#3b414b"/>
<g transform="translate(154.3,474) rotate(35)">
<text x="0" y="0" font-size="10.5" fill="#8b949e">#2</text>
<text x="0" y="12" font-size="10.5" fill="#8b949e">iterative</text>
</g>
<line x1="181.6" y1="456" x2="181.6" y2="461" stroke="#3b414b"/>
<g transform="translate(181.6,474) rotate(35)">
<text x="0" y="0" font-size="10.5" fill="#8b949e">#3</text>
<text x="0" y="12" font-size="10.5" fill="#8b949e">sliding_window</text>
</g>
<line x1="208.9" y1="456" x2="208.9" y2="461" stroke="#3b414b"/>
<g transform="translate(208.9,474) rotate(35)">
<text x="0" y="0" font-size="10.5" fill="#8b949e">#4</text>
<text x="0" y="12" font-size="10.5" fill="#8b949e">binary_search…</text>
</g>
<line x1="236.2" y1="456" x2="236.2" y2="461" stroke="#3b414b"/>
<g transform="translate(236.2,474) rotate(35)">
<text x="0" y="0" font-size="10.5" fill="#8b949e">#5</text>
<text x="0" y="12" font-size="10.5" fill="#8b949e">expand_around…</text>
</g>
<line x1="263.5" y1="456" x2="263.5" y2="461" stroke="#3b414b"/>
<g transform="translate(263.5,474) rotate(35)">
<text x="0" y="0" font-size="10.5" fill="#8b949e">#6</text>
<text x="0" y="12" font-size="10.5" fill="#8b949e">row_buffers</text>
</g>
<line x1="290.8" y1="456" x2="290.8" y2="461" stroke="#3b414b"/>
<g transform="translate(290.8,474) rotate(35)">
<text x="0" y="0" font-size="10.5" fill="#8b949e">#7</text>
<text x="0" y="12" font-size="10.5" fill="#8b949e">reverse</text>
</g>
<line x1="318.1" y1="456" x2="318.1" y2="461" stroke="#3b414b"/>
<g transform="translate(318.1,474) rotate(35)">
<text x="0" y="0" font-size="10.5" fill="#8b949e">#8</text>
<text x="0" y="12" font-size="10.5" fill="#8b949e">atoi</text>
</g>
<line x1="345.4" y1="456" x2="345.4" y2="461" stroke="#3b414b"/>
<g transform="translate(345.4,474) rotate(35)">
<text x="0" y="0" font-size="10.5" fill="#8b949e">#9</text>
<text x="0" y="12" font-size="10.5" fill="#8b949e">palindrome</text>
</g>
<line x1="372.7" y1="456" x2="372.7" y2="461" stroke="#3b414b"/>
<g transform="translate(372.7,474) rotate(35)">
<text x="0" y="0" font-size="10.5" fill="#8b949e">#10</text>
<text x="0" y="12" font-size="10.5" fill="#8b949e">regex</text>
</g>
<line x1="400.0" y1="456" x2="400.0" y2="461" stroke="#3b414b"/>
<g transform="translate(400.0,474) rotate(35)">
<text x="0" y="0" font-size="10.5" fill="#8b949e">#11</text>
<text x="0" y="12" font-size="10.5" fill="#8b949e">container</text>
</g>
<line x1="427.3" y1="456" x2="427.3" y2="461" stroke="#3b414b"/>
<g transform="translate(427.3,474) rotate(35)">
<text x="0" y="0" font-size="10.5" fill="#8b949e">#12</text>
<text x="0" y="12" font-size="10.5" fill="#8b949e">greedy</text>
</g>
<line x1="454.7" y1="456" x2="454.7" y2="461" stroke="#3b414b"/>
<g transform="translate(454.7,474) rotate(35)">
<text x="0" y="0" font-size="10.5" fill="#8b949e">#13</text>
<text x="0" y="12" font-size="10.5" fill="#8b949e">greedy</text>
</g>
<line x1="482.0" y1="456" x2="482.0" y2="461" stroke="#3b414b"/>
<g transform="translate(482.0,474) rotate(35)">
<text x="0" y="0" font-size="10.5" fill="#8b949e">#14</text>
<text x="0" y="12" font-size="10.5" fill="#8b949e">vertical</text>
</g>
<line x1="509.3" y1="456" x2="509.3" y2="461" stroke="#3b414b"/>
<g transform="translate(509.3,474) rotate(35)">
<text x="0" y="0" font-size="10.5" fill="#8b949e">#15</text>
<text x="0" y="12" font-size="10.5" fill="#8b949e">three_sum</text>
</g>
<line x1="536.6" y1="456" x2="536.6" y2="461" stroke="#3b414b"/>
<g transform="translate(536.6,474) rotate(35)">
<text x="0" y="0" font-size="10.5" fill="#8b949e">#16</text>
<text x="0" y="12" font-size="10.5" fill="#8b949e">three_sum_clo…</text>
</g>
<line x1="563.9" y1="456" x2="563.9" y2="461" stroke="#3b414b"/>
<g transform="translate(563.9,474) rotate(35)">
<text x="0" y="0" font-size="10.5" fill="#8b949e">#17</text>
<text x="0" y="12" font-size="10.5" fill="#8b949e">letter_combin…</text>
</g>
<line x1="591.2" y1="456" x2="591.2" y2="461" stroke="#3b414b"/>
<g transform="translate(591.2,474) rotate(35)">
<text x="0" y="0" font-size="10.5" fill="#8b949e">#18</text>
<text x="0" y="12" font-size="10.5" fill="#8b949e">four_sum</text>
</g>
<line x1="618.5" y1="456" x2="618.5" y2="461" stroke="#3b414b"/>
<g transform="translate(618.5,474) rotate(35)">
<text x="0" y="0" font-size="10.5" fill="#8b949e">#19</text>
<text x="0" y="12" font-size="10.5" fill="#8b949e">remove_nth</text>
</g>
<line x1="645.8" y1="456" x2="645.8" y2="461" stroke="#3b414b"/>
<g transform="translate(645.8,474) rotate(35)">
<text x="0" y="0" font-size="10.5" fill="#8b949e">#20</text>
<text x="0" y="12" font-size="10.5" fill="#8b949e">valid_parenth…</text>
</g>
<line x1="673.1" y1="456" x2="673.1" y2="461" stroke="#3b414b"/>
<g transform="translate(673.1,474) rotate(35)">
<text x="0" y="0" font-size="10.5" fill="#8b949e">#21</text>
<text x="0" y="12" font-size="10.5" fill="#8b949e">iterative</text>
</g>
<line x1="700.4" y1="456" x2="700.4" y2="461" stroke="#3b414b"/>
<g transform="translate(700.4,474) rotate(35)">
<text x="0" y="0" font-size="10.5" fill="#8b949e">#56</text>
<text x="0" y="12" font-size="10.5" fill="#8b949e">merge_interva…</text>
</g>
<line x1="727.7" y1="456" x2="727.7" y2="461" stroke="#3b414b"/>
<g transform="translate(727.7,474) rotate(35)">
<text x="0" y="0" font-size="10.5" fill="#8b949e">#65</text>
<text x="0" y="12" font-size="10.5" fill="#8b949e">valid</text>
</g>
<line x1="755.0" y1="456" x2="755.0" y2="461" stroke="#3b414b"/>
<g transform="translate(755.0,474) rotate(35)">
<text x="0" y="0" font-size="10.5" fill="#8b949e">#71</text>
<text x="0" y="12" font-size="10.5" fill="#8b949e">simplify</text>
</g>
<line x1="782.3" y1="456" x2="782.3" y2="461" stroke="#3b414b"/>
<g transform="translate(782.3,474) rotate(35)">
<text x="0" y="0" font-size="10.5" fill="#8b949e">#204</text>
<text x="0" y="12" font-size="10.5" fill="#8b949e">count</text>
</g>
<circle cx="99.7" cy="412.1" r="4.0" fill="#3fb950" opacity="0.95"/>
<circle cx="127.0" cy="428.3" r="4.0" fill="#3fb950" opacity="0.95"/>
<circle cx="154.3" cy="432.1" r="4.0" fill="#3fb950" opacity="0.95"/>
<circle cx="181.6" cy="445.3" r="4.0" fill="#3fb950" opacity="0.95"/>
<circle cx="208.9" cy="418.4" r="4.0" fill="#3fb950" opacity="0.95"/>
<circle cx="236.2" cy="416.5" r="4.0" fill="#3fb950" opacity="0.95"/>
<circle cx="263.5" cy="408.8" r="4.0" fill="#3fb950" opacity="0.95"/>
<circle cx="290.8" cy="407.6" r="4.0" fill="#3fb950" opacity="0.95"/>
<circle cx="318.1" cy="405.1" r="4.0" fill="#3fb950" opacity="0.95"/>
<circle cx="345.4" cy="402.4" r="4.0" fill="#3fb950" opacity="0.95"/>
<circle cx="372.7" cy="408.7" r="4.0" fill="#3fb950" opacity="0.95"/>
<circle cx="400.0" cy="415.1" r="4.0" fill="#3fb950" opacity="0.95"/>
<circle cx="427.3" cy="399.9" r="4.0" fill="#3fb950" opacity="0.95"/>
<circle cx="454.7" cy="407.4" r="4.0" fill="#3fb950" opacity="0.95"/>
<circle cx="482.0" cy="416.1" r="4.0" fill="#3fb950" opacity="0.95"/>
<circle cx="509.3" cy="402.8" r="4.0" fill="#3fb950" opacity="0.95"/>
<circle cx="536.6" cy="369.3" r="4.0" fill="#3fb950" opacity="0.95"/>
<circle cx="563.9" cy="422.1" r="4.0" fill="#3fb950" opacity="0.95"/>
<circle cx="591.2" cy="409.0" r="4.0" fill="#3fb950" opacity="0.95"/>
<circle cx="618.5" cy="428.1" r="4.0" fill="#3fb950" opacity="0.95"/>
<circle cx="645.8" cy="411.9" r="4.0" fill="#3fb950" opacity="0.95"/>
<circle cx="673.1" cy="421.7" r="4.0" fill="#3fb950" opacity="0.95"/>
<circle cx="700.4" cy="377.2" r="4.0" fill="#3fb950" opacity="0.95"/>
<circle cx="727.7" cy="400.8" r="4.0" fill="#3fb950" opacity="0.95"/>
<circle cx="755.0" cy="450.9" r="4.0" fill="#3fb950" opacity="0.95"/>
<circle cx="782.3" cy="409.4" r="4.0" fill="#3fb950" opacity="0.95"/>
<circle cx="103.5" cy="410.7" r="4.0" fill="#bc8cff" opacity="0.95"/>
<circle cx="130.8" cy="397.2" r="4.0" fill="#bc8cff" opacity="0.95"/>
<circle cx="158.1" cy="430.6" r="4.0" fill="#bc8cff" opacity="0.95"/>
<circle cx="185.4" cy="399.4" r="4.0" fill="#bc8cff" opacity="0.95"/>
<circle cx="212.7" cy="370.4" r="4.0" fill="#bc8cff" opacity="0.95"/>
<circle cx="240.0" cy="398.6" r="4.0" fill="#bc8cff" opacity="0.95"/>
<circle cx="267.3" cy="337.9" r="4.0" fill="#bc8cff" opacity="0.95"/>
<circle cx="294.7" cy="401.8" r="4.0" fill="#bc8cff" opacity="0.95"/>
<circle cx="322.0" cy="395.7" r="4.0" fill="#bc8cff" opacity="0.95"/>
<circle cx="349.3" cy="373.7" r="4.0" fill="#bc8cff" opacity="0.95"/>
<circle cx="376.6" cy="385.5" r="4.0" fill="#bc8cff" opacity="0.95"/>
<circle cx="403.9" cy="427.9" r="4.0" fill="#bc8cff" opacity="0.95"/>
<circle cx="431.2" cy="409.2" r="4.0" fill="#bc8cff" opacity="0.95"/>
<circle cx="458.5" cy="409.3" r="4.0" fill="#bc8cff" opacity="0.95"/>
<circle cx="485.8" cy="416.7" r="4.0" fill="#bc8cff" opacity="0.95"/>
<circle cx="513.1" cy="378.0" r="4.0" fill="#bc8cff" opacity="0.95"/>
<circle cx="540.4" cy="314.4" r="4.0" fill="#bc8cff" opacity="0.95"/>
<circle cx="567.7" cy="422.2" r="4.0" fill="#bc8cff" opacity="0.95"/>
<circle cx="595.0" cy="390.8" r="4.0" fill="#bc8cff" opacity="0.95"/>
<circle cx="622.3" cy="429.9" r="4.0" fill="#bc8cff" opacity="0.95"/>
<circle cx="649.6" cy="402.0" r="4.0" fill="#bc8cff" opacity="0.95"/>
<circle cx="676.9" cy="424.2" r="4.0" fill="#bc8cff" opacity="0.95"/>
<circle cx="704.2" cy="118.9" r="4.0" fill="#bc8cff" opacity="0.95"/>
<circle cx="731.5" cy="397.6" r="4.0" fill="#bc8cff" opacity="0.95"/>
<circle cx="758.8" cy="434.5" r="4.0" fill="#bc8cff" opacity="0.95"/>
<circle cx="786.2" cy="415.0" r="4.0" fill="#bc8cff" opacity="0.95"/>
<circle cx="95.8" cy="412.5" r="5.0" fill="#ff922b" opacity="1.0"/>
<circle cx="123.2" cy="419.8" r="5.0" fill="#ff922b" opacity="1.0"/>
<circle cx="150.5" cy="425.6" r="5.0" fill="#ff922b" opacity="1.0"/>
<circle cx="177.8" cy="437.2" r="5.0" fill="#ff922b" opacity="1.0"/>
<circle cx="205.1" cy="409.1" r="5.0" fill="#ff922b" opacity="1.0"/>
<circle cx="232.4" cy="405.6" r="5.0" fill="#ff922b" opacity="1.0"/>
<circle cx="259.7" cy="406.1" r="5.0" fill="#ff922b" opacity="1.0"/>
<circle cx="287.0" cy="408.7" r="5.0" fill="#ff922b" opacity="1.0"/>
<circle cx="314.3" cy="410.6" r="5.0" fill="#ff922b" opacity="1.0"/>
<circle cx="341.6" cy="401.0" r="5.0" fill="#ff922b" opacity="1.0"/>
<circle cx="368.9" cy="409.8" r="5.0" fill="#ff922b" opacity="1.0"/>
<circle cx="396.2" cy="414.7" r="5.0" fill="#ff922b" opacity="1.0"/>
<circle cx="423.5" cy="410.8" r="5.0" fill="#ff922b" opacity="1.0"/>
<circle cx="450.8" cy="416.1" r="5.0" fill="#ff922b" opacity="1.0"/>
<circle cx="478.1" cy="397.8" r="5.0" fill="#ff922b" opacity="1.0"/>
<circle cx="505.4" cy="414.3" r="5.0" fill="#ff922b" opacity="1.0"/>
<circle cx="532.7" cy="404.8" r="5.0" fill="#ff922b" opacity="1.0"/>
<circle cx="560.0" cy="409.4" r="5.0" fill="#ff922b" opacity="1.0"/>
<circle cx="587.3" cy="413.2" r="5.0" fill="#ff922b" opacity="1.0"/>
<circle cx="614.7" cy="424.6" r="5.0" fill="#ff922b" opacity="1.0"/>
<circle cx="642.0" cy="413.6" r="5.0" fill="#ff922b" opacity="1.0"/>
<circle cx="669.3" cy="420.2" r="5.0" fill="#ff922b" opacity="1.0"/>
<circle cx="696.6" cy="404.9" r="5.0" fill="#ff922b" opacity="1.0"/>
<circle cx="723.9" cy="401.4" r="5.0" fill="#ff922b" opacity="1.0"/>
<circle cx="751.2" cy="408.1" r="5.0" fill="#ff922b" opacity="1.0"/>
<circle cx="778.5" cy="393.1" r="5.0" fill="#ff922b" opacity="1.0"/>
<circle cx="847" cy="84" r="5" fill="#ff922b"/>
<text x="866" y="88" font-size="13" fill="#c9d1d9" font-weight="700">Kāra</text>
<line x1="836" y1="108" x2="858" y2="108" stroke="#6e7681" stroke-width="1.6" stroke-dasharray="5 4"/>
<text x="866" y="112" font-size="13" fill="#c9d1d9" font-weight="400">Rust</text>
<circle cx="847" cy="132" r="4" fill="#3fb950"/>
<text x="866" y="136" font-size="13" fill="#c9d1d9" font-weight="400">C</text>
<circle cx="847" cy="156" r="4" fill="#bc8cff"/>
<text x="866" y="160" font-size="13" fill="#c9d1d9" font-weight="400">Go</text>
<text x="70" y="538" font-size="11.5" fill="#8b949e">Each dot is one benchmarked program (kata × approach); there is no connecting line because left-to-right order is not meaningful. Raw numbers: bench-results.json</text>
</svg>