<svg xmlns="http://www.w3.org/2000/svg" width="980" height="560" viewBox="0 0 980 560" font-family="-apple-system,Segoe UI,Helvetica,Arial,sans-serif">
<rect width="980" height="560" fill="#282c34"/>
<text x="70" y="34" font-size="21" font-weight="700" fill="#c9d1d9">Runtime — auto-parallel lane</text>
<text x="70" y="56" font-size="13" fill="#8b949e">relative to Rust = 1.0 · lower = faster · 33 programs</text>
<line x1="70" y1="456.0" x2="812" y2="456.0" stroke="#3b414b" stroke-width="1"/>
<text x="60" y="460.0" font-size="12" text-anchor="end" fill="#8b949e">0.0×</text>
<line x1="70" y1="437.1" x2="812" y2="437.1" stroke="#a7b0bc" stroke-width="2" stroke-dasharray="5 4"/>
<text x="60" y="441.1" font-size="12" text-anchor="end" fill="#aeb6c0" font-weight="700">1.0×</text>
<line x1="70" y1="380.4" x2="812" y2="380.4" stroke="#3b414b" stroke-width="1"/>
<text x="60" y="384.4" font-size="12" text-anchor="end" fill="#8b949e">4.0×</text>
<line x1="70" y1="304.8" x2="812" y2="304.8" stroke="#3b414b" stroke-width="1"/>
<text x="60" y="308.8" font-size="12" text-anchor="end" fill="#8b949e">8.0×</text>
<line x1="70" y1="229.2" x2="812" y2="229.2" stroke="#3b414b" stroke-width="1"/>
<text x="60" y="233.2" font-size="12" text-anchor="end" fill="#8b949e">12.0×</text>
<line x1="70" y1="153.6" x2="812" y2="153.6" stroke="#3b414b" stroke-width="1"/>
<text x="60" y="157.6" font-size="12" text-anchor="end" fill="#8b949e">16.0×</text>
<line x1="70" y1="78.0" x2="812" y2="78.0" stroke="#3b414b" stroke-width="1"/>
<text x="60" y="82.0" font-size="12" text-anchor="end" fill="#8b949e">20.0×</text>
<text x="812" y="431.1" font-size="11" text-anchor="end" fill="#aeb6c0">Rust baseline</text>
<line x1="70" y1="456" x2="812" y2="456" stroke="#3b414b"/>
<text x="441.0" y="478" font-size="11" text-anchor="middle" fill="#8b949e">33 programs (kata × approach) — x-order carries no meaning</text>
<circle cx="99.7" cy="413.0" r="2.6" fill="#3fb950" opacity="0.7"/>
<circle cx="121.0" cy="439.8" r="2.6" fill="#3fb950" opacity="0.7"/>
<circle cx="142.3" cy="422.5" r="2.6" fill="#3fb950" opacity="0.7"/>
<circle cx="163.7" cy="442.9" r="2.6" fill="#3fb950" opacity="0.7"/>
<circle cx="185.0" cy="436.9" r="2.6" fill="#3fb950" opacity="0.7"/>
<circle cx="206.3" cy="436.4" r="2.6" fill="#3fb950" opacity="0.7"/>
<circle cx="227.7" cy="436.4" r="2.6" fill="#3fb950" opacity="0.7"/>
<circle cx="249.0" cy="435.2" r="2.6" fill="#3fb950" opacity="0.7"/>
<circle cx="270.3" cy="438.8" r="2.6" fill="#3fb950" opacity="0.7"/>
<circle cx="291.7" cy="443.7" r="2.6" fill="#3fb950" opacity="0.7"/>
<circle cx="313.0" cy="433.4" r="2.6" fill="#3fb950" opacity="0.7"/>
<circle cx="334.3" cy="438.1" r="2.6" fill="#3fb950" opacity="0.7"/>
<circle cx="355.7" cy="437.7" r="2.6" fill="#3fb950" opacity="0.7"/>
<circle cx="377.0" cy="427.5" r="2.6" fill="#3fb950" opacity="0.7"/>
<circle cx="398.3" cy="437.8" r="2.6" fill="#3fb950" opacity="0.7"/>
<circle cx="419.7" cy="437.3" r="2.6" fill="#3fb950" opacity="0.7"/>
<circle cx="441.0" cy="436.4" r="2.6" fill="#3fb950" opacity="0.7"/>
<circle cx="462.3" cy="446.6" r="2.6" fill="#3fb950" opacity="0.7"/>
<circle cx="483.7" cy="450.7" r="2.6" fill="#3fb950" opacity="0.7"/>
<circle cx="505.0" cy="432.8" r="2.6" fill="#3fb950" opacity="0.7"/>
<circle cx="526.3" cy="436.2" r="2.6" fill="#3fb950" opacity="0.7"/>
<circle cx="547.7" cy="455.0" r="2.6" fill="#3fb950" opacity="0.7"/>
<circle cx="569.0" cy="434.6" r="2.6" fill="#3fb950" opacity="0.7"/>
<circle cx="590.3" cy="434.7" r="2.6" fill="#3fb950" opacity="0.7"/>
<circle cx="611.7" cy="453.6" r="2.6" fill="#3fb950" opacity="0.7"/>
<circle cx="633.0" cy="444.0" r="2.6" fill="#3fb950" opacity="0.7"/>
<circle cx="654.3" cy="450.0" r="2.6" fill="#3fb950" opacity="0.7"/>
<circle cx="675.7" cy="439.9" r="2.6" fill="#3fb950" opacity="0.7"/>
<circle cx="697.0" cy="438.7" r="2.6" fill="#3fb950" opacity="0.7"/>
<circle cx="718.3" cy="431.9" r="2.6" fill="#3fb950" opacity="0.7"/>
<circle cx="739.7" cy="433.2" r="2.6" fill="#3fb950" opacity="0.7"/>
<circle cx="761.0" cy="439.0" r="2.6" fill="#3fb950" opacity="0.7"/>
<circle cx="782.3" cy="418.4" r="2.6" fill="#3fb950" opacity="0.7"/>
<circle cx="102.3" cy="397.5" r="2.6" fill="#bc8cff" opacity="0.7"/>
<circle cx="123.6" cy="427.9" r="2.6" fill="#bc8cff" opacity="0.7"/>
<circle cx="145.0" cy="407.6" r="2.6" fill="#bc8cff" opacity="0.7"/>
<circle cx="166.3" cy="309.3" r="2.6" fill="#bc8cff" opacity="0.7"/>
<circle cx="187.6" cy="434.3" r="2.6" fill="#bc8cff" opacity="0.7"/>
<circle cx="209.0" cy="433.3" r="2.6" fill="#bc8cff" opacity="0.7"/>
<circle cx="230.3" cy="426.0" r="2.6" fill="#bc8cff" opacity="0.7"/>
<circle cx="251.6" cy="426.3" r="2.6" fill="#bc8cff" opacity="0.7"/>
<circle cx="273.0" cy="443.7" r="2.6" fill="#bc8cff" opacity="0.7"/>
<circle cx="294.3" cy="286.9" r="2.6" fill="#bc8cff" opacity="0.7"/>
<circle cx="315.6" cy="327.7" r="2.6" fill="#bc8cff" opacity="0.7"/>
<circle cx="337.0" cy="436.5" r="2.6" fill="#bc8cff" opacity="0.7"/>
<circle cx="358.3" cy="258.9" r="2.6" fill="#bc8cff" opacity="0.7"/>
<circle cx="379.6" cy="284.6" r="2.6" fill="#bc8cff" opacity="0.7"/>
<circle cx="401.0" cy="366.6" r="2.6" fill="#bc8cff" opacity="0.7"/>
<circle cx="422.3" cy="257.3" r="2.6" fill="#bc8cff" opacity="0.7"/>
<circle cx="443.6" cy="274.2" r="2.6" fill="#bc8cff" opacity="0.7"/>
<circle cx="465.0" cy="427.4" r="2.6" fill="#bc8cff" opacity="0.7"/>
<circle cx="486.3" cy="418.1" r="2.6" fill="#bc8cff" opacity="0.7"/>
<circle cx="507.6" cy="413.4" r="2.6" fill="#bc8cff" opacity="0.7"/>
<circle cx="529.0" cy="86.5" r="2.6" fill="#bc8cff" opacity="0.7"/>
<circle cx="550.3" cy="454.0" r="2.6" fill="#bc8cff" opacity="0.7"/>
<circle cx="571.6" cy="290.7" r="2.6" fill="#bc8cff" opacity="0.7"/>
<circle cx="593.0" cy="427.7" r="2.6" fill="#bc8cff" opacity="0.7"/>
<circle cx="614.3" cy="450.7" r="2.6" fill="#bc8cff" opacity="0.7"/>
<circle cx="635.6" cy="385.7" r="2.6" fill="#bc8cff" opacity="0.7"/>
<circle cx="657.0" cy="400.0" r="2.6" fill="#bc8cff" opacity="0.7"/>
<circle cx="678.3" cy="433.5" r="2.6" fill="#bc8cff" opacity="0.7"/>
<circle cx="699.6" cy="433.9" r="2.6" fill="#bc8cff" opacity="0.7"/>
<circle cx="721.0" cy="429.9" r="2.6" fill="#bc8cff" opacity="0.7"/>
<circle cx="742.3" cy="397.1" r="2.6" fill="#bc8cff" opacity="0.7"/>
<circle cx="763.6" cy="404.0" r="2.6" fill="#bc8cff" opacity="0.7"/>
<circle cx="785.0" cy="375.6" r="2.6" fill="#bc8cff" opacity="0.7"/>
<circle cx="97.0" cy="431.9" r="3.2" fill="#ff922b" opacity="0.85"/>
<circle cx="118.4" cy="438.1" r="3.2" fill="#ff922b" opacity="0.85"/>
<circle cx="139.7" cy="424.8" r="3.2" fill="#ff922b" opacity="0.85"/>
<circle cx="161.0" cy="440.0" r="3.2" fill="#ff922b" opacity="0.85"/>
<circle cx="182.4" cy="434.3" r="3.2" fill="#ff922b" opacity="0.85"/>
<circle cx="203.7" cy="432.4" r="3.2" fill="#ff922b" opacity="0.85"/>
<circle cx="225.0" cy="432.3" r="3.2" fill="#ff922b" opacity="0.85"/>
<circle cx="246.4" cy="433.9" r="3.2" fill="#ff922b" opacity="0.85"/>
<circle cx="267.7" cy="442.2" r="3.2" fill="#ff922b" opacity="0.85"/>
<circle cx="289.0" cy="434.7" r="3.2" fill="#ff922b" opacity="0.85"/>
<circle cx="310.4" cy="436.0" r="3.2" fill="#ff922b" opacity="0.85"/>
<circle cx="331.7" cy="434.6" r="3.2" fill="#ff922b" opacity="0.85"/>
<circle cx="353.0" cy="433.7" r="3.2" fill="#ff922b" opacity="0.85"/>
<circle cx="374.4" cy="433.7" r="3.2" fill="#ff922b" opacity="0.85"/>
<circle cx="395.7" cy="431.5" r="3.2" fill="#ff922b" opacity="0.85"/>
<circle cx="417.0" cy="434.4" r="3.2" fill="#ff922b" opacity="0.85"/>
<circle cx="438.4" cy="439.9" r="3.2" fill="#ff922b" opacity="0.85"/>
<circle cx="459.7" cy="447.1" r="3.2" fill="#ff922b" opacity="0.85"/>
<circle cx="481.0" cy="443.5" r="3.2" fill="#ff922b" opacity="0.85"/>
<circle cx="502.4" cy="429.5" r="3.2" fill="#ff922b" opacity="0.85"/>
<circle cx="523.7" cy="431.9" r="3.2" fill="#ff922b" opacity="0.85"/>
<circle cx="545.0" cy="436.2" r="3.2" fill="#ff922b" opacity="0.85"/>
<circle cx="566.4" cy="425.8" r="3.2" fill="#ff922b" opacity="0.85"/>
<circle cx="587.7" cy="434.6" r="3.2" fill="#ff922b" opacity="0.85"/>
<circle cx="609.0" cy="435.3" r="3.2" fill="#ff922b" opacity="0.85"/>
<circle cx="630.4" cy="435.2" r="3.2" fill="#ff922b" opacity="0.85"/>
<circle cx="651.7" cy="442.3" r="3.2" fill="#ff922b" opacity="0.85"/>
<circle cx="673.0" cy="436.2" r="3.2" fill="#ff922b" opacity="0.85"/>
<circle cx="694.4" cy="427.4" r="3.2" fill="#ff922b" opacity="0.85"/>
<circle cx="715.7" cy="425.4" r="3.2" fill="#ff922b" opacity="0.85"/>
<circle cx="737.0" cy="435.8" r="3.2" fill="#ff922b" opacity="0.85"/>
<circle cx="758.4" cy="432.7" r="3.2" fill="#ff922b" opacity="0.85"/>
<circle cx="779.7" cy="435.7" r="3.2" fill="#ff922b" opacity="0.85"/>
<circle cx="847" cy="84" r="5" fill="#ff922b"/>
<text x="866" y="88" font-size="13" fill="#c9d1d9" font-weight="700">Kāra</text>
<line x1="836" y1="108" x2="858" y2="108" stroke="#a7b0bc" stroke-width="2" stroke-dasharray="5 4"/>
<text x="866" y="112" font-size="13" fill="#c9d1d9" font-weight="400">Rust = 1.0×</text>
<circle cx="847" cy="132" r="4" fill="#3fb950"/>
<text x="866" y="136" font-size="13" fill="#c9d1d9" font-weight="400">C</text>
<circle cx="847" cy="156" r="4" fill="#bc8cff"/>
<text x="866" y="160" font-size="13" fill="#c9d1d9" font-weight="400">Go</text>
<text x="70" y="538" font-size="11.5" fill="#8b949e">Each dot is one benchmarked program (kata × approach); there is no connecting line because left-to-right order is not meaningful. Raw numbers: bench-results.json</text>
</svg>