<svg xmlns="http://www.w3.org/2000/svg" width="980" height="560" viewBox="0 0 980 560" font-family="-apple-system,Segoe UI,Helvetica,Arial,sans-serif">
<rect width="980" height="560" fill="#282c34"/>
<text x="70" y="34" font-size="21" font-weight="700" fill="#c9d1d9">Runtime — auto-parallel lane</text>
<text x="70" y="56" font-size="13" fill="#8b949e">relative to Rust = 1.0 · lower = faster · 34 programs</text>
<line x1="70" y1="456.0" x2="812" y2="456.0" stroke="#3b414b" stroke-width="1"/>
<text x="60" y="460.0" font-size="12" text-anchor="end" fill="#8b949e">0.0×</text>
<line x1="70" y1="437.1" x2="812" y2="437.1" stroke="#a7b0bc" stroke-width="2" stroke-dasharray="5 4"/>
<text x="60" y="441.1" font-size="12" text-anchor="end" fill="#aeb6c0" font-weight="700">1.0×</text>
<line x1="70" y1="380.4" x2="812" y2="380.4" stroke="#3b414b" stroke-width="1"/>
<text x="60" y="384.4" font-size="12" text-anchor="end" fill="#8b949e">4.0×</text>
<line x1="70" y1="304.8" x2="812" y2="304.8" stroke="#3b414b" stroke-width="1"/>
<text x="60" y="308.8" font-size="12" text-anchor="end" fill="#8b949e">8.0×</text>
<line x1="70" y1="229.2" x2="812" y2="229.2" stroke="#3b414b" stroke-width="1"/>
<text x="60" y="233.2" font-size="12" text-anchor="end" fill="#8b949e">12.0×</text>
<line x1="70" y1="153.6" x2="812" y2="153.6" stroke="#3b414b" stroke-width="1"/>
<text x="60" y="157.6" font-size="12" text-anchor="end" fill="#8b949e">16.0×</text>
<line x1="70" y1="78.0" x2="812" y2="78.0" stroke="#3b414b" stroke-width="1"/>
<text x="60" y="82.0" font-size="12" text-anchor="end" fill="#8b949e">20.0×</text>
<text x="812" y="431.1" font-size="11" text-anchor="end" fill="#aeb6c0">Rust baseline</text>
<line x1="70" y1="456" x2="812" y2="456" stroke="#3b414b"/>
<text x="441.0" y="478" font-size="11" text-anchor="middle" fill="#8b949e">34 programs (kata × approach) — x-order carries no meaning</text>
<circle cx="99.7" cy="413.0" r="2.6" fill="#3fb950" opacity="0.7"/>
<circle cx="120.4" cy="439.8" r="2.6" fill="#3fb950" opacity="0.7"/>
<circle cx="141.1" cy="422.5" r="2.6" fill="#3fb950" opacity="0.7"/>
<circle cx="161.7" cy="442.9" r="2.6" fill="#3fb950" opacity="0.7"/>
<circle cx="182.4" cy="436.9" r="2.6" fill="#3fb950" opacity="0.7"/>
<circle cx="203.1" cy="436.4" r="2.6" fill="#3fb950" opacity="0.7"/>
<circle cx="223.8" cy="436.4" r="2.6" fill="#3fb950" opacity="0.7"/>
<circle cx="244.5" cy="435.2" r="2.6" fill="#3fb950" opacity="0.7"/>
<circle cx="265.2" cy="438.8" r="2.6" fill="#3fb950" opacity="0.7"/>
<circle cx="285.9" cy="443.7" r="2.6" fill="#3fb950" opacity="0.7"/>
<circle cx="306.5" cy="433.4" r="2.6" fill="#3fb950" opacity="0.7"/>
<circle cx="327.2" cy="438.1" r="2.6" fill="#3fb950" opacity="0.7"/>
<circle cx="347.9" cy="437.7" r="2.6" fill="#3fb950" opacity="0.7"/>
<circle cx="368.6" cy="427.5" r="2.6" fill="#3fb950" opacity="0.7"/>
<circle cx="389.3" cy="437.8" r="2.6" fill="#3fb950" opacity="0.7"/>
<circle cx="410.0" cy="437.3" r="2.6" fill="#3fb950" opacity="0.7"/>
<circle cx="430.7" cy="436.4" r="2.6" fill="#3fb950" opacity="0.7"/>
<circle cx="451.3" cy="446.6" r="2.6" fill="#3fb950" opacity="0.7"/>
<circle cx="472.0" cy="450.7" r="2.6" fill="#3fb950" opacity="0.7"/>
<circle cx="492.7" cy="432.8" r="2.6" fill="#3fb950" opacity="0.7"/>
<circle cx="513.4" cy="436.2" r="2.6" fill="#3fb950" opacity="0.7"/>
<circle cx="534.1" cy="455.0" r="2.6" fill="#3fb950" opacity="0.7"/>
<circle cx="554.8" cy="434.6" r="2.6" fill="#3fb950" opacity="0.7"/>
<circle cx="575.5" cy="434.7" r="2.6" fill="#3fb950" opacity="0.7"/>
<circle cx="596.1" cy="453.6" r="2.6" fill="#3fb950" opacity="0.7"/>
<circle cx="616.8" cy="438.7" r="2.6" fill="#3fb950" opacity="0.7"/>
<circle cx="637.5" cy="444.0" r="2.6" fill="#3fb950" opacity="0.7"/>
<circle cx="658.2" cy="450.0" r="2.6" fill="#3fb950" opacity="0.7"/>
<circle cx="678.9" cy="439.9" r="2.6" fill="#3fb950" opacity="0.7"/>
<circle cx="699.6" cy="438.7" r="2.6" fill="#3fb950" opacity="0.7"/>
<circle cx="720.3" cy="431.9" r="2.6" fill="#3fb950" opacity="0.7"/>
<circle cx="740.9" cy="433.2" r="2.6" fill="#3fb950" opacity="0.7"/>
<circle cx="761.6" cy="439.0" r="2.6" fill="#3fb950" opacity="0.7"/>
<circle cx="782.3" cy="418.4" r="2.6" fill="#3fb950" opacity="0.7"/>
<circle cx="102.3" cy="397.5" r="2.6" fill="#bc8cff" opacity="0.7"/>
<circle cx="123.0" cy="427.9" r="2.6" fill="#bc8cff" opacity="0.7"/>
<circle cx="143.7" cy="407.6" r="2.6" fill="#bc8cff" opacity="0.7"/>
<circle cx="164.4" cy="309.3" r="2.6" fill="#bc8cff" opacity="0.7"/>
<circle cx="185.1" cy="434.3" r="2.6" fill="#bc8cff" opacity="0.7"/>
<circle cx="205.7" cy="433.3" r="2.6" fill="#bc8cff" opacity="0.7"/>
<circle cx="226.4" cy="426.0" r="2.6" fill="#bc8cff" opacity="0.7"/>
<circle cx="247.1" cy="426.3" r="2.6" fill="#bc8cff" opacity="0.7"/>
<circle cx="267.8" cy="443.7" r="2.6" fill="#bc8cff" opacity="0.7"/>
<circle cx="288.5" cy="286.9" r="2.6" fill="#bc8cff" opacity="0.7"/>
<circle cx="309.2" cy="327.7" r="2.6" fill="#bc8cff" opacity="0.7"/>
<circle cx="329.9" cy="436.5" r="2.6" fill="#bc8cff" opacity="0.7"/>
<circle cx="350.5" cy="258.9" r="2.6" fill="#bc8cff" opacity="0.7"/>
<circle cx="371.2" cy="284.6" r="2.6" fill="#bc8cff" opacity="0.7"/>
<circle cx="391.9" cy="366.6" r="2.6" fill="#bc8cff" opacity="0.7"/>
<circle cx="412.6" cy="257.3" r="2.6" fill="#bc8cff" opacity="0.7"/>
<circle cx="433.3" cy="274.2" r="2.6" fill="#bc8cff" opacity="0.7"/>
<circle cx="454.0" cy="427.4" r="2.6" fill="#bc8cff" opacity="0.7"/>
<circle cx="474.7" cy="418.1" r="2.6" fill="#bc8cff" opacity="0.7"/>
<circle cx="495.3" cy="413.4" r="2.6" fill="#bc8cff" opacity="0.7"/>
<circle cx="516.0" cy="86.5" r="2.6" fill="#bc8cff" opacity="0.7"/>
<circle cx="536.7" cy="454.0" r="2.6" fill="#bc8cff" opacity="0.7"/>
<circle cx="557.4" cy="290.7" r="2.6" fill="#bc8cff" opacity="0.7"/>
<circle cx="578.1" cy="427.7" r="2.6" fill="#bc8cff" opacity="0.7"/>
<circle cx="598.8" cy="450.7" r="2.6" fill="#bc8cff" opacity="0.7"/>
<circle cx="619.5" cy="360.4" r="2.6" fill="#bc8cff" opacity="0.7"/>
<circle cx="640.2" cy="385.7" r="2.6" fill="#bc8cff" opacity="0.7"/>
<circle cx="660.8" cy="400.0" r="2.6" fill="#bc8cff" opacity="0.7"/>
<circle cx="681.5" cy="433.5" r="2.6" fill="#bc8cff" opacity="0.7"/>
<circle cx="702.2" cy="433.9" r="2.6" fill="#bc8cff" opacity="0.7"/>
<circle cx="722.9" cy="429.9" r="2.6" fill="#bc8cff" opacity="0.7"/>
<circle cx="743.6" cy="397.1" r="2.6" fill="#bc8cff" opacity="0.7"/>
<circle cx="764.3" cy="404.0" r="2.6" fill="#bc8cff" opacity="0.7"/>
<circle cx="785.0" cy="375.6" r="2.6" fill="#bc8cff" opacity="0.7"/>
<circle cx="97.0" cy="431.9" r="3.2" fill="#ff922b" opacity="0.85"/>
<circle cx="117.7" cy="438.1" r="3.2" fill="#ff922b" opacity="0.85"/>
<circle cx="138.4" cy="424.8" r="3.2" fill="#ff922b" opacity="0.85"/>
<circle cx="159.1" cy="440.0" r="3.2" fill="#ff922b" opacity="0.85"/>
<circle cx="179.8" cy="434.3" r="3.2" fill="#ff922b" opacity="0.85"/>
<circle cx="200.5" cy="432.4" r="3.2" fill="#ff922b" opacity="0.85"/>
<circle cx="221.2" cy="432.3" r="3.2" fill="#ff922b" opacity="0.85"/>
<circle cx="241.8" cy="433.9" r="3.2" fill="#ff922b" opacity="0.85"/>
<circle cx="262.5" cy="442.2" r="3.2" fill="#ff922b" opacity="0.85"/>
<circle cx="283.2" cy="434.7" r="3.2" fill="#ff922b" opacity="0.85"/>
<circle cx="303.9" cy="436.0" r="3.2" fill="#ff922b" opacity="0.85"/>
<circle cx="324.6" cy="434.6" r="3.2" fill="#ff922b" opacity="0.85"/>
<circle cx="345.3" cy="433.7" r="3.2" fill="#ff922b" opacity="0.85"/>
<circle cx="366.0" cy="433.7" r="3.2" fill="#ff922b" opacity="0.85"/>
<circle cx="386.7" cy="431.5" r="3.2" fill="#ff922b" opacity="0.85"/>
<circle cx="407.3" cy="434.4" r="3.2" fill="#ff922b" opacity="0.85"/>
<circle cx="428.0" cy="439.9" r="3.2" fill="#ff922b" opacity="0.85"/>
<circle cx="448.7" cy="447.1" r="3.2" fill="#ff922b" opacity="0.85"/>
<circle cx="469.4" cy="443.5" r="3.2" fill="#ff922b" opacity="0.85"/>
<circle cx="490.1" cy="429.5" r="3.2" fill="#ff922b" opacity="0.85"/>
<circle cx="510.8" cy="431.9" r="3.2" fill="#ff922b" opacity="0.85"/>
<circle cx="531.5" cy="436.2" r="3.2" fill="#ff922b" opacity="0.85"/>
<circle cx="552.1" cy="425.8" r="3.2" fill="#ff922b" opacity="0.85"/>
<circle cx="572.8" cy="434.6" r="3.2" fill="#ff922b" opacity="0.85"/>
<circle cx="593.5" cy="435.3" r="3.2" fill="#ff922b" opacity="0.85"/>
<circle cx="614.2" cy="437.5" r="3.2" fill="#ff922b" opacity="0.85"/>
<circle cx="634.9" cy="435.2" r="3.2" fill="#ff922b" opacity="0.85"/>
<circle cx="655.6" cy="442.3" r="3.2" fill="#ff922b" opacity="0.85"/>
<circle cx="676.3" cy="436.2" r="3.2" fill="#ff922b" opacity="0.85"/>
<circle cx="696.9" cy="427.4" r="3.2" fill="#ff922b" opacity="0.85"/>
<circle cx="717.6" cy="425.4" r="3.2" fill="#ff922b" opacity="0.85"/>
<circle cx="738.3" cy="435.8" r="3.2" fill="#ff922b" opacity="0.85"/>
<circle cx="759.0" cy="432.7" r="3.2" fill="#ff922b" opacity="0.85"/>
<circle cx="779.7" cy="435.7" r="3.2" fill="#ff922b" opacity="0.85"/>
<circle cx="847" cy="84" r="5" fill="#ff922b"/>
<text x="866" y="88" font-size="13" fill="#c9d1d9" font-weight="700">Kāra</text>
<line x1="836" y1="108" x2="858" y2="108" stroke="#a7b0bc" stroke-width="2" stroke-dasharray="5 4"/>
<text x="866" y="112" font-size="13" fill="#c9d1d9" font-weight="400">Rust = 1.0×</text>
<circle cx="847" cy="132" r="4" fill="#3fb950"/>
<text x="866" y="136" font-size="13" fill="#c9d1d9" font-weight="400">C</text>
<circle cx="847" cy="156" r="4" fill="#bc8cff"/>
<text x="866" y="160" font-size="13" fill="#c9d1d9" font-weight="400">Go</text>
<text x="70" y="538" font-size="11.5" fill="#8b949e">Each dot is one benchmarked program (kata × approach); there is no connecting line because left-to-right order is not meaningful. Raw numbers: bench-results.json</text>
</svg>