<svg xmlns="http://www.w3.org/2000/svg" width="980" height="560" viewBox="0 0 980 560" font-family="-apple-system,Segoe UI,Helvetica,Arial,sans-serif">
<rect width="980" height="560" fill="#282c34"/>
<text x="70" y="34" font-size="21" font-weight="700" fill="#c9d1d9">Runtime — sequential lane</text>
<text x="70" y="56" font-size="13" fill="#8b949e">relative to Rust = 1.0 · lower = faster · 42 programs</text>
<line x1="70" y1="456.0" x2="812" y2="456.0" stroke="#3b414b" stroke-width="1"/>
<text x="60" y="460.0" font-size="12" text-anchor="end" fill="#8b949e">0.0×</text>
<line x1="70" y1="408.8" x2="812" y2="408.8" stroke="#a7b0bc" stroke-width="2" stroke-dasharray="5 4"/>
<text x="60" y="412.8" font-size="12" text-anchor="end" fill="#aeb6c0" font-weight="700">1.0×</text>
<line x1="70" y1="380.4" x2="812" y2="380.4" stroke="#3b414b" stroke-width="1"/>
<text x="60" y="384.4" font-size="12" text-anchor="end" fill="#8b949e">1.6×</text>
<line x1="70" y1="304.8" x2="812" y2="304.8" stroke="#3b414b" stroke-width="1"/>
<text x="60" y="308.8" font-size="12" text-anchor="end" fill="#8b949e">3.2×</text>
<line x1="70" y1="229.2" x2="812" y2="229.2" stroke="#3b414b" stroke-width="1"/>
<text x="60" y="233.2" font-size="12" text-anchor="end" fill="#8b949e">4.8×</text>
<line x1="70" y1="153.6" x2="812" y2="153.6" stroke="#3b414b" stroke-width="1"/>
<text x="60" y="157.6" font-size="12" text-anchor="end" fill="#8b949e">6.4×</text>
<line x1="70" y1="78.0" x2="812" y2="78.0" stroke="#3b414b" stroke-width="1"/>
<text x="60" y="82.0" font-size="12" text-anchor="end" fill="#8b949e">8.0×</text>
<text x="812" y="402.8" font-size="11" text-anchor="end" fill="#aeb6c0">Rust baseline</text>
<line x1="70" y1="456" x2="812" y2="456" stroke="#3b414b"/>
<text x="441.0" y="478" font-size="11" text-anchor="middle" fill="#8b949e">42 programs (kata × approach) — x-order carries no meaning</text>
<circle cx="99.7" cy="412.1" r="2.6" fill="#3fb950" opacity="0.7"/>
<circle cx="116.3" cy="428.3" r="2.6" fill="#3fb950" opacity="0.7"/>
<circle cx="133.0" cy="432.7" r="2.6" fill="#3fb950" opacity="0.7"/>
<circle cx="149.6" cy="445.3" r="2.6" fill="#3fb950" opacity="0.7"/>
<circle cx="166.3" cy="418.4" r="2.6" fill="#3fb950" opacity="0.7"/>
<circle cx="182.9" cy="417.8" r="2.6" fill="#3fb950" opacity="0.7"/>
<circle cx="199.6" cy="408.2" r="2.6" fill="#3fb950" opacity="0.7"/>
<circle cx="216.2" cy="407.6" r="2.6" fill="#3fb950" opacity="0.7"/>
<circle cx="232.9" cy="405.1" r="2.6" fill="#3fb950" opacity="0.7"/>
<circle cx="249.5" cy="402.4" r="2.6" fill="#3fb950" opacity="0.7"/>
<circle cx="266.2" cy="408.7" r="2.6" fill="#3fb950" opacity="0.7"/>
<circle cx="282.8" cy="415.1" r="2.6" fill="#3fb950" opacity="0.7"/>
<circle cx="299.5" cy="399.9" r="2.6" fill="#3fb950" opacity="0.7"/>
<circle cx="316.1" cy="407.4" r="2.6" fill="#3fb950" opacity="0.7"/>
<circle cx="332.8" cy="416.1" r="2.6" fill="#3fb950" opacity="0.7"/>
<circle cx="349.4" cy="402.8" r="2.6" fill="#3fb950" opacity="0.7"/>
<circle cx="366.1" cy="369.3" r="2.6" fill="#3fb950" opacity="0.7"/>
<circle cx="382.7" cy="422.1" r="2.6" fill="#3fb950" opacity="0.7"/>
<circle cx="399.4" cy="409.0" r="2.6" fill="#3fb950" opacity="0.7"/>
<circle cx="416.0" cy="428.1" r="2.6" fill="#3fb950" opacity="0.7"/>
<circle cx="432.7" cy="411.9" r="2.6" fill="#3fb950" opacity="0.7"/>
<circle cx="449.3" cy="422.1" r="2.6" fill="#3fb950" opacity="0.7"/>
<circle cx="466.0" cy="442.0" r="2.6" fill="#3fb950" opacity="0.7"/>
<circle cx="482.6" cy="426.3" r="2.6" fill="#3fb950" opacity="0.7"/>
<circle cx="499.3" cy="421.5" r="2.6" fill="#3fb950" opacity="0.7"/>
<circle cx="515.9" cy="423.8" r="2.6" fill="#3fb950" opacity="0.7"/>
<circle cx="532.6" cy="407.3" r="2.6" fill="#3fb950" opacity="0.7"/>
<circle cx="549.2" cy="406.8" r="2.6" fill="#3fb950" opacity="0.7"/>
<circle cx="565.9" cy="377.2" r="2.6" fill="#3fb950" opacity="0.7"/>
<circle cx="582.5" cy="400.8" r="2.6" fill="#3fb950" opacity="0.7"/>
<circle cx="599.2" cy="450.9" r="2.6" fill="#3fb950" opacity="0.7"/>
<circle cx="615.8" cy="425.1" r="2.6" fill="#3fb950" opacity="0.7"/>
<circle cx="632.5" cy="402.2" r="2.6" fill="#3fb950" opacity="0.7"/>
<circle cx="649.1" cy="411.0" r="2.6" fill="#3fb950" opacity="0.7"/>
<circle cx="665.8" cy="446.3" r="2.6" fill="#3fb950" opacity="0.7"/>
<circle cx="682.4" cy="420.2" r="2.6" fill="#3fb950" opacity="0.7"/>
<circle cx="699.1" cy="415.9" r="2.6" fill="#3fb950" opacity="0.7"/>
<circle cx="715.7" cy="409.4" r="2.6" fill="#3fb950" opacity="0.7"/>
<circle cx="732.4" cy="418.4" r="2.6" fill="#3fb950" opacity="0.7"/>
<circle cx="749.0" cy="412.1" r="2.6" fill="#3fb950" opacity="0.7"/>
<circle cx="765.7" cy="398.6" r="2.6" fill="#3fb950" opacity="0.7"/>
<circle cx="782.3" cy="412.5" r="2.6" fill="#3fb950" opacity="0.7"/>
<circle cx="102.3" cy="410.7" r="2.6" fill="#bc8cff" opacity="0.7"/>
<circle cx="119.0" cy="397.2" r="2.6" fill="#bc8cff" opacity="0.7"/>
<circle cx="135.6" cy="429.4" r="2.6" fill="#bc8cff" opacity="0.7"/>
<circle cx="152.3" cy="399.4" r="2.6" fill="#bc8cff" opacity="0.7"/>
<circle cx="168.9" cy="370.4" r="2.6" fill="#bc8cff" opacity="0.7"/>
<circle cx="185.6" cy="399.8" r="2.6" fill="#bc8cff" opacity="0.7"/>
<circle cx="202.2" cy="337.2" r="2.6" fill="#bc8cff" opacity="0.7"/>
<circle cx="218.9" cy="401.8" r="2.6" fill="#bc8cff" opacity="0.7"/>
<circle cx="235.5" cy="395.7" r="2.6" fill="#bc8cff" opacity="0.7"/>
<circle cx="252.2" cy="373.7" r="2.6" fill="#bc8cff" opacity="0.7"/>
<circle cx="268.8" cy="385.5" r="2.6" fill="#bc8cff" opacity="0.7"/>
<circle cx="285.5" cy="427.9" r="2.6" fill="#bc8cff" opacity="0.7"/>
<circle cx="302.1" cy="409.2" r="2.6" fill="#bc8cff" opacity="0.7"/>
<circle cx="318.8" cy="409.3" r="2.6" fill="#bc8cff" opacity="0.7"/>
<circle cx="335.4" cy="416.7" r="2.6" fill="#bc8cff" opacity="0.7"/>
<circle cx="352.1" cy="378.0" r="2.6" fill="#bc8cff" opacity="0.7"/>
<circle cx="368.7" cy="314.4" r="2.6" fill="#bc8cff" opacity="0.7"/>
<circle cx="385.4" cy="422.2" r="2.6" fill="#bc8cff" opacity="0.7"/>
<circle cx="402.0" cy="390.8" r="2.6" fill="#bc8cff" opacity="0.7"/>
<circle cx="418.7" cy="429.9" r="2.6" fill="#bc8cff" opacity="0.7"/>
<circle cx="435.3" cy="402.0" r="2.6" fill="#bc8cff" opacity="0.7"/>
<circle cx="452.0" cy="424.7" r="2.6" fill="#bc8cff" opacity="0.7"/>
<circle cx="468.6" cy="439.4" r="2.6" fill="#bc8cff" opacity="0.7"/>
<circle cx="485.3" cy="433.3" r="2.6" fill="#bc8cff" opacity="0.7"/>
<circle cx="501.9" cy="431.3" r="2.6" fill="#bc8cff" opacity="0.7"/>
<circle cx="518.6" cy="431.7" r="2.6" fill="#bc8cff" opacity="0.7"/>
<circle cx="535.2" cy="402.1" r="2.6" fill="#bc8cff" opacity="0.7"/>
<circle cx="551.9" cy="397.1" r="2.6" fill="#bc8cff" opacity="0.7"/>
<circle cx="568.5" cy="118.9" r="2.6" fill="#bc8cff" opacity="0.7"/>
<circle cx="585.2" cy="397.6" r="2.6" fill="#bc8cff" opacity="0.7"/>
<circle cx="601.8" cy="434.5" r="2.6" fill="#bc8cff" opacity="0.7"/>
<circle cx="618.5" cy="401.0" r="2.6" fill="#bc8cff" opacity="0.7"/>
<circle cx="635.1" cy="393.9" r="2.6" fill="#bc8cff" opacity="0.7"/>
<circle cx="651.8" cy="403.3" r="2.6" fill="#bc8cff" opacity="0.7"/>
<circle cx="668.4" cy="403.5" r="2.6" fill="#bc8cff" opacity="0.7"/>
<circle cx="685.1" cy="424.2" r="2.6" fill="#bc8cff" opacity="0.7"/>
<circle cx="701.7" cy="373.3" r="2.6" fill="#bc8cff" opacity="0.7"/>
<circle cx="718.4" cy="415.0" r="2.6" fill="#bc8cff" opacity="0.7"/>
<circle cx="735.0" cy="377.3" r="2.6" fill="#bc8cff" opacity="0.7"/>
<circle cx="751.7" cy="399.0" r="2.6" fill="#bc8cff" opacity="0.7"/>
<circle cx="768.3" cy="273.8" r="2.6" fill="#bc8cff" opacity="0.7"/>
<circle cx="785.0" cy="350.5" r="2.6" fill="#bc8cff" opacity="0.7"/>
<circle cx="97.0" cy="412.5" r="3.2" fill="#ff922b" opacity="0.85"/>
<circle cx="113.7" cy="419.8" r="3.2" fill="#ff922b" opacity="0.85"/>
<circle cx="130.3" cy="432.3" r="3.2" fill="#ff922b" opacity="0.85"/>
<circle cx="147.0" cy="437.2" r="3.2" fill="#ff922b" opacity="0.85"/>
<circle cx="163.6" cy="409.1" r="3.2" fill="#ff922b" opacity="0.85"/>
<circle cx="180.3" cy="411.4" r="3.2" fill="#ff922b" opacity="0.85"/>
<circle cx="196.9" cy="408.9" r="3.2" fill="#ff922b" opacity="0.85"/>
<circle cx="213.6" cy="408.7" r="3.2" fill="#ff922b" opacity="0.85"/>
<circle cx="230.2" cy="410.6" r="3.2" fill="#ff922b" opacity="0.85"/>
<circle cx="246.9" cy="401.0" r="3.2" fill="#ff922b" opacity="0.85"/>
<circle cx="263.5" cy="409.8" r="3.2" fill="#ff922b" opacity="0.85"/>
<circle cx="280.2" cy="414.7" r="3.2" fill="#ff922b" opacity="0.85"/>
<circle cx="296.8" cy="410.8" r="3.2" fill="#ff922b" opacity="0.85"/>
<circle cx="313.5" cy="416.1" r="3.2" fill="#ff922b" opacity="0.85"/>
<circle cx="330.1" cy="397.8" r="3.2" fill="#ff922b" opacity="0.85"/>
<circle cx="346.8" cy="414.3" r="3.2" fill="#ff922b" opacity="0.85"/>
<circle cx="363.4" cy="404.8" r="3.2" fill="#ff922b" opacity="0.85"/>
<circle cx="380.1" cy="409.4" r="3.2" fill="#ff922b" opacity="0.85"/>
<circle cx="396.7" cy="413.2" r="3.2" fill="#ff922b" opacity="0.85"/>
<circle cx="413.4" cy="424.6" r="3.2" fill="#ff922b" opacity="0.85"/>
<circle cx="430.0" cy="413.6" r="3.2" fill="#ff922b" opacity="0.85"/>
<circle cx="446.7" cy="417.1" r="3.2" fill="#ff922b" opacity="0.85"/>
<circle cx="463.3" cy="439.5" r="3.2" fill="#ff922b" opacity="0.85"/>
<circle cx="480.0" cy="423.2" r="3.2" fill="#ff922b" opacity="0.85"/>
<circle cx="496.6" cy="417.5" r="3.2" fill="#ff922b" opacity="0.85"/>
<circle cx="513.3" cy="413.7" r="3.2" fill="#ff922b" opacity="0.85"/>
<circle cx="529.9" cy="405.5" r="3.2" fill="#ff922b" opacity="0.85"/>
<circle cx="546.6" cy="407.0" r="3.2" fill="#ff922b" opacity="0.85"/>
<circle cx="563.2" cy="404.9" r="3.2" fill="#ff922b" opacity="0.85"/>
<circle cx="579.9" cy="401.4" r="3.2" fill="#ff922b" opacity="0.85"/>
<circle cx="596.5" cy="408.1" r="3.2" fill="#ff922b" opacity="0.85"/>
<circle cx="613.2" cy="414.3" r="3.2" fill="#ff922b" opacity="0.85"/>
<circle cx="629.8" cy="407.8" r="3.2" fill="#ff922b" opacity="0.85"/>
<circle cx="646.5" cy="408.7" r="3.2" fill="#ff922b" opacity="0.85"/>
<circle cx="663.1" cy="424.0" r="3.2" fill="#ff922b" opacity="0.85"/>
<circle cx="679.8" cy="412.6" r="3.2" fill="#ff922b" opacity="0.85"/>
<circle cx="696.4" cy="412.1" r="3.2" fill="#ff922b" opacity="0.85"/>
<circle cx="713.1" cy="393.1" r="3.2" fill="#ff922b" opacity="0.85"/>
<circle cx="729.7" cy="409.7" r="3.2" fill="#ff922b" opacity="0.85"/>
<circle cx="746.4" cy="410.6" r="3.2" fill="#ff922b" opacity="0.85"/>
<circle cx="763.0" cy="400.4" r="3.2" fill="#ff922b" opacity="0.85"/>
<circle cx="779.7" cy="405.4" r="3.2" fill="#ff922b" opacity="0.85"/>
<circle cx="847" cy="84" r="5" fill="#ff922b"/>
<text x="866" y="88" font-size="13" fill="#c9d1d9" font-weight="700">Kāra</text>
<line x1="836" y1="108" x2="858" y2="108" stroke="#a7b0bc" stroke-width="2" stroke-dasharray="5 4"/>
<text x="866" y="112" font-size="13" fill="#c9d1d9" font-weight="400">Rust = 1.0×</text>
<circle cx="847" cy="132" r="4" fill="#3fb950"/>
<text x="866" y="136" font-size="13" fill="#c9d1d9" font-weight="400">C</text>
<circle cx="847" cy="156" r="4" fill="#bc8cff"/>
<text x="866" y="160" font-size="13" fill="#c9d1d9" font-weight="400">Go</text>
<text x="70" y="538" font-size="11.5" fill="#8b949e">Each dot is one benchmarked program (kata × approach); there is no connecting line because left-to-right order is not meaningful. Raw numbers: bench-results.json</text>
</svg>