<svg xmlns="http://www.w3.org/2000/svg" width="980" height="560" viewBox="0 0 980 560" font-family="-apple-system,Segoe UI,Helvetica,Arial,sans-serif">
<rect width="980" height="560" fill="#282c34"/>
<text x="70" y="34" font-size="21" font-weight="700" fill="#c9d1d9">Runtime — sequential lane</text>
<text x="70" y="56" font-size="13" fill="#8b949e">relative to Rust (default) = 1.0 · lower = faster · 116 programs</text>
<line x1="70" y1="456.0" x2="812" y2="456.0" stroke="#3b414b" stroke-width="1"/>
<text x="60" y="460.0" font-size="12" text-anchor="end" fill="#8b949e">0.0×</text>
<line x1="70" y1="402.0" x2="812" y2="402.0" stroke="#a7b0bc" stroke-width="2" stroke-dasharray="5 4"/>
<text x="60" y="406.0" font-size="12" text-anchor="end" fill="#aeb6c0" font-weight="700">1.0×</text>
<line x1="70" y1="380.4" x2="812" y2="380.4" stroke="#3b414b" stroke-width="1"/>
<text x="60" y="384.4" font-size="12" text-anchor="end" fill="#8b949e">1.4×</text>
<line x1="70" y1="304.8" x2="812" y2="304.8" stroke="#3b414b" stroke-width="1"/>
<text x="60" y="308.8" font-size="12" text-anchor="end" fill="#8b949e">2.8×</text>
<line x1="70" y1="229.2" x2="812" y2="229.2" stroke="#3b414b" stroke-width="1"/>
<text x="60" y="233.2" font-size="12" text-anchor="end" fill="#8b949e">4.2×</text>
<line x1="70" y1="153.6" x2="812" y2="153.6" stroke="#3b414b" stroke-width="1"/>
<text x="60" y="157.6" font-size="12" text-anchor="end" fill="#8b949e">5.6×</text>
<line x1="70" y1="78.0" x2="812" y2="78.0" stroke="#3b414b" stroke-width="1"/>
<text x="60" y="82.0" font-size="12" text-anchor="end" fill="#8b949e">7.0×</text>
<text x="812" y="396.0" font-size="11" text-anchor="end" fill="#aeb6c0">Rust (default) baseline</text>
<line x1="70" y1="456" x2="812" y2="456" stroke="#3b414b"/>
<text x="441.0" y="478" font-size="11" text-anchor="middle" fill="#8b949e">116 programs (kata × approach) — x-order carries no meaning</text>
<circle cx="99.3" cy="402.1" r="2.6" fill="#3fb950" opacity="0.7"/>
<circle cx="105.2" cy="421.6" r="2.6" fill="#3fb950" opacity="0.7"/>
<circle cx="111.1" cy="425.2" r="2.6" fill="#3fb950" opacity="0.7"/>
<circle cx="117.1" cy="442.8" r="2.6" fill="#3fb950" opacity="0.7"/>
<circle cx="123.0" cy="413.8" r="2.6" fill="#3fb950" opacity="0.7"/>
<circle cx="129.0" cy="411.4" r="2.6" fill="#3fb950" opacity="0.7"/>
<circle cx="134.9" cy="402.3" r="2.6" fill="#3fb950" opacity="0.7"/>
<circle cx="140.8" cy="399.7" r="2.6" fill="#3fb950" opacity="0.7"/>
<circle cx="146.8" cy="397.0" r="2.6" fill="#3fb950" opacity="0.7"/>
<circle cx="152.7" cy="395.5" r="2.6" fill="#3fb950" opacity="0.7"/>
<circle cx="158.6" cy="402.1" r="2.6" fill="#3fb950" opacity="0.7"/>
<circle cx="164.6" cy="409.1" r="2.6" fill="#3fb950" opacity="0.7"/>
<circle cx="170.5" cy="395.6" r="2.6" fill="#3fb950" opacity="0.7"/>
<circle cx="176.4" cy="399.0" r="2.6" fill="#3fb950" opacity="0.7"/>
<circle cx="182.4" cy="413.4" r="2.6" fill="#3fb950" opacity="0.7"/>
<circle cx="188.3" cy="397.3" r="2.6" fill="#3fb950" opacity="0.7"/>
<circle cx="194.3" cy="357.8" r="2.6" fill="#3fb950" opacity="0.7"/>
<circle cx="200.2" cy="415.1" r="2.6" fill="#3fb950" opacity="0.7"/>
<circle cx="206.1" cy="403.5" r="2.6" fill="#3fb950" opacity="0.7"/>
<circle cx="212.1" cy="423.2" r="2.6" fill="#3fb950" opacity="0.7"/>
<circle cx="218.0" cy="406.5" r="2.6" fill="#3fb950" opacity="0.7"/>
<circle cx="223.9" cy="419.9" r="2.6" fill="#3fb950" opacity="0.7"/>
<circle cx="229.9" cy="439.8" r="2.6" fill="#3fb950" opacity="0.7"/>
<circle cx="235.8" cy="424.6" r="2.6" fill="#3fb950" opacity="0.7"/>
<circle cx="241.7" cy="418.3" r="2.6" fill="#3fb950" opacity="0.7"/>
<circle cx="247.7" cy="420.5" r="2.6" fill="#3fb950" opacity="0.7"/>
<circle cx="253.6" cy="400.5" r="2.6" fill="#3fb950" opacity="0.7"/>
<circle cx="259.5" cy="400.0" r="2.6" fill="#3fb950" opacity="0.7"/>
<circle cx="265.5" cy="402.1" r="2.6" fill="#3fb950" opacity="0.7"/>
<circle cx="271.4" cy="414.5" r="2.6" fill="#3fb950" opacity="0.7"/>
<circle cx="277.4" cy="401.5" r="2.6" fill="#3fb950" opacity="0.7"/>
<circle cx="283.3" cy="435.9" r="2.6" fill="#3fb950" opacity="0.7"/>
<circle cx="289.2" cy="402.2" r="2.6" fill="#3fb950" opacity="0.7"/>
<circle cx="295.2" cy="421.6" r="2.6" fill="#3fb950" opacity="0.7"/>
<circle cx="301.1" cy="415.8" r="2.6" fill="#3fb950" opacity="0.7"/>
<circle cx="307.0" cy="417.3" r="2.6" fill="#3fb950" opacity="0.7"/>
<circle cx="313.0" cy="417.7" r="2.6" fill="#3fb950" opacity="0.7"/>
<circle cx="318.9" cy="402.4" r="2.6" fill="#3fb950" opacity="0.7"/>
<circle cx="324.8" cy="382.1" r="2.6" fill="#3fb950" opacity="0.7"/>
<circle cx="330.8" cy="413.8" r="2.6" fill="#3fb950" opacity="0.7"/>
<circle cx="336.7" cy="398.2" r="2.6" fill="#3fb950" opacity="0.7"/>
<circle cx="342.7" cy="401.5" r="2.6" fill="#3fb950" opacity="0.7"/>
<circle cx="348.6" cy="404.4" r="2.6" fill="#3fb950" opacity="0.7"/>
<circle cx="354.5" cy="403.9" r="2.6" fill="#3fb950" opacity="0.7"/>
<circle cx="360.5" cy="431.2" r="2.6" fill="#3fb950" opacity="0.7"/>
<circle cx="366.4" cy="404.3" r="2.6" fill="#3fb950" opacity="0.7"/>
<circle cx="372.3" cy="400.0" r="2.6" fill="#3fb950" opacity="0.7"/>
<circle cx="378.3" cy="398.4" r="2.6" fill="#3fb950" opacity="0.7"/>
<circle cx="384.2" cy="403.7" r="2.6" fill="#3fb950" opacity="0.7"/>
<circle cx="390.1" cy="404.7" r="2.6" fill="#3fb950" opacity="0.7"/>
<circle cx="396.1" cy="435.3" r="2.6" fill="#3fb950" opacity="0.7"/>
<circle cx="402.0" cy="424.2" r="2.6" fill="#3fb950" opacity="0.7"/>
<circle cx="407.9" cy="386.9" r="2.6" fill="#3fb950" opacity="0.7"/>
<circle cx="413.9" cy="402.3" r="2.6" fill="#3fb950" opacity="0.7"/>
<circle cx="419.8" cy="402.1" r="2.6" fill="#3fb950" opacity="0.7"/>
<circle cx="425.8" cy="408.1" r="2.6" fill="#3fb950" opacity="0.7"/>
<circle cx="431.7" cy="400.9" r="2.6" fill="#3fb950" opacity="0.7"/>
<circle cx="437.6" cy="369.7" r="2.6" fill="#3fb950" opacity="0.7"/>
<circle cx="443.6" cy="441.3" r="2.6" fill="#3fb950" opacity="0.7"/>
<circle cx="449.5" cy="409.4" r="2.6" fill="#3fb950" opacity="0.7"/>
<circle cx="455.4" cy="438.7" r="2.6" fill="#3fb950" opacity="0.7"/>
<circle cx="461.4" cy="401.9" r="2.6" fill="#3fb950" opacity="0.7"/>
<circle cx="467.3" cy="424.3" r="2.6" fill="#3fb950" opacity="0.7"/>
<circle cx="473.2" cy="401.6" r="2.6" fill="#3fb950" opacity="0.7"/>
<circle cx="479.2" cy="401.9" r="2.6" fill="#3fb950" opacity="0.7"/>
<circle cx="485.1" cy="402.1" r="2.6" fill="#3fb950" opacity="0.7"/>
<circle cx="491.1" cy="393.0" r="2.6" fill="#3fb950" opacity="0.7"/>
<circle cx="497.0" cy="405.6" r="2.6" fill="#3fb950" opacity="0.7"/>
<circle cx="502.9" cy="401.9" r="2.6" fill="#3fb950" opacity="0.7"/>
<circle cx="508.9" cy="412.7" r="2.6" fill="#3fb950" opacity="0.7"/>
<circle cx="514.8" cy="401.6" r="2.6" fill="#3fb950" opacity="0.7"/>
<circle cx="520.7" cy="450.6" r="2.6" fill="#3fb950" opacity="0.7"/>
<circle cx="526.7" cy="372.4" r="2.6" fill="#3fb950" opacity="0.7"/>
<circle cx="532.6" cy="391.1" r="2.6" fill="#3fb950" opacity="0.7"/>
<circle cx="538.5" cy="401.7" r="2.6" fill="#3fb950" opacity="0.7"/>
<circle cx="544.5" cy="407.8" r="2.6" fill="#3fb950" opacity="0.7"/>
<circle cx="550.4" cy="402.6" r="2.6" fill="#3fb950" opacity="0.7"/>
<circle cx="556.3" cy="403.6" r="2.6" fill="#3fb950" opacity="0.7"/>
<circle cx="562.3" cy="402.9" r="2.6" fill="#3fb950" opacity="0.7"/>
<circle cx="568.2" cy="410.3" r="2.6" fill="#3fb950" opacity="0.7"/>
<circle cx="574.2" cy="402.4" r="2.6" fill="#3fb950" opacity="0.7"/>
<circle cx="580.1" cy="411.5" r="2.6" fill="#3fb950" opacity="0.7"/>
<circle cx="586.0" cy="419.0" r="2.6" fill="#3fb950" opacity="0.7"/>
<circle cx="592.0" cy="419.4" r="2.6" fill="#3fb950" opacity="0.7"/>
<circle cx="597.9" cy="422.5" r="2.6" fill="#3fb950" opacity="0.7"/>
<circle cx="603.8" cy="420.4" r="2.6" fill="#3fb950" opacity="0.7"/>
<circle cx="609.8" cy="401.4" r="2.6" fill="#3fb950" opacity="0.7"/>
<circle cx="615.7" cy="419.1" r="2.6" fill="#3fb950" opacity="0.7"/>
<circle cx="621.6" cy="402.1" r="2.6" fill="#3fb950" opacity="0.7"/>
<circle cx="627.6" cy="401.6" r="2.6" fill="#3fb950" opacity="0.7"/>
<circle cx="633.5" cy="395.0" r="2.6" fill="#3fb950" opacity="0.7"/>
<circle cx="639.5" cy="419.9" r="2.6" fill="#3fb950" opacity="0.7"/>
<circle cx="645.4" cy="397.1" r="2.6" fill="#3fb950" opacity="0.7"/>
<circle cx="651.3" cy="404.6" r="2.6" fill="#3fb950" opacity="0.7"/>
<circle cx="657.3" cy="405.9" r="2.6" fill="#3fb950" opacity="0.7"/>
<circle cx="663.2" cy="428.8" r="2.6" fill="#3fb950" opacity="0.7"/>
<circle cx="669.1" cy="409.6" r="2.6" fill="#3fb950" opacity="0.7"/>
<circle cx="675.1" cy="403.0" r="2.6" fill="#3fb950" opacity="0.7"/>
<circle cx="681.0" cy="436.0" r="2.6" fill="#3fb950" opacity="0.7"/>
<circle cx="686.9" cy="402.6" r="2.6" fill="#3fb950" opacity="0.7"/>
<circle cx="692.9" cy="402.2" r="2.6" fill="#3fb950" opacity="0.7"/>
<circle cx="698.8" cy="404.2" r="2.6" fill="#3fb950" opacity="0.7"/>
<circle cx="704.7" cy="425.5" r="2.6" fill="#3fb950" opacity="0.7"/>
<circle cx="710.7" cy="445.3" r="2.6" fill="#3fb950" opacity="0.7"/>
<circle cx="716.6" cy="415.3" r="2.6" fill="#3fb950" opacity="0.7"/>
<circle cx="722.6" cy="410.4" r="2.6" fill="#3fb950" opacity="0.7"/>
<circle cx="728.5" cy="404.0" r="2.6" fill="#3fb950" opacity="0.7"/>
<circle cx="734.4" cy="402.7" r="2.6" fill="#3fb950" opacity="0.7"/>
<circle cx="740.4" cy="412.4" r="2.6" fill="#3fb950" opacity="0.7"/>
<circle cx="746.3" cy="407.1" r="2.6" fill="#3fb950" opacity="0.7"/>
<circle cx="752.2" cy="411.4" r="2.6" fill="#3fb950" opacity="0.7"/>
<circle cx="758.2" cy="452.2" r="2.6" fill="#3fb950" opacity="0.7"/>
<circle cx="764.1" cy="447.1" r="2.6" fill="#3fb950" opacity="0.7"/>
<circle cx="770.0" cy="406.6" r="2.6" fill="#3fb950" opacity="0.7"/>
<circle cx="776.0" cy="391.2" r="2.6" fill="#3fb950" opacity="0.7"/>
<circle cx="781.9" cy="416.2" r="2.6" fill="#3fb950" opacity="0.7"/>
<circle cx="100.1" cy="401.6" r="2.6" fill="#bc8cff" opacity="0.7"/>
<circle cx="106.0" cy="392.0" r="2.6" fill="#bc8cff" opacity="0.7"/>
<circle cx="112.0" cy="428.8" r="2.6" fill="#bc8cff" opacity="0.7"/>
<circle cx="117.9" cy="392.5" r="2.6" fill="#bc8cff" opacity="0.7"/>
<circle cx="123.8" cy="358.8" r="2.6" fill="#bc8cff" opacity="0.7"/>
<circle cx="129.8" cy="391.4" r="2.6" fill="#bc8cff" opacity="0.7"/>
<circle cx="135.7" cy="315.8" r="2.6" fill="#bc8cff" opacity="0.7"/>
<circle cx="141.6" cy="393.4" r="2.6" fill="#bc8cff" opacity="0.7"/>
<circle cx="147.6" cy="385.2" r="2.6" fill="#bc8cff" opacity="0.7"/>
<circle cx="153.5" cy="362.9" r="2.6" fill="#bc8cff" opacity="0.7"/>
<circle cx="159.4" cy="372.1" r="2.6" fill="#bc8cff" opacity="0.7"/>
<circle cx="165.4" cy="423.7" r="2.6" fill="#bc8cff" opacity="0.7"/>
<circle cx="171.3" cy="401.0" r="2.6" fill="#bc8cff" opacity="0.7"/>
<circle cx="177.3" cy="400.3" r="2.6" fill="#bc8cff" opacity="0.7"/>
<circle cx="183.2" cy="412.8" r="2.6" fill="#bc8cff" opacity="0.7"/>
<circle cx="189.1" cy="373.1" r="2.6" fill="#bc8cff" opacity="0.7"/>
<circle cx="195.1" cy="302.1" r="2.6" fill="#bc8cff" opacity="0.7"/>
<circle cx="201.0" cy="419.5" r="2.6" fill="#bc8cff" opacity="0.7"/>
<circle cx="206.9" cy="385.6" r="2.6" fill="#bc8cff" opacity="0.7"/>
<circle cx="212.9" cy="428.9" r="2.6" fill="#bc8cff" opacity="0.7"/>
<circle cx="218.8" cy="395.8" r="2.6" fill="#bc8cff" opacity="0.7"/>
<circle cx="224.7" cy="422.8" r="2.6" fill="#bc8cff" opacity="0.7"/>
<circle cx="230.7" cy="437.9" r="2.6" fill="#bc8cff" opacity="0.7"/>
<circle cx="236.6" cy="429.5" r="2.6" fill="#bc8cff" opacity="0.7"/>
<circle cx="242.5" cy="423.4" r="2.6" fill="#bc8cff" opacity="0.7"/>
<circle cx="248.5" cy="424.6" r="2.6" fill="#bc8cff" opacity="0.7"/>
<circle cx="254.4" cy="394.3" r="2.6" fill="#bc8cff" opacity="0.7"/>
<circle cx="260.4" cy="388.7" r="2.6" fill="#bc8cff" opacity="0.7"/>
<circle cx="266.3" cy="276.0" r="2.6" fill="#bc8cff" opacity="0.7"/>
<circle cx="272.2" cy="378.6" r="2.6" fill="#bc8cff" opacity="0.7"/>
<circle cx="278.2" cy="393.5" r="2.6" fill="#bc8cff" opacity="0.7"/>
<circle cx="284.1" cy="319.9" r="2.6" fill="#bc8cff" opacity="0.7"/>
<circle cx="290.0" cy="396.2" r="2.6" fill="#bc8cff" opacity="0.7"/>
<circle cx="296.0" cy="340.6" r="2.6" fill="#bc8cff" opacity="0.7"/>
<circle cx="301.9" cy="400.8" r="2.6" fill="#bc8cff" opacity="0.7"/>
<circle cx="307.8" cy="416.0" r="2.6" fill="#bc8cff" opacity="0.7"/>
<circle cx="313.8" cy="359.7" r="2.6" fill="#bc8cff" opacity="0.7"/>
<circle cx="319.7" cy="340.0" r="2.6" fill="#bc8cff" opacity="0.7"/>
<circle cx="325.7" cy="371.7" r="2.6" fill="#bc8cff" opacity="0.7"/>
<circle cx="331.6" cy="424.3" r="2.6" fill="#bc8cff" opacity="0.7"/>
<circle cx="337.5" cy="391.5" r="2.6" fill="#bc8cff" opacity="0.7"/>
<circle cx="343.5" cy="394.2" r="2.6" fill="#bc8cff" opacity="0.7"/>
<circle cx="349.4" cy="396.9" r="2.6" fill="#bc8cff" opacity="0.7"/>
<circle cx="355.3" cy="438.7" r="2.6" fill="#bc8cff" opacity="0.7"/>
<circle cx="361.3" cy="393.1" r="2.6" fill="#bc8cff" opacity="0.7"/>
<circle cx="367.2" cy="399.1" r="2.6" fill="#bc8cff" opacity="0.7"/>
<circle cx="373.1" cy="401.0" r="2.6" fill="#bc8cff" opacity="0.7"/>
<circle cx="379.1" cy="382.5" r="2.6" fill="#bc8cff" opacity="0.7"/>
<circle cx="385.0" cy="392.8" r="2.6" fill="#bc8cff" opacity="0.7"/>
<circle cx="390.9" cy="395.2" r="2.6" fill="#bc8cff" opacity="0.7"/>
<circle cx="396.9" cy="314.2" r="2.6" fill="#bc8cff" opacity="0.7"/>
<circle cx="402.8" cy="418.1" r="2.6" fill="#bc8cff" opacity="0.7"/>
<circle cx="408.8" cy="330.6" r="2.6" fill="#bc8cff" opacity="0.7"/>
<circle cx="414.7" cy="334.6" r="2.6" fill="#bc8cff" opacity="0.7"/>
<circle cx="420.6" cy="340.9" r="2.6" fill="#bc8cff" opacity="0.7"/>
<circle cx="426.6" cy="355.5" r="2.6" fill="#bc8cff" opacity="0.7"/>
<circle cx="432.5" cy="415.5" r="2.6" fill="#bc8cff" opacity="0.7"/>
<circle cx="438.4" cy="88.9" r="2.6" fill="#bc8cff" opacity="0.7"/>
<circle cx="444.4" cy="429.1" r="2.6" fill="#bc8cff" opacity="0.7"/>
<circle cx="450.3" cy="381.4" r="2.6" fill="#bc8cff" opacity="0.7"/>
<circle cx="456.2" cy="438.7" r="2.6" fill="#bc8cff" opacity="0.7"/>
<circle cx="462.2" cy="377.1" r="2.6" fill="#bc8cff" opacity="0.7"/>
<circle cx="468.1" cy="432.6" r="2.6" fill="#bc8cff" opacity="0.7"/>
<circle cx="474.1" cy="339.0" r="2.6" fill="#bc8cff" opacity="0.7"/>
<circle cx="480.0" cy="361.5" r="2.6" fill="#bc8cff" opacity="0.7"/>
<circle cx="485.9" cy="405.7" r="2.6" fill="#bc8cff" opacity="0.7"/>
<circle cx="491.9" cy="389.7" r="2.6" fill="#bc8cff" opacity="0.7"/>
<circle cx="497.8" cy="405.6" r="2.6" fill="#bc8cff" opacity="0.7"/>
<circle cx="503.7" cy="400.0" r="2.6" fill="#bc8cff" opacity="0.7"/>
<circle cx="509.7" cy="398.8" r="2.6" fill="#bc8cff" opacity="0.7"/>
<circle cx="515.6" cy="396.6" r="2.6" fill="#bc8cff" opacity="0.7"/>
<circle cx="521.5" cy="433.3" r="2.6" fill="#bc8cff" opacity="0.7"/>
<circle cx="527.5" cy="416.4" r="2.6" fill="#bc8cff" opacity="0.7"/>
<circle cx="533.4" cy="409.0" r="2.6" fill="#bc8cff" opacity="0.7"/>
<circle cx="539.3" cy="408.0" r="2.6" fill="#bc8cff" opacity="0.7"/>
<circle cx="545.3" cy="371.1" r="2.6" fill="#bc8cff" opacity="0.7"/>
<circle cx="551.2" cy="405.9" r="2.6" fill="#bc8cff" opacity="0.7"/>
<circle cx="557.2" cy="403.5" r="2.6" fill="#bc8cff" opacity="0.7"/>
<circle cx="563.1" cy="401.5" r="2.6" fill="#bc8cff" opacity="0.7"/>
<circle cx="569.0" cy="395.9" r="2.6" fill="#bc8cff" opacity="0.7"/>
<circle cx="575.0" cy="390.8" r="2.6" fill="#bc8cff" opacity="0.7"/>
<circle cx="580.9" cy="408.2" r="2.6" fill="#bc8cff" opacity="0.7"/>
<circle cx="586.8" cy="424.7" r="2.6" fill="#bc8cff" opacity="0.7"/>
<circle cx="592.8" cy="419.5" r="2.6" fill="#bc8cff" opacity="0.7"/>
<circle cx="598.7" cy="396.7" r="2.6" fill="#bc8cff" opacity="0.7"/>
<circle cx="604.6" cy="418.1" r="2.6" fill="#bc8cff" opacity="0.7"/>
<circle cx="610.6" cy="384.2" r="2.6" fill="#bc8cff" opacity="0.7"/>
<circle cx="616.5" cy="388.8" r="2.6" fill="#bc8cff" opacity="0.7"/>
<circle cx="622.5" cy="402.2" r="2.6" fill="#bc8cff" opacity="0.7"/>
<circle cx="628.4" cy="394.7" r="2.6" fill="#bc8cff" opacity="0.7"/>
<circle cx="634.3" cy="386.6" r="2.6" fill="#bc8cff" opacity="0.7"/>
<circle cx="640.3" cy="419.5" r="2.6" fill="#bc8cff" opacity="0.7"/>
<circle cx="646.2" cy="323.7" r="2.6" fill="#bc8cff" opacity="0.7"/>
<circle cx="652.1" cy="414.7" r="2.6" fill="#bc8cff" opacity="0.7"/>
<circle cx="658.1" cy="424.5" r="2.6" fill="#bc8cff" opacity="0.7"/>
<circle cx="664.0" cy="426.3" r="2.6" fill="#bc8cff" opacity="0.7"/>
<circle cx="669.9" cy="399.2" r="2.6" fill="#bc8cff" opacity="0.7"/>
<circle cx="675.9" cy="416.4" r="2.6" fill="#bc8cff" opacity="0.7"/>
<circle cx="681.8" cy="421.8" r="2.6" fill="#bc8cff" opacity="0.7"/>
<circle cx="687.7" cy="368.7" r="2.6" fill="#bc8cff" opacity="0.7"/>
<circle cx="693.7" cy="357.3" r="2.6" fill="#bc8cff" opacity="0.7"/>
<circle cx="699.6" cy="397.7" r="2.6" fill="#bc8cff" opacity="0.7"/>
<circle cx="705.6" cy="408.7" r="2.6" fill="#bc8cff" opacity="0.7"/>
<circle cx="711.5" cy="399.4" r="2.6" fill="#bc8cff" opacity="0.7"/>
<circle cx="717.4" cy="419.2" r="2.6" fill="#bc8cff" opacity="0.7"/>
<circle cx="723.4" cy="362.8" r="2.6" fill="#bc8cff" opacity="0.7"/>
<circle cx="729.3" cy="396.9" r="2.6" fill="#bc8cff" opacity="0.7"/>
<circle cx="735.2" cy="408.9" r="2.6" fill="#bc8cff" opacity="0.7"/>
<circle cx="741.2" cy="400.6" r="2.6" fill="#bc8cff" opacity="0.7"/>
<circle cx="747.1" cy="404.0" r="2.6" fill="#bc8cff" opacity="0.7"/>
<circle cx="753.0" cy="418.5" r="2.6" fill="#bc8cff" opacity="0.7"/>
<circle cx="759.0" cy="444.8" r="2.6" fill="#bc8cff" opacity="0.7"/>
<circle cx="764.9" cy="419.4" r="2.6" fill="#bc8cff" opacity="0.7"/>
<circle cx="770.9" cy="409.4" r="2.6" fill="#bc8cff" opacity="0.7"/>
<circle cx="776.8" cy="258.5" r="2.6" fill="#bc8cff" opacity="0.7"/>
<circle cx="782.7" cy="362.5" r="2.6" fill="#bc8cff" opacity="0.7"/>
<circle cx="98.5" cy="394.1" r="3.2" fill="#ff922b" opacity="0.85"/>
<circle cx="104.4" cy="414.9" r="3.2" fill="#ff922b" opacity="0.85"/>
<circle cx="110.3" cy="426.6" r="3.2" fill="#ff922b" opacity="0.85"/>
<circle cx="116.3" cy="431.8" r="3.2" fill="#ff922b" opacity="0.85"/>
<circle cx="122.2" cy="398.4" r="3.2" fill="#ff922b" opacity="0.85"/>
<circle cx="128.2" cy="381.7" r="3.2" fill="#ff922b" opacity="0.85"/>
<circle cx="134.1" cy="399.1" r="3.2" fill="#ff922b" opacity="0.85"/>
<circle cx="140.0" cy="391.9" r="3.2" fill="#ff922b" opacity="0.85"/>
<circle cx="146.0" cy="380.1" r="3.2" fill="#ff922b" opacity="0.85"/>
<circle cx="151.9" cy="377.3" r="3.2" fill="#ff922b" opacity="0.85"/>
<circle cx="157.8" cy="396.9" r="3.2" fill="#ff922b" opacity="0.85"/>
<circle cx="163.8" cy="394.4" r="3.2" fill="#ff922b" opacity="0.85"/>
<circle cx="169.7" cy="404.1" r="3.2" fill="#ff922b" opacity="0.85"/>
<circle cx="175.6" cy="404.0" r="3.2" fill="#ff922b" opacity="0.85"/>
<circle cx="181.6" cy="395.7" r="3.2" fill="#ff922b" opacity="0.85"/>
<circle cx="187.5" cy="401.0" r="3.2" fill="#ff922b" opacity="0.85"/>
<circle cx="193.4" cy="395.5" r="3.2" fill="#ff922b" opacity="0.85"/>
<circle cx="199.4" cy="391.0" r="3.2" fill="#ff922b" opacity="0.85"/>
<circle cx="205.3" cy="399.4" r="3.2" fill="#ff922b" opacity="0.85"/>
<circle cx="211.3" cy="414.3" r="3.2" fill="#ff922b" opacity="0.85"/>
<circle cx="217.2" cy="410.0" r="3.2" fill="#ff922b" opacity="0.85"/>
<circle cx="223.1" cy="405.1" r="3.2" fill="#ff922b" opacity="0.85"/>
<circle cx="229.1" cy="437.8" r="3.2" fill="#ff922b" opacity="0.85"/>
<circle cx="235.0" cy="409.2" r="3.2" fill="#ff922b" opacity="0.85"/>
<circle cx="240.9" cy="409.6" r="3.2" fill="#ff922b" opacity="0.85"/>
<circle cx="246.9" cy="405.6" r="3.2" fill="#ff922b" opacity="0.85"/>
<circle cx="252.8" cy="396.3" r="3.2" fill="#ff922b" opacity="0.85"/>
<circle cx="258.7" cy="398.6" r="3.2" fill="#ff922b" opacity="0.85"/>
<circle cx="264.7" cy="402.5" r="3.2" fill="#ff922b" opacity="0.85"/>
<circle cx="270.6" cy="402.1" r="3.2" fill="#ff922b" opacity="0.85"/>
<circle cx="276.6" cy="400.7" r="3.2" fill="#ff922b" opacity="0.85"/>
<circle cx="282.5" cy="363.0" r="3.2" fill="#ff922b" opacity="0.85"/>
<circle cx="288.4" cy="401.0" r="3.2" fill="#ff922b" opacity="0.85"/>
<circle cx="294.4" cy="400.3" r="3.2" fill="#ff922b" opacity="0.85"/>
<circle cx="300.3" cy="397.1" r="3.2" fill="#ff922b" opacity="0.85"/>
<circle cx="306.2" cy="396.1" r="3.2" fill="#ff922b" opacity="0.85"/>
<circle cx="312.2" cy="395.6" r="3.2" fill="#ff922b" opacity="0.85"/>
<circle cx="318.1" cy="426.2" r="3.2" fill="#ff922b" opacity="0.85"/>
<circle cx="324.0" cy="403.8" r="3.2" fill="#ff922b" opacity="0.85"/>
<circle cx="330.0" cy="389.3" r="3.2" fill="#ff922b" opacity="0.85"/>
<circle cx="335.9" cy="377.0" r="3.2" fill="#ff922b" opacity="0.85"/>
<circle cx="341.8" cy="379.7" r="3.2" fill="#ff922b" opacity="0.85"/>
<circle cx="347.8" cy="404.6" r="3.2" fill="#ff922b" opacity="0.85"/>
<circle cx="353.7" cy="437.7" r="3.2" fill="#ff922b" opacity="0.85"/>
<circle cx="359.7" cy="382.6" r="3.2" fill="#ff922b" opacity="0.85"/>
<circle cx="365.6" cy="394.7" r="3.2" fill="#ff922b" opacity="0.85"/>
<circle cx="371.5" cy="399.6" r="3.2" fill="#ff922b" opacity="0.85"/>
<circle cx="377.5" cy="385.6" r="3.2" fill="#ff922b" opacity="0.85"/>
<circle cx="383.4" cy="402.9" r="3.2" fill="#ff922b" opacity="0.85"/>
<circle cx="389.3" cy="396.3" r="3.2" fill="#ff922b" opacity="0.85"/>
<circle cx="395.3" cy="366.6" r="3.2" fill="#ff922b" opacity="0.85"/>
<circle cx="401.2" cy="403.7" r="3.2" fill="#ff922b" opacity="0.85"/>
<circle cx="407.1" cy="350.9" r="3.2" fill="#ff922b" opacity="0.85"/>
<circle cx="413.1" cy="344.5" r="3.2" fill="#ff922b" opacity="0.85"/>
<circle cx="419.0" cy="402.3" r="3.2" fill="#ff922b" opacity="0.85"/>
<circle cx="425.0" cy="391.9" r="3.2" fill="#ff922b" opacity="0.85"/>
<circle cx="430.9" cy="401.2" r="3.2" fill="#ff922b" opacity="0.85"/>
<circle cx="436.8" cy="397.4" r="3.2" fill="#ff922b" opacity="0.85"/>
<circle cx="442.8" cy="405.2" r="3.2" fill="#ff922b" opacity="0.85"/>
<circle cx="448.7" cy="377.3" r="3.2" fill="#ff922b" opacity="0.85"/>
<circle cx="454.6" cy="433.2" r="3.2" fill="#ff922b" opacity="0.85"/>
<circle cx="460.6" cy="400.3" r="3.2" fill="#ff922b" opacity="0.85"/>
<circle cx="466.5" cy="416.3" r="3.2" fill="#ff922b" opacity="0.85"/>
<circle cx="472.4" cy="401.1" r="3.2" fill="#ff922b" opacity="0.85"/>
<circle cx="478.4" cy="396.3" r="3.2" fill="#ff922b" opacity="0.85"/>
<circle cx="484.3" cy="408.2" r="3.2" fill="#ff922b" opacity="0.85"/>
<circle cx="490.2" cy="400.8" r="3.2" fill="#ff922b" opacity="0.85"/>
<circle cx="496.2" cy="405.5" r="3.2" fill="#ff922b" opacity="0.85"/>
<circle cx="502.1" cy="401.5" r="3.2" fill="#ff922b" opacity="0.85"/>
<circle cx="508.1" cy="380.1" r="3.2" fill="#ff922b" opacity="0.85"/>
<circle cx="514.0" cy="413.0" r="3.2" fill="#ff922b" opacity="0.85"/>
<circle cx="519.9" cy="397.9" r="3.2" fill="#ff922b" opacity="0.85"/>
<circle cx="525.9" cy="412.9" r="3.2" fill="#ff922b" opacity="0.85"/>
<circle cx="531.8" cy="427.1" r="3.2" fill="#ff922b" opacity="0.85"/>
<circle cx="537.7" cy="405.3" r="3.2" fill="#ff922b" opacity="0.85"/>
<circle cx="543.7" cy="407.7" r="3.2" fill="#ff922b" opacity="0.85"/>
<circle cx="549.6" cy="389.7" r="3.2" fill="#ff922b" opacity="0.85"/>
<circle cx="555.5" cy="403.4" r="3.2" fill="#ff922b" opacity="0.85"/>
<circle cx="561.5" cy="402.6" r="3.2" fill="#ff922b" opacity="0.85"/>
<circle cx="567.4" cy="397.6" r="3.2" fill="#ff922b" opacity="0.85"/>
<circle cx="573.4" cy="402.0" r="3.2" fill="#ff922b" opacity="0.85"/>
<circle cx="579.3" cy="385.0" r="3.2" fill="#ff922b" opacity="0.85"/>
<circle cx="585.2" cy="407.0" r="3.2" fill="#ff922b" opacity="0.85"/>
<circle cx="591.2" cy="406.1" r="3.2" fill="#ff922b" opacity="0.85"/>
<circle cx="597.1" cy="399.6" r="3.2" fill="#ff922b" opacity="0.85"/>
<circle cx="603.0" cy="402.2" r="3.2" fill="#ff922b" opacity="0.85"/>
<circle cx="609.0" cy="401.5" r="3.2" fill="#ff922b" opacity="0.85"/>
<circle cx="614.9" cy="411.0" r="3.2" fill="#ff922b" opacity="0.85"/>
<circle cx="620.8" cy="402.0" r="3.2" fill="#ff922b" opacity="0.85"/>
<circle cx="626.8" cy="405.3" r="3.2" fill="#ff922b" opacity="0.85"/>
<circle cx="632.7" cy="398.1" r="3.2" fill="#ff922b" opacity="0.85"/>
<circle cx="638.6" cy="405.2" r="3.2" fill="#ff922b" opacity="0.85"/>
<circle cx="644.6" cy="400.7" r="3.2" fill="#ff922b" opacity="0.85"/>
<circle cx="650.5" cy="403.3" r="3.2" fill="#ff922b" opacity="0.85"/>
<circle cx="656.5" cy="396.4" r="3.2" fill="#ff922b" opacity="0.85"/>
<circle cx="662.4" cy="406.2" r="3.2" fill="#ff922b" opacity="0.85"/>
<circle cx="668.3" cy="400.7" r="3.2" fill="#ff922b" opacity="0.85"/>
<circle cx="674.3" cy="398.2" r="3.2" fill="#ff922b" opacity="0.85"/>
<circle cx="680.2" cy="404.2" r="3.2" fill="#ff922b" opacity="0.85"/>
<circle cx="686.1" cy="326.0" r="3.2" fill="#ff922b" opacity="0.85"/>
<circle cx="692.1" cy="327.4" r="3.2" fill="#ff922b" opacity="0.85"/>
<circle cx="698.0" cy="399.7" r="3.2" fill="#ff922b" opacity="0.85"/>
<circle cx="703.9" cy="397.4" r="3.2" fill="#ff922b" opacity="0.85"/>
<circle cx="709.9" cy="449.9" r="3.2" fill="#ff922b" opacity="0.85"/>
<circle cx="715.8" cy="414.9" r="3.2" fill="#ff922b" opacity="0.85"/>
<circle cx="721.8" cy="407.0" r="3.2" fill="#ff922b" opacity="0.85"/>
<circle cx="727.7" cy="366.5" r="3.2" fill="#ff922b" opacity="0.85"/>
<circle cx="733.6" cy="399.1" r="3.2" fill="#ff922b" opacity="0.85"/>
<circle cx="739.6" cy="403.6" r="3.2" fill="#ff922b" opacity="0.85"/>
<circle cx="745.5" cy="408.3" r="3.2" fill="#ff922b" opacity="0.85"/>
<circle cx="751.4" cy="401.9" r="3.2" fill="#ff922b" opacity="0.85"/>
<circle cx="757.4" cy="386.1" r="3.2" fill="#ff922b" opacity="0.85"/>
<circle cx="763.3" cy="387.7" r="3.2" fill="#ff922b" opacity="0.85"/>
<circle cx="769.2" cy="401.6" r="3.2" fill="#ff922b" opacity="0.85"/>
<circle cx="775.2" cy="303.3" r="3.2" fill="#ff922b" opacity="0.85"/>
<circle cx="781.1" cy="365.5" r="3.2" fill="#ff922b" opacity="0.85"/>
<circle cx="118.7" cy="399.5" r="2.6" fill="none" stroke="#d4a017" stroke-width="1.8" opacity="0.7999999999999999"/>
<circle cx="124.6" cy="401.6" r="2.6" fill="none" stroke="#d4a017" stroke-width="1.8" opacity="0.7999999999999999"/>
<circle cx="142.4" cy="399.6" r="2.6" fill="none" stroke="#d4a017" stroke-width="1.8" opacity="0.7999999999999999"/>
<circle cx="148.4" cy="390.0" r="2.6" fill="none" stroke="#d4a017" stroke-width="1.8" opacity="0.7999999999999999"/>
<circle cx="154.3" cy="383.3" r="2.6" fill="none" stroke="#d4a017" stroke-width="1.8" opacity="0.7999999999999999"/>
<circle cx="166.2" cy="394.8" r="2.6" fill="none" stroke="#d4a017" stroke-width="1.8" opacity="0.7999999999999999"/>
<circle cx="195.9" cy="394.1" r="2.6" fill="none" stroke="#d4a017" stroke-width="1.8" opacity="0.7999999999999999"/>
<circle cx="255.2" cy="403.1" r="2.6" fill="none" stroke="#d4a017" stroke-width="1.8" opacity="0.7999999999999999"/>
<circle cx="290.8" cy="401.0" r="2.6" fill="none" stroke="#d4a017" stroke-width="1.8" opacity="0.7999999999999999"/>
<circle cx="362.1" cy="394.2" r="2.6" fill="none" stroke="#d4a017" stroke-width="1.8" opacity="0.7999999999999999"/>
<circle cx="700.4" cy="400.4" r="2.6" fill="none" stroke="#d4a017" stroke-width="1.8" opacity="0.7999999999999999"/>
<circle cx="730.1" cy="365.4" r="2.6" fill="none" stroke="#d4a017" stroke-width="1.8" opacity="0.7999999999999999"/>
<circle cx="736.0" cy="399.3" r="2.6" fill="none" stroke="#d4a017" stroke-width="1.8" opacity="0.7999999999999999"/>
<circle cx="777.6" cy="402.2" r="2.6" fill="none" stroke="#d4a017" stroke-width="1.8" opacity="0.7999999999999999"/>
<circle cx="847" cy="84" r="5" fill="#ff922b"/>
<text x="866" y="88" font-size="13" fill="#c9d1d9" font-weight="700">Kāra</text>
<line x1="836" y1="108" x2="858" y2="108" stroke="#a7b0bc" stroke-width="2" stroke-dasharray="5 4"/>
<text x="866" y="112" font-size="13" fill="#c9d1d9" font-weight="400">Rust (default) = 1.0×</text>
<circle cx="847" cy="132" r="4" fill="#3fb950"/>
<text x="866" y="136" font-size="13" fill="#c9d1d9" font-weight="400">C</text>
<circle cx="847" cy="156" r="4" fill="#bc8cff"/>
<text x="866" y="160" font-size="13" fill="#c9d1d9" font-weight="400">Go</text>
<circle cx="847" cy="180" r="4" fill="none" stroke="#d4a017" stroke-width="1.8"/>
<text x="866" y="184" font-size="12" fill="#c9d1d9" font-weight="400">Rust (checked)</text>
<text x="70" y="502" font-size="11.5" fill="#c9d1d9">Solid Rust = 1.0× is the release default — it wraps silently on overflow. Hollow rings ◌ are Rust built overflow-checked,</text>
<text x="70" y="518" font-size="11.5" fill="#c9d1d9">the same safety kāra enforces by default: median 1.05× the cost of plain Rust across the 14 overflow-exercising programs. At that matched safety kāra is ≈ 1.04× — compare kāra to the rings.</text>
<text x="70" y="538" font-size="11.5" fill="#8b949e">Each dot is one benchmarked program (kata × approach); there is no connecting line because left-to-right order is not meaningful. Raw numbers: bench-results.json</text>
</svg>