<svg xmlns="http://www.w3.org/2000/svg" width="980" height="560" viewBox="0 0 980 560" font-family="-apple-system,Segoe UI,Helvetica,Arial,sans-serif">
<rect width="980" height="560" fill="#282c34"/>
<text x="70" y="34" font-size="21" font-weight="700" fill="#c9d1d9">Runtime — sequential lane</text>
<text x="70" y="56" font-size="13" fill="#8b949e">relative to Rust (default) = 1.0 · lower = faster · 99 programs</text>
<line x1="70" y1="456.0" x2="812" y2="456.0" stroke="#3b414b" stroke-width="1"/>
<text x="60" y="460.0" font-size="12" text-anchor="end" fill="#8b949e">0.0×</text>
<line x1="70" y1="402.0" x2="812" y2="402.0" stroke="#a7b0bc" stroke-width="2" stroke-dasharray="5 4"/>
<text x="60" y="406.0" font-size="12" text-anchor="end" fill="#aeb6c0" font-weight="700">1.0×</text>
<line x1="70" y1="380.4" x2="812" y2="380.4" stroke="#3b414b" stroke-width="1"/>
<text x="60" y="384.4" font-size="12" text-anchor="end" fill="#8b949e">1.4×</text>
<line x1="70" y1="304.8" x2="812" y2="304.8" stroke="#3b414b" stroke-width="1"/>
<text x="60" y="308.8" font-size="12" text-anchor="end" fill="#8b949e">2.8×</text>
<line x1="70" y1="229.2" x2="812" y2="229.2" stroke="#3b414b" stroke-width="1"/>
<text x="60" y="233.2" font-size="12" text-anchor="end" fill="#8b949e">4.2×</text>
<line x1="70" y1="153.6" x2="812" y2="153.6" stroke="#3b414b" stroke-width="1"/>
<text x="60" y="157.6" font-size="12" text-anchor="end" fill="#8b949e">5.6×</text>
<line x1="70" y1="78.0" x2="812" y2="78.0" stroke="#3b414b" stroke-width="1"/>
<text x="60" y="82.0" font-size="12" text-anchor="end" fill="#8b949e">7.0×</text>
<text x="812" y="396.0" font-size="11" text-anchor="end" fill="#aeb6c0">Rust (default) baseline</text>
<line x1="70" y1="456" x2="812" y2="456" stroke="#3b414b"/>
<text x="441.0" y="478" font-size="11" text-anchor="middle" fill="#8b949e">99 programs (kata × approach) — x-order carries no meaning</text>
<circle cx="99.2" cy="402.1" r="2.6" fill="#3fb950" opacity="0.7"/>
<circle cx="106.2" cy="421.6" r="2.6" fill="#3fb950" opacity="0.7"/>
<circle cx="113.1" cy="425.2" r="2.6" fill="#3fb950" opacity="0.7"/>
<circle cx="120.1" cy="442.8" r="2.6" fill="#3fb950" opacity="0.7"/>
<circle cx="127.1" cy="413.8" r="2.6" fill="#3fb950" opacity="0.7"/>
<circle cx="134.0" cy="411.4" r="2.6" fill="#3fb950" opacity="0.7"/>
<circle cx="141.0" cy="402.3" r="2.6" fill="#3fb950" opacity="0.7"/>
<circle cx="148.0" cy="399.7" r="2.6" fill="#3fb950" opacity="0.7"/>
<circle cx="154.9" cy="397.0" r="2.6" fill="#3fb950" opacity="0.7"/>
<circle cx="161.9" cy="395.5" r="2.6" fill="#3fb950" opacity="0.7"/>
<circle cx="168.9" cy="402.1" r="2.6" fill="#3fb950" opacity="0.7"/>
<circle cx="175.8" cy="409.1" r="2.6" fill="#3fb950" opacity="0.7"/>
<circle cx="182.8" cy="395.6" r="2.6" fill="#3fb950" opacity="0.7"/>
<circle cx="189.8" cy="399.0" r="2.6" fill="#3fb950" opacity="0.7"/>
<circle cx="196.7" cy="413.4" r="2.6" fill="#3fb950" opacity="0.7"/>
<circle cx="203.7" cy="397.3" r="2.6" fill="#3fb950" opacity="0.7"/>
<circle cx="210.7" cy="357.8" r="2.6" fill="#3fb950" opacity="0.7"/>
<circle cx="217.6" cy="415.1" r="2.6" fill="#3fb950" opacity="0.7"/>
<circle cx="224.6" cy="403.5" r="2.6" fill="#3fb950" opacity="0.7"/>
<circle cx="231.6" cy="423.2" r="2.6" fill="#3fb950" opacity="0.7"/>
<circle cx="238.5" cy="406.5" r="2.6" fill="#3fb950" opacity="0.7"/>
<circle cx="245.5" cy="419.9" r="2.6" fill="#3fb950" opacity="0.7"/>
<circle cx="252.5" cy="439.8" r="2.6" fill="#3fb950" opacity="0.7"/>
<circle cx="259.4" cy="424.6" r="2.6" fill="#3fb950" opacity="0.7"/>
<circle cx="266.4" cy="418.3" r="2.6" fill="#3fb950" opacity="0.7"/>
<circle cx="273.3" cy="420.5" r="2.6" fill="#3fb950" opacity="0.7"/>
<circle cx="280.3" cy="400.5" r="2.6" fill="#3fb950" opacity="0.7"/>
<circle cx="287.3" cy="400.0" r="2.6" fill="#3fb950" opacity="0.7"/>
<circle cx="294.2" cy="402.1" r="2.6" fill="#3fb950" opacity="0.7"/>
<circle cx="301.2" cy="414.5" r="2.6" fill="#3fb950" opacity="0.7"/>
<circle cx="308.2" cy="401.5" r="2.6" fill="#3fb950" opacity="0.7"/>
<circle cx="315.1" cy="435.9" r="2.6" fill="#3fb950" opacity="0.7"/>
<circle cx="322.1" cy="402.2" r="2.6" fill="#3fb950" opacity="0.7"/>
<circle cx="329.1" cy="421.6" r="2.6" fill="#3fb950" opacity="0.7"/>
<circle cx="336.0" cy="415.8" r="2.6" fill="#3fb950" opacity="0.7"/>
<circle cx="343.0" cy="417.3" r="2.6" fill="#3fb950" opacity="0.7"/>
<circle cx="350.0" cy="417.7" r="2.6" fill="#3fb950" opacity="0.7"/>
<circle cx="356.9" cy="402.4" r="2.6" fill="#3fb950" opacity="0.7"/>
<circle cx="363.9" cy="382.1" r="2.6" fill="#3fb950" opacity="0.7"/>
<circle cx="370.9" cy="413.8" r="2.6" fill="#3fb950" opacity="0.7"/>
<circle cx="377.8" cy="398.2" r="2.6" fill="#3fb950" opacity="0.7"/>
<circle cx="384.8" cy="401.5" r="2.6" fill="#3fb950" opacity="0.7"/>
<circle cx="391.8" cy="404.4" r="2.6" fill="#3fb950" opacity="0.7"/>
<circle cx="398.7" cy="403.9" r="2.6" fill="#3fb950" opacity="0.7"/>
<circle cx="405.7" cy="431.2" r="2.6" fill="#3fb950" opacity="0.7"/>
<circle cx="412.7" cy="404.3" r="2.6" fill="#3fb950" opacity="0.7"/>
<circle cx="419.6" cy="400.0" r="2.6" fill="#3fb950" opacity="0.7"/>
<circle cx="426.6" cy="398.4" r="2.6" fill="#3fb950" opacity="0.7"/>
<circle cx="433.6" cy="403.7" r="2.6" fill="#3fb950" opacity="0.7"/>
<circle cx="440.5" cy="404.7" r="2.6" fill="#3fb950" opacity="0.7"/>
<circle cx="447.5" cy="435.3" r="2.6" fill="#3fb950" opacity="0.7"/>
<circle cx="454.5" cy="424.2" r="2.6" fill="#3fb950" opacity="0.7"/>
<circle cx="461.4" cy="386.9" r="2.6" fill="#3fb950" opacity="0.7"/>
<circle cx="468.4" cy="402.3" r="2.6" fill="#3fb950" opacity="0.7"/>
<circle cx="475.4" cy="402.1" r="2.6" fill="#3fb950" opacity="0.7"/>
<circle cx="482.3" cy="408.1" r="2.6" fill="#3fb950" opacity="0.7"/>
<circle cx="489.3" cy="400.9" r="2.6" fill="#3fb950" opacity="0.7"/>
<circle cx="496.3" cy="369.7" r="2.6" fill="#3fb950" opacity="0.7"/>
<circle cx="503.2" cy="441.3" r="2.6" fill="#3fb950" opacity="0.7"/>
<circle cx="510.2" cy="409.4" r="2.6" fill="#3fb950" opacity="0.7"/>
<circle cx="517.1" cy="438.7" r="2.6" fill="#3fb950" opacity="0.7"/>
<circle cx="524.1" cy="401.9" r="2.6" fill="#3fb950" opacity="0.7"/>
<circle cx="531.1" cy="424.3" r="2.6" fill="#3fb950" opacity="0.7"/>
<circle cx="538.0" cy="401.6" r="2.6" fill="#3fb950" opacity="0.7"/>
<circle cx="545.0" cy="401.9" r="2.6" fill="#3fb950" opacity="0.7"/>
<circle cx="552.0" cy="402.1" r="2.6" fill="#3fb950" opacity="0.7"/>
<circle cx="558.9" cy="393.0" r="2.6" fill="#3fb950" opacity="0.7"/>
<circle cx="565.9" cy="405.6" r="2.6" fill="#3fb950" opacity="0.7"/>
<circle cx="572.9" cy="401.9" r="2.6" fill="#3fb950" opacity="0.7"/>
<circle cx="579.8" cy="412.7" r="2.6" fill="#3fb950" opacity="0.7"/>
<circle cx="586.8" cy="401.6" r="2.6" fill="#3fb950" opacity="0.7"/>
<circle cx="593.8" cy="450.6" r="2.6" fill="#3fb950" opacity="0.7"/>
<circle cx="600.7" cy="372.4" r="2.6" fill="#3fb950" opacity="0.7"/>
<circle cx="607.7" cy="391.1" r="2.6" fill="#3fb950" opacity="0.7"/>
<circle cx="614.7" cy="401.7" r="2.6" fill="#3fb950" opacity="0.7"/>
<circle cx="621.6" cy="407.8" r="2.6" fill="#3fb950" opacity="0.7"/>
<circle cx="628.6" cy="402.6" r="2.6" fill="#3fb950" opacity="0.7"/>
<circle cx="635.6" cy="403.6" r="2.6" fill="#3fb950" opacity="0.7"/>
<circle cx="642.5" cy="402.9" r="2.6" fill="#3fb950" opacity="0.7"/>
<circle cx="649.5" cy="410.3" r="2.6" fill="#3fb950" opacity="0.7"/>
<circle cx="656.5" cy="402.4" r="2.6" fill="#3fb950" opacity="0.7"/>
<circle cx="663.4" cy="419.1" r="2.6" fill="#3fb950" opacity="0.7"/>
<circle cx="670.4" cy="395.0" r="2.6" fill="#3fb950" opacity="0.7"/>
<circle cx="677.4" cy="403.0" r="2.6" fill="#3fb950" opacity="0.7"/>
<circle cx="684.3" cy="404.2" r="2.6" fill="#3fb950" opacity="0.7"/>
<circle cx="691.3" cy="425.5" r="2.6" fill="#3fb950" opacity="0.7"/>
<circle cx="698.3" cy="445.3" r="2.6" fill="#3fb950" opacity="0.7"/>
<circle cx="705.2" cy="415.3" r="2.6" fill="#3fb950" opacity="0.7"/>
<circle cx="712.2" cy="410.4" r="2.6" fill="#3fb950" opacity="0.7"/>
<circle cx="719.2" cy="404.0" r="2.6" fill="#3fb950" opacity="0.7"/>
<circle cx="726.1" cy="402.7" r="2.6" fill="#3fb950" opacity="0.7"/>
<circle cx="733.1" cy="412.4" r="2.6" fill="#3fb950" opacity="0.7"/>
<circle cx="740.1" cy="407.1" r="2.6" fill="#3fb950" opacity="0.7"/>
<circle cx="747.0" cy="411.4" r="2.6" fill="#3fb950" opacity="0.7"/>
<circle cx="754.0" cy="452.2" r="2.6" fill="#3fb950" opacity="0.7"/>
<circle cx="760.9" cy="447.1" r="2.6" fill="#3fb950" opacity="0.7"/>
<circle cx="767.9" cy="406.6" r="2.6" fill="#3fb950" opacity="0.7"/>
<circle cx="774.9" cy="391.2" r="2.6" fill="#3fb950" opacity="0.7"/>
<circle cx="781.8" cy="416.2" r="2.6" fill="#3fb950" opacity="0.7"/>
<circle cx="100.2" cy="401.6" r="2.6" fill="#bc8cff" opacity="0.7"/>
<circle cx="107.1" cy="392.0" r="2.6" fill="#bc8cff" opacity="0.7"/>
<circle cx="114.1" cy="428.8" r="2.6" fill="#bc8cff" opacity="0.7"/>
<circle cx="121.1" cy="392.5" r="2.6" fill="#bc8cff" opacity="0.7"/>
<circle cx="128.0" cy="358.8" r="2.6" fill="#bc8cff" opacity="0.7"/>
<circle cx="135.0" cy="391.4" r="2.6" fill="#bc8cff" opacity="0.7"/>
<circle cx="141.9" cy="315.8" r="2.6" fill="#bc8cff" opacity="0.7"/>
<circle cx="148.9" cy="393.4" r="2.6" fill="#bc8cff" opacity="0.7"/>
<circle cx="155.9" cy="385.2" r="2.6" fill="#bc8cff" opacity="0.7"/>
<circle cx="162.8" cy="362.9" r="2.6" fill="#bc8cff" opacity="0.7"/>
<circle cx="169.8" cy="372.1" r="2.6" fill="#bc8cff" opacity="0.7"/>
<circle cx="176.8" cy="423.7" r="2.6" fill="#bc8cff" opacity="0.7"/>
<circle cx="183.7" cy="401.0" r="2.6" fill="#bc8cff" opacity="0.7"/>
<circle cx="190.7" cy="400.3" r="2.6" fill="#bc8cff" opacity="0.7"/>
<circle cx="197.7" cy="412.8" r="2.6" fill="#bc8cff" opacity="0.7"/>
<circle cx="204.6" cy="373.1" r="2.6" fill="#bc8cff" opacity="0.7"/>
<circle cx="211.6" cy="302.1" r="2.6" fill="#bc8cff" opacity="0.7"/>
<circle cx="218.6" cy="419.5" r="2.6" fill="#bc8cff" opacity="0.7"/>
<circle cx="225.5" cy="385.6" r="2.6" fill="#bc8cff" opacity="0.7"/>
<circle cx="232.5" cy="428.9" r="2.6" fill="#bc8cff" opacity="0.7"/>
<circle cx="239.5" cy="395.8" r="2.6" fill="#bc8cff" opacity="0.7"/>
<circle cx="246.4" cy="422.8" r="2.6" fill="#bc8cff" opacity="0.7"/>
<circle cx="253.4" cy="437.9" r="2.6" fill="#bc8cff" opacity="0.7"/>
<circle cx="260.4" cy="429.5" r="2.6" fill="#bc8cff" opacity="0.7"/>
<circle cx="267.3" cy="423.4" r="2.6" fill="#bc8cff" opacity="0.7"/>
<circle cx="274.3" cy="424.6" r="2.6" fill="#bc8cff" opacity="0.7"/>
<circle cx="281.3" cy="394.3" r="2.6" fill="#bc8cff" opacity="0.7"/>
<circle cx="288.2" cy="388.7" r="2.6" fill="#bc8cff" opacity="0.7"/>
<circle cx="295.2" cy="276.0" r="2.6" fill="#bc8cff" opacity="0.7"/>
<circle cx="302.2" cy="378.6" r="2.6" fill="#bc8cff" opacity="0.7"/>
<circle cx="309.1" cy="393.5" r="2.6" fill="#bc8cff" opacity="0.7"/>
<circle cx="316.1" cy="319.9" r="2.6" fill="#bc8cff" opacity="0.7"/>
<circle cx="323.1" cy="396.2" r="2.6" fill="#bc8cff" opacity="0.7"/>
<circle cx="330.0" cy="340.6" r="2.6" fill="#bc8cff" opacity="0.7"/>
<circle cx="337.0" cy="400.8" r="2.6" fill="#bc8cff" opacity="0.7"/>
<circle cx="344.0" cy="416.0" r="2.6" fill="#bc8cff" opacity="0.7"/>
<circle cx="350.9" cy="359.7" r="2.6" fill="#bc8cff" opacity="0.7"/>
<circle cx="357.9" cy="340.0" r="2.6" fill="#bc8cff" opacity="0.7"/>
<circle cx="364.9" cy="371.7" r="2.6" fill="#bc8cff" opacity="0.7"/>
<circle cx="371.8" cy="424.3" r="2.6" fill="#bc8cff" opacity="0.7"/>
<circle cx="378.8" cy="391.5" r="2.6" fill="#bc8cff" opacity="0.7"/>
<circle cx="385.7" cy="394.2" r="2.6" fill="#bc8cff" opacity="0.7"/>
<circle cx="392.7" cy="396.9" r="2.6" fill="#bc8cff" opacity="0.7"/>
<circle cx="399.7" cy="438.7" r="2.6" fill="#bc8cff" opacity="0.7"/>
<circle cx="406.6" cy="393.1" r="2.6" fill="#bc8cff" opacity="0.7"/>
<circle cx="413.6" cy="399.1" r="2.6" fill="#bc8cff" opacity="0.7"/>
<circle cx="420.6" cy="401.0" r="2.6" fill="#bc8cff" opacity="0.7"/>
<circle cx="427.5" cy="382.5" r="2.6" fill="#bc8cff" opacity="0.7"/>
<circle cx="434.5" cy="392.8" r="2.6" fill="#bc8cff" opacity="0.7"/>
<circle cx="441.5" cy="395.2" r="2.6" fill="#bc8cff" opacity="0.7"/>
<circle cx="448.4" cy="314.2" r="2.6" fill="#bc8cff" opacity="0.7"/>
<circle cx="455.4" cy="418.1" r="2.6" fill="#bc8cff" opacity="0.7"/>
<circle cx="462.4" cy="330.6" r="2.6" fill="#bc8cff" opacity="0.7"/>
<circle cx="469.3" cy="334.6" r="2.6" fill="#bc8cff" opacity="0.7"/>
<circle cx="476.3" cy="340.9" r="2.6" fill="#bc8cff" opacity="0.7"/>
<circle cx="483.3" cy="355.5" r="2.6" fill="#bc8cff" opacity="0.7"/>
<circle cx="490.2" cy="415.5" r="2.6" fill="#bc8cff" opacity="0.7"/>
<circle cx="497.2" cy="88.9" r="2.6" fill="#bc8cff" opacity="0.7"/>
<circle cx="504.2" cy="429.1" r="2.6" fill="#bc8cff" opacity="0.7"/>
<circle cx="511.1" cy="381.4" r="2.6" fill="#bc8cff" opacity="0.7"/>
<circle cx="518.1" cy="438.7" r="2.6" fill="#bc8cff" opacity="0.7"/>
<circle cx="525.1" cy="377.1" r="2.6" fill="#bc8cff" opacity="0.7"/>
<circle cx="532.0" cy="432.6" r="2.6" fill="#bc8cff" opacity="0.7"/>
<circle cx="539.0" cy="339.0" r="2.6" fill="#bc8cff" opacity="0.7"/>
<circle cx="546.0" cy="361.5" r="2.6" fill="#bc8cff" opacity="0.7"/>
<circle cx="552.9" cy="405.7" r="2.6" fill="#bc8cff" opacity="0.7"/>
<circle cx="559.9" cy="389.7" r="2.6" fill="#bc8cff" opacity="0.7"/>
<circle cx="566.9" cy="405.6" r="2.6" fill="#bc8cff" opacity="0.7"/>
<circle cx="573.8" cy="400.0" r="2.6" fill="#bc8cff" opacity="0.7"/>
<circle cx="580.8" cy="398.8" r="2.6" fill="#bc8cff" opacity="0.7"/>
<circle cx="587.8" cy="396.6" r="2.6" fill="#bc8cff" opacity="0.7"/>
<circle cx="594.7" cy="433.3" r="2.6" fill="#bc8cff" opacity="0.7"/>
<circle cx="601.7" cy="416.4" r="2.6" fill="#bc8cff" opacity="0.7"/>
<circle cx="608.7" cy="409.0" r="2.6" fill="#bc8cff" opacity="0.7"/>
<circle cx="615.6" cy="408.0" r="2.6" fill="#bc8cff" opacity="0.7"/>
<circle cx="622.6" cy="371.1" r="2.6" fill="#bc8cff" opacity="0.7"/>
<circle cx="629.5" cy="405.9" r="2.6" fill="#bc8cff" opacity="0.7"/>
<circle cx="636.5" cy="403.5" r="2.6" fill="#bc8cff" opacity="0.7"/>
<circle cx="643.5" cy="401.5" r="2.6" fill="#bc8cff" opacity="0.7"/>
<circle cx="650.4" cy="395.9" r="2.6" fill="#bc8cff" opacity="0.7"/>
<circle cx="657.4" cy="390.8" r="2.6" fill="#bc8cff" opacity="0.7"/>
<circle cx="664.4" cy="388.8" r="2.6" fill="#bc8cff" opacity="0.7"/>
<circle cx="671.3" cy="386.6" r="2.6" fill="#bc8cff" opacity="0.7"/>
<circle cx="678.3" cy="416.4" r="2.6" fill="#bc8cff" opacity="0.7"/>
<circle cx="685.3" cy="397.7" r="2.6" fill="#bc8cff" opacity="0.7"/>
<circle cx="692.2" cy="408.7" r="2.6" fill="#bc8cff" opacity="0.7"/>
<circle cx="699.2" cy="399.4" r="2.6" fill="#bc8cff" opacity="0.7"/>
<circle cx="706.2" cy="419.2" r="2.6" fill="#bc8cff" opacity="0.7"/>
<circle cx="713.1" cy="362.8" r="2.6" fill="#bc8cff" opacity="0.7"/>
<circle cx="720.1" cy="396.9" r="2.6" fill="#bc8cff" opacity="0.7"/>
<circle cx="727.1" cy="408.9" r="2.6" fill="#bc8cff" opacity="0.7"/>
<circle cx="734.0" cy="400.6" r="2.6" fill="#bc8cff" opacity="0.7"/>
<circle cx="741.0" cy="404.0" r="2.6" fill="#bc8cff" opacity="0.7"/>
<circle cx="748.0" cy="418.5" r="2.6" fill="#bc8cff" opacity="0.7"/>
<circle cx="754.9" cy="444.8" r="2.6" fill="#bc8cff" opacity="0.7"/>
<circle cx="761.9" cy="419.4" r="2.6" fill="#bc8cff" opacity="0.7"/>
<circle cx="768.9" cy="409.4" r="2.6" fill="#bc8cff" opacity="0.7"/>
<circle cx="775.8" cy="258.5" r="2.6" fill="#bc8cff" opacity="0.7"/>
<circle cx="782.8" cy="362.5" r="2.6" fill="#bc8cff" opacity="0.7"/>
<circle cx="98.3" cy="394.1" r="3.2" fill="#ff922b" opacity="0.85"/>
<circle cx="105.2" cy="414.9" r="3.2" fill="#ff922b" opacity="0.85"/>
<circle cx="112.2" cy="426.6" r="3.2" fill="#ff922b" opacity="0.85"/>
<circle cx="119.2" cy="431.8" r="3.2" fill="#ff922b" opacity="0.85"/>
<circle cx="126.1" cy="398.4" r="3.2" fill="#ff922b" opacity="0.85"/>
<circle cx="133.1" cy="381.7" r="3.2" fill="#ff922b" opacity="0.85"/>
<circle cx="140.1" cy="399.1" r="3.2" fill="#ff922b" opacity="0.85"/>
<circle cx="147.0" cy="391.9" r="3.2" fill="#ff922b" opacity="0.85"/>
<circle cx="154.0" cy="380.1" r="3.2" fill="#ff922b" opacity="0.85"/>
<circle cx="161.0" cy="377.3" r="3.2" fill="#ff922b" opacity="0.85"/>
<circle cx="167.9" cy="396.9" r="3.2" fill="#ff922b" opacity="0.85"/>
<circle cx="174.9" cy="394.4" r="3.2" fill="#ff922b" opacity="0.85"/>
<circle cx="181.8" cy="404.1" r="3.2" fill="#ff922b" opacity="0.85"/>
<circle cx="188.8" cy="404.0" r="3.2" fill="#ff922b" opacity="0.85"/>
<circle cx="195.8" cy="395.7" r="3.2" fill="#ff922b" opacity="0.85"/>
<circle cx="202.7" cy="401.0" r="3.2" fill="#ff922b" opacity="0.85"/>
<circle cx="209.7" cy="395.5" r="3.2" fill="#ff922b" opacity="0.85"/>
<circle cx="216.7" cy="391.0" r="3.2" fill="#ff922b" opacity="0.85"/>
<circle cx="223.6" cy="399.4" r="3.2" fill="#ff922b" opacity="0.85"/>
<circle cx="230.6" cy="414.3" r="3.2" fill="#ff922b" opacity="0.85"/>
<circle cx="237.6" cy="410.0" r="3.2" fill="#ff922b" opacity="0.85"/>
<circle cx="244.5" cy="405.1" r="3.2" fill="#ff922b" opacity="0.85"/>
<circle cx="251.5" cy="437.8" r="3.2" fill="#ff922b" opacity="0.85"/>
<circle cx="258.5" cy="409.2" r="3.2" fill="#ff922b" opacity="0.85"/>
<circle cx="265.4" cy="409.6" r="3.2" fill="#ff922b" opacity="0.85"/>
<circle cx="272.4" cy="405.6" r="3.2" fill="#ff922b" opacity="0.85"/>
<circle cx="279.4" cy="396.3" r="3.2" fill="#ff922b" opacity="0.85"/>
<circle cx="286.3" cy="398.6" r="3.2" fill="#ff922b" opacity="0.85"/>
<circle cx="293.3" cy="402.5" r="3.2" fill="#ff922b" opacity="0.85"/>
<circle cx="300.3" cy="402.1" r="3.2" fill="#ff922b" opacity="0.85"/>
<circle cx="307.2" cy="400.7" r="3.2" fill="#ff922b" opacity="0.85"/>
<circle cx="314.2" cy="363.0" r="3.2" fill="#ff922b" opacity="0.85"/>
<circle cx="321.2" cy="401.0" r="3.2" fill="#ff922b" opacity="0.85"/>
<circle cx="328.1" cy="400.3" r="3.2" fill="#ff922b" opacity="0.85"/>
<circle cx="335.1" cy="397.1" r="3.2" fill="#ff922b" opacity="0.85"/>
<circle cx="342.1" cy="396.1" r="3.2" fill="#ff922b" opacity="0.85"/>
<circle cx="349.0" cy="395.6" r="3.2" fill="#ff922b" opacity="0.85"/>
<circle cx="356.0" cy="426.2" r="3.2" fill="#ff922b" opacity="0.85"/>
<circle cx="363.0" cy="403.8" r="3.2" fill="#ff922b" opacity="0.85"/>
<circle cx="369.9" cy="389.3" r="3.2" fill="#ff922b" opacity="0.85"/>
<circle cx="376.9" cy="377.0" r="3.2" fill="#ff922b" opacity="0.85"/>
<circle cx="383.9" cy="379.7" r="3.2" fill="#ff922b" opacity="0.85"/>
<circle cx="390.8" cy="404.6" r="3.2" fill="#ff922b" opacity="0.85"/>
<circle cx="397.8" cy="437.7" r="3.2" fill="#ff922b" opacity="0.85"/>
<circle cx="404.8" cy="382.6" r="3.2" fill="#ff922b" opacity="0.85"/>
<circle cx="411.7" cy="394.7" r="3.2" fill="#ff922b" opacity="0.85"/>
<circle cx="418.7" cy="399.6" r="3.2" fill="#ff922b" opacity="0.85"/>
<circle cx="425.6" cy="385.6" r="3.2" fill="#ff922b" opacity="0.85"/>
<circle cx="432.6" cy="402.9" r="3.2" fill="#ff922b" opacity="0.85"/>
<circle cx="439.6" cy="396.3" r="3.2" fill="#ff922b" opacity="0.85"/>
<circle cx="446.5" cy="366.6" r="3.2" fill="#ff922b" opacity="0.85"/>
<circle cx="453.5" cy="403.7" r="3.2" fill="#ff922b" opacity="0.85"/>
<circle cx="460.5" cy="350.9" r="3.2" fill="#ff922b" opacity="0.85"/>
<circle cx="467.4" cy="344.5" r="3.2" fill="#ff922b" opacity="0.85"/>
<circle cx="474.4" cy="402.3" r="3.2" fill="#ff922b" opacity="0.85"/>
<circle cx="481.4" cy="391.9" r="3.2" fill="#ff922b" opacity="0.85"/>
<circle cx="488.3" cy="401.2" r="3.2" fill="#ff922b" opacity="0.85"/>
<circle cx="495.3" cy="397.4" r="3.2" fill="#ff922b" opacity="0.85"/>
<circle cx="502.3" cy="405.2" r="3.2" fill="#ff922b" opacity="0.85"/>
<circle cx="509.2" cy="377.3" r="3.2" fill="#ff922b" opacity="0.85"/>
<circle cx="516.2" cy="433.2" r="3.2" fill="#ff922b" opacity="0.85"/>
<circle cx="523.2" cy="400.3" r="3.2" fill="#ff922b" opacity="0.85"/>
<circle cx="530.1" cy="416.3" r="3.2" fill="#ff922b" opacity="0.85"/>
<circle cx="537.1" cy="401.1" r="3.2" fill="#ff922b" opacity="0.85"/>
<circle cx="544.1" cy="396.3" r="3.2" fill="#ff922b" opacity="0.85"/>
<circle cx="551.0" cy="408.2" r="3.2" fill="#ff922b" opacity="0.85"/>
<circle cx="558.0" cy="400.8" r="3.2" fill="#ff922b" opacity="0.85"/>
<circle cx="565.0" cy="405.5" r="3.2" fill="#ff922b" opacity="0.85"/>
<circle cx="571.9" cy="401.5" r="3.2" fill="#ff922b" opacity="0.85"/>
<circle cx="578.9" cy="380.1" r="3.2" fill="#ff922b" opacity="0.85"/>
<circle cx="585.9" cy="413.0" r="3.2" fill="#ff922b" opacity="0.85"/>
<circle cx="592.8" cy="397.9" r="3.2" fill="#ff922b" opacity="0.85"/>
<circle cx="599.8" cy="412.9" r="3.2" fill="#ff922b" opacity="0.85"/>
<circle cx="606.8" cy="427.1" r="3.2" fill="#ff922b" opacity="0.85"/>
<circle cx="613.7" cy="405.3" r="3.2" fill="#ff922b" opacity="0.85"/>
<circle cx="620.7" cy="407.7" r="3.2" fill="#ff922b" opacity="0.85"/>
<circle cx="627.7" cy="389.7" r="3.2" fill="#ff922b" opacity="0.85"/>
<circle cx="634.6" cy="403.4" r="3.2" fill="#ff922b" opacity="0.85"/>
<circle cx="641.6" cy="402.6" r="3.2" fill="#ff922b" opacity="0.85"/>
<circle cx="648.6" cy="397.6" r="3.2" fill="#ff922b" opacity="0.85"/>
<circle cx="655.5" cy="402.0" r="3.2" fill="#ff922b" opacity="0.85"/>
<circle cx="662.5" cy="411.0" r="3.2" fill="#ff922b" opacity="0.85"/>
<circle cx="669.4" cy="398.1" r="3.2" fill="#ff922b" opacity="0.85"/>
<circle cx="676.4" cy="398.2" r="3.2" fill="#ff922b" opacity="0.85"/>
<circle cx="683.4" cy="399.7" r="3.2" fill="#ff922b" opacity="0.85"/>
<circle cx="690.3" cy="397.4" r="3.2" fill="#ff922b" opacity="0.85"/>
<circle cx="697.3" cy="449.9" r="3.2" fill="#ff922b" opacity="0.85"/>
<circle cx="704.3" cy="414.9" r="3.2" fill="#ff922b" opacity="0.85"/>
<circle cx="711.2" cy="407.0" r="3.2" fill="#ff922b" opacity="0.85"/>
<circle cx="718.2" cy="366.5" r="3.2" fill="#ff922b" opacity="0.85"/>
<circle cx="725.2" cy="399.1" r="3.2" fill="#ff922b" opacity="0.85"/>
<circle cx="732.1" cy="403.6" r="3.2" fill="#ff922b" opacity="0.85"/>
<circle cx="739.1" cy="408.3" r="3.2" fill="#ff922b" opacity="0.85"/>
<circle cx="746.1" cy="401.9" r="3.2" fill="#ff922b" opacity="0.85"/>
<circle cx="753.0" cy="386.1" r="3.2" fill="#ff922b" opacity="0.85"/>
<circle cx="760.0" cy="387.7" r="3.2" fill="#ff922b" opacity="0.85"/>
<circle cx="767.0" cy="401.6" r="3.2" fill="#ff922b" opacity="0.85"/>
<circle cx="773.9" cy="303.3" r="3.2" fill="#ff922b" opacity="0.85"/>
<circle cx="780.9" cy="365.5" r="3.2" fill="#ff922b" opacity="0.85"/>
<circle cx="122.0" cy="399.5" r="2.6" fill="none" stroke="#d4a017" stroke-width="1.8" opacity="0.7999999999999999"/>
<circle cx="129.0" cy="401.6" r="2.6" fill="none" stroke="#d4a017" stroke-width="1.8" opacity="0.7999999999999999"/>
<circle cx="149.9" cy="399.6" r="2.6" fill="none" stroke="#d4a017" stroke-width="1.8" opacity="0.7999999999999999"/>
<circle cx="156.8" cy="390.0" r="2.6" fill="none" stroke="#d4a017" stroke-width="1.8" opacity="0.7999999999999999"/>
<circle cx="163.8" cy="383.3" r="2.6" fill="none" stroke="#d4a017" stroke-width="1.8" opacity="0.7999999999999999"/>
<circle cx="177.7" cy="394.8" r="2.6" fill="none" stroke="#d4a017" stroke-width="1.8" opacity="0.7999999999999999"/>
<circle cx="212.6" cy="394.1" r="2.6" fill="none" stroke="#d4a017" stroke-width="1.8" opacity="0.7999999999999999"/>
<circle cx="282.2" cy="403.1" r="2.6" fill="none" stroke="#d4a017" stroke-width="1.8" opacity="0.7999999999999999"/>
<circle cx="324.0" cy="401.0" r="2.6" fill="none" stroke="#d4a017" stroke-width="1.8" opacity="0.7999999999999999"/>
<circle cx="407.6" cy="394.2" r="2.6" fill="none" stroke="#d4a017" stroke-width="1.8" opacity="0.7999999999999999"/>
<circle cx="686.2" cy="400.4" r="2.6" fill="none" stroke="#d4a017" stroke-width="1.8" opacity="0.7999999999999999"/>
<circle cx="721.0" cy="365.4" r="2.6" fill="none" stroke="#d4a017" stroke-width="1.8" opacity="0.7999999999999999"/>
<circle cx="728.0" cy="399.3" r="2.6" fill="none" stroke="#d4a017" stroke-width="1.8" opacity="0.7999999999999999"/>
<circle cx="776.8" cy="402.2" r="2.6" fill="none" stroke="#d4a017" stroke-width="1.8" opacity="0.7999999999999999"/>
<circle cx="847" cy="84" r="5" fill="#ff922b"/>
<text x="866" y="88" font-size="13" fill="#c9d1d9" font-weight="700">Kāra</text>
<line x1="836" y1="108" x2="858" y2="108" stroke="#a7b0bc" stroke-width="2" stroke-dasharray="5 4"/>
<text x="866" y="112" font-size="13" fill="#c9d1d9" font-weight="400">Rust (default) = 1.0×</text>
<circle cx="847" cy="132" r="4" fill="#3fb950"/>
<text x="866" y="136" font-size="13" fill="#c9d1d9" font-weight="400">C</text>
<circle cx="847" cy="156" r="4" fill="#bc8cff"/>
<text x="866" y="160" font-size="13" fill="#c9d1d9" font-weight="400">Go</text>
<circle cx="847" cy="180" r="4" fill="none" stroke="#d4a017" stroke-width="1.8"/>
<text x="866" y="184" font-size="12" fill="#c9d1d9" font-weight="400">Rust (checked)</text>
<text x="70" y="502" font-size="11.5" fill="#c9d1d9">Solid Rust = 1.0× is the release default — it wraps silently on overflow. Hollow rings ◌ are Rust built overflow-checked,</text>
<text x="70" y="518" font-size="11.5" fill="#c9d1d9">the same safety kāra enforces by default: median 1.05× the cost of plain Rust across the 14 overflow-exercising programs. At that matched safety kāra is ≈ 1.04× — compare kāra to the rings.</text>
<text x="70" y="538" font-size="11.5" fill="#8b949e">Each dot is one benchmarked program (kata × approach); there is no connecting line because left-to-right order is not meaningful. Raw numbers: bench-results.json</text>
</svg>