<svg xmlns="http://www.w3.org/2000/svg" width="980" height="560" viewBox="0 0 980 560" font-family="-apple-system,Segoe UI,Helvetica,Arial,sans-serif">
<rect width="980" height="560" fill="#282c34"/>
<text x="70" y="34" font-size="21" font-weight="700" fill="#c9d1d9">Runtime — sequential lane</text>
<text x="70" y="56" font-size="13" fill="#8b949e">relative to Rust = 1.0 · lower = faster · 13 programs</text>
<line x1="70" y1="456.0" x2="812" y2="456.0" stroke="#3b414b" stroke-width="1"/>
<text x="60" y="460.0" font-size="12" text-anchor="end" fill="#8b949e">0.0×</text>
<line x1="70" y1="330.0" x2="812" y2="330.0" stroke="#6e7681" stroke-width="1.4" stroke-dasharray="5 4"/>
<text x="60" y="334.0" font-size="12" text-anchor="end" fill="#aeb6c0" font-weight="700">1.0×</text>
<line x1="70" y1="204.0" x2="812" y2="204.0" stroke="#3b414b" stroke-width="1"/>
<text x="60" y="208.0" font-size="12" text-anchor="end" fill="#8b949e">2.0×</text>
<line x1="70" y1="78.0" x2="812" y2="78.0" stroke="#3b414b" stroke-width="1"/>
<text x="60" y="82.0" font-size="12" text-anchor="end" fill="#8b949e">3.0×</text>
<text x="812" y="324.0" font-size="11" text-anchor="end" fill="#aeb6c0">Rust baseline</text>
<line x1="99.7" y1="456" x2="99.7" y2="461" stroke="#3b414b"/>
<g transform="translate(99.7,474) rotate(35)">
<text x="0" y="0" font-size="10.5" fill="#8b949e">#1</text>
<text x="0" y="12" font-size="10.5" fill="#8b949e">brute_force</text>
</g>
<line x1="156.6" y1="456" x2="156.6" y2="461" stroke="#3b414b"/>
<g transform="translate(156.6,474) rotate(35)">
<text x="0" y="0" font-size="10.5" fill="#8b949e">#1</text>
<text x="0" y="12" font-size="10.5" fill="#8b949e">hash_map</text>
</g>
<line x1="213.5" y1="456" x2="213.5" y2="461" stroke="#3b414b"/>
<g transform="translate(213.5,474) rotate(35)">
<text x="0" y="0" font-size="10.5" fill="#8b949e">#2</text>
<text x="0" y="12" font-size="10.5" fill="#8b949e">iterative</text>
</g>
<line x1="270.3" y1="456" x2="270.3" y2="461" stroke="#3b414b"/>
<g transform="translate(270.3,474) rotate(35)">
<text x="0" y="0" font-size="10.5" fill="#8b949e">#3</text>
<text x="0" y="12" font-size="10.5" fill="#8b949e">sliding_window</text>
</g>
<line x1="327.2" y1="456" x2="327.2" y2="461" stroke="#3b414b"/>
<g transform="translate(327.2,474) rotate(35)">
<text x="0" y="0" font-size="10.5" fill="#8b949e">#4</text>
<text x="0" y="12" font-size="10.5" fill="#8b949e">binary_search…</text>
</g>
<line x1="384.1" y1="456" x2="384.1" y2="461" stroke="#3b414b"/>
<g transform="translate(384.1,474) rotate(35)">
<text x="0" y="0" font-size="10.5" fill="#8b949e">#5</text>
<text x="0" y="12" font-size="10.5" fill="#8b949e">expand_around…</text>
</g>
<line x1="441.0" y1="456" x2="441.0" y2="461" stroke="#3b414b"/>
<g transform="translate(441.0,474) rotate(35)">
<text x="0" y="0" font-size="10.5" fill="#8b949e">#6</text>
<text x="0" y="12" font-size="10.5" fill="#8b949e">row_buffers</text>
</g>
<line x1="497.9" y1="456" x2="497.9" y2="461" stroke="#3b414b"/>
<g transform="translate(497.9,474) rotate(35)">
<text x="0" y="0" font-size="10.5" fill="#8b949e">#7</text>
<text x="0" y="12" font-size="10.5" fill="#8b949e">reverse</text>
</g>
<line x1="554.8" y1="456" x2="554.8" y2="461" stroke="#3b414b"/>
<g transform="translate(554.8,474) rotate(35)">
<text x="0" y="0" font-size="10.5" fill="#8b949e">#8</text>
<text x="0" y="12" font-size="10.5" fill="#8b949e">atoi</text>
</g>
<line x1="611.7" y1="456" x2="611.7" y2="461" stroke="#3b414b"/>
<g transform="translate(611.7,474) rotate(35)">
<text x="0" y="0" font-size="10.5" fill="#8b949e">#9</text>
<text x="0" y="12" font-size="10.5" fill="#8b949e">palindrome</text>
</g>
<line x1="668.5" y1="456" x2="668.5" y2="461" stroke="#3b414b"/>
<g transform="translate(668.5,474) rotate(35)">
<text x="0" y="0" font-size="10.5" fill="#8b949e">#10</text>
<text x="0" y="12" font-size="10.5" fill="#8b949e">regex</text>
</g>
<line x1="725.4" y1="456" x2="725.4" y2="461" stroke="#3b414b"/>
<g transform="translate(725.4,474) rotate(35)">
<text x="0" y="0" font-size="10.5" fill="#8b949e">#11</text>
<text x="0" y="12" font-size="10.5" fill="#8b949e">container</text>
</g>
<line x1="782.3" y1="456" x2="782.3" y2="461" stroke="#3b414b"/>
<g transform="translate(782.3,474) rotate(35)">
<text x="0" y="0" font-size="10.5" fill="#8b949e">#204</text>
<text x="0" y="12" font-size="10.5" fill="#8b949e">count</text>
</g>
<circle cx="99.7" cy="338.9" r="4.0" fill="#3fb950" opacity="0.95"/>
<circle cx="156.6" cy="382.0" r="4.0" fill="#3fb950" opacity="0.95"/>
<circle cx="213.5" cy="392.3" r="4.0" fill="#3fb950" opacity="0.95"/>
<circle cx="270.3" cy="427.5" r="4.0" fill="#3fb950" opacity="0.95"/>
<circle cx="327.2" cy="355.8" r="4.0" fill="#3fb950" opacity="0.95"/>
<circle cx="384.1" cy="350.6" r="4.0" fill="#3fb950" opacity="0.95"/>
<circle cx="441.0" cy="330.0" r="4.0" fill="#3fb950" opacity="0.95"/>
<circle cx="497.9" cy="326.8" r="4.0" fill="#3fb950" opacity="0.95"/>
<circle cx="554.8" cy="320.4" r="4.0" fill="#3fb950" opacity="0.95"/>
<circle cx="611.7" cy="313.0" r="4.0" fill="#3fb950" opacity="0.95"/>
<circle cx="668.5" cy="329.9" r="4.0" fill="#3fb950" opacity="0.95"/>
<circle cx="725.4" cy="346.9" r="4.0" fill="#3fb950" opacity="0.95"/>
<circle cx="782.3" cy="331.7" r="4.0" fill="#3fb950" opacity="0.95"/>
<circle cx="103.5" cy="335.1" r="4.0" fill="#bc8cff" opacity="0.95"/>
<circle cx="160.4" cy="299.2" r="4.0" fill="#bc8cff" opacity="0.95"/>
<circle cx="217.3" cy="388.4" r="4.0" fill="#bc8cff" opacity="0.95"/>
<circle cx="274.2" cy="305.0" r="4.0" fill="#bc8cff" opacity="0.95"/>
<circle cx="331.1" cy="227.8" r="4.0" fill="#bc8cff" opacity="0.95"/>
<circle cx="387.9" cy="303.0" r="4.0" fill="#bc8cff" opacity="0.95"/>
<circle cx="444.8" cy="141.0" r="4.0" fill="#bc8cff" opacity="0.95"/>
<circle cx="501.7" cy="311.3" r="4.0" fill="#bc8cff" opacity="0.95"/>
<circle cx="558.6" cy="295.1" r="4.0" fill="#bc8cff" opacity="0.95"/>
<circle cx="615.5" cy="236.5" r="4.0" fill="#bc8cff" opacity="0.95"/>
<circle cx="672.4" cy="268.1" r="4.0" fill="#bc8cff" opacity="0.95"/>
<circle cx="729.3" cy="381.2" r="4.0" fill="#bc8cff" opacity="0.95"/>
<circle cx="786.2" cy="346.7" r="4.0" fill="#bc8cff" opacity="0.95"/>
<circle cx="95.8" cy="339.9" r="5.0" fill="#ff922b" opacity="1.0"/>
<circle cx="152.7" cy="359.5" r="5.0" fill="#ff922b" opacity="1.0"/>
<circle cx="209.6" cy="375.0" r="5.0" fill="#ff922b" opacity="1.0"/>
<circle cx="266.5" cy="405.9" r="5.0" fill="#ff922b" opacity="1.0"/>
<circle cx="323.4" cy="330.9" r="5.0" fill="#ff922b" opacity="1.0"/>
<circle cx="380.3" cy="321.7" r="5.0" fill="#ff922b" opacity="1.0"/>
<circle cx="437.2" cy="322.8" r="5.0" fill="#ff922b" opacity="1.0"/>
<circle cx="494.1" cy="329.9" r="5.0" fill="#ff922b" opacity="1.0"/>
<circle cx="550.9" cy="335.0" r="5.0" fill="#ff922b" opacity="1.0"/>
<circle cx="607.8" cy="309.5" r="5.0" fill="#ff922b" opacity="1.0"/>
<circle cx="664.7" cy="332.9" r="5.0" fill="#ff922b" opacity="1.0"/>
<circle cx="721.6" cy="345.8" r="5.0" fill="#ff922b" opacity="1.0"/>
<circle cx="778.5" cy="288.1" r="5.0" fill="#ff922b" opacity="1.0"/>
<circle cx="847" cy="84" r="5" fill="#ff922b"/>
<text x="866" y="88" font-size="13" fill="#c9d1d9" font-weight="700">Kāra</text>
<line x1="836" y1="108" x2="858" y2="108" stroke="#6e7681" stroke-width="1.6" stroke-dasharray="5 4"/>
<text x="866" y="112" font-size="13" fill="#c9d1d9" font-weight="400">Rust</text>
<circle cx="847" cy="132" r="4" fill="#3fb950"/>
<text x="866" y="136" font-size="13" fill="#c9d1d9" font-weight="400">C</text>
<circle cx="847" cy="156" r="4" fill="#bc8cff"/>
<text x="866" y="160" font-size="13" fill="#c9d1d9" font-weight="400">Go</text>
<text x="70" y="538" font-size="11.5" fill="#8b949e">Each dot is one benchmarked program (kata × approach); there is no connecting line because left-to-right order is not meaningful. Raw numbers: bench-results.json</text>
</svg>