<svg xmlns="http://www.w3.org/2000/svg" width="980" height="560" viewBox="0 0 980 560" font-family="-apple-system,Segoe UI,Helvetica,Arial,sans-serif">
<rect width="980" height="560" fill="#282c34"/>
<text x="70" y="34" font-size="21" font-weight="700" fill="#c9d1d9">Runtime — sequential lane</text>
<text x="70" y="56" font-size="13" fill="#8b949e">relative to Rust (default) = 1.0 · lower = faster · 91 programs</text>
<line x1="70" y1="456.0" x2="812" y2="456.0" stroke="#3b414b" stroke-width="1"/>
<text x="60" y="460.0" font-size="12" text-anchor="end" fill="#8b949e">0.0×</text>
<line x1="70" y1="402.0" x2="812" y2="402.0" stroke="#a7b0bc" stroke-width="2" stroke-dasharray="5 4"/>
<text x="60" y="406.0" font-size="12" text-anchor="end" fill="#aeb6c0" font-weight="700">1.0×</text>
<line x1="70" y1="380.4" x2="812" y2="380.4" stroke="#3b414b" stroke-width="1"/>
<text x="60" y="384.4" font-size="12" text-anchor="end" fill="#8b949e">1.4×</text>
<line x1="70" y1="304.8" x2="812" y2="304.8" stroke="#3b414b" stroke-width="1"/>
<text x="60" y="308.8" font-size="12" text-anchor="end" fill="#8b949e">2.8×</text>
<line x1="70" y1="229.2" x2="812" y2="229.2" stroke="#3b414b" stroke-width="1"/>
<text x="60" y="233.2" font-size="12" text-anchor="end" fill="#8b949e">4.2×</text>
<line x1="70" y1="153.6" x2="812" y2="153.6" stroke="#3b414b" stroke-width="1"/>
<text x="60" y="157.6" font-size="12" text-anchor="end" fill="#8b949e">5.6×</text>
<line x1="70" y1="78.0" x2="812" y2="78.0" stroke="#3b414b" stroke-width="1"/>
<text x="60" y="82.0" font-size="12" text-anchor="end" fill="#8b949e">7.0×</text>
<text x="812" y="396.0" font-size="11" text-anchor="end" fill="#aeb6c0">Rust (default) baseline</text>
<line x1="70" y1="456" x2="812" y2="456" stroke="#3b414b"/>
<text x="441.0" y="478" font-size="11" text-anchor="middle" fill="#8b949e">91 programs (kata × approach) — x-order carries no meaning</text>
<circle cx="99.2" cy="402.1" r="2.6" fill="#3fb950" opacity="0.7"/>
<circle cx="106.7" cy="421.6" r="2.6" fill="#3fb950" opacity="0.7"/>
<circle cx="114.3" cy="425.2" r="2.6" fill="#3fb950" opacity="0.7"/>
<circle cx="121.9" cy="442.8" r="2.6" fill="#3fb950" opacity="0.7"/>
<circle cx="129.5" cy="413.8" r="2.6" fill="#3fb950" opacity="0.7"/>
<circle cx="137.1" cy="411.4" r="2.6" fill="#3fb950" opacity="0.7"/>
<circle cx="144.7" cy="402.3" r="2.6" fill="#3fb950" opacity="0.7"/>
<circle cx="152.3" cy="399.7" r="2.6" fill="#3fb950" opacity="0.7"/>
<circle cx="159.8" cy="397.0" r="2.6" fill="#3fb950" opacity="0.7"/>
<circle cx="167.4" cy="395.5" r="2.6" fill="#3fb950" opacity="0.7"/>
<circle cx="175.0" cy="402.1" r="2.6" fill="#3fb950" opacity="0.7"/>
<circle cx="182.6" cy="409.1" r="2.6" fill="#3fb950" opacity="0.7"/>
<circle cx="190.2" cy="395.6" r="2.6" fill="#3fb950" opacity="0.7"/>
<circle cx="197.8" cy="399.0" r="2.6" fill="#3fb950" opacity="0.7"/>
<circle cx="205.4" cy="413.4" r="2.6" fill="#3fb950" opacity="0.7"/>
<circle cx="212.9" cy="397.3" r="2.6" fill="#3fb950" opacity="0.7"/>
<circle cx="220.5" cy="357.8" r="2.6" fill="#3fb950" opacity="0.7"/>
<circle cx="228.1" cy="415.1" r="2.6" fill="#3fb950" opacity="0.7"/>
<circle cx="235.7" cy="403.5" r="2.6" fill="#3fb950" opacity="0.7"/>
<circle cx="243.3" cy="423.2" r="2.6" fill="#3fb950" opacity="0.7"/>
<circle cx="250.9" cy="406.5" r="2.6" fill="#3fb950" opacity="0.7"/>
<circle cx="258.4" cy="419.9" r="2.6" fill="#3fb950" opacity="0.7"/>
<circle cx="266.0" cy="439.8" r="2.6" fill="#3fb950" opacity="0.7"/>
<circle cx="273.6" cy="424.6" r="2.6" fill="#3fb950" opacity="0.7"/>
<circle cx="281.2" cy="418.3" r="2.6" fill="#3fb950" opacity="0.7"/>
<circle cx="288.8" cy="420.5" r="2.6" fill="#3fb950" opacity="0.7"/>
<circle cx="296.4" cy="400.5" r="2.6" fill="#3fb950" opacity="0.7"/>
<circle cx="304.0" cy="400.0" r="2.6" fill="#3fb950" opacity="0.7"/>
<circle cx="311.5" cy="402.1" r="2.6" fill="#3fb950" opacity="0.7"/>
<circle cx="319.1" cy="414.5" r="2.6" fill="#3fb950" opacity="0.7"/>
<circle cx="326.7" cy="401.5" r="2.6" fill="#3fb950" opacity="0.7"/>
<circle cx="334.3" cy="435.9" r="2.6" fill="#3fb950" opacity="0.7"/>
<circle cx="341.9" cy="402.2" r="2.6" fill="#3fb950" opacity="0.7"/>
<circle cx="349.5" cy="421.6" r="2.6" fill="#3fb950" opacity="0.7"/>
<circle cx="357.1" cy="415.8" r="2.6" fill="#3fb950" opacity="0.7"/>
<circle cx="364.6" cy="417.3" r="2.6" fill="#3fb950" opacity="0.7"/>
<circle cx="372.2" cy="417.7" r="2.6" fill="#3fb950" opacity="0.7"/>
<circle cx="379.8" cy="402.4" r="2.6" fill="#3fb950" opacity="0.7"/>
<circle cx="387.4" cy="382.1" r="2.6" fill="#3fb950" opacity="0.7"/>
<circle cx="395.0" cy="413.8" r="2.6" fill="#3fb950" opacity="0.7"/>
<circle cx="402.6" cy="398.2" r="2.6" fill="#3fb950" opacity="0.7"/>
<circle cx="410.1" cy="401.5" r="2.6" fill="#3fb950" opacity="0.7"/>
<circle cx="417.7" cy="404.4" r="2.6" fill="#3fb950" opacity="0.7"/>
<circle cx="425.3" cy="403.9" r="2.6" fill="#3fb950" opacity="0.7"/>
<circle cx="432.9" cy="431.2" r="2.6" fill="#3fb950" opacity="0.7"/>
<circle cx="440.5" cy="404.3" r="2.6" fill="#3fb950" opacity="0.7"/>
<circle cx="448.1" cy="400.0" r="2.6" fill="#3fb950" opacity="0.7"/>
<circle cx="455.7" cy="398.4" r="2.6" fill="#3fb950" opacity="0.7"/>
<circle cx="463.2" cy="403.7" r="2.6" fill="#3fb950" opacity="0.7"/>
<circle cx="470.8" cy="404.7" r="2.6" fill="#3fb950" opacity="0.7"/>
<circle cx="478.4" cy="435.3" r="2.6" fill="#3fb950" opacity="0.7"/>
<circle cx="486.0" cy="424.2" r="2.6" fill="#3fb950" opacity="0.7"/>
<circle cx="493.6" cy="386.9" r="2.6" fill="#3fb950" opacity="0.7"/>
<circle cx="501.2" cy="402.3" r="2.6" fill="#3fb950" opacity="0.7"/>
<circle cx="508.7" cy="402.1" r="2.6" fill="#3fb950" opacity="0.7"/>
<circle cx="516.3" cy="408.1" r="2.6" fill="#3fb950" opacity="0.7"/>
<circle cx="523.9" cy="400.9" r="2.6" fill="#3fb950" opacity="0.7"/>
<circle cx="531.5" cy="369.7" r="2.6" fill="#3fb950" opacity="0.7"/>
<circle cx="539.1" cy="441.3" r="2.6" fill="#3fb950" opacity="0.7"/>
<circle cx="546.7" cy="409.4" r="2.6" fill="#3fb950" opacity="0.7"/>
<circle cx="554.3" cy="438.7" r="2.6" fill="#3fb950" opacity="0.7"/>
<circle cx="561.8" cy="401.9" r="2.6" fill="#3fb950" opacity="0.7"/>
<circle cx="569.4" cy="424.3" r="2.6" fill="#3fb950" opacity="0.7"/>
<circle cx="577.0" cy="401.6" r="2.6" fill="#3fb950" opacity="0.7"/>
<circle cx="584.6" cy="401.9" r="2.6" fill="#3fb950" opacity="0.7"/>
<circle cx="592.2" cy="402.1" r="2.6" fill="#3fb950" opacity="0.7"/>
<circle cx="599.8" cy="393.0" r="2.6" fill="#3fb950" opacity="0.7"/>
<circle cx="607.4" cy="405.6" r="2.6" fill="#3fb950" opacity="0.7"/>
<circle cx="614.9" cy="401.9" r="2.6" fill="#3fb950" opacity="0.7"/>
<circle cx="622.5" cy="412.7" r="2.6" fill="#3fb950" opacity="0.7"/>
<circle cx="630.1" cy="401.6" r="2.6" fill="#3fb950" opacity="0.7"/>
<circle cx="637.7" cy="450.6" r="2.6" fill="#3fb950" opacity="0.7"/>
<circle cx="645.3" cy="372.4" r="2.6" fill="#3fb950" opacity="0.7"/>
<circle cx="652.9" cy="419.1" r="2.6" fill="#3fb950" opacity="0.7"/>
<circle cx="660.4" cy="395.0" r="2.6" fill="#3fb950" opacity="0.7"/>
<circle cx="668.0" cy="403.0" r="2.6" fill="#3fb950" opacity="0.7"/>
<circle cx="675.6" cy="404.2" r="2.6" fill="#3fb950" opacity="0.7"/>
<circle cx="683.2" cy="425.5" r="2.6" fill="#3fb950" opacity="0.7"/>
<circle cx="690.8" cy="445.3" r="2.6" fill="#3fb950" opacity="0.7"/>
<circle cx="698.4" cy="415.3" r="2.6" fill="#3fb950" opacity="0.7"/>
<circle cx="706.0" cy="410.4" r="2.6" fill="#3fb950" opacity="0.7"/>
<circle cx="713.5" cy="404.0" r="2.6" fill="#3fb950" opacity="0.7"/>
<circle cx="721.1" cy="402.7" r="2.6" fill="#3fb950" opacity="0.7"/>
<circle cx="728.7" cy="412.4" r="2.6" fill="#3fb950" opacity="0.7"/>
<circle cx="736.3" cy="407.1" r="2.6" fill="#3fb950" opacity="0.7"/>
<circle cx="743.9" cy="411.4" r="2.6" fill="#3fb950" opacity="0.7"/>
<circle cx="751.5" cy="452.2" r="2.6" fill="#3fb950" opacity="0.7"/>
<circle cx="759.1" cy="447.1" r="2.6" fill="#3fb950" opacity="0.7"/>
<circle cx="766.6" cy="406.6" r="2.6" fill="#3fb950" opacity="0.7"/>
<circle cx="774.2" cy="391.2" r="2.6" fill="#3fb950" opacity="0.7"/>
<circle cx="781.8" cy="416.2" r="2.6" fill="#3fb950" opacity="0.7"/>
<circle cx="100.2" cy="401.6" r="2.6" fill="#bc8cff" opacity="0.7"/>
<circle cx="107.8" cy="392.0" r="2.6" fill="#bc8cff" opacity="0.7"/>
<circle cx="115.4" cy="428.8" r="2.6" fill="#bc8cff" opacity="0.7"/>
<circle cx="122.9" cy="392.5" r="2.6" fill="#bc8cff" opacity="0.7"/>
<circle cx="130.5" cy="358.8" r="2.6" fill="#bc8cff" opacity="0.7"/>
<circle cx="138.1" cy="391.4" r="2.6" fill="#bc8cff" opacity="0.7"/>
<circle cx="145.7" cy="315.8" r="2.6" fill="#bc8cff" opacity="0.7"/>
<circle cx="153.3" cy="393.4" r="2.6" fill="#bc8cff" opacity="0.7"/>
<circle cx="160.9" cy="385.2" r="2.6" fill="#bc8cff" opacity="0.7"/>
<circle cx="168.5" cy="362.9" r="2.6" fill="#bc8cff" opacity="0.7"/>
<circle cx="176.0" cy="372.1" r="2.6" fill="#bc8cff" opacity="0.7"/>
<circle cx="183.6" cy="423.7" r="2.6" fill="#bc8cff" opacity="0.7"/>
<circle cx="191.2" cy="401.0" r="2.6" fill="#bc8cff" opacity="0.7"/>
<circle cx="198.8" cy="400.3" r="2.6" fill="#bc8cff" opacity="0.7"/>
<circle cx="206.4" cy="412.8" r="2.6" fill="#bc8cff" opacity="0.7"/>
<circle cx="214.0" cy="373.1" r="2.6" fill="#bc8cff" opacity="0.7"/>
<circle cx="221.6" cy="302.1" r="2.6" fill="#bc8cff" opacity="0.7"/>
<circle cx="229.1" cy="419.5" r="2.6" fill="#bc8cff" opacity="0.7"/>
<circle cx="236.7" cy="385.6" r="2.6" fill="#bc8cff" opacity="0.7"/>
<circle cx="244.3" cy="428.9" r="2.6" fill="#bc8cff" opacity="0.7"/>
<circle cx="251.9" cy="395.8" r="2.6" fill="#bc8cff" opacity="0.7"/>
<circle cx="259.5" cy="422.8" r="2.6" fill="#bc8cff" opacity="0.7"/>
<circle cx="267.1" cy="437.9" r="2.6" fill="#bc8cff" opacity="0.7"/>
<circle cx="274.6" cy="429.5" r="2.6" fill="#bc8cff" opacity="0.7"/>
<circle cx="282.2" cy="423.4" r="2.6" fill="#bc8cff" opacity="0.7"/>
<circle cx="289.8" cy="424.6" r="2.6" fill="#bc8cff" opacity="0.7"/>
<circle cx="297.4" cy="394.3" r="2.6" fill="#bc8cff" opacity="0.7"/>
<circle cx="305.0" cy="388.7" r="2.6" fill="#bc8cff" opacity="0.7"/>
<circle cx="312.6" cy="276.0" r="2.6" fill="#bc8cff" opacity="0.7"/>
<circle cx="320.2" cy="378.6" r="2.6" fill="#bc8cff" opacity="0.7"/>
<circle cx="327.7" cy="393.5" r="2.6" fill="#bc8cff" opacity="0.7"/>
<circle cx="335.3" cy="319.9" r="2.6" fill="#bc8cff" opacity="0.7"/>
<circle cx="342.9" cy="396.2" r="2.6" fill="#bc8cff" opacity="0.7"/>
<circle cx="350.5" cy="340.6" r="2.6" fill="#bc8cff" opacity="0.7"/>
<circle cx="358.1" cy="400.8" r="2.6" fill="#bc8cff" opacity="0.7"/>
<circle cx="365.7" cy="416.0" r="2.6" fill="#bc8cff" opacity="0.7"/>
<circle cx="373.3" cy="359.7" r="2.6" fill="#bc8cff" opacity="0.7"/>
<circle cx="380.8" cy="340.0" r="2.6" fill="#bc8cff" opacity="0.7"/>
<circle cx="388.4" cy="371.7" r="2.6" fill="#bc8cff" opacity="0.7"/>
<circle cx="396.0" cy="424.3" r="2.6" fill="#bc8cff" opacity="0.7"/>
<circle cx="403.6" cy="391.5" r="2.6" fill="#bc8cff" opacity="0.7"/>
<circle cx="411.2" cy="394.2" r="2.6" fill="#bc8cff" opacity="0.7"/>
<circle cx="418.8" cy="396.9" r="2.6" fill="#bc8cff" opacity="0.7"/>
<circle cx="426.3" cy="438.7" r="2.6" fill="#bc8cff" opacity="0.7"/>
<circle cx="433.9" cy="393.1" r="2.6" fill="#bc8cff" opacity="0.7"/>
<circle cx="441.5" cy="399.1" r="2.6" fill="#bc8cff" opacity="0.7"/>
<circle cx="449.1" cy="401.0" r="2.6" fill="#bc8cff" opacity="0.7"/>
<circle cx="456.7" cy="382.5" r="2.6" fill="#bc8cff" opacity="0.7"/>
<circle cx="464.3" cy="392.8" r="2.6" fill="#bc8cff" opacity="0.7"/>
<circle cx="471.9" cy="395.2" r="2.6" fill="#bc8cff" opacity="0.7"/>
<circle cx="479.4" cy="314.2" r="2.6" fill="#bc8cff" opacity="0.7"/>
<circle cx="487.0" cy="418.1" r="2.6" fill="#bc8cff" opacity="0.7"/>
<circle cx="494.6" cy="330.6" r="2.6" fill="#bc8cff" opacity="0.7"/>
<circle cx="502.2" cy="334.6" r="2.6" fill="#bc8cff" opacity="0.7"/>
<circle cx="509.8" cy="340.9" r="2.6" fill="#bc8cff" opacity="0.7"/>
<circle cx="517.4" cy="355.5" r="2.6" fill="#bc8cff" opacity="0.7"/>
<circle cx="524.9" cy="415.5" r="2.6" fill="#bc8cff" opacity="0.7"/>
<circle cx="532.5" cy="88.9" r="2.6" fill="#bc8cff" opacity="0.7"/>
<circle cx="540.1" cy="429.1" r="2.6" fill="#bc8cff" opacity="0.7"/>
<circle cx="547.7" cy="381.4" r="2.6" fill="#bc8cff" opacity="0.7"/>
<circle cx="555.3" cy="438.7" r="2.6" fill="#bc8cff" opacity="0.7"/>
<circle cx="562.9" cy="377.1" r="2.6" fill="#bc8cff" opacity="0.7"/>
<circle cx="570.5" cy="432.6" r="2.6" fill="#bc8cff" opacity="0.7"/>
<circle cx="578.0" cy="339.0" r="2.6" fill="#bc8cff" opacity="0.7"/>
<circle cx="585.6" cy="361.5" r="2.6" fill="#bc8cff" opacity="0.7"/>
<circle cx="593.2" cy="405.7" r="2.6" fill="#bc8cff" opacity="0.7"/>
<circle cx="600.8" cy="389.7" r="2.6" fill="#bc8cff" opacity="0.7"/>
<circle cx="608.4" cy="405.6" r="2.6" fill="#bc8cff" opacity="0.7"/>
<circle cx="616.0" cy="400.0" r="2.6" fill="#bc8cff" opacity="0.7"/>
<circle cx="623.6" cy="398.8" r="2.6" fill="#bc8cff" opacity="0.7"/>
<circle cx="631.1" cy="396.6" r="2.6" fill="#bc8cff" opacity="0.7"/>
<circle cx="638.7" cy="433.3" r="2.6" fill="#bc8cff" opacity="0.7"/>
<circle cx="646.3" cy="416.4" r="2.6" fill="#bc8cff" opacity="0.7"/>
<circle cx="653.9" cy="388.8" r="2.6" fill="#bc8cff" opacity="0.7"/>
<circle cx="661.5" cy="386.6" r="2.6" fill="#bc8cff" opacity="0.7"/>
<circle cx="669.1" cy="416.4" r="2.6" fill="#bc8cff" opacity="0.7"/>
<circle cx="676.6" cy="397.7" r="2.6" fill="#bc8cff" opacity="0.7"/>
<circle cx="684.2" cy="408.7" r="2.6" fill="#bc8cff" opacity="0.7"/>
<circle cx="691.8" cy="399.4" r="2.6" fill="#bc8cff" opacity="0.7"/>
<circle cx="699.4" cy="419.2" r="2.6" fill="#bc8cff" opacity="0.7"/>
<circle cx="707.0" cy="362.8" r="2.6" fill="#bc8cff" opacity="0.7"/>
<circle cx="714.6" cy="396.9" r="2.6" fill="#bc8cff" opacity="0.7"/>
<circle cx="722.2" cy="408.9" r="2.6" fill="#bc8cff" opacity="0.7"/>
<circle cx="729.7" cy="400.6" r="2.6" fill="#bc8cff" opacity="0.7"/>
<circle cx="737.3" cy="404.0" r="2.6" fill="#bc8cff" opacity="0.7"/>
<circle cx="744.9" cy="418.5" r="2.6" fill="#bc8cff" opacity="0.7"/>
<circle cx="752.5" cy="444.8" r="2.6" fill="#bc8cff" opacity="0.7"/>
<circle cx="760.1" cy="419.4" r="2.6" fill="#bc8cff" opacity="0.7"/>
<circle cx="767.7" cy="409.4" r="2.6" fill="#bc8cff" opacity="0.7"/>
<circle cx="775.3" cy="258.5" r="2.6" fill="#bc8cff" opacity="0.7"/>
<circle cx="782.8" cy="362.5" r="2.6" fill="#bc8cff" opacity="0.7"/>
<circle cx="98.1" cy="394.1" r="3.2" fill="#ff922b" opacity="0.85"/>
<circle cx="105.7" cy="414.9" r="3.2" fill="#ff922b" opacity="0.85"/>
<circle cx="113.3" cy="426.6" r="3.2" fill="#ff922b" opacity="0.85"/>
<circle cx="120.9" cy="431.8" r="3.2" fill="#ff922b" opacity="0.85"/>
<circle cx="128.5" cy="398.4" r="3.2" fill="#ff922b" opacity="0.85"/>
<circle cx="136.1" cy="381.7" r="3.2" fill="#ff922b" opacity="0.85"/>
<circle cx="143.6" cy="399.1" r="3.2" fill="#ff922b" opacity="0.85"/>
<circle cx="151.2" cy="391.9" r="3.2" fill="#ff922b" opacity="0.85"/>
<circle cx="158.8" cy="380.1" r="3.2" fill="#ff922b" opacity="0.85"/>
<circle cx="166.4" cy="377.3" r="3.2" fill="#ff922b" opacity="0.85"/>
<circle cx="174.0" cy="396.9" r="3.2" fill="#ff922b" opacity="0.85"/>
<circle cx="181.6" cy="394.4" r="3.2" fill="#ff922b" opacity="0.85"/>
<circle cx="189.2" cy="404.1" r="3.2" fill="#ff922b" opacity="0.85"/>
<circle cx="196.7" cy="404.0" r="3.2" fill="#ff922b" opacity="0.85"/>
<circle cx="204.3" cy="395.7" r="3.2" fill="#ff922b" opacity="0.85"/>
<circle cx="211.9" cy="401.0" r="3.2" fill="#ff922b" opacity="0.85"/>
<circle cx="219.5" cy="395.5" r="3.2" fill="#ff922b" opacity="0.85"/>
<circle cx="227.1" cy="391.0" r="3.2" fill="#ff922b" opacity="0.85"/>
<circle cx="234.7" cy="399.4" r="3.2" fill="#ff922b" opacity="0.85"/>
<circle cx="242.2" cy="414.3" r="3.2" fill="#ff922b" opacity="0.85"/>
<circle cx="249.8" cy="410.0" r="3.2" fill="#ff922b" opacity="0.85"/>
<circle cx="257.4" cy="405.1" r="3.2" fill="#ff922b" opacity="0.85"/>
<circle cx="265.0" cy="437.8" r="3.2" fill="#ff922b" opacity="0.85"/>
<circle cx="272.6" cy="409.2" r="3.2" fill="#ff922b" opacity="0.85"/>
<circle cx="280.2" cy="409.6" r="3.2" fill="#ff922b" opacity="0.85"/>
<circle cx="287.8" cy="405.6" r="3.2" fill="#ff922b" opacity="0.85"/>
<circle cx="295.3" cy="396.3" r="3.2" fill="#ff922b" opacity="0.85"/>
<circle cx="302.9" cy="398.6" r="3.2" fill="#ff922b" opacity="0.85"/>
<circle cx="310.5" cy="402.5" r="3.2" fill="#ff922b" opacity="0.85"/>
<circle cx="318.1" cy="402.1" r="3.2" fill="#ff922b" opacity="0.85"/>
<circle cx="325.7" cy="400.7" r="3.2" fill="#ff922b" opacity="0.85"/>
<circle cx="333.3" cy="363.0" r="3.2" fill="#ff922b" opacity="0.85"/>
<circle cx="340.9" cy="401.0" r="3.2" fill="#ff922b" opacity="0.85"/>
<circle cx="348.4" cy="400.3" r="3.2" fill="#ff922b" opacity="0.85"/>
<circle cx="356.0" cy="397.1" r="3.2" fill="#ff922b" opacity="0.85"/>
<circle cx="363.6" cy="396.1" r="3.2" fill="#ff922b" opacity="0.85"/>
<circle cx="371.2" cy="395.6" r="3.2" fill="#ff922b" opacity="0.85"/>
<circle cx="378.8" cy="426.2" r="3.2" fill="#ff922b" opacity="0.85"/>
<circle cx="386.4" cy="403.8" r="3.2" fill="#ff922b" opacity="0.85"/>
<circle cx="393.9" cy="389.3" r="3.2" fill="#ff922b" opacity="0.85"/>
<circle cx="401.5" cy="377.0" r="3.2" fill="#ff922b" opacity="0.85"/>
<circle cx="409.1" cy="379.7" r="3.2" fill="#ff922b" opacity="0.85"/>
<circle cx="416.7" cy="404.6" r="3.2" fill="#ff922b" opacity="0.85"/>
<circle cx="424.3" cy="437.7" r="3.2" fill="#ff922b" opacity="0.85"/>
<circle cx="431.9" cy="382.6" r="3.2" fill="#ff922b" opacity="0.85"/>
<circle cx="439.5" cy="394.7" r="3.2" fill="#ff922b" opacity="0.85"/>
<circle cx="447.0" cy="399.6" r="3.2" fill="#ff922b" opacity="0.85"/>
<circle cx="454.6" cy="385.6" r="3.2" fill="#ff922b" opacity="0.85"/>
<circle cx="462.2" cy="402.9" r="3.2" fill="#ff922b" opacity="0.85"/>
<circle cx="469.8" cy="396.3" r="3.2" fill="#ff922b" opacity="0.85"/>
<circle cx="477.4" cy="366.6" r="3.2" fill="#ff922b" opacity="0.85"/>
<circle cx="485.0" cy="403.7" r="3.2" fill="#ff922b" opacity="0.85"/>
<circle cx="492.5" cy="350.9" r="3.2" fill="#ff922b" opacity="0.85"/>
<circle cx="500.1" cy="344.5" r="3.2" fill="#ff922b" opacity="0.85"/>
<circle cx="507.7" cy="402.3" r="3.2" fill="#ff922b" opacity="0.85"/>
<circle cx="515.3" cy="391.9" r="3.2" fill="#ff922b" opacity="0.85"/>
<circle cx="522.9" cy="401.2" r="3.2" fill="#ff922b" opacity="0.85"/>
<circle cx="530.5" cy="397.4" r="3.2" fill="#ff922b" opacity="0.85"/>
<circle cx="538.1" cy="405.2" r="3.2" fill="#ff922b" opacity="0.85"/>
<circle cx="545.6" cy="377.3" r="3.2" fill="#ff922b" opacity="0.85"/>
<circle cx="553.2" cy="433.2" r="3.2" fill="#ff922b" opacity="0.85"/>
<circle cx="560.8" cy="400.3" r="3.2" fill="#ff922b" opacity="0.85"/>
<circle cx="568.4" cy="416.3" r="3.2" fill="#ff922b" opacity="0.85"/>
<circle cx="576.0" cy="401.1" r="3.2" fill="#ff922b" opacity="0.85"/>
<circle cx="583.6" cy="396.3" r="3.2" fill="#ff922b" opacity="0.85"/>
<circle cx="591.2" cy="408.2" r="3.2" fill="#ff922b" opacity="0.85"/>
<circle cx="598.7" cy="400.8" r="3.2" fill="#ff922b" opacity="0.85"/>
<circle cx="606.3" cy="405.5" r="3.2" fill="#ff922b" opacity="0.85"/>
<circle cx="613.9" cy="401.5" r="3.2" fill="#ff922b" opacity="0.85"/>
<circle cx="621.5" cy="380.1" r="3.2" fill="#ff922b" opacity="0.85"/>
<circle cx="629.1" cy="413.0" r="3.2" fill="#ff922b" opacity="0.85"/>
<circle cx="636.7" cy="397.9" r="3.2" fill="#ff922b" opacity="0.85"/>
<circle cx="644.2" cy="412.9" r="3.2" fill="#ff922b" opacity="0.85"/>
<circle cx="651.8" cy="411.0" r="3.2" fill="#ff922b" opacity="0.85"/>
<circle cx="659.4" cy="398.1" r="3.2" fill="#ff922b" opacity="0.85"/>
<circle cx="667.0" cy="398.2" r="3.2" fill="#ff922b" opacity="0.85"/>
<circle cx="674.6" cy="399.7" r="3.2" fill="#ff922b" opacity="0.85"/>
<circle cx="682.2" cy="397.4" r="3.2" fill="#ff922b" opacity="0.85"/>
<circle cx="689.8" cy="449.9" r="3.2" fill="#ff922b" opacity="0.85"/>
<circle cx="697.3" cy="414.9" r="3.2" fill="#ff922b" opacity="0.85"/>
<circle cx="704.9" cy="407.0" r="3.2" fill="#ff922b" opacity="0.85"/>
<circle cx="712.5" cy="366.5" r="3.2" fill="#ff922b" opacity="0.85"/>
<circle cx="720.1" cy="399.1" r="3.2" fill="#ff922b" opacity="0.85"/>
<circle cx="727.7" cy="403.6" r="3.2" fill="#ff922b" opacity="0.85"/>
<circle cx="735.3" cy="408.3" r="3.2" fill="#ff922b" opacity="0.85"/>
<circle cx="742.8" cy="401.9" r="3.2" fill="#ff922b" opacity="0.85"/>
<circle cx="750.4" cy="386.1" r="3.2" fill="#ff922b" opacity="0.85"/>
<circle cx="758.0" cy="387.7" r="3.2" fill="#ff922b" opacity="0.85"/>
<circle cx="765.6" cy="401.6" r="3.2" fill="#ff922b" opacity="0.85"/>
<circle cx="773.2" cy="303.3" r="3.2" fill="#ff922b" opacity="0.85"/>
<circle cx="780.8" cy="365.5" r="3.2" fill="#ff922b" opacity="0.85"/>
<circle cx="124.0" cy="399.5" r="2.6" fill="none" stroke="#d4a017" stroke-width="1.8" opacity="0.7999999999999999"/>
<circle cx="131.6" cy="401.6" r="2.6" fill="none" stroke="#d4a017" stroke-width="1.8" opacity="0.7999999999999999"/>
<circle cx="154.3" cy="399.6" r="2.6" fill="none" stroke="#d4a017" stroke-width="1.8" opacity="0.7999999999999999"/>
<circle cx="161.9" cy="390.0" r="2.6" fill="none" stroke="#d4a017" stroke-width="1.8" opacity="0.7999999999999999"/>
<circle cx="169.5" cy="383.3" r="2.6" fill="none" stroke="#d4a017" stroke-width="1.8" opacity="0.7999999999999999"/>
<circle cx="184.7" cy="394.8" r="2.6" fill="none" stroke="#d4a017" stroke-width="1.8" opacity="0.7999999999999999"/>
<circle cx="222.6" cy="394.1" r="2.6" fill="none" stroke="#d4a017" stroke-width="1.8" opacity="0.7999999999999999"/>
<circle cx="298.4" cy="403.1" r="2.6" fill="none" stroke="#d4a017" stroke-width="1.8" opacity="0.7999999999999999"/>
<circle cx="343.9" cy="401.0" r="2.6" fill="none" stroke="#d4a017" stroke-width="1.8" opacity="0.7999999999999999"/>
<circle cx="435.0" cy="394.2" r="2.6" fill="none" stroke="#d4a017" stroke-width="1.8" opacity="0.7999999999999999"/>
<circle cx="677.7" cy="400.4" r="2.6" fill="none" stroke="#d4a017" stroke-width="1.8" opacity="0.7999999999999999"/>
<circle cx="715.6" cy="365.4" r="2.6" fill="none" stroke="#d4a017" stroke-width="1.8" opacity="0.7999999999999999"/>
<circle cx="723.2" cy="399.3" r="2.6" fill="none" stroke="#d4a017" stroke-width="1.8" opacity="0.7999999999999999"/>
<circle cx="776.3" cy="402.2" r="2.6" fill="none" stroke="#d4a017" stroke-width="1.8" opacity="0.7999999999999999"/>
<circle cx="847" cy="84" r="5" fill="#ff922b"/>
<text x="866" y="88" font-size="13" fill="#c9d1d9" font-weight="700">Kāra</text>
<line x1="836" y1="108" x2="858" y2="108" stroke="#a7b0bc" stroke-width="2" stroke-dasharray="5 4"/>
<text x="866" y="112" font-size="13" fill="#c9d1d9" font-weight="400">Rust (default) = 1.0×</text>
<circle cx="847" cy="132" r="4" fill="#3fb950"/>
<text x="866" y="136" font-size="13" fill="#c9d1d9" font-weight="400">C</text>
<circle cx="847" cy="156" r="4" fill="#bc8cff"/>
<text x="866" y="160" font-size="13" fill="#c9d1d9" font-weight="400">Go</text>
<circle cx="847" cy="180" r="4" fill="none" stroke="#d4a017" stroke-width="1.8"/>
<text x="866" y="184" font-size="12" fill="#c9d1d9" font-weight="400">Rust (checked)</text>
<text x="70" y="502" font-size="11.5" fill="#c9d1d9">Solid Rust = 1.0× is the release default — it wraps silently on overflow. Hollow rings ◌ are Rust built overflow-checked,</text>
<text x="70" y="518" font-size="11.5" fill="#c9d1d9">the same safety kāra enforces by default: median 1.05× the cost of plain Rust across the 14 overflow-exercising programs. At that matched safety kāra is ≈ 1.04× — compare kāra to the rings.</text>
<text x="70" y="538" font-size="11.5" fill="#8b949e">Each dot is one benchmarked program (kata × approach); there is no connecting line because left-to-right order is not meaningful. Raw numbers: bench-results.json</text>
</svg>