<svg xmlns="http://www.w3.org/2000/svg" width="980" height="560" viewBox="0 0 980 560" font-family="-apple-system,Segoe UI,Helvetica,Arial,sans-serif">
<rect width="980" height="560" fill="#282c34"/>
<text x="70" y="34" font-size="21" font-weight="700" fill="#c9d1d9">Runtime — sequential lane</text>
<text x="70" y="56" font-size="13" fill="#8b949e">relative to Rust (default) = 1.0 · lower = faster · 95 programs</text>
<line x1="70" y1="456.0" x2="812" y2="456.0" stroke="#3b414b" stroke-width="1"/>
<text x="60" y="460.0" font-size="12" text-anchor="end" fill="#8b949e">0.0×</text>
<line x1="70" y1="402.0" x2="812" y2="402.0" stroke="#a7b0bc" stroke-width="2" stroke-dasharray="5 4"/>
<text x="60" y="406.0" font-size="12" text-anchor="end" fill="#aeb6c0" font-weight="700">1.0×</text>
<line x1="70" y1="380.4" x2="812" y2="380.4" stroke="#3b414b" stroke-width="1"/>
<text x="60" y="384.4" font-size="12" text-anchor="end" fill="#8b949e">1.4×</text>
<line x1="70" y1="304.8" x2="812" y2="304.8" stroke="#3b414b" stroke-width="1"/>
<text x="60" y="308.8" font-size="12" text-anchor="end" fill="#8b949e">2.8×</text>
<line x1="70" y1="229.2" x2="812" y2="229.2" stroke="#3b414b" stroke-width="1"/>
<text x="60" y="233.2" font-size="12" text-anchor="end" fill="#8b949e">4.2×</text>
<line x1="70" y1="153.6" x2="812" y2="153.6" stroke="#3b414b" stroke-width="1"/>
<text x="60" y="157.6" font-size="12" text-anchor="end" fill="#8b949e">5.6×</text>
<line x1="70" y1="78.0" x2="812" y2="78.0" stroke="#3b414b" stroke-width="1"/>
<text x="60" y="82.0" font-size="12" text-anchor="end" fill="#8b949e">7.0×</text>
<text x="812" y="396.0" font-size="11" text-anchor="end" fill="#aeb6c0">Rust (default) baseline</text>
<line x1="70" y1="456" x2="812" y2="456" stroke="#3b414b"/>
<text x="441.0" y="478" font-size="11" text-anchor="middle" fill="#8b949e">95 programs (kata × approach) — x-order carries no meaning</text>
<circle cx="99.2" cy="402.1" r="2.6" fill="#3fb950" opacity="0.7"/>
<circle cx="106.4" cy="421.6" r="2.6" fill="#3fb950" opacity="0.7"/>
<circle cx="113.7" cy="425.2" r="2.6" fill="#3fb950" opacity="0.7"/>
<circle cx="121.0" cy="442.8" r="2.6" fill="#3fb950" opacity="0.7"/>
<circle cx="128.2" cy="413.8" r="2.6" fill="#3fb950" opacity="0.7"/>
<circle cx="135.5" cy="411.4" r="2.6" fill="#3fb950" opacity="0.7"/>
<circle cx="142.8" cy="402.3" r="2.6" fill="#3fb950" opacity="0.7"/>
<circle cx="150.0" cy="399.7" r="2.6" fill="#3fb950" opacity="0.7"/>
<circle cx="157.3" cy="397.0" r="2.6" fill="#3fb950" opacity="0.7"/>
<circle cx="164.5" cy="395.5" r="2.6" fill="#3fb950" opacity="0.7"/>
<circle cx="171.8" cy="402.1" r="2.6" fill="#3fb950" opacity="0.7"/>
<circle cx="179.1" cy="409.1" r="2.6" fill="#3fb950" opacity="0.7"/>
<circle cx="186.3" cy="395.6" r="2.6" fill="#3fb950" opacity="0.7"/>
<circle cx="193.6" cy="399.0" r="2.6" fill="#3fb950" opacity="0.7"/>
<circle cx="200.9" cy="413.4" r="2.6" fill="#3fb950" opacity="0.7"/>
<circle cx="208.1" cy="397.3" r="2.6" fill="#3fb950" opacity="0.7"/>
<circle cx="215.4" cy="357.8" r="2.6" fill="#3fb950" opacity="0.7"/>
<circle cx="222.6" cy="415.1" r="2.6" fill="#3fb950" opacity="0.7"/>
<circle cx="229.9" cy="403.5" r="2.6" fill="#3fb950" opacity="0.7"/>
<circle cx="237.2" cy="423.2" r="2.6" fill="#3fb950" opacity="0.7"/>
<circle cx="244.4" cy="406.5" r="2.6" fill="#3fb950" opacity="0.7"/>
<circle cx="251.7" cy="419.9" r="2.6" fill="#3fb950" opacity="0.7"/>
<circle cx="259.0" cy="439.8" r="2.6" fill="#3fb950" opacity="0.7"/>
<circle cx="266.2" cy="424.6" r="2.6" fill="#3fb950" opacity="0.7"/>
<circle cx="273.5" cy="418.3" r="2.6" fill="#3fb950" opacity="0.7"/>
<circle cx="280.7" cy="420.5" r="2.6" fill="#3fb950" opacity="0.7"/>
<circle cx="288.0" cy="400.5" r="2.6" fill="#3fb950" opacity="0.7"/>
<circle cx="295.3" cy="400.0" r="2.6" fill="#3fb950" opacity="0.7"/>
<circle cx="302.5" cy="402.1" r="2.6" fill="#3fb950" opacity="0.7"/>
<circle cx="309.8" cy="414.5" r="2.6" fill="#3fb950" opacity="0.7"/>
<circle cx="317.1" cy="401.5" r="2.6" fill="#3fb950" opacity="0.7"/>
<circle cx="324.3" cy="435.9" r="2.6" fill="#3fb950" opacity="0.7"/>
<circle cx="331.6" cy="402.2" r="2.6" fill="#3fb950" opacity="0.7"/>
<circle cx="338.8" cy="421.6" r="2.6" fill="#3fb950" opacity="0.7"/>
<circle cx="346.1" cy="415.8" r="2.6" fill="#3fb950" opacity="0.7"/>
<circle cx="353.4" cy="417.3" r="2.6" fill="#3fb950" opacity="0.7"/>
<circle cx="360.6" cy="417.7" r="2.6" fill="#3fb950" opacity="0.7"/>
<circle cx="367.9" cy="402.4" r="2.6" fill="#3fb950" opacity="0.7"/>
<circle cx="375.1" cy="382.1" r="2.6" fill="#3fb950" opacity="0.7"/>
<circle cx="382.4" cy="413.8" r="2.6" fill="#3fb950" opacity="0.7"/>
<circle cx="389.7" cy="398.2" r="2.6" fill="#3fb950" opacity="0.7"/>
<circle cx="396.9" cy="401.5" r="2.6" fill="#3fb950" opacity="0.7"/>
<circle cx="404.2" cy="404.4" r="2.6" fill="#3fb950" opacity="0.7"/>
<circle cx="411.5" cy="403.9" r="2.6" fill="#3fb950" opacity="0.7"/>
<circle cx="418.7" cy="431.2" r="2.6" fill="#3fb950" opacity="0.7"/>
<circle cx="426.0" cy="404.3" r="2.6" fill="#3fb950" opacity="0.7"/>
<circle cx="433.2" cy="400.0" r="2.6" fill="#3fb950" opacity="0.7"/>
<circle cx="440.5" cy="398.4" r="2.6" fill="#3fb950" opacity="0.7"/>
<circle cx="447.8" cy="403.7" r="2.6" fill="#3fb950" opacity="0.7"/>
<circle cx="455.0" cy="404.7" r="2.6" fill="#3fb950" opacity="0.7"/>
<circle cx="462.3" cy="435.3" r="2.6" fill="#3fb950" opacity="0.7"/>
<circle cx="469.6" cy="424.2" r="2.6" fill="#3fb950" opacity="0.7"/>
<circle cx="476.8" cy="386.9" r="2.6" fill="#3fb950" opacity="0.7"/>
<circle cx="484.1" cy="402.3" r="2.6" fill="#3fb950" opacity="0.7"/>
<circle cx="491.3" cy="402.1" r="2.6" fill="#3fb950" opacity="0.7"/>
<circle cx="498.6" cy="408.1" r="2.6" fill="#3fb950" opacity="0.7"/>
<circle cx="505.9" cy="400.9" r="2.6" fill="#3fb950" opacity="0.7"/>
<circle cx="513.1" cy="369.7" r="2.6" fill="#3fb950" opacity="0.7"/>
<circle cx="520.4" cy="441.3" r="2.6" fill="#3fb950" opacity="0.7"/>
<circle cx="527.7" cy="409.4" r="2.6" fill="#3fb950" opacity="0.7"/>
<circle cx="534.9" cy="438.7" r="2.6" fill="#3fb950" opacity="0.7"/>
<circle cx="542.2" cy="401.9" r="2.6" fill="#3fb950" opacity="0.7"/>
<circle cx="549.4" cy="424.3" r="2.6" fill="#3fb950" opacity="0.7"/>
<circle cx="556.7" cy="401.6" r="2.6" fill="#3fb950" opacity="0.7"/>
<circle cx="564.0" cy="401.9" r="2.6" fill="#3fb950" opacity="0.7"/>
<circle cx="571.2" cy="402.1" r="2.6" fill="#3fb950" opacity="0.7"/>
<circle cx="578.5" cy="393.0" r="2.6" fill="#3fb950" opacity="0.7"/>
<circle cx="585.7" cy="405.6" r="2.6" fill="#3fb950" opacity="0.7"/>
<circle cx="593.0" cy="401.9" r="2.6" fill="#3fb950" opacity="0.7"/>
<circle cx="600.3" cy="412.7" r="2.6" fill="#3fb950" opacity="0.7"/>
<circle cx="607.5" cy="401.6" r="2.6" fill="#3fb950" opacity="0.7"/>
<circle cx="614.8" cy="450.6" r="2.6" fill="#3fb950" opacity="0.7"/>
<circle cx="622.1" cy="372.4" r="2.6" fill="#3fb950" opacity="0.7"/>
<circle cx="629.3" cy="391.1" r="2.6" fill="#3fb950" opacity="0.7"/>
<circle cx="636.6" cy="401.7" r="2.6" fill="#3fb950" opacity="0.7"/>
<circle cx="643.8" cy="407.8" r="2.6" fill="#3fb950" opacity="0.7"/>
<circle cx="651.1" cy="402.6" r="2.6" fill="#3fb950" opacity="0.7"/>
<circle cx="658.4" cy="419.1" r="2.6" fill="#3fb950" opacity="0.7"/>
<circle cx="665.6" cy="395.0" r="2.6" fill="#3fb950" opacity="0.7"/>
<circle cx="672.9" cy="403.0" r="2.6" fill="#3fb950" opacity="0.7"/>
<circle cx="680.2" cy="404.2" r="2.6" fill="#3fb950" opacity="0.7"/>
<circle cx="687.4" cy="425.5" r="2.6" fill="#3fb950" opacity="0.7"/>
<circle cx="694.7" cy="445.3" r="2.6" fill="#3fb950" opacity="0.7"/>
<circle cx="701.9" cy="415.3" r="2.6" fill="#3fb950" opacity="0.7"/>
<circle cx="709.2" cy="410.4" r="2.6" fill="#3fb950" opacity="0.7"/>
<circle cx="716.5" cy="404.0" r="2.6" fill="#3fb950" opacity="0.7"/>
<circle cx="723.7" cy="402.7" r="2.6" fill="#3fb950" opacity="0.7"/>
<circle cx="731.0" cy="412.4" r="2.6" fill="#3fb950" opacity="0.7"/>
<circle cx="738.3" cy="407.1" r="2.6" fill="#3fb950" opacity="0.7"/>
<circle cx="745.5" cy="411.4" r="2.6" fill="#3fb950" opacity="0.7"/>
<circle cx="752.8" cy="452.2" r="2.6" fill="#3fb950" opacity="0.7"/>
<circle cx="760.0" cy="447.1" r="2.6" fill="#3fb950" opacity="0.7"/>
<circle cx="767.3" cy="406.6" r="2.6" fill="#3fb950" opacity="0.7"/>
<circle cx="774.6" cy="391.2" r="2.6" fill="#3fb950" opacity="0.7"/>
<circle cx="781.8" cy="416.2" r="2.6" fill="#3fb950" opacity="0.7"/>
<circle cx="100.2" cy="401.6" r="2.6" fill="#bc8cff" opacity="0.7"/>
<circle cx="107.4" cy="392.0" r="2.6" fill="#bc8cff" opacity="0.7"/>
<circle cx="114.7" cy="428.8" r="2.6" fill="#bc8cff" opacity="0.7"/>
<circle cx="122.0" cy="392.5" r="2.6" fill="#bc8cff" opacity="0.7"/>
<circle cx="129.2" cy="358.8" r="2.6" fill="#bc8cff" opacity="0.7"/>
<circle cx="136.5" cy="391.4" r="2.6" fill="#bc8cff" opacity="0.7"/>
<circle cx="143.7" cy="315.8" r="2.6" fill="#bc8cff" opacity="0.7"/>
<circle cx="151.0" cy="393.4" r="2.6" fill="#bc8cff" opacity="0.7"/>
<circle cx="158.3" cy="385.2" r="2.6" fill="#bc8cff" opacity="0.7"/>
<circle cx="165.5" cy="362.9" r="2.6" fill="#bc8cff" opacity="0.7"/>
<circle cx="172.8" cy="372.1" r="2.6" fill="#bc8cff" opacity="0.7"/>
<circle cx="180.1" cy="423.7" r="2.6" fill="#bc8cff" opacity="0.7"/>
<circle cx="187.3" cy="401.0" r="2.6" fill="#bc8cff" opacity="0.7"/>
<circle cx="194.6" cy="400.3" r="2.6" fill="#bc8cff" opacity="0.7"/>
<circle cx="201.8" cy="412.8" r="2.6" fill="#bc8cff" opacity="0.7"/>
<circle cx="209.1" cy="373.1" r="2.6" fill="#bc8cff" opacity="0.7"/>
<circle cx="216.4" cy="302.1" r="2.6" fill="#bc8cff" opacity="0.7"/>
<circle cx="223.6" cy="419.5" r="2.6" fill="#bc8cff" opacity="0.7"/>
<circle cx="230.9" cy="385.6" r="2.6" fill="#bc8cff" opacity="0.7"/>
<circle cx="238.2" cy="428.9" r="2.6" fill="#bc8cff" opacity="0.7"/>
<circle cx="245.4" cy="395.8" r="2.6" fill="#bc8cff" opacity="0.7"/>
<circle cx="252.7" cy="422.8" r="2.6" fill="#bc8cff" opacity="0.7"/>
<circle cx="259.9" cy="437.9" r="2.6" fill="#bc8cff" opacity="0.7"/>
<circle cx="267.2" cy="429.5" r="2.6" fill="#bc8cff" opacity="0.7"/>
<circle cx="274.5" cy="423.4" r="2.6" fill="#bc8cff" opacity="0.7"/>
<circle cx="281.7" cy="424.6" r="2.6" fill="#bc8cff" opacity="0.7"/>
<circle cx="289.0" cy="394.3" r="2.6" fill="#bc8cff" opacity="0.7"/>
<circle cx="296.3" cy="388.7" r="2.6" fill="#bc8cff" opacity="0.7"/>
<circle cx="303.5" cy="276.0" r="2.6" fill="#bc8cff" opacity="0.7"/>
<circle cx="310.8" cy="378.6" r="2.6" fill="#bc8cff" opacity="0.7"/>
<circle cx="318.0" cy="393.5" r="2.6" fill="#bc8cff" opacity="0.7"/>
<circle cx="325.3" cy="319.9" r="2.6" fill="#bc8cff" opacity="0.7"/>
<circle cx="332.6" cy="396.2" r="2.6" fill="#bc8cff" opacity="0.7"/>
<circle cx="339.8" cy="340.6" r="2.6" fill="#bc8cff" opacity="0.7"/>
<circle cx="347.1" cy="400.8" r="2.6" fill="#bc8cff" opacity="0.7"/>
<circle cx="354.3" cy="416.0" r="2.6" fill="#bc8cff" opacity="0.7"/>
<circle cx="361.6" cy="359.7" r="2.6" fill="#bc8cff" opacity="0.7"/>
<circle cx="368.9" cy="340.0" r="2.6" fill="#bc8cff" opacity="0.7"/>
<circle cx="376.1" cy="371.7" r="2.6" fill="#bc8cff" opacity="0.7"/>
<circle cx="383.4" cy="424.3" r="2.6" fill="#bc8cff" opacity="0.7"/>
<circle cx="390.7" cy="391.5" r="2.6" fill="#bc8cff" opacity="0.7"/>
<circle cx="397.9" cy="394.2" r="2.6" fill="#bc8cff" opacity="0.7"/>
<circle cx="405.2" cy="396.9" r="2.6" fill="#bc8cff" opacity="0.7"/>
<circle cx="412.4" cy="438.7" r="2.6" fill="#bc8cff" opacity="0.7"/>
<circle cx="419.7" cy="393.1" r="2.6" fill="#bc8cff" opacity="0.7"/>
<circle cx="427.0" cy="399.1" r="2.6" fill="#bc8cff" opacity="0.7"/>
<circle cx="434.2" cy="401.0" r="2.6" fill="#bc8cff" opacity="0.7"/>
<circle cx="441.5" cy="382.5" r="2.6" fill="#bc8cff" opacity="0.7"/>
<circle cx="448.8" cy="392.8" r="2.6" fill="#bc8cff" opacity="0.7"/>
<circle cx="456.0" cy="395.2" r="2.6" fill="#bc8cff" opacity="0.7"/>
<circle cx="463.3" cy="314.2" r="2.6" fill="#bc8cff" opacity="0.7"/>
<circle cx="470.5" cy="418.1" r="2.6" fill="#bc8cff" opacity="0.7"/>
<circle cx="477.8" cy="330.6" r="2.6" fill="#bc8cff" opacity="0.7"/>
<circle cx="485.1" cy="334.6" r="2.6" fill="#bc8cff" opacity="0.7"/>
<circle cx="492.3" cy="340.9" r="2.6" fill="#bc8cff" opacity="0.7"/>
<circle cx="499.6" cy="355.5" r="2.6" fill="#bc8cff" opacity="0.7"/>
<circle cx="506.9" cy="415.5" r="2.6" fill="#bc8cff" opacity="0.7"/>
<circle cx="514.1" cy="88.9" r="2.6" fill="#bc8cff" opacity="0.7"/>
<circle cx="521.4" cy="429.1" r="2.6" fill="#bc8cff" opacity="0.7"/>
<circle cx="528.6" cy="381.4" r="2.6" fill="#bc8cff" opacity="0.7"/>
<circle cx="535.9" cy="438.7" r="2.6" fill="#bc8cff" opacity="0.7"/>
<circle cx="543.2" cy="377.1" r="2.6" fill="#bc8cff" opacity="0.7"/>
<circle cx="550.4" cy="432.6" r="2.6" fill="#bc8cff" opacity="0.7"/>
<circle cx="557.7" cy="339.0" r="2.6" fill="#bc8cff" opacity="0.7"/>
<circle cx="564.9" cy="361.5" r="2.6" fill="#bc8cff" opacity="0.7"/>
<circle cx="572.2" cy="405.7" r="2.6" fill="#bc8cff" opacity="0.7"/>
<circle cx="579.5" cy="389.7" r="2.6" fill="#bc8cff" opacity="0.7"/>
<circle cx="586.7" cy="405.6" r="2.6" fill="#bc8cff" opacity="0.7"/>
<circle cx="594.0" cy="400.0" r="2.6" fill="#bc8cff" opacity="0.7"/>
<circle cx="601.3" cy="398.8" r="2.6" fill="#bc8cff" opacity="0.7"/>
<circle cx="608.5" cy="396.6" r="2.6" fill="#bc8cff" opacity="0.7"/>
<circle cx="615.8" cy="433.3" r="2.6" fill="#bc8cff" opacity="0.7"/>
<circle cx="623.0" cy="416.4" r="2.6" fill="#bc8cff" opacity="0.7"/>
<circle cx="630.3" cy="409.0" r="2.6" fill="#bc8cff" opacity="0.7"/>
<circle cx="637.6" cy="408.0" r="2.6" fill="#bc8cff" opacity="0.7"/>
<circle cx="644.8" cy="371.1" r="2.6" fill="#bc8cff" opacity="0.7"/>
<circle cx="652.1" cy="405.9" r="2.6" fill="#bc8cff" opacity="0.7"/>
<circle cx="659.4" cy="388.8" r="2.6" fill="#bc8cff" opacity="0.7"/>
<circle cx="666.6" cy="386.6" r="2.6" fill="#bc8cff" opacity="0.7"/>
<circle cx="673.9" cy="416.4" r="2.6" fill="#bc8cff" opacity="0.7"/>
<circle cx="681.1" cy="397.7" r="2.6" fill="#bc8cff" opacity="0.7"/>
<circle cx="688.4" cy="408.7" r="2.6" fill="#bc8cff" opacity="0.7"/>
<circle cx="695.7" cy="399.4" r="2.6" fill="#bc8cff" opacity="0.7"/>
<circle cx="702.9" cy="419.2" r="2.6" fill="#bc8cff" opacity="0.7"/>
<circle cx="710.2" cy="362.8" r="2.6" fill="#bc8cff" opacity="0.7"/>
<circle cx="717.5" cy="396.9" r="2.6" fill="#bc8cff" opacity="0.7"/>
<circle cx="724.7" cy="408.9" r="2.6" fill="#bc8cff" opacity="0.7"/>
<circle cx="732.0" cy="400.6" r="2.6" fill="#bc8cff" opacity="0.7"/>
<circle cx="739.2" cy="404.0" r="2.6" fill="#bc8cff" opacity="0.7"/>
<circle cx="746.5" cy="418.5" r="2.6" fill="#bc8cff" opacity="0.7"/>
<circle cx="753.8" cy="444.8" r="2.6" fill="#bc8cff" opacity="0.7"/>
<circle cx="761.0" cy="419.4" r="2.6" fill="#bc8cff" opacity="0.7"/>
<circle cx="768.3" cy="409.4" r="2.6" fill="#bc8cff" opacity="0.7"/>
<circle cx="775.6" cy="258.5" r="2.6" fill="#bc8cff" opacity="0.7"/>
<circle cx="782.8" cy="362.5" r="2.6" fill="#bc8cff" opacity="0.7"/>
<circle cx="98.2" cy="394.1" r="3.2" fill="#ff922b" opacity="0.85"/>
<circle cx="105.5" cy="414.9" r="3.2" fill="#ff922b" opacity="0.85"/>
<circle cx="112.7" cy="426.6" r="3.2" fill="#ff922b" opacity="0.85"/>
<circle cx="120.0" cy="431.8" r="3.2" fill="#ff922b" opacity="0.85"/>
<circle cx="127.2" cy="398.4" r="3.2" fill="#ff922b" opacity="0.85"/>
<circle cx="134.5" cy="381.7" r="3.2" fill="#ff922b" opacity="0.85"/>
<circle cx="141.8" cy="399.1" r="3.2" fill="#ff922b" opacity="0.85"/>
<circle cx="149.0" cy="391.9" r="3.2" fill="#ff922b" opacity="0.85"/>
<circle cx="156.3" cy="380.1" r="3.2" fill="#ff922b" opacity="0.85"/>
<circle cx="163.6" cy="377.3" r="3.2" fill="#ff922b" opacity="0.85"/>
<circle cx="170.8" cy="396.9" r="3.2" fill="#ff922b" opacity="0.85"/>
<circle cx="178.1" cy="394.4" r="3.2" fill="#ff922b" opacity="0.85"/>
<circle cx="185.3" cy="404.1" r="3.2" fill="#ff922b" opacity="0.85"/>
<circle cx="192.6" cy="404.0" r="3.2" fill="#ff922b" opacity="0.85"/>
<circle cx="199.9" cy="395.7" r="3.2" fill="#ff922b" opacity="0.85"/>
<circle cx="207.1" cy="401.0" r="3.2" fill="#ff922b" opacity="0.85"/>
<circle cx="214.4" cy="395.5" r="3.2" fill="#ff922b" opacity="0.85"/>
<circle cx="221.7" cy="391.0" r="3.2" fill="#ff922b" opacity="0.85"/>
<circle cx="228.9" cy="399.4" r="3.2" fill="#ff922b" opacity="0.85"/>
<circle cx="236.2" cy="414.3" r="3.2" fill="#ff922b" opacity="0.85"/>
<circle cx="243.4" cy="410.0" r="3.2" fill="#ff922b" opacity="0.85"/>
<circle cx="250.7" cy="405.1" r="3.2" fill="#ff922b" opacity="0.85"/>
<circle cx="258.0" cy="437.8" r="3.2" fill="#ff922b" opacity="0.85"/>
<circle cx="265.2" cy="409.2" r="3.2" fill="#ff922b" opacity="0.85"/>
<circle cx="272.5" cy="409.6" r="3.2" fill="#ff922b" opacity="0.85"/>
<circle cx="279.8" cy="405.6" r="3.2" fill="#ff922b" opacity="0.85"/>
<circle cx="287.0" cy="396.3" r="3.2" fill="#ff922b" opacity="0.85"/>
<circle cx="294.3" cy="398.6" r="3.2" fill="#ff922b" opacity="0.85"/>
<circle cx="301.5" cy="402.5" r="3.2" fill="#ff922b" opacity="0.85"/>
<circle cx="308.8" cy="402.1" r="3.2" fill="#ff922b" opacity="0.85"/>
<circle cx="316.1" cy="400.7" r="3.2" fill="#ff922b" opacity="0.85"/>
<circle cx="323.3" cy="363.0" r="3.2" fill="#ff922b" opacity="0.85"/>
<circle cx="330.6" cy="401.0" r="3.2" fill="#ff922b" opacity="0.85"/>
<circle cx="337.9" cy="400.3" r="3.2" fill="#ff922b" opacity="0.85"/>
<circle cx="345.1" cy="397.1" r="3.2" fill="#ff922b" opacity="0.85"/>
<circle cx="352.4" cy="396.1" r="3.2" fill="#ff922b" opacity="0.85"/>
<circle cx="359.6" cy="395.6" r="3.2" fill="#ff922b" opacity="0.85"/>
<circle cx="366.9" cy="426.2" r="3.2" fill="#ff922b" opacity="0.85"/>
<circle cx="374.2" cy="403.8" r="3.2" fill="#ff922b" opacity="0.85"/>
<circle cx="381.4" cy="389.3" r="3.2" fill="#ff922b" opacity="0.85"/>
<circle cx="388.7" cy="377.0" r="3.2" fill="#ff922b" opacity="0.85"/>
<circle cx="395.9" cy="379.7" r="3.2" fill="#ff922b" opacity="0.85"/>
<circle cx="403.2" cy="404.6" r="3.2" fill="#ff922b" opacity="0.85"/>
<circle cx="410.5" cy="437.7" r="3.2" fill="#ff922b" opacity="0.85"/>
<circle cx="417.7" cy="382.6" r="3.2" fill="#ff922b" opacity="0.85"/>
<circle cx="425.0" cy="394.7" r="3.2" fill="#ff922b" opacity="0.85"/>
<circle cx="432.3" cy="399.6" r="3.2" fill="#ff922b" opacity="0.85"/>
<circle cx="439.5" cy="385.6" r="3.2" fill="#ff922b" opacity="0.85"/>
<circle cx="446.8" cy="402.9" r="3.2" fill="#ff922b" opacity="0.85"/>
<circle cx="454.0" cy="396.3" r="3.2" fill="#ff922b" opacity="0.85"/>
<circle cx="461.3" cy="366.6" r="3.2" fill="#ff922b" opacity="0.85"/>
<circle cx="468.6" cy="403.7" r="3.2" fill="#ff922b" opacity="0.85"/>
<circle cx="475.8" cy="350.9" r="3.2" fill="#ff922b" opacity="0.85"/>
<circle cx="483.1" cy="344.5" r="3.2" fill="#ff922b" opacity="0.85"/>
<circle cx="490.4" cy="402.3" r="3.2" fill="#ff922b" opacity="0.85"/>
<circle cx="497.6" cy="391.9" r="3.2" fill="#ff922b" opacity="0.85"/>
<circle cx="504.9" cy="401.2" r="3.2" fill="#ff922b" opacity="0.85"/>
<circle cx="512.1" cy="397.4" r="3.2" fill="#ff922b" opacity="0.85"/>
<circle cx="519.4" cy="405.2" r="3.2" fill="#ff922b" opacity="0.85"/>
<circle cx="526.7" cy="377.3" r="3.2" fill="#ff922b" opacity="0.85"/>
<circle cx="533.9" cy="433.2" r="3.2" fill="#ff922b" opacity="0.85"/>
<circle cx="541.2" cy="400.3" r="3.2" fill="#ff922b" opacity="0.85"/>
<circle cx="548.5" cy="416.3" r="3.2" fill="#ff922b" opacity="0.85"/>
<circle cx="555.7" cy="401.1" r="3.2" fill="#ff922b" opacity="0.85"/>
<circle cx="563.0" cy="396.3" r="3.2" fill="#ff922b" opacity="0.85"/>
<circle cx="570.2" cy="408.2" r="3.2" fill="#ff922b" opacity="0.85"/>
<circle cx="577.5" cy="400.8" r="3.2" fill="#ff922b" opacity="0.85"/>
<circle cx="584.8" cy="405.5" r="3.2" fill="#ff922b" opacity="0.85"/>
<circle cx="592.0" cy="401.5" r="3.2" fill="#ff922b" opacity="0.85"/>
<circle cx="599.3" cy="380.1" r="3.2" fill="#ff922b" opacity="0.85"/>
<circle cx="606.5" cy="413.0" r="3.2" fill="#ff922b" opacity="0.85"/>
<circle cx="613.8" cy="397.9" r="3.2" fill="#ff922b" opacity="0.85"/>
<circle cx="621.1" cy="412.9" r="3.2" fill="#ff922b" opacity="0.85"/>
<circle cx="628.3" cy="427.1" r="3.2" fill="#ff922b" opacity="0.85"/>
<circle cx="635.6" cy="405.3" r="3.2" fill="#ff922b" opacity="0.85"/>
<circle cx="642.9" cy="407.7" r="3.2" fill="#ff922b" opacity="0.85"/>
<circle cx="650.1" cy="389.7" r="3.2" fill="#ff922b" opacity="0.85"/>
<circle cx="657.4" cy="411.0" r="3.2" fill="#ff922b" opacity="0.85"/>
<circle cx="664.6" cy="398.1" r="3.2" fill="#ff922b" opacity="0.85"/>
<circle cx="671.9" cy="398.2" r="3.2" fill="#ff922b" opacity="0.85"/>
<circle cx="679.2" cy="399.7" r="3.2" fill="#ff922b" opacity="0.85"/>
<circle cx="686.4" cy="397.4" r="3.2" fill="#ff922b" opacity="0.85"/>
<circle cx="693.7" cy="449.9" r="3.2" fill="#ff922b" opacity="0.85"/>
<circle cx="701.0" cy="414.9" r="3.2" fill="#ff922b" opacity="0.85"/>
<circle cx="708.2" cy="407.0" r="3.2" fill="#ff922b" opacity="0.85"/>
<circle cx="715.5" cy="366.5" r="3.2" fill="#ff922b" opacity="0.85"/>
<circle cx="722.7" cy="399.1" r="3.2" fill="#ff922b" opacity="0.85"/>
<circle cx="730.0" cy="403.6" r="3.2" fill="#ff922b" opacity="0.85"/>
<circle cx="737.3" cy="408.3" r="3.2" fill="#ff922b" opacity="0.85"/>
<circle cx="744.5" cy="401.9" r="3.2" fill="#ff922b" opacity="0.85"/>
<circle cx="751.8" cy="386.1" r="3.2" fill="#ff922b" opacity="0.85"/>
<circle cx="759.1" cy="387.7" r="3.2" fill="#ff922b" opacity="0.85"/>
<circle cx="766.3" cy="401.6" r="3.2" fill="#ff922b" opacity="0.85"/>
<circle cx="773.6" cy="303.3" r="3.2" fill="#ff922b" opacity="0.85"/>
<circle cx="780.8" cy="365.5" r="3.2" fill="#ff922b" opacity="0.85"/>
<circle cx="122.9" cy="399.5" r="2.6" fill="none" stroke="#d4a017" stroke-width="1.8" opacity="0.7999999999999999"/>
<circle cx="130.2" cy="401.6" r="2.6" fill="none" stroke="#d4a017" stroke-width="1.8" opacity="0.7999999999999999"/>
<circle cx="152.0" cy="399.6" r="2.6" fill="none" stroke="#d4a017" stroke-width="1.8" opacity="0.7999999999999999"/>
<circle cx="159.3" cy="390.0" r="2.6" fill="none" stroke="#d4a017" stroke-width="1.8" opacity="0.7999999999999999"/>
<circle cx="166.5" cy="383.3" r="2.6" fill="none" stroke="#d4a017" stroke-width="1.8" opacity="0.7999999999999999"/>
<circle cx="181.0" cy="394.8" r="2.6" fill="none" stroke="#d4a017" stroke-width="1.8" opacity="0.7999999999999999"/>
<circle cx="217.4" cy="394.1" r="2.6" fill="none" stroke="#d4a017" stroke-width="1.8" opacity="0.7999999999999999"/>
<circle cx="290.0" cy="403.1" r="2.6" fill="none" stroke="#d4a017" stroke-width="1.8" opacity="0.7999999999999999"/>
<circle cx="333.5" cy="401.0" r="2.6" fill="none" stroke="#d4a017" stroke-width="1.8" opacity="0.7999999999999999"/>
<circle cx="420.7" cy="394.2" r="2.6" fill="none" stroke="#d4a017" stroke-width="1.8" opacity="0.7999999999999999"/>
<circle cx="682.1" cy="400.4" r="2.6" fill="none" stroke="#d4a017" stroke-width="1.8" opacity="0.7999999999999999"/>
<circle cx="718.4" cy="365.4" r="2.6" fill="none" stroke="#d4a017" stroke-width="1.8" opacity="0.7999999999999999"/>
<circle cx="725.7" cy="399.3" r="2.6" fill="none" stroke="#d4a017" stroke-width="1.8" opacity="0.7999999999999999"/>
<circle cx="776.5" cy="402.2" r="2.6" fill="none" stroke="#d4a017" stroke-width="1.8" opacity="0.7999999999999999"/>
<circle cx="847" cy="84" r="5" fill="#ff922b"/>
<text x="866" y="88" font-size="13" fill="#c9d1d9" font-weight="700">Kāra</text>
<line x1="836" y1="108" x2="858" y2="108" stroke="#a7b0bc" stroke-width="2" stroke-dasharray="5 4"/>
<text x="866" y="112" font-size="13" fill="#c9d1d9" font-weight="400">Rust (default) = 1.0×</text>
<circle cx="847" cy="132" r="4" fill="#3fb950"/>
<text x="866" y="136" font-size="13" fill="#c9d1d9" font-weight="400">C</text>
<circle cx="847" cy="156" r="4" fill="#bc8cff"/>
<text x="866" y="160" font-size="13" fill="#c9d1d9" font-weight="400">Go</text>
<circle cx="847" cy="180" r="4" fill="none" stroke="#d4a017" stroke-width="1.8"/>
<text x="866" y="184" font-size="12" fill="#c9d1d9" font-weight="400">Rust (checked)</text>
<text x="70" y="502" font-size="11.5" fill="#c9d1d9">Solid Rust = 1.0× is the release default — it wraps silently on overflow. Hollow rings ◌ are Rust built overflow-checked,</text>
<text x="70" y="518" font-size="11.5" fill="#c9d1d9">the same safety kāra enforces by default: median 1.05× the cost of plain Rust across the 14 overflow-exercising programs. At that matched safety kāra is ≈ 1.04× — compare kāra to the rings.</text>
<text x="70" y="538" font-size="11.5" fill="#8b949e">Each dot is one benchmarked program (kata × approach); there is no connecting line because left-to-right order is not meaningful. Raw numbers: bench-results.json</text>
</svg>