<svg xmlns="http://www.w3.org/2000/svg" width="980" height="560" viewBox="0 0 980 560" font-family="-apple-system,Segoe UI,Helvetica,Arial,sans-serif">
<rect width="980" height="560" fill="#282c34"/>
<text x="70" y="34" font-size="21" font-weight="700" fill="#c9d1d9">Runtime — sequential lane</text>
<text x="70" y="56" font-size="13" fill="#8b949e">relative to Rust = 1.0 · lower = faster · 12 programs</text>
<line x1="70" y1="456.0" x2="812" y2="456.0" stroke="#3b414b" stroke-width="1"/>
<text x="60" y="460.0" font-size="12" text-anchor="end" fill="#8b949e">0.0×</text>
<line x1="70" y1="330.0" x2="812" y2="330.0" stroke="#6e7681" stroke-width="1.4" stroke-dasharray="5 4"/>
<text x="60" y="334.0" font-size="12" text-anchor="end" fill="#aeb6c0" font-weight="700">1.0×</text>
<line x1="70" y1="204.0" x2="812" y2="204.0" stroke="#3b414b" stroke-width="1"/>
<text x="60" y="208.0" font-size="12" text-anchor="end" fill="#8b949e">2.0×</text>
<line x1="70" y1="78.0" x2="812" y2="78.0" stroke="#3b414b" stroke-width="1"/>
<text x="60" y="82.0" font-size="12" text-anchor="end" fill="#8b949e">3.0×</text>
<text x="812" y="324.0" font-size="11" text-anchor="end" fill="#aeb6c0">Rust baseline</text>
<line x1="99.7" y1="456" x2="99.7" y2="461" stroke="#3b414b"/>
<g transform="translate(99.7,474) rotate(35)">
<text x="0" y="0" font-size="10.5" fill="#8b949e">#1</text>
<text x="0" y="12" font-size="10.5" fill="#8b949e">brute_force</text>
</g>
<line x1="161.7" y1="456" x2="161.7" y2="461" stroke="#3b414b"/>
<g transform="translate(161.7,474) rotate(35)">
<text x="0" y="0" font-size="10.5" fill="#8b949e">#1</text>
<text x="0" y="12" font-size="10.5" fill="#8b949e">hash_map</text>
</g>
<line x1="223.8" y1="456" x2="223.8" y2="461" stroke="#3b414b"/>
<g transform="translate(223.8,474) rotate(35)">
<text x="0" y="0" font-size="10.5" fill="#8b949e">#2</text>
<text x="0" y="12" font-size="10.5" fill="#8b949e">iterative</text>
</g>
<line x1="285.9" y1="456" x2="285.9" y2="461" stroke="#3b414b"/>
<g transform="translate(285.9,474) rotate(35)">
<text x="0" y="0" font-size="10.5" fill="#8b949e">#3</text>
<text x="0" y="12" font-size="10.5" fill="#8b949e">sliding_window</text>
</g>
<line x1="347.9" y1="456" x2="347.9" y2="461" stroke="#3b414b"/>
<g transform="translate(347.9,474) rotate(35)">
<text x="0" y="0" font-size="10.5" fill="#8b949e">#4</text>
<text x="0" y="12" font-size="10.5" fill="#8b949e">binary_search…</text>
</g>
<line x1="410.0" y1="456" x2="410.0" y2="461" stroke="#3b414b"/>
<g transform="translate(410.0,474) rotate(35)">
<text x="0" y="0" font-size="10.5" fill="#8b949e">#5</text>
<text x="0" y="12" font-size="10.5" fill="#8b949e">expand_around…</text>
</g>
<line x1="472.0" y1="456" x2="472.0" y2="461" stroke="#3b414b"/>
<g transform="translate(472.0,474) rotate(35)">
<text x="0" y="0" font-size="10.5" fill="#8b949e">#6</text>
<text x="0" y="12" font-size="10.5" fill="#8b949e">row_buffers</text>
</g>
<line x1="534.1" y1="456" x2="534.1" y2="461" stroke="#3b414b"/>
<g transform="translate(534.1,474) rotate(35)">
<text x="0" y="0" font-size="10.5" fill="#8b949e">#7</text>
<text x="0" y="12" font-size="10.5" fill="#8b949e">reverse</text>
</g>
<line x1="596.1" y1="456" x2="596.1" y2="461" stroke="#3b414b"/>
<g transform="translate(596.1,474) rotate(35)">
<text x="0" y="0" font-size="10.5" fill="#8b949e">#8</text>
<text x="0" y="12" font-size="10.5" fill="#8b949e">atoi</text>
</g>
<line x1="658.2" y1="456" x2="658.2" y2="461" stroke="#3b414b"/>
<g transform="translate(658.2,474) rotate(35)">
<text x="0" y="0" font-size="10.5" fill="#8b949e">#9</text>
<text x="0" y="12" font-size="10.5" fill="#8b949e">palindrome</text>
</g>
<line x1="720.3" y1="456" x2="720.3" y2="461" stroke="#3b414b"/>
<g transform="translate(720.3,474) rotate(35)">
<text x="0" y="0" font-size="10.5" fill="#8b949e">#10</text>
<text x="0" y="12" font-size="10.5" fill="#8b949e">regex</text>
</g>
<line x1="782.3" y1="456" x2="782.3" y2="461" stroke="#3b414b"/>
<g transform="translate(782.3,474) rotate(35)">
<text x="0" y="0" font-size="10.5" fill="#8b949e">#204</text>
<text x="0" y="12" font-size="10.5" fill="#8b949e">count</text>
</g>
<circle cx="99.7" cy="338.9" r="4.0" fill="#3fb950" opacity="0.95"/>
<circle cx="161.7" cy="382.0" r="4.0" fill="#3fb950" opacity="0.95"/>
<circle cx="223.8" cy="392.3" r="4.0" fill="#3fb950" opacity="0.95"/>
<circle cx="285.9" cy="427.5" r="4.0" fill="#3fb950" opacity="0.95"/>
<circle cx="347.9" cy="355.8" r="4.0" fill="#3fb950" opacity="0.95"/>
<circle cx="410.0" cy="350.6" r="4.0" fill="#3fb950" opacity="0.95"/>
<circle cx="472.0" cy="330.0" r="4.0" fill="#3fb950" opacity="0.95"/>
<circle cx="534.1" cy="326.8" r="4.0" fill="#3fb950" opacity="0.95"/>
<circle cx="596.1" cy="320.4" r="4.0" fill="#3fb950" opacity="0.95"/>
<circle cx="658.2" cy="313.0" r="4.0" fill="#3fb950" opacity="0.95"/>
<circle cx="720.3" cy="329.9" r="4.0" fill="#3fb950" opacity="0.95"/>
<circle cx="782.3" cy="331.7" r="4.0" fill="#3fb950" opacity="0.95"/>
<circle cx="103.5" cy="335.1" r="4.0" fill="#bc8cff" opacity="0.95"/>
<circle cx="165.6" cy="299.2" r="4.0" fill="#bc8cff" opacity="0.95"/>
<circle cx="227.6" cy="388.4" r="4.0" fill="#bc8cff" opacity="0.95"/>
<circle cx="289.7" cy="305.0" r="4.0" fill="#bc8cff" opacity="0.95"/>
<circle cx="351.7" cy="227.8" r="4.0" fill="#bc8cff" opacity="0.95"/>
<circle cx="413.8" cy="303.0" r="4.0" fill="#bc8cff" opacity="0.95"/>
<circle cx="475.9" cy="141.0" r="4.0" fill="#bc8cff" opacity="0.95"/>
<circle cx="537.9" cy="311.3" r="4.0" fill="#bc8cff" opacity="0.95"/>
<circle cx="600.0" cy="295.1" r="4.0" fill="#bc8cff" opacity="0.95"/>
<circle cx="662.0" cy="236.5" r="4.0" fill="#bc8cff" opacity="0.95"/>
<circle cx="724.1" cy="268.1" r="4.0" fill="#bc8cff" opacity="0.95"/>
<circle cx="786.2" cy="346.7" r="4.0" fill="#bc8cff" opacity="0.95"/>
<circle cx="95.8" cy="339.9" r="5.0" fill="#ff922b" opacity="1.0"/>
<circle cx="157.9" cy="359.5" r="5.0" fill="#ff922b" opacity="1.0"/>
<circle cx="220.0" cy="375.0" r="5.0" fill="#ff922b" opacity="1.0"/>
<circle cx="282.0" cy="405.9" r="5.0" fill="#ff922b" opacity="1.0"/>
<circle cx="344.1" cy="330.9" r="5.0" fill="#ff922b" opacity="1.0"/>
<circle cx="406.1" cy="321.7" r="5.0" fill="#ff922b" opacity="1.0"/>
<circle cx="468.2" cy="322.8" r="5.0" fill="#ff922b" opacity="1.0"/>
<circle cx="530.3" cy="329.9" r="5.0" fill="#ff922b" opacity="1.0"/>
<circle cx="592.3" cy="335.0" r="5.0" fill="#ff922b" opacity="1.0"/>
<circle cx="654.4" cy="309.5" r="5.0" fill="#ff922b" opacity="1.0"/>
<circle cx="716.4" cy="332.9" r="5.0" fill="#ff922b" opacity="1.0"/>
<circle cx="778.5" cy="288.1" r="5.0" fill="#ff922b" opacity="1.0"/>
<circle cx="847" cy="84" r="5" fill="#ff922b"/>
<text x="866" y="88" font-size="13" fill="#c9d1d9" font-weight="700">Kāra</text>
<line x1="836" y1="108" x2="858" y2="108" stroke="#6e7681" stroke-width="1.6" stroke-dasharray="5 4"/>
<text x="866" y="112" font-size="13" fill="#c9d1d9" font-weight="400">Rust</text>
<circle cx="847" cy="132" r="4" fill="#3fb950"/>
<text x="866" y="136" font-size="13" fill="#c9d1d9" font-weight="400">C</text>
<circle cx="847" cy="156" r="4" fill="#bc8cff"/>
<text x="866" y="160" font-size="13" fill="#c9d1d9" font-weight="400">Go</text>
<text x="70" y="538" font-size="11.5" fill="#8b949e">Each dot is one benchmarked program (kata × approach); there is no connecting line because left-to-right order is not meaningful. Raw numbers: bench-results.json</text>
</svg>