<svg xmlns="http://www.w3.org/2000/svg" width="980" height="560" viewBox="0 0 980 560" font-family="-apple-system,Segoe UI,Helvetica,Arial,sans-serif">
<rect width="980" height="560" fill="#282c34"/>
<text x="70" y="34" font-size="21" font-weight="700" fill="#c9d1d9">Runtime — sequential lane</text>
<text x="70" y="56" font-size="13" fill="#8b949e">relative to Rust (default) = 1.0 · lower = faster · 96 programs</text>
<line x1="70" y1="456.0" x2="812" y2="456.0" stroke="#3b414b" stroke-width="1"/>
<text x="60" y="460.0" font-size="12" text-anchor="end" fill="#8b949e">0.0×</text>
<line x1="70" y1="402.0" x2="812" y2="402.0" stroke="#a7b0bc" stroke-width="2" stroke-dasharray="5 4"/>
<text x="60" y="406.0" font-size="12" text-anchor="end" fill="#aeb6c0" font-weight="700">1.0×</text>
<line x1="70" y1="380.4" x2="812" y2="380.4" stroke="#3b414b" stroke-width="1"/>
<text x="60" y="384.4" font-size="12" text-anchor="end" fill="#8b949e">1.4×</text>
<line x1="70" y1="304.8" x2="812" y2="304.8" stroke="#3b414b" stroke-width="1"/>
<text x="60" y="308.8" font-size="12" text-anchor="end" fill="#8b949e">2.8×</text>
<line x1="70" y1="229.2" x2="812" y2="229.2" stroke="#3b414b" stroke-width="1"/>
<text x="60" y="233.2" font-size="12" text-anchor="end" fill="#8b949e">4.2×</text>
<line x1="70" y1="153.6" x2="812" y2="153.6" stroke="#3b414b" stroke-width="1"/>
<text x="60" y="157.6" font-size="12" text-anchor="end" fill="#8b949e">5.6×</text>
<line x1="70" y1="78.0" x2="812" y2="78.0" stroke="#3b414b" stroke-width="1"/>
<text x="60" y="82.0" font-size="12" text-anchor="end" fill="#8b949e">7.0×</text>
<text x="812" y="396.0" font-size="11" text-anchor="end" fill="#aeb6c0">Rust (default) baseline</text>
<line x1="70" y1="456" x2="812" y2="456" stroke="#3b414b"/>
<text x="441.0" y="478" font-size="11" text-anchor="middle" fill="#8b949e">96 programs (kata × approach) — x-order carries no meaning</text>
<circle cx="99.2" cy="402.1" r="2.6" fill="#3fb950" opacity="0.7"/>
<circle cx="106.4" cy="421.6" r="2.6" fill="#3fb950" opacity="0.7"/>
<circle cx="113.6" cy="425.2" r="2.6" fill="#3fb950" opacity="0.7"/>
<circle cx="120.7" cy="442.8" r="2.6" fill="#3fb950" opacity="0.7"/>
<circle cx="127.9" cy="413.8" r="2.6" fill="#3fb950" opacity="0.7"/>
<circle cx="135.1" cy="411.4" r="2.6" fill="#3fb950" opacity="0.7"/>
<circle cx="142.3" cy="402.3" r="2.6" fill="#3fb950" opacity="0.7"/>
<circle cx="149.5" cy="399.7" r="2.6" fill="#3fb950" opacity="0.7"/>
<circle cx="156.7" cy="397.0" r="2.6" fill="#3fb950" opacity="0.7"/>
<circle cx="163.9" cy="395.5" r="2.6" fill="#3fb950" opacity="0.7"/>
<circle cx="171.0" cy="402.1" r="2.6" fill="#3fb950" opacity="0.7"/>
<circle cx="178.2" cy="409.1" r="2.6" fill="#3fb950" opacity="0.7"/>
<circle cx="185.4" cy="395.6" r="2.6" fill="#3fb950" opacity="0.7"/>
<circle cx="192.6" cy="399.0" r="2.6" fill="#3fb950" opacity="0.7"/>
<circle cx="199.8" cy="413.4" r="2.6" fill="#3fb950" opacity="0.7"/>
<circle cx="207.0" cy="397.3" r="2.6" fill="#3fb950" opacity="0.7"/>
<circle cx="214.2" cy="357.8" r="2.6" fill="#3fb950" opacity="0.7"/>
<circle cx="221.3" cy="415.1" r="2.6" fill="#3fb950" opacity="0.7"/>
<circle cx="228.5" cy="403.5" r="2.6" fill="#3fb950" opacity="0.7"/>
<circle cx="235.7" cy="423.2" r="2.6" fill="#3fb950" opacity="0.7"/>
<circle cx="242.9" cy="406.5" r="2.6" fill="#3fb950" opacity="0.7"/>
<circle cx="250.1" cy="419.9" r="2.6" fill="#3fb950" opacity="0.7"/>
<circle cx="257.3" cy="439.8" r="2.6" fill="#3fb950" opacity="0.7"/>
<circle cx="264.5" cy="424.6" r="2.6" fill="#3fb950" opacity="0.7"/>
<circle cx="271.6" cy="418.3" r="2.6" fill="#3fb950" opacity="0.7"/>
<circle cx="278.8" cy="420.5" r="2.6" fill="#3fb950" opacity="0.7"/>
<circle cx="286.0" cy="400.5" r="2.6" fill="#3fb950" opacity="0.7"/>
<circle cx="293.2" cy="400.0" r="2.6" fill="#3fb950" opacity="0.7"/>
<circle cx="300.4" cy="402.1" r="2.6" fill="#3fb950" opacity="0.7"/>
<circle cx="307.6" cy="414.5" r="2.6" fill="#3fb950" opacity="0.7"/>
<circle cx="314.8" cy="401.5" r="2.6" fill="#3fb950" opacity="0.7"/>
<circle cx="321.9" cy="435.9" r="2.6" fill="#3fb950" opacity="0.7"/>
<circle cx="329.1" cy="402.2" r="2.6" fill="#3fb950" opacity="0.7"/>
<circle cx="336.3" cy="421.6" r="2.6" fill="#3fb950" opacity="0.7"/>
<circle cx="343.5" cy="415.8" r="2.6" fill="#3fb950" opacity="0.7"/>
<circle cx="350.7" cy="417.3" r="2.6" fill="#3fb950" opacity="0.7"/>
<circle cx="357.9" cy="417.7" r="2.6" fill="#3fb950" opacity="0.7"/>
<circle cx="365.1" cy="402.4" r="2.6" fill="#3fb950" opacity="0.7"/>
<circle cx="372.2" cy="382.1" r="2.6" fill="#3fb950" opacity="0.7"/>
<circle cx="379.4" cy="413.8" r="2.6" fill="#3fb950" opacity="0.7"/>
<circle cx="386.6" cy="398.2" r="2.6" fill="#3fb950" opacity="0.7"/>
<circle cx="393.8" cy="401.5" r="2.6" fill="#3fb950" opacity="0.7"/>
<circle cx="401.0" cy="404.4" r="2.6" fill="#3fb950" opacity="0.7"/>
<circle cx="408.2" cy="403.9" r="2.6" fill="#3fb950" opacity="0.7"/>
<circle cx="415.4" cy="431.2" r="2.6" fill="#3fb950" opacity="0.7"/>
<circle cx="422.5" cy="404.3" r="2.6" fill="#3fb950" opacity="0.7"/>
<circle cx="429.7" cy="400.0" r="2.6" fill="#3fb950" opacity="0.7"/>
<circle cx="436.9" cy="398.4" r="2.6" fill="#3fb950" opacity="0.7"/>
<circle cx="444.1" cy="403.7" r="2.6" fill="#3fb950" opacity="0.7"/>
<circle cx="451.3" cy="404.7" r="2.6" fill="#3fb950" opacity="0.7"/>
<circle cx="458.5" cy="435.3" r="2.6" fill="#3fb950" opacity="0.7"/>
<circle cx="465.7" cy="424.2" r="2.6" fill="#3fb950" opacity="0.7"/>
<circle cx="472.8" cy="386.9" r="2.6" fill="#3fb950" opacity="0.7"/>
<circle cx="480.0" cy="402.3" r="2.6" fill="#3fb950" opacity="0.7"/>
<circle cx="487.2" cy="402.1" r="2.6" fill="#3fb950" opacity="0.7"/>
<circle cx="494.4" cy="408.1" r="2.6" fill="#3fb950" opacity="0.7"/>
<circle cx="501.6" cy="400.9" r="2.6" fill="#3fb950" opacity="0.7"/>
<circle cx="508.8" cy="369.7" r="2.6" fill="#3fb950" opacity="0.7"/>
<circle cx="516.0" cy="441.3" r="2.6" fill="#3fb950" opacity="0.7"/>
<circle cx="523.1" cy="409.4" r="2.6" fill="#3fb950" opacity="0.7"/>
<circle cx="530.3" cy="438.7" r="2.6" fill="#3fb950" opacity="0.7"/>
<circle cx="537.5" cy="401.9" r="2.6" fill="#3fb950" opacity="0.7"/>
<circle cx="544.7" cy="424.3" r="2.6" fill="#3fb950" opacity="0.7"/>
<circle cx="551.9" cy="401.6" r="2.6" fill="#3fb950" opacity="0.7"/>
<circle cx="559.1" cy="401.9" r="2.6" fill="#3fb950" opacity="0.7"/>
<circle cx="566.3" cy="402.1" r="2.6" fill="#3fb950" opacity="0.7"/>
<circle cx="573.4" cy="393.0" r="2.6" fill="#3fb950" opacity="0.7"/>
<circle cx="580.6" cy="405.6" r="2.6" fill="#3fb950" opacity="0.7"/>
<circle cx="587.8" cy="401.9" r="2.6" fill="#3fb950" opacity="0.7"/>
<circle cx="595.0" cy="412.7" r="2.6" fill="#3fb950" opacity="0.7"/>
<circle cx="602.2" cy="401.6" r="2.6" fill="#3fb950" opacity="0.7"/>
<circle cx="609.4" cy="450.6" r="2.6" fill="#3fb950" opacity="0.7"/>
<circle cx="616.6" cy="372.4" r="2.6" fill="#3fb950" opacity="0.7"/>
<circle cx="623.7" cy="391.1" r="2.6" fill="#3fb950" opacity="0.7"/>
<circle cx="630.9" cy="401.7" r="2.6" fill="#3fb950" opacity="0.7"/>
<circle cx="638.1" cy="407.8" r="2.6" fill="#3fb950" opacity="0.7"/>
<circle cx="645.3" cy="402.6" r="2.6" fill="#3fb950" opacity="0.7"/>
<circle cx="652.5" cy="403.6" r="2.6" fill="#3fb950" opacity="0.7"/>
<circle cx="659.7" cy="419.1" r="2.6" fill="#3fb950" opacity="0.7"/>
<circle cx="666.9" cy="395.0" r="2.6" fill="#3fb950" opacity="0.7"/>
<circle cx="674.0" cy="403.0" r="2.6" fill="#3fb950" opacity="0.7"/>
<circle cx="681.2" cy="404.2" r="2.6" fill="#3fb950" opacity="0.7"/>
<circle cx="688.4" cy="425.5" r="2.6" fill="#3fb950" opacity="0.7"/>
<circle cx="695.6" cy="445.3" r="2.6" fill="#3fb950" opacity="0.7"/>
<circle cx="702.8" cy="415.3" r="2.6" fill="#3fb950" opacity="0.7"/>
<circle cx="710.0" cy="410.4" r="2.6" fill="#3fb950" opacity="0.7"/>
<circle cx="717.2" cy="404.0" r="2.6" fill="#3fb950" opacity="0.7"/>
<circle cx="724.3" cy="402.7" r="2.6" fill="#3fb950" opacity="0.7"/>
<circle cx="731.5" cy="412.4" r="2.6" fill="#3fb950" opacity="0.7"/>
<circle cx="738.7" cy="407.1" r="2.6" fill="#3fb950" opacity="0.7"/>
<circle cx="745.9" cy="411.4" r="2.6" fill="#3fb950" opacity="0.7"/>
<circle cx="753.1" cy="452.2" r="2.6" fill="#3fb950" opacity="0.7"/>
<circle cx="760.3" cy="447.1" r="2.6" fill="#3fb950" opacity="0.7"/>
<circle cx="767.5" cy="406.6" r="2.6" fill="#3fb950" opacity="0.7"/>
<circle cx="774.6" cy="391.2" r="2.6" fill="#3fb950" opacity="0.7"/>
<circle cx="781.8" cy="416.2" r="2.6" fill="#3fb950" opacity="0.7"/>
<circle cx="100.2" cy="401.6" r="2.6" fill="#bc8cff" opacity="0.7"/>
<circle cx="107.4" cy="392.0" r="2.6" fill="#bc8cff" opacity="0.7"/>
<circle cx="114.5" cy="428.8" r="2.6" fill="#bc8cff" opacity="0.7"/>
<circle cx="121.7" cy="392.5" r="2.6" fill="#bc8cff" opacity="0.7"/>
<circle cx="128.9" cy="358.8" r="2.6" fill="#bc8cff" opacity="0.7"/>
<circle cx="136.1" cy="391.4" r="2.6" fill="#bc8cff" opacity="0.7"/>
<circle cx="143.3" cy="315.8" r="2.6" fill="#bc8cff" opacity="0.7"/>
<circle cx="150.5" cy="393.4" r="2.6" fill="#bc8cff" opacity="0.7"/>
<circle cx="157.7" cy="385.2" r="2.6" fill="#bc8cff" opacity="0.7"/>
<circle cx="164.8" cy="362.9" r="2.6" fill="#bc8cff" opacity="0.7"/>
<circle cx="172.0" cy="372.1" r="2.6" fill="#bc8cff" opacity="0.7"/>
<circle cx="179.2" cy="423.7" r="2.6" fill="#bc8cff" opacity="0.7"/>
<circle cx="186.4" cy="401.0" r="2.6" fill="#bc8cff" opacity="0.7"/>
<circle cx="193.6" cy="400.3" r="2.6" fill="#bc8cff" opacity="0.7"/>
<circle cx="200.8" cy="412.8" r="2.6" fill="#bc8cff" opacity="0.7"/>
<circle cx="208.0" cy="373.1" r="2.6" fill="#bc8cff" opacity="0.7"/>
<circle cx="215.1" cy="302.1" r="2.6" fill="#bc8cff" opacity="0.7"/>
<circle cx="222.3" cy="419.5" r="2.6" fill="#bc8cff" opacity="0.7"/>
<circle cx="229.5" cy="385.6" r="2.6" fill="#bc8cff" opacity="0.7"/>
<circle cx="236.7" cy="428.9" r="2.6" fill="#bc8cff" opacity="0.7"/>
<circle cx="243.9" cy="395.8" r="2.6" fill="#bc8cff" opacity="0.7"/>
<circle cx="251.1" cy="422.8" r="2.6" fill="#bc8cff" opacity="0.7"/>
<circle cx="258.3" cy="437.9" r="2.6" fill="#bc8cff" opacity="0.7"/>
<circle cx="265.4" cy="429.5" r="2.6" fill="#bc8cff" opacity="0.7"/>
<circle cx="272.6" cy="423.4" r="2.6" fill="#bc8cff" opacity="0.7"/>
<circle cx="279.8" cy="424.6" r="2.6" fill="#bc8cff" opacity="0.7"/>
<circle cx="287.0" cy="394.3" r="2.6" fill="#bc8cff" opacity="0.7"/>
<circle cx="294.2" cy="388.7" r="2.6" fill="#bc8cff" opacity="0.7"/>
<circle cx="301.4" cy="276.0" r="2.6" fill="#bc8cff" opacity="0.7"/>
<circle cx="308.6" cy="378.6" r="2.6" fill="#bc8cff" opacity="0.7"/>
<circle cx="315.7" cy="393.5" r="2.6" fill="#bc8cff" opacity="0.7"/>
<circle cx="322.9" cy="319.9" r="2.6" fill="#bc8cff" opacity="0.7"/>
<circle cx="330.1" cy="396.2" r="2.6" fill="#bc8cff" opacity="0.7"/>
<circle cx="337.3" cy="340.6" r="2.6" fill="#bc8cff" opacity="0.7"/>
<circle cx="344.5" cy="400.8" r="2.6" fill="#bc8cff" opacity="0.7"/>
<circle cx="351.7" cy="416.0" r="2.6" fill="#bc8cff" opacity="0.7"/>
<circle cx="358.9" cy="359.7" r="2.6" fill="#bc8cff" opacity="0.7"/>
<circle cx="366.0" cy="340.0" r="2.6" fill="#bc8cff" opacity="0.7"/>
<circle cx="373.2" cy="371.7" r="2.6" fill="#bc8cff" opacity="0.7"/>
<circle cx="380.4" cy="424.3" r="2.6" fill="#bc8cff" opacity="0.7"/>
<circle cx="387.6" cy="391.5" r="2.6" fill="#bc8cff" opacity="0.7"/>
<circle cx="394.8" cy="394.2" r="2.6" fill="#bc8cff" opacity="0.7"/>
<circle cx="402.0" cy="396.9" r="2.6" fill="#bc8cff" opacity="0.7"/>
<circle cx="409.2" cy="438.7" r="2.6" fill="#bc8cff" opacity="0.7"/>
<circle cx="416.3" cy="393.1" r="2.6" fill="#bc8cff" opacity="0.7"/>
<circle cx="423.5" cy="399.1" r="2.6" fill="#bc8cff" opacity="0.7"/>
<circle cx="430.7" cy="401.0" r="2.6" fill="#bc8cff" opacity="0.7"/>
<circle cx="437.9" cy="382.5" r="2.6" fill="#bc8cff" opacity="0.7"/>
<circle cx="445.1" cy="392.8" r="2.6" fill="#bc8cff" opacity="0.7"/>
<circle cx="452.3" cy="395.2" r="2.6" fill="#bc8cff" opacity="0.7"/>
<circle cx="459.5" cy="314.2" r="2.6" fill="#bc8cff" opacity="0.7"/>
<circle cx="466.6" cy="418.1" r="2.6" fill="#bc8cff" opacity="0.7"/>
<circle cx="473.8" cy="330.6" r="2.6" fill="#bc8cff" opacity="0.7"/>
<circle cx="481.0" cy="334.6" r="2.6" fill="#bc8cff" opacity="0.7"/>
<circle cx="488.2" cy="340.9" r="2.6" fill="#bc8cff" opacity="0.7"/>
<circle cx="495.4" cy="355.5" r="2.6" fill="#bc8cff" opacity="0.7"/>
<circle cx="502.6" cy="415.5" r="2.6" fill="#bc8cff" opacity="0.7"/>
<circle cx="509.8" cy="88.9" r="2.6" fill="#bc8cff" opacity="0.7"/>
<circle cx="516.9" cy="429.1" r="2.6" fill="#bc8cff" opacity="0.7"/>
<circle cx="524.1" cy="381.4" r="2.6" fill="#bc8cff" opacity="0.7"/>
<circle cx="531.3" cy="438.7" r="2.6" fill="#bc8cff" opacity="0.7"/>
<circle cx="538.5" cy="377.1" r="2.6" fill="#bc8cff" opacity="0.7"/>
<circle cx="545.7" cy="432.6" r="2.6" fill="#bc8cff" opacity="0.7"/>
<circle cx="552.9" cy="339.0" r="2.6" fill="#bc8cff" opacity="0.7"/>
<circle cx="560.1" cy="361.5" r="2.6" fill="#bc8cff" opacity="0.7"/>
<circle cx="567.2" cy="405.7" r="2.6" fill="#bc8cff" opacity="0.7"/>
<circle cx="574.4" cy="389.7" r="2.6" fill="#bc8cff" opacity="0.7"/>
<circle cx="581.6" cy="405.6" r="2.6" fill="#bc8cff" opacity="0.7"/>
<circle cx="588.8" cy="400.0" r="2.6" fill="#bc8cff" opacity="0.7"/>
<circle cx="596.0" cy="398.8" r="2.6" fill="#bc8cff" opacity="0.7"/>
<circle cx="603.2" cy="396.6" r="2.6" fill="#bc8cff" opacity="0.7"/>
<circle cx="610.4" cy="433.3" r="2.6" fill="#bc8cff" opacity="0.7"/>
<circle cx="617.5" cy="416.4" r="2.6" fill="#bc8cff" opacity="0.7"/>
<circle cx="624.7" cy="409.0" r="2.6" fill="#bc8cff" opacity="0.7"/>
<circle cx="631.9" cy="408.0" r="2.6" fill="#bc8cff" opacity="0.7"/>
<circle cx="639.1" cy="371.1" r="2.6" fill="#bc8cff" opacity="0.7"/>
<circle cx="646.3" cy="405.9" r="2.6" fill="#bc8cff" opacity="0.7"/>
<circle cx="653.5" cy="403.5" r="2.6" fill="#bc8cff" opacity="0.7"/>
<circle cx="660.7" cy="388.8" r="2.6" fill="#bc8cff" opacity="0.7"/>
<circle cx="667.8" cy="386.6" r="2.6" fill="#bc8cff" opacity="0.7"/>
<circle cx="675.0" cy="416.4" r="2.6" fill="#bc8cff" opacity="0.7"/>
<circle cx="682.2" cy="397.7" r="2.6" fill="#bc8cff" opacity="0.7"/>
<circle cx="689.4" cy="408.7" r="2.6" fill="#bc8cff" opacity="0.7"/>
<circle cx="696.6" cy="399.4" r="2.6" fill="#bc8cff" opacity="0.7"/>
<circle cx="703.8" cy="419.2" r="2.6" fill="#bc8cff" opacity="0.7"/>
<circle cx="711.0" cy="362.8" r="2.6" fill="#bc8cff" opacity="0.7"/>
<circle cx="718.1" cy="396.9" r="2.6" fill="#bc8cff" opacity="0.7"/>
<circle cx="725.3" cy="408.9" r="2.6" fill="#bc8cff" opacity="0.7"/>
<circle cx="732.5" cy="400.6" r="2.6" fill="#bc8cff" opacity="0.7"/>
<circle cx="739.7" cy="404.0" r="2.6" fill="#bc8cff" opacity="0.7"/>
<circle cx="746.9" cy="418.5" r="2.6" fill="#bc8cff" opacity="0.7"/>
<circle cx="754.1" cy="444.8" r="2.6" fill="#bc8cff" opacity="0.7"/>
<circle cx="761.3" cy="419.4" r="2.6" fill="#bc8cff" opacity="0.7"/>
<circle cx="768.4" cy="409.4" r="2.6" fill="#bc8cff" opacity="0.7"/>
<circle cx="775.6" cy="258.5" r="2.6" fill="#bc8cff" opacity="0.7"/>
<circle cx="782.8" cy="362.5" r="2.6" fill="#bc8cff" opacity="0.7"/>
<circle cx="98.2" cy="394.1" r="3.2" fill="#ff922b" opacity="0.85"/>
<circle cx="105.4" cy="414.9" r="3.2" fill="#ff922b" opacity="0.85"/>
<circle cx="112.6" cy="426.6" r="3.2" fill="#ff922b" opacity="0.85"/>
<circle cx="119.8" cy="431.8" r="3.2" fill="#ff922b" opacity="0.85"/>
<circle cx="127.0" cy="398.4" r="3.2" fill="#ff922b" opacity="0.85"/>
<circle cx="134.1" cy="381.7" r="3.2" fill="#ff922b" opacity="0.85"/>
<circle cx="141.3" cy="399.1" r="3.2" fill="#ff922b" opacity="0.85"/>
<circle cx="148.5" cy="391.9" r="3.2" fill="#ff922b" opacity="0.85"/>
<circle cx="155.7" cy="380.1" r="3.2" fill="#ff922b" opacity="0.85"/>
<circle cx="162.9" cy="377.3" r="3.2" fill="#ff922b" opacity="0.85"/>
<circle cx="170.1" cy="396.9" r="3.2" fill="#ff922b" opacity="0.85"/>
<circle cx="177.3" cy="394.4" r="3.2" fill="#ff922b" opacity="0.85"/>
<circle cx="184.4" cy="404.1" r="3.2" fill="#ff922b" opacity="0.85"/>
<circle cx="191.6" cy="404.0" r="3.2" fill="#ff922b" opacity="0.85"/>
<circle cx="198.8" cy="395.7" r="3.2" fill="#ff922b" opacity="0.85"/>
<circle cx="206.0" cy="401.0" r="3.2" fill="#ff922b" opacity="0.85"/>
<circle cx="213.2" cy="395.5" r="3.2" fill="#ff922b" opacity="0.85"/>
<circle cx="220.4" cy="391.0" r="3.2" fill="#ff922b" opacity="0.85"/>
<circle cx="227.6" cy="399.4" r="3.2" fill="#ff922b" opacity="0.85"/>
<circle cx="234.7" cy="414.3" r="3.2" fill="#ff922b" opacity="0.85"/>
<circle cx="241.9" cy="410.0" r="3.2" fill="#ff922b" opacity="0.85"/>
<circle cx="249.1" cy="405.1" r="3.2" fill="#ff922b" opacity="0.85"/>
<circle cx="256.3" cy="437.8" r="3.2" fill="#ff922b" opacity="0.85"/>
<circle cx="263.5" cy="409.2" r="3.2" fill="#ff922b" opacity="0.85"/>
<circle cx="270.7" cy="409.6" r="3.2" fill="#ff922b" opacity="0.85"/>
<circle cx="277.9" cy="405.6" r="3.2" fill="#ff922b" opacity="0.85"/>
<circle cx="285.0" cy="396.3" r="3.2" fill="#ff922b" opacity="0.85"/>
<circle cx="292.2" cy="398.6" r="3.2" fill="#ff922b" opacity="0.85"/>
<circle cx="299.4" cy="402.5" r="3.2" fill="#ff922b" opacity="0.85"/>
<circle cx="306.6" cy="402.1" r="3.2" fill="#ff922b" opacity="0.85"/>
<circle cx="313.8" cy="400.7" r="3.2" fill="#ff922b" opacity="0.85"/>
<circle cx="321.0" cy="363.0" r="3.2" fill="#ff922b" opacity="0.85"/>
<circle cx="328.2" cy="401.0" r="3.2" fill="#ff922b" opacity="0.85"/>
<circle cx="335.3" cy="400.3" r="3.2" fill="#ff922b" opacity="0.85"/>
<circle cx="342.5" cy="397.1" r="3.2" fill="#ff922b" opacity="0.85"/>
<circle cx="349.7" cy="396.1" r="3.2" fill="#ff922b" opacity="0.85"/>
<circle cx="356.9" cy="395.6" r="3.2" fill="#ff922b" opacity="0.85"/>
<circle cx="364.1" cy="426.2" r="3.2" fill="#ff922b" opacity="0.85"/>
<circle cx="371.3" cy="403.8" r="3.2" fill="#ff922b" opacity="0.85"/>
<circle cx="378.5" cy="389.3" r="3.2" fill="#ff922b" opacity="0.85"/>
<circle cx="385.6" cy="377.0" r="3.2" fill="#ff922b" opacity="0.85"/>
<circle cx="392.8" cy="379.7" r="3.2" fill="#ff922b" opacity="0.85"/>
<circle cx="400.0" cy="404.6" r="3.2" fill="#ff922b" opacity="0.85"/>
<circle cx="407.2" cy="437.7" r="3.2" fill="#ff922b" opacity="0.85"/>
<circle cx="414.4" cy="382.6" r="3.2" fill="#ff922b" opacity="0.85"/>
<circle cx="421.6" cy="394.7" r="3.2" fill="#ff922b" opacity="0.85"/>
<circle cx="428.8" cy="399.6" r="3.2" fill="#ff922b" opacity="0.85"/>
<circle cx="435.9" cy="385.6" r="3.2" fill="#ff922b" opacity="0.85"/>
<circle cx="443.1" cy="402.9" r="3.2" fill="#ff922b" opacity="0.85"/>
<circle cx="450.3" cy="396.3" r="3.2" fill="#ff922b" opacity="0.85"/>
<circle cx="457.5" cy="366.6" r="3.2" fill="#ff922b" opacity="0.85"/>
<circle cx="464.7" cy="403.7" r="3.2" fill="#ff922b" opacity="0.85"/>
<circle cx="471.9" cy="350.9" r="3.2" fill="#ff922b" opacity="0.85"/>
<circle cx="479.1" cy="344.5" r="3.2" fill="#ff922b" opacity="0.85"/>
<circle cx="486.2" cy="402.3" r="3.2" fill="#ff922b" opacity="0.85"/>
<circle cx="493.4" cy="391.9" r="3.2" fill="#ff922b" opacity="0.85"/>
<circle cx="500.6" cy="401.2" r="3.2" fill="#ff922b" opacity="0.85"/>
<circle cx="507.8" cy="397.4" r="3.2" fill="#ff922b" opacity="0.85"/>
<circle cx="515.0" cy="405.2" r="3.2" fill="#ff922b" opacity="0.85"/>
<circle cx="522.2" cy="377.3" r="3.2" fill="#ff922b" opacity="0.85"/>
<circle cx="529.4" cy="433.2" r="3.2" fill="#ff922b" opacity="0.85"/>
<circle cx="536.5" cy="400.3" r="3.2" fill="#ff922b" opacity="0.85"/>
<circle cx="543.7" cy="416.3" r="3.2" fill="#ff922b" opacity="0.85"/>
<circle cx="550.9" cy="401.1" r="3.2" fill="#ff922b" opacity="0.85"/>
<circle cx="558.1" cy="396.3" r="3.2" fill="#ff922b" opacity="0.85"/>
<circle cx="565.3" cy="408.2" r="3.2" fill="#ff922b" opacity="0.85"/>
<circle cx="572.5" cy="400.8" r="3.2" fill="#ff922b" opacity="0.85"/>
<circle cx="579.7" cy="405.5" r="3.2" fill="#ff922b" opacity="0.85"/>
<circle cx="586.8" cy="401.5" r="3.2" fill="#ff922b" opacity="0.85"/>
<circle cx="594.0" cy="380.1" r="3.2" fill="#ff922b" opacity="0.85"/>
<circle cx="601.2" cy="413.0" r="3.2" fill="#ff922b" opacity="0.85"/>
<circle cx="608.4" cy="397.9" r="3.2" fill="#ff922b" opacity="0.85"/>
<circle cx="615.6" cy="412.9" r="3.2" fill="#ff922b" opacity="0.85"/>
<circle cx="622.8" cy="427.1" r="3.2" fill="#ff922b" opacity="0.85"/>
<circle cx="630.0" cy="405.3" r="3.2" fill="#ff922b" opacity="0.85"/>
<circle cx="637.1" cy="407.7" r="3.2" fill="#ff922b" opacity="0.85"/>
<circle cx="644.3" cy="389.7" r="3.2" fill="#ff922b" opacity="0.85"/>
<circle cx="651.5" cy="403.4" r="3.2" fill="#ff922b" opacity="0.85"/>
<circle cx="658.7" cy="411.0" r="3.2" fill="#ff922b" opacity="0.85"/>
<circle cx="665.9" cy="398.1" r="3.2" fill="#ff922b" opacity="0.85"/>
<circle cx="673.1" cy="398.2" r="3.2" fill="#ff922b" opacity="0.85"/>
<circle cx="680.3" cy="399.7" r="3.2" fill="#ff922b" opacity="0.85"/>
<circle cx="687.4" cy="397.4" r="3.2" fill="#ff922b" opacity="0.85"/>
<circle cx="694.6" cy="449.9" r="3.2" fill="#ff922b" opacity="0.85"/>
<circle cx="701.8" cy="414.9" r="3.2" fill="#ff922b" opacity="0.85"/>
<circle cx="709.0" cy="407.0" r="3.2" fill="#ff922b" opacity="0.85"/>
<circle cx="716.2" cy="366.5" r="3.2" fill="#ff922b" opacity="0.85"/>
<circle cx="723.4" cy="399.1" r="3.2" fill="#ff922b" opacity="0.85"/>
<circle cx="730.6" cy="403.6" r="3.2" fill="#ff922b" opacity="0.85"/>
<circle cx="737.7" cy="408.3" r="3.2" fill="#ff922b" opacity="0.85"/>
<circle cx="744.9" cy="401.9" r="3.2" fill="#ff922b" opacity="0.85"/>
<circle cx="752.1" cy="386.1" r="3.2" fill="#ff922b" opacity="0.85"/>
<circle cx="759.3" cy="387.7" r="3.2" fill="#ff922b" opacity="0.85"/>
<circle cx="766.5" cy="401.6" r="3.2" fill="#ff922b" opacity="0.85"/>
<circle cx="773.7" cy="303.3" r="3.2" fill="#ff922b" opacity="0.85"/>
<circle cx="780.9" cy="365.5" r="3.2" fill="#ff922b" opacity="0.85"/>
<circle cx="122.7" cy="399.5" r="2.6" fill="none" stroke="#d4a017" stroke-width="1.8" opacity="0.7999999999999999"/>
<circle cx="129.9" cy="401.6" r="2.6" fill="none" stroke="#d4a017" stroke-width="1.8" opacity="0.7999999999999999"/>
<circle cx="151.4" cy="399.6" r="2.6" fill="none" stroke="#d4a017" stroke-width="1.8" opacity="0.7999999999999999"/>
<circle cx="158.6" cy="390.0" r="2.6" fill="none" stroke="#d4a017" stroke-width="1.8" opacity="0.7999999999999999"/>
<circle cx="165.8" cy="383.3" r="2.6" fill="none" stroke="#d4a017" stroke-width="1.8" opacity="0.7999999999999999"/>
<circle cx="180.2" cy="394.8" r="2.6" fill="none" stroke="#d4a017" stroke-width="1.8" opacity="0.7999999999999999"/>
<circle cx="216.1" cy="394.1" r="2.6" fill="none" stroke="#d4a017" stroke-width="1.8" opacity="0.7999999999999999"/>
<circle cx="288.0" cy="403.1" r="2.6" fill="none" stroke="#d4a017" stroke-width="1.8" opacity="0.7999999999999999"/>
<circle cx="331.1" cy="401.0" r="2.6" fill="none" stroke="#d4a017" stroke-width="1.8" opacity="0.7999999999999999"/>
<circle cx="417.3" cy="394.2" r="2.6" fill="none" stroke="#d4a017" stroke-width="1.8" opacity="0.7999999999999999"/>
<circle cx="683.2" cy="400.4" r="2.6" fill="none" stroke="#d4a017" stroke-width="1.8" opacity="0.7999999999999999"/>
<circle cx="719.1" cy="365.4" r="2.6" fill="none" stroke="#d4a017" stroke-width="1.8" opacity="0.7999999999999999"/>
<circle cx="726.3" cy="399.3" r="2.6" fill="none" stroke="#d4a017" stroke-width="1.8" opacity="0.7999999999999999"/>
<circle cx="776.6" cy="402.2" r="2.6" fill="none" stroke="#d4a017" stroke-width="1.8" opacity="0.7999999999999999"/>
<circle cx="847" cy="84" r="5" fill="#ff922b"/>
<text x="866" y="88" font-size="13" fill="#c9d1d9" font-weight="700">Kāra</text>
<line x1="836" y1="108" x2="858" y2="108" stroke="#a7b0bc" stroke-width="2" stroke-dasharray="5 4"/>
<text x="866" y="112" font-size="13" fill="#c9d1d9" font-weight="400">Rust (default) = 1.0×</text>
<circle cx="847" cy="132" r="4" fill="#3fb950"/>
<text x="866" y="136" font-size="13" fill="#c9d1d9" font-weight="400">C</text>
<circle cx="847" cy="156" r="4" fill="#bc8cff"/>
<text x="866" y="160" font-size="13" fill="#c9d1d9" font-weight="400">Go</text>
<circle cx="847" cy="180" r="4" fill="none" stroke="#d4a017" stroke-width="1.8"/>
<text x="866" y="184" font-size="12" fill="#c9d1d9" font-weight="400">Rust (checked)</text>
<text x="70" y="502" font-size="11.5" fill="#c9d1d9">Solid Rust = 1.0× is the release default — it wraps silently on overflow. Hollow rings ◌ are Rust built overflow-checked,</text>
<text x="70" y="518" font-size="11.5" fill="#c9d1d9">the same safety kāra enforces by default: median 1.05× the cost of plain Rust across the 14 overflow-exercising programs. At that matched safety kāra is ≈ 1.04× — compare kāra to the rings.</text>
<text x="70" y="538" font-size="11.5" fill="#8b949e">Each dot is one benchmarked program (kata × approach); there is no connecting line because left-to-right order is not meaningful. Raw numbers: bench-results.json</text>
</svg>