<svg xmlns="http://www.w3.org/2000/svg" width="980" height="560" viewBox="0 0 980 560" font-family="-apple-system,Segoe UI,Helvetica,Arial,sans-serif">
<rect width="980" height="560" fill="#282c34"/>
<text x="70" y="34" font-size="21" font-weight="700" fill="#c9d1d9">Runtime — sequential lane</text>
<text x="70" y="56" font-size="13" fill="#8b949e">relative to Rust (default) = 1.0 · lower = faster · 108 programs</text>
<line x1="70" y1="456.0" x2="812" y2="456.0" stroke="#3b414b" stroke-width="1"/>
<text x="60" y="460.0" font-size="12" text-anchor="end" fill="#8b949e">0.0×</text>
<line x1="70" y1="402.0" x2="812" y2="402.0" stroke="#a7b0bc" stroke-width="2" stroke-dasharray="5 4"/>
<text x="60" y="406.0" font-size="12" text-anchor="end" fill="#aeb6c0" font-weight="700">1.0×</text>
<line x1="70" y1="380.4" x2="812" y2="380.4" stroke="#3b414b" stroke-width="1"/>
<text x="60" y="384.4" font-size="12" text-anchor="end" fill="#8b949e">1.4×</text>
<line x1="70" y1="304.8" x2="812" y2="304.8" stroke="#3b414b" stroke-width="1"/>
<text x="60" y="308.8" font-size="12" text-anchor="end" fill="#8b949e">2.8×</text>
<line x1="70" y1="229.2" x2="812" y2="229.2" stroke="#3b414b" stroke-width="1"/>
<text x="60" y="233.2" font-size="12" text-anchor="end" fill="#8b949e">4.2×</text>
<line x1="70" y1="153.6" x2="812" y2="153.6" stroke="#3b414b" stroke-width="1"/>
<text x="60" y="157.6" font-size="12" text-anchor="end" fill="#8b949e">5.6×</text>
<line x1="70" y1="78.0" x2="812" y2="78.0" stroke="#3b414b" stroke-width="1"/>
<text x="60" y="82.0" font-size="12" text-anchor="end" fill="#8b949e">7.0×</text>
<text x="812" y="396.0" font-size="11" text-anchor="end" fill="#aeb6c0">Rust (default) baseline</text>
<line x1="70" y1="456" x2="812" y2="456" stroke="#3b414b"/>
<text x="441.0" y="478" font-size="11" text-anchor="middle" fill="#8b949e">108 programs (kata × approach) — x-order carries no meaning</text>
<circle cx="99.2" cy="402.1" r="2.6" fill="#3fb950" opacity="0.7"/>
<circle cx="105.6" cy="421.6" r="2.6" fill="#3fb950" opacity="0.7"/>
<circle cx="112.0" cy="425.2" r="2.6" fill="#3fb950" opacity="0.7"/>
<circle cx="118.4" cy="442.8" r="2.6" fill="#3fb950" opacity="0.7"/>
<circle cx="124.8" cy="413.8" r="2.6" fill="#3fb950" opacity="0.7"/>
<circle cx="131.1" cy="411.4" r="2.6" fill="#3fb950" opacity="0.7"/>
<circle cx="137.5" cy="402.3" r="2.6" fill="#3fb950" opacity="0.7"/>
<circle cx="143.9" cy="399.7" r="2.6" fill="#3fb950" opacity="0.7"/>
<circle cx="150.3" cy="397.0" r="2.6" fill="#3fb950" opacity="0.7"/>
<circle cx="156.7" cy="395.5" r="2.6" fill="#3fb950" opacity="0.7"/>
<circle cx="163.0" cy="402.1" r="2.6" fill="#3fb950" opacity="0.7"/>
<circle cx="169.4" cy="409.1" r="2.6" fill="#3fb950" opacity="0.7"/>
<circle cx="175.8" cy="395.6" r="2.6" fill="#3fb950" opacity="0.7"/>
<circle cx="182.2" cy="399.0" r="2.6" fill="#3fb950" opacity="0.7"/>
<circle cx="188.6" cy="413.4" r="2.6" fill="#3fb950" opacity="0.7"/>
<circle cx="194.9" cy="397.3" r="2.6" fill="#3fb950" opacity="0.7"/>
<circle cx="201.3" cy="357.8" r="2.6" fill="#3fb950" opacity="0.7"/>
<circle cx="207.7" cy="415.1" r="2.6" fill="#3fb950" opacity="0.7"/>
<circle cx="214.1" cy="403.5" r="2.6" fill="#3fb950" opacity="0.7"/>
<circle cx="220.5" cy="423.2" r="2.6" fill="#3fb950" opacity="0.7"/>
<circle cx="226.8" cy="406.5" r="2.6" fill="#3fb950" opacity="0.7"/>
<circle cx="233.2" cy="419.9" r="2.6" fill="#3fb950" opacity="0.7"/>
<circle cx="239.6" cy="439.8" r="2.6" fill="#3fb950" opacity="0.7"/>
<circle cx="246.0" cy="424.6" r="2.6" fill="#3fb950" opacity="0.7"/>
<circle cx="252.4" cy="418.3" r="2.6" fill="#3fb950" opacity="0.7"/>
<circle cx="258.7" cy="420.5" r="2.6" fill="#3fb950" opacity="0.7"/>
<circle cx="265.1" cy="400.5" r="2.6" fill="#3fb950" opacity="0.7"/>
<circle cx="271.5" cy="400.0" r="2.6" fill="#3fb950" opacity="0.7"/>
<circle cx="277.9" cy="402.1" r="2.6" fill="#3fb950" opacity="0.7"/>
<circle cx="284.3" cy="414.5" r="2.6" fill="#3fb950" opacity="0.7"/>
<circle cx="290.6" cy="401.5" r="2.6" fill="#3fb950" opacity="0.7"/>
<circle cx="297.0" cy="435.9" r="2.6" fill="#3fb950" opacity="0.7"/>
<circle cx="303.4" cy="402.2" r="2.6" fill="#3fb950" opacity="0.7"/>
<circle cx="309.8" cy="421.6" r="2.6" fill="#3fb950" opacity="0.7"/>
<circle cx="316.2" cy="415.8" r="2.6" fill="#3fb950" opacity="0.7"/>
<circle cx="322.5" cy="417.3" r="2.6" fill="#3fb950" opacity="0.7"/>
<circle cx="328.9" cy="417.7" r="2.6" fill="#3fb950" opacity="0.7"/>
<circle cx="335.3" cy="402.4" r="2.6" fill="#3fb950" opacity="0.7"/>
<circle cx="341.7" cy="382.1" r="2.6" fill="#3fb950" opacity="0.7"/>
<circle cx="348.1" cy="413.8" r="2.6" fill="#3fb950" opacity="0.7"/>
<circle cx="354.4" cy="398.2" r="2.6" fill="#3fb950" opacity="0.7"/>
<circle cx="360.8" cy="401.5" r="2.6" fill="#3fb950" opacity="0.7"/>
<circle cx="367.2" cy="404.4" r="2.6" fill="#3fb950" opacity="0.7"/>
<circle cx="373.6" cy="403.9" r="2.6" fill="#3fb950" opacity="0.7"/>
<circle cx="380.0" cy="431.2" r="2.6" fill="#3fb950" opacity="0.7"/>
<circle cx="386.3" cy="404.3" r="2.6" fill="#3fb950" opacity="0.7"/>
<circle cx="392.7" cy="400.0" r="2.6" fill="#3fb950" opacity="0.7"/>
<circle cx="399.1" cy="398.4" r="2.6" fill="#3fb950" opacity="0.7"/>
<circle cx="405.5" cy="403.7" r="2.6" fill="#3fb950" opacity="0.7"/>
<circle cx="411.9" cy="404.7" r="2.6" fill="#3fb950" opacity="0.7"/>
<circle cx="418.2" cy="435.3" r="2.6" fill="#3fb950" opacity="0.7"/>
<circle cx="424.6" cy="424.2" r="2.6" fill="#3fb950" opacity="0.7"/>
<circle cx="431.0" cy="386.9" r="2.6" fill="#3fb950" opacity="0.7"/>
<circle cx="437.4" cy="402.3" r="2.6" fill="#3fb950" opacity="0.7"/>
<circle cx="443.8" cy="402.1" r="2.6" fill="#3fb950" opacity="0.7"/>
<circle cx="450.1" cy="408.1" r="2.6" fill="#3fb950" opacity="0.7"/>
<circle cx="456.5" cy="400.9" r="2.6" fill="#3fb950" opacity="0.7"/>
<circle cx="462.9" cy="369.7" r="2.6" fill="#3fb950" opacity="0.7"/>
<circle cx="469.3" cy="441.3" r="2.6" fill="#3fb950" opacity="0.7"/>
<circle cx="475.7" cy="409.4" r="2.6" fill="#3fb950" opacity="0.7"/>
<circle cx="482.0" cy="438.7" r="2.6" fill="#3fb950" opacity="0.7"/>
<circle cx="488.4" cy="401.9" r="2.6" fill="#3fb950" opacity="0.7"/>
<circle cx="494.8" cy="424.3" r="2.6" fill="#3fb950" opacity="0.7"/>
<circle cx="501.2" cy="401.6" r="2.6" fill="#3fb950" opacity="0.7"/>
<circle cx="507.6" cy="401.9" r="2.6" fill="#3fb950" opacity="0.7"/>
<circle cx="513.9" cy="402.1" r="2.6" fill="#3fb950" opacity="0.7"/>
<circle cx="520.3" cy="393.0" r="2.6" fill="#3fb950" opacity="0.7"/>
<circle cx="526.7" cy="405.6" r="2.6" fill="#3fb950" opacity="0.7"/>
<circle cx="533.1" cy="401.9" r="2.6" fill="#3fb950" opacity="0.7"/>
<circle cx="539.5" cy="412.7" r="2.6" fill="#3fb950" opacity="0.7"/>
<circle cx="545.8" cy="401.6" r="2.6" fill="#3fb950" opacity="0.7"/>
<circle cx="552.2" cy="450.6" r="2.6" fill="#3fb950" opacity="0.7"/>
<circle cx="558.6" cy="372.4" r="2.6" fill="#3fb950" opacity="0.7"/>
<circle cx="565.0" cy="391.1" r="2.6" fill="#3fb950" opacity="0.7"/>
<circle cx="571.4" cy="401.7" r="2.6" fill="#3fb950" opacity="0.7"/>
<circle cx="577.7" cy="407.8" r="2.6" fill="#3fb950" opacity="0.7"/>
<circle cx="584.1" cy="402.6" r="2.6" fill="#3fb950" opacity="0.7"/>
<circle cx="590.5" cy="403.6" r="2.6" fill="#3fb950" opacity="0.7"/>
<circle cx="596.9" cy="402.9" r="2.6" fill="#3fb950" opacity="0.7"/>
<circle cx="603.3" cy="410.3" r="2.6" fill="#3fb950" opacity="0.7"/>
<circle cx="609.6" cy="402.4" r="2.6" fill="#3fb950" opacity="0.7"/>
<circle cx="616.0" cy="411.5" r="2.6" fill="#3fb950" opacity="0.7"/>
<circle cx="622.4" cy="419.0" r="2.6" fill="#3fb950" opacity="0.7"/>
<circle cx="628.8" cy="419.4" r="2.6" fill="#3fb950" opacity="0.7"/>
<circle cx="635.2" cy="422.5" r="2.6" fill="#3fb950" opacity="0.7"/>
<circle cx="641.5" cy="420.4" r="2.6" fill="#3fb950" opacity="0.7"/>
<circle cx="647.9" cy="401.4" r="2.6" fill="#3fb950" opacity="0.7"/>
<circle cx="654.3" cy="419.1" r="2.6" fill="#3fb950" opacity="0.7"/>
<circle cx="660.7" cy="402.1" r="2.6" fill="#3fb950" opacity="0.7"/>
<circle cx="667.0" cy="401.6" r="2.6" fill="#3fb950" opacity="0.7"/>
<circle cx="673.4" cy="395.0" r="2.6" fill="#3fb950" opacity="0.7"/>
<circle cx="679.8" cy="419.9" r="2.6" fill="#3fb950" opacity="0.7"/>
<circle cx="686.2" cy="403.0" r="2.6" fill="#3fb950" opacity="0.7"/>
<circle cx="692.6" cy="404.2" r="2.6" fill="#3fb950" opacity="0.7"/>
<circle cx="698.9" cy="425.5" r="2.6" fill="#3fb950" opacity="0.7"/>
<circle cx="705.3" cy="445.3" r="2.6" fill="#3fb950" opacity="0.7"/>
<circle cx="711.7" cy="415.3" r="2.6" fill="#3fb950" opacity="0.7"/>
<circle cx="718.1" cy="410.4" r="2.6" fill="#3fb950" opacity="0.7"/>
<circle cx="724.5" cy="404.0" r="2.6" fill="#3fb950" opacity="0.7"/>
<circle cx="730.8" cy="402.7" r="2.6" fill="#3fb950" opacity="0.7"/>
<circle cx="737.2" cy="412.4" r="2.6" fill="#3fb950" opacity="0.7"/>
<circle cx="743.6" cy="407.1" r="2.6" fill="#3fb950" opacity="0.7"/>
<circle cx="750.0" cy="411.4" r="2.6" fill="#3fb950" opacity="0.7"/>
<circle cx="756.4" cy="452.2" r="2.6" fill="#3fb950" opacity="0.7"/>
<circle cx="762.7" cy="447.1" r="2.6" fill="#3fb950" opacity="0.7"/>
<circle cx="769.1" cy="406.6" r="2.6" fill="#3fb950" opacity="0.7"/>
<circle cx="775.5" cy="391.2" r="2.6" fill="#3fb950" opacity="0.7"/>
<circle cx="781.9" cy="416.2" r="2.6" fill="#3fb950" opacity="0.7"/>
<circle cx="100.1" cy="401.6" r="2.6" fill="#bc8cff" opacity="0.7"/>
<circle cx="106.5" cy="392.0" r="2.6" fill="#bc8cff" opacity="0.7"/>
<circle cx="112.9" cy="428.8" r="2.6" fill="#bc8cff" opacity="0.7"/>
<circle cx="119.3" cy="392.5" r="2.6" fill="#bc8cff" opacity="0.7"/>
<circle cx="125.6" cy="358.8" r="2.6" fill="#bc8cff" opacity="0.7"/>
<circle cx="132.0" cy="391.4" r="2.6" fill="#bc8cff" opacity="0.7"/>
<circle cx="138.4" cy="315.8" r="2.6" fill="#bc8cff" opacity="0.7"/>
<circle cx="144.8" cy="393.4" r="2.6" fill="#bc8cff" opacity="0.7"/>
<circle cx="151.2" cy="385.2" r="2.6" fill="#bc8cff" opacity="0.7"/>
<circle cx="157.5" cy="362.9" r="2.6" fill="#bc8cff" opacity="0.7"/>
<circle cx="163.9" cy="372.1" r="2.6" fill="#bc8cff" opacity="0.7"/>
<circle cx="170.3" cy="423.7" r="2.6" fill="#bc8cff" opacity="0.7"/>
<circle cx="176.7" cy="401.0" r="2.6" fill="#bc8cff" opacity="0.7"/>
<circle cx="183.1" cy="400.3" r="2.6" fill="#bc8cff" opacity="0.7"/>
<circle cx="189.4" cy="412.8" r="2.6" fill="#bc8cff" opacity="0.7"/>
<circle cx="195.8" cy="373.1" r="2.6" fill="#bc8cff" opacity="0.7"/>
<circle cx="202.2" cy="302.1" r="2.6" fill="#bc8cff" opacity="0.7"/>
<circle cx="208.6" cy="419.5" r="2.6" fill="#bc8cff" opacity="0.7"/>
<circle cx="215.0" cy="385.6" r="2.6" fill="#bc8cff" opacity="0.7"/>
<circle cx="221.3" cy="428.9" r="2.6" fill="#bc8cff" opacity="0.7"/>
<circle cx="227.7" cy="395.8" r="2.6" fill="#bc8cff" opacity="0.7"/>
<circle cx="234.1" cy="422.8" r="2.6" fill="#bc8cff" opacity="0.7"/>
<circle cx="240.5" cy="437.9" r="2.6" fill="#bc8cff" opacity="0.7"/>
<circle cx="246.8" cy="429.5" r="2.6" fill="#bc8cff" opacity="0.7"/>
<circle cx="253.2" cy="423.4" r="2.6" fill="#bc8cff" opacity="0.7"/>
<circle cx="259.6" cy="424.6" r="2.6" fill="#bc8cff" opacity="0.7"/>
<circle cx="266.0" cy="394.3" r="2.6" fill="#bc8cff" opacity="0.7"/>
<circle cx="272.4" cy="388.7" r="2.6" fill="#bc8cff" opacity="0.7"/>
<circle cx="278.7" cy="276.0" r="2.6" fill="#bc8cff" opacity="0.7"/>
<circle cx="285.1" cy="378.6" r="2.6" fill="#bc8cff" opacity="0.7"/>
<circle cx="291.5" cy="393.5" r="2.6" fill="#bc8cff" opacity="0.7"/>
<circle cx="297.9" cy="319.9" r="2.6" fill="#bc8cff" opacity="0.7"/>
<circle cx="304.3" cy="396.2" r="2.6" fill="#bc8cff" opacity="0.7"/>
<circle cx="310.6" cy="340.6" r="2.6" fill="#bc8cff" opacity="0.7"/>
<circle cx="317.0" cy="400.8" r="2.6" fill="#bc8cff" opacity="0.7"/>
<circle cx="323.4" cy="416.0" r="2.6" fill="#bc8cff" opacity="0.7"/>
<circle cx="329.8" cy="359.7" r="2.6" fill="#bc8cff" opacity="0.7"/>
<circle cx="336.2" cy="340.0" r="2.6" fill="#bc8cff" opacity="0.7"/>
<circle cx="342.5" cy="371.7" r="2.6" fill="#bc8cff" opacity="0.7"/>
<circle cx="348.9" cy="424.3" r="2.6" fill="#bc8cff" opacity="0.7"/>
<circle cx="355.3" cy="391.5" r="2.6" fill="#bc8cff" opacity="0.7"/>
<circle cx="361.7" cy="394.2" r="2.6" fill="#bc8cff" opacity="0.7"/>
<circle cx="368.1" cy="396.9" r="2.6" fill="#bc8cff" opacity="0.7"/>
<circle cx="374.4" cy="438.7" r="2.6" fill="#bc8cff" opacity="0.7"/>
<circle cx="380.8" cy="393.1" r="2.6" fill="#bc8cff" opacity="0.7"/>
<circle cx="387.2" cy="399.1" r="2.6" fill="#bc8cff" opacity="0.7"/>
<circle cx="393.6" cy="401.0" r="2.6" fill="#bc8cff" opacity="0.7"/>
<circle cx="400.0" cy="382.5" r="2.6" fill="#bc8cff" opacity="0.7"/>
<circle cx="406.3" cy="392.8" r="2.6" fill="#bc8cff" opacity="0.7"/>
<circle cx="412.7" cy="395.2" r="2.6" fill="#bc8cff" opacity="0.7"/>
<circle cx="419.1" cy="314.2" r="2.6" fill="#bc8cff" opacity="0.7"/>
<circle cx="425.5" cy="418.1" r="2.6" fill="#bc8cff" opacity="0.7"/>
<circle cx="431.9" cy="330.6" r="2.6" fill="#bc8cff" opacity="0.7"/>
<circle cx="438.2" cy="334.6" r="2.6" fill="#bc8cff" opacity="0.7"/>
<circle cx="444.6" cy="340.9" r="2.6" fill="#bc8cff" opacity="0.7"/>
<circle cx="451.0" cy="355.5" r="2.6" fill="#bc8cff" opacity="0.7"/>
<circle cx="457.4" cy="415.5" r="2.6" fill="#bc8cff" opacity="0.7"/>
<circle cx="463.8" cy="88.9" r="2.6" fill="#bc8cff" opacity="0.7"/>
<circle cx="470.1" cy="429.1" r="2.6" fill="#bc8cff" opacity="0.7"/>
<circle cx="476.5" cy="381.4" r="2.6" fill="#bc8cff" opacity="0.7"/>
<circle cx="482.9" cy="438.7" r="2.6" fill="#bc8cff" opacity="0.7"/>
<circle cx="489.3" cy="377.1" r="2.6" fill="#bc8cff" opacity="0.7"/>
<circle cx="495.7" cy="432.6" r="2.6" fill="#bc8cff" opacity="0.7"/>
<circle cx="502.0" cy="339.0" r="2.6" fill="#bc8cff" opacity="0.7"/>
<circle cx="508.4" cy="361.5" r="2.6" fill="#bc8cff" opacity="0.7"/>
<circle cx="514.8" cy="405.7" r="2.6" fill="#bc8cff" opacity="0.7"/>
<circle cx="521.2" cy="389.7" r="2.6" fill="#bc8cff" opacity="0.7"/>
<circle cx="527.6" cy="405.6" r="2.6" fill="#bc8cff" opacity="0.7"/>
<circle cx="533.9" cy="400.0" r="2.6" fill="#bc8cff" opacity="0.7"/>
<circle cx="540.3" cy="398.8" r="2.6" fill="#bc8cff" opacity="0.7"/>
<circle cx="546.7" cy="396.6" r="2.6" fill="#bc8cff" opacity="0.7"/>
<circle cx="553.1" cy="433.3" r="2.6" fill="#bc8cff" opacity="0.7"/>
<circle cx="559.5" cy="416.4" r="2.6" fill="#bc8cff" opacity="0.7"/>
<circle cx="565.8" cy="409.0" r="2.6" fill="#bc8cff" opacity="0.7"/>
<circle cx="572.2" cy="408.0" r="2.6" fill="#bc8cff" opacity="0.7"/>
<circle cx="578.6" cy="371.1" r="2.6" fill="#bc8cff" opacity="0.7"/>
<circle cx="585.0" cy="405.9" r="2.6" fill="#bc8cff" opacity="0.7"/>
<circle cx="591.4" cy="403.5" r="2.6" fill="#bc8cff" opacity="0.7"/>
<circle cx="597.7" cy="401.5" r="2.6" fill="#bc8cff" opacity="0.7"/>
<circle cx="604.1" cy="395.9" r="2.6" fill="#bc8cff" opacity="0.7"/>
<circle cx="610.5" cy="390.8" r="2.6" fill="#bc8cff" opacity="0.7"/>
<circle cx="616.9" cy="408.2" r="2.6" fill="#bc8cff" opacity="0.7"/>
<circle cx="623.3" cy="424.7" r="2.6" fill="#bc8cff" opacity="0.7"/>
<circle cx="629.6" cy="419.5" r="2.6" fill="#bc8cff" opacity="0.7"/>
<circle cx="636.0" cy="396.7" r="2.6" fill="#bc8cff" opacity="0.7"/>
<circle cx="642.4" cy="418.1" r="2.6" fill="#bc8cff" opacity="0.7"/>
<circle cx="648.8" cy="384.2" r="2.6" fill="#bc8cff" opacity="0.7"/>
<circle cx="655.2" cy="388.8" r="2.6" fill="#bc8cff" opacity="0.7"/>
<circle cx="661.5" cy="402.2" r="2.6" fill="#bc8cff" opacity="0.7"/>
<circle cx="667.9" cy="394.7" r="2.6" fill="#bc8cff" opacity="0.7"/>
<circle cx="674.3" cy="386.6" r="2.6" fill="#bc8cff" opacity="0.7"/>
<circle cx="680.7" cy="419.5" r="2.6" fill="#bc8cff" opacity="0.7"/>
<circle cx="687.1" cy="416.4" r="2.6" fill="#bc8cff" opacity="0.7"/>
<circle cx="693.4" cy="397.7" r="2.6" fill="#bc8cff" opacity="0.7"/>
<circle cx="699.8" cy="408.7" r="2.6" fill="#bc8cff" opacity="0.7"/>
<circle cx="706.2" cy="399.4" r="2.6" fill="#bc8cff" opacity="0.7"/>
<circle cx="712.6" cy="419.2" r="2.6" fill="#bc8cff" opacity="0.7"/>
<circle cx="719.0" cy="362.8" r="2.6" fill="#bc8cff" opacity="0.7"/>
<circle cx="725.3" cy="396.9" r="2.6" fill="#bc8cff" opacity="0.7"/>
<circle cx="731.7" cy="408.9" r="2.6" fill="#bc8cff" opacity="0.7"/>
<circle cx="738.1" cy="400.6" r="2.6" fill="#bc8cff" opacity="0.7"/>
<circle cx="744.5" cy="404.0" r="2.6" fill="#bc8cff" opacity="0.7"/>
<circle cx="750.9" cy="418.5" r="2.6" fill="#bc8cff" opacity="0.7"/>
<circle cx="757.2" cy="444.8" r="2.6" fill="#bc8cff" opacity="0.7"/>
<circle cx="763.6" cy="419.4" r="2.6" fill="#bc8cff" opacity="0.7"/>
<circle cx="770.0" cy="409.4" r="2.6" fill="#bc8cff" opacity="0.7"/>
<circle cx="776.4" cy="258.5" r="2.6" fill="#bc8cff" opacity="0.7"/>
<circle cx="782.8" cy="362.5" r="2.6" fill="#bc8cff" opacity="0.7"/>
<circle cx="98.4" cy="394.1" r="3.2" fill="#ff922b" opacity="0.85"/>
<circle cx="104.8" cy="414.9" r="3.2" fill="#ff922b" opacity="0.85"/>
<circle cx="111.1" cy="426.6" r="3.2" fill="#ff922b" opacity="0.85"/>
<circle cx="117.5" cy="431.8" r="3.2" fill="#ff922b" opacity="0.85"/>
<circle cx="123.9" cy="398.4" r="3.2" fill="#ff922b" opacity="0.85"/>
<circle cx="130.3" cy="381.7" r="3.2" fill="#ff922b" opacity="0.85"/>
<circle cx="136.7" cy="399.1" r="3.2" fill="#ff922b" opacity="0.85"/>
<circle cx="143.0" cy="391.9" r="3.2" fill="#ff922b" opacity="0.85"/>
<circle cx="149.4" cy="380.1" r="3.2" fill="#ff922b" opacity="0.85"/>
<circle cx="155.8" cy="377.3" r="3.2" fill="#ff922b" opacity="0.85"/>
<circle cx="162.2" cy="396.9" r="3.2" fill="#ff922b" opacity="0.85"/>
<circle cx="168.6" cy="394.4" r="3.2" fill="#ff922b" opacity="0.85"/>
<circle cx="174.9" cy="404.1" r="3.2" fill="#ff922b" opacity="0.85"/>
<circle cx="181.3" cy="404.0" r="3.2" fill="#ff922b" opacity="0.85"/>
<circle cx="187.7" cy="395.7" r="3.2" fill="#ff922b" opacity="0.85"/>
<circle cx="194.1" cy="401.0" r="3.2" fill="#ff922b" opacity="0.85"/>
<circle cx="200.5" cy="395.5" r="3.2" fill="#ff922b" opacity="0.85"/>
<circle cx="206.8" cy="391.0" r="3.2" fill="#ff922b" opacity="0.85"/>
<circle cx="213.2" cy="399.4" r="3.2" fill="#ff922b" opacity="0.85"/>
<circle cx="219.6" cy="414.3" r="3.2" fill="#ff922b" opacity="0.85"/>
<circle cx="226.0" cy="410.0" r="3.2" fill="#ff922b" opacity="0.85"/>
<circle cx="232.4" cy="405.1" r="3.2" fill="#ff922b" opacity="0.85"/>
<circle cx="238.7" cy="437.8" r="3.2" fill="#ff922b" opacity="0.85"/>
<circle cx="245.1" cy="409.2" r="3.2" fill="#ff922b" opacity="0.85"/>
<circle cx="251.5" cy="409.6" r="3.2" fill="#ff922b" opacity="0.85"/>
<circle cx="257.9" cy="405.6" r="3.2" fill="#ff922b" opacity="0.85"/>
<circle cx="264.3" cy="396.3" r="3.2" fill="#ff922b" opacity="0.85"/>
<circle cx="270.6" cy="398.6" r="3.2" fill="#ff922b" opacity="0.85"/>
<circle cx="277.0" cy="402.5" r="3.2" fill="#ff922b" opacity="0.85"/>
<circle cx="283.4" cy="402.1" r="3.2" fill="#ff922b" opacity="0.85"/>
<circle cx="289.8" cy="400.7" r="3.2" fill="#ff922b" opacity="0.85"/>
<circle cx="296.2" cy="363.0" r="3.2" fill="#ff922b" opacity="0.85"/>
<circle cx="302.5" cy="401.0" r="3.2" fill="#ff922b" opacity="0.85"/>
<circle cx="308.9" cy="400.3" r="3.2" fill="#ff922b" opacity="0.85"/>
<circle cx="315.3" cy="397.1" r="3.2" fill="#ff922b" opacity="0.85"/>
<circle cx="321.7" cy="396.1" r="3.2" fill="#ff922b" opacity="0.85"/>
<circle cx="328.1" cy="395.6" r="3.2" fill="#ff922b" opacity="0.85"/>
<circle cx="334.4" cy="426.2" r="3.2" fill="#ff922b" opacity="0.85"/>
<circle cx="340.8" cy="403.8" r="3.2" fill="#ff922b" opacity="0.85"/>
<circle cx="347.2" cy="389.3" r="3.2" fill="#ff922b" opacity="0.85"/>
<circle cx="353.6" cy="377.0" r="3.2" fill="#ff922b" opacity="0.85"/>
<circle cx="360.0" cy="379.7" r="3.2" fill="#ff922b" opacity="0.85"/>
<circle cx="366.3" cy="404.6" r="3.2" fill="#ff922b" opacity="0.85"/>
<circle cx="372.7" cy="437.7" r="3.2" fill="#ff922b" opacity="0.85"/>
<circle cx="379.1" cy="382.6" r="3.2" fill="#ff922b" opacity="0.85"/>
<circle cx="385.5" cy="394.7" r="3.2" fill="#ff922b" opacity="0.85"/>
<circle cx="391.9" cy="399.6" r="3.2" fill="#ff922b" opacity="0.85"/>
<circle cx="398.2" cy="385.6" r="3.2" fill="#ff922b" opacity="0.85"/>
<circle cx="404.6" cy="402.9" r="3.2" fill="#ff922b" opacity="0.85"/>
<circle cx="411.0" cy="396.3" r="3.2" fill="#ff922b" opacity="0.85"/>
<circle cx="417.4" cy="366.6" r="3.2" fill="#ff922b" opacity="0.85"/>
<circle cx="423.8" cy="403.7" r="3.2" fill="#ff922b" opacity="0.85"/>
<circle cx="430.1" cy="350.9" r="3.2" fill="#ff922b" opacity="0.85"/>
<circle cx="436.5" cy="344.5" r="3.2" fill="#ff922b" opacity="0.85"/>
<circle cx="442.9" cy="402.3" r="3.2" fill="#ff922b" opacity="0.85"/>
<circle cx="449.3" cy="391.9" r="3.2" fill="#ff922b" opacity="0.85"/>
<circle cx="455.6" cy="401.2" r="3.2" fill="#ff922b" opacity="0.85"/>
<circle cx="462.0" cy="397.4" r="3.2" fill="#ff922b" opacity="0.85"/>
<circle cx="468.4" cy="405.2" r="3.2" fill="#ff922b" opacity="0.85"/>
<circle cx="474.8" cy="377.3" r="3.2" fill="#ff922b" opacity="0.85"/>
<circle cx="481.2" cy="433.2" r="3.2" fill="#ff922b" opacity="0.85"/>
<circle cx="487.5" cy="400.3" r="3.2" fill="#ff922b" opacity="0.85"/>
<circle cx="493.9" cy="416.3" r="3.2" fill="#ff922b" opacity="0.85"/>
<circle cx="500.3" cy="401.1" r="3.2" fill="#ff922b" opacity="0.85"/>
<circle cx="506.7" cy="396.3" r="3.2" fill="#ff922b" opacity="0.85"/>
<circle cx="513.1" cy="408.2" r="3.2" fill="#ff922b" opacity="0.85"/>
<circle cx="519.4" cy="400.8" r="3.2" fill="#ff922b" opacity="0.85"/>
<circle cx="525.8" cy="405.5" r="3.2" fill="#ff922b" opacity="0.85"/>
<circle cx="532.2" cy="401.5" r="3.2" fill="#ff922b" opacity="0.85"/>
<circle cx="538.6" cy="380.1" r="3.2" fill="#ff922b" opacity="0.85"/>
<circle cx="545.0" cy="413.0" r="3.2" fill="#ff922b" opacity="0.85"/>
<circle cx="551.3" cy="397.9" r="3.2" fill="#ff922b" opacity="0.85"/>
<circle cx="557.7" cy="412.9" r="3.2" fill="#ff922b" opacity="0.85"/>
<circle cx="564.1" cy="427.1" r="3.2" fill="#ff922b" opacity="0.85"/>
<circle cx="570.5" cy="405.3" r="3.2" fill="#ff922b" opacity="0.85"/>
<circle cx="576.9" cy="407.7" r="3.2" fill="#ff922b" opacity="0.85"/>
<circle cx="583.2" cy="389.7" r="3.2" fill="#ff922b" opacity="0.85"/>
<circle cx="589.6" cy="403.4" r="3.2" fill="#ff922b" opacity="0.85"/>
<circle cx="596.0" cy="402.6" r="3.2" fill="#ff922b" opacity="0.85"/>
<circle cx="602.4" cy="397.6" r="3.2" fill="#ff922b" opacity="0.85"/>
<circle cx="608.8" cy="402.0" r="3.2" fill="#ff922b" opacity="0.85"/>
<circle cx="615.1" cy="385.0" r="3.2" fill="#ff922b" opacity="0.85"/>
<circle cx="621.5" cy="407.0" r="3.2" fill="#ff922b" opacity="0.85"/>
<circle cx="627.9" cy="406.1" r="3.2" fill="#ff922b" opacity="0.85"/>
<circle cx="634.3" cy="399.6" r="3.2" fill="#ff922b" opacity="0.85"/>
<circle cx="640.7" cy="402.2" r="3.2" fill="#ff922b" opacity="0.85"/>
<circle cx="647.0" cy="401.5" r="3.2" fill="#ff922b" opacity="0.85"/>
<circle cx="653.4" cy="411.0" r="3.2" fill="#ff922b" opacity="0.85"/>
<circle cx="659.8" cy="402.0" r="3.2" fill="#ff922b" opacity="0.85"/>
<circle cx="666.2" cy="405.3" r="3.2" fill="#ff922b" opacity="0.85"/>
<circle cx="672.6" cy="398.1" r="3.2" fill="#ff922b" opacity="0.85"/>
<circle cx="678.9" cy="405.2" r="3.2" fill="#ff922b" opacity="0.85"/>
<circle cx="685.3" cy="398.2" r="3.2" fill="#ff922b" opacity="0.85"/>
<circle cx="691.7" cy="399.7" r="3.2" fill="#ff922b" opacity="0.85"/>
<circle cx="698.1" cy="397.4" r="3.2" fill="#ff922b" opacity="0.85"/>
<circle cx="704.5" cy="449.9" r="3.2" fill="#ff922b" opacity="0.85"/>
<circle cx="710.8" cy="414.9" r="3.2" fill="#ff922b" opacity="0.85"/>
<circle cx="717.2" cy="407.0" r="3.2" fill="#ff922b" opacity="0.85"/>
<circle cx="723.6" cy="366.5" r="3.2" fill="#ff922b" opacity="0.85"/>
<circle cx="730.0" cy="399.1" r="3.2" fill="#ff922b" opacity="0.85"/>
<circle cx="736.4" cy="403.6" r="3.2" fill="#ff922b" opacity="0.85"/>
<circle cx="742.7" cy="408.3" r="3.2" fill="#ff922b" opacity="0.85"/>
<circle cx="749.1" cy="401.9" r="3.2" fill="#ff922b" opacity="0.85"/>
<circle cx="755.5" cy="386.1" r="3.2" fill="#ff922b" opacity="0.85"/>
<circle cx="761.9" cy="387.7" r="3.2" fill="#ff922b" opacity="0.85"/>
<circle cx="768.3" cy="401.6" r="3.2" fill="#ff922b" opacity="0.85"/>
<circle cx="774.6" cy="303.3" r="3.2" fill="#ff922b" opacity="0.85"/>
<circle cx="781.0" cy="365.5" r="3.2" fill="#ff922b" opacity="0.85"/>
<circle cx="120.1" cy="399.5" r="2.6" fill="none" stroke="#d4a017" stroke-width="1.8" opacity="0.7999999999999999"/>
<circle cx="126.5" cy="401.6" r="2.6" fill="none" stroke="#d4a017" stroke-width="1.8" opacity="0.7999999999999999"/>
<circle cx="145.6" cy="399.6" r="2.6" fill="none" stroke="#d4a017" stroke-width="1.8" opacity="0.7999999999999999"/>
<circle cx="152.0" cy="390.0" r="2.6" fill="none" stroke="#d4a017" stroke-width="1.8" opacity="0.7999999999999999"/>
<circle cx="158.4" cy="383.3" r="2.6" fill="none" stroke="#d4a017" stroke-width="1.8" opacity="0.7999999999999999"/>
<circle cx="171.2" cy="394.8" r="2.6" fill="none" stroke="#d4a017" stroke-width="1.8" opacity="0.7999999999999999"/>
<circle cx="203.1" cy="394.1" r="2.6" fill="none" stroke="#d4a017" stroke-width="1.8" opacity="0.7999999999999999"/>
<circle cx="266.9" cy="403.1" r="2.6" fill="none" stroke="#d4a017" stroke-width="1.8" opacity="0.7999999999999999"/>
<circle cx="305.1" cy="401.0" r="2.6" fill="none" stroke="#d4a017" stroke-width="1.8" opacity="0.7999999999999999"/>
<circle cx="381.7" cy="394.2" r="2.6" fill="none" stroke="#d4a017" stroke-width="1.8" opacity="0.7999999999999999"/>
<circle cx="694.3" cy="400.4" r="2.6" fill="none" stroke="#d4a017" stroke-width="1.8" opacity="0.7999999999999999"/>
<circle cx="726.2" cy="365.4" r="2.6" fill="none" stroke="#d4a017" stroke-width="1.8" opacity="0.7999999999999999"/>
<circle cx="732.6" cy="399.3" r="2.6" fill="none" stroke="#d4a017" stroke-width="1.8" opacity="0.7999999999999999"/>
<circle cx="777.2" cy="402.2" r="2.6" fill="none" stroke="#d4a017" stroke-width="1.8" opacity="0.7999999999999999"/>
<circle cx="847" cy="84" r="5" fill="#ff922b"/>
<text x="866" y="88" font-size="13" fill="#c9d1d9" font-weight="700">Kāra</text>
<line x1="836" y1="108" x2="858" y2="108" stroke="#a7b0bc" stroke-width="2" stroke-dasharray="5 4"/>
<text x="866" y="112" font-size="13" fill="#c9d1d9" font-weight="400">Rust (default) = 1.0×</text>
<circle cx="847" cy="132" r="4" fill="#3fb950"/>
<text x="866" y="136" font-size="13" fill="#c9d1d9" font-weight="400">C</text>
<circle cx="847" cy="156" r="4" fill="#bc8cff"/>
<text x="866" y="160" font-size="13" fill="#c9d1d9" font-weight="400">Go</text>
<circle cx="847" cy="180" r="4" fill="none" stroke="#d4a017" stroke-width="1.8"/>
<text x="866" y="184" font-size="12" fill="#c9d1d9" font-weight="400">Rust (checked)</text>
<text x="70" y="502" font-size="11.5" fill="#c9d1d9">Solid Rust = 1.0× is the release default — it wraps silently on overflow. Hollow rings ◌ are Rust built overflow-checked,</text>
<text x="70" y="518" font-size="11.5" fill="#c9d1d9">the same safety kāra enforces by default: median 1.05× the cost of plain Rust across the 14 overflow-exercising programs. At that matched safety kāra is ≈ 1.04× — compare kāra to the rings.</text>
<text x="70" y="538" font-size="11.5" fill="#8b949e">Each dot is one benchmarked program (kata × approach); there is no connecting line because left-to-right order is not meaningful. Raw numbers: bench-results.json</text>
</svg>