<svg xmlns="http://www.w3.org/2000/svg" width="980" height="560" viewBox="0 0 980 560" font-family="-apple-system,Segoe UI,Helvetica,Arial,sans-serif">
<rect width="980" height="560" fill="#282c34"/>
<text x="70" y="34" font-size="21" font-weight="700" fill="#c9d1d9">Runtime — sequential lane</text>
<text x="70" y="56" font-size="13" fill="#8b949e">relative to Rust = 1.0 · lower = faster · 46 programs</text>
<line x1="70" y1="456.0" x2="812" y2="456.0" stroke="#3b414b" stroke-width="1"/>
<text x="60" y="460.0" font-size="12" text-anchor="end" fill="#8b949e">0.0×</text>
<line x1="70" y1="408.8" x2="812" y2="408.8" stroke="#a7b0bc" stroke-width="2" stroke-dasharray="5 4"/>
<text x="60" y="412.8" font-size="12" text-anchor="end" fill="#aeb6c0" font-weight="700">1.0×</text>
<line x1="70" y1="380.4" x2="812" y2="380.4" stroke="#3b414b" stroke-width="1"/>
<text x="60" y="384.4" font-size="12" text-anchor="end" fill="#8b949e">1.6×</text>
<line x1="70" y1="304.8" x2="812" y2="304.8" stroke="#3b414b" stroke-width="1"/>
<text x="60" y="308.8" font-size="12" text-anchor="end" fill="#8b949e">3.2×</text>
<line x1="70" y1="229.2" x2="812" y2="229.2" stroke="#3b414b" stroke-width="1"/>
<text x="60" y="233.2" font-size="12" text-anchor="end" fill="#8b949e">4.8×</text>
<line x1="70" y1="153.6" x2="812" y2="153.6" stroke="#3b414b" stroke-width="1"/>
<text x="60" y="157.6" font-size="12" text-anchor="end" fill="#8b949e">6.4×</text>
<line x1="70" y1="78.0" x2="812" y2="78.0" stroke="#3b414b" stroke-width="1"/>
<text x="60" y="82.0" font-size="12" text-anchor="end" fill="#8b949e">8.0×</text>
<text x="812" y="402.8" font-size="11" text-anchor="end" fill="#aeb6c0">Rust baseline</text>
<line x1="70" y1="456" x2="812" y2="456" stroke="#3b414b"/>
<text x="441.0" y="478" font-size="11" text-anchor="middle" fill="#8b949e">46 programs (kata × approach) — x-order carries no meaning</text>
<circle cx="99.7" cy="412.1" r="2.6" fill="#3fb950" opacity="0.7"/>
<circle cx="114.8" cy="428.3" r="2.6" fill="#3fb950" opacity="0.7"/>
<circle cx="130.0" cy="432.7" r="2.6" fill="#3fb950" opacity="0.7"/>
<circle cx="145.2" cy="445.3" r="2.6" fill="#3fb950" opacity="0.7"/>
<circle cx="160.4" cy="418.4" r="2.6" fill="#3fb950" opacity="0.7"/>
<circle cx="175.5" cy="417.8" r="2.6" fill="#3fb950" opacity="0.7"/>
<circle cx="190.7" cy="408.2" r="2.6" fill="#3fb950" opacity="0.7"/>
<circle cx="205.9" cy="407.6" r="2.6" fill="#3fb950" opacity="0.7"/>
<circle cx="221.0" cy="405.1" r="2.6" fill="#3fb950" opacity="0.7"/>
<circle cx="236.2" cy="402.4" r="2.6" fill="#3fb950" opacity="0.7"/>
<circle cx="251.4" cy="408.7" r="2.6" fill="#3fb950" opacity="0.7"/>
<circle cx="266.5" cy="415.1" r="2.6" fill="#3fb950" opacity="0.7"/>
<circle cx="281.7" cy="399.9" r="2.6" fill="#3fb950" opacity="0.7"/>
<circle cx="296.9" cy="407.4" r="2.6" fill="#3fb950" opacity="0.7"/>
<circle cx="312.1" cy="416.1" r="2.6" fill="#3fb950" opacity="0.7"/>
<circle cx="327.2" cy="402.8" r="2.6" fill="#3fb950" opacity="0.7"/>
<circle cx="342.4" cy="369.3" r="2.6" fill="#3fb950" opacity="0.7"/>
<circle cx="357.6" cy="422.1" r="2.6" fill="#3fb950" opacity="0.7"/>
<circle cx="372.7" cy="409.0" r="2.6" fill="#3fb950" opacity="0.7"/>
<circle cx="387.9" cy="428.1" r="2.6" fill="#3fb950" opacity="0.7"/>
<circle cx="403.1" cy="411.9" r="2.6" fill="#3fb950" opacity="0.7"/>
<circle cx="418.2" cy="422.1" r="2.6" fill="#3fb950" opacity="0.7"/>
<circle cx="433.4" cy="442.0" r="2.6" fill="#3fb950" opacity="0.7"/>
<circle cx="448.6" cy="426.3" r="2.6" fill="#3fb950" opacity="0.7"/>
<circle cx="463.8" cy="421.5" r="2.6" fill="#3fb950" opacity="0.7"/>
<circle cx="478.9" cy="423.8" r="2.6" fill="#3fb950" opacity="0.7"/>
<circle cx="494.1" cy="407.3" r="2.6" fill="#3fb950" opacity="0.7"/>
<circle cx="509.3" cy="406.8" r="2.6" fill="#3fb950" opacity="0.7"/>
<circle cx="524.4" cy="408.4" r="2.6" fill="#3fb950" opacity="0.7"/>
<circle cx="539.6" cy="420.1" r="2.6" fill="#3fb950" opacity="0.7"/>
<circle cx="554.8" cy="408.4" r="2.6" fill="#3fb950" opacity="0.7"/>
<circle cx="569.9" cy="438.3" r="2.6" fill="#3fb950" opacity="0.7"/>
<circle cx="585.1" cy="377.2" r="2.6" fill="#3fb950" opacity="0.7"/>
<circle cx="600.3" cy="400.8" r="2.6" fill="#3fb950" opacity="0.7"/>
<circle cx="615.5" cy="450.9" r="2.6" fill="#3fb950" opacity="0.7"/>
<circle cx="630.6" cy="425.1" r="2.6" fill="#3fb950" opacity="0.7"/>
<circle cx="645.8" cy="402.2" r="2.6" fill="#3fb950" opacity="0.7"/>
<circle cx="661.0" cy="411.0" r="2.6" fill="#3fb950" opacity="0.7"/>
<circle cx="676.1" cy="446.3" r="2.6" fill="#3fb950" opacity="0.7"/>
<circle cx="691.3" cy="420.2" r="2.6" fill="#3fb950" opacity="0.7"/>
<circle cx="706.5" cy="415.9" r="2.6" fill="#3fb950" opacity="0.7"/>
<circle cx="721.6" cy="409.4" r="2.6" fill="#3fb950" opacity="0.7"/>
<circle cx="736.8" cy="418.4" r="2.6" fill="#3fb950" opacity="0.7"/>
<circle cx="752.0" cy="412.1" r="2.6" fill="#3fb950" opacity="0.7"/>
<circle cx="767.2" cy="398.6" r="2.6" fill="#3fb950" opacity="0.7"/>
<circle cx="782.3" cy="412.5" r="2.6" fill="#3fb950" opacity="0.7"/>
<circle cx="102.3" cy="410.7" r="2.6" fill="#bc8cff" opacity="0.7"/>
<circle cx="117.5" cy="397.2" r="2.6" fill="#bc8cff" opacity="0.7"/>
<circle cx="132.7" cy="429.4" r="2.6" fill="#bc8cff" opacity="0.7"/>
<circle cx="147.8" cy="399.4" r="2.6" fill="#bc8cff" opacity="0.7"/>
<circle cx="163.0" cy="370.4" r="2.6" fill="#bc8cff" opacity="0.7"/>
<circle cx="178.2" cy="399.8" r="2.6" fill="#bc8cff" opacity="0.7"/>
<circle cx="193.3" cy="337.2" r="2.6" fill="#bc8cff" opacity="0.7"/>
<circle cx="208.5" cy="401.8" r="2.6" fill="#bc8cff" opacity="0.7"/>
<circle cx="223.7" cy="395.7" r="2.6" fill="#bc8cff" opacity="0.7"/>
<circle cx="238.8" cy="373.7" r="2.6" fill="#bc8cff" opacity="0.7"/>
<circle cx="254.0" cy="385.5" r="2.6" fill="#bc8cff" opacity="0.7"/>
<circle cx="269.2" cy="427.9" r="2.6" fill="#bc8cff" opacity="0.7"/>
<circle cx="284.4" cy="409.2" r="2.6" fill="#bc8cff" opacity="0.7"/>
<circle cx="299.5" cy="409.3" r="2.6" fill="#bc8cff" opacity="0.7"/>
<circle cx="314.7" cy="416.7" r="2.6" fill="#bc8cff" opacity="0.7"/>
<circle cx="329.9" cy="378.0" r="2.6" fill="#bc8cff" opacity="0.7"/>
<circle cx="345.0" cy="314.4" r="2.6" fill="#bc8cff" opacity="0.7"/>
<circle cx="360.2" cy="422.2" r="2.6" fill="#bc8cff" opacity="0.7"/>
<circle cx="375.4" cy="390.8" r="2.6" fill="#bc8cff" opacity="0.7"/>
<circle cx="390.5" cy="429.9" r="2.6" fill="#bc8cff" opacity="0.7"/>
<circle cx="405.7" cy="402.0" r="2.6" fill="#bc8cff" opacity="0.7"/>
<circle cx="420.9" cy="424.7" r="2.6" fill="#bc8cff" opacity="0.7"/>
<circle cx="436.0" cy="439.4" r="2.6" fill="#bc8cff" opacity="0.7"/>
<circle cx="451.2" cy="433.3" r="2.6" fill="#bc8cff" opacity="0.7"/>
<circle cx="466.4" cy="431.3" r="2.6" fill="#bc8cff" opacity="0.7"/>
<circle cx="481.6" cy="431.7" r="2.6" fill="#bc8cff" opacity="0.7"/>
<circle cx="496.7" cy="402.1" r="2.6" fill="#bc8cff" opacity="0.7"/>
<circle cx="511.9" cy="397.1" r="2.6" fill="#bc8cff" opacity="0.7"/>
<circle cx="527.1" cy="307.9" r="2.6" fill="#bc8cff" opacity="0.7"/>
<circle cx="542.2" cy="387.0" r="2.6" fill="#bc8cff" opacity="0.7"/>
<circle cx="557.4" cy="401.5" r="2.6" fill="#bc8cff" opacity="0.7"/>
<circle cx="572.6" cy="327.7" r="2.6" fill="#bc8cff" opacity="0.7"/>
<circle cx="587.7" cy="118.9" r="2.6" fill="#bc8cff" opacity="0.7"/>
<circle cx="602.9" cy="397.6" r="2.6" fill="#bc8cff" opacity="0.7"/>
<circle cx="618.1" cy="434.5" r="2.6" fill="#bc8cff" opacity="0.7"/>
<circle cx="633.3" cy="401.0" r="2.6" fill="#bc8cff" opacity="0.7"/>
<circle cx="648.4" cy="393.9" r="2.6" fill="#bc8cff" opacity="0.7"/>
<circle cx="663.6" cy="403.3" r="2.6" fill="#bc8cff" opacity="0.7"/>
<circle cx="678.8" cy="403.5" r="2.6" fill="#bc8cff" opacity="0.7"/>
<circle cx="693.9" cy="424.2" r="2.6" fill="#bc8cff" opacity="0.7"/>
<circle cx="709.1" cy="373.3" r="2.6" fill="#bc8cff" opacity="0.7"/>
<circle cx="724.3" cy="415.0" r="2.6" fill="#bc8cff" opacity="0.7"/>
<circle cx="739.4" cy="377.3" r="2.6" fill="#bc8cff" opacity="0.7"/>
<circle cx="754.6" cy="399.0" r="2.6" fill="#bc8cff" opacity="0.7"/>
<circle cx="769.8" cy="273.8" r="2.6" fill="#bc8cff" opacity="0.7"/>
<circle cx="785.0" cy="350.5" r="2.6" fill="#bc8cff" opacity="0.7"/>
<circle cx="97.0" cy="412.5" r="3.2" fill="#ff922b" opacity="0.85"/>
<circle cx="112.2" cy="419.8" r="3.2" fill="#ff922b" opacity="0.85"/>
<circle cx="127.4" cy="432.3" r="3.2" fill="#ff922b" opacity="0.85"/>
<circle cx="142.6" cy="437.2" r="3.2" fill="#ff922b" opacity="0.85"/>
<circle cx="157.7" cy="409.1" r="3.2" fill="#ff922b" opacity="0.85"/>
<circle cx="172.9" cy="411.4" r="3.2" fill="#ff922b" opacity="0.85"/>
<circle cx="188.1" cy="408.9" r="3.2" fill="#ff922b" opacity="0.85"/>
<circle cx="203.2" cy="408.7" r="3.2" fill="#ff922b" opacity="0.85"/>
<circle cx="218.4" cy="410.6" r="3.2" fill="#ff922b" opacity="0.85"/>
<circle cx="233.6" cy="401.0" r="3.2" fill="#ff922b" opacity="0.85"/>
<circle cx="248.7" cy="409.8" r="3.2" fill="#ff922b" opacity="0.85"/>
<circle cx="263.9" cy="414.7" r="3.2" fill="#ff922b" opacity="0.85"/>
<circle cx="279.1" cy="410.8" r="3.2" fill="#ff922b" opacity="0.85"/>
<circle cx="294.3" cy="416.1" r="3.2" fill="#ff922b" opacity="0.85"/>
<circle cx="309.4" cy="397.8" r="3.2" fill="#ff922b" opacity="0.85"/>
<circle cx="324.6" cy="414.3" r="3.2" fill="#ff922b" opacity="0.85"/>
<circle cx="339.8" cy="404.8" r="3.2" fill="#ff922b" opacity="0.85"/>
<circle cx="354.9" cy="409.4" r="3.2" fill="#ff922b" opacity="0.85"/>
<circle cx="370.1" cy="413.2" r="3.2" fill="#ff922b" opacity="0.85"/>
<circle cx="385.3" cy="424.6" r="3.2" fill="#ff922b" opacity="0.85"/>
<circle cx="400.4" cy="413.6" r="3.2" fill="#ff922b" opacity="0.85"/>
<circle cx="415.6" cy="417.1" r="3.2" fill="#ff922b" opacity="0.85"/>
<circle cx="430.8" cy="439.5" r="3.2" fill="#ff922b" opacity="0.85"/>
<circle cx="446.0" cy="423.2" r="3.2" fill="#ff922b" opacity="0.85"/>
<circle cx="461.1" cy="417.5" r="3.2" fill="#ff922b" opacity="0.85"/>
<circle cx="476.3" cy="413.7" r="3.2" fill="#ff922b" opacity="0.85"/>
<circle cx="491.5" cy="405.5" r="3.2" fill="#ff922b" opacity="0.85"/>
<circle cx="506.6" cy="407.0" r="3.2" fill="#ff922b" opacity="0.85"/>
<circle cx="521.8" cy="408.7" r="3.2" fill="#ff922b" opacity="0.85"/>
<circle cx="537.0" cy="409.3" r="3.2" fill="#ff922b" opacity="0.85"/>
<circle cx="552.1" cy="407.2" r="3.2" fill="#ff922b" opacity="0.85"/>
<circle cx="567.3" cy="309.8" r="3.2" fill="#ff922b" opacity="0.85"/>
<circle cx="582.5" cy="404.9" r="3.2" fill="#ff922b" opacity="0.85"/>
<circle cx="597.6" cy="401.4" r="3.2" fill="#ff922b" opacity="0.85"/>
<circle cx="612.8" cy="408.1" r="3.2" fill="#ff922b" opacity="0.85"/>
<circle cx="628.0" cy="414.3" r="3.2" fill="#ff922b" opacity="0.85"/>
<circle cx="643.2" cy="407.8" r="3.2" fill="#ff922b" opacity="0.85"/>
<circle cx="658.3" cy="408.7" r="3.2" fill="#ff922b" opacity="0.85"/>
<circle cx="673.5" cy="424.0" r="3.2" fill="#ff922b" opacity="0.85"/>
<circle cx="688.7" cy="412.6" r="3.2" fill="#ff922b" opacity="0.85"/>
<circle cx="703.8" cy="412.1" r="3.2" fill="#ff922b" opacity="0.85"/>
<circle cx="719.0" cy="393.1" r="3.2" fill="#ff922b" opacity="0.85"/>
<circle cx="734.2" cy="409.7" r="3.2" fill="#ff922b" opacity="0.85"/>
<circle cx="749.3" cy="410.6" r="3.2" fill="#ff922b" opacity="0.85"/>
<circle cx="764.5" cy="400.4" r="3.2" fill="#ff922b" opacity="0.85"/>
<circle cx="779.7" cy="405.4" r="3.2" fill="#ff922b" opacity="0.85"/>
<circle cx="847" cy="84" r="5" fill="#ff922b"/>
<text x="866" y="88" font-size="13" fill="#c9d1d9" font-weight="700">Kāra</text>
<line x1="836" y1="108" x2="858" y2="108" stroke="#a7b0bc" stroke-width="2" stroke-dasharray="5 4"/>
<text x="866" y="112" font-size="13" fill="#c9d1d9" font-weight="400">Rust = 1.0×</text>
<circle cx="847" cy="132" r="4" fill="#3fb950"/>
<text x="866" y="136" font-size="13" fill="#c9d1d9" font-weight="400">C</text>
<circle cx="847" cy="156" r="4" fill="#bc8cff"/>
<text x="866" y="160" font-size="13" fill="#c9d1d9" font-weight="400">Go</text>
<text x="70" y="538" font-size="11.5" fill="#8b949e">Each dot is one benchmarked program (kata × approach); there is no connecting line because left-to-right order is not meaningful. Raw numbers: bench-results.json</text>
</svg>