<svg xmlns="http://www.w3.org/2000/svg" width="980" height="560" viewBox="0 0 980 560" font-family="-apple-system,Segoe UI,Helvetica,Arial,sans-serif">
<rect width="980" height="560" fill="#282c34"/>
<text x="70" y="34" font-size="21" font-weight="700" fill="#c9d1d9">Runtime — sequential lane</text>
<text x="70" y="56" font-size="13" fill="#8b949e">relative to Rust = 1.0 · lower = faster · 27 programs</text>
<line x1="70" y1="456.0" x2="812" y2="456.0" stroke="#3b414b" stroke-width="1"/>
<text x="60" y="460.0" font-size="12" text-anchor="end" fill="#8b949e">0.0×</text>
<line x1="70" y1="380.4" x2="812" y2="380.4" stroke="#3b414b" stroke-width="1"/>
<text x="60" y="384.4" font-size="12" text-anchor="end" fill="#8b949e">1.6×</text>
<line x1="70" y1="304.8" x2="812" y2="304.8" stroke="#3b414b" stroke-width="1"/>
<text x="60" y="308.8" font-size="12" text-anchor="end" fill="#8b949e">3.2×</text>
<line x1="70" y1="229.2" x2="812" y2="229.2" stroke="#3b414b" stroke-width="1"/>
<text x="60" y="233.2" font-size="12" text-anchor="end" fill="#8b949e">4.8×</text>
<line x1="70" y1="153.6" x2="812" y2="153.6" stroke="#3b414b" stroke-width="1"/>
<text x="60" y="157.6" font-size="12" text-anchor="end" fill="#8b949e">6.4×</text>
<line x1="70" y1="78.0" x2="812" y2="78.0" stroke="#3b414b" stroke-width="1"/>
<text x="60" y="82.0" font-size="12" text-anchor="end" fill="#8b949e">8.0×</text>
<text x="812" y="402.8" font-size="11" text-anchor="end" fill="#aeb6c0">Rust baseline</text>
<line x1="99.7" y1="456" x2="99.7" y2="461" stroke="#3b414b"/>
<g transform="translate(99.7,474) rotate(35)">
<text x="0" y="0" font-size="10.5" fill="#8b949e">#1</text>
<text x="0" y="12" font-size="10.5" fill="#8b949e">brute_force</text>
</g>
<line x1="125.9" y1="456" x2="125.9" y2="461" stroke="#3b414b"/>
<g transform="translate(125.9,474) rotate(35)">
<text x="0" y="0" font-size="10.5" fill="#8b949e">#1</text>
<text x="0" y="12" font-size="10.5" fill="#8b949e">hash_map</text>
</g>
<line x1="152.2" y1="456" x2="152.2" y2="461" stroke="#3b414b"/>
<g transform="translate(152.2,474) rotate(35)">
<text x="0" y="0" font-size="10.5" fill="#8b949e">#2</text>
<text x="0" y="12" font-size="10.5" fill="#8b949e">iterative</text>
</g>
<line x1="178.4" y1="456" x2="178.4" y2="461" stroke="#3b414b"/>
<g transform="translate(178.4,474) rotate(35)">
<text x="0" y="0" font-size="10.5" fill="#8b949e">#3</text>
<text x="0" y="12" font-size="10.5" fill="#8b949e">sliding_window</text>
</g>
<line x1="204.7" y1="456" x2="204.7" y2="461" stroke="#3b414b"/>
<g transform="translate(204.7,474) rotate(35)">
<text x="0" y="0" font-size="10.5" fill="#8b949e">#4</text>
<text x="0" y="12" font-size="10.5" fill="#8b949e">binary_search…</text>
</g>
<line x1="231.0" y1="456" x2="231.0" y2="461" stroke="#3b414b"/>
<g transform="translate(231.0,474) rotate(35)">
<text x="0" y="0" font-size="10.5" fill="#8b949e">#5</text>
<text x="0" y="12" font-size="10.5" fill="#8b949e">expand_around…</text>
</g>
<line x1="257.2" y1="456" x2="257.2" y2="461" stroke="#3b414b"/>
<g transform="translate(257.2,474) rotate(35)">
<text x="0" y="0" font-size="10.5" fill="#8b949e">#6</text>
<text x="0" y="12" font-size="10.5" fill="#8b949e">row_buffers</text>
</g>
<line x1="283.5" y1="456" x2="283.5" y2="461" stroke="#3b414b"/>
<g transform="translate(283.5,474) rotate(35)">
<text x="0" y="0" font-size="10.5" fill="#8b949e">#7</text>
<text x="0" y="12" font-size="10.5" fill="#8b949e">reverse</text>
</g>
<line x1="309.7" y1="456" x2="309.7" y2="461" stroke="#3b414b"/>
<g transform="translate(309.7,474) rotate(35)">
<text x="0" y="0" font-size="10.5" fill="#8b949e">#8</text>
<text x="0" y="12" font-size="10.5" fill="#8b949e">atoi</text>
</g>
<line x1="336.0" y1="456" x2="336.0" y2="461" stroke="#3b414b"/>
<g transform="translate(336.0,474) rotate(35)">
<text x="0" y="0" font-size="10.5" fill="#8b949e">#9</text>
<text x="0" y="12" font-size="10.5" fill="#8b949e">palindrome</text>
</g>
<line x1="362.2" y1="456" x2="362.2" y2="461" stroke="#3b414b"/>
<g transform="translate(362.2,474) rotate(35)">
<text x="0" y="0" font-size="10.5" fill="#8b949e">#10</text>
<text x="0" y="12" font-size="10.5" fill="#8b949e">regex</text>
</g>
<line x1="388.5" y1="456" x2="388.5" y2="461" stroke="#3b414b"/>
<g transform="translate(388.5,474) rotate(35)">
<text x="0" y="0" font-size="10.5" fill="#8b949e">#11</text>
<text x="0" y="12" font-size="10.5" fill="#8b949e">container</text>
</g>
<line x1="414.7" y1="456" x2="414.7" y2="461" stroke="#3b414b"/>
<g transform="translate(414.7,474) rotate(35)">
<text x="0" y="0" font-size="10.5" fill="#8b949e">#12</text>
<text x="0" y="12" font-size="10.5" fill="#8b949e">greedy</text>
</g>
<line x1="441.0" y1="456" x2="441.0" y2="461" stroke="#3b414b"/>
<g transform="translate(441.0,474) rotate(35)">
<text x="0" y="0" font-size="10.5" fill="#8b949e">#13</text>
<text x="0" y="12" font-size="10.5" fill="#8b949e">greedy</text>
</g>
<line x1="467.3" y1="456" x2="467.3" y2="461" stroke="#3b414b"/>
<g transform="translate(467.3,474) rotate(35)">
<text x="0" y="0" font-size="10.5" fill="#8b949e">#14</text>
<text x="0" y="12" font-size="10.5" fill="#8b949e">vertical</text>
</g>
<line x1="493.5" y1="456" x2="493.5" y2="461" stroke="#3b414b"/>
<g transform="translate(493.5,474) rotate(35)">
<text x="0" y="0" font-size="10.5" fill="#8b949e">#15</text>
<text x="0" y="12" font-size="10.5" fill="#8b949e">three_sum</text>
</g>
<line x1="519.8" y1="456" x2="519.8" y2="461" stroke="#3b414b"/>
<g transform="translate(519.8,474) rotate(35)">
<text x="0" y="0" font-size="10.5" fill="#8b949e">#16</text>
<text x="0" y="12" font-size="10.5" fill="#8b949e">three_sum_clo…</text>
</g>
<line x1="546.0" y1="456" x2="546.0" y2="461" stroke="#3b414b"/>
<g transform="translate(546.0,474) rotate(35)">
<text x="0" y="0" font-size="10.5" fill="#8b949e">#17</text>
<text x="0" y="12" font-size="10.5" fill="#8b949e">letter_combin…</text>
</g>
<line x1="572.3" y1="456" x2="572.3" y2="461" stroke="#3b414b"/>
<g transform="translate(572.3,474) rotate(35)">
<text x="0" y="0" font-size="10.5" fill="#8b949e">#18</text>
<text x="0" y="12" font-size="10.5" fill="#8b949e">four_sum</text>
</g>
<line x1="598.5" y1="456" x2="598.5" y2="461" stroke="#3b414b"/>
<g transform="translate(598.5,474) rotate(35)">
<text x="0" y="0" font-size="10.5" fill="#8b949e">#19</text>
<text x="0" y="12" font-size="10.5" fill="#8b949e">remove_nth</text>
</g>
<line x1="624.8" y1="456" x2="624.8" y2="461" stroke="#3b414b"/>
<g transform="translate(624.8,474) rotate(35)">
<text x="0" y="0" font-size="10.5" fill="#8b949e">#20</text>
<text x="0" y="12" font-size="10.5" fill="#8b949e">valid_parenth…</text>
</g>
<line x1="651.0" y1="456" x2="651.0" y2="461" stroke="#3b414b"/>
<g transform="translate(651.0,474) rotate(35)">
<text x="0" y="0" font-size="10.5" fill="#8b949e">#21</text>
<text x="0" y="12" font-size="10.5" fill="#8b949e">iterative</text>
</g>
<line x1="677.3" y1="456" x2="677.3" y2="461" stroke="#3b414b"/>
<g transform="translate(677.3,474) rotate(35)">
<text x="0" y="0" font-size="10.5" fill="#8b949e">#56</text>
<text x="0" y="12" font-size="10.5" fill="#8b949e">merge_interva…</text>
</g>
<line x1="703.6" y1="456" x2="703.6" y2="461" stroke="#3b414b"/>
<g transform="translate(703.6,474) rotate(35)">
<text x="0" y="0" font-size="10.5" fill="#8b949e">#65</text>
<text x="0" y="12" font-size="10.5" fill="#8b949e">valid</text>
</g>
<line x1="729.8" y1="456" x2="729.8" y2="461" stroke="#3b414b"/>
<g transform="translate(729.8,474) rotate(35)">
<text x="0" y="0" font-size="10.5" fill="#8b949e">#71</text>
<text x="0" y="12" font-size="10.5" fill="#8b949e">simplify</text>
</g>
<line x1="756.1" y1="456" x2="756.1" y2="461" stroke="#3b414b"/>
<g transform="translate(756.1,474) rotate(35)">
<text x="0" y="0" font-size="10.5" fill="#8b949e">#88</text>
<text x="0" y="12" font-size="10.5" fill="#8b949e">two_pointer</text>
</g>
<line x1="782.3" y1="456" x2="782.3" y2="461" stroke="#3b414b"/>
<g transform="translate(782.3,474) rotate(35)">
<text x="0" y="0" font-size="10.5" fill="#8b949e">#204</text>
<text x="0" y="12" font-size="10.5" fill="#8b949e">count</text>
</g>
<circle cx="99.7" cy="412.1" r="4.0" fill="#3fb950" opacity="0.95"/>
<circle cx="125.9" cy="428.3" r="4.0" fill="#3fb950" opacity="0.95"/>
<circle cx="152.2" cy="432.1" r="4.0" fill="#3fb950" opacity="0.95"/>
<circle cx="178.4" cy="445.3" r="4.0" fill="#3fb950" opacity="0.95"/>
<circle cx="204.7" cy="418.4" r="4.0" fill="#3fb950" opacity="0.95"/>
<circle cx="231.0" cy="416.5" r="4.0" fill="#3fb950" opacity="0.95"/>
<circle cx="257.2" cy="408.8" r="4.0" fill="#3fb950" opacity="0.95"/>
<circle cx="283.5" cy="407.6" r="4.0" fill="#3fb950" opacity="0.95"/>
<circle cx="309.7" cy="405.1" r="4.0" fill="#3fb950" opacity="0.95"/>
<circle cx="336.0" cy="402.4" r="4.0" fill="#3fb950" opacity="0.95"/>
<circle cx="362.2" cy="408.7" r="4.0" fill="#3fb950" opacity="0.95"/>
<circle cx="388.5" cy="415.1" r="4.0" fill="#3fb950" opacity="0.95"/>
<circle cx="414.7" cy="399.9" r="4.0" fill="#3fb950" opacity="0.95"/>
<circle cx="441.0" cy="407.4" r="4.0" fill="#3fb950" opacity="0.95"/>
<circle cx="467.3" cy="416.1" r="4.0" fill="#3fb950" opacity="0.95"/>
<circle cx="493.5" cy="402.8" r="4.0" fill="#3fb950" opacity="0.95"/>
<circle cx="519.8" cy="369.3" r="4.0" fill="#3fb950" opacity="0.95"/>
<circle cx="546.0" cy="422.1" r="4.0" fill="#3fb950" opacity="0.95"/>
<circle cx="572.3" cy="409.0" r="4.0" fill="#3fb950" opacity="0.95"/>
<circle cx="598.5" cy="428.1" r="4.0" fill="#3fb950" opacity="0.95"/>
<circle cx="624.8" cy="411.9" r="4.0" fill="#3fb950" opacity="0.95"/>
<circle cx="651.0" cy="421.7" r="4.0" fill="#3fb950" opacity="0.95"/>
<circle cx="677.3" cy="377.2" r="4.0" fill="#3fb950" opacity="0.95"/>
<circle cx="703.6" cy="400.8" r="4.0" fill="#3fb950" opacity="0.95"/>
<circle cx="729.8" cy="450.9" r="4.0" fill="#3fb950" opacity="0.95"/>
<circle cx="756.1" cy="424.9" r="4.0" fill="#3fb950" opacity="0.95"/>
<circle cx="782.3" cy="409.4" r="4.0" fill="#3fb950" opacity="0.95"/>
<circle cx="103.5" cy="410.7" r="4.0" fill="#bc8cff" opacity="0.95"/>
<circle cx="129.8" cy="397.2" r="4.0" fill="#bc8cff" opacity="0.95"/>
<circle cx="156.0" cy="430.6" r="4.0" fill="#bc8cff" opacity="0.95"/>
<circle cx="182.3" cy="399.4" r="4.0" fill="#bc8cff" opacity="0.95"/>
<circle cx="208.5" cy="370.4" r="4.0" fill="#bc8cff" opacity="0.95"/>
<circle cx="234.8" cy="398.6" r="4.0" fill="#bc8cff" opacity="0.95"/>
<circle cx="261.0" cy="337.9" r="4.0" fill="#bc8cff" opacity="0.95"/>
<circle cx="287.3" cy="401.8" r="4.0" fill="#bc8cff" opacity="0.95"/>
<circle cx="313.6" cy="395.7" r="4.0" fill="#bc8cff" opacity="0.95"/>
<circle cx="339.8" cy="373.7" r="4.0" fill="#bc8cff" opacity="0.95"/>
<circle cx="366.1" cy="385.5" r="4.0" fill="#bc8cff" opacity="0.95"/>
<circle cx="392.3" cy="427.9" r="4.0" fill="#bc8cff" opacity="0.95"/>
<circle cx="418.6" cy="409.2" r="4.0" fill="#bc8cff" opacity="0.95"/>
<circle cx="444.8" cy="409.3" r="4.0" fill="#bc8cff" opacity="0.95"/>
<circle cx="471.1" cy="416.7" r="4.0" fill="#bc8cff" opacity="0.95"/>
<circle cx="497.3" cy="378.0" r="4.0" fill="#bc8cff" opacity="0.95"/>
<circle cx="523.6" cy="314.4" r="4.0" fill="#bc8cff" opacity="0.95"/>
<circle cx="549.9" cy="422.2" r="4.0" fill="#bc8cff" opacity="0.95"/>
<circle cx="576.1" cy="390.8" r="4.0" fill="#bc8cff" opacity="0.95"/>
<circle cx="602.4" cy="429.9" r="4.0" fill="#bc8cff" opacity="0.95"/>
<circle cx="628.6" cy="402.0" r="4.0" fill="#bc8cff" opacity="0.95"/>
<circle cx="654.9" cy="424.2" r="4.0" fill="#bc8cff" opacity="0.95"/>
<circle cx="681.1" cy="118.9" r="4.0" fill="#bc8cff" opacity="0.95"/>
<circle cx="707.4" cy="397.6" r="4.0" fill="#bc8cff" opacity="0.95"/>
<circle cx="733.6" cy="434.5" r="4.0" fill="#bc8cff" opacity="0.95"/>
<circle cx="759.9" cy="400.5" r="4.0" fill="#bc8cff" opacity="0.95"/>
<circle cx="786.2" cy="415.0" r="4.0" fill="#bc8cff" opacity="0.95"/>
<circle cx="95.8" cy="412.5" r="5.0" fill="#ff922b" opacity="1.0"/>
<circle cx="122.1" cy="419.8" r="5.0" fill="#ff922b" opacity="1.0"/>
<circle cx="148.4" cy="425.6" r="5.0" fill="#ff922b" opacity="1.0"/>
<circle cx="174.6" cy="437.2" r="5.0" fill="#ff922b" opacity="1.0"/>
<circle cx="200.9" cy="409.1" r="5.0" fill="#ff922b" opacity="1.0"/>
<circle cx="227.1" cy="405.6" r="5.0" fill="#ff922b" opacity="1.0"/>
<circle cx="253.4" cy="406.1" r="5.0" fill="#ff922b" opacity="1.0"/>
<circle cx="279.6" cy="408.7" r="5.0" fill="#ff922b" opacity="1.0"/>
<circle cx="305.9" cy="410.6" r="5.0" fill="#ff922b" opacity="1.0"/>
<circle cx="332.1" cy="401.0" r="5.0" fill="#ff922b" opacity="1.0"/>
<circle cx="358.4" cy="409.8" r="5.0" fill="#ff922b" opacity="1.0"/>
<circle cx="384.7" cy="414.7" r="5.0" fill="#ff922b" opacity="1.0"/>
<circle cx="410.9" cy="410.8" r="5.0" fill="#ff922b" opacity="1.0"/>
<circle cx="437.2" cy="416.1" r="5.0" fill="#ff922b" opacity="1.0"/>
<circle cx="463.4" cy="397.8" r="5.0" fill="#ff922b" opacity="1.0"/>
<circle cx="489.7" cy="414.3" r="5.0" fill="#ff922b" opacity="1.0"/>
<circle cx="515.9" cy="404.8" r="5.0" fill="#ff922b" opacity="1.0"/>
<circle cx="542.2" cy="409.4" r="5.0" fill="#ff922b" opacity="1.0"/>
<circle cx="568.4" cy="413.2" r="5.0" fill="#ff922b" opacity="1.0"/>
<circle cx="594.7" cy="424.6" r="5.0" fill="#ff922b" opacity="1.0"/>
<circle cx="621.0" cy="413.6" r="5.0" fill="#ff922b" opacity="1.0"/>
<circle cx="647.2" cy="420.2" r="5.0" fill="#ff922b" opacity="1.0"/>
<circle cx="673.5" cy="404.9" r="5.0" fill="#ff922b" opacity="1.0"/>
<circle cx="699.7" cy="401.4" r="5.0" fill="#ff922b" opacity="1.0"/>
<circle cx="726.0" cy="408.1" r="5.0" fill="#ff922b" opacity="1.0"/>
<circle cx="752.2" cy="414.3" r="5.0" fill="#ff922b" opacity="1.0"/>
<circle cx="778.5" cy="393.1" r="5.0" fill="#ff922b" opacity="1.0"/>
<circle cx="847" cy="84" r="5" fill="#ff922b"/>
<text x="866" y="88" font-size="13" fill="#c9d1d9" font-weight="700">Kāra</text>
<line x1="836" y1="108" x2="858" y2="108" stroke="#6e7681" stroke-width="1.6" stroke-dasharray="5 4"/>
<text x="866" y="112" font-size="13" fill="#c9d1d9" font-weight="400">Rust</text>
<circle cx="847" cy="132" r="4" fill="#3fb950"/>
<text x="866" y="136" font-size="13" fill="#c9d1d9" font-weight="400">C</text>
<circle cx="847" cy="156" r="4" fill="#bc8cff"/>
<text x="866" y="160" font-size="13" fill="#c9d1d9" font-weight="400">Go</text>
<text x="70" y="538" font-size="11.5" fill="#8b949e">Each dot is one benchmarked program (kata × approach); there is no connecting line because left-to-right order is not meaningful. Raw numbers: bench-results.json</text>
</svg>