<svg xmlns="http://www.w3.org/2000/svg" width="980" height="560" viewBox="0 0 980 560" font-family="-apple-system,Segoe UI,Helvetica,Arial,sans-serif">
<rect width="980" height="560" fill="#282c34"/>
<text x="70" y="34" font-size="21" font-weight="700" fill="#c9d1d9">Runtime — sequential lane</text>
<text x="70" y="56" font-size="13" fill="#8b949e">relative to Rust = 1.0 · lower = faster · 38 programs</text>
<line x1="70" y1="456.0" x2="812" y2="456.0" stroke="#3b414b" stroke-width="1"/>
<text x="60" y="460.0" font-size="12" text-anchor="end" fill="#8b949e">0.0×</text>
<line x1="70" y1="408.8" x2="812" y2="408.8" stroke="#a7b0bc" stroke-width="2" stroke-dasharray="5 4"/>
<text x="60" y="412.8" font-size="12" text-anchor="end" fill="#aeb6c0" font-weight="700">1.0×</text>
<line x1="70" y1="380.4" x2="812" y2="380.4" stroke="#3b414b" stroke-width="1"/>
<text x="60" y="384.4" font-size="12" text-anchor="end" fill="#8b949e">1.6×</text>
<line x1="70" y1="304.8" x2="812" y2="304.8" stroke="#3b414b" stroke-width="1"/>
<text x="60" y="308.8" font-size="12" text-anchor="end" fill="#8b949e">3.2×</text>
<line x1="70" y1="229.2" x2="812" y2="229.2" stroke="#3b414b" stroke-width="1"/>
<text x="60" y="233.2" font-size="12" text-anchor="end" fill="#8b949e">4.8×</text>
<line x1="70" y1="153.6" x2="812" y2="153.6" stroke="#3b414b" stroke-width="1"/>
<text x="60" y="157.6" font-size="12" text-anchor="end" fill="#8b949e">6.4×</text>
<line x1="70" y1="78.0" x2="812" y2="78.0" stroke="#3b414b" stroke-width="1"/>
<text x="60" y="82.0" font-size="12" text-anchor="end" fill="#8b949e">8.0×</text>
<text x="812" y="402.8" font-size="11" text-anchor="end" fill="#aeb6c0">Rust baseline</text>
<line x1="70" y1="456" x2="812" y2="456" stroke="#3b414b"/>
<text x="441.0" y="478" font-size="11" text-anchor="middle" fill="#8b949e">38 programs (kata × approach) — x-order carries no meaning</text>
<circle cx="99.7" cy="412.1" r="2.6" fill="#3fb950" opacity="0.7"/>
<circle cx="118.1" cy="428.3" r="2.6" fill="#3fb950" opacity="0.7"/>
<circle cx="136.6" cy="432.7" r="2.6" fill="#3fb950" opacity="0.7"/>
<circle cx="155.0" cy="445.3" r="2.6" fill="#3fb950" opacity="0.7"/>
<circle cx="173.5" cy="418.4" r="2.6" fill="#3fb950" opacity="0.7"/>
<circle cx="191.9" cy="417.8" r="2.6" fill="#3fb950" opacity="0.7"/>
<circle cx="210.4" cy="408.2" r="2.6" fill="#3fb950" opacity="0.7"/>
<circle cx="228.8" cy="407.6" r="2.6" fill="#3fb950" opacity="0.7"/>
<circle cx="247.3" cy="405.1" r="2.6" fill="#3fb950" opacity="0.7"/>
<circle cx="265.7" cy="402.4" r="2.6" fill="#3fb950" opacity="0.7"/>
<circle cx="284.2" cy="408.7" r="2.6" fill="#3fb950" opacity="0.7"/>
<circle cx="302.6" cy="415.1" r="2.6" fill="#3fb950" opacity="0.7"/>
<circle cx="321.1" cy="399.9" r="2.6" fill="#3fb950" opacity="0.7"/>
<circle cx="339.5" cy="407.4" r="2.6" fill="#3fb950" opacity="0.7"/>
<circle cx="358.0" cy="416.1" r="2.6" fill="#3fb950" opacity="0.7"/>
<circle cx="376.4" cy="402.8" r="2.6" fill="#3fb950" opacity="0.7"/>
<circle cx="394.9" cy="369.3" r="2.6" fill="#3fb950" opacity="0.7"/>
<circle cx="413.3" cy="422.1" r="2.6" fill="#3fb950" opacity="0.7"/>
<circle cx="431.8" cy="409.0" r="2.6" fill="#3fb950" opacity="0.7"/>
<circle cx="450.2" cy="428.1" r="2.6" fill="#3fb950" opacity="0.7"/>
<circle cx="468.7" cy="411.9" r="2.6" fill="#3fb950" opacity="0.7"/>
<circle cx="487.1" cy="422.1" r="2.6" fill="#3fb950" opacity="0.7"/>
<circle cx="505.6" cy="442.0" r="2.6" fill="#3fb950" opacity="0.7"/>
<circle cx="524.0" cy="426.3" r="2.6" fill="#3fb950" opacity="0.7"/>
<circle cx="542.5" cy="377.2" r="2.6" fill="#3fb950" opacity="0.7"/>
<circle cx="560.9" cy="400.8" r="2.6" fill="#3fb950" opacity="0.7"/>
<circle cx="579.4" cy="450.9" r="2.6" fill="#3fb950" opacity="0.7"/>
<circle cx="597.8" cy="425.1" r="2.6" fill="#3fb950" opacity="0.7"/>
<circle cx="616.3" cy="402.2" r="2.6" fill="#3fb950" opacity="0.7"/>
<circle cx="634.7" cy="411.0" r="2.6" fill="#3fb950" opacity="0.7"/>
<circle cx="653.2" cy="446.3" r="2.6" fill="#3fb950" opacity="0.7"/>
<circle cx="671.6" cy="420.2" r="2.6" fill="#3fb950" opacity="0.7"/>
<circle cx="690.1" cy="415.9" r="2.6" fill="#3fb950" opacity="0.7"/>
<circle cx="708.5" cy="409.4" r="2.6" fill="#3fb950" opacity="0.7"/>
<circle cx="727.0" cy="418.4" r="2.6" fill="#3fb950" opacity="0.7"/>
<circle cx="745.4" cy="412.1" r="2.6" fill="#3fb950" opacity="0.7"/>
<circle cx="763.9" cy="398.6" r="2.6" fill="#3fb950" opacity="0.7"/>
<circle cx="782.3" cy="412.5" r="2.6" fill="#3fb950" opacity="0.7"/>
<circle cx="102.3" cy="410.7" r="2.6" fill="#bc8cff" opacity="0.7"/>
<circle cx="120.8" cy="397.2" r="2.6" fill="#bc8cff" opacity="0.7"/>
<circle cx="139.2" cy="429.4" r="2.6" fill="#bc8cff" opacity="0.7"/>
<circle cx="157.7" cy="399.4" r="2.6" fill="#bc8cff" opacity="0.7"/>
<circle cx="176.1" cy="370.4" r="2.6" fill="#bc8cff" opacity="0.7"/>
<circle cx="194.6" cy="399.8" r="2.6" fill="#bc8cff" opacity="0.7"/>
<circle cx="213.0" cy="337.2" r="2.6" fill="#bc8cff" opacity="0.7"/>
<circle cx="231.5" cy="401.8" r="2.6" fill="#bc8cff" opacity="0.7"/>
<circle cx="249.9" cy="395.7" r="2.6" fill="#bc8cff" opacity="0.7"/>
<circle cx="268.4" cy="373.7" r="2.6" fill="#bc8cff" opacity="0.7"/>
<circle cx="286.8" cy="385.5" r="2.6" fill="#bc8cff" opacity="0.7"/>
<circle cx="305.3" cy="427.9" r="2.6" fill="#bc8cff" opacity="0.7"/>
<circle cx="323.7" cy="409.2" r="2.6" fill="#bc8cff" opacity="0.7"/>
<circle cx="342.2" cy="409.3" r="2.6" fill="#bc8cff" opacity="0.7"/>
<circle cx="360.6" cy="416.7" r="2.6" fill="#bc8cff" opacity="0.7"/>
<circle cx="379.1" cy="378.0" r="2.6" fill="#bc8cff" opacity="0.7"/>
<circle cx="397.5" cy="314.4" r="2.6" fill="#bc8cff" opacity="0.7"/>
<circle cx="416.0" cy="422.2" r="2.6" fill="#bc8cff" opacity="0.7"/>
<circle cx="434.4" cy="390.8" r="2.6" fill="#bc8cff" opacity="0.7"/>
<circle cx="452.9" cy="429.9" r="2.6" fill="#bc8cff" opacity="0.7"/>
<circle cx="471.3" cy="402.0" r="2.6" fill="#bc8cff" opacity="0.7"/>
<circle cx="489.8" cy="424.7" r="2.6" fill="#bc8cff" opacity="0.7"/>
<circle cx="508.2" cy="439.4" r="2.6" fill="#bc8cff" opacity="0.7"/>
<circle cx="526.7" cy="433.3" r="2.6" fill="#bc8cff" opacity="0.7"/>
<circle cx="545.1" cy="118.9" r="2.6" fill="#bc8cff" opacity="0.7"/>
<circle cx="563.6" cy="397.6" r="2.6" fill="#bc8cff" opacity="0.7"/>
<circle cx="582.0" cy="434.5" r="2.6" fill="#bc8cff" opacity="0.7"/>
<circle cx="600.5" cy="401.0" r="2.6" fill="#bc8cff" opacity="0.7"/>
<circle cx="618.9" cy="393.9" r="2.6" fill="#bc8cff" opacity="0.7"/>
<circle cx="637.4" cy="403.3" r="2.6" fill="#bc8cff" opacity="0.7"/>
<circle cx="655.8" cy="403.5" r="2.6" fill="#bc8cff" opacity="0.7"/>
<circle cx="674.3" cy="424.2" r="2.6" fill="#bc8cff" opacity="0.7"/>
<circle cx="692.7" cy="373.3" r="2.6" fill="#bc8cff" opacity="0.7"/>
<circle cx="711.2" cy="415.0" r="2.6" fill="#bc8cff" opacity="0.7"/>
<circle cx="729.6" cy="377.3" r="2.6" fill="#bc8cff" opacity="0.7"/>
<circle cx="748.1" cy="399.0" r="2.6" fill="#bc8cff" opacity="0.7"/>
<circle cx="766.5" cy="273.8" r="2.6" fill="#bc8cff" opacity="0.7"/>
<circle cx="785.0" cy="350.5" r="2.6" fill="#bc8cff" opacity="0.7"/>
<circle cx="97.0" cy="412.5" r="3.2" fill="#ff922b" opacity="0.85"/>
<circle cx="115.5" cy="419.8" r="3.2" fill="#ff922b" opacity="0.85"/>
<circle cx="133.9" cy="432.3" r="3.2" fill="#ff922b" opacity="0.85"/>
<circle cx="152.4" cy="437.2" r="3.2" fill="#ff922b" opacity="0.85"/>
<circle cx="170.8" cy="409.1" r="3.2" fill="#ff922b" opacity="0.85"/>
<circle cx="189.3" cy="411.4" r="3.2" fill="#ff922b" opacity="0.85"/>
<circle cx="207.7" cy="408.9" r="3.2" fill="#ff922b" opacity="0.85"/>
<circle cx="226.2" cy="408.7" r="3.2" fill="#ff922b" opacity="0.85"/>
<circle cx="244.6" cy="410.6" r="3.2" fill="#ff922b" opacity="0.85"/>
<circle cx="263.1" cy="401.0" r="3.2" fill="#ff922b" opacity="0.85"/>
<circle cx="281.5" cy="409.8" r="3.2" fill="#ff922b" opacity="0.85"/>
<circle cx="300.0" cy="414.7" r="3.2" fill="#ff922b" opacity="0.85"/>
<circle cx="318.4" cy="410.8" r="3.2" fill="#ff922b" opacity="0.85"/>
<circle cx="336.9" cy="416.1" r="3.2" fill="#ff922b" opacity="0.85"/>
<circle cx="355.3" cy="397.8" r="3.2" fill="#ff922b" opacity="0.85"/>
<circle cx="373.8" cy="414.3" r="3.2" fill="#ff922b" opacity="0.85"/>
<circle cx="392.2" cy="404.8" r="3.2" fill="#ff922b" opacity="0.85"/>
<circle cx="410.7" cy="409.4" r="3.2" fill="#ff922b" opacity="0.85"/>
<circle cx="429.1" cy="413.2" r="3.2" fill="#ff922b" opacity="0.85"/>
<circle cx="447.6" cy="424.6" r="3.2" fill="#ff922b" opacity="0.85"/>
<circle cx="466.0" cy="413.6" r="3.2" fill="#ff922b" opacity="0.85"/>
<circle cx="484.5" cy="417.1" r="3.2" fill="#ff922b" opacity="0.85"/>
<circle cx="502.9" cy="439.5" r="3.2" fill="#ff922b" opacity="0.85"/>
<circle cx="521.4" cy="423.2" r="3.2" fill="#ff922b" opacity="0.85"/>
<circle cx="539.8" cy="404.9" r="3.2" fill="#ff922b" opacity="0.85"/>
<circle cx="558.3" cy="401.4" r="3.2" fill="#ff922b" opacity="0.85"/>
<circle cx="576.7" cy="408.1" r="3.2" fill="#ff922b" opacity="0.85"/>
<circle cx="595.2" cy="414.3" r="3.2" fill="#ff922b" opacity="0.85"/>
<circle cx="613.6" cy="407.8" r="3.2" fill="#ff922b" opacity="0.85"/>
<circle cx="632.1" cy="408.7" r="3.2" fill="#ff922b" opacity="0.85"/>
<circle cx="650.5" cy="424.0" r="3.2" fill="#ff922b" opacity="0.85"/>
<circle cx="669.0" cy="412.6" r="3.2" fill="#ff922b" opacity="0.85"/>
<circle cx="687.4" cy="412.1" r="3.2" fill="#ff922b" opacity="0.85"/>
<circle cx="705.9" cy="393.1" r="3.2" fill="#ff922b" opacity="0.85"/>
<circle cx="724.3" cy="409.7" r="3.2" fill="#ff922b" opacity="0.85"/>
<circle cx="742.8" cy="410.6" r="3.2" fill="#ff922b" opacity="0.85"/>
<circle cx="761.2" cy="400.4" r="3.2" fill="#ff922b" opacity="0.85"/>
<circle cx="779.7" cy="405.4" r="3.2" fill="#ff922b" opacity="0.85"/>
<circle cx="847" cy="84" r="5" fill="#ff922b"/>
<text x="866" y="88" font-size="13" fill="#c9d1d9" font-weight="700">Kāra</text>
<line x1="836" y1="108" x2="858" y2="108" stroke="#a7b0bc" stroke-width="2" stroke-dasharray="5 4"/>
<text x="866" y="112" font-size="13" fill="#c9d1d9" font-weight="400">Rust = 1.0×</text>
<circle cx="847" cy="132" r="4" fill="#3fb950"/>
<text x="866" y="136" font-size="13" fill="#c9d1d9" font-weight="400">C</text>
<circle cx="847" cy="156" r="4" fill="#bc8cff"/>
<text x="866" y="160" font-size="13" fill="#c9d1d9" font-weight="400">Go</text>
<text x="70" y="538" font-size="11.5" fill="#8b949e">Each dot is one benchmarked program (kata × approach); there is no connecting line because left-to-right order is not meaningful. Raw numbers: bench-results.json</text>
</svg>