<svg xmlns="http://www.w3.org/2000/svg" width="980" height="560" viewBox="0 0 980 560" font-family="-apple-system,Segoe UI,Helvetica,Arial,sans-serif">
<rect width="980" height="560" fill="#282c34"/>
<text x="70" y="34" font-size="21" font-weight="700" fill="#c9d1d9">Runtime — sequential lane</text>
<text x="70" y="56" font-size="13" fill="#8b949e">relative to Rust = 1.0 · lower = faster · 24 programs</text>
<line x1="70" y1="456.0" x2="812" y2="456.0" stroke="#3b414b" stroke-width="1"/>
<text x="60" y="460.0" font-size="12" text-anchor="end" fill="#8b949e">0.0×</text>
<line x1="70" y1="380.4" x2="812" y2="380.4" stroke="#3b414b" stroke-width="1"/>
<text x="60" y="384.4" font-size="12" text-anchor="end" fill="#8b949e">1.6×</text>
<line x1="70" y1="304.8" x2="812" y2="304.8" stroke="#3b414b" stroke-width="1"/>
<text x="60" y="308.8" font-size="12" text-anchor="end" fill="#8b949e">3.2×</text>
<line x1="70" y1="229.2" x2="812" y2="229.2" stroke="#3b414b" stroke-width="1"/>
<text x="60" y="233.2" font-size="12" text-anchor="end" fill="#8b949e">4.8×</text>
<line x1="70" y1="153.6" x2="812" y2="153.6" stroke="#3b414b" stroke-width="1"/>
<text x="60" y="157.6" font-size="12" text-anchor="end" fill="#8b949e">6.4×</text>
<line x1="70" y1="78.0" x2="812" y2="78.0" stroke="#3b414b" stroke-width="1"/>
<text x="60" y="82.0" font-size="12" text-anchor="end" fill="#8b949e">8.0×</text>
<text x="812" y="402.8" font-size="11" text-anchor="end" fill="#aeb6c0">Rust baseline</text>
<line x1="99.7" y1="456" x2="99.7" y2="461" stroke="#3b414b"/>
<g transform="translate(99.7,474) rotate(35)">
<text x="0" y="0" font-size="10.5" fill="#8b949e">#1</text>
<text x="0" y="12" font-size="10.5" fill="#8b949e">brute_force</text>
</g>
<line x1="129.4" y1="456" x2="129.4" y2="461" stroke="#3b414b"/>
<g transform="translate(129.4,474) rotate(35)">
<text x="0" y="0" font-size="10.5" fill="#8b949e">#1</text>
<text x="0" y="12" font-size="10.5" fill="#8b949e">hash_map</text>
</g>
<line x1="159.0" y1="456" x2="159.0" y2="461" stroke="#3b414b"/>
<g transform="translate(159.0,474) rotate(35)">
<text x="0" y="0" font-size="10.5" fill="#8b949e">#2</text>
<text x="0" y="12" font-size="10.5" fill="#8b949e">iterative</text>
</g>
<line x1="188.7" y1="456" x2="188.7" y2="461" stroke="#3b414b"/>
<g transform="translate(188.7,474) rotate(35)">
<text x="0" y="0" font-size="10.5" fill="#8b949e">#3</text>
<text x="0" y="12" font-size="10.5" fill="#8b949e">sliding_window</text>
</g>
<line x1="218.4" y1="456" x2="218.4" y2="461" stroke="#3b414b"/>
<g transform="translate(218.4,474) rotate(35)">
<text x="0" y="0" font-size="10.5" fill="#8b949e">#4</text>
<text x="0" y="12" font-size="10.5" fill="#8b949e">binary_search…</text>
</g>
<line x1="248.1" y1="456" x2="248.1" y2="461" stroke="#3b414b"/>
<g transform="translate(248.1,474) rotate(35)">
<text x="0" y="0" font-size="10.5" fill="#8b949e">#5</text>
<text x="0" y="12" font-size="10.5" fill="#8b949e">expand_around…</text>
</g>
<line x1="277.8" y1="456" x2="277.8" y2="461" stroke="#3b414b"/>
<g transform="translate(277.8,474) rotate(35)">
<text x="0" y="0" font-size="10.5" fill="#8b949e">#6</text>
<text x="0" y="12" font-size="10.5" fill="#8b949e">row_buffers</text>
</g>
<line x1="307.4" y1="456" x2="307.4" y2="461" stroke="#3b414b"/>
<g transform="translate(307.4,474) rotate(35)">
<text x="0" y="0" font-size="10.5" fill="#8b949e">#7</text>
<text x="0" y="12" font-size="10.5" fill="#8b949e">reverse</text>
</g>
<line x1="337.1" y1="456" x2="337.1" y2="461" stroke="#3b414b"/>
<g transform="translate(337.1,474) rotate(35)">
<text x="0" y="0" font-size="10.5" fill="#8b949e">#8</text>
<text x="0" y="12" font-size="10.5" fill="#8b949e">atoi</text>
</g>
<line x1="366.8" y1="456" x2="366.8" y2="461" stroke="#3b414b"/>
<g transform="translate(366.8,474) rotate(35)">
<text x="0" y="0" font-size="10.5" fill="#8b949e">#9</text>
<text x="0" y="12" font-size="10.5" fill="#8b949e">palindrome</text>
</g>
<line x1="396.5" y1="456" x2="396.5" y2="461" stroke="#3b414b"/>
<g transform="translate(396.5,474) rotate(35)">
<text x="0" y="0" font-size="10.5" fill="#8b949e">#10</text>
<text x="0" y="12" font-size="10.5" fill="#8b949e">regex</text>
</g>
<line x1="426.2" y1="456" x2="426.2" y2="461" stroke="#3b414b"/>
<g transform="translate(426.2,474) rotate(35)">
<text x="0" y="0" font-size="10.5" fill="#8b949e">#11</text>
<text x="0" y="12" font-size="10.5" fill="#8b949e">container</text>
</g>
<line x1="455.8" y1="456" x2="455.8" y2="461" stroke="#3b414b"/>
<g transform="translate(455.8,474) rotate(35)">
<text x="0" y="0" font-size="10.5" fill="#8b949e">#12</text>
<text x="0" y="12" font-size="10.5" fill="#8b949e">greedy</text>
</g>
<line x1="485.5" y1="456" x2="485.5" y2="461" stroke="#3b414b"/>
<g transform="translate(485.5,474) rotate(35)">
<text x="0" y="0" font-size="10.5" fill="#8b949e">#13</text>
<text x="0" y="12" font-size="10.5" fill="#8b949e">greedy</text>
</g>
<line x1="515.2" y1="456" x2="515.2" y2="461" stroke="#3b414b"/>
<g transform="translate(515.2,474) rotate(35)">
<text x="0" y="0" font-size="10.5" fill="#8b949e">#14</text>
<text x="0" y="12" font-size="10.5" fill="#8b949e">vertical</text>
</g>
<line x1="544.9" y1="456" x2="544.9" y2="461" stroke="#3b414b"/>
<g transform="translate(544.9,474) rotate(35)">
<text x="0" y="0" font-size="10.5" fill="#8b949e">#15</text>
<text x="0" y="12" font-size="10.5" fill="#8b949e">three_sum</text>
</g>
<line x1="574.6" y1="456" x2="574.6" y2="461" stroke="#3b414b"/>
<g transform="translate(574.6,474) rotate(35)">
<text x="0" y="0" font-size="10.5" fill="#8b949e">#16</text>
<text x="0" y="12" font-size="10.5" fill="#8b949e">three_sum_clo…</text>
</g>
<line x1="604.2" y1="456" x2="604.2" y2="461" stroke="#3b414b"/>
<g transform="translate(604.2,474) rotate(35)">
<text x="0" y="0" font-size="10.5" fill="#8b949e">#17</text>
<text x="0" y="12" font-size="10.5" fill="#8b949e">letter_combin…</text>
</g>
<line x1="633.9" y1="456" x2="633.9" y2="461" stroke="#3b414b"/>
<g transform="translate(633.9,474) rotate(35)">
<text x="0" y="0" font-size="10.5" fill="#8b949e">#18</text>
<text x="0" y="12" font-size="10.5" fill="#8b949e">four_sum</text>
</g>
<line x1="663.6" y1="456" x2="663.6" y2="461" stroke="#3b414b"/>
<g transform="translate(663.6,474) rotate(35)">
<text x="0" y="0" font-size="10.5" fill="#8b949e">#19</text>
<text x="0" y="12" font-size="10.5" fill="#8b949e">remove_nth</text>
</g>
<line x1="693.3" y1="456" x2="693.3" y2="461" stroke="#3b414b"/>
<g transform="translate(693.3,474) rotate(35)">
<text x="0" y="0" font-size="10.5" fill="#8b949e">#20</text>
<text x="0" y="12" font-size="10.5" fill="#8b949e">valid_parenth…</text>
</g>
<line x1="723.0" y1="456" x2="723.0" y2="461" stroke="#3b414b"/>
<g transform="translate(723.0,474) rotate(35)">
<text x="0" y="0" font-size="10.5" fill="#8b949e">#21</text>
<text x="0" y="12" font-size="10.5" fill="#8b949e">iterative</text>
</g>
<line x1="752.6" y1="456" x2="752.6" y2="461" stroke="#3b414b"/>
<g transform="translate(752.6,474) rotate(35)">
<text x="0" y="0" font-size="10.5" fill="#8b949e">#56</text>
<text x="0" y="12" font-size="10.5" fill="#8b949e">merge_interva…</text>
</g>
<line x1="782.3" y1="456" x2="782.3" y2="461" stroke="#3b414b"/>
<g transform="translate(782.3,474) rotate(35)">
<text x="0" y="0" font-size="10.5" fill="#8b949e">#204</text>
<text x="0" y="12" font-size="10.5" fill="#8b949e">count</text>
</g>
<circle cx="99.7" cy="412.1" r="4.0" fill="#3fb950" opacity="0.95"/>
<circle cx="129.4" cy="428.3" r="4.0" fill="#3fb950" opacity="0.95"/>
<circle cx="159.0" cy="432.1" r="4.0" fill="#3fb950" opacity="0.95"/>
<circle cx="188.7" cy="445.3" r="4.0" fill="#3fb950" opacity="0.95"/>
<circle cx="218.4" cy="418.4" r="4.0" fill="#3fb950" opacity="0.95"/>
<circle cx="248.1" cy="416.5" r="4.0" fill="#3fb950" opacity="0.95"/>
<circle cx="277.8" cy="408.8" r="4.0" fill="#3fb950" opacity="0.95"/>
<circle cx="307.4" cy="407.6" r="4.0" fill="#3fb950" opacity="0.95"/>
<circle cx="337.1" cy="405.1" r="4.0" fill="#3fb950" opacity="0.95"/>
<circle cx="366.8" cy="402.4" r="4.0" fill="#3fb950" opacity="0.95"/>
<circle cx="396.5" cy="408.7" r="4.0" fill="#3fb950" opacity="0.95"/>
<circle cx="426.2" cy="415.1" r="4.0" fill="#3fb950" opacity="0.95"/>
<circle cx="455.8" cy="399.9" r="4.0" fill="#3fb950" opacity="0.95"/>
<circle cx="485.5" cy="407.4" r="4.0" fill="#3fb950" opacity="0.95"/>
<circle cx="515.2" cy="416.1" r="4.0" fill="#3fb950" opacity="0.95"/>
<circle cx="544.9" cy="402.8" r="4.0" fill="#3fb950" opacity="0.95"/>
<circle cx="574.6" cy="369.3" r="4.0" fill="#3fb950" opacity="0.95"/>
<circle cx="604.2" cy="422.1" r="4.0" fill="#3fb950" opacity="0.95"/>
<circle cx="633.9" cy="409.0" r="4.0" fill="#3fb950" opacity="0.95"/>
<circle cx="663.6" cy="428.1" r="4.0" fill="#3fb950" opacity="0.95"/>
<circle cx="693.3" cy="411.9" r="4.0" fill="#3fb950" opacity="0.95"/>
<circle cx="723.0" cy="421.7" r="4.0" fill="#3fb950" opacity="0.95"/>
<circle cx="752.6" cy="377.2" r="4.0" fill="#3fb950" opacity="0.95"/>
<circle cx="782.3" cy="409.4" r="4.0" fill="#3fb950" opacity="0.95"/>
<circle cx="103.5" cy="410.7" r="4.0" fill="#bc8cff" opacity="0.95"/>
<circle cx="133.2" cy="397.2" r="4.0" fill="#bc8cff" opacity="0.95"/>
<circle cx="162.9" cy="430.6" r="4.0" fill="#bc8cff" opacity="0.95"/>
<circle cx="192.6" cy="399.4" r="4.0" fill="#bc8cff" opacity="0.95"/>
<circle cx="222.2" cy="370.4" r="4.0" fill="#bc8cff" opacity="0.95"/>
<circle cx="251.9" cy="398.6" r="4.0" fill="#bc8cff" opacity="0.95"/>
<circle cx="281.6" cy="337.9" r="4.0" fill="#bc8cff" opacity="0.95"/>
<circle cx="311.3" cy="401.8" r="4.0" fill="#bc8cff" opacity="0.95"/>
<circle cx="341.0" cy="395.7" r="4.0" fill="#bc8cff" opacity="0.95"/>
<circle cx="370.6" cy="373.7" r="4.0" fill="#bc8cff" opacity="0.95"/>
<circle cx="400.3" cy="385.5" r="4.0" fill="#bc8cff" opacity="0.95"/>
<circle cx="430.0" cy="427.9" r="4.0" fill="#bc8cff" opacity="0.95"/>
<circle cx="459.7" cy="409.2" r="4.0" fill="#bc8cff" opacity="0.95"/>
<circle cx="489.4" cy="409.3" r="4.0" fill="#bc8cff" opacity="0.95"/>
<circle cx="519.0" cy="416.7" r="4.0" fill="#bc8cff" opacity="0.95"/>
<circle cx="548.7" cy="378.0" r="4.0" fill="#bc8cff" opacity="0.95"/>
<circle cx="578.4" cy="314.4" r="4.0" fill="#bc8cff" opacity="0.95"/>
<circle cx="608.1" cy="422.2" r="4.0" fill="#bc8cff" opacity="0.95"/>
<circle cx="637.8" cy="390.8" r="4.0" fill="#bc8cff" opacity="0.95"/>
<circle cx="667.4" cy="429.9" r="4.0" fill="#bc8cff" opacity="0.95"/>
<circle cx="697.1" cy="402.0" r="4.0" fill="#bc8cff" opacity="0.95"/>
<circle cx="726.8" cy="424.2" r="4.0" fill="#bc8cff" opacity="0.95"/>
<circle cx="756.5" cy="118.9" r="4.0" fill="#bc8cff" opacity="0.95"/>
<circle cx="786.2" cy="415.0" r="4.0" fill="#bc8cff" opacity="0.95"/>
<circle cx="95.8" cy="412.5" r="5.0" fill="#ff922b" opacity="1.0"/>
<circle cx="125.5" cy="419.8" r="5.0" fill="#ff922b" opacity="1.0"/>
<circle cx="155.2" cy="425.6" r="5.0" fill="#ff922b" opacity="1.0"/>
<circle cx="184.9" cy="437.2" r="5.0" fill="#ff922b" opacity="1.0"/>
<circle cx="214.6" cy="409.1" r="5.0" fill="#ff922b" opacity="1.0"/>
<circle cx="244.2" cy="405.6" r="5.0" fill="#ff922b" opacity="1.0"/>
<circle cx="273.9" cy="406.1" r="5.0" fill="#ff922b" opacity="1.0"/>
<circle cx="303.6" cy="408.7" r="5.0" fill="#ff922b" opacity="1.0"/>
<circle cx="333.3" cy="410.6" r="5.0" fill="#ff922b" opacity="1.0"/>
<circle cx="363.0" cy="401.0" r="5.0" fill="#ff922b" opacity="1.0"/>
<circle cx="392.6" cy="409.8" r="5.0" fill="#ff922b" opacity="1.0"/>
<circle cx="422.3" cy="414.7" r="5.0" fill="#ff922b" opacity="1.0"/>
<circle cx="452.0" cy="410.8" r="5.0" fill="#ff922b" opacity="1.0"/>
<circle cx="481.7" cy="416.1" r="5.0" fill="#ff922b" opacity="1.0"/>
<circle cx="511.4" cy="397.8" r="5.0" fill="#ff922b" opacity="1.0"/>
<circle cx="541.0" cy="414.3" r="5.0" fill="#ff922b" opacity="1.0"/>
<circle cx="570.7" cy="404.8" r="5.0" fill="#ff922b" opacity="1.0"/>
<circle cx="600.4" cy="409.4" r="5.0" fill="#ff922b" opacity="1.0"/>
<circle cx="630.1" cy="413.2" r="5.0" fill="#ff922b" opacity="1.0"/>
<circle cx="659.8" cy="424.6" r="5.0" fill="#ff922b" opacity="1.0"/>
<circle cx="689.4" cy="413.6" r="5.0" fill="#ff922b" opacity="1.0"/>
<circle cx="719.1" cy="420.2" r="5.0" fill="#ff922b" opacity="1.0"/>
<circle cx="748.8" cy="404.9" r="5.0" fill="#ff922b" opacity="1.0"/>
<circle cx="778.5" cy="393.1" r="5.0" fill="#ff922b" opacity="1.0"/>
<circle cx="847" cy="84" r="5" fill="#ff922b"/>
<text x="866" y="88" font-size="13" fill="#c9d1d9" font-weight="700">Kāra</text>
<line x1="836" y1="108" x2="858" y2="108" stroke="#6e7681" stroke-width="1.6" stroke-dasharray="5 4"/>
<text x="866" y="112" font-size="13" fill="#c9d1d9" font-weight="400">Rust</text>
<circle cx="847" cy="132" r="4" fill="#3fb950"/>
<text x="866" y="136" font-size="13" fill="#c9d1d9" font-weight="400">C</text>
<circle cx="847" cy="156" r="4" fill="#bc8cff"/>
<text x="866" y="160" font-size="13" fill="#c9d1d9" font-weight="400">Go</text>
<text x="70" y="538" font-size="11.5" fill="#8b949e">Each dot is one benchmarked program (kata × approach); there is no connecting line because left-to-right order is not meaningful. Raw numbers: bench-results.json</text>
</svg>