<svg xmlns="http://www.w3.org/2000/svg" width="980" height="560" viewBox="0 0 980 560" font-family="-apple-system,Segoe UI,Helvetica,Arial,sans-serif">
<rect width="980" height="560" fill="#282c34"/>
<text x="70" y="34" font-size="21" font-weight="700" fill="#c9d1d9">Runtime — sequential lane</text>
<text x="70" y="56" font-size="13" fill="#8b949e">relative to Rust = 1.0 · lower = faster · 48 programs</text>
<line x1="70" y1="456.0" x2="812" y2="456.0" stroke="#3b414b" stroke-width="1"/>
<text x="60" y="460.0" font-size="12" text-anchor="end" fill="#8b949e">0.0×</text>
<line x1="70" y1="408.8" x2="812" y2="408.8" stroke="#a7b0bc" stroke-width="2" stroke-dasharray="5 4"/>
<text x="60" y="412.8" font-size="12" text-anchor="end" fill="#aeb6c0" font-weight="700">1.0×</text>
<line x1="70" y1="380.4" x2="812" y2="380.4" stroke="#3b414b" stroke-width="1"/>
<text x="60" y="384.4" font-size="12" text-anchor="end" fill="#8b949e">1.6×</text>
<line x1="70" y1="304.8" x2="812" y2="304.8" stroke="#3b414b" stroke-width="1"/>
<text x="60" y="308.8" font-size="12" text-anchor="end" fill="#8b949e">3.2×</text>
<line x1="70" y1="229.2" x2="812" y2="229.2" stroke="#3b414b" stroke-width="1"/>
<text x="60" y="233.2" font-size="12" text-anchor="end" fill="#8b949e">4.8×</text>
<line x1="70" y1="153.6" x2="812" y2="153.6" stroke="#3b414b" stroke-width="1"/>
<text x="60" y="157.6" font-size="12" text-anchor="end" fill="#8b949e">6.4×</text>
<line x1="70" y1="78.0" x2="812" y2="78.0" stroke="#3b414b" stroke-width="1"/>
<text x="60" y="82.0" font-size="12" text-anchor="end" fill="#8b949e">8.0×</text>
<text x="812" y="402.8" font-size="11" text-anchor="end" fill="#aeb6c0">Rust baseline</text>
<line x1="70" y1="456" x2="812" y2="456" stroke="#3b414b"/>
<text x="441.0" y="478" font-size="11" text-anchor="middle" fill="#8b949e">48 programs (kata × approach) — x-order carries no meaning</text>
<circle cx="99.7" cy="412.1" r="2.6" fill="#3fb950" opacity="0.7"/>
<circle cx="114.2" cy="428.3" r="2.6" fill="#3fb950" opacity="0.7"/>
<circle cx="128.7" cy="432.7" r="2.6" fill="#3fb950" opacity="0.7"/>
<circle cx="143.3" cy="445.3" r="2.6" fill="#3fb950" opacity="0.7"/>
<circle cx="157.8" cy="418.4" r="2.6" fill="#3fb950" opacity="0.7"/>
<circle cx="172.3" cy="417.8" r="2.6" fill="#3fb950" opacity="0.7"/>
<circle cx="186.8" cy="408.2" r="2.6" fill="#3fb950" opacity="0.7"/>
<circle cx="201.3" cy="407.6" r="2.6" fill="#3fb950" opacity="0.7"/>
<circle cx="215.9" cy="405.1" r="2.6" fill="#3fb950" opacity="0.7"/>
<circle cx="230.4" cy="402.4" r="2.6" fill="#3fb950" opacity="0.7"/>
<circle cx="244.9" cy="408.7" r="2.6" fill="#3fb950" opacity="0.7"/>
<circle cx="259.4" cy="415.1" r="2.6" fill="#3fb950" opacity="0.7"/>
<circle cx="274.0" cy="399.9" r="2.6" fill="#3fb950" opacity="0.7"/>
<circle cx="288.5" cy="407.4" r="2.6" fill="#3fb950" opacity="0.7"/>
<circle cx="303.0" cy="416.1" r="2.6" fill="#3fb950" opacity="0.7"/>
<circle cx="317.5" cy="402.8" r="2.6" fill="#3fb950" opacity="0.7"/>
<circle cx="332.1" cy="369.3" r="2.6" fill="#3fb950" opacity="0.7"/>
<circle cx="346.6" cy="422.1" r="2.6" fill="#3fb950" opacity="0.7"/>
<circle cx="361.1" cy="409.0" r="2.6" fill="#3fb950" opacity="0.7"/>
<circle cx="375.6" cy="428.1" r="2.6" fill="#3fb950" opacity="0.7"/>
<circle cx="390.2" cy="411.9" r="2.6" fill="#3fb950" opacity="0.7"/>
<circle cx="404.7" cy="422.1" r="2.6" fill="#3fb950" opacity="0.7"/>
<circle cx="419.2" cy="442.0" r="2.6" fill="#3fb950" opacity="0.7"/>
<circle cx="433.7" cy="426.3" r="2.6" fill="#3fb950" opacity="0.7"/>
<circle cx="448.3" cy="421.5" r="2.6" fill="#3fb950" opacity="0.7"/>
<circle cx="462.8" cy="423.8" r="2.6" fill="#3fb950" opacity="0.7"/>
<circle cx="477.3" cy="407.3" r="2.6" fill="#3fb950" opacity="0.7"/>
<circle cx="491.8" cy="406.8" r="2.6" fill="#3fb950" opacity="0.7"/>
<circle cx="506.4" cy="408.4" r="2.6" fill="#3fb950" opacity="0.7"/>
<circle cx="520.9" cy="420.1" r="2.6" fill="#3fb950" opacity="0.7"/>
<circle cx="535.4" cy="408.4" r="2.6" fill="#3fb950" opacity="0.7"/>
<circle cx="549.9" cy="438.8" r="2.6" fill="#3fb950" opacity="0.7"/>
<circle cx="564.5" cy="377.2" r="2.6" fill="#3fb950" opacity="0.7"/>
<circle cx="579.0" cy="400.8" r="2.6" fill="#3fb950" opacity="0.7"/>
<circle cx="593.5" cy="450.9" r="2.6" fill="#3fb950" opacity="0.7"/>
<circle cx="608.0" cy="425.1" r="2.6" fill="#3fb950" opacity="0.7"/>
<circle cx="622.6" cy="402.2" r="2.6" fill="#3fb950" opacity="0.7"/>
<circle cx="637.1" cy="411.0" r="2.6" fill="#3fb950" opacity="0.7"/>
<circle cx="651.6" cy="446.3" r="2.6" fill="#3fb950" opacity="0.7"/>
<circle cx="666.1" cy="420.2" r="2.6" fill="#3fb950" opacity="0.7"/>
<circle cx="680.7" cy="415.9" r="2.6" fill="#3fb950" opacity="0.7"/>
<circle cx="695.2" cy="409.4" r="2.6" fill="#3fb950" opacity="0.7"/>
<circle cx="709.7" cy="418.4" r="2.6" fill="#3fb950" opacity="0.7"/>
<circle cx="724.2" cy="412.1" r="2.6" fill="#3fb950" opacity="0.7"/>
<circle cx="738.7" cy="409.8" r="2.6" fill="#3fb950" opacity="0.7"/>
<circle cx="753.3" cy="414.0" r="2.6" fill="#3fb950" opacity="0.7"/>
<circle cx="767.8" cy="398.6" r="2.6" fill="#3fb950" opacity="0.7"/>
<circle cx="782.3" cy="412.5" r="2.6" fill="#3fb950" opacity="0.7"/>
<circle cx="102.3" cy="410.7" r="2.6" fill="#bc8cff" opacity="0.7"/>
<circle cx="116.8" cy="397.2" r="2.6" fill="#bc8cff" opacity="0.7"/>
<circle cx="131.4" cy="429.4" r="2.6" fill="#bc8cff" opacity="0.7"/>
<circle cx="145.9" cy="399.4" r="2.6" fill="#bc8cff" opacity="0.7"/>
<circle cx="160.4" cy="370.4" r="2.6" fill="#bc8cff" opacity="0.7"/>
<circle cx="174.9" cy="399.8" r="2.6" fill="#bc8cff" opacity="0.7"/>
<circle cx="189.5" cy="337.2" r="2.6" fill="#bc8cff" opacity="0.7"/>
<circle cx="204.0" cy="401.8" r="2.6" fill="#bc8cff" opacity="0.7"/>
<circle cx="218.5" cy="395.7" r="2.6" fill="#bc8cff" opacity="0.7"/>
<circle cx="233.0" cy="373.7" r="2.6" fill="#bc8cff" opacity="0.7"/>
<circle cx="247.6" cy="385.5" r="2.6" fill="#bc8cff" opacity="0.7"/>
<circle cx="262.1" cy="427.9" r="2.6" fill="#bc8cff" opacity="0.7"/>
<circle cx="276.6" cy="409.2" r="2.6" fill="#bc8cff" opacity="0.7"/>
<circle cx="291.1" cy="409.3" r="2.6" fill="#bc8cff" opacity="0.7"/>
<circle cx="305.7" cy="416.7" r="2.6" fill="#bc8cff" opacity="0.7"/>
<circle cx="320.2" cy="378.0" r="2.6" fill="#bc8cff" opacity="0.7"/>
<circle cx="334.7" cy="314.4" r="2.6" fill="#bc8cff" opacity="0.7"/>
<circle cx="349.2" cy="422.2" r="2.6" fill="#bc8cff" opacity="0.7"/>
<circle cx="363.7" cy="390.8" r="2.6" fill="#bc8cff" opacity="0.7"/>
<circle cx="378.3" cy="429.9" r="2.6" fill="#bc8cff" opacity="0.7"/>
<circle cx="392.8" cy="402.0" r="2.6" fill="#bc8cff" opacity="0.7"/>
<circle cx="407.3" cy="424.7" r="2.6" fill="#bc8cff" opacity="0.7"/>
<circle cx="421.8" cy="439.4" r="2.6" fill="#bc8cff" opacity="0.7"/>
<circle cx="436.4" cy="433.3" r="2.6" fill="#bc8cff" opacity="0.7"/>
<circle cx="450.9" cy="431.3" r="2.6" fill="#bc8cff" opacity="0.7"/>
<circle cx="465.4" cy="431.7" r="2.6" fill="#bc8cff" opacity="0.7"/>
<circle cx="479.9" cy="402.1" r="2.6" fill="#bc8cff" opacity="0.7"/>
<circle cx="494.5" cy="397.1" r="2.6" fill="#bc8cff" opacity="0.7"/>
<circle cx="509.0" cy="307.9" r="2.6" fill="#bc8cff" opacity="0.7"/>
<circle cx="523.5" cy="387.0" r="2.6" fill="#bc8cff" opacity="0.7"/>
<circle cx="538.0" cy="401.5" r="2.6" fill="#bc8cff" opacity="0.7"/>
<circle cx="552.6" cy="330.4" r="2.6" fill="#bc8cff" opacity="0.7"/>
<circle cx="567.1" cy="118.9" r="2.6" fill="#bc8cff" opacity="0.7"/>
<circle cx="581.6" cy="397.6" r="2.6" fill="#bc8cff" opacity="0.7"/>
<circle cx="596.1" cy="434.5" r="2.6" fill="#bc8cff" opacity="0.7"/>
<circle cx="610.7" cy="401.0" r="2.6" fill="#bc8cff" opacity="0.7"/>
<circle cx="625.2" cy="393.9" r="2.6" fill="#bc8cff" opacity="0.7"/>
<circle cx="639.7" cy="403.3" r="2.6" fill="#bc8cff" opacity="0.7"/>
<circle cx="654.2" cy="403.5" r="2.6" fill="#bc8cff" opacity="0.7"/>
<circle cx="668.8" cy="424.2" r="2.6" fill="#bc8cff" opacity="0.7"/>
<circle cx="683.3" cy="373.3" r="2.6" fill="#bc8cff" opacity="0.7"/>
<circle cx="697.8" cy="415.0" r="2.6" fill="#bc8cff" opacity="0.7"/>
<circle cx="712.3" cy="377.3" r="2.6" fill="#bc8cff" opacity="0.7"/>
<circle cx="726.9" cy="399.0" r="2.6" fill="#bc8cff" opacity="0.7"/>
<circle cx="741.4" cy="429.5" r="2.6" fill="#bc8cff" opacity="0.7"/>
<circle cx="755.9" cy="418.7" r="2.6" fill="#bc8cff" opacity="0.7"/>
<circle cx="770.4" cy="273.8" r="2.6" fill="#bc8cff" opacity="0.7"/>
<circle cx="785.0" cy="350.5" r="2.6" fill="#bc8cff" opacity="0.7"/>
<circle cx="97.0" cy="412.5" r="3.2" fill="#ff922b" opacity="0.85"/>
<circle cx="111.6" cy="419.8" r="3.2" fill="#ff922b" opacity="0.85"/>
<circle cx="126.1" cy="432.3" r="3.2" fill="#ff922b" opacity="0.85"/>
<circle cx="140.6" cy="437.2" r="3.2" fill="#ff922b" opacity="0.85"/>
<circle cx="155.1" cy="409.1" r="3.2" fill="#ff922b" opacity="0.85"/>
<circle cx="169.7" cy="411.4" r="3.2" fill="#ff922b" opacity="0.85"/>
<circle cx="184.2" cy="408.9" r="3.2" fill="#ff922b" opacity="0.85"/>
<circle cx="198.7" cy="408.7" r="3.2" fill="#ff922b" opacity="0.85"/>
<circle cx="213.2" cy="410.6" r="3.2" fill="#ff922b" opacity="0.85"/>
<circle cx="227.8" cy="401.0" r="3.2" fill="#ff922b" opacity="0.85"/>
<circle cx="242.3" cy="409.8" r="3.2" fill="#ff922b" opacity="0.85"/>
<circle cx="256.8" cy="414.7" r="3.2" fill="#ff922b" opacity="0.85"/>
<circle cx="271.3" cy="410.8" r="3.2" fill="#ff922b" opacity="0.85"/>
<circle cx="285.9" cy="416.1" r="3.2" fill="#ff922b" opacity="0.85"/>
<circle cx="300.4" cy="397.8" r="3.2" fill="#ff922b" opacity="0.85"/>
<circle cx="314.9" cy="414.3" r="3.2" fill="#ff922b" opacity="0.85"/>
<circle cx="329.4" cy="404.8" r="3.2" fill="#ff922b" opacity="0.85"/>
<circle cx="344.0" cy="409.4" r="3.2" fill="#ff922b" opacity="0.85"/>
<circle cx="358.5" cy="413.2" r="3.2" fill="#ff922b" opacity="0.85"/>
<circle cx="373.0" cy="424.6" r="3.2" fill="#ff922b" opacity="0.85"/>
<circle cx="387.5" cy="413.6" r="3.2" fill="#ff922b" opacity="0.85"/>
<circle cx="402.1" cy="417.1" r="3.2" fill="#ff922b" opacity="0.85"/>
<circle cx="416.6" cy="439.5" r="3.2" fill="#ff922b" opacity="0.85"/>
<circle cx="431.1" cy="423.2" r="3.2" fill="#ff922b" opacity="0.85"/>
<circle cx="445.6" cy="417.5" r="3.2" fill="#ff922b" opacity="0.85"/>
<circle cx="460.2" cy="413.7" r="3.2" fill="#ff922b" opacity="0.85"/>
<circle cx="474.7" cy="405.5" r="3.2" fill="#ff922b" opacity="0.85"/>
<circle cx="489.2" cy="407.0" r="3.2" fill="#ff922b" opacity="0.85"/>
<circle cx="503.7" cy="408.7" r="3.2" fill="#ff922b" opacity="0.85"/>
<circle cx="518.3" cy="409.3" r="3.2" fill="#ff922b" opacity="0.85"/>
<circle cx="532.8" cy="407.2" r="3.2" fill="#ff922b" opacity="0.85"/>
<circle cx="547.3" cy="368.5" r="3.2" fill="#ff922b" opacity="0.85"/>
<circle cx="561.8" cy="404.9" r="3.2" fill="#ff922b" opacity="0.85"/>
<circle cx="576.3" cy="401.4" r="3.2" fill="#ff922b" opacity="0.85"/>
<circle cx="590.9" cy="408.1" r="3.2" fill="#ff922b" opacity="0.85"/>
<circle cx="605.4" cy="414.3" r="3.2" fill="#ff922b" opacity="0.85"/>
<circle cx="619.9" cy="407.8" r="3.2" fill="#ff922b" opacity="0.85"/>
<circle cx="634.4" cy="408.7" r="3.2" fill="#ff922b" opacity="0.85"/>
<circle cx="649.0" cy="424.0" r="3.2" fill="#ff922b" opacity="0.85"/>
<circle cx="663.5" cy="412.6" r="3.2" fill="#ff922b" opacity="0.85"/>
<circle cx="678.0" cy="412.1" r="3.2" fill="#ff922b" opacity="0.85"/>
<circle cx="692.5" cy="393.1" r="3.2" fill="#ff922b" opacity="0.85"/>
<circle cx="707.1" cy="409.7" r="3.2" fill="#ff922b" opacity="0.85"/>
<circle cx="721.6" cy="410.6" r="3.2" fill="#ff922b" opacity="0.85"/>
<circle cx="736.1" cy="403.7" r="3.2" fill="#ff922b" opacity="0.85"/>
<circle cx="750.6" cy="412.0" r="3.2" fill="#ff922b" opacity="0.85"/>
<circle cx="765.2" cy="400.4" r="3.2" fill="#ff922b" opacity="0.85"/>
<circle cx="779.7" cy="405.4" r="3.2" fill="#ff922b" opacity="0.85"/>
<circle cx="847" cy="84" r="5" fill="#ff922b"/>
<text x="866" y="88" font-size="13" fill="#c9d1d9" font-weight="700">Kāra</text>
<line x1="836" y1="108" x2="858" y2="108" stroke="#a7b0bc" stroke-width="2" stroke-dasharray="5 4"/>
<text x="866" y="112" font-size="13" fill="#c9d1d9" font-weight="400">Rust = 1.0×</text>
<circle cx="847" cy="132" r="4" fill="#3fb950"/>
<text x="866" y="136" font-size="13" fill="#c9d1d9" font-weight="400">C</text>
<circle cx="847" cy="156" r="4" fill="#bc8cff"/>
<text x="866" y="160" font-size="13" fill="#c9d1d9" font-weight="400">Go</text>
<text x="70" y="538" font-size="11.5" fill="#8b949e">Each dot is one benchmarked program (kata × approach); there is no connecting line because left-to-right order is not meaningful. Raw numbers: bench-results.json</text>
</svg>