<svg xmlns="http://www.w3.org/2000/svg" width="980" height="560" viewBox="0 0 980 560" font-family="-apple-system,Segoe UI,Helvetica,Arial,sans-serif">
<rect width="980" height="560" fill="#282c34"/>
<text x="70" y="34" font-size="21" font-weight="700" fill="#c9d1d9">Runtime — sequential lane</text>
<text x="70" y="56" font-size="13" fill="#8b949e">relative to Rust (default) = 1.0 · lower = faster · 97 programs</text>
<line x1="70" y1="456.0" x2="812" y2="456.0" stroke="#3b414b" stroke-width="1"/>
<text x="60" y="460.0" font-size="12" text-anchor="end" fill="#8b949e">0.0×</text>
<line x1="70" y1="402.0" x2="812" y2="402.0" stroke="#a7b0bc" stroke-width="2" stroke-dasharray="5 4"/>
<text x="60" y="406.0" font-size="12" text-anchor="end" fill="#aeb6c0" font-weight="700">1.0×</text>
<line x1="70" y1="380.4" x2="812" y2="380.4" stroke="#3b414b" stroke-width="1"/>
<text x="60" y="384.4" font-size="12" text-anchor="end" fill="#8b949e">1.4×</text>
<line x1="70" y1="304.8" x2="812" y2="304.8" stroke="#3b414b" stroke-width="1"/>
<text x="60" y="308.8" font-size="12" text-anchor="end" fill="#8b949e">2.8×</text>
<line x1="70" y1="229.2" x2="812" y2="229.2" stroke="#3b414b" stroke-width="1"/>
<text x="60" y="233.2" font-size="12" text-anchor="end" fill="#8b949e">4.2×</text>
<line x1="70" y1="153.6" x2="812" y2="153.6" stroke="#3b414b" stroke-width="1"/>
<text x="60" y="157.6" font-size="12" text-anchor="end" fill="#8b949e">5.6×</text>
<line x1="70" y1="78.0" x2="812" y2="78.0" stroke="#3b414b" stroke-width="1"/>
<text x="60" y="82.0" font-size="12" text-anchor="end" fill="#8b949e">7.0×</text>
<text x="812" y="396.0" font-size="11" text-anchor="end" fill="#aeb6c0">Rust (default) baseline</text>
<line x1="70" y1="456" x2="812" y2="456" stroke="#3b414b"/>
<text x="441.0" y="478" font-size="11" text-anchor="middle" fill="#8b949e">97 programs (kata × approach) — x-order carries no meaning</text>
<circle cx="99.2" cy="402.1" r="2.6" fill="#3fb950" opacity="0.7"/>
<circle cx="106.3" cy="421.6" r="2.6" fill="#3fb950" opacity="0.7"/>
<circle cx="113.4" cy="425.2" r="2.6" fill="#3fb950" opacity="0.7"/>
<circle cx="120.5" cy="442.8" r="2.6" fill="#3fb950" opacity="0.7"/>
<circle cx="127.6" cy="413.8" r="2.6" fill="#3fb950" opacity="0.7"/>
<circle cx="134.8" cy="411.4" r="2.6" fill="#3fb950" opacity="0.7"/>
<circle cx="141.9" cy="402.3" r="2.6" fill="#3fb950" opacity="0.7"/>
<circle cx="149.0" cy="399.7" r="2.6" fill="#3fb950" opacity="0.7"/>
<circle cx="156.1" cy="397.0" r="2.6" fill="#3fb950" opacity="0.7"/>
<circle cx="163.2" cy="395.5" r="2.6" fill="#3fb950" opacity="0.7"/>
<circle cx="170.3" cy="402.1" r="2.6" fill="#3fb950" opacity="0.7"/>
<circle cx="177.4" cy="409.1" r="2.6" fill="#3fb950" opacity="0.7"/>
<circle cx="184.5" cy="395.6" r="2.6" fill="#3fb950" opacity="0.7"/>
<circle cx="191.6" cy="399.0" r="2.6" fill="#3fb950" opacity="0.7"/>
<circle cx="198.7" cy="413.4" r="2.6" fill="#3fb950" opacity="0.7"/>
<circle cx="205.9" cy="397.3" r="2.6" fill="#3fb950" opacity="0.7"/>
<circle cx="213.0" cy="357.8" r="2.6" fill="#3fb950" opacity="0.7"/>
<circle cx="220.1" cy="415.1" r="2.6" fill="#3fb950" opacity="0.7"/>
<circle cx="227.2" cy="403.5" r="2.6" fill="#3fb950" opacity="0.7"/>
<circle cx="234.3" cy="423.2" r="2.6" fill="#3fb950" opacity="0.7"/>
<circle cx="241.4" cy="406.5" r="2.6" fill="#3fb950" opacity="0.7"/>
<circle cx="248.5" cy="419.9" r="2.6" fill="#3fb950" opacity="0.7"/>
<circle cx="255.6" cy="439.8" r="2.6" fill="#3fb950" opacity="0.7"/>
<circle cx="262.7" cy="424.6" r="2.6" fill="#3fb950" opacity="0.7"/>
<circle cx="269.9" cy="418.3" r="2.6" fill="#3fb950" opacity="0.7"/>
<circle cx="277.0" cy="420.5" r="2.6" fill="#3fb950" opacity="0.7"/>
<circle cx="284.1" cy="400.5" r="2.6" fill="#3fb950" opacity="0.7"/>
<circle cx="291.2" cy="400.0" r="2.6" fill="#3fb950" opacity="0.7"/>
<circle cx="298.3" cy="402.1" r="2.6" fill="#3fb950" opacity="0.7"/>
<circle cx="305.4" cy="414.5" r="2.6" fill="#3fb950" opacity="0.7"/>
<circle cx="312.5" cy="401.5" r="2.6" fill="#3fb950" opacity="0.7"/>
<circle cx="319.6" cy="435.9" r="2.6" fill="#3fb950" opacity="0.7"/>
<circle cx="326.7" cy="402.2" r="2.6" fill="#3fb950" opacity="0.7"/>
<circle cx="333.9" cy="421.6" r="2.6" fill="#3fb950" opacity="0.7"/>
<circle cx="341.0" cy="415.8" r="2.6" fill="#3fb950" opacity="0.7"/>
<circle cx="348.1" cy="417.3" r="2.6" fill="#3fb950" opacity="0.7"/>
<circle cx="355.2" cy="417.7" r="2.6" fill="#3fb950" opacity="0.7"/>
<circle cx="362.3" cy="402.4" r="2.6" fill="#3fb950" opacity="0.7"/>
<circle cx="369.4" cy="382.1" r="2.6" fill="#3fb950" opacity="0.7"/>
<circle cx="376.5" cy="413.8" r="2.6" fill="#3fb950" opacity="0.7"/>
<circle cx="383.6" cy="398.2" r="2.6" fill="#3fb950" opacity="0.7"/>
<circle cx="390.7" cy="401.5" r="2.6" fill="#3fb950" opacity="0.7"/>
<circle cx="397.9" cy="404.4" r="2.6" fill="#3fb950" opacity="0.7"/>
<circle cx="405.0" cy="403.9" r="2.6" fill="#3fb950" opacity="0.7"/>
<circle cx="412.1" cy="431.2" r="2.6" fill="#3fb950" opacity="0.7"/>
<circle cx="419.2" cy="404.3" r="2.6" fill="#3fb950" opacity="0.7"/>
<circle cx="426.3" cy="400.0" r="2.6" fill="#3fb950" opacity="0.7"/>
<circle cx="433.4" cy="398.4" r="2.6" fill="#3fb950" opacity="0.7"/>
<circle cx="440.5" cy="403.7" r="2.6" fill="#3fb950" opacity="0.7"/>
<circle cx="447.6" cy="404.7" r="2.6" fill="#3fb950" opacity="0.7"/>
<circle cx="454.7" cy="435.3" r="2.6" fill="#3fb950" opacity="0.7"/>
<circle cx="461.8" cy="424.2" r="2.6" fill="#3fb950" opacity="0.7"/>
<circle cx="469.0" cy="386.9" r="2.6" fill="#3fb950" opacity="0.7"/>
<circle cx="476.1" cy="402.3" r="2.6" fill="#3fb950" opacity="0.7"/>
<circle cx="483.2" cy="402.1" r="2.6" fill="#3fb950" opacity="0.7"/>
<circle cx="490.3" cy="408.1" r="2.6" fill="#3fb950" opacity="0.7"/>
<circle cx="497.4" cy="400.9" r="2.6" fill="#3fb950" opacity="0.7"/>
<circle cx="504.5" cy="369.7" r="2.6" fill="#3fb950" opacity="0.7"/>
<circle cx="511.6" cy="441.3" r="2.6" fill="#3fb950" opacity="0.7"/>
<circle cx="518.7" cy="409.4" r="2.6" fill="#3fb950" opacity="0.7"/>
<circle cx="525.8" cy="438.7" r="2.6" fill="#3fb950" opacity="0.7"/>
<circle cx="533.0" cy="401.9" r="2.6" fill="#3fb950" opacity="0.7"/>
<circle cx="540.1" cy="424.3" r="2.6" fill="#3fb950" opacity="0.7"/>
<circle cx="547.2" cy="401.6" r="2.6" fill="#3fb950" opacity="0.7"/>
<circle cx="554.3" cy="401.9" r="2.6" fill="#3fb950" opacity="0.7"/>
<circle cx="561.4" cy="402.1" r="2.6" fill="#3fb950" opacity="0.7"/>
<circle cx="568.5" cy="393.0" r="2.6" fill="#3fb950" opacity="0.7"/>
<circle cx="575.6" cy="405.6" r="2.6" fill="#3fb950" opacity="0.7"/>
<circle cx="582.7" cy="401.9" r="2.6" fill="#3fb950" opacity="0.7"/>
<circle cx="589.8" cy="412.7" r="2.6" fill="#3fb950" opacity="0.7"/>
<circle cx="597.0" cy="401.6" r="2.6" fill="#3fb950" opacity="0.7"/>
<circle cx="604.1" cy="450.6" r="2.6" fill="#3fb950" opacity="0.7"/>
<circle cx="611.2" cy="372.4" r="2.6" fill="#3fb950" opacity="0.7"/>
<circle cx="618.3" cy="391.1" r="2.6" fill="#3fb950" opacity="0.7"/>
<circle cx="625.4" cy="401.7" r="2.6" fill="#3fb950" opacity="0.7"/>
<circle cx="632.5" cy="407.8" r="2.6" fill="#3fb950" opacity="0.7"/>
<circle cx="639.6" cy="402.6" r="2.6" fill="#3fb950" opacity="0.7"/>
<circle cx="646.7" cy="403.6" r="2.6" fill="#3fb950" opacity="0.7"/>
<circle cx="653.8" cy="402.9" r="2.6" fill="#3fb950" opacity="0.7"/>
<circle cx="661.0" cy="419.1" r="2.6" fill="#3fb950" opacity="0.7"/>
<circle cx="668.1" cy="395.0" r="2.6" fill="#3fb950" opacity="0.7"/>
<circle cx="675.2" cy="403.0" r="2.6" fill="#3fb950" opacity="0.7"/>
<circle cx="682.3" cy="404.2" r="2.6" fill="#3fb950" opacity="0.7"/>
<circle cx="689.4" cy="425.5" r="2.6" fill="#3fb950" opacity="0.7"/>
<circle cx="696.5" cy="445.3" r="2.6" fill="#3fb950" opacity="0.7"/>
<circle cx="703.6" cy="415.3" r="2.6" fill="#3fb950" opacity="0.7"/>
<circle cx="710.7" cy="410.4" r="2.6" fill="#3fb950" opacity="0.7"/>
<circle cx="717.8" cy="404.0" r="2.6" fill="#3fb950" opacity="0.7"/>
<circle cx="725.0" cy="402.7" r="2.6" fill="#3fb950" opacity="0.7"/>
<circle cx="732.1" cy="412.4" r="2.6" fill="#3fb950" opacity="0.7"/>
<circle cx="739.2" cy="407.1" r="2.6" fill="#3fb950" opacity="0.7"/>
<circle cx="746.3" cy="411.4" r="2.6" fill="#3fb950" opacity="0.7"/>
<circle cx="753.4" cy="452.2" r="2.6" fill="#3fb950" opacity="0.7"/>
<circle cx="760.5" cy="447.1" r="2.6" fill="#3fb950" opacity="0.7"/>
<circle cx="767.6" cy="406.6" r="2.6" fill="#3fb950" opacity="0.7"/>
<circle cx="774.7" cy="391.2" r="2.6" fill="#3fb950" opacity="0.7"/>
<circle cx="781.8" cy="416.2" r="2.6" fill="#3fb950" opacity="0.7"/>
<circle cx="100.2" cy="401.6" r="2.6" fill="#bc8cff" opacity="0.7"/>
<circle cx="107.3" cy="392.0" r="2.6" fill="#bc8cff" opacity="0.7"/>
<circle cx="114.4" cy="428.8" r="2.6" fill="#bc8cff" opacity="0.7"/>
<circle cx="121.5" cy="392.5" r="2.6" fill="#bc8cff" opacity="0.7"/>
<circle cx="128.6" cy="358.8" r="2.6" fill="#bc8cff" opacity="0.7"/>
<circle cx="135.7" cy="391.4" r="2.6" fill="#bc8cff" opacity="0.7"/>
<circle cx="142.8" cy="315.8" r="2.6" fill="#bc8cff" opacity="0.7"/>
<circle cx="149.9" cy="393.4" r="2.6" fill="#bc8cff" opacity="0.7"/>
<circle cx="157.0" cy="385.2" r="2.6" fill="#bc8cff" opacity="0.7"/>
<circle cx="164.2" cy="362.9" r="2.6" fill="#bc8cff" opacity="0.7"/>
<circle cx="171.3" cy="372.1" r="2.6" fill="#bc8cff" opacity="0.7"/>
<circle cx="178.4" cy="423.7" r="2.6" fill="#bc8cff" opacity="0.7"/>
<circle cx="185.5" cy="401.0" r="2.6" fill="#bc8cff" opacity="0.7"/>
<circle cx="192.6" cy="400.3" r="2.6" fill="#bc8cff" opacity="0.7"/>
<circle cx="199.7" cy="412.8" r="2.6" fill="#bc8cff" opacity="0.7"/>
<circle cx="206.8" cy="373.1" r="2.6" fill="#bc8cff" opacity="0.7"/>
<circle cx="213.9" cy="302.1" r="2.6" fill="#bc8cff" opacity="0.7"/>
<circle cx="221.0" cy="419.5" r="2.6" fill="#bc8cff" opacity="0.7"/>
<circle cx="228.2" cy="385.6" r="2.6" fill="#bc8cff" opacity="0.7"/>
<circle cx="235.3" cy="428.9" r="2.6" fill="#bc8cff" opacity="0.7"/>
<circle cx="242.4" cy="395.8" r="2.6" fill="#bc8cff" opacity="0.7"/>
<circle cx="249.5" cy="422.8" r="2.6" fill="#bc8cff" opacity="0.7"/>
<circle cx="256.6" cy="437.9" r="2.6" fill="#bc8cff" opacity="0.7"/>
<circle cx="263.7" cy="429.5" r="2.6" fill="#bc8cff" opacity="0.7"/>
<circle cx="270.8" cy="423.4" r="2.6" fill="#bc8cff" opacity="0.7"/>
<circle cx="277.9" cy="424.6" r="2.6" fill="#bc8cff" opacity="0.7"/>
<circle cx="285.0" cy="394.3" r="2.6" fill="#bc8cff" opacity="0.7"/>
<circle cx="292.2" cy="388.7" r="2.6" fill="#bc8cff" opacity="0.7"/>
<circle cx="299.3" cy="276.0" r="2.6" fill="#bc8cff" opacity="0.7"/>
<circle cx="306.4" cy="378.6" r="2.6" fill="#bc8cff" opacity="0.7"/>
<circle cx="313.5" cy="393.5" r="2.6" fill="#bc8cff" opacity="0.7"/>
<circle cx="320.6" cy="319.9" r="2.6" fill="#bc8cff" opacity="0.7"/>
<circle cx="327.7" cy="396.2" r="2.6" fill="#bc8cff" opacity="0.7"/>
<circle cx="334.8" cy="340.6" r="2.6" fill="#bc8cff" opacity="0.7"/>
<circle cx="341.9" cy="400.8" r="2.6" fill="#bc8cff" opacity="0.7"/>
<circle cx="349.0" cy="416.0" r="2.6" fill="#bc8cff" opacity="0.7"/>
<circle cx="356.2" cy="359.7" r="2.6" fill="#bc8cff" opacity="0.7"/>
<circle cx="363.3" cy="340.0" r="2.6" fill="#bc8cff" opacity="0.7"/>
<circle cx="370.4" cy="371.7" r="2.6" fill="#bc8cff" opacity="0.7"/>
<circle cx="377.5" cy="424.3" r="2.6" fill="#bc8cff" opacity="0.7"/>
<circle cx="384.6" cy="391.5" r="2.6" fill="#bc8cff" opacity="0.7"/>
<circle cx="391.7" cy="394.2" r="2.6" fill="#bc8cff" opacity="0.7"/>
<circle cx="398.8" cy="396.9" r="2.6" fill="#bc8cff" opacity="0.7"/>
<circle cx="405.9" cy="438.7" r="2.6" fill="#bc8cff" opacity="0.7"/>
<circle cx="413.0" cy="393.1" r="2.6" fill="#bc8cff" opacity="0.7"/>
<circle cx="420.2" cy="399.1" r="2.6" fill="#bc8cff" opacity="0.7"/>
<circle cx="427.3" cy="401.0" r="2.6" fill="#bc8cff" opacity="0.7"/>
<circle cx="434.4" cy="382.5" r="2.6" fill="#bc8cff" opacity="0.7"/>
<circle cx="441.5" cy="392.8" r="2.6" fill="#bc8cff" opacity="0.7"/>
<circle cx="448.6" cy="395.2" r="2.6" fill="#bc8cff" opacity="0.7"/>
<circle cx="455.7" cy="314.2" r="2.6" fill="#bc8cff" opacity="0.7"/>
<circle cx="462.8" cy="418.1" r="2.6" fill="#bc8cff" opacity="0.7"/>
<circle cx="469.9" cy="330.6" r="2.6" fill="#bc8cff" opacity="0.7"/>
<circle cx="477.0" cy="334.6" r="2.6" fill="#bc8cff" opacity="0.7"/>
<circle cx="484.1" cy="340.9" r="2.6" fill="#bc8cff" opacity="0.7"/>
<circle cx="491.3" cy="355.5" r="2.6" fill="#bc8cff" opacity="0.7"/>
<circle cx="498.4" cy="415.5" r="2.6" fill="#bc8cff" opacity="0.7"/>
<circle cx="505.5" cy="88.9" r="2.6" fill="#bc8cff" opacity="0.7"/>
<circle cx="512.6" cy="429.1" r="2.6" fill="#bc8cff" opacity="0.7"/>
<circle cx="519.7" cy="381.4" r="2.6" fill="#bc8cff" opacity="0.7"/>
<circle cx="526.8" cy="438.7" r="2.6" fill="#bc8cff" opacity="0.7"/>
<circle cx="533.9" cy="377.1" r="2.6" fill="#bc8cff" opacity="0.7"/>
<circle cx="541.0" cy="432.6" r="2.6" fill="#bc8cff" opacity="0.7"/>
<circle cx="548.1" cy="339.0" r="2.6" fill="#bc8cff" opacity="0.7"/>
<circle cx="555.3" cy="361.5" r="2.6" fill="#bc8cff" opacity="0.7"/>
<circle cx="562.4" cy="405.7" r="2.6" fill="#bc8cff" opacity="0.7"/>
<circle cx="569.5" cy="389.7" r="2.6" fill="#bc8cff" opacity="0.7"/>
<circle cx="576.6" cy="405.6" r="2.6" fill="#bc8cff" opacity="0.7"/>
<circle cx="583.7" cy="400.0" r="2.6" fill="#bc8cff" opacity="0.7"/>
<circle cx="590.8" cy="398.8" r="2.6" fill="#bc8cff" opacity="0.7"/>
<circle cx="597.9" cy="396.6" r="2.6" fill="#bc8cff" opacity="0.7"/>
<circle cx="605.0" cy="433.3" r="2.6" fill="#bc8cff" opacity="0.7"/>
<circle cx="612.1" cy="416.4" r="2.6" fill="#bc8cff" opacity="0.7"/>
<circle cx="619.3" cy="409.0" r="2.6" fill="#bc8cff" opacity="0.7"/>
<circle cx="626.4" cy="408.0" r="2.6" fill="#bc8cff" opacity="0.7"/>
<circle cx="633.5" cy="371.1" r="2.6" fill="#bc8cff" opacity="0.7"/>
<circle cx="640.6" cy="405.9" r="2.6" fill="#bc8cff" opacity="0.7"/>
<circle cx="647.7" cy="403.5" r="2.6" fill="#bc8cff" opacity="0.7"/>
<circle cx="654.8" cy="401.5" r="2.6" fill="#bc8cff" opacity="0.7"/>
<circle cx="661.9" cy="388.8" r="2.6" fill="#bc8cff" opacity="0.7"/>
<circle cx="669.0" cy="386.6" r="2.6" fill="#bc8cff" opacity="0.7"/>
<circle cx="676.1" cy="416.4" r="2.6" fill="#bc8cff" opacity="0.7"/>
<circle cx="683.3" cy="397.7" r="2.6" fill="#bc8cff" opacity="0.7"/>
<circle cx="690.4" cy="408.7" r="2.6" fill="#bc8cff" opacity="0.7"/>
<circle cx="697.5" cy="399.4" r="2.6" fill="#bc8cff" opacity="0.7"/>
<circle cx="704.6" cy="419.2" r="2.6" fill="#bc8cff" opacity="0.7"/>
<circle cx="711.7" cy="362.8" r="2.6" fill="#bc8cff" opacity="0.7"/>
<circle cx="718.8" cy="396.9" r="2.6" fill="#bc8cff" opacity="0.7"/>
<circle cx="725.9" cy="408.9" r="2.6" fill="#bc8cff" opacity="0.7"/>
<circle cx="733.0" cy="400.6" r="2.6" fill="#bc8cff" opacity="0.7"/>
<circle cx="740.1" cy="404.0" r="2.6" fill="#bc8cff" opacity="0.7"/>
<circle cx="747.2" cy="418.5" r="2.6" fill="#bc8cff" opacity="0.7"/>
<circle cx="754.4" cy="444.8" r="2.6" fill="#bc8cff" opacity="0.7"/>
<circle cx="761.5" cy="419.4" r="2.6" fill="#bc8cff" opacity="0.7"/>
<circle cx="768.6" cy="409.4" r="2.6" fill="#bc8cff" opacity="0.7"/>
<circle cx="775.7" cy="258.5" r="2.6" fill="#bc8cff" opacity="0.7"/>
<circle cx="782.8" cy="362.5" r="2.6" fill="#bc8cff" opacity="0.7"/>
<circle cx="98.2" cy="394.1" r="3.2" fill="#ff922b" opacity="0.85"/>
<circle cx="105.3" cy="414.9" r="3.2" fill="#ff922b" opacity="0.85"/>
<circle cx="112.5" cy="426.6" r="3.2" fill="#ff922b" opacity="0.85"/>
<circle cx="119.6" cy="431.8" r="3.2" fill="#ff922b" opacity="0.85"/>
<circle cx="126.7" cy="398.4" r="3.2" fill="#ff922b" opacity="0.85"/>
<circle cx="133.8" cy="381.7" r="3.2" fill="#ff922b" opacity="0.85"/>
<circle cx="140.9" cy="399.1" r="3.2" fill="#ff922b" opacity="0.85"/>
<circle cx="148.0" cy="391.9" r="3.2" fill="#ff922b" opacity="0.85"/>
<circle cx="155.1" cy="380.1" r="3.2" fill="#ff922b" opacity="0.85"/>
<circle cx="162.2" cy="377.3" r="3.2" fill="#ff922b" opacity="0.85"/>
<circle cx="169.3" cy="396.9" r="3.2" fill="#ff922b" opacity="0.85"/>
<circle cx="176.4" cy="394.4" r="3.2" fill="#ff922b" opacity="0.85"/>
<circle cx="183.6" cy="404.1" r="3.2" fill="#ff922b" opacity="0.85"/>
<circle cx="190.7" cy="404.0" r="3.2" fill="#ff922b" opacity="0.85"/>
<circle cx="197.8" cy="395.7" r="3.2" fill="#ff922b" opacity="0.85"/>
<circle cx="204.9" cy="401.0" r="3.2" fill="#ff922b" opacity="0.85"/>
<circle cx="212.0" cy="395.5" r="3.2" fill="#ff922b" opacity="0.85"/>
<circle cx="219.1" cy="391.0" r="3.2" fill="#ff922b" opacity="0.85"/>
<circle cx="226.2" cy="399.4" r="3.2" fill="#ff922b" opacity="0.85"/>
<circle cx="233.3" cy="414.3" r="3.2" fill="#ff922b" opacity="0.85"/>
<circle cx="240.4" cy="410.0" r="3.2" fill="#ff922b" opacity="0.85"/>
<circle cx="247.6" cy="405.1" r="3.2" fill="#ff922b" opacity="0.85"/>
<circle cx="254.7" cy="437.8" r="3.2" fill="#ff922b" opacity="0.85"/>
<circle cx="261.8" cy="409.2" r="3.2" fill="#ff922b" opacity="0.85"/>
<circle cx="268.9" cy="409.6" r="3.2" fill="#ff922b" opacity="0.85"/>
<circle cx="276.0" cy="405.6" r="3.2" fill="#ff922b" opacity="0.85"/>
<circle cx="283.1" cy="396.3" r="3.2" fill="#ff922b" opacity="0.85"/>
<circle cx="290.2" cy="398.6" r="3.2" fill="#ff922b" opacity="0.85"/>
<circle cx="297.3" cy="402.5" r="3.2" fill="#ff922b" opacity="0.85"/>
<circle cx="304.4" cy="402.1" r="3.2" fill="#ff922b" opacity="0.85"/>
<circle cx="311.6" cy="400.7" r="3.2" fill="#ff922b" opacity="0.85"/>
<circle cx="318.7" cy="363.0" r="3.2" fill="#ff922b" opacity="0.85"/>
<circle cx="325.8" cy="401.0" r="3.2" fill="#ff922b" opacity="0.85"/>
<circle cx="332.9" cy="400.3" r="3.2" fill="#ff922b" opacity="0.85"/>
<circle cx="340.0" cy="397.1" r="3.2" fill="#ff922b" opacity="0.85"/>
<circle cx="347.1" cy="396.1" r="3.2" fill="#ff922b" opacity="0.85"/>
<circle cx="354.2" cy="395.6" r="3.2" fill="#ff922b" opacity="0.85"/>
<circle cx="361.3" cy="426.2" r="3.2" fill="#ff922b" opacity="0.85"/>
<circle cx="368.4" cy="403.8" r="3.2" fill="#ff922b" opacity="0.85"/>
<circle cx="375.6" cy="389.3" r="3.2" fill="#ff922b" opacity="0.85"/>
<circle cx="382.7" cy="377.0" r="3.2" fill="#ff922b" opacity="0.85"/>
<circle cx="389.8" cy="379.7" r="3.2" fill="#ff922b" opacity="0.85"/>
<circle cx="396.9" cy="404.6" r="3.2" fill="#ff922b" opacity="0.85"/>
<circle cx="404.0" cy="437.7" r="3.2" fill="#ff922b" opacity="0.85"/>
<circle cx="411.1" cy="382.6" r="3.2" fill="#ff922b" opacity="0.85"/>
<circle cx="418.2" cy="394.7" r="3.2" fill="#ff922b" opacity="0.85"/>
<circle cx="425.3" cy="399.6" r="3.2" fill="#ff922b" opacity="0.85"/>
<circle cx="432.4" cy="385.6" r="3.2" fill="#ff922b" opacity="0.85"/>
<circle cx="439.6" cy="402.9" r="3.2" fill="#ff922b" opacity="0.85"/>
<circle cx="446.7" cy="396.3" r="3.2" fill="#ff922b" opacity="0.85"/>
<circle cx="453.8" cy="366.6" r="3.2" fill="#ff922b" opacity="0.85"/>
<circle cx="460.9" cy="403.7" r="3.2" fill="#ff922b" opacity="0.85"/>
<circle cx="468.0" cy="350.9" r="3.2" fill="#ff922b" opacity="0.85"/>
<circle cx="475.1" cy="344.5" r="3.2" fill="#ff922b" opacity="0.85"/>
<circle cx="482.2" cy="402.3" r="3.2" fill="#ff922b" opacity="0.85"/>
<circle cx="489.3" cy="391.9" r="3.2" fill="#ff922b" opacity="0.85"/>
<circle cx="496.4" cy="401.2" r="3.2" fill="#ff922b" opacity="0.85"/>
<circle cx="503.5" cy="397.4" r="3.2" fill="#ff922b" opacity="0.85"/>
<circle cx="510.7" cy="405.2" r="3.2" fill="#ff922b" opacity="0.85"/>
<circle cx="517.8" cy="377.3" r="3.2" fill="#ff922b" opacity="0.85"/>
<circle cx="524.9" cy="433.2" r="3.2" fill="#ff922b" opacity="0.85"/>
<circle cx="532.0" cy="400.3" r="3.2" fill="#ff922b" opacity="0.85"/>
<circle cx="539.1" cy="416.3" r="3.2" fill="#ff922b" opacity="0.85"/>
<circle cx="546.2" cy="401.1" r="3.2" fill="#ff922b" opacity="0.85"/>
<circle cx="553.3" cy="396.3" r="3.2" fill="#ff922b" opacity="0.85"/>
<circle cx="560.4" cy="408.2" r="3.2" fill="#ff922b" opacity="0.85"/>
<circle cx="567.5" cy="400.8" r="3.2" fill="#ff922b" opacity="0.85"/>
<circle cx="574.7" cy="405.5" r="3.2" fill="#ff922b" opacity="0.85"/>
<circle cx="581.8" cy="401.5" r="3.2" fill="#ff922b" opacity="0.85"/>
<circle cx="588.9" cy="380.1" r="3.2" fill="#ff922b" opacity="0.85"/>
<circle cx="596.0" cy="413.0" r="3.2" fill="#ff922b" opacity="0.85"/>
<circle cx="603.1" cy="397.9" r="3.2" fill="#ff922b" opacity="0.85"/>
<circle cx="610.2" cy="412.9" r="3.2" fill="#ff922b" opacity="0.85"/>
<circle cx="617.3" cy="427.1" r="3.2" fill="#ff922b" opacity="0.85"/>
<circle cx="624.4" cy="405.3" r="3.2" fill="#ff922b" opacity="0.85"/>
<circle cx="631.5" cy="407.7" r="3.2" fill="#ff922b" opacity="0.85"/>
<circle cx="638.7" cy="389.7" r="3.2" fill="#ff922b" opacity="0.85"/>
<circle cx="645.8" cy="403.4" r="3.2" fill="#ff922b" opacity="0.85"/>
<circle cx="652.9" cy="402.6" r="3.2" fill="#ff922b" opacity="0.85"/>
<circle cx="660.0" cy="411.0" r="3.2" fill="#ff922b" opacity="0.85"/>
<circle cx="667.1" cy="398.1" r="3.2" fill="#ff922b" opacity="0.85"/>
<circle cx="674.2" cy="398.2" r="3.2" fill="#ff922b" opacity="0.85"/>
<circle cx="681.3" cy="399.7" r="3.2" fill="#ff922b" opacity="0.85"/>
<circle cx="688.4" cy="397.4" r="3.2" fill="#ff922b" opacity="0.85"/>
<circle cx="695.5" cy="449.9" r="3.2" fill="#ff922b" opacity="0.85"/>
<circle cx="702.7" cy="414.9" r="3.2" fill="#ff922b" opacity="0.85"/>
<circle cx="709.8" cy="407.0" r="3.2" fill="#ff922b" opacity="0.85"/>
<circle cx="716.9" cy="366.5" r="3.2" fill="#ff922b" opacity="0.85"/>
<circle cx="724.0" cy="399.1" r="3.2" fill="#ff922b" opacity="0.85"/>
<circle cx="731.1" cy="403.6" r="3.2" fill="#ff922b" opacity="0.85"/>
<circle cx="738.2" cy="408.3" r="3.2" fill="#ff922b" opacity="0.85"/>
<circle cx="745.3" cy="401.9" r="3.2" fill="#ff922b" opacity="0.85"/>
<circle cx="752.4" cy="386.1" r="3.2" fill="#ff922b" opacity="0.85"/>
<circle cx="759.5" cy="387.7" r="3.2" fill="#ff922b" opacity="0.85"/>
<circle cx="766.6" cy="401.6" r="3.2" fill="#ff922b" opacity="0.85"/>
<circle cx="773.8" cy="303.3" r="3.2" fill="#ff922b" opacity="0.85"/>
<circle cx="780.9" cy="365.5" r="3.2" fill="#ff922b" opacity="0.85"/>
<circle cx="122.5" cy="399.5" r="2.6" fill="none" stroke="#d4a017" stroke-width="1.8" opacity="0.7999999999999999"/>
<circle cx="129.6" cy="401.6" r="2.6" fill="none" stroke="#d4a017" stroke-width="1.8" opacity="0.7999999999999999"/>
<circle cx="150.9" cy="399.6" r="2.6" fill="none" stroke="#d4a017" stroke-width="1.8" opacity="0.7999999999999999"/>
<circle cx="158.0" cy="390.0" r="2.6" fill="none" stroke="#d4a017" stroke-width="1.8" opacity="0.7999999999999999"/>
<circle cx="165.1" cy="383.3" r="2.6" fill="none" stroke="#d4a017" stroke-width="1.8" opacity="0.7999999999999999"/>
<circle cx="179.3" cy="394.8" r="2.6" fill="none" stroke="#d4a017" stroke-width="1.8" opacity="0.7999999999999999"/>
<circle cx="214.9" cy="394.1" r="2.6" fill="none" stroke="#d4a017" stroke-width="1.8" opacity="0.7999999999999999"/>
<circle cx="286.0" cy="403.1" r="2.6" fill="none" stroke="#d4a017" stroke-width="1.8" opacity="0.7999999999999999"/>
<circle cx="328.7" cy="401.0" r="2.6" fill="none" stroke="#d4a017" stroke-width="1.8" opacity="0.7999999999999999"/>
<circle cx="414.0" cy="394.2" r="2.6" fill="none" stroke="#d4a017" stroke-width="1.8" opacity="0.7999999999999999"/>
<circle cx="684.2" cy="400.4" r="2.6" fill="none" stroke="#d4a017" stroke-width="1.8" opacity="0.7999999999999999"/>
<circle cx="719.8" cy="365.4" r="2.6" fill="none" stroke="#d4a017" stroke-width="1.8" opacity="0.7999999999999999"/>
<circle cx="726.9" cy="399.3" r="2.6" fill="none" stroke="#d4a017" stroke-width="1.8" opacity="0.7999999999999999"/>
<circle cx="776.7" cy="402.2" r="2.6" fill="none" stroke="#d4a017" stroke-width="1.8" opacity="0.7999999999999999"/>
<circle cx="847" cy="84" r="5" fill="#ff922b"/>
<text x="866" y="88" font-size="13" fill="#c9d1d9" font-weight="700">Kāra</text>
<line x1="836" y1="108" x2="858" y2="108" stroke="#a7b0bc" stroke-width="2" stroke-dasharray="5 4"/>
<text x="866" y="112" font-size="13" fill="#c9d1d9" font-weight="400">Rust (default) = 1.0×</text>
<circle cx="847" cy="132" r="4" fill="#3fb950"/>
<text x="866" y="136" font-size="13" fill="#c9d1d9" font-weight="400">C</text>
<circle cx="847" cy="156" r="4" fill="#bc8cff"/>
<text x="866" y="160" font-size="13" fill="#c9d1d9" font-weight="400">Go</text>
<circle cx="847" cy="180" r="4" fill="none" stroke="#d4a017" stroke-width="1.8"/>
<text x="866" y="184" font-size="12" fill="#c9d1d9" font-weight="400">Rust (checked)</text>
<text x="70" y="502" font-size="11.5" fill="#c9d1d9">Solid Rust = 1.0× is the release default — it wraps silently on overflow. Hollow rings ◌ are Rust built overflow-checked,</text>
<text x="70" y="518" font-size="11.5" fill="#c9d1d9">the same safety kāra enforces by default: median 1.05× the cost of plain Rust across the 14 overflow-exercising programs. At that matched safety kāra is ≈ 1.04× — compare kāra to the rings.</text>
<text x="70" y="538" font-size="11.5" fill="#8b949e">Each dot is one benchmarked program (kata × approach); there is no connecting line because left-to-right order is not meaningful. Raw numbers: bench-results.json</text>
</svg>