<svg xmlns="http://www.w3.org/2000/svg" width="980" height="560" viewBox="0 0 980 560" font-family="-apple-system,Segoe UI,Helvetica,Arial,sans-serif">
<rect width="980" height="560" fill="#282c34"/>
<text x="70" y="34" font-size="21" font-weight="700" fill="#c9d1d9">Runtime — sequential lane</text>
<text x="70" y="56" font-size="13" fill="#8b949e">relative to Rust = 1.0 · lower = faster · 37 programs</text>
<line x1="70" y1="456.0" x2="812" y2="456.0" stroke="#3b414b" stroke-width="1"/>
<text x="60" y="460.0" font-size="12" text-anchor="end" fill="#8b949e">0.0×</text>
<line x1="70" y1="408.8" x2="812" y2="408.8" stroke="#a7b0bc" stroke-width="2" stroke-dasharray="5 4"/>
<text x="60" y="412.8" font-size="12" text-anchor="end" fill="#aeb6c0" font-weight="700">1.0×</text>
<line x1="70" y1="380.4" x2="812" y2="380.4" stroke="#3b414b" stroke-width="1"/>
<text x="60" y="384.4" font-size="12" text-anchor="end" fill="#8b949e">1.6×</text>
<line x1="70" y1="304.8" x2="812" y2="304.8" stroke="#3b414b" stroke-width="1"/>
<text x="60" y="308.8" font-size="12" text-anchor="end" fill="#8b949e">3.2×</text>
<line x1="70" y1="229.2" x2="812" y2="229.2" stroke="#3b414b" stroke-width="1"/>
<text x="60" y="233.2" font-size="12" text-anchor="end" fill="#8b949e">4.8×</text>
<line x1="70" y1="153.6" x2="812" y2="153.6" stroke="#3b414b" stroke-width="1"/>
<text x="60" y="157.6" font-size="12" text-anchor="end" fill="#8b949e">6.4×</text>
<line x1="70" y1="78.0" x2="812" y2="78.0" stroke="#3b414b" stroke-width="1"/>
<text x="60" y="82.0" font-size="12" text-anchor="end" fill="#8b949e">8.0×</text>
<text x="812" y="402.8" font-size="11" text-anchor="end" fill="#aeb6c0">Rust baseline</text>
<line x1="70" y1="456" x2="812" y2="456" stroke="#3b414b"/>
<text x="441.0" y="478" font-size="11" text-anchor="middle" fill="#8b949e">37 programs (kata × approach) — x-order carries no meaning</text>
<circle cx="99.7" cy="412.1" r="2.6" fill="#3fb950" opacity="0.7"/>
<circle cx="118.6" cy="428.3" r="2.6" fill="#3fb950" opacity="0.7"/>
<circle cx="137.6" cy="432.7" r="2.6" fill="#3fb950" opacity="0.7"/>
<circle cx="156.6" cy="445.3" r="2.6" fill="#3fb950" opacity="0.7"/>
<circle cx="175.5" cy="418.4" r="2.6" fill="#3fb950" opacity="0.7"/>
<circle cx="194.5" cy="417.8" r="2.6" fill="#3fb950" opacity="0.7"/>
<circle cx="213.5" cy="408.2" r="2.6" fill="#3fb950" opacity="0.7"/>
<circle cx="232.4" cy="407.6" r="2.6" fill="#3fb950" opacity="0.7"/>
<circle cx="251.4" cy="405.1" r="2.6" fill="#3fb950" opacity="0.7"/>
<circle cx="270.3" cy="402.4" r="2.6" fill="#3fb950" opacity="0.7"/>
<circle cx="289.3" cy="408.7" r="2.6" fill="#3fb950" opacity="0.7"/>
<circle cx="308.3" cy="415.1" r="2.6" fill="#3fb950" opacity="0.7"/>
<circle cx="327.2" cy="399.9" r="2.6" fill="#3fb950" opacity="0.7"/>
<circle cx="346.2" cy="407.4" r="2.6" fill="#3fb950" opacity="0.7"/>
<circle cx="365.2" cy="416.1" r="2.6" fill="#3fb950" opacity="0.7"/>
<circle cx="384.1" cy="402.8" r="2.6" fill="#3fb950" opacity="0.7"/>
<circle cx="403.1" cy="369.3" r="2.6" fill="#3fb950" opacity="0.7"/>
<circle cx="422.0" cy="422.1" r="2.6" fill="#3fb950" opacity="0.7"/>
<circle cx="441.0" cy="409.0" r="2.6" fill="#3fb950" opacity="0.7"/>
<circle cx="460.0" cy="428.1" r="2.6" fill="#3fb950" opacity="0.7"/>
<circle cx="478.9" cy="411.9" r="2.6" fill="#3fb950" opacity="0.7"/>
<circle cx="497.9" cy="422.1" r="2.6" fill="#3fb950" opacity="0.7"/>
<circle cx="516.8" cy="442.0" r="2.6" fill="#3fb950" opacity="0.7"/>
<circle cx="535.8" cy="377.2" r="2.6" fill="#3fb950" opacity="0.7"/>
<circle cx="554.8" cy="400.8" r="2.6" fill="#3fb950" opacity="0.7"/>
<circle cx="573.7" cy="450.9" r="2.6" fill="#3fb950" opacity="0.7"/>
<circle cx="592.7" cy="425.1" r="2.6" fill="#3fb950" opacity="0.7"/>
<circle cx="611.7" cy="402.2" r="2.6" fill="#3fb950" opacity="0.7"/>
<circle cx="630.6" cy="411.0" r="2.6" fill="#3fb950" opacity="0.7"/>
<circle cx="649.6" cy="446.3" r="2.6" fill="#3fb950" opacity="0.7"/>
<circle cx="668.5" cy="420.2" r="2.6" fill="#3fb950" opacity="0.7"/>
<circle cx="687.5" cy="415.9" r="2.6" fill="#3fb950" opacity="0.7"/>
<circle cx="706.5" cy="409.4" r="2.6" fill="#3fb950" opacity="0.7"/>
<circle cx="725.4" cy="418.4" r="2.6" fill="#3fb950" opacity="0.7"/>
<circle cx="744.4" cy="412.1" r="2.6" fill="#3fb950" opacity="0.7"/>
<circle cx="763.4" cy="398.6" r="2.6" fill="#3fb950" opacity="0.7"/>
<circle cx="782.3" cy="412.5" r="2.6" fill="#3fb950" opacity="0.7"/>
<circle cx="102.3" cy="410.7" r="2.6" fill="#bc8cff" opacity="0.7"/>
<circle cx="121.3" cy="397.2" r="2.6" fill="#bc8cff" opacity="0.7"/>
<circle cx="140.2" cy="429.4" r="2.6" fill="#bc8cff" opacity="0.7"/>
<circle cx="159.2" cy="399.4" r="2.6" fill="#bc8cff" opacity="0.7"/>
<circle cx="178.2" cy="370.4" r="2.6" fill="#bc8cff" opacity="0.7"/>
<circle cx="197.1" cy="399.8" r="2.6" fill="#bc8cff" opacity="0.7"/>
<circle cx="216.1" cy="337.2" r="2.6" fill="#bc8cff" opacity="0.7"/>
<circle cx="235.0" cy="401.8" r="2.6" fill="#bc8cff" opacity="0.7"/>
<circle cx="254.0" cy="395.7" r="2.6" fill="#bc8cff" opacity="0.7"/>
<circle cx="273.0" cy="373.7" r="2.6" fill="#bc8cff" opacity="0.7"/>
<circle cx="291.9" cy="385.5" r="2.6" fill="#bc8cff" opacity="0.7"/>
<circle cx="310.9" cy="427.9" r="2.6" fill="#bc8cff" opacity="0.7"/>
<circle cx="329.9" cy="409.2" r="2.6" fill="#bc8cff" opacity="0.7"/>
<circle cx="348.8" cy="409.3" r="2.6" fill="#bc8cff" opacity="0.7"/>
<circle cx="367.8" cy="416.7" r="2.6" fill="#bc8cff" opacity="0.7"/>
<circle cx="386.7" cy="378.0" r="2.6" fill="#bc8cff" opacity="0.7"/>
<circle cx="405.7" cy="314.4" r="2.6" fill="#bc8cff" opacity="0.7"/>
<circle cx="424.7" cy="422.2" r="2.6" fill="#bc8cff" opacity="0.7"/>
<circle cx="443.6" cy="390.8" r="2.6" fill="#bc8cff" opacity="0.7"/>
<circle cx="462.6" cy="429.9" r="2.6" fill="#bc8cff" opacity="0.7"/>
<circle cx="481.6" cy="402.0" r="2.6" fill="#bc8cff" opacity="0.7"/>
<circle cx="500.5" cy="424.7" r="2.6" fill="#bc8cff" opacity="0.7"/>
<circle cx="519.5" cy="439.4" r="2.6" fill="#bc8cff" opacity="0.7"/>
<circle cx="538.4" cy="118.9" r="2.6" fill="#bc8cff" opacity="0.7"/>
<circle cx="557.4" cy="397.6" r="2.6" fill="#bc8cff" opacity="0.7"/>
<circle cx="576.4" cy="434.5" r="2.6" fill="#bc8cff" opacity="0.7"/>
<circle cx="595.3" cy="401.0" r="2.6" fill="#bc8cff" opacity="0.7"/>
<circle cx="614.3" cy="393.9" r="2.6" fill="#bc8cff" opacity="0.7"/>
<circle cx="633.3" cy="403.3" r="2.6" fill="#bc8cff" opacity="0.7"/>
<circle cx="652.2" cy="403.5" r="2.6" fill="#bc8cff" opacity="0.7"/>
<circle cx="671.2" cy="424.2" r="2.6" fill="#bc8cff" opacity="0.7"/>
<circle cx="690.1" cy="373.3" r="2.6" fill="#bc8cff" opacity="0.7"/>
<circle cx="709.1" cy="415.0" r="2.6" fill="#bc8cff" opacity="0.7"/>
<circle cx="728.1" cy="377.3" r="2.6" fill="#bc8cff" opacity="0.7"/>
<circle cx="747.0" cy="399.0" r="2.6" fill="#bc8cff" opacity="0.7"/>
<circle cx="766.0" cy="273.8" r="2.6" fill="#bc8cff" opacity="0.7"/>
<circle cx="785.0" cy="350.5" r="2.6" fill="#bc8cff" opacity="0.7"/>
<circle cx="97.0" cy="412.5" r="3.2" fill="#ff922b" opacity="0.85"/>
<circle cx="116.0" cy="419.8" r="3.2" fill="#ff922b" opacity="0.85"/>
<circle cx="135.0" cy="432.3" r="3.2" fill="#ff922b" opacity="0.85"/>
<circle cx="153.9" cy="437.2" r="3.2" fill="#ff922b" opacity="0.85"/>
<circle cx="172.9" cy="409.1" r="3.2" fill="#ff922b" opacity="0.85"/>
<circle cx="191.9" cy="411.4" r="3.2" fill="#ff922b" opacity="0.85"/>
<circle cx="210.8" cy="408.9" r="3.2" fill="#ff922b" opacity="0.85"/>
<circle cx="229.8" cy="408.7" r="3.2" fill="#ff922b" opacity="0.85"/>
<circle cx="248.7" cy="410.6" r="3.2" fill="#ff922b" opacity="0.85"/>
<circle cx="267.7" cy="401.0" r="3.2" fill="#ff922b" opacity="0.85"/>
<circle cx="286.7" cy="409.8" r="3.2" fill="#ff922b" opacity="0.85"/>
<circle cx="305.6" cy="414.7" r="3.2" fill="#ff922b" opacity="0.85"/>
<circle cx="324.6" cy="410.8" r="3.2" fill="#ff922b" opacity="0.85"/>
<circle cx="343.6" cy="416.1" r="3.2" fill="#ff922b" opacity="0.85"/>
<circle cx="362.5" cy="397.8" r="3.2" fill="#ff922b" opacity="0.85"/>
<circle cx="381.5" cy="414.3" r="3.2" fill="#ff922b" opacity="0.85"/>
<circle cx="400.4" cy="404.8" r="3.2" fill="#ff922b" opacity="0.85"/>
<circle cx="419.4" cy="409.4" r="3.2" fill="#ff922b" opacity="0.85"/>
<circle cx="438.4" cy="413.2" r="3.2" fill="#ff922b" opacity="0.85"/>
<circle cx="457.3" cy="424.6" r="3.2" fill="#ff922b" opacity="0.85"/>
<circle cx="476.3" cy="413.6" r="3.2" fill="#ff922b" opacity="0.85"/>
<circle cx="495.3" cy="417.1" r="3.2" fill="#ff922b" opacity="0.85"/>
<circle cx="514.2" cy="439.5" r="3.2" fill="#ff922b" opacity="0.85"/>
<circle cx="533.2" cy="404.9" r="3.2" fill="#ff922b" opacity="0.85"/>
<circle cx="552.1" cy="401.4" r="3.2" fill="#ff922b" opacity="0.85"/>
<circle cx="571.1" cy="408.1" r="3.2" fill="#ff922b" opacity="0.85"/>
<circle cx="590.1" cy="414.3" r="3.2" fill="#ff922b" opacity="0.85"/>
<circle cx="609.0" cy="407.8" r="3.2" fill="#ff922b" opacity="0.85"/>
<circle cx="628.0" cy="408.7" r="3.2" fill="#ff922b" opacity="0.85"/>
<circle cx="647.0" cy="424.0" r="3.2" fill="#ff922b" opacity="0.85"/>
<circle cx="665.9" cy="412.6" r="3.2" fill="#ff922b" opacity="0.85"/>
<circle cx="684.9" cy="412.1" r="3.2" fill="#ff922b" opacity="0.85"/>
<circle cx="703.8" cy="393.1" r="3.2" fill="#ff922b" opacity="0.85"/>
<circle cx="722.8" cy="409.7" r="3.2" fill="#ff922b" opacity="0.85"/>
<circle cx="741.8" cy="410.6" r="3.2" fill="#ff922b" opacity="0.85"/>
<circle cx="760.7" cy="400.4" r="3.2" fill="#ff922b" opacity="0.85"/>
<circle cx="779.7" cy="405.4" r="3.2" fill="#ff922b" opacity="0.85"/>
<circle cx="847" cy="84" r="5" fill="#ff922b"/>
<text x="866" y="88" font-size="13" fill="#c9d1d9" font-weight="700">Kāra</text>
<line x1="836" y1="108" x2="858" y2="108" stroke="#a7b0bc" stroke-width="2" stroke-dasharray="5 4"/>
<text x="866" y="112" font-size="13" fill="#c9d1d9" font-weight="400">Rust = 1.0×</text>
<circle cx="847" cy="132" r="4" fill="#3fb950"/>
<text x="866" y="136" font-size="13" fill="#c9d1d9" font-weight="400">C</text>
<circle cx="847" cy="156" r="4" fill="#bc8cff"/>
<text x="866" y="160" font-size="13" fill="#c9d1d9" font-weight="400">Go</text>
<text x="70" y="538" font-size="11.5" fill="#8b949e">Each dot is one benchmarked program (kata × approach); there is no connecting line because left-to-right order is not meaningful. Raw numbers: bench-results.json</text>
</svg>