<svg xmlns="http://www.w3.org/2000/svg" width="980" height="560" viewBox="0 0 980 560" font-family="-apple-system,Segoe UI,Helvetica,Arial,sans-serif">
<rect width="980" height="560" fill="#282c34"/>
<text x="70" y="34" font-size="21" font-weight="700" fill="#c9d1d9">Runtime — sequential lane</text>
<text x="70" y="56" font-size="13" fill="#8b949e">relative to Rust = 1.0 · lower = faster · 56 programs</text>
<line x1="70" y1="456.0" x2="812" y2="456.0" stroke="#3b414b" stroke-width="1"/>
<text x="60" y="460.0" font-size="12" text-anchor="end" fill="#8b949e">0.0×</text>
<line x1="70" y1="402.0" x2="812" y2="402.0" stroke="#a7b0bc" stroke-width="2" stroke-dasharray="5 4"/>
<text x="60" y="406.0" font-size="12" text-anchor="end" fill="#aeb6c0" font-weight="700">1.0×</text>
<line x1="70" y1="380.4" x2="812" y2="380.4" stroke="#3b414b" stroke-width="1"/>
<text x="60" y="384.4" font-size="12" text-anchor="end" fill="#8b949e">1.4×</text>
<line x1="70" y1="304.8" x2="812" y2="304.8" stroke="#3b414b" stroke-width="1"/>
<text x="60" y="308.8" font-size="12" text-anchor="end" fill="#8b949e">2.8×</text>
<line x1="70" y1="229.2" x2="812" y2="229.2" stroke="#3b414b" stroke-width="1"/>
<text x="60" y="233.2" font-size="12" text-anchor="end" fill="#8b949e">4.2×</text>
<line x1="70" y1="153.6" x2="812" y2="153.6" stroke="#3b414b" stroke-width="1"/>
<text x="60" y="157.6" font-size="12" text-anchor="end" fill="#8b949e">5.6×</text>
<line x1="70" y1="78.0" x2="812" y2="78.0" stroke="#3b414b" stroke-width="1"/>
<text x="60" y="82.0" font-size="12" text-anchor="end" fill="#8b949e">7.0×</text>
<text x="812" y="396.0" font-size="11" text-anchor="end" fill="#aeb6c0">Rust baseline</text>
<line x1="70" y1="456" x2="812" y2="456" stroke="#3b414b"/>
<text x="441.0" y="478" font-size="11" text-anchor="middle" fill="#8b949e">56 programs (kata × approach) — x-order carries no meaning</text>
<circle cx="98.8" cy="402.1" r="2.6" fill="#3fb950" opacity="0.7"/>
<circle cx="111.2" cy="421.6" r="2.6" fill="#3fb950" opacity="0.7"/>
<circle cx="123.7" cy="425.2" r="2.6" fill="#3fb950" opacity="0.7"/>
<circle cx="136.1" cy="442.8" r="2.6" fill="#3fb950" opacity="0.7"/>
<circle cx="148.5" cy="413.8" r="2.6" fill="#3fb950" opacity="0.7"/>
<circle cx="160.9" cy="411.4" r="2.6" fill="#3fb950" opacity="0.7"/>
<circle cx="173.3" cy="402.3" r="2.6" fill="#3fb950" opacity="0.7"/>
<circle cx="185.7" cy="399.7" r="2.6" fill="#3fb950" opacity="0.7"/>
<circle cx="198.1" cy="397.0" r="2.6" fill="#3fb950" opacity="0.7"/>
<circle cx="210.5" cy="395.5" r="2.6" fill="#3fb950" opacity="0.7"/>
<circle cx="223.0" cy="402.1" r="2.6" fill="#3fb950" opacity="0.7"/>
<circle cx="235.4" cy="409.1" r="2.6" fill="#3fb950" opacity="0.7"/>
<circle cx="247.8" cy="395.6" r="2.6" fill="#3fb950" opacity="0.7"/>
<circle cx="260.2" cy="399.0" r="2.6" fill="#3fb950" opacity="0.7"/>
<circle cx="272.6" cy="413.4" r="2.6" fill="#3fb950" opacity="0.7"/>
<circle cx="285.0" cy="397.3" r="2.6" fill="#3fb950" opacity="0.7"/>
<circle cx="297.4" cy="357.8" r="2.6" fill="#3fb950" opacity="0.7"/>
<circle cx="309.8" cy="415.1" r="2.6" fill="#3fb950" opacity="0.7"/>
<circle cx="322.2" cy="403.5" r="2.6" fill="#3fb950" opacity="0.7"/>
<circle cx="334.7" cy="423.2" r="2.6" fill="#3fb950" opacity="0.7"/>
<circle cx="347.1" cy="406.5" r="2.6" fill="#3fb950" opacity="0.7"/>
<circle cx="359.5" cy="419.9" r="2.6" fill="#3fb950" opacity="0.7"/>
<circle cx="371.9" cy="439.8" r="2.6" fill="#3fb950" opacity="0.7"/>
<circle cx="384.3" cy="424.6" r="2.6" fill="#3fb950" opacity="0.7"/>
<circle cx="396.7" cy="418.3" r="2.6" fill="#3fb950" opacity="0.7"/>
<circle cx="409.1" cy="420.5" r="2.6" fill="#3fb950" opacity="0.7"/>
<circle cx="421.5" cy="400.5" r="2.6" fill="#3fb950" opacity="0.7"/>
<circle cx="434.0" cy="400.0" r="2.6" fill="#3fb950" opacity="0.7"/>
<circle cx="446.4" cy="402.1" r="2.6" fill="#3fb950" opacity="0.7"/>
<circle cx="458.8" cy="414.5" r="2.6" fill="#3fb950" opacity="0.7"/>
<circle cx="471.2" cy="401.5" r="2.6" fill="#3fb950" opacity="0.7"/>
<circle cx="483.6" cy="435.9" r="2.6" fill="#3fb950" opacity="0.7"/>
<circle cx="496.0" cy="402.2" r="2.6" fill="#3fb950" opacity="0.7"/>
<circle cx="508.4" cy="421.6" r="2.6" fill="#3fb950" opacity="0.7"/>
<circle cx="520.8" cy="415.8" r="2.6" fill="#3fb950" opacity="0.7"/>
<circle cx="533.2" cy="431.2" r="2.6" fill="#3fb950" opacity="0.7"/>
<circle cx="545.7" cy="369.7" r="2.6" fill="#3fb950" opacity="0.7"/>
<circle cx="558.1" cy="393.0" r="2.6" fill="#3fb950" opacity="0.7"/>
<circle cx="570.5" cy="450.6" r="2.6" fill="#3fb950" opacity="0.7"/>
<circle cx="582.9" cy="419.1" r="2.6" fill="#3fb950" opacity="0.7"/>
<circle cx="595.3" cy="395.0" r="2.6" fill="#3fb950" opacity="0.7"/>
<circle cx="607.7" cy="404.2" r="2.6" fill="#3fb950" opacity="0.7"/>
<circle cx="620.1" cy="425.5" r="2.6" fill="#3fb950" opacity="0.7"/>
<circle cx="632.5" cy="445.3" r="2.6" fill="#3fb950" opacity="0.7"/>
<circle cx="644.9" cy="415.7" r="2.6" fill="#3fb950" opacity="0.7"/>
<circle cx="657.4" cy="412.3" r="2.6" fill="#3fb950" opacity="0.7"/>
<circle cx="669.8" cy="404.0" r="2.6" fill="#3fb950" opacity="0.7"/>
<circle cx="682.2" cy="402.7" r="2.6" fill="#3fb950" opacity="0.7"/>
<circle cx="694.6" cy="412.4" r="2.6" fill="#3fb950" opacity="0.7"/>
<circle cx="707.0" cy="407.1" r="2.6" fill="#3fb950" opacity="0.7"/>
<circle cx="719.4" cy="411.4" r="2.6" fill="#3fb950" opacity="0.7"/>
<circle cx="731.8" cy="452.2" r="2.6" fill="#3fb950" opacity="0.7"/>
<circle cx="744.2" cy="447.1" r="2.6" fill="#3fb950" opacity="0.7"/>
<circle cx="756.7" cy="406.6" r="2.6" fill="#3fb950" opacity="0.7"/>
<circle cx="769.1" cy="391.2" r="2.6" fill="#3fb950" opacity="0.7"/>
<circle cx="781.5" cy="416.2" r="2.6" fill="#3fb950" opacity="0.7"/>
<circle cx="100.5" cy="401.6" r="2.6" fill="#bc8cff" opacity="0.7"/>
<circle cx="112.9" cy="392.0" r="2.6" fill="#bc8cff" opacity="0.7"/>
<circle cx="125.3" cy="428.8" r="2.6" fill="#bc8cff" opacity="0.7"/>
<circle cx="137.8" cy="392.5" r="2.6" fill="#bc8cff" opacity="0.7"/>
<circle cx="150.2" cy="358.8" r="2.6" fill="#bc8cff" opacity="0.7"/>
<circle cx="162.6" cy="391.4" r="2.6" fill="#bc8cff" opacity="0.7"/>
<circle cx="175.0" cy="315.8" r="2.6" fill="#bc8cff" opacity="0.7"/>
<circle cx="187.4" cy="393.4" r="2.6" fill="#bc8cff" opacity="0.7"/>
<circle cx="199.8" cy="385.2" r="2.6" fill="#bc8cff" opacity="0.7"/>
<circle cx="212.2" cy="362.9" r="2.6" fill="#bc8cff" opacity="0.7"/>
<circle cx="224.6" cy="372.1" r="2.6" fill="#bc8cff" opacity="0.7"/>
<circle cx="237.1" cy="423.7" r="2.6" fill="#bc8cff" opacity="0.7"/>
<circle cx="249.5" cy="401.0" r="2.6" fill="#bc8cff" opacity="0.7"/>
<circle cx="261.9" cy="400.3" r="2.6" fill="#bc8cff" opacity="0.7"/>
<circle cx="274.3" cy="412.8" r="2.6" fill="#bc8cff" opacity="0.7"/>
<circle cx="286.7" cy="373.1" r="2.6" fill="#bc8cff" opacity="0.7"/>
<circle cx="299.1" cy="302.1" r="2.6" fill="#bc8cff" opacity="0.7"/>
<circle cx="311.5" cy="419.5" r="2.6" fill="#bc8cff" opacity="0.7"/>
<circle cx="323.9" cy="385.6" r="2.6" fill="#bc8cff" opacity="0.7"/>
<circle cx="336.3" cy="428.9" r="2.6" fill="#bc8cff" opacity="0.7"/>
<circle cx="348.8" cy="395.8" r="2.6" fill="#bc8cff" opacity="0.7"/>
<circle cx="361.2" cy="422.8" r="2.6" fill="#bc8cff" opacity="0.7"/>
<circle cx="373.6" cy="437.9" r="2.6" fill="#bc8cff" opacity="0.7"/>
<circle cx="386.0" cy="429.5" r="2.6" fill="#bc8cff" opacity="0.7"/>
<circle cx="398.4" cy="423.4" r="2.6" fill="#bc8cff" opacity="0.7"/>
<circle cx="410.8" cy="424.6" r="2.6" fill="#bc8cff" opacity="0.7"/>
<circle cx="423.2" cy="394.3" r="2.6" fill="#bc8cff" opacity="0.7"/>
<circle cx="435.6" cy="388.7" r="2.6" fill="#bc8cff" opacity="0.7"/>
<circle cx="448.0" cy="276.0" r="2.6" fill="#bc8cff" opacity="0.7"/>
<circle cx="460.5" cy="378.6" r="2.6" fill="#bc8cff" opacity="0.7"/>
<circle cx="472.9" cy="393.5" r="2.6" fill="#bc8cff" opacity="0.7"/>
<circle cx="485.3" cy="319.9" r="2.6" fill="#bc8cff" opacity="0.7"/>
<circle cx="497.7" cy="396.2" r="2.6" fill="#bc8cff" opacity="0.7"/>
<circle cx="510.1" cy="340.6" r="2.6" fill="#bc8cff" opacity="0.7"/>
<circle cx="522.5" cy="400.8" r="2.6" fill="#bc8cff" opacity="0.7"/>
<circle cx="534.9" cy="393.1" r="2.6" fill="#bc8cff" opacity="0.7"/>
<circle cx="547.3" cy="88.9" r="2.6" fill="#bc8cff" opacity="0.7"/>
<circle cx="559.8" cy="389.7" r="2.6" fill="#bc8cff" opacity="0.7"/>
<circle cx="572.2" cy="433.3" r="2.6" fill="#bc8cff" opacity="0.7"/>
<circle cx="584.6" cy="388.8" r="2.6" fill="#bc8cff" opacity="0.7"/>
<circle cx="597.0" cy="386.6" r="2.6" fill="#bc8cff" opacity="0.7"/>
<circle cx="609.4" cy="397.7" r="2.6" fill="#bc8cff" opacity="0.7"/>
<circle cx="621.8" cy="408.7" r="2.6" fill="#bc8cff" opacity="0.7"/>
<circle cx="634.2" cy="399.4" r="2.6" fill="#bc8cff" opacity="0.7"/>
<circle cx="646.6" cy="419.1" r="2.6" fill="#bc8cff" opacity="0.7"/>
<circle cx="659.0" cy="368.8" r="2.6" fill="#bc8cff" opacity="0.7"/>
<circle cx="671.5" cy="396.9" r="2.6" fill="#bc8cff" opacity="0.7"/>
<circle cx="683.9" cy="408.9" r="2.6" fill="#bc8cff" opacity="0.7"/>
<circle cx="696.3" cy="400.6" r="2.6" fill="#bc8cff" opacity="0.7"/>
<circle cx="708.7" cy="404.0" r="2.6" fill="#bc8cff" opacity="0.7"/>
<circle cx="721.1" cy="418.5" r="2.6" fill="#bc8cff" opacity="0.7"/>
<circle cx="733.5" cy="444.8" r="2.6" fill="#bc8cff" opacity="0.7"/>
<circle cx="745.9" cy="419.4" r="2.6" fill="#bc8cff" opacity="0.7"/>
<circle cx="758.3" cy="409.4" r="2.6" fill="#bc8cff" opacity="0.7"/>
<circle cx="770.8" cy="258.5" r="2.6" fill="#bc8cff" opacity="0.7"/>
<circle cx="783.2" cy="362.5" r="2.6" fill="#bc8cff" opacity="0.7"/>
<circle cx="97.2" cy="394.1" r="3.2" fill="#ff922b" opacity="0.85"/>
<circle cx="109.6" cy="414.9" r="3.2" fill="#ff922b" opacity="0.85"/>
<circle cx="122.0" cy="426.6" r="3.2" fill="#ff922b" opacity="0.85"/>
<circle cx="134.4" cy="431.8" r="3.2" fill="#ff922b" opacity="0.85"/>
<circle cx="146.8" cy="398.4" r="3.2" fill="#ff922b" opacity="0.85"/>
<circle cx="159.2" cy="381.7" r="3.2" fill="#ff922b" opacity="0.85"/>
<circle cx="171.6" cy="399.1" r="3.2" fill="#ff922b" opacity="0.85"/>
<circle cx="184.0" cy="391.9" r="3.2" fill="#ff922b" opacity="0.85"/>
<circle cx="196.4" cy="380.1" r="3.2" fill="#ff922b" opacity="0.85"/>
<circle cx="208.9" cy="377.3" r="3.2" fill="#ff922b" opacity="0.85"/>
<circle cx="221.3" cy="396.9" r="3.2" fill="#ff922b" opacity="0.85"/>
<circle cx="233.7" cy="394.4" r="3.2" fill="#ff922b" opacity="0.85"/>
<circle cx="246.1" cy="404.1" r="3.2" fill="#ff922b" opacity="0.85"/>
<circle cx="258.5" cy="404.0" r="3.2" fill="#ff922b" opacity="0.85"/>
<circle cx="270.9" cy="395.7" r="3.2" fill="#ff922b" opacity="0.85"/>
<circle cx="283.3" cy="401.0" r="3.2" fill="#ff922b" opacity="0.85"/>
<circle cx="295.7" cy="395.5" r="3.2" fill="#ff922b" opacity="0.85"/>
<circle cx="308.1" cy="391.0" r="3.2" fill="#ff922b" opacity="0.85"/>
<circle cx="320.6" cy="399.4" r="3.2" fill="#ff922b" opacity="0.85"/>
<circle cx="333.0" cy="414.3" r="3.2" fill="#ff922b" opacity="0.85"/>
<circle cx="345.4" cy="410.0" r="3.2" fill="#ff922b" opacity="0.85"/>
<circle cx="357.8" cy="405.1" r="3.2" fill="#ff922b" opacity="0.85"/>
<circle cx="370.2" cy="437.8" r="3.2" fill="#ff922b" opacity="0.85"/>
<circle cx="382.6" cy="409.2" r="3.2" fill="#ff922b" opacity="0.85"/>
<circle cx="395.0" cy="409.6" r="3.2" fill="#ff922b" opacity="0.85"/>
<circle cx="407.4" cy="405.6" r="3.2" fill="#ff922b" opacity="0.85"/>
<circle cx="419.9" cy="396.3" r="3.2" fill="#ff922b" opacity="0.85"/>
<circle cx="432.3" cy="398.6" r="3.2" fill="#ff922b" opacity="0.85"/>
<circle cx="444.7" cy="402.5" r="3.2" fill="#ff922b" opacity="0.85"/>
<circle cx="457.1" cy="402.1" r="3.2" fill="#ff922b" opacity="0.85"/>
<circle cx="469.5" cy="400.7" r="3.2" fill="#ff922b" opacity="0.85"/>
<circle cx="481.9" cy="363.0" r="3.2" fill="#ff922b" opacity="0.85"/>
<circle cx="494.3" cy="401.0" r="3.2" fill="#ff922b" opacity="0.85"/>
<circle cx="506.7" cy="400.3" r="3.2" fill="#ff922b" opacity="0.85"/>
<circle cx="519.1" cy="397.1" r="3.2" fill="#ff922b" opacity="0.85"/>
<circle cx="531.6" cy="382.6" r="3.2" fill="#ff922b" opacity="0.85"/>
<circle cx="544.0" cy="397.4" r="3.2" fill="#ff922b" opacity="0.85"/>
<circle cx="556.4" cy="400.8" r="3.2" fill="#ff922b" opacity="0.85"/>
<circle cx="568.8" cy="397.9" r="3.2" fill="#ff922b" opacity="0.85"/>
<circle cx="581.2" cy="411.0" r="3.2" fill="#ff922b" opacity="0.85"/>
<circle cx="593.6" cy="398.1" r="3.2" fill="#ff922b" opacity="0.85"/>
<circle cx="606.0" cy="399.7" r="3.2" fill="#ff922b" opacity="0.85"/>
<circle cx="618.4" cy="397.4" r="3.2" fill="#ff922b" opacity="0.85"/>
<circle cx="630.9" cy="449.9" r="3.2" fill="#ff922b" opacity="0.85"/>
<circle cx="643.3" cy="384.9" r="3.2" fill="#ff922b" opacity="0.85"/>
<circle cx="655.7" cy="407.6" r="3.2" fill="#ff922b" opacity="0.85"/>
<circle cx="668.1" cy="366.5" r="3.2" fill="#ff922b" opacity="0.85"/>
<circle cx="680.5" cy="399.1" r="3.2" fill="#ff922b" opacity="0.85"/>
<circle cx="692.9" cy="403.6" r="3.2" fill="#ff922b" opacity="0.85"/>
<circle cx="705.3" cy="408.3" r="3.2" fill="#ff922b" opacity="0.85"/>
<circle cx="717.7" cy="401.9" r="3.2" fill="#ff922b" opacity="0.85"/>
<circle cx="730.1" cy="386.1" r="3.2" fill="#ff922b" opacity="0.85"/>
<circle cx="742.6" cy="387.7" r="3.2" fill="#ff922b" opacity="0.85"/>
<circle cx="755.0" cy="401.6" r="3.2" fill="#ff922b" opacity="0.85"/>
<circle cx="767.4" cy="303.3" r="3.2" fill="#ff922b" opacity="0.85"/>
<circle cx="779.8" cy="365.5" r="3.2" fill="#ff922b" opacity="0.85"/>
<circle cx="139.4" cy="399.5" r="2.6" fill="none" stroke="#d4a017" stroke-width="1.8" opacity="0.7999999999999999"/>
<circle cx="151.9" cy="401.6" r="2.6" fill="none" stroke="#d4a017" stroke-width="1.8" opacity="0.7999999999999999"/>
<circle cx="189.1" cy="399.6" r="2.6" fill="none" stroke="#d4a017" stroke-width="1.8" opacity="0.7999999999999999"/>
<circle cx="201.5" cy="390.0" r="2.6" fill="none" stroke="#d4a017" stroke-width="1.8" opacity="0.7999999999999999"/>
<circle cx="213.9" cy="383.3" r="2.6" fill="none" stroke="#d4a017" stroke-width="1.8" opacity="0.7999999999999999"/>
<circle cx="238.7" cy="394.8" r="2.6" fill="none" stroke="#d4a017" stroke-width="1.8" opacity="0.7999999999999999"/>
<circle cx="300.8" cy="394.1" r="2.6" fill="none" stroke="#d4a017" stroke-width="1.8" opacity="0.7999999999999999"/>
<circle cx="424.9" cy="403.1" r="2.6" fill="none" stroke="#d4a017" stroke-width="1.8" opacity="0.7999999999999999"/>
<circle cx="499.4" cy="401.0" r="2.6" fill="none" stroke="#d4a017" stroke-width="1.8" opacity="0.7999999999999999"/>
<circle cx="536.6" cy="394.2" r="2.6" fill="none" stroke="#d4a017" stroke-width="1.8" opacity="0.7999999999999999"/>
<circle cx="611.1" cy="400.4" r="2.6" fill="none" stroke="#d4a017" stroke-width="1.8" opacity="0.7999999999999999"/>
<circle cx="673.1" cy="365.4" r="2.6" fill="none" stroke="#d4a017" stroke-width="1.8" opacity="0.7999999999999999"/>
<circle cx="685.6" cy="399.3" r="2.6" fill="none" stroke="#d4a017" stroke-width="1.8" opacity="0.7999999999999999"/>
<circle cx="772.4" cy="402.2" r="2.6" fill="none" stroke="#d4a017" stroke-width="1.8" opacity="0.7999999999999999"/>
<circle cx="847" cy="84" r="5" fill="#ff922b"/>
<text x="866" y="88" font-size="13" fill="#c9d1d9" font-weight="700">Kāra</text>
<line x1="836" y1="108" x2="858" y2="108" stroke="#a7b0bc" stroke-width="2" stroke-dasharray="5 4"/>
<text x="866" y="112" font-size="13" fill="#c9d1d9" font-weight="400">Rust = 1.0×</text>
<circle cx="847" cy="132" r="4" fill="#3fb950"/>
<text x="866" y="136" font-size="13" fill="#c9d1d9" font-weight="400">C</text>
<circle cx="847" cy="156" r="4" fill="#bc8cff"/>
<text x="866" y="160" font-size="13" fill="#c9d1d9" font-weight="400">Go</text>
<circle cx="847" cy="180" r="4" fill="none" stroke="#d4a017" stroke-width="1.8"/>
<text x="866" y="184" font-size="12" fill="#c9d1d9" font-weight="400">Rust (checked)</text>
<text x="70" y="538" font-size="11.5" fill="#8b949e">Each dot is one benchmarked program (kata × approach); there is no connecting line because left-to-right order is not meaningful. Raw numbers: bench-results.json</text>
</svg>