<svg xmlns="http://www.w3.org/2000/svg" width="980" height="560" viewBox="0 0 980 560" font-family="-apple-system,Segoe UI,Helvetica,Arial,sans-serif">
<rect width="980" height="560" fill="#282c34"/>
<text x="70" y="34" font-size="21" font-weight="700" fill="#c9d1d9">Runtime — sequential lane</text>
<text x="70" y="56" font-size="13" fill="#8b949e">relative to Rust = 1.0 · lower = faster · 57 programs</text>
<line x1="70" y1="456.0" x2="812" y2="456.0" stroke="#3b414b" stroke-width="1"/>
<text x="60" y="460.0" font-size="12" text-anchor="end" fill="#8b949e">0.0×</text>
<line x1="70" y1="402.0" x2="812" y2="402.0" stroke="#a7b0bc" stroke-width="2" stroke-dasharray="5 4"/>
<text x="60" y="406.0" font-size="12" text-anchor="end" fill="#aeb6c0" font-weight="700">1.0×</text>
<line x1="70" y1="380.4" x2="812" y2="380.4" stroke="#3b414b" stroke-width="1"/>
<text x="60" y="384.4" font-size="12" text-anchor="end" fill="#8b949e">1.4×</text>
<line x1="70" y1="304.8" x2="812" y2="304.8" stroke="#3b414b" stroke-width="1"/>
<text x="60" y="308.8" font-size="12" text-anchor="end" fill="#8b949e">2.8×</text>
<line x1="70" y1="229.2" x2="812" y2="229.2" stroke="#3b414b" stroke-width="1"/>
<text x="60" y="233.2" font-size="12" text-anchor="end" fill="#8b949e">4.2×</text>
<line x1="70" y1="153.6" x2="812" y2="153.6" stroke="#3b414b" stroke-width="1"/>
<text x="60" y="157.6" font-size="12" text-anchor="end" fill="#8b949e">5.6×</text>
<line x1="70" y1="78.0" x2="812" y2="78.0" stroke="#3b414b" stroke-width="1"/>
<text x="60" y="82.0" font-size="12" text-anchor="end" fill="#8b949e">7.0×</text>
<text x="812" y="396.0" font-size="11" text-anchor="end" fill="#aeb6c0">Rust baseline</text>
<line x1="70" y1="456" x2="812" y2="456" stroke="#3b414b"/>
<text x="441.0" y="478" font-size="11" text-anchor="middle" fill="#8b949e">57 programs (kata × approach) — x-order carries no meaning</text>
<circle cx="98.9" cy="402.1" r="2.6" fill="#3fb950" opacity="0.7"/>
<circle cx="111.0" cy="421.6" r="2.6" fill="#3fb950" opacity="0.7"/>
<circle cx="123.2" cy="425.2" r="2.6" fill="#3fb950" opacity="0.7"/>
<circle cx="135.4" cy="442.8" r="2.6" fill="#3fb950" opacity="0.7"/>
<circle cx="147.6" cy="413.8" r="2.6" fill="#3fb950" opacity="0.7"/>
<circle cx="159.8" cy="411.4" r="2.6" fill="#3fb950" opacity="0.7"/>
<circle cx="172.0" cy="402.3" r="2.6" fill="#3fb950" opacity="0.7"/>
<circle cx="184.2" cy="399.7" r="2.6" fill="#3fb950" opacity="0.7"/>
<circle cx="196.4" cy="397.0" r="2.6" fill="#3fb950" opacity="0.7"/>
<circle cx="208.6" cy="395.5" r="2.6" fill="#3fb950" opacity="0.7"/>
<circle cx="220.8" cy="402.1" r="2.6" fill="#3fb950" opacity="0.7"/>
<circle cx="232.9" cy="409.1" r="2.6" fill="#3fb950" opacity="0.7"/>
<circle cx="245.1" cy="395.6" r="2.6" fill="#3fb950" opacity="0.7"/>
<circle cx="257.3" cy="399.0" r="2.6" fill="#3fb950" opacity="0.7"/>
<circle cx="269.5" cy="413.4" r="2.6" fill="#3fb950" opacity="0.7"/>
<circle cx="281.7" cy="397.3" r="2.6" fill="#3fb950" opacity="0.7"/>
<circle cx="293.9" cy="357.8" r="2.6" fill="#3fb950" opacity="0.7"/>
<circle cx="306.1" cy="415.1" r="2.6" fill="#3fb950" opacity="0.7"/>
<circle cx="318.3" cy="403.5" r="2.6" fill="#3fb950" opacity="0.7"/>
<circle cx="330.5" cy="423.2" r="2.6" fill="#3fb950" opacity="0.7"/>
<circle cx="342.7" cy="406.5" r="2.6" fill="#3fb950" opacity="0.7"/>
<circle cx="354.8" cy="419.9" r="2.6" fill="#3fb950" opacity="0.7"/>
<circle cx="367.0" cy="439.8" r="2.6" fill="#3fb950" opacity="0.7"/>
<circle cx="379.2" cy="424.6" r="2.6" fill="#3fb950" opacity="0.7"/>
<circle cx="391.4" cy="418.3" r="2.6" fill="#3fb950" opacity="0.7"/>
<circle cx="403.6" cy="420.5" r="2.6" fill="#3fb950" opacity="0.7"/>
<circle cx="415.8" cy="400.5" r="2.6" fill="#3fb950" opacity="0.7"/>
<circle cx="428.0" cy="400.0" r="2.6" fill="#3fb950" opacity="0.7"/>
<circle cx="440.2" cy="402.1" r="2.6" fill="#3fb950" opacity="0.7"/>
<circle cx="452.4" cy="414.5" r="2.6" fill="#3fb950" opacity="0.7"/>
<circle cx="464.6" cy="401.5" r="2.6" fill="#3fb950" opacity="0.7"/>
<circle cx="476.7" cy="435.9" r="2.6" fill="#3fb950" opacity="0.7"/>
<circle cx="488.9" cy="402.2" r="2.6" fill="#3fb950" opacity="0.7"/>
<circle cx="501.1" cy="421.6" r="2.6" fill="#3fb950" opacity="0.7"/>
<circle cx="513.3" cy="415.8" r="2.6" fill="#3fb950" opacity="0.7"/>
<circle cx="525.5" cy="417.3" r="2.6" fill="#3fb950" opacity="0.7"/>
<circle cx="537.7" cy="431.2" r="2.6" fill="#3fb950" opacity="0.7"/>
<circle cx="549.9" cy="369.7" r="2.6" fill="#3fb950" opacity="0.7"/>
<circle cx="562.1" cy="393.0" r="2.6" fill="#3fb950" opacity="0.7"/>
<circle cx="574.3" cy="450.6" r="2.6" fill="#3fb950" opacity="0.7"/>
<circle cx="586.5" cy="419.1" r="2.6" fill="#3fb950" opacity="0.7"/>
<circle cx="598.6" cy="395.0" r="2.6" fill="#3fb950" opacity="0.7"/>
<circle cx="610.8" cy="404.2" r="2.6" fill="#3fb950" opacity="0.7"/>
<circle cx="623.0" cy="425.5" r="2.6" fill="#3fb950" opacity="0.7"/>
<circle cx="635.2" cy="445.3" r="2.6" fill="#3fb950" opacity="0.7"/>
<circle cx="647.4" cy="415.7" r="2.6" fill="#3fb950" opacity="0.7"/>
<circle cx="659.6" cy="412.3" r="2.6" fill="#3fb950" opacity="0.7"/>
<circle cx="671.8" cy="404.0" r="2.6" fill="#3fb950" opacity="0.7"/>
<circle cx="684.0" cy="402.7" r="2.6" fill="#3fb950" opacity="0.7"/>
<circle cx="696.2" cy="412.4" r="2.6" fill="#3fb950" opacity="0.7"/>
<circle cx="708.4" cy="407.1" r="2.6" fill="#3fb950" opacity="0.7"/>
<circle cx="720.5" cy="411.4" r="2.6" fill="#3fb950" opacity="0.7"/>
<circle cx="732.7" cy="452.2" r="2.6" fill="#3fb950" opacity="0.7"/>
<circle cx="744.9" cy="447.1" r="2.6" fill="#3fb950" opacity="0.7"/>
<circle cx="757.1" cy="406.6" r="2.6" fill="#3fb950" opacity="0.7"/>
<circle cx="769.3" cy="391.2" r="2.6" fill="#3fb950" opacity="0.7"/>
<circle cx="781.5" cy="416.2" r="2.6" fill="#3fb950" opacity="0.7"/>
<circle cx="100.5" cy="401.6" r="2.6" fill="#bc8cff" opacity="0.7"/>
<circle cx="112.7" cy="392.0" r="2.6" fill="#bc8cff" opacity="0.7"/>
<circle cx="124.9" cy="428.8" r="2.6" fill="#bc8cff" opacity="0.7"/>
<circle cx="137.1" cy="392.5" r="2.6" fill="#bc8cff" opacity="0.7"/>
<circle cx="149.3" cy="358.8" r="2.6" fill="#bc8cff" opacity="0.7"/>
<circle cx="161.5" cy="391.4" r="2.6" fill="#bc8cff" opacity="0.7"/>
<circle cx="173.6" cy="315.8" r="2.6" fill="#bc8cff" opacity="0.7"/>
<circle cx="185.8" cy="393.4" r="2.6" fill="#bc8cff" opacity="0.7"/>
<circle cx="198.0" cy="385.2" r="2.6" fill="#bc8cff" opacity="0.7"/>
<circle cx="210.2" cy="362.9" r="2.6" fill="#bc8cff" opacity="0.7"/>
<circle cx="222.4" cy="372.1" r="2.6" fill="#bc8cff" opacity="0.7"/>
<circle cx="234.6" cy="423.7" r="2.6" fill="#bc8cff" opacity="0.7"/>
<circle cx="246.8" cy="401.0" r="2.6" fill="#bc8cff" opacity="0.7"/>
<circle cx="259.0" cy="400.3" r="2.6" fill="#bc8cff" opacity="0.7"/>
<circle cx="271.2" cy="412.8" r="2.6" fill="#bc8cff" opacity="0.7"/>
<circle cx="283.4" cy="373.1" r="2.6" fill="#bc8cff" opacity="0.7"/>
<circle cx="295.5" cy="302.1" r="2.6" fill="#bc8cff" opacity="0.7"/>
<circle cx="307.7" cy="419.5" r="2.6" fill="#bc8cff" opacity="0.7"/>
<circle cx="319.9" cy="385.6" r="2.6" fill="#bc8cff" opacity="0.7"/>
<circle cx="332.1" cy="428.9" r="2.6" fill="#bc8cff" opacity="0.7"/>
<circle cx="344.3" cy="395.8" r="2.6" fill="#bc8cff" opacity="0.7"/>
<circle cx="356.5" cy="422.8" r="2.6" fill="#bc8cff" opacity="0.7"/>
<circle cx="368.7" cy="437.9" r="2.6" fill="#bc8cff" opacity="0.7"/>
<circle cx="380.9" cy="429.5" r="2.6" fill="#bc8cff" opacity="0.7"/>
<circle cx="393.1" cy="423.4" r="2.6" fill="#bc8cff" opacity="0.7"/>
<circle cx="405.3" cy="424.6" r="2.6" fill="#bc8cff" opacity="0.7"/>
<circle cx="417.4" cy="394.3" r="2.6" fill="#bc8cff" opacity="0.7"/>
<circle cx="429.6" cy="388.7" r="2.6" fill="#bc8cff" opacity="0.7"/>
<circle cx="441.8" cy="276.0" r="2.6" fill="#bc8cff" opacity="0.7"/>
<circle cx="454.0" cy="378.6" r="2.6" fill="#bc8cff" opacity="0.7"/>
<circle cx="466.2" cy="393.5" r="2.6" fill="#bc8cff" opacity="0.7"/>
<circle cx="478.4" cy="319.9" r="2.6" fill="#bc8cff" opacity="0.7"/>
<circle cx="490.6" cy="396.2" r="2.6" fill="#bc8cff" opacity="0.7"/>
<circle cx="502.8" cy="340.6" r="2.6" fill="#bc8cff" opacity="0.7"/>
<circle cx="515.0" cy="400.8" r="2.6" fill="#bc8cff" opacity="0.7"/>
<circle cx="527.2" cy="416.0" r="2.6" fill="#bc8cff" opacity="0.7"/>
<circle cx="539.3" cy="393.1" r="2.6" fill="#bc8cff" opacity="0.7"/>
<circle cx="551.5" cy="88.9" r="2.6" fill="#bc8cff" opacity="0.7"/>
<circle cx="563.7" cy="389.7" r="2.6" fill="#bc8cff" opacity="0.7"/>
<circle cx="575.9" cy="433.3" r="2.6" fill="#bc8cff" opacity="0.7"/>
<circle cx="588.1" cy="388.8" r="2.6" fill="#bc8cff" opacity="0.7"/>
<circle cx="600.3" cy="386.6" r="2.6" fill="#bc8cff" opacity="0.7"/>
<circle cx="612.5" cy="397.7" r="2.6" fill="#bc8cff" opacity="0.7"/>
<circle cx="624.7" cy="408.7" r="2.6" fill="#bc8cff" opacity="0.7"/>
<circle cx="636.9" cy="399.4" r="2.6" fill="#bc8cff" opacity="0.7"/>
<circle cx="649.1" cy="419.1" r="2.6" fill="#bc8cff" opacity="0.7"/>
<circle cx="661.2" cy="368.8" r="2.6" fill="#bc8cff" opacity="0.7"/>
<circle cx="673.4" cy="396.9" r="2.6" fill="#bc8cff" opacity="0.7"/>
<circle cx="685.6" cy="408.9" r="2.6" fill="#bc8cff" opacity="0.7"/>
<circle cx="697.8" cy="400.6" r="2.6" fill="#bc8cff" opacity="0.7"/>
<circle cx="710.0" cy="404.0" r="2.6" fill="#bc8cff" opacity="0.7"/>
<circle cx="722.2" cy="418.5" r="2.6" fill="#bc8cff" opacity="0.7"/>
<circle cx="734.4" cy="444.8" r="2.6" fill="#bc8cff" opacity="0.7"/>
<circle cx="746.6" cy="419.4" r="2.6" fill="#bc8cff" opacity="0.7"/>
<circle cx="758.8" cy="409.4" r="2.6" fill="#bc8cff" opacity="0.7"/>
<circle cx="771.0" cy="258.5" r="2.6" fill="#bc8cff" opacity="0.7"/>
<circle cx="783.1" cy="362.5" r="2.6" fill="#bc8cff" opacity="0.7"/>
<circle cx="97.2" cy="394.1" r="3.2" fill="#ff922b" opacity="0.85"/>
<circle cx="109.4" cy="414.9" r="3.2" fill="#ff922b" opacity="0.85"/>
<circle cx="121.6" cy="426.6" r="3.2" fill="#ff922b" opacity="0.85"/>
<circle cx="133.8" cy="431.8" r="3.2" fill="#ff922b" opacity="0.85"/>
<circle cx="146.0" cy="398.4" r="3.2" fill="#ff922b" opacity="0.85"/>
<circle cx="158.1" cy="381.7" r="3.2" fill="#ff922b" opacity="0.85"/>
<circle cx="170.3" cy="399.1" r="3.2" fill="#ff922b" opacity="0.85"/>
<circle cx="182.5" cy="391.9" r="3.2" fill="#ff922b" opacity="0.85"/>
<circle cx="194.7" cy="380.1" r="3.2" fill="#ff922b" opacity="0.85"/>
<circle cx="206.9" cy="377.3" r="3.2" fill="#ff922b" opacity="0.85"/>
<circle cx="219.1" cy="396.9" r="3.2" fill="#ff922b" opacity="0.85"/>
<circle cx="231.3" cy="394.4" r="3.2" fill="#ff922b" opacity="0.85"/>
<circle cx="243.5" cy="404.1" r="3.2" fill="#ff922b" opacity="0.85"/>
<circle cx="255.7" cy="404.0" r="3.2" fill="#ff922b" opacity="0.85"/>
<circle cx="267.9" cy="395.7" r="3.2" fill="#ff922b" opacity="0.85"/>
<circle cx="280.0" cy="401.0" r="3.2" fill="#ff922b" opacity="0.85"/>
<circle cx="292.2" cy="395.5" r="3.2" fill="#ff922b" opacity="0.85"/>
<circle cx="304.4" cy="391.0" r="3.2" fill="#ff922b" opacity="0.85"/>
<circle cx="316.6" cy="399.4" r="3.2" fill="#ff922b" opacity="0.85"/>
<circle cx="328.8" cy="414.3" r="3.2" fill="#ff922b" opacity="0.85"/>
<circle cx="341.0" cy="410.0" r="3.2" fill="#ff922b" opacity="0.85"/>
<circle cx="353.2" cy="405.1" r="3.2" fill="#ff922b" opacity="0.85"/>
<circle cx="365.4" cy="437.8" r="3.2" fill="#ff922b" opacity="0.85"/>
<circle cx="377.6" cy="409.2" r="3.2" fill="#ff922b" opacity="0.85"/>
<circle cx="389.8" cy="409.6" r="3.2" fill="#ff922b" opacity="0.85"/>
<circle cx="401.9" cy="405.6" r="3.2" fill="#ff922b" opacity="0.85"/>
<circle cx="414.1" cy="396.3" r="3.2" fill="#ff922b" opacity="0.85"/>
<circle cx="426.3" cy="398.6" r="3.2" fill="#ff922b" opacity="0.85"/>
<circle cx="438.5" cy="402.5" r="3.2" fill="#ff922b" opacity="0.85"/>
<circle cx="450.7" cy="402.1" r="3.2" fill="#ff922b" opacity="0.85"/>
<circle cx="462.9" cy="400.7" r="3.2" fill="#ff922b" opacity="0.85"/>
<circle cx="475.1" cy="363.0" r="3.2" fill="#ff922b" opacity="0.85"/>
<circle cx="487.3" cy="401.0" r="3.2" fill="#ff922b" opacity="0.85"/>
<circle cx="499.5" cy="400.3" r="3.2" fill="#ff922b" opacity="0.85"/>
<circle cx="511.7" cy="397.1" r="3.2" fill="#ff922b" opacity="0.85"/>
<circle cx="523.8" cy="396.1" r="3.2" fill="#ff922b" opacity="0.85"/>
<circle cx="536.0" cy="382.6" r="3.2" fill="#ff922b" opacity="0.85"/>
<circle cx="548.2" cy="397.4" r="3.2" fill="#ff922b" opacity="0.85"/>
<circle cx="560.4" cy="400.8" r="3.2" fill="#ff922b" opacity="0.85"/>
<circle cx="572.6" cy="397.9" r="3.2" fill="#ff922b" opacity="0.85"/>
<circle cx="584.8" cy="411.0" r="3.2" fill="#ff922b" opacity="0.85"/>
<circle cx="597.0" cy="398.1" r="3.2" fill="#ff922b" opacity="0.85"/>
<circle cx="609.2" cy="399.7" r="3.2" fill="#ff922b" opacity="0.85"/>
<circle cx="621.4" cy="397.4" r="3.2" fill="#ff922b" opacity="0.85"/>
<circle cx="633.6" cy="449.9" r="3.2" fill="#ff922b" opacity="0.85"/>
<circle cx="645.7" cy="384.9" r="3.2" fill="#ff922b" opacity="0.85"/>
<circle cx="657.9" cy="407.6" r="3.2" fill="#ff922b" opacity="0.85"/>
<circle cx="670.1" cy="366.5" r="3.2" fill="#ff922b" opacity="0.85"/>
<circle cx="682.3" cy="399.1" r="3.2" fill="#ff922b" opacity="0.85"/>
<circle cx="694.5" cy="403.6" r="3.2" fill="#ff922b" opacity="0.85"/>
<circle cx="706.7" cy="408.3" r="3.2" fill="#ff922b" opacity="0.85"/>
<circle cx="718.9" cy="401.9" r="3.2" fill="#ff922b" opacity="0.85"/>
<circle cx="731.1" cy="386.1" r="3.2" fill="#ff922b" opacity="0.85"/>
<circle cx="743.3" cy="387.7" r="3.2" fill="#ff922b" opacity="0.85"/>
<circle cx="755.5" cy="401.6" r="3.2" fill="#ff922b" opacity="0.85"/>
<circle cx="767.6" cy="303.3" r="3.2" fill="#ff922b" opacity="0.85"/>
<circle cx="779.8" cy="365.5" r="3.2" fill="#ff922b" opacity="0.85"/>
<circle cx="138.7" cy="399.5" r="2.6" fill="none" stroke="#d4a017" stroke-width="1.8" opacity="0.7999999999999999"/>
<circle cx="150.9" cy="401.6" r="2.6" fill="none" stroke="#d4a017" stroke-width="1.8" opacity="0.7999999999999999"/>
<circle cx="187.5" cy="399.6" r="2.6" fill="none" stroke="#d4a017" stroke-width="1.8" opacity="0.7999999999999999"/>
<circle cx="199.7" cy="390.0" r="2.6" fill="none" stroke="#d4a017" stroke-width="1.8" opacity="0.7999999999999999"/>
<circle cx="211.9" cy="383.3" r="2.6" fill="none" stroke="#d4a017" stroke-width="1.8" opacity="0.7999999999999999"/>
<circle cx="236.3" cy="394.8" r="2.6" fill="none" stroke="#d4a017" stroke-width="1.8" opacity="0.7999999999999999"/>
<circle cx="297.2" cy="394.1" r="2.6" fill="none" stroke="#d4a017" stroke-width="1.8" opacity="0.7999999999999999"/>
<circle cx="419.1" cy="403.1" r="2.6" fill="none" stroke="#d4a017" stroke-width="1.8" opacity="0.7999999999999999"/>
<circle cx="492.2" cy="401.0" r="2.6" fill="none" stroke="#d4a017" stroke-width="1.8" opacity="0.7999999999999999"/>
<circle cx="541.0" cy="394.2" r="2.6" fill="none" stroke="#d4a017" stroke-width="1.8" opacity="0.7999999999999999"/>
<circle cx="614.1" cy="400.4" r="2.6" fill="none" stroke="#d4a017" stroke-width="1.8" opacity="0.7999999999999999"/>
<circle cx="675.1" cy="365.4" r="2.6" fill="none" stroke="#d4a017" stroke-width="1.8" opacity="0.7999999999999999"/>
<circle cx="687.3" cy="399.3" r="2.6" fill="none" stroke="#d4a017" stroke-width="1.8" opacity="0.7999999999999999"/>
<circle cx="772.6" cy="402.2" r="2.6" fill="none" stroke="#d4a017" stroke-width="1.8" opacity="0.7999999999999999"/>
<circle cx="847" cy="84" r="5" fill="#ff922b"/>
<text x="866" y="88" font-size="13" fill="#c9d1d9" font-weight="700">Kāra</text>
<line x1="836" y1="108" x2="858" y2="108" stroke="#a7b0bc" stroke-width="2" stroke-dasharray="5 4"/>
<text x="866" y="112" font-size="13" fill="#c9d1d9" font-weight="400">Rust = 1.0×</text>
<circle cx="847" cy="132" r="4" fill="#3fb950"/>
<text x="866" y="136" font-size="13" fill="#c9d1d9" font-weight="400">C</text>
<circle cx="847" cy="156" r="4" fill="#bc8cff"/>
<text x="866" y="160" font-size="13" fill="#c9d1d9" font-weight="400">Go</text>
<circle cx="847" cy="180" r="4" fill="none" stroke="#d4a017" stroke-width="1.8"/>
<text x="866" y="184" font-size="12" fill="#c9d1d9" font-weight="400">Rust (checked)</text>
<text x="70" y="538" font-size="11.5" fill="#8b949e">Each dot is one benchmarked program (kata × approach); there is no connecting line because left-to-right order is not meaningful. Raw numbers: bench-results.json</text>
</svg>