<svg xmlns="http://www.w3.org/2000/svg" width="980" height="560" viewBox="0 0 980 560" font-family="-apple-system,Segoe UI,Helvetica,Arial,sans-serif">
<rect width="980" height="560" fill="#282c34"/>
<text x="70" y="34" font-size="21" font-weight="700" fill="#c9d1d9">Runtime — auto-parallel lane</text>
<text x="70" y="56" font-size="13" fill="#8b949e">relative to Rust = 1.0 · lower = faster · 37 programs</text>
<line x1="70" y1="456.0" x2="812" y2="456.0" stroke="#3b414b" stroke-width="1"/>
<text x="60" y="460.0" font-size="12" text-anchor="end" fill="#8b949e">0.0×</text>
<line x1="70" y1="437.1" x2="812" y2="437.1" stroke="#a7b0bc" stroke-width="2" stroke-dasharray="5 4"/>
<text x="60" y="441.1" font-size="12" text-anchor="end" fill="#aeb6c0" font-weight="700">1.0×</text>
<line x1="70" y1="380.4" x2="812" y2="380.4" stroke="#3b414b" stroke-width="1"/>
<text x="60" y="384.4" font-size="12" text-anchor="end" fill="#8b949e">4.0×</text>
<line x1="70" y1="304.8" x2="812" y2="304.8" stroke="#3b414b" stroke-width="1"/>
<text x="60" y="308.8" font-size="12" text-anchor="end" fill="#8b949e">8.0×</text>
<line x1="70" y1="229.2" x2="812" y2="229.2" stroke="#3b414b" stroke-width="1"/>
<text x="60" y="233.2" font-size="12" text-anchor="end" fill="#8b949e">12.0×</text>
<line x1="70" y1="153.6" x2="812" y2="153.6" stroke="#3b414b" stroke-width="1"/>
<text x="60" y="157.6" font-size="12" text-anchor="end" fill="#8b949e">16.0×</text>
<line x1="70" y1="78.0" x2="812" y2="78.0" stroke="#3b414b" stroke-width="1"/>
<text x="60" y="82.0" font-size="12" text-anchor="end" fill="#8b949e">20.0×</text>
<text x="812" y="431.1" font-size="11" text-anchor="end" fill="#aeb6c0">Rust baseline</text>
<line x1="70" y1="456" x2="812" y2="456" stroke="#3b414b"/>
<text x="441.0" y="478" font-size="11" text-anchor="middle" fill="#8b949e">37 programs (kata × approach) — x-order carries no meaning</text>
<circle cx="99.7" cy="413.0" r="2.6" fill="#3fb950" opacity="0.7"/>
<circle cx="118.6" cy="439.8" r="2.6" fill="#3fb950" opacity="0.7"/>
<circle cx="137.6" cy="422.5" r="2.6" fill="#3fb950" opacity="0.7"/>
<circle cx="156.6" cy="442.9" r="2.6" fill="#3fb950" opacity="0.7"/>
<circle cx="175.5" cy="436.9" r="2.6" fill="#3fb950" opacity="0.7"/>
<circle cx="194.5" cy="436.4" r="2.6" fill="#3fb950" opacity="0.7"/>
<circle cx="213.5" cy="436.4" r="2.6" fill="#3fb950" opacity="0.7"/>
<circle cx="232.4" cy="435.2" r="2.6" fill="#3fb950" opacity="0.7"/>
<circle cx="251.4" cy="438.8" r="2.6" fill="#3fb950" opacity="0.7"/>
<circle cx="270.3" cy="443.7" r="2.6" fill="#3fb950" opacity="0.7"/>
<circle cx="289.3" cy="433.4" r="2.6" fill="#3fb950" opacity="0.7"/>
<circle cx="308.3" cy="438.1" r="2.6" fill="#3fb950" opacity="0.7"/>
<circle cx="327.2" cy="437.7" r="2.6" fill="#3fb950" opacity="0.7"/>
<circle cx="346.2" cy="427.5" r="2.6" fill="#3fb950" opacity="0.7"/>
<circle cx="365.2" cy="437.8" r="2.6" fill="#3fb950" opacity="0.7"/>
<circle cx="384.1" cy="437.3" r="2.6" fill="#3fb950" opacity="0.7"/>
<circle cx="403.1" cy="436.4" r="2.6" fill="#3fb950" opacity="0.7"/>
<circle cx="422.0" cy="446.6" r="2.6" fill="#3fb950" opacity="0.7"/>
<circle cx="441.0" cy="450.7" r="2.6" fill="#3fb950" opacity="0.7"/>
<circle cx="460.0" cy="432.8" r="2.6" fill="#3fb950" opacity="0.7"/>
<circle cx="478.9" cy="436.2" r="2.6" fill="#3fb950" opacity="0.7"/>
<circle cx="497.9" cy="455.0" r="2.6" fill="#3fb950" opacity="0.7"/>
<circle cx="516.8" cy="434.6" r="2.6" fill="#3fb950" opacity="0.7"/>
<circle cx="535.8" cy="434.7" r="2.6" fill="#3fb950" opacity="0.7"/>
<circle cx="554.8" cy="453.6" r="2.6" fill="#3fb950" opacity="0.7"/>
<circle cx="573.7" cy="438.7" r="2.6" fill="#3fb950" opacity="0.7"/>
<circle cx="592.7" cy="444.2" r="2.6" fill="#3fb950" opacity="0.7"/>
<circle cx="611.7" cy="445.6" r="2.6" fill="#3fb950" opacity="0.7"/>
<circle cx="630.6" cy="434.9" r="2.6" fill="#3fb950" opacity="0.7"/>
<circle cx="649.6" cy="444.0" r="2.6" fill="#3fb950" opacity="0.7"/>
<circle cx="668.5" cy="450.0" r="2.6" fill="#3fb950" opacity="0.7"/>
<circle cx="687.5" cy="439.9" r="2.6" fill="#3fb950" opacity="0.7"/>
<circle cx="706.5" cy="438.7" r="2.6" fill="#3fb950" opacity="0.7"/>
<circle cx="725.4" cy="431.9" r="2.6" fill="#3fb950" opacity="0.7"/>
<circle cx="744.4" cy="433.2" r="2.6" fill="#3fb950" opacity="0.7"/>
<circle cx="763.4" cy="439.0" r="2.6" fill="#3fb950" opacity="0.7"/>
<circle cx="782.3" cy="418.4" r="2.6" fill="#3fb950" opacity="0.7"/>
<circle cx="102.3" cy="397.5" r="2.6" fill="#bc8cff" opacity="0.7"/>
<circle cx="121.3" cy="427.9" r="2.6" fill="#bc8cff" opacity="0.7"/>
<circle cx="140.2" cy="407.6" r="2.6" fill="#bc8cff" opacity="0.7"/>
<circle cx="159.2" cy="309.3" r="2.6" fill="#bc8cff" opacity="0.7"/>
<circle cx="178.2" cy="434.3" r="2.6" fill="#bc8cff" opacity="0.7"/>
<circle cx="197.1" cy="433.3" r="2.6" fill="#bc8cff" opacity="0.7"/>
<circle cx="216.1" cy="426.0" r="2.6" fill="#bc8cff" opacity="0.7"/>
<circle cx="235.0" cy="426.3" r="2.6" fill="#bc8cff" opacity="0.7"/>
<circle cx="254.0" cy="443.7" r="2.6" fill="#bc8cff" opacity="0.7"/>
<circle cx="273.0" cy="286.9" r="2.6" fill="#bc8cff" opacity="0.7"/>
<circle cx="291.9" cy="327.7" r="2.6" fill="#bc8cff" opacity="0.7"/>
<circle cx="310.9" cy="436.5" r="2.6" fill="#bc8cff" opacity="0.7"/>
<circle cx="329.9" cy="258.9" r="2.6" fill="#bc8cff" opacity="0.7"/>
<circle cx="348.8" cy="284.6" r="2.6" fill="#bc8cff" opacity="0.7"/>
<circle cx="367.8" cy="366.6" r="2.6" fill="#bc8cff" opacity="0.7"/>
<circle cx="386.7" cy="257.3" r="2.6" fill="#bc8cff" opacity="0.7"/>
<circle cx="405.7" cy="274.2" r="2.6" fill="#bc8cff" opacity="0.7"/>
<circle cx="424.7" cy="427.4" r="2.6" fill="#bc8cff" opacity="0.7"/>
<circle cx="443.6" cy="418.1" r="2.6" fill="#bc8cff" opacity="0.7"/>
<circle cx="462.6" cy="413.4" r="2.6" fill="#bc8cff" opacity="0.7"/>
<circle cx="481.6" cy="86.5" r="2.6" fill="#bc8cff" opacity="0.7"/>
<circle cx="500.5" cy="454.0" r="2.6" fill="#bc8cff" opacity="0.7"/>
<circle cx="519.5" cy="290.7" r="2.6" fill="#bc8cff" opacity="0.7"/>
<circle cx="538.4" cy="427.7" r="2.6" fill="#bc8cff" opacity="0.7"/>
<circle cx="557.4" cy="450.7" r="2.6" fill="#bc8cff" opacity="0.7"/>
<circle cx="576.4" cy="360.4" r="2.6" fill="#bc8cff" opacity="0.7"/>
<circle cx="595.3" cy="342.2" r="2.6" fill="#bc8cff" opacity="0.7"/>
<circle cx="614.3" cy="434.8" r="2.6" fill="#bc8cff" opacity="0.7"/>
<circle cx="633.3" cy="333.9" r="2.6" fill="#bc8cff" opacity="0.7"/>
<circle cx="652.2" cy="385.7" r="2.6" fill="#bc8cff" opacity="0.7"/>
<circle cx="671.2" cy="400.0" r="2.6" fill="#bc8cff" opacity="0.7"/>
<circle cx="690.1" cy="433.5" r="2.6" fill="#bc8cff" opacity="0.7"/>
<circle cx="709.1" cy="433.9" r="2.6" fill="#bc8cff" opacity="0.7"/>
<circle cx="728.1" cy="429.9" r="2.6" fill="#bc8cff" opacity="0.7"/>
<circle cx="747.0" cy="397.1" r="2.6" fill="#bc8cff" opacity="0.7"/>
<circle cx="766.0" cy="404.0" r="2.6" fill="#bc8cff" opacity="0.7"/>
<circle cx="785.0" cy="375.6" r="2.6" fill="#bc8cff" opacity="0.7"/>
<circle cx="97.0" cy="431.9" r="3.2" fill="#ff922b" opacity="0.85"/>
<circle cx="116.0" cy="438.1" r="3.2" fill="#ff922b" opacity="0.85"/>
<circle cx="135.0" cy="424.8" r="3.2" fill="#ff922b" opacity="0.85"/>
<circle cx="153.9" cy="440.0" r="3.2" fill="#ff922b" opacity="0.85"/>
<circle cx="172.9" cy="434.3" r="3.2" fill="#ff922b" opacity="0.85"/>
<circle cx="191.9" cy="432.4" r="3.2" fill="#ff922b" opacity="0.85"/>
<circle cx="210.8" cy="432.3" r="3.2" fill="#ff922b" opacity="0.85"/>
<circle cx="229.8" cy="433.9" r="3.2" fill="#ff922b" opacity="0.85"/>
<circle cx="248.7" cy="442.2" r="3.2" fill="#ff922b" opacity="0.85"/>
<circle cx="267.7" cy="434.7" r="3.2" fill="#ff922b" opacity="0.85"/>
<circle cx="286.7" cy="436.0" r="3.2" fill="#ff922b" opacity="0.85"/>
<circle cx="305.6" cy="434.6" r="3.2" fill="#ff922b" opacity="0.85"/>
<circle cx="324.6" cy="433.7" r="3.2" fill="#ff922b" opacity="0.85"/>
<circle cx="343.6" cy="433.7" r="3.2" fill="#ff922b" opacity="0.85"/>
<circle cx="362.5" cy="431.5" r="3.2" fill="#ff922b" opacity="0.85"/>
<circle cx="381.5" cy="434.4" r="3.2" fill="#ff922b" opacity="0.85"/>
<circle cx="400.4" cy="439.9" r="3.2" fill="#ff922b" opacity="0.85"/>
<circle cx="419.4" cy="447.1" r="3.2" fill="#ff922b" opacity="0.85"/>
<circle cx="438.4" cy="443.5" r="3.2" fill="#ff922b" opacity="0.85"/>
<circle cx="457.3" cy="429.5" r="3.2" fill="#ff922b" opacity="0.85"/>
<circle cx="476.3" cy="431.9" r="3.2" fill="#ff922b" opacity="0.85"/>
<circle cx="495.3" cy="436.2" r="3.2" fill="#ff922b" opacity="0.85"/>
<circle cx="514.2" cy="425.8" r="3.2" fill="#ff922b" opacity="0.85"/>
<circle cx="533.2" cy="434.6" r="3.2" fill="#ff922b" opacity="0.85"/>
<circle cx="552.1" cy="435.3" r="3.2" fill="#ff922b" opacity="0.85"/>
<circle cx="571.1" cy="437.5" r="3.2" fill="#ff922b" opacity="0.85"/>
<circle cx="590.1" cy="434.5" r="3.2" fill="#ff922b" opacity="0.85"/>
<circle cx="609.0" cy="442.2" r="3.2" fill="#ff922b" opacity="0.85"/>
<circle cx="628.0" cy="434.0" r="3.2" fill="#ff922b" opacity="0.85"/>
<circle cx="647.0" cy="435.2" r="3.2" fill="#ff922b" opacity="0.85"/>
<circle cx="665.9" cy="442.3" r="3.2" fill="#ff922b" opacity="0.85"/>
<circle cx="684.9" cy="436.2" r="3.2" fill="#ff922b" opacity="0.85"/>
<circle cx="703.8" cy="427.4" r="3.2" fill="#ff922b" opacity="0.85"/>
<circle cx="722.8" cy="425.4" r="3.2" fill="#ff922b" opacity="0.85"/>
<circle cx="741.8" cy="435.8" r="3.2" fill="#ff922b" opacity="0.85"/>
<circle cx="760.7" cy="432.7" r="3.2" fill="#ff922b" opacity="0.85"/>
<circle cx="779.7" cy="435.7" r="3.2" fill="#ff922b" opacity="0.85"/>
<circle cx="847" cy="84" r="5" fill="#ff922b"/>
<text x="866" y="88" font-size="13" fill="#c9d1d9" font-weight="700">Kāra</text>
<line x1="836" y1="108" x2="858" y2="108" stroke="#a7b0bc" stroke-width="2" stroke-dasharray="5 4"/>
<text x="866" y="112" font-size="13" fill="#c9d1d9" font-weight="400">Rust = 1.0×</text>
<circle cx="847" cy="132" r="4" fill="#3fb950"/>
<text x="866" y="136" font-size="13" fill="#c9d1d9" font-weight="400">C</text>
<circle cx="847" cy="156" r="4" fill="#bc8cff"/>
<text x="866" y="160" font-size="13" fill="#c9d1d9" font-weight="400">Go</text>
<text x="70" y="538" font-size="11.5" fill="#8b949e">Each dot is one benchmarked program (kata × approach); there is no connecting line because left-to-right order is not meaningful. Raw numbers: bench-results.json</text>
</svg>